<svg width="201" height="201" viewBox="0 0 201 201" fill="none" xmlns="http://www.w3.org/2000/svg">
<g clip-path="url(#clip0_1470_146530)">
<mask id="mask0_1470_146530" style="mask-type:luminance" maskUnits="userSpaceOnUse" x="-169" y="-165" width="542" height="542">
<path d="M372.411 -164.781H-168.664V376.294H372.411V-164.781Z" fill="white"/>
</mask>
<g mask="url(#mask0_1470_146530)">
<path d="M174.517 171.35C174.517 181.751 141.993 190.183 101.873 190.183C61.7527 190.183 29.2285 181.751 29.2285 171.35C29.2285 160.948 61.7527 152.516 101.873 152.516C141.993 152.516 174.517 160.948 174.517 171.35Z" fill="#849FA3"/>
<path d="M31.7158 176.239C40.0253 184.268 68.2785 190.18 101.871 190.18C135.463 190.18 163.716 184.268 172.026 176.239C163.716 168.21 135.463 162.297 101.871 162.297C68.2785 162.297 40.0253 168.21 31.7158 176.239Z" fill="#444444"/>
<path d="M174.517 171.35C174.517 181.751 141.993 190.183 101.873 190.183C61.7527 190.183 29.2285 181.751 29.2285 171.35C29.2285 160.948 61.7527 152.516 101.873 152.516C141.993 152.516 174.517 160.948 174.517 171.35Z" fill="#9951F4"/>
<path d="M31.7158 176.239C40.0253 184.268 68.2785 190.18 101.871 190.18C135.463 190.18 163.716 184.268 172.026 176.239C163.716 168.21 135.463 162.297 101.871 162.297C68.2785 162.297 40.0253 168.21 31.7158 176.239Z" fill="#5D3393"/>
<mask id="mask1_1470_146530" style="mask-type:alpha" maskUnits="userSpaceOnUse" x="29" y="152" width="146" height="39">
<path d="M174.532 171.334C174.532 181.736 142.008 190.168 101.888 190.168C61.7673 190.168 29.2432 181.736 29.2432 171.334C29.2432 160.932 61.7673 152.5 101.888 152.5C142.008 152.5 174.532 160.932 174.532 171.334Z" fill="#849FA3"/>
<path d="M31.7305 176.231C40.04 184.26 68.2931 190.172 101.885 190.172C135.478 190.172 163.731 184.26 172.04 176.231C163.731 168.202 135.478 162.289 101.885 162.289C68.2931 162.289 40.04 168.202 31.7305 176.231Z" fill="#444444"/>
</mask>
<g mask="url(#mask1_1470_146530)">
<mask id="mask2_1470_146530" style="mask-type:luminance" maskUnits="userSpaceOnUse" x="-169" y="-165" width="542" height="542">
<path d="M-168.65 -164.805H372.425V376.271H-168.65V-164.805Z" fill="white"/>
</mask>
<g mask="url(#mask2_1470_146530)">
<path d="M123.509 189.305C123.975 189.268 124.286 188.808 124.161 188.357C119.404 171.122 116.957 160.285 114.662 149.63C112.912 141.501 105.941 142.376 103.62 143.196C101.673 143.882 94.5506 146.824 93.8602 153.31C92.6889 164.316 96.3592 176.485 97.6543 189.462C97.6919 189.84 98.0065 190.129 98.3862 190.134C99.543 190.149 100.705 190.159 101.876 190.159C109.413 190.159 116.675 189.858 123.509 189.305Z" fill="#FFB47B"/>
<path d="M114.563 154.353C111.174 157.375 99.3948 160.488 93.3638 160.318C93.673 160.016 93.0542 160.621 93.3638 160.318C93.3709 161.447 94.3343 166.18 94.3658 167.332C94.3779 167.789 96.5056 168.077 96.9545 167.991C105.316 166.39 112.85 162.359 116.415 159.395C116.628 159.217 116.717 158.93 116.656 158.66C116.356 157.333 116.065 156.034 115.782 154.75C115.66 154.194 114.989 153.974 114.563 154.353Z" fill="#EDA670"/>
<path d="M120.371 126.184C120.364 126.166 120.36 126.15 120.353 126.132C114.263 110.097 116.288 109.068 114.978 104.053C113.05 96.6783 106.12 99.7202 106.695 108.699C106.695 108.699 107.269 113.206 104.691 116.51C102.717 117.452 94.2171 153.712 93.1044 158.492C93.0322 158.803 93.1622 159.129 93.4371 159.293C101.34 164.01 118.147 162.388 116.993 149.683C116.982 149.558 117.003 149.427 117.055 149.312C122.483 137.445 122.356 131.31 120.371 126.184Z" fill="#FFB47B"/>
<path d="M96.7068 167.292C96.5251 167.141 96.4266 166.911 96.4408 166.676C96.9096 158.917 104.612 31.77 106.195 27.6628C107.829 23.4261 117.173 21.1748 117.331 29.0821C117.491 37.1932 107.246 165.141 107.129 165.627C107.015 166.105 102.391 171.981 96.7068 167.292Z" fill="#BD6344"/>
<path d="M115.364 132.004C113.298 131.8 111.433 131.617 109.655 131.441C117.157 132.181 121.364 125.554 114.234 121.05C114.133 120.986 114.016 120.946 113.898 120.934C106.801 120.235 99.7054 119.535 92.6088 118.835C85.1875 118.103 87.5463 128.585 87.7094 129.265C88.08 130.813 83.9212 133.147 87.679 138.87C89.2864 141.317 83.3949 142.1 87.4018 150.819C87.965 152.043 85.1651 153.416 88.1517 158.27C88.2492 158.428 88.4023 158.544 88.5799 158.597C91.716 159.538 104.79 160.018 107.069 160.157C107.108 160.16 107.144 160.159 107.183 160.156C114.003 159.62 114.048 153.484 108.746 152.726C109.291 152.773 107.019 152.698 107.552 152.75C113.908 153.377 117.326 147.895 114.08 144.22C113.667 143.752 113.962 143.011 114.586 142.982C115.302 142.947 116.053 142.782 116.913 142.387C121.538 140.257 120.642 132.525 115.364 132.004Z" fill="#FFB47B"/>
<path d="M94.3163 118.971C94.3163 118.971 112.59 120.753 114.664 121.187C116.341 121.651 118.009 123.212 117.568 127.123C117.318 129.344 114.049 131.118 110.419 130.886C106.789 130.655 93.6348 129.379 92.8313 129.159C91.9721 128.923 92.4507 129.568 91.5457 129.691C90.574 129.823 108.645 131.689 110.103 131.66C111.585 131.631 120.966 131.864 119.514 138.192C118.912 140.814 117.057 143.053 111.909 142.373C105.243 141.276 95.8851 140.291 92.9959 139.998C92.4096 139.938 91.9479 140.576 92.2597 141.076C92.3257 141.182 92.4171 141.259 92.5422 141.284C91.9145 141.751 111.452 142.997 111.893 143.108C112.336 143.218 116.015 145.191 115.149 148.278C114.283 151.365 111.697 152.437 106.894 151.984C102.575 151.578 93.9289 151.201 92.1586 150.627C91.8747 150.535 91.5667 150.617 91.3659 150.839C90.9219 151.33 90.7005 151.924 90.9901 151.999C90.0188 152.136 106.921 153.14 107.967 153.202C109.014 153.262 111.811 153.281 111.85 156.764C111.481 160.573 104.148 160.177 92.6684 159.207C92.9198 159.661 110.469 162.048 112.054 157.998C112.737 156.224 112.186 154.588 111.237 153.693C110.866 153.344 110.971 152.731 111.427 152.505C114.314 151.077 117.88 147.689 114.03 143.668C113.033 142.797 120.033 143.212 120.114 137.483C120.167 133.69 118.036 132.339 116.179 131.818C115.59 131.653 115.419 130.896 115.902 130.522C118.161 128.769 119.862 124.702 115.712 121.045C115.632 120.974 115.539 120.919 115.436 120.887C110.214 119.228 94.3163 118.971 94.3163 118.971Z" fill="#EDA670"/>
</g>
</g>
<mask id="mask3_1470_146530" style="mask-type:luminance" maskUnits="userSpaceOnUse" x="20" y="0" width="180" height="201">
<path d="M20.8496 0.015625H199.377V200.516H20.8496V0.015625Z" fill="white"/>
</mask>
<g mask="url(#mask3_1470_146530)">
<mask id="mask4_1470_146530" style="mask-type:luminance" maskUnits="userSpaceOnUse" x="14" y="19" width="179" height="172">
<path d="M192.557 19.6094H14.2021V190.449H192.557V19.6094Z" fill="white"/>
</mask>
<g mask="url(#mask4_1470_146530)">
<path d="M123.507 189.376C123.973 189.338 124.284 188.879 124.16 188.427C119.402 171.192 116.955 160.355 114.66 149.701C112.91 141.572 105.939 142.447 103.618 143.266C101.671 143.953 94.5487 146.894 93.8583 153.38C92.687 164.386 96.3573 176.556 97.6523 189.532C97.6899 189.911 98.0045 190.2 98.3843 190.204C99.5411 190.22 100.703 190.229 101.874 190.229C109.411 190.229 116.673 189.929 123.507 189.376Z" fill="#FFB47B"/>
<path d="M114.562 154.424C111.172 157.446 99.3929 160.558 93.3619 160.388C93.671 160.086 93.0523 160.691 93.3619 160.388C93.3689 161.518 94.3323 166.251 94.3639 167.402C94.3759 167.859 96.5036 168.147 96.9525 168.061C105.314 166.46 112.848 162.429 116.413 159.466C116.626 159.288 116.715 159.001 116.654 158.73C116.354 157.403 116.063 156.104 115.78 154.82C115.658 154.264 114.987 154.045 114.562 154.424Z" fill="#EDA670"/>
<path d="M120.371 126.207C120.364 126.19 120.36 126.174 120.353 126.155C114.263 110.12 116.288 109.091 114.978 104.076C113.05 96.7017 106.12 99.7436 106.695 108.722C106.695 108.722 107.269 113.229 104.691 116.533C102.717 117.475 94.2171 153.736 93.1044 158.515C93.0322 158.827 93.1622 159.152 93.4371 159.316C101.34 164.033 118.147 162.411 116.993 149.707C116.982 149.581 117.003 149.45 117.055 149.336C122.483 137.468 122.356 131.333 120.371 126.207Z" fill="#FFB47B"/>
<path d="M96.6863 167.37C96.5046 167.219 96.4061 166.989 96.4203 166.754C96.8891 158.995 104.592 31.8481 106.175 27.7409C107.809 23.5042 117.153 21.2529 117.31 29.1602C117.471 37.2713 107.226 165.219 107.109 165.705C106.995 166.183 102.37 172.059 96.6863 167.37Z" fill="#BD6344"/>
<path d="M51.439 45.9299L49.3751 73.2578C48.7142 82.0107 55.3814 89.5945 64.1465 90.06L152.632 94.7564C161.431 95.2231 168.88 88.3357 169.102 79.5271L169.802 51.7948C170.016 43.3028 163.416 36.1914 154.931 35.7735L67.8097 31.4813C59.339 31.0636 52.0778 37.4721 51.439 45.9299Z" fill="url(#paint0_linear_1470_146530)"/>
<path d="M115.344 132.036C113.278 131.832 111.412 131.648 109.634 131.472C117.137 132.213 121.344 125.585 114.213 121.081C114.113 121.017 113.996 120.977 113.877 120.966C106.781 120.266 99.6849 119.566 92.5883 118.866C85.167 118.134 87.5258 128.617 87.6889 129.296C88.0595 130.844 83.9007 133.178 87.6585 138.901C89.2659 141.348 83.3743 142.132 87.3813 150.85C87.9445 152.075 85.1446 153.447 88.1312 158.301C88.2287 158.459 88.3818 158.575 88.5594 158.628C91.6955 159.57 104.77 160.049 107.048 160.189C107.087 160.191 107.123 160.191 107.163 160.187C113.983 159.652 114.028 153.515 108.725 152.757C109.27 152.804 106.998 152.729 107.532 152.781C113.888 153.408 117.306 147.927 114.06 144.251C113.646 143.783 113.941 143.043 114.565 143.013C115.281 142.978 116.033 142.814 116.893 142.418C121.517 140.288 120.621 132.557 115.344 132.036Z" fill="#FFB47B"/>
<path d="M94.2958 119.017C94.2958 119.017 112.569 120.799 114.643 121.234C116.32 121.698 117.989 123.259 117.548 127.17C117.298 129.391 114.028 131.165 110.399 130.933C106.769 130.702 93.6143 129.426 92.8108 129.206C91.9516 128.97 92.4302 129.614 91.5252 129.738C90.5535 129.87 108.625 131.736 110.083 131.707C111.564 131.677 120.946 131.911 119.493 138.239C118.891 140.861 117.037 143.1 111.888 142.42C105.223 141.323 95.8646 140.338 92.9754 140.044C92.3891 139.985 91.9274 140.623 92.2392 141.123C92.3052 141.229 92.3966 141.306 92.5217 141.331C91.894 141.798 111.431 143.044 111.873 143.155C112.316 143.265 115.994 145.238 115.128 148.325C114.262 151.412 111.676 152.484 106.874 152.031C102.554 151.625 93.9083 151.248 92.1381 150.674C91.8542 150.582 91.5462 150.663 91.3453 150.886C90.9014 151.377 90.68 151.971 90.9695 152.046C89.9983 152.183 106.901 153.187 107.947 153.249C108.993 153.309 111.79 153.328 111.83 156.811C111.46 160.62 104.127 160.224 92.6479 159.254C92.8993 159.708 110.449 162.095 112.034 158.045C112.716 156.27 112.166 154.635 111.216 153.74C110.846 153.391 110.95 152.778 111.406 152.552C114.294 151.124 117.86 147.736 114.009 143.715C113.012 142.843 120.013 143.259 120.094 137.53C120.147 133.737 118.015 132.386 116.158 131.865C115.57 131.7 115.398 130.943 115.882 130.569C118.14 128.816 119.842 124.749 115.692 121.092C115.611 121.021 115.518 120.966 115.416 120.934C110.193 119.275 94.2958 119.017 94.2958 119.017Z" fill="#EDA670"/>
<path d="M88.9016 63.7981L92.2297 64.0078L92.6058 58.0382L96.329 58.2728L96.5138 55.3399L92.7906 55.1053L93.9019 37.4668L89.8667 37.2126L75.7108 54.4051L75.5496 56.9635L89.2778 57.8285L88.9016 63.7981ZM79.6241 54.2758L90.498 40.7815L89.6081 54.9048L79.6241 54.2758ZM100.018 50.7577C99.527 58.5578 101.091 64.5661 108.495 65.0327C115.879 65.4979 118.164 59.732 118.655 51.9319C119.139 44.2567 117.594 38.2913 110.21 37.826C102.805 37.3595 100.502 43.0824 100.018 50.7577ZM115.327 51.7223C114.963 57.5047 113.952 62.2858 108.689 61.9542C103.385 61.62 102.982 56.7498 103.346 50.9674C103.696 45.4138 104.712 40.5703 110.016 40.9045C115.278 41.236 115.677 46.1686 115.327 51.7223ZM135.182 66.7141L138.51 66.9237L138.886 60.9541L142.589 61.1874L142.773 58.2545L139.071 58.0213L140.182 40.3827L136.147 40.1285L121.991 57.321L121.83 59.8795L135.558 60.7444L135.182 66.7141ZM125.904 57.1917L136.778 43.6974L135.889 57.8208L125.904 57.1917Z" fill="#F9F9F9"/>
<path d="M85.8623 72.177L77.9346 71.6775L77.0058 86.419L84.9335 86.9185L85.0336 85.3306L79.0256 84.9521L79.3444 79.8921L84.7125 80.2303L84.8125 78.6424L79.4444 78.3041L79.755 73.3745L85.763 73.753L85.8623 72.177ZM96.3008 77.2009C96.197 78.8481 95.1744 79.9734 92.994 79.836L90.1618 79.6575L90.5134 74.0761L93.3456 74.2546C95.5497 74.3935 96.4061 75.53 96.3008 77.2009ZM88.693 72.3791L87.7657 87.0969L89.6854 87.2179L90.0647 81.198L92.3992 81.3451L95.5157 87.5852L97.8265 87.7308L94.5182 81.324C97.0174 80.9342 98.1729 79.2105 98.2916 77.3263C98.4432 74.9208 96.917 72.8973 93.4449 72.6785L88.693 72.3791ZM109.052 78.0043C108.948 79.6514 107.925 80.7767 105.745 80.6393L102.924 80.4616L103.276 74.8803L106.096 75.0579C108.3 75.1968 109.157 76.3334 109.052 78.0043ZM101.444 73.1825L100.516 87.9003L102.448 88.022L102.827 82.0022L105.15 82.1485L108.278 88.3893L110.577 88.5342L107.269 82.1273C109.78 81.7383 110.924 80.0139 111.042 78.1297C111.194 75.7241 109.668 73.7006 106.196 73.4819L101.444 73.1825ZM127.809 82.2199C128.088 77.7998 125.048 74.4913 120.889 74.2292C116.742 73.9679 113.299 76.868 113.021 81.2881C112.743 85.6964 115.794 89.0057 119.942 89.267C124.101 89.529 127.532 86.6281 127.809 82.2199ZM114.988 81.4121C115.215 77.7978 117.679 75.7044 120.784 75.9001C123.889 76.0957 126.07 78.4817 125.842 82.096C125.616 85.6865 123.151 87.8036 120.046 87.608C116.941 87.4123 114.761 85.0026 114.988 81.4121ZM138.298 79.8469C138.194 81.4941 137.159 82.6186 134.991 82.482L132.159 82.3036L132.51 76.7222L135.342 76.9006C137.535 77.0387 138.403 78.1761 138.298 79.8469ZM130.69 75.0252L129.762 89.743L131.682 89.8639L132.061 83.8441L134.384 83.9904L137.512 90.2313L139.811 90.3761L136.503 83.9693C139.014 83.5802 140.158 81.8558 140.277 79.9716C140.428 77.5661 138.902 75.5426 135.442 75.3245L130.69 75.0252Z" fill="#F9F9F9"/>
</g>
</g>
</g>
</g>
<defs>
<linearGradient id="paint0_linear_1470_146530" x1="166.276" y1="102.831" x2="44.35" y2="61.7134" gradientUnits="userSpaceOnUse">
<stop stop-color="#400789"/>
<stop offset="1" stop-color="#9E64E7"/>
</linearGradient>
<clipPath id="clip0_1470_146530">
<rect width="200.5" height="200.5" fill="white" transform="translate(0.250977)"/>
</clipPath>
</defs>
</svg>
