<svg width="93" height="68" viewBox="0 0 93 68" fill="none" xmlns="http://www.w3.org/2000/svg">
<g clip-path="url(#clip0_2494_151734)">
<path d="M33.3733 11.8963C33.9139 11.904 34.4473 12.0208 34.942 12.2395C35.4363 12.4586 35.8827 12.7733 36.2549 13.1657C36.6304 13.5528 36.9258 14.0109 37.1237 14.5128C37.3269 15.0206 37.4287 15.5636 37.4229 16.1105V16.2553C37.3969 16.7549 37.281 17.2453 37.0807 17.7033C36.8495 18.1995 36.5213 18.6436 36.1154 19.0109L36.0377 19.0785C35.6588 19.4231 35.221 19.6963 34.7446 19.8845C34.2503 20.0732 33.7237 20.164 33.1947 20.1505C32.6507 20.1539 32.1116 20.0452 31.6116 19.8314C30.6047 19.383 29.8121 18.561 29.4009 17.5387C29.2049 17.0329 29.1132 16.4928 29.1311 15.9507C29.1378 15.4024 29.2537 14.8613 29.4733 14.3584C29.9338 13.3424 30.7741 12.5464 31.8143 12.1424C32.3172 11.9484 32.8544 11.8586 33.3931 11.8774L33.3733 11.8963Z" fill="url(#paint0_linear_2494_151734)"/>
<path d="M40.5531 26.7264L38.8799 25.0467C38.6276 24.7963 38.6257 24.389 38.876 24.1367C38.8773 24.1354 38.8786 24.1341 38.8799 24.1328L40.8106 22.2021C41.0609 21.9499 41.4683 21.9479 41.7206 22.1983C41.7219 22.1996 41.7231 22.2009 41.7244 22.2021L43.4749 23.9526L43.565 23.8947C44.197 23.4899 44.8785 23.1681 45.5923 22.9358C46.9695 22.4911 48.4445 22.4461 49.8462 22.8071H49.8913C50.6069 23.0008 51.2917 23.2956 51.9249 23.6823C52.6168 24.1052 53.2545 24.611 53.8234 25.1883C54.0777 25.4367 54.0822 25.8441 53.8337 26.0983C53.8305 26.1015 53.8267 26.1047 53.8234 26.1079L49.6467 30.2782C49.3964 30.5305 48.989 30.5331 48.7367 30.2827C48.7354 30.2814 48.7341 30.2795 48.7328 30.2782C48.4226 29.9532 48.0693 29.6726 47.6838 29.4422C47.476 29.3135 47.2391 29.2382 46.9952 29.2228H46.9566C46.7565 29.2221 46.5576 29.2595 46.371 29.3328C46.1785 29.4165 46.0035 29.5362 45.8561 29.6862C45.7409 29.7968 45.6418 29.9223 45.5601 30.0594C45.5022 30.1547 45.461 30.2589 45.4378 30.3683V30.4005C45.4217 30.5028 45.4217 30.6077 45.4378 30.7101C45.4468 30.8195 45.4751 30.9257 45.5215 31.0248C45.5762 31.1548 45.6431 31.2803 45.721 31.398C45.8066 31.521 45.9031 31.6349 46.0106 31.7391C46.1206 31.8511 46.2416 31.9528 46.371 32.0416C46.4772 32.1098 46.5917 32.1639 46.7121 32.2025C46.8343 32.2443 46.9624 32.2681 47.0918 32.2733H47.1304C47.29 32.2746 47.4489 32.2636 47.6066 32.2411C47.8351 32.2064 48.0603 32.1568 48.2824 32.0931C48.5526 32.0223 48.8487 31.9258 49.164 31.8164C49.9234 31.5203 50.6314 31.2693 51.2878 31.0569C51.9442 30.8446 52.6522 30.6386 53.3022 30.4713H53.3408C53.9728 30.3072 54.6195 30.2087 55.2715 30.1759C55.9047 30.1444 56.5399 30.1875 57.1635 30.3046C57.8258 30.4353 58.461 30.6772 59.0428 31.019C59.6876 31.4025 60.2803 31.8672 60.8061 32.402C61.3242 32.9156 61.7721 33.4961 62.1383 34.1274C62.4749 34.7304 62.7156 35.3817 62.8527 36.0581C62.9814 36.7152 63.0135 37.3864 62.9492 38.0525C62.8778 38.7366 62.7136 39.4085 62.4601 40.0482C62.1904 40.7271 61.8474 41.3746 61.4368 41.9789L61.2373 42.262L63.168 44.1927C63.4203 44.4431 63.4222 44.8505 63.1719 45.1027C63.1706 45.104 63.1693 45.1053 63.168 45.1066L61.2373 47.0373C60.9863 47.2883 60.2076 46.9208 59.9502 46.6698L58.3606 45.0545C58.0002 45.3119 57.6333 45.5565 57.2536 45.7753C56.2574 46.341 55.1672 46.7226 54.0358 46.9015H54.0487C53.474 46.9723 52.8922 46.9723 52.3175 46.9015C51.7126 46.8371 51.1166 46.7052 50.5413 46.5089H50.5091C49.8835 46.2843 49.2889 45.9818 48.7393 45.6079C48.1189 45.187 47.541 44.7069 47.0145 44.1734C46.7603 43.925 46.7558 43.5176 47.0042 43.2634C47.0075 43.2602 47.0113 43.2557 47.0145 43.2525L51.1848 39.0828C51.4332 38.8286 51.8406 38.8235 52.0948 39.0719C52.098 39.0751 52.1019 39.0796 52.1051 39.0828C52.3091 39.2772 52.5234 39.4593 52.7487 39.6292C52.9218 39.7605 53.1072 39.8751 53.3022 39.971C53.4598 40.045 53.6233 40.1055 53.7913 40.1512C53.9296 40.1878 54.0725 40.2078 54.216 40.2091C54.3544 40.2117 54.4934 40.1962 54.6279 40.1634C54.7547 40.1351 54.8776 40.0919 54.9947 40.0347H55.0333C55.1563 39.9761 55.2728 39.9053 55.3809 39.8223C55.5044 39.7309 55.6209 39.6299 55.7284 39.5198C55.9549 39.3229 56.1223 39.0667 56.2111 38.7797C56.2265 38.669 56.2265 38.5558 56.2111 38.4451V38.4065C56.2027 38.3112 56.1789 38.2179 56.1403 38.1304C56.0965 38.01 56.0386 37.8955 55.9665 37.7893C55.8899 37.6754 55.8018 37.5692 55.7027 37.4739C55.5495 37.3188 55.3841 37.176 55.2071 37.0485C55.0803 36.9649 54.9439 36.896 54.8017 36.8432H54.7566C54.6382 36.8033 54.5146 36.7795 54.3898 36.7724C54.225 36.7538 54.059 36.7538 53.8942 36.7724C53.6761 36.8078 53.4611 36.8587 53.2507 36.9263C52.9997 37.0035 52.7294 37.1007 52.4269 37.2229C51.6804 37.5254 50.966 37.7893 50.2774 38.0274H50.2388C49.5566 38.2655 48.9002 38.4708 48.3081 38.6381C47.678 38.8177 47.0313 38.931 46.3774 38.9734C45.748 39.0088 45.1167 38.9657 44.4982 38.8447H44.4596C43.8134 38.7102 43.1956 38.4657 42.6319 38.1233C41.9883 37.7359 41.3975 37.2661 40.8749 36.7267C39.3574 35.2845 38.5883 33.2251 38.7898 31.1413C38.8541 30.4526 39.0079 29.775 39.2467 29.1263C39.5073 28.4466 39.8446 27.7992 40.2507 27.1956C40.3601 27.0282 40.4759 26.8673 40.5918 26.7129L40.5531 26.7264Z" fill="url(#paint1_linear_2494_151734)"/>
<path d="M49.3924 64.0835L78.1346 39.8976C78.6015 39.5047 78.6615 38.8077 78.2686 38.3409L52.9273 8.22555C52.7549 8.02078 52.5142 7.88552 52.2497 7.84488L24.8529 3.63585C24.2043 3.5362 23.6123 4.02054 23.5815 4.67604L22.2473 33.0844C22.2343 33.3622 22.3265 33.6348 22.5056 33.8476L47.8357 63.9495C48.2285 64.4164 48.9256 64.4763 49.3925 64.0835C49.6502 63.8666 49.7508 63.7819 49.3924 64.0835Z" stroke="url(#paint2_linear_2494_151734)" stroke-width="4.41933"/>
<path d="M54.3415 64.7373L83.0837 40.5513C83.5506 40.1585 83.6106 39.4615 83.2177 38.9946L57.6091 8.56169" stroke="url(#paint3_linear_2494_151734)" stroke-width="1.10483" stroke-linecap="round"/>
</g>
<defs>
<linearGradient id="paint0_linear_2494_151734" x1="37.4232" y1="20.1518" x2="28.5301" y2="19.1725" gradientUnits="userSpaceOnUse">
<stop stop-color="#7830D2"/>
<stop offset="1" stop-color="#BB86FF"/>
</linearGradient>
<linearGradient id="paint1_linear_2494_151734" x1="63.3584" y1="47.1213" x2="36.896" y2="44.2644" gradientUnits="userSpaceOnUse">
<stop stop-color="#7830D2"/>
<stop offset="1" stop-color="#BB86FF"/>
</linearGradient>
<linearGradient id="paint2_linear_2494_151734" x1="78.98" y1="39.1862" x2="44.1928" y2="64.5624" gradientUnits="userSpaceOnUse">
<stop stop-color="#7830D2"/>
<stop offset="1" stop-color="#BB86FF"/>
</linearGradient>
<linearGradient id="paint3_linear_2494_151734" x1="83.9291" y1="39.84" x2="49.3852" y2="63.2678" gradientUnits="userSpaceOnUse">
<stop stop-color="#7830D2"/>
<stop offset="1" stop-color="#BB86FF"/>
</linearGradient>
<clipPath id="clip0_2494_151734">
<rect width="93" height="68" fill="white"/>
</clipPath>
</defs>
</svg>
