<svg width="93" height="68" viewBox="0 0 93 68" fill="none" xmlns="http://www.w3.org/2000/svg">
<g clip-path="url(#clip0_2494_151707)">
<g clip-path="url(#clip1_2494_151707)">
<path d="M73.5317 36.1468C73.5317 50.0025 61.7708 61.2349 47.2629 61.2349C32.755 61.2349 20.9941 50.0025 20.9941 36.1468C20.9941 22.2909 32.755 11.0586 47.2629 11.0586C61.7708 11.0586 73.5317 22.2909 73.5317 36.1468Z" fill="url(#paint0_linear_2494_151707)"/>
<path d="M33.3922 38.7997C33.5507 39.3646 33.9379 39.7891 34.9191 39.7891C35.789 39.7891 36.0591 39.4923 36.0591 39.067C36.0591 38.6136 35.8173 38.3476 34.4053 38.069C31.6234 37.5167 31.2232 36.4397 31.2232 35.3153C31.2232 33.626 32.6251 32.6406 34.683 32.6406C37.1868 32.6406 38.1932 33.9542 38.2903 35.2175H35.9112C35.8261 34.8374 35.6131 34.4003 34.679 34.4003C34.0161 34.4003 33.7021 34.645 33.7021 35.0454C33.7021 35.4394 34.0166 35.6246 35.1853 35.8654C38.0315 36.4438 38.5829 37.4571 38.5829 38.7424C38.5829 40.3721 37.3748 41.5576 34.8165 41.5576C32.2906 41.5576 31.1664 40.3427 30.9414 38.7997H33.3922Z" fill="#F9F9F9"/>
<path d="M42.0487 39.7758L41.5725 41.3688H39.1172L41.9658 32.8262H45.1564L48.1919 41.3688H45.5618L45.0504 39.7758H42.0487ZM44.4817 37.7993C43.9902 36.2616 43.7066 35.2899 43.517 34.575H43.4799C43.3161 35.2818 42.9826 36.4941 42.5821 37.7993H44.4817Z" fill="#F9F9F9"/>
<path d="M48.9941 32.8262H51.4485V39.3919H55.4911L55.2039 41.3688H48.9941V32.8262Z" fill="#F9F9F9"/>
<path d="M62.8126 37.97H58.7879V39.3962H63.2876L63.0058 41.3684H56.375V32.8262H63.0259V34.8027H58.7879V35.9934H62.8126V37.97Z" fill="#F9F9F9"/>
<path d="M47.7141 4.62337L49.5684 9.45012C51.1756 13.634 56.4448 15.2699 60.2608 12.7698L64.6635 9.88577C66.5697 8.6369 69.0394 10.4778 68.2591 12.5659L66.4574 17.3885C64.8957 21.5685 67.859 26.0686 72.4709 26.5201L77.7915 27.0411C80.0952 27.2666 80.7656 30.1941 78.7674 31.3034L74.1528 33.8652C70.1526 36.0859 69.4236 41.3442 72.6735 44.5361L76.4226 48.2184C78.046 49.8129 76.6032 52.4573 74.322 52.0687L69.0534 51.1709C64.4869 50.393 60.4068 53.9495 60.7739 58.388L61.1972 63.5084C61.3805 65.7258 58.4998 66.8496 57.0029 65.1449L53.546 61.208C50.5495 57.7955 45.0273 57.9858 42.3398 61.5941L39.2394 65.757C37.8968 67.5596 34.9262 66.6374 34.914 64.4141L34.8861 59.2801C34.862 54.8297 30.4816 51.5648 25.9972 52.6546L20.8236 53.9122C18.5833 54.4566 16.9127 51.9195 18.391 50.2182L21.8052 46.289C24.7645 42.8831 23.5756 37.6909 19.3925 35.7522L14.5666 33.5157C12.4769 32.5473 12.888 29.5825 15.1651 29.1992L20.4238 28.3136C24.982 27.546 27.5409 22.8557 25.6164 18.7958L23.3963 14.1118C22.435 12.0837 24.7354 10.0785 26.7456 11.1924L31.3883 13.7648C35.4125 15.9946 40.5219 14.0011 41.7566 9.71931L43.181 4.77958C43.7979 2.64079 46.9113 2.5335 47.7141 4.62337Z" stroke="#4D4D4D" stroke-width="1.02941" stroke-linecap="round" stroke-linejoin="round"/>
</g>
</g>
<defs>
<linearGradient id="paint0_linear_2494_151707" x1="73.5317" y1="61.2349" x2="17.2627" y2="54.7606" gradientUnits="userSpaceOnUse">
<stop stop-color="#7830D2"/>
<stop offset="1" stop-color="#BB86FF"/>
</linearGradient>
<clipPath id="clip0_2494_151707">
<rect width="93" height="68" fill="white"/>
</clipPath>
<clipPath id="clip1_2494_151707">
<rect width="70" height="70" fill="white" transform="translate(12)"/>
</clipPath>
</defs>
</svg>
