<svg width="66" height="58" viewBox="0 0 66 58" fill="none" xmlns="http://www.w3.org/2000/svg">
<path d="M27.5233 4.14953L27.5349 7.54137C27.5349 7.54137 27.5465 10.9331 30.9384 10.9215C34.3301 10.9099 34.3186 7.51817 34.3186 7.51817L34.307 4.12633C34.307 4.12633 34.2953 0.734612 30.9036 0.746212C27.5117 0.757812 27.5233 4.14953 27.5233 4.14953Z" fill="url(#paint0_linear_2363_152122)"/>
<path d="M51.3955 31.2484L54.7873 31.2368C54.7873 31.2368 58.1789 31.2252 58.1673 27.8335C58.1557 24.4418 54.7641 24.4534 54.7641 24.4534L51.3723 24.465C51.3723 24.465 47.9805 24.4766 47.9921 27.8683C48.0037 31.26 51.3955 31.2484 51.3955 31.2484Z" fill="url(#paint1_linear_2363_152122)"/>
<path d="M7.22529 31.3969L10.6291 31.3852C10.6291 31.3852 14.0208 31.3736 14.0092 27.9819C13.9976 24.5902 10.6059 24.6018 10.6059 24.6018L7.21402 24.6134C7.21402 24.6134 3.8223 24.625 3.8339 28.0167C3.83357 31.4085 7.22529 31.3969 7.22529 31.3969Z" fill="url(#paint2_linear_2363_152122)"/>
<path d="M9.92406 8.68044C7.53175 11.0892 9.94048 13.4815 9.94048 13.4815L12.3491 15.8738C12.3491 15.8738 14.7578 18.266 17.1502 15.8574C19.5425 13.4486 17.1337 11.0563 17.1337 11.0563L14.725 8.66402C14.725 8.66402 12.3164 6.2717 9.92406 8.68044Z" fill="url(#paint3_linear_2363_152122)"/>
<path d="M51.9662 13.3397C51.9662 13.3397 54.3586 10.9309 51.9497 8.53862C49.541 6.14631 47.1488 8.55504 47.1488 8.55504L44.7565 10.9638C44.7565 10.9638 42.3642 13.3725 44.7729 15.7648C47.1816 18.157 49.5738 15.7484 49.5738 15.7484L51.9662 13.3397Z" fill="url(#paint4_linear_2363_152122)"/>
<path d="M27.6931 52.1584L27.6815 48.7668C27.6815 48.7668 27.6699 45.375 31.0618 45.3634C34.4535 45.3518 34.4652 48.7436 34.4652 48.7436L34.4768 52.1352C34.4768 52.1352 34.4883 55.5271 31.0966 55.5387C27.7047 55.5503 27.6931 52.1584 27.6931 52.1584Z" fill="url(#paint5_linear_2363_152122)"/>
<path d="M10.0561 47.7569C7.64738 45.3646 10.0397 42.956 10.0397 42.956L12.4319 40.5472C12.4319 40.5472 14.8242 38.1385 17.2329 40.5308C19.6417 42.923 17.2494 45.3319 17.2494 45.3319L14.857 47.7405C14.857 47.7405 12.4649 50.1491 10.0561 47.7569Z" fill="url(#paint6_linear_2363_152122)"/>
<path d="M52.0712 42.7985C52.0712 42.7985 54.4801 45.1908 52.0877 47.5996C49.6953 50.0083 47.2867 47.616 47.2867 47.616L44.878 45.2237C44.878 45.2237 42.4692 42.8314 44.8616 40.4226C47.2539 38.0139 49.6625 40.4062 49.6625 40.4062L52.0712 42.7985Z" fill="url(#paint7_linear_2363_152122)"/>
<path d="M45.3572 22.8823C48.2618 30.8097 44.19 39.5907 36.2626 42.4952C28.3353 45.3997 19.5543 41.3279 16.6498 33.4006C13.7452 25.4733 17.817 16.6923 25.7444 13.7877C33.6717 10.8832 42.4527 14.955 45.3572 22.8823Z" fill="url(#paint8_linear_2363_152122)"/>
<path d="M51.1584 28.722C49.6637 28.722 48.2204 28.9519 46.8534 29.3734C46.4318 28.1598 45.8186 27.0484 45.052 26.052C42.893 23.2543 39.5207 21.4531 35.7137 21.4531C30.1824 21.4531 25.5578 25.26 24.2676 30.3954C22.9006 29.3607 21.2142 28.722 19.3619 28.722C17.88 28.722 16.4875 29.1179 15.2994 29.8077C12.8466 31.213 11.1861 33.8701 11.1861 36.8977C11.1861 37.9963 11.4033 39.0439 11.7992 39.9892C11.0199 39.7722 10.2152 39.6187 9.37208 39.6187C4.35157 39.6187 0.289062 43.6812 0.289062 48.7017C0.289062 53.7221 4.35157 57.7846 9.37208 57.7846H51.1584C59.181 57.7846 65.6963 51.2821 65.6963 43.2469C65.6963 35.237 59.1937 28.722 51.1584 28.722Z" fill="white"/>
<defs>
<linearGradient id="paint0_linear_2363_152122" x1="28.8243" y1="3.10149" x2="34.7284" y2="6.88977" gradientUnits="userSpaceOnUse">
<stop stop-color="#F9CA13"/>
<stop offset="0.354167" stop-color="#FABF10"/>
<stop offset="1" stop-color="#FF8A00"/>
</linearGradient>
<linearGradient id="paint1_linear_2363_152122" x1="49.9426" y1="26.0353" x2="53.9839" y2="31.8707" gradientUnits="userSpaceOnUse">
<stop stop-color="#F9CA13"/>
<stop offset="0.354167" stop-color="#FABF10"/>
<stop offset="1" stop-color="#FF8A00"/>
</linearGradient>
<linearGradient id="paint2_linear_2363_152122" x1="5.78441" y1="26.1837" x2="9.8257" y2="32.0192" gradientUnits="userSpaceOnUse">
<stop stop-color="#F9CA13"/>
<stop offset="0.354167" stop-color="#FABF10"/>
<stop offset="1" stop-color="#FF8A00"/>
</linearGradient>
<linearGradient id="paint3_linear_2363_152122" x1="10.6561" y1="9.76535" x2="16.6001" y2="15.4899" gradientUnits="userSpaceOnUse">
<stop stop-color="#F9CA13"/>
<stop offset="0.354167" stop-color="#FABF10"/>
<stop offset="1" stop-color="#FF8A00"/>
</linearGradient>
<linearGradient id="paint4_linear_2363_152122" x1="45.4804" y1="9.64817" x2="51.4243" y2="15.3727" gradientUnits="userSpaceOnUse">
<stop stop-color="#F9CA13"/>
<stop offset="0.354167" stop-color="#FABF10"/>
<stop offset="1" stop-color="#FF8A00"/>
</linearGradient>
<linearGradient id="paint5_linear_2363_152122" x1="28.9825" y1="47.7187" x2="34.8866" y2="51.507" gradientUnits="userSpaceOnUse">
<stop stop-color="#F9CA13"/>
<stop offset="0.354167" stop-color="#FABF10"/>
<stop offset="1" stop-color="#FF8A00"/>
</linearGradient>
<linearGradient id="paint6_linear_2363_152122" x1="10.7635" y1="41.6403" x2="16.7075" y2="47.3648" gradientUnits="userSpaceOnUse">
<stop stop-color="#F9CA13"/>
<stop offset="0.354167" stop-color="#FABF10"/>
<stop offset="1" stop-color="#FF8A00"/>
</linearGradient>
<linearGradient id="paint7_linear_2363_152122" x1="45.5936" y1="41.5076" x2="51.5377" y2="47.2321" gradientUnits="userSpaceOnUse">
<stop stop-color="#F9CA13"/>
<stop offset="0.354167" stop-color="#FABF10"/>
<stop offset="1" stop-color="#FF8A00"/>
</linearGradient>
<linearGradient id="paint8_linear_2363_152122" x1="19.3386" y1="23.6489" x2="44.0296" y2="34.64" gradientUnits="userSpaceOnUse">
<stop stop-color="#F9CA13"/>
<stop offset="0.354167" stop-color="#FABF10"/>
<stop offset="1" stop-color="#FF8A00"/>
</linearGradient>
</defs>
</svg>
