<svg width="60" height="60" viewBox="0 0 60 60" fill="none" xmlns="http://www.w3.org/2000/svg">
<circle cx="25.8945" cy="30.5626" r="2.25" stroke="#E6E6E6" stroke-width="1.5"/>
<circle cx="34.0508" cy="30.5626" r="2.25" stroke="#E6E6E6" stroke-width="1.5"/>
<path d="M23.0996 25.0838C25.6309 23.4431 31.9871 21.1463 37.1621 25.0838" stroke="#E6E6E6" stroke-width="1.5" stroke-linecap="round" stroke-linejoin="round"/>
<path d="M21.6953 34.6378C24.1797 36.8409 31.0328 39.9253 38.5703 34.6378" stroke="#E6E6E6" stroke-width="1.5" stroke-linecap="round" stroke-linejoin="round"/>
<path d="M27.6001 22.8281L26.0532 21L20.9907 22.8281C19.7251 24.6094 17.3907 29.6625 18.1782 35.625C18.6939 36.7031 20.5127 38.8875 23.6627 39L24.7877 37.3125" stroke="#E6E6E6" stroke-width="1.5" stroke-linejoin="round"/>
<path d="M32.3628 22.8281L33.9097 21L38.9722 22.8281C40.2378 24.6094 42.5722 29.6625 41.7847 35.625C41.269 36.7031 39.4502 38.8875 36.3002 39L35.1752 37.3125" stroke="#E6E6E6" stroke-width="1.5" stroke-linejoin="round"/>
<rect x="0.5" y="0.5" width="58.9644" height="59" rx="29.4822" stroke="#E6E6E6"/>
</svg>
