<svg width="120" height="158" viewBox="0 0 120 158" fill="none" xmlns="http://www.w3.org/2000/svg">
<g filter="url(#filter0_f_2020_140766)">
<ellipse cx="74" cy="151" rx="42" ry="3" fill="#B3B3B3"/>
</g>
<path d="M62.3464 23.7786C62.3464 23.7786 67.73 19.3791 65.351 13.2459C63.2491 7.82846 57.596 5.83949 53.5621 7.30795C53.5617 7.30837 52.8109 25.9054 62.3464 23.7786Z" fill="#131212"/>
<path d="M52.9499 8.2335C53.532 8.18665 54.117 8.23168 54.6847 8.36667C59.9774 9.61066 61.5763 17.1689 60.241 21.7986C59.5017 24.3609 57.4912 26.5392 54.8841 27.0028C51.0714 27.681 47.9993 24.7276 46.7679 21.2052C45.8122 18.5706 45.873 15.674 46.9391 13.0817C48.0434 10.5692 50.292 8.44928 52.9499 8.2335Z" fill="#F3B6B5"/>
<path d="M60.2769 19.3992C61.2796 19.615 62.3213 19.2779 63.0075 18.5156C63.6445 17.7073 63.8408 16.6366 63.5321 15.6554C63.2876 14.768 62.5782 14.0844 61.6824 13.873C60.7562 13.7516 59.8934 14.3649 59.7039 15.2795L60.2769 19.3992Z" fill="#F3B6B5"/>
<path d="M59.6463 16.8186L65.6211 28.31C66.7568 30.4142 66.0578 33.0386 64.0265 34.2991C61.9043 35.6155 59.1169 34.9625 57.801 32.8407C57.6832 32.651 57.5801 32.4531 57.4915 32.2482L52.6207 21.1767L59.6463 16.8186Z" fill="#F3B6B5"/>
<path d="M55.9392 28.5771L55.1914 26.961C57.5746 26.2089 59.405 24.2873 60.0399 21.8703C60.0399 21.8703 60.1717 25.7107 55.9392 28.5771Z" fill="#DFA8A8"/>
<path d="M60.2769 14.1973C56.1714 16.3554 50.948 15.8365 46.8956 13.5817C48.15 9.97806 51.293 7.36296 55.0649 6.78434C60.5064 5.83534 60.2769 14.1973 60.2769 14.1973Z" fill="#131212"/>
<path d="M61.2229 17.2633C61.674 17.1133 61.9243 16.6327 61.789 16.177C61.6241 15.8856 61.2899 15.7335 60.9613 15.8009" stroke="#1E1C1C" stroke-width="0.262221" stroke-miterlimit="10" stroke-linecap="round"/>
<path d="M50.9862 21.8166L50.0945 21.4849C50.4618 21.0947 50.4915 19.4641 50.4915 19.4641" stroke="#1E1C1C" stroke-width="0.262221" stroke-miterlimit="10" stroke-linecap="round"/>
<path d="M50.6283 23.2797C50.6283 23.2797 52.7815 24.1304 52.9761 21.1837" stroke="#1E1C1C" stroke-width="0.262221" stroke-miterlimit="10" stroke-linecap="round"/>
<path d="M51.7032 17.4137C51.7032 17.4137 52.2458 19.3893 53.24 18.9107C54.2342 18.4321 53.5814 16.51 53.5814 16.51" stroke="#1E1C1C" stroke-width="0.262221" stroke-miterlimit="10" stroke-linecap="round"/>
<path d="M46.7935 19.1962C46.7935 19.1962 47.2917 20.8853 48.0598 20.5152C48.8288 20.145 48.2439 18.4985 48.2439 18.4985" stroke="#1E1C1C" stroke-width="0.262221" stroke-miterlimit="10" stroke-linecap="round"/>
<path d="M65.0003 3.97612C66.5431 7.07442 65.2824 10.8371 62.1841 12.3803C59.0858 13.9232 55.3235 12.6624 53.7807 9.56411C53.7272 9.4572 53.677 9.34898 53.6301 9.23903C52.0868 6.14074 53.348 2.37804 56.4463 0.834808C59.5442 -0.708001 63.3069 0.553153 64.8497 3.65145C64.9027 3.75795 64.9533 3.86617 65.0003 3.97612Z" fill="#131212"/>
<path d="M59.3449 144.595L66.9625 144.563L65.0941 132.117L57.4766 132.149L59.3449 144.595Z" fill="#F3B6B5"/>
<path d="M66.8054 143.352L56.912 143.393L48.8891 146.793C47.2965 147.62 46.2997 149.269 46.3067 151.063L69.0641 150.969L67.7328 144.195C67.6889 143.716 67.2864 143.35 66.8054 143.352Z" fill="#FFE555"/>
<path d="M56.1172 143.739L57.7615 141.491C58.1518 140.952 58.8161 140.684 59.4719 140.8C60.4211 140.977 61.5647 141.641 61.3961 143.85L56.1172 143.739Z" fill="#FFE555"/>
<path d="M75.2831 84.6014C74.7521 84.9568 65.8649 111.004 65.8649 111.004L68.3033 136.537L54.5463 137.664L50.51 117.072C49.7472 113.186 49.9622 109.171 51.1354 105.389C54.9312 93.15 63.0658 70.4706 63.0658 70.4706L75.8022 67.3047L75.2831 84.6014Z" fill="url(#paint0_linear_2020_140766)"/>
<path d="M84.9762 144.595L92.5933 144.563L90.7241 132.117L83.1074 132.149L84.9762 144.595Z" fill="#F3B6B5"/>
<path d="M92.4222 143.352L82.5288 143.393L74.5063 146.793C72.9132 147.62 71.9165 149.269 71.9239 151.063L94.6817 150.969L93.35 144.195C93.3061 143.716 92.9032 143.35 92.4222 143.352Z" fill="#FFE555"/>
<path d="M81.7363 143.739L83.3815 141.491C83.7717 140.952 84.4369 140.684 85.0927 140.8C86.041 140.977 87.1851 141.641 87.0164 143.85L81.7363 143.739Z" fill="#FFE555"/>
<path d="M87.1052 62.2344C87.1052 62.2344 91.1674 63.7942 89.7882 80.9472C89.5075 84.4398 89.3499 87.9414 89.2584 91.4434L88.7844 109.615L94.1081 135.607L80.0647 136.537L72.9839 117.574C71.2686 112.987 70.4286 108.121 70.507 103.225C70.7195 90.299 72.4357 68.4854 72.4357 68.4854L87.1052 62.2344Z" fill="url(#paint1_linear_2020_140766)"/>
<path d="M46.007 45.073L48.2263 45.8664C48.436 45.9353 45.183 51.1139 45.183 51.1139C45.183 51.1139 34.9008 49.6245 34.2498 49.1959C33.598 48.7672 37.5701 48.7368 37.5701 48.7368C37.5701 48.7368 33.819 48.0452 32.8526 47.328C32.0832 46.7593 37.2181 46.7814 37.2181 46.7814C35.329 46.3068 31.7708 45.6455 31.8254 45.0188C31.894 44.2333 37.8817 45.3443 37.8817 45.3443C37.8817 45.3443 33.7531 44.2271 33.6077 43.468C33.4624 42.7092 41.5435 43.9756 41.5435 43.9756C41.5435 43.9756 40.3085 42.5425 40.5674 40.812C40.6849 40.3954 41.0535 40.0987 41.4855 40.0736C41.9071 42.2899 46.007 45.073 46.007 45.073Z" fill="#F3B6B5"/>
<path d="M70.3574 34.5598C70.3574 34.5598 73.8256 44.2229 72.7206 51.6957C70.8803 64.151 41.5038 50.2297 41.5038 50.2297L42.836 44.5196C42.836 44.5196 63.4773 47.4539 63.279 46.6941C62.7795 44.7756 61.3608 38.322 61.3608 38.322L70.3574 34.5598Z" fill="#F3B6B5"/>
<path d="M55.6179 33.0672L65.296 26.8222C65.296 26.8222 70.8631 30.589 74.3697 34.6964C86.7219 49.1617 91.4213 74.0017 91.4213 74.0017C91.4213 74.0017 78.6811 76.8229 62.2874 69.1872L55.6179 33.0672Z" fill="#F8E8EF"/>
<path d="M36.748 54.5497L34.4895 56.5377L28.5511 49.7133L30.8096 47.7253L36.748 54.5497Z" fill="#133950"/>
<path d="M50.6756 71.2578L48.5057 73.167C48.0957 73.5281 47.4711 73.4891 47.1096 73.0795L47.1096 73.0791L32.7219 56.5213C32.3604 56.1121 32.3998 55.487 32.8089 55.1252C32.8098 55.1247 32.8106 55.1239 32.8114 55.1231L34.9804 53.213C35.3908 52.8515 36.0167 52.8909 36.3782 53.3013C36.3782 53.3017 36.379 53.3017 36.379 53.3021L50.7659 69.8599C51.1274 70.2699 51.0872 70.8946 50.678 71.256C50.6768 71.2565 50.6764 71.2569 50.6756 71.2578Z" fill="#D9D9D9"/>
<path d="M31.2057 24.9298C24.2524 15.0697 13.6754 10.5605 7.58084 14.8581C1.48624 19.1556 2.18306 30.6333 9.13626 40.493C16.0895 50.3527 26.6665 54.8623 32.761 50.5639C38.8556 46.2655 38.1589 34.7895 31.2057 24.9298ZM32.1133 47.8444C31.6387 48.1679 31.1203 48.4232 30.5743 48.602C25.5156 50.3484 17.5328 46.096 12.1044 38.3971C6.6759 30.6982 5.35147 21.7522 8.69441 17.575C9.04599 17.1203 9.45978 16.718 9.92419 16.3801C14.7564 12.9729 23.9182 17.2986 29.9307 25.8262C35.9432 34.3539 36.9451 44.4372 32.1133 47.8444Z" fill="#D9D9D9"/>
<path d="M30.0241 25.674C24.0108 17.1464 14.8498 12.8207 10.0176 16.2279C9.55319 16.5662 9.13899 16.9685 8.7878 17.4228C13.846 15.6764 21.8293 19.9288 27.2553 27.6277C32.6813 35.3267 34.009 44.2726 30.6661 48.4507C31.212 48.2718 31.7305 48.017 32.2051 47.6931C37.036 44.2843 36.0374 34.2016 30.0241 25.674Z" fill="#133950"/>
<path d="M9.08125 40.1617C2.12804 30.3016 1.43165 18.8247 7.52583 14.5267L4.47594 16.6782C-1.61825 20.9758 -0.922277 32.4527 6.03093 42.3128C12.9841 52.1728 23.5615 56.682 29.6561 52.3836L32.7065 50.2329C26.6115 54.5313 16.0344 50.0201 9.08125 40.1617Z" fill="#133950"/>
<path d="M45.8208 58.6756L48.0167 59.5324C48.2247 59.6054 44.8228 64.689 44.8228 64.689C44.8228 64.689 34.5872 62.9072 33.9499 62.4595C33.3126 62.0118 37.2816 62.0959 37.2816 62.0959C37.2816 62.0959 33.5527 61.2961 32.6068 60.5526C31.8546 59.9608 36.9841 60.1307 36.9841 60.1307C35.1096 59.6022 31.5698 58.8389 31.6457 58.2156C31.7368 57.4338 37.6908 58.7145 37.6908 58.7145C37.6908 58.7145 33.5958 57.479 33.4722 56.7169C33.3483 55.9549 41.3889 57.4498 41.3889 57.4498C41.3889 57.4498 40.1956 55.9815 40.5034 54.2593C40.6326 53.8456 41.0098 53.5596 41.4431 53.5469C41.8034 55.7764 45.8208 58.6756 45.8208 58.6756Z" fill="#F3B6B5"/>
<path d="M70.5613 48.7812C70.5613 48.7812 73.751 58.54 72.4342 65.9787C70.2396 78.3757 41.2734 63.6211 41.2734 63.6211L42.768 57.9516C42.768 57.9516 63.3172 61.4733 63.1403 60.7076C62.6955 58.7756 61.4624 52.2845 61.4624 52.2845L70.5613 48.7812Z" fill="#F3B6B5"/>
<path d="M75.6784 52.9187L61.9783 57.5497C61.9783 57.5497 53.1783 34.4521 61.3943 30.5645C71.2461 25.9026 75.6784 52.9187 75.6784 52.9187Z" fill="url(#paint2_linear_2020_140766)"/>
<defs>
<filter id="filter0_f_2020_140766" x="28" y="144" width="92" height="14" filterUnits="userSpaceOnUse" color-interpolation-filters="sRGB">
<feFlood flood-opacity="0" result="BackgroundImageFix"/>
<feBlend mode="normal" in="SourceGraphic" in2="BackgroundImageFix" result="shape"/>
<feGaussianBlur stdDeviation="2" result="effect1_foregroundBlur_2020_140766"/>
</filter>
<linearGradient id="paint0_linear_2020_140766" x1="75.8022" y1="137.664" x2="47.9145" y2="136.542" gradientUnits="userSpaceOnUse">
<stop stop-color="#7830D2"/>
<stop offset="1" stop-color="#BB86FF"/>
</linearGradient>
<linearGradient id="paint1_linear_2020_140766" x1="94.1081" y1="136.537" x2="68.5218" y2="135.643" gradientUnits="userSpaceOnUse">
<stop stop-color="#7830D2"/>
<stop offset="1" stop-color="#BB86FF"/>
</linearGradient>
<linearGradient id="paint2_linear_2020_140766" x1="75.7956" y1="57.1685" x2="56.9731" y2="56.3791" gradientUnits="userSpaceOnUse">
<stop stop-color="#7830D2"/>
<stop offset="1" stop-color="#BB86FF"/>
</linearGradient>
</defs>
</svg>
