<svg width="1440" height="684" viewBox="0 0 1440 684" fill="none" xmlns="http://www.w3.org/2000/svg">
<g clip-path="url(#clip0_1386_142558)">
<rect width="1440" height="684" fill="white"/>
<rect width="1440" height="684" fill="url(#paint0_linear_1386_142558)"/>
<g opacity="0.08" clip-path="url(#clip1_1386_142558)">
<path d="M112.84 161.004L96.047 164.277L120.838 170.034L118.091 144.722L112.833 161.01L112.84 161.004ZM89.1554 133.973L94.3589 162.035L111.157 158.777L116.406 142.49L89.1554 133.973Z" fill="#5D3393"/>
</g>
<g opacity="0.09" clip-path="url(#clip2_1386_142558)">
<path d="M189.721 535.885L172.928 539.157L197.719 544.915L194.972 519.603L189.714 535.891L189.721 535.885ZM166.036 508.854L171.24 536.915L188.038 533.658L193.287 517.371L166.036 508.854Z" fill="#5D3393"/>
</g>
<g opacity="0.25" clip-path="url(#clip3_1386_142558)">
<path d="M101.939 295.593L99.1432 287.445L97.9895 300.208L110.423 297.084L101.935 295.59L101.939 295.593ZM113.779 281.908L100.144 286.448L102.933 294.6L111.419 296.089L113.779 281.908Z" fill="#5D3393"/>
</g>
<g opacity="0.16" clip-path="url(#clip4_1386_142558)">
<path d="M256.401 448.988L251.042 446.644L257.344 453.578L260.396 444.716L256.398 448.989L256.401 448.988ZM253.653 435.301L250.894 445.565L256.253 447.915L260.247 443.641L253.653 435.301Z" fill="#5D3393"/>
</g>
<g opacity="0.3" clip-path="url(#clip5_1386_142558)">
<path d="M158.401 386.25L153.042 383.906L159.344 390.84L162.396 381.978L158.398 386.251L158.401 386.25ZM155.653 372.563L152.894 382.827L158.253 385.177L162.247 380.903L155.653 372.563Z" fill="#5D3393"/>
</g>
<g opacity="0.25" clip-path="url(#clip6_1386_142558)">
<path d="M30.7156 487.692L26.1811 485.881L31.4662 491.347L34.1641 484.236L30.7132 487.693L30.7156 487.692ZM28.5315 476.794L26.0674 485.021L30.6013 486.837L34.0498 483.379L28.5315 476.794Z" fill="#5D3393"/>
</g>
<g opacity="0.5" clip-path="url(#clip7_1386_142558)">
<path d="M14.7156 58.2322L10.1811 56.4208L15.4662 61.8867L18.1641 54.7757L14.7132 58.2327L14.7156 58.2322ZM12.5315 47.3338L10.0674 55.5609L14.6013 57.3771L18.0498 53.9187L12.5315 47.3338Z" fill="#5D3393"/>
</g>
<g opacity="0.32" clip-path="url(#clip8_1386_142558)">
<path d="M265.652 221.143L262.433 224.814L269.348 221.653L263.542 216.739L265.652 221.145L265.652 221.143ZM254.649 219.57L261.584 224.635L264.808 220.965L262.696 216.562L254.649 219.57Z" fill="#5D3393"/>
</g>
<g opacity="0.5" clip-path="url(#clip9_1386_142558)">
<path d="M267.716 103.232L263.181 101.421L268.466 106.887L271.164 99.7757L267.713 103.233L267.716 103.232ZM265.531 92.3338L263.067 100.561L267.601 102.377L271.05 98.9187L265.531 92.3338Z" fill="#5D3393"/>
</g>
<g opacity="0.2" clip-path="url(#clip10_1386_142558)">
<path d="M1271.84 161.004L1255.05 164.277L1279.84 170.034L1277.09 144.722L1271.83 161.01L1271.84 161.004ZM1248.16 133.973L1253.36 162.035L1270.16 158.777L1275.41 142.49L1248.16 133.973Z" fill="#9951F4"/>
</g>
<g opacity="0.2" clip-path="url(#clip11_1386_142558)">
<path d="M1348.72 535.885L1331.93 539.157L1356.72 544.915L1353.97 519.603L1348.71 535.891L1348.72 535.885ZM1325.04 508.854L1330.24 536.915L1347.04 533.658L1352.29 517.371L1325.04 508.854Z" fill="#9951F4"/>
</g>
<g opacity="0.5" clip-path="url(#clip12_1386_142558)">
<path d="M1260.94 295.593L1258.14 287.445L1256.99 300.208L1269.42 297.084L1260.94 295.59L1260.94 295.593ZM1272.78 281.908L1259.14 286.448L1261.93 294.6L1270.42 296.089L1272.78 281.908Z" fill="#9951F4"/>
</g>
<g opacity="0.3" clip-path="url(#clip13_1386_142558)">
<path d="M1415.4 448.988L1410.04 446.644L1416.34 453.578L1419.4 444.716L1415.4 448.989L1415.4 448.988ZM1412.65 435.301L1409.89 445.565L1415.25 447.915L1419.25 443.641L1412.65 435.301Z" fill="#9951F4"/>
</g>
<g opacity="0.3" clip-path="url(#clip14_1386_142558)">
<path d="M1317.4 386.25L1312.04 383.906L1318.34 390.84L1321.4 381.978L1317.4 386.251L1317.4 386.25ZM1314.65 372.563L1311.89 382.827L1317.25 385.177L1321.25 380.903L1314.65 372.563Z" fill="#9951F4"/>
</g>
<g opacity="0.5" clip-path="url(#clip15_1386_142558)">
<path d="M1189.72 486.692L1185.18 484.881L1190.47 490.347L1193.16 483.236L1189.71 486.693L1189.72 486.692ZM1187.53 475.794L1185.07 484.021L1189.6 485.837L1193.05 482.379L1187.53 475.794Z" fill="#9951F4"/>
</g>
<g clip-path="url(#clip16_1386_142558)">
<path d="M1173.72 58.2322L1169.18 56.4208L1174.47 61.8867L1177.16 54.7757L1173.71 58.2327L1173.72 58.2322ZM1171.53 47.3338L1169.07 55.5609L1173.6 57.3771L1177.05 53.9187L1171.53 47.3338Z" fill="#9951F4"/>
</g>
<g clip-path="url(#clip17_1386_142558)">
<path d="M1424.65 221.143L1421.43 224.814L1428.35 221.653L1422.54 216.739L1424.65 221.145L1424.65 221.143ZM1413.65 219.57L1420.58 224.635L1423.81 220.965L1421.7 216.562L1413.65 219.57Z" fill="#9951F4"/>
</g>
<g opacity="0.5" clip-path="url(#clip18_1386_142558)">
<path d="M1426.72 103.232L1422.18 101.421L1427.47 106.887L1430.16 99.7757L1426.71 103.233L1426.72 103.232ZM1424.53 92.3338L1422.07 100.561L1426.6 102.377L1430.05 98.9187L1424.53 92.3338Z" fill="#9951F4"/>
</g>
</g>
<defs>
<linearGradient id="paint0_linear_1386_142558" x1="13" y1="21.219" x2="1502.42" y2="455.632" gradientUnits="userSpaceOnUse">
<stop stop-color="#A159FC"/>
<stop offset="1" stop-color="#5309B2"/>
</linearGradient>
<clipPath id="clip0_1386_142558">
<rect width="1440" height="684" fill="white"/>
</clipPath>
<clipPath id="clip1_1386_142558">
<rect width="48" height="48" fill="white" transform="translate(71.1191 149.972) rotate(-41.5744)"/>
</clipPath>
<clipPath id="clip2_1386_142558">
<rect width="48" height="48" fill="white" transform="translate(148 524.852) rotate(-41.5744)"/>
</clipPath>
<clipPath id="clip3_1386_142558">
<rect width="24.1686" height="24.1686" fill="white" transform="translate(104.551 274.022) rotate(40.516)"/>
</clipPath>
<clipPath id="clip4_1386_142558">
<rect width="15.5567" height="18.6456" fill="white" transform="translate(246 436.878) rotate(-11.6448)"/>
</clipPath>
<clipPath id="clip5_1386_142558">
<rect width="15.5567" height="18.6456" fill="white" transform="translate(148 374.14) rotate(-11.6448)"/>
</clipPath>
<clipPath id="clip6_1386_142558">
<rect width="13.2768" height="14.8453" fill="white" transform="translate(22 478.14) rotate(-11.6448)"/>
</clipPath>
<clipPath id="clip7_1386_142558">
<rect width="13.2768" height="14.8453" fill="white" transform="translate(6 48.6799) rotate(-11.6448)"/>
</clipPath>
<clipPath id="clip8_1386_142558">
<rect width="13.2768" height="14.8453" fill="white" transform="translate(253.742 226.176) rotate(-82.1787)"/>
</clipPath>
<clipPath id="clip9_1386_142558">
<rect width="13.2768" height="14.8453" fill="white" transform="translate(259 93.6799) rotate(-11.6448)"/>
</clipPath>
<clipPath id="clip10_1386_142558">
<rect width="48" height="48" fill="white" transform="translate(1230.12 149.972) rotate(-41.5744)"/>
</clipPath>
<clipPath id="clip11_1386_142558">
<rect width="48" height="48" fill="white" transform="translate(1307 524.852) rotate(-41.5744)"/>
</clipPath>
<clipPath id="clip12_1386_142558">
<rect width="24.1686" height="24.1686" fill="white" transform="translate(1263.55 274.022) rotate(40.516)"/>
</clipPath>
<clipPath id="clip13_1386_142558">
<rect width="15.5567" height="18.6456" fill="white" transform="translate(1405 436.878) rotate(-11.6448)"/>
</clipPath>
<clipPath id="clip14_1386_142558">
<rect width="15.5567" height="18.6456" fill="white" transform="translate(1307 374.14) rotate(-11.6448)"/>
</clipPath>
<clipPath id="clip15_1386_142558">
<rect width="13.2768" height="14.8453" fill="white" transform="translate(1181 477.14) rotate(-11.6448)"/>
</clipPath>
<clipPath id="clip16_1386_142558">
<rect width="13.2768" height="14.8453" fill="white" transform="translate(1165 48.6799) rotate(-11.6448)"/>
</clipPath>
<clipPath id="clip17_1386_142558">
<rect width="13.2768" height="14.8453" fill="white" transform="translate(1412.74 226.176) rotate(-82.1787)"/>
</clipPath>
<clipPath id="clip18_1386_142558">
<rect width="13.2768" height="14.8453" fill="white" transform="translate(1418 93.6799) rotate(-11.6448)"/>
</clipPath>
</defs>
</svg>
