<svg width="354" height="363" viewBox="0 0 354 363" fill="none" xmlns="http://www.w3.org/2000/svg">
<g filter="url(#filter0_i_1989_145990)">
<path d="M222.196 10.6764L58.2638 207.136C45.4581 226.997 54.7994 245.392 61.0708 252.107L134.531 344.084C149.613 360.699 169.312 352.154 177.276 345.805L336.328 151.531C345.792 134.386 338.504 116.072 333.677 109.058L253.659 12.4746C241.449 1.69941 227.596 6.78611 222.196 10.6764Z" fill="url(#paint0_linear_1989_145990)"/>
</g>
<g filter="url(#filter1_i_1989_145990)">
<path d="M218.45 10.91L54.5177 207.37C41.712 227.231 51.0533 245.626 57.3247 252.34L130.785 344.317C145.867 360.933 165.566 352.388 173.53 346.038L332.582 151.764C342.046 134.62 334.758 116.306 329.931 109.292L249.913 12.7082C237.703 1.93305 223.85 7.01976 218.45 10.91Z" fill="url(#paint1_linear_1989_145990)"/>
</g>
<g filter="url(#filter2_i_1989_145990)">
<path d="M214.701 11.1441L50.7687 207.604C37.9629 227.465 47.3043 245.86 53.5757 252.575L127.036 344.552C142.118 361.167 161.817 352.622 169.781 346.273L328.833 151.998C338.297 134.854 331.009 116.54 326.182 109.526L246.164 12.9424C233.954 2.16718 220.101 7.25389 214.701 11.1441Z" fill="url(#paint2_linear_1989_145990)"/>
</g>
<g filter="url(#filter3_i_1989_145990)">
<path d="M210.954 11.3778L47.0216 207.838C34.2159 227.699 43.5572 246.093 49.8286 252.808L123.289 344.785C138.371 361.4 158.07 352.856 166.034 346.506L325.086 152.232C334.55 135.088 327.262 116.774 322.435 109.76L242.417 13.176C230.207 2.40083 216.354 7.48753 210.954 11.3778Z" fill="url(#paint3_linear_1989_145990)"/>
</g>
<g filter="url(#filter4_i_1989_145990)">
<path d="M207.205 11.6119L43.2735 208.072C30.4678 227.933 39.8092 246.328 46.0806 253.042L119.541 345.019C134.623 361.635 154.322 353.09 162.286 346.74L321.338 152.466C330.802 135.322 323.514 117.008 318.687 109.994L238.669 13.4101C226.459 2.63496 212.606 7.72166 207.205 11.6119Z" fill="url(#paint4_linear_1989_145990)"/>
</g>
<g filter="url(#filter5_i_1989_145990)">
<path d="M203.459 11.8456L39.5274 208.305C26.7217 228.166 36.0631 246.561 42.3345 253.276L115.795 345.253C130.877 361.868 150.576 353.323 158.54 346.974L317.592 152.7C327.056 135.556 319.768 117.241 314.941 110.227L234.923 13.6438C222.713 2.8686 208.86 7.9553 203.459 11.8456Z" fill="url(#paint5_linear_1989_145990)"/>
</g>
<g filter="url(#filter6_i_1989_145990)">
<path d="M199.711 12.0797L35.7794 208.539C22.9737 228.401 32.315 246.795 38.5864 253.51L112.047 345.487C127.129 362.102 146.828 353.557 154.792 347.208L313.844 152.934C323.308 135.79 316.02 117.476 311.193 110.462L231.175 13.8779C218.965 3.10273 205.112 8.18943 199.711 12.0797Z" fill="url(#paint6_linear_1989_145990)"/>
</g>
<g filter="url(#filter7_i_1989_145990)">
<path d="M195.963 12.3133L32.0313 208.773C19.2256 228.634 28.567 247.029 34.8384 253.744L108.299 345.721C123.381 362.336 143.08 353.791 151.044 347.442L310.096 153.168C319.56 136.023 312.272 117.709 307.445 110.695L227.427 14.1116C215.217 3.33637 201.364 8.42308 195.963 12.3133Z" fill="url(#paint7_linear_1989_145990)"/>
</g>
<g filter="url(#filter8_i_1989_145990)">
<path d="M192.215 12.5477L28.2833 209.007C15.4776 228.869 24.8189 247.263 31.0903 253.978L104.55 345.955C119.633 362.57 139.332 354.026 147.296 347.676L306.348 153.402C315.812 136.258 308.524 117.944 303.697 110.93L223.679 14.3459C211.469 3.57075 197.616 8.65745 192.215 12.5477Z" fill="url(#paint8_linear_1989_145990)"/>
</g>
<g filter="url(#filter9_i_1989_145990)">
<path d="M188.468 12.7813L24.5362 209.241C11.7305 229.102 21.0719 247.497 27.3433 254.212L100.803 346.189C115.886 362.804 135.585 354.259 143.549 347.91L302.601 153.636C312.065 136.491 304.777 118.177 299.95 111.163L219.932 14.5796C207.722 3.80439 193.869 8.89109 188.468 12.7813Z" fill="url(#paint9_linear_1989_145990)"/>
</g>
<g filter="url(#filter10_ddiii_1989_145990)">
<path d="M167.941 23.4712L23.2604 206.822C10.2377 226.963 19.7318 245.613 26.1067 252.421L100.777 345.673C116.108 362.518 136.137 353.85 144.235 347.411L287.555 161.713C297.18 144.328 289.773 125.758 284.867 118.647L204.592 22.0039C203.885 21.1528 203.121 20.3443 202.251 19.6602C193.082 12.4472 183.202 13.5521 176.652 16.1695C173.07 17.6006 170.33 20.4434 167.941 23.4712Z" fill="url(#paint10_linear_1989_145990)"/>
</g>
<g filter="url(#filter11_ddiii_1989_145990)">
<path d="M116.727 86.7147L22.235 201.507C20.0059 204.215 18.0062 207.138 16.7035 210.394C8.26549 231.488 16.3471 247.6 21.8608 253.319L97.2301 344.46C120.767 365.975 136.009 351.288 144.046 341.538L229.112 229.839L240.754 215.847C244.814 210.968 248.434 205.74 251.572 200.224L259.871 185.636C267.908 169.496 261.617 153.227 257.47 147.18C220.467 94.8311 184.424 51.4907 161.895 29.0953C155.856 23.0921 146.149 26.7241 143.744 34.8928C138.409 53.0191 130.203 69.5121 124.503 77.5491C122.186 80.8152 119.272 83.6232 116.727 86.7147Z" fill="url(#paint11_linear_1989_145990)"/>
</g>
<g filter="url(#filter12_d_1989_145990)">
<path d="M58.7007 157.557L118.121 84.8747C116.914 90.8795 118.569 97.1039 122.597 101.717L224.567 218.492C230.021 224.738 237.58 228.76 245.806 229.795L269.689 232.798L215.579 300.132L190.698 297.158C182.32 296.156 174.62 292.057 169.111 285.665L58.7007 157.557Z" fill="url(#paint12_linear_1989_145990)"/>
</g>
<g filter="url(#filter13_d_1989_145990)">
<path d="M84.3325 168.23L121.251 130.571C126.801 124.91 135.008 122.747 142.627 124.937L187.214 137.753C194.677 139.898 200.412 145.887 202.233 153.435L213.095 198.465C214.849 205.734 212.715 213.392 207.456 218.708L171.786 254.756C166.361 260.239 158.422 262.41 150.961 260.45L104.986 248.376C97.3146 246.361 91.3662 240.301 89.4945 232.593L78.771 188.433C77.0122 181.19 79.1147 173.552 84.3325 168.23Z" fill="url(#paint13_linear_1989_145990)"/>
<path d="M83.4376 169.782L118.993 132.428C124.301 126.851 132.289 124.723 139.668 126.92L182.35 139.627C189.38 141.72 194.753 147.412 196.437 154.551L207.185 200.102C208.781 206.867 206.837 213.979 202.021 218.991L167.655 254.761C162.465 260.163 154.739 262.3 147.511 260.332L103.508 248.355C96.2742 246.386 90.6949 240.622 88.9626 233.328L78.3468 188.632C76.7459 181.892 78.6613 174.8 83.4376 169.782Z" fill="url(#paint14_linear_1989_145990)" stroke="url(#paint15_linear_1989_145990)" stroke-width="0.62581"/>
</g>
<g filter="url(#filter14_d_1989_145990)">
<path d="M39.883 212.999L43.0173 216.012L39.8525 219.305L36.7181 216.292L39.883 212.999ZM33.9185 216.417L39.839 222.107L45.817 215.888L39.8965 210.197L33.9185 216.417Z" fill="#DBDDE9"/>
<path d="M39.877 214.752L41.27 216.091L39.8634 217.554L38.4704 216.215L39.877 214.752Z" fill="#DBDDE9"/>
<path d="M51.7931 224.448L54.9275 227.461L51.7627 230.754L48.6283 227.741L51.7931 224.448ZM45.8286 227.866L51.7491 233.556L57.7271 227.337L51.8066 221.646L45.8286 227.866Z" fill="#DBDDE9"/>
<path d="M51.7861 226.2L53.1792 227.539L51.7726 229.002L50.3795 227.663L51.7861 226.2Z" fill="#DBDDE9"/>
<path d="M27.8585 225.512L30.9929 228.524L27.8281 231.817L24.6937 228.804L27.8585 225.512ZM21.8941 228.929L27.8146 234.619L33.7926 228.4L27.8721 222.709L21.8941 228.929Z" fill="#DBDDE9"/>
<path d="M27.8477 227.265L29.2407 228.604L27.8341 230.067L26.4411 228.728L27.8477 227.265Z" fill="#DBDDE9"/>
<path d="M34.3652 218.743L35.7583 220.082L34.3517 221.546L32.9586 220.207L34.3652 218.743Z" fill="#DBDDE9"/>
<path d="M34.339 224.348L35.7456 222.885L34.3525 221.546L32.946 223.009L34.3042 224.315L32.8976 225.778L34.2907 227.117L35.6972 225.654L34.339 224.348Z" fill="#DBDDE9"/>
<path d="M46.9443 222.389L48.3374 223.728L46.9308 225.191L45.5377 223.852L46.9443 222.389Z" fill="#DBDDE9"/>
<path d="M45.4551 218.357L46.8481 219.696L44.1405 222.513L42.7474 221.174L45.4551 218.357Z" fill="#DBDDE9"/>
<path d="M46.8493 219.696L48.2423 221.035L49.6489 219.571L48.2559 218.232L46.8493 219.696Z" fill="#DBDDE9"/>
<path d="M44.1401 222.513L42.7335 223.977L41.3405 222.638L39.9339 224.101L42.72 226.779L45.5332 223.852L44.1401 222.513Z" fill="#DBDDE9"/>
<path d="M37.165 232.559L38.5364 231.132L37.1434 229.793L39.9214 226.903L38.5283 225.564L35.7151 228.491L37.1082 229.83L35.7368 231.256L37.1298 232.595L35.7584 234.022L38.5445 236.7L39.9511 235.237L37.165 232.559Z" fill="#DBDDE9"/>
<path d="M42.7227 226.779L44.1157 228.118L41.3025 231.045L39.9095 229.706L42.7227 226.779Z" fill="#DBDDE9"/>
<path d="M45.4962 232.257L48.0037 234.667L46.6323 236.094L44.1248 233.684L45.4962 232.257ZM46.868 230.76L45.4614 232.223L44.1032 230.918L42.6966 232.381L44.0896 233.72L42.7182 235.147L46.6188 238.896L49.432 235.969L48.0389 234.63L49.4103 233.203L46.868 230.76Z" fill="#DBDDE9"/>
<path d="M41.0374 241.913L42.4305 243.252L45.2436 240.325L43.8506 238.986L41.0374 241.913Z" fill="#DBDDE9"/>
<path d="M41.3037 231.043L42.6968 232.382L41.2902 233.846L39.8971 232.507L41.3037 231.043Z" fill="#DBDDE9"/>
<path d="M38.543 236.699L39.936 238.038L38.5294 239.501L37.1364 238.162L38.543 236.699Z" fill="#DBDDE9"/>
<path d="M41.3887 237.065L42.7817 238.404L41.3751 239.868L39.9821 238.529L41.3887 237.065Z" fill="#DBDDE9"/>
<path d="M38.5303 239.502L35.8226 242.319L37.2157 243.658L38.5167 242.305L39.6312 243.376L41.0378 241.912L38.5303 239.502Z" fill="#DBDDE9"/>
<path d="M34.3418 229.918L35.7349 231.257L33.0623 234.037L31.6693 232.698L34.3418 229.918Z" fill="#DBDDE9"/>
<path d="M33.0635 234.037L30.2503 236.964L31.6434 238.303L33.0499 236.84L34.4081 238.145L33.0016 239.609L34.3947 240.948L35.8012 239.484L34.443 238.179L35.8496 236.715L33.0635 234.037Z" fill="#DBDDE9"/>
<path d="M37.1494 221.421L39.9355 224.099L38.5289 225.562L35.7428 222.885L37.1494 221.421Z" fill="#DBDDE9"/>
<path d="M28.7503 221.795L30.1434 223.134L32.9565 220.207L31.5635 218.868L28.7503 221.795Z" fill="#DBDDE9"/>
</g>
<defs>
<filter id="filter0_i_1989_145990" x="51.8672" y="6.00952" width="289.066" height="347.727" filterUnits="userSpaceOnUse" color-interpolation-filters="sRGB">
<feFlood flood-opacity="0" result="BackgroundImageFix"/>
<feBlend mode="normal" in="SourceGraphic" in2="BackgroundImageFix" result="shape"/>
<feColorMatrix in="SourceAlpha" type="matrix" values="0 0 0 0 0 0 0 0 0 0 0 0 0 0 0 0 0 0 127 0" result="hardAlpha"/>
<feOffset/>
<feGaussianBlur stdDeviation="1.87743"/>
<feComposite in2="hardAlpha" operator="arithmetic" k2="-1" k3="1"/>
<feColorMatrix type="matrix" values="0 0 0 0 0 0 0 0 0 0 0 0 0 0 0 0 0 0 0.25 0"/>
<feBlend mode="normal" in2="shape" result="effect1_innerShadow_1989_145990"/>
</filter>
<filter id="filter1_i_1989_145990" x="48.1211" y="6.24316" width="289.066" height="347.727" filterUnits="userSpaceOnUse" color-interpolation-filters="sRGB">
<feFlood flood-opacity="0" result="BackgroundImageFix"/>
<feBlend mode="normal" in="SourceGraphic" in2="BackgroundImageFix" result="shape"/>
<feColorMatrix in="SourceAlpha" type="matrix" values="0 0 0 0 0 0 0 0 0 0 0 0 0 0 0 0 0 0 127 0" result="hardAlpha"/>
<feOffset/>
<feGaussianBlur stdDeviation="1.87743"/>
<feComposite in2="hardAlpha" operator="arithmetic" k2="-1" k3="1"/>
<feColorMatrix type="matrix" values="0 0 0 0 0 0 0 0 0 0 0 0 0 0 0 0 0 0 0.25 0"/>
<feBlend mode="normal" in2="shape" result="effect1_innerShadow_1989_145990"/>
</filter>
<filter id="filter2_i_1989_145990" x="44.3721" y="6.47729" width="289.065" height="347.727" filterUnits="userSpaceOnUse" color-interpolation-filters="sRGB">
<feFlood flood-opacity="0" result="BackgroundImageFix"/>
<feBlend mode="normal" in="SourceGraphic" in2="BackgroundImageFix" result="shape"/>
<feColorMatrix in="SourceAlpha" type="matrix" values="0 0 0 0 0 0 0 0 0 0 0 0 0 0 0 0 0 0 127 0" result="hardAlpha"/>
<feOffset/>
<feGaussianBlur stdDeviation="1.87743"/>
<feComposite in2="hardAlpha" operator="arithmetic" k2="-1" k3="1"/>
<feColorMatrix type="matrix" values="0 0 0 0 0 0 0 0 0 0 0 0 0 0 0 0 0 0 0.25 0"/>
<feBlend mode="normal" in2="shape" result="effect1_innerShadow_1989_145990"/>
</filter>
<filter id="filter3_i_1989_145990" x="40.625" y="6.71094" width="289.066" height="347.727" filterUnits="userSpaceOnUse" color-interpolation-filters="sRGB">
<feFlood flood-opacity="0" result="BackgroundImageFix"/>
<feBlend mode="normal" in="SourceGraphic" in2="BackgroundImageFix" result="shape"/>
<feColorMatrix in="SourceAlpha" type="matrix" values="0 0 0 0 0 0 0 0 0 0 0 0 0 0 0 0 0 0 127 0" result="hardAlpha"/>
<feOffset/>
<feGaussianBlur stdDeviation="1.87743"/>
<feComposite in2="hardAlpha" operator="arithmetic" k2="-1" k3="1"/>
<feColorMatrix type="matrix" values="0 0 0 0 0 0 0 0 0 0 0 0 0 0 0 0 0 0 0.25 0"/>
<feBlend mode="normal" in2="shape" result="effect1_innerShadow_1989_145990"/>
</filter>
<filter id="filter4_i_1989_145990" x="36.877" y="6.94507" width="289.066" height="347.727" filterUnits="userSpaceOnUse" color-interpolation-filters="sRGB">
<feFlood flood-opacity="0" result="BackgroundImageFix"/>
<feBlend mode="normal" in="SourceGraphic" in2="BackgroundImageFix" result="shape"/>
<feColorMatrix in="SourceAlpha" type="matrix" values="0 0 0 0 0 0 0 0 0 0 0 0 0 0 0 0 0 0 127 0" result="hardAlpha"/>
<feOffset/>
<feGaussianBlur stdDeviation="1.87743"/>
<feComposite in2="hardAlpha" operator="arithmetic" k2="-1" k3="1"/>
<feColorMatrix type="matrix" values="0 0 0 0 0 0 0 0 0 0 0 0 0 0 0 0 0 0 0.25 0"/>
<feBlend mode="normal" in2="shape" result="effect1_innerShadow_1989_145990"/>
</filter>
<filter id="filter5_i_1989_145990" x="33.1309" y="7.17871" width="289.066" height="347.727" filterUnits="userSpaceOnUse" color-interpolation-filters="sRGB">
<feFlood flood-opacity="0" result="BackgroundImageFix"/>
<feBlend mode="normal" in="SourceGraphic" in2="BackgroundImageFix" result="shape"/>
<feColorMatrix in="SourceAlpha" type="matrix" values="0 0 0 0 0 0 0 0 0 0 0 0 0 0 0 0 0 0 127 0" result="hardAlpha"/>
<feOffset/>
<feGaussianBlur stdDeviation="1.87743"/>
<feComposite in2="hardAlpha" operator="arithmetic" k2="-1" k3="1"/>
<feColorMatrix type="matrix" values="0 0 0 0 0 0 0 0 0 0 0 0 0 0 0 0 0 0 0.25 0"/>
<feBlend mode="normal" in2="shape" result="effect1_innerShadow_1989_145990"/>
</filter>
<filter id="filter6_i_1989_145990" x="29.3828" y="7.41284" width="289.066" height="347.727" filterUnits="userSpaceOnUse" color-interpolation-filters="sRGB">
<feFlood flood-opacity="0" result="BackgroundImageFix"/>
<feBlend mode="normal" in="SourceGraphic" in2="BackgroundImageFix" result="shape"/>
<feColorMatrix in="SourceAlpha" type="matrix" values="0 0 0 0 0 0 0 0 0 0 0 0 0 0 0 0 0 0 127 0" result="hardAlpha"/>
<feOffset/>
<feGaussianBlur stdDeviation="1.87743"/>
<feComposite in2="hardAlpha" operator="arithmetic" k2="-1" k3="1"/>
<feColorMatrix type="matrix" values="0 0 0 0 0 0 0 0 0 0 0 0 0 0 0 0 0 0 0.25 0"/>
<feBlend mode="normal" in2="shape" result="effect1_innerShadow_1989_145990"/>
</filter>
<filter id="filter7_i_1989_145990" x="25.6348" y="7.64648" width="289.066" height="347.727" filterUnits="userSpaceOnUse" color-interpolation-filters="sRGB">
<feFlood flood-opacity="0" result="BackgroundImageFix"/>
<feBlend mode="normal" in="SourceGraphic" in2="BackgroundImageFix" result="shape"/>
<feColorMatrix in="SourceAlpha" type="matrix" values="0 0 0 0 0 0 0 0 0 0 0 0 0 0 0 0 0 0 127 0" result="hardAlpha"/>
<feOffset/>
<feGaussianBlur stdDeviation="1.87743"/>
<feComposite in2="hardAlpha" operator="arithmetic" k2="-1" k3="1"/>
<feColorMatrix type="matrix" values="0 0 0 0 0 0 0 0 0 0 0 0 0 0 0 0 0 0 0.25 0"/>
<feBlend mode="normal" in2="shape" result="effect1_innerShadow_1989_145990"/>
</filter>
<filter id="filter8_i_1989_145990" x="21.8867" y="7.88086" width="289.066" height="347.727" filterUnits="userSpaceOnUse" color-interpolation-filters="sRGB">
<feFlood flood-opacity="0" result="BackgroundImageFix"/>
<feBlend mode="normal" in="SourceGraphic" in2="BackgroundImageFix" result="shape"/>
<feColorMatrix in="SourceAlpha" type="matrix" values="0 0 0 0 0 0 0 0 0 0 0 0 0 0 0 0 0 0 127 0" result="hardAlpha"/>
<feOffset/>
<feGaussianBlur stdDeviation="1.87743"/>
<feComposite in2="hardAlpha" operator="arithmetic" k2="-1" k3="1"/>
<feColorMatrix type="matrix" values="0 0 0 0 0 0 0 0 0 0 0 0 0 0 0 0 0 0 0.25 0"/>
<feBlend mode="normal" in2="shape" result="effect1_innerShadow_1989_145990"/>
</filter>
<filter id="filter9_i_1989_145990" x="18.1396" y="8.1145" width="289.065" height="347.727" filterUnits="userSpaceOnUse" color-interpolation-filters="sRGB">
<feFlood flood-opacity="0" result="BackgroundImageFix"/>
<feBlend mode="normal" in="SourceGraphic" in2="BackgroundImageFix" result="shape"/>
<feColorMatrix in="SourceAlpha" type="matrix" values="0 0 0 0 0 0 0 0 0 0 0 0 0 0 0 0 0 0 127 0" result="hardAlpha"/>
<feOffset/>
<feGaussianBlur stdDeviation="1.87743"/>
<feComposite in2="hardAlpha" operator="arithmetic" k2="-1" k3="1"/>
<feColorMatrix type="matrix" values="0 0 0 0 0 0 0 0 0 0 0 0 0 0 0 0 0 0 0.25 0"/>
<feBlend mode="normal" in2="shape" result="effect1_innerShadow_1989_145990"/>
</filter>
<filter id="filter10_ddiii_1989_145990" x="12.9981" y="1.65641" width="293.01" height="358.807" filterUnits="userSpaceOnUse" color-interpolation-filters="sRGB">
<feFlood flood-opacity="0" result="BackgroundImageFix"/>
<feColorMatrix in="SourceAlpha" type="matrix" values="0 0 0 0 0 0 0 0 0 0 0 0 0 0 0 0 0 0 127 0" result="hardAlpha"/>
<feOffset dx="1.25162" dy="1.25162"/>
<feGaussianBlur stdDeviation="0.62581"/>
<feComposite in2="hardAlpha" operator="out"/>
<feColorMatrix type="matrix" values="0 0 0 0 0.0609376 0 0 0 0 0.103188 0 0 0 0 0.325 0 0 0 0.32 0"/>
<feBlend mode="normal" in2="BackgroundImageFix" result="effect1_dropShadow_1989_145990"/>
<feColorMatrix in="SourceAlpha" type="matrix" values="0 0 0 0 0 0 0 0 0 0 0 0 0 0 0 0 0 0 127 0" result="hardAlpha"/>
<feOffset dx="5.00648" dy="-3.75486"/>
<feGaussianBlur stdDeviation="4.38067"/>
<feComposite in2="hardAlpha" operator="out"/>
<feColorMatrix type="matrix" values="0 0 0 0 0.327281 0 0 0 0 0.435587 0 0 0 0 0.658218 0 0 0 0.64 0"/>
<feBlend mode="normal" in2="effect1_dropShadow_1989_145990" result="effect2_dropShadow_1989_145990"/>
<feBlend mode="normal" in="SourceGraphic" in2="effect2_dropShadow_1989_145990" result="shape"/>
<feColorMatrix in="SourceAlpha" type="matrix" values="0 0 0 0 0 0 0 0 0 0 0 0 0 0 0 0 0 0 127 0" result="hardAlpha"/>
<feOffset/>
<feGaussianBlur stdDeviation="10.013"/>
<feComposite in2="hardAlpha" operator="arithmetic" k2="-1" k3="1"/>
<feColorMatrix type="matrix" values="0 0 0 0 1 0 0 0 0 1 0 0 0 0 1 0 0 0 0.75 0"/>
<feBlend mode="normal" in2="shape" result="effect3_innerShadow_1989_145990"/>
<feColorMatrix in="SourceAlpha" type="matrix" values="0 0 0 0 0 0 0 0 0 0 0 0 0 0 0 0 0 0 127 0" result="hardAlpha"/>
<feOffset/>
<feGaussianBlur stdDeviation="1.25162"/>
<feComposite in2="hardAlpha" operator="arithmetic" k2="-1" k3="1"/>
<feColorMatrix type="matrix" values="0 0 0 0 1 0 0 0 0 1 0 0 0 0 1 0 0 0 1 0"/>
<feBlend mode="normal" in2="effect3_innerShadow_1989_145990" result="effect4_innerShadow_1989_145990"/>
<feColorMatrix in="SourceAlpha" type="matrix" values="0 0 0 0 0 0 0 0 0 0 0 0 0 0 0 0 0 0 127 0" result="hardAlpha"/>
<feOffset/>
<feGaussianBlur stdDeviation="5.00648"/>
<feComposite in2="hardAlpha" operator="arithmetic" k2="-1" k3="1"/>
<feColorMatrix type="matrix" values="0 0 0 0 0.583307 0 0 0 0 0.676333 0 0 0 0 0.862384 0 0 0 1 0"/>
<feBlend mode="normal" in2="effect4_innerShadow_1989_145990" result="effect5_innerShadow_1989_145990"/>
</filter>
<filter id="filter11_ddiii_1989_145990" x="9.29495" y="4.8355" width="279.487" height="354.481" filterUnits="userSpaceOnUse" color-interpolation-filters="sRGB">
<feFlood flood-opacity="0" result="BackgroundImageFix"/>
<feColorMatrix in="SourceAlpha" type="matrix" values="0 0 0 0 0 0 0 0 0 0 0 0 0 0 0 0 0 0 127 0" result="hardAlpha"/>
<feOffset dx="3.75486"/>
<feGaussianBlur stdDeviation="1.25162"/>
<feComposite in2="hardAlpha" operator="out"/>
<feColorMatrix type="matrix" values="0 0 0 0 0.475893 0 0 0 0 0.553355 0 0 0 0 0.712356 0 0 0 1 0"/>
<feBlend mode="normal" in2="BackgroundImageFix" result="effect1_dropShadow_1989_145990"/>
<feColorMatrix in="SourceAlpha" type="matrix" values="0 0 0 0 0 0 0 0 0 0 0 0 0 0 0 0 0 0 127 0" result="hardAlpha"/>
<feOffset dx="12.5162" dy="-8.76134"/>
<feGaussianBlur stdDeviation="6.2581"/>
<feComposite in2="hardAlpha" operator="out"/>
<feColorMatrix type="matrix" values="0 0 0 0 0.353801 0 0 0 0 0.423329 0 0 0 0 0.562384 0 0 0 0.65 0"/>
<feBlend mode="normal" in2="effect1_dropShadow_1989_145990" result="effect2_dropShadow_1989_145990"/>
<feBlend mode="normal" in="SourceGraphic" in2="effect2_dropShadow_1989_145990" result="shape"/>
<feColorMatrix in="SourceAlpha" type="matrix" values="0 0 0 0 0 0 0 0 0 0 0 0 0 0 0 0 0 0 127 0" result="hardAlpha"/>
<feOffset/>
<feGaussianBlur stdDeviation="23.7808"/>
<feComposite in2="hardAlpha" operator="arithmetic" k2="-1" k3="1"/>
<feColorMatrix type="matrix" values="0 0 0 0 0.999856 0 0 0 0 0.999856 0 0 0 0 0.999856 0 0 0 0.55 0"/>
<feBlend mode="normal" in2="shape" result="effect3_innerShadow_1989_145990"/>
<feColorMatrix in="SourceAlpha" type="matrix" values="0 0 0 0 0 0 0 0 0 0 0 0 0 0 0 0 0 0 127 0" result="hardAlpha"/>
<feOffset dy="5.00648"/>
<feGaussianBlur stdDeviation="0.62581"/>
<feComposite in2="hardAlpha" operator="arithmetic" k2="-1" k3="1"/>
<feColorMatrix type="matrix" values="0 0 0 0 1 0 0 0 0 1 0 0 0 0 1 0 0 0 0.22 0"/>
<feBlend mode="normal" in2="effect3_innerShadow_1989_145990" result="effect4_innerShadow_1989_145990"/>
<feColorMatrix in="SourceAlpha" type="matrix" values="0 0 0 0 0 0 0 0 0 0 0 0 0 0 0 0 0 0 127 0" result="hardAlpha"/>
<feOffset dx="-6.2581" dy="1.25162"/>
<feGaussianBlur stdDeviation="1.87743"/>
<feComposite in2="hardAlpha" operator="arithmetic" k2="-1" k3="1"/>
<feColorMatrix type="matrix" values="0 0 0 0 0.603922 0 0 0 0 0.670588 0 0 0 0 0.819608 0 0 0 0.24 0"/>
<feBlend mode="normal" in2="effect4_innerShadow_1989_145990" result="effect5_innerShadow_1989_145990"/>
</filter>
<filter id="filter12_d_1989_145990" x="53.6937" y="72.3586" width="228.512" height="232.78" filterUnits="userSpaceOnUse" color-interpolation-filters="sRGB">
<feFlood flood-opacity="0" result="BackgroundImageFix"/>
<feColorMatrix in="SourceAlpha" type="matrix" values="0 0 0 0 0 0 0 0 0 0 0 0 0 0 0 0 0 0 127 0" result="hardAlpha"/>
<feOffset dx="3.75486" dy="-3.75486"/>
<feGaussianBlur stdDeviation="4.38067"/>
<feComposite in2="hardAlpha" operator="out"/>
<feColorMatrix type="matrix" values="0 0 0 0 0.421654 0 0 0 0 0.506622 0 0 0 0 0.691551 0 0 0 1 0"/>
<feBlend mode="normal" in2="BackgroundImageFix" result="effect1_dropShadow_1989_145990"/>
<feBlend mode="normal" in="SourceGraphic" in2="effect1_dropShadow_1989_145990" result="shape"/>
</filter>
<filter id="filter13_d_1989_145990" x="74.7579" y="113.214" width="152.543" height="153.592" filterUnits="userSpaceOnUse" color-interpolation-filters="sRGB">
<feFlood flood-opacity="0" result="BackgroundImageFix"/>
<feColorMatrix in="SourceAlpha" type="matrix" values="0 0 0 0 0 0 0 0 0 0 0 0 0 0 0 0 0 0 127 0" result="hardAlpha"/>
<feOffset dx="5.44129" dy="-2.72065"/>
<feGaussianBlur stdDeviation="4.08097"/>
<feComposite in2="hardAlpha" operator="out"/>
<feColorMatrix type="matrix" values="0 0 0 0 0.113725 0 0 0 0 0.247059 0 0 0 0 0.494118 0 0 0 0.44 0"/>
<feBlend mode="normal" in2="BackgroundImageFix" result="effect1_dropShadow_1989_145990"/>
<feBlend mode="normal" in="SourceGraphic" in2="effect1_dropShadow_1989_145990" result="shape"/>
</filter>
<filter id="filter14_d_1989_145990" x="20.6429" y="209.571" width="38.3362" height="35.9644" filterUnits="userSpaceOnUse" color-interpolation-filters="sRGB">
<feFlood flood-opacity="0" result="BackgroundImageFix"/>
<feColorMatrix in="SourceAlpha" type="matrix" values="0 0 0 0 0 0 0 0 0 0 0 0 0 0 0 0 0 0 127 0" result="hardAlpha"/>
<feOffset dy="0.62581"/>
<feGaussianBlur stdDeviation="0.62581"/>
<feComposite in2="hardAlpha" operator="out"/>
<feColorMatrix type="matrix" values="0 0 0 0 0.0252723 0 0 0 0 0.162681 0 0 0 0 0.649856 0 0 0 0.61 0"/>
<feBlend mode="normal" in2="BackgroundImageFix" result="effect1_dropShadow_1989_145990"/>
<feBlend mode="normal" in="SourceGraphic" in2="effect1_dropShadow_1989_145990" result="shape"/>
</filter>
<linearGradient id="paint0_linear_1989_145990" x1="290.9" y1="60.2953" x2="90.7001" y2="288.489" gradientUnits="userSpaceOnUse">
<stop stop-color="#C4D8FF"/>
<stop offset="1" stop-color="#E0E7F5"/>
</linearGradient>
<linearGradient id="paint1_linear_1989_145990" x1="287.154" y1="60.5289" x2="86.954" y2="288.723" gradientUnits="userSpaceOnUse">
<stop stop-color="#C4D8FF"/>
<stop offset="1" stop-color="#E0E7F5"/>
</linearGradient>
<linearGradient id="paint2_linear_1989_145990" x1="283.405" y1="60.7631" x2="83.205" y2="288.957" gradientUnits="userSpaceOnUse">
<stop stop-color="#C4D8FF"/>
<stop offset="1" stop-color="#E0E7F5"/>
</linearGradient>
<linearGradient id="paint3_linear_1989_145990" x1="279.658" y1="60.9967" x2="79.4579" y2="289.191" gradientUnits="userSpaceOnUse">
<stop stop-color="#C4D8FF"/>
<stop offset="1" stop-color="#E0E7F5"/>
</linearGradient>
<linearGradient id="paint4_linear_1989_145990" x1="275.91" y1="61.2308" x2="75.7099" y2="289.425" gradientUnits="userSpaceOnUse">
<stop stop-color="#C4D8FF"/>
<stop offset="1" stop-color="#E0E7F5"/>
</linearGradient>
<linearGradient id="paint5_linear_1989_145990" x1="272.164" y1="61.4645" x2="71.9638" y2="289.658" gradientUnits="userSpaceOnUse">
<stop stop-color="#C4D8FF"/>
<stop offset="1" stop-color="#E0E7F5"/>
</linearGradient>
<linearGradient id="paint6_linear_1989_145990" x1="268.416" y1="61.6986" x2="68.2157" y2="289.893" gradientUnits="userSpaceOnUse">
<stop stop-color="#C4D8FF"/>
<stop offset="1" stop-color="#E0E7F5"/>
</linearGradient>
<linearGradient id="paint7_linear_1989_145990" x1="264.667" y1="61.9323" x2="64.4677" y2="290.126" gradientUnits="userSpaceOnUse">
<stop stop-color="#C4D8FF"/>
<stop offset="1" stop-color="#E0E7F5"/>
</linearGradient>
<linearGradient id="paint8_linear_1989_145990" x1="260.919" y1="62.1666" x2="60.7197" y2="290.361" gradientUnits="userSpaceOnUse">
<stop stop-color="#C4D8FF"/>
<stop offset="1" stop-color="#E0E7F5"/>
</linearGradient>
<linearGradient id="paint9_linear_1989_145990" x1="257.172" y1="62.4003" x2="56.9726" y2="290.594" gradientUnits="userSpaceOnUse">
<stop stop-color="#C4D8FF"/>
<stop offset="1" stop-color="#E0E7F5"/>
</linearGradient>
<linearGradient id="paint10_linear_1989_145990" x1="187.573" y1="22.2259" x2="124.61" y2="355.569" gradientUnits="userSpaceOnUse">
<stop stop-color="#BCD2FF"/>
<stop offset="1" stop-color="#E0E7F5"/>
</linearGradient>
<linearGradient id="paint11_linear_1989_145990" x1="258.648" y1="166.395" x2="12.3594" y2="218.763" gradientUnits="userSpaceOnUse">
<stop stop-color="#D5E2FF"/>
<stop offset="0.348987" stop-color="#E6ECF8"/>
<stop offset="0.881094" stop-color="#D7E1F3"/>
</linearGradient>
<linearGradient id="paint12_linear_1989_145990" x1="85.131" y1="128.945" x2="236.973" y2="271.208" gradientUnits="userSpaceOnUse">
<stop offset="0.0211412" stop-color="#EDF4FF"/>
<stop offset="0.843792" stop-color="#DBE4F3"/>
<stop offset="1" stop-color="#9AB4DF"/>
</linearGradient>
<linearGradient id="paint13_linear_1989_145990" x1="128.368" y1="221.96" x2="214.759" y2="170.752" gradientUnits="userSpaceOnUse">
<stop offset="0.385417" stop-color="#EBA624"/>
<stop offset="0.934512" stop-color="#926C22"/>
</linearGradient>
<linearGradient id="paint14_linear_1989_145990" x1="189.379" y1="142.935" x2="92.6576" y2="236.904" gradientUnits="userSpaceOnUse">
<stop offset="0.0309889" stop-color="#FCDB39"/>
<stop offset="0.934512" stop-color="#FBAF2C"/>
</linearGradient>
<linearGradient id="paint15_linear_1989_145990" x1="185.501" y1="233.523" x2="90.278" y2="164.826" gradientUnits="userSpaceOnUse">
<stop stop-color="#FFE288"/>
<stop offset="1" stop-color="white" stop-opacity="0"/>
</linearGradient>
</defs>
</svg>
