<svg width="215" height="166" viewBox="0 0 215 166" fill="none" xmlns="http://www.w3.org/2000/svg">
<path d="M150.906 114.617H178.825V111.383H150.906V114.617Z" fill="#1E0E36"/>
<path d="M156.945 158.701H158.347V113.859H156.945V158.701Z" fill="#1E0E36"/>
<path d="M172.574 158.701H173.976V113.859H172.574V158.701Z" fill="#1E0E36"/>
<path d="M169.664 158.701H171.065V113.859H169.664V158.701Z" fill="#1E0E36"/>
<path d="M170.365 146.25H156.945V147.651H170.365V146.25Z" fill="#1E0E36"/>
<path d="M170.502 85.2395L93.7001 119.977L39.5898 102.933L129.706 66.6211L170.502 85.2395Z" fill="#272448"/>
<path d="M91.4019 107.242L88.295 108.483C88.0853 108.567 87.8558 108.585 87.6354 108.536L82.8082 107.456C81.7347 107.215 81.6162 105.732 82.6376 105.324L85.7445 104.084C85.9539 104 86.1838 103.982 86.4038 104.031L91.2313 105.111C92.3048 105.352 92.4233 106.834 91.4019 107.242Z" fill="#ECECEC"/>
<path d="M137.312 92.0398L104.29 104.704L84.9102 100.29L117.932 87.625L137.312 92.0398Z" fill="#ECECEC"/>
<path d="M94.0352 100.078L118.258 90.5039" stroke="white" stroke-width="0.379998" stroke-linecap="round" stroke-linejoin="round"/>
<path d="M97.9648 100.96L122.187 91.3867" stroke="white" stroke-width="0.379998" stroke-linecap="round" stroke-linejoin="round"/>
<path d="M101.91 101.828L126.133 92.2539" stroke="white" stroke-width="0.379998" stroke-linecap="round" stroke-linejoin="round"/>
<path d="M30.7617 131.394C30.8115 98.2581 38.9628 86.0412 47.4744 81.6256C62.1845 73.9949 78.3645 89.4574 92.4141 80.1406C102.711 73.3124 97.5019 62.6983 108.756 42.2578C110.019 39.9626 114.197 32.3737 120.54 24.9648" stroke="url(#paint0_linear_2371_159240)" stroke-width="0.379998" stroke-miterlimit="10"/>
<g opacity="0.6">
<path d="M36.375 12.7062L73.2842 6L73.4917 32.745L36.3925 42.4912L36.375 12.7062Z" fill="#BADAFF"/>
</g>
<g opacity="0.6">
<path d="M86.3955 15.895L110.273 12L110.253 33.5877L86.375 38.9077L86.3955 15.895Z" fill="#F0E4FF"/>
</g>
<path d="M130.692 19.3438L130.742 74.3987L48.4224 105.894L47.4219 36.8738L130.692 19.3438Z" fill="#1E0E36"/>
<g opacity="0.6">
<path d="M124.301 29.6179L148.219 23.918V43.098L124.301 50.128V29.6179Z" fill="#ADD2FF"/>
<path d="M127.543 46.0689C136.189 43.5525 136.586 30.2834 145.518 28.0547" stroke="white" stroke-width="0.698437" stroke-linecap="round" stroke-linejoin="round"/>
<path d="M145.524 27.8086L136.316 30.0992" stroke="white" stroke-width="0.174419" stroke-linecap="round" stroke-linejoin="round"/>
<path d="M136.516 30.0839C136.514 30.2367 136.389 30.3921 136.236 30.4301C136.083 30.4685 135.959 30.3754 135.961 30.2218C135.962 30.0687 136.087 29.9137 136.241 29.8757C136.394 29.8377 136.517 29.9311 136.516 30.0839Z" fill="white"/>
<path d="M127.566 46.0228L136.762 43.3477" stroke="white" stroke-width="0.174419" stroke-linecap="round" stroke-linejoin="round"/>
<path d="M136.563 43.4313C136.561 43.584 136.684 43.6718 136.837 43.6273C136.99 43.5825 137.115 43.4229 137.117 43.2701C137.118 43.1174 136.995 43.0296 136.842 43.0741C136.689 43.1185 136.564 43.2785 136.563 43.4313Z" fill="white"/>
</g>
<path d="M152.255 49.5846C152.255 49.5846 150.799 53.3939 150.863 53.7701C150.931 54.1724 152.257 55.1562 152.257 55.1562" fill="#E5B970"/>
<path d="M163.499 41.3169L152.386 43.8826C152.386 43.8826 150.943 57.3663 153.42 58.6545C155.897 59.9422 162.435 56.4375 162.435 56.4375L165.008 55.081" fill="#FED796"/>
<path d="M155.026 55.2879C155.026 55.2879 154.422 56.6009 152.906 56.2799" stroke="#032220" stroke-width="0.278159" stroke-linecap="round" stroke-linejoin="round"/>
<path d="M153.237 50.6196C153.278 50.9281 153.482 51.155 153.692 51.127C153.903 51.0986 154.039 50.8256 153.998 50.5174C153.956 50.2084 153.752 49.9815 153.542 50.0096C153.332 50.038 153.195 50.311 153.237 50.6196Z" fill="#032220"/>
<path d="M153.227 48.1567C153.168 48.3274 153.499 48.5958 153.966 48.7569C154.433 48.9176 154.858 48.91 154.917 48.7394C154.976 48.5691 154.645 48.3003 154.178 48.1396C153.712 47.9785 153.286 47.9865 153.227 48.1567Z" fill="#032220"/>
<path d="M157.374 47.5849C156.098 47.135 156.18 44.5915 156.18 44.5915C156.18 44.5915 155.11 46.3076 153.687 46.4011C152.546 46.4766 153.174 45.2541 152.519 45.2902C151.717 45.334 149.767 46.4004 149.379 45.6146C149.009 44.8621 150.981 43.926 150.347 43.8746C149.493 43.8048 148.814 43.1097 148.965 42.352C149.089 41.7303 150.891 40.9175 151.631 40.7245C152.6 40.4715 154.856 40.111 156.924 39.797C158.793 39.5134 160.048 39.236 163.585 40.454C164.884 40.9008 165.745 41.8932 166.506 42.5107C168.005 43.7269 169.67 45.436 168.776 46.7789C167.846 48.1743 166.916 47.4758 166.916 47.4758C166.916 47.4758 169.413 49.6752 167.873 50.8396C166.345 51.9939 164.773 50.5673 164.773 50.5673C164.773 50.5673 166.825 51.7737 166.256 53.1787C165.523 54.9927 164.766 55.9698 162.592 55.489C161.554 55.2595 160.445 51.8237 160.252 51.4284" fill="#032220"/>
<path d="M158.076 50.0919C158.223 51.1857 159.229 51.9536 160.323 51.8062C161.417 51.6592 162.184 50.6532 162.037 49.5594C161.89 48.4656 160.884 47.6977 159.79 47.845C158.696 47.9921 157.929 48.9981 158.076 50.0919Z" fill="#FED796"/>
<path d="M160.053 49.8232C160.053 49.8232 159.82 48.1275 160.995 49.249" stroke="#032220" stroke-width="0.278159" stroke-linecap="round" stroke-linejoin="round"/>
<path d="M160.203 48.9219L160.512 49.3853" stroke="#032220" stroke-width="0.278159" stroke-linecap="round" stroke-linejoin="round"/>
<path d="M157.122 57.3822L158.166 65.1471C158.166 65.1471 167.533 65.8926 166.551 64.0191C164.596 60.2902 165.005 55.071 165.005 55.071" fill="#FED796"/>
<path d="M157.274 58.525C157.274 58.525 160.692 57.5658 160.955 56.8935C160.955 56.8935 161.083 61.0154 157.976 62.672L157.274 58.525Z" fill="#E5B970"/>
<path d="M93.8047 52.8644L107.014 47.7344L119.317 52.2081L105.395 57.2431L93.8047 52.8644Z" fill="#DABDFF"/>
<path d="M93.8692 52.9023L105.495 57.2484L105.59 72.8853L93.7031 68.6103L93.8692 52.9023Z" fill="url(#paint1_linear_2371_159240)"/>
<path d="M105.523 57.2263L119.361 52.2148V67.8985L105.523 73.1474V57.2263Z" fill="url(#paint2_linear_2371_159240)"/>
<path d="M116.917 57.2451C117.247 57.2615 117.501 57.5427 117.485 57.8725C117.468 58.2027 117.187 58.4573 116.857 58.441C115.85 58.3908 114.645 59.8272 113.399 62.8851C111.98 66.3716 110.51 68.1838 108.831 68.2225C108.501 68.2301 108.227 67.9687 108.219 67.6381C108.212 67.3075 108.473 67.0335 108.804 67.0259C109.825 67.0024 111.04 65.5044 112.291 62.4336C113.716 58.9338 115.204 57.1596 116.917 57.2451Z" fill="white"/>
<path d="M116.917 57.2451C117.247 57.2615 117.501 57.5427 117.485 57.8725C117.468 58.2027 117.187 58.4573 116.857 58.441C115.85 58.3908 114.645 59.8272 113.399 62.8851C111.98 66.3716 110.51 68.1838 108.831 68.2225C108.501 68.2301 108.227 67.9687 108.219 67.6381C108.212 67.3075 108.473 67.0335 108.804 67.0259C109.825 67.0024 111.04 65.5044 112.291 62.4336C113.716 58.9338 115.204 57.1596 116.917 57.2451Z" stroke="white" stroke-width="0.573417" stroke-miterlimit="10"/>
<path d="M143.25 61.4035C143.25 61.4035 144.408 58.9326 143.788 57.6299C143.581 57.1953 140.778 51.7247 140.49 51.3919C140.201 51.0592 139.864 51.9879 139.958 52.5255C140.051 53.0633 140.419 55.545 140.419 55.545C140.419 55.545 137.779 56.5411 137.755 57.9618C137.731 59.3831 140.457 61.9947 140.457 61.9947L143.25 61.4035Z" fill="#FED796"/>
<path d="M155.851 79.4255C155.451 79.8254 143.383 62.4651 143.303 61.025L140.463 61.5056C140.463 61.5056 145.912 80.5525 149.432 83.111C152.952 85.67 155.851 79.4255 155.851 79.4255Z" fill="#FED796"/>
<path d="M121.479 95.5012C121.479 95.5012 118.879 94.7173 117.641 94.8822C116.403 95.0475 112.524 98.6377 113.101 98.7612C113.679 98.8851 116.468 97.6296 117.261 97.7622C118.053 97.8948 122.198 98.0799 122.198 98.0799L121.479 95.5012Z" fill="#FED796"/>
<path d="M136.164 85.8803C135.983 86.4159 124.197 93.9923 121.235 95.4342L121.94 98.017C121.94 98.017 136.278 95.3127 139.843 92.817C145.004 89.2042 150.23 83.7182 150.23 83.7182C150.23 83.7182 146.345 73.0074 144.541 74.9095C139.558 80.1637 136.164 85.8803 136.164 85.8803Z" fill="#FED796"/>
<path d="M134.637 155.524C134.637 155.524 133.149 154.555 129.564 154.555C128.739 154.555 127.037 154.994 126.366 155.367C125.818 155.671 125.777 157.467 125.777 157.467L136.754 160.331C136.754 160.331 138.237 157.19 136.466 155.9L134.637 155.524Z" fill="#018788"/>
<path d="M133.688 151.738L133.914 155.601C133.914 155.601 134.935 156.553 136.739 156.427L137.731 152.44L133.688 151.738Z" fill="#FED796"/>
<path d="M133.828 152.965L137.091 155.018L137.34 154.018L133.828 152.965Z" fill="#E5B970"/>
<path d="M170.437 105.665C170.437 105.665 164.868 112.997 148.571 122.508C148.571 122.508 146.513 136.193 138.666 153.094C138.494 153.465 139.422 153.844 138.143 154.208C137.926 154.27 132.722 152.627 132.722 152.627C131.925 152.07 133.161 151.663 133.067 150.852C132.381 144.985 134.182 122.37 136.881 116.971C139.482 111.77 155.339 102.82 155.339 102.82L170.437 105.665Z" fill="#332E5F"/>
<path d="M160.746 137.867C160.746 137.867 162.701 137.479 163.953 139.284C163.953 139.284 163.051 143.944 160.245 146.851H154.633C154.633 146.851 155.033 145.978 155.791 145.452C156.079 145.252 157.79 143.994 158.742 143.844L159.293 138.983L160.746 137.867Z" fill="#018788"/>
<path d="M155.16 137.696L159.462 140.33C159.462 140.33 161.308 139.099 161.308 137.869L159.286 134.367L155.16 137.696Z" fill="#FED796"/>
<path d="M159.795 134.98L157.642 139.216L155.16 137.696L159.795 134.98Z" fill="#E5B970"/>
<path d="M148.88 99.4244C148.88 99.4244 130.626 108.061 125.5 117.267C122.927 121.889 130.459 127.577 140.613 132.078C140.613 132.078 148.089 134.95 153.029 136.714C153.602 136.919 153.742 138.017 154.231 138.185C154.811 138.385 155.533 137.89 156.134 137.777C156.134 137.777 157.976 136.711 159.8 134.968C159.8 134.968 160.605 134.243 160.214 133.399C160.04 133.021 158.921 132.818 158.601 132.303C157.84 131.084 156.611 129.507 154.631 127.704C148.934 122.517 146.555 120.689 146.555 120.689C146.555 120.689 169.136 111.934 170.366 108.243C171.597 104.551 156.571 93.5793 148.88 99.4244Z" fill="#433D7E"/>
<path d="M158.329 105.664C158.329 105.664 142.441 113.601 138.389 116.82C134.337 120.039 136.284 123.629 142.351 126.848C148.417 130.067 155.227 133.657 155.227 133.657" stroke="#332E5F" stroke-width="0.379998" stroke-linecap="round" stroke-linejoin="round"/>
<path d="M155.636 108.316C155.393 108.446 154.789 109.41 155.511 109.41C156.233 109.41 156.364 107.924 155.636 108.316Z" fill="#332E5F"/>
<path d="M142.414 116.631C142.226 116.431 141.138 116.1 141.327 116.797C141.515 117.494 142.983 117.232 142.414 116.631Z" fill="#332E5F"/>
<path d="M144.673 126.096C144.708 125.822 144.274 124.772 143.854 125.36C143.435 125.947 144.569 126.916 144.673 126.096Z" fill="#332E5F"/>
<path d="M152.339 130.615C152.46 130.862 153.4 131.502 153.427 130.78C153.454 130.058 151.974 129.872 152.339 130.615Z" fill="#332E5F"/>
<path d="M158.399 133.449C158.399 133.449 156.588 135.952 154.809 136.338" stroke="#332E5F" stroke-width="0.379998" stroke-linecap="round" stroke-linejoin="round"/>
<path d="M152.126 110.313C151.983 110.476 152.167 111.303 152.58 111.056C152.992 110.808 152.783 109.569 152.126 110.313Z" fill="#332E5F"/>
<path d="M147.11 113.539C147.131 113.323 146.496 112.762 146.307 113.204C146.119 113.647 147.014 114.528 147.11 113.539Z" fill="#332E5F"/>
<path d="M141.918 123.876C141.939 123.659 141.305 123.098 141.116 123.54C140.927 123.982 141.823 124.864 141.918 123.876Z" fill="#332E5F"/>
<path d="M149.245 111.604C149.147 111.725 149.018 112.187 149.327 112.221C149.636 112.256 149.939 111.793 149.863 111.604C149.805 111.46 149.446 111.353 149.245 111.604Z" fill="#332E5F"/>
<path d="M148.286 128.191C148.141 128.134 147.662 128.146 147.72 128.452C147.778 128.757 148.309 128.911 148.468 128.782C148.588 128.685 148.585 128.31 148.286 128.191Z" fill="#332E5F"/>
<path d="M144.373 114.741C144.223 114.701 143.748 114.767 143.84 115.065C143.933 115.362 144.478 115.454 144.621 115.308C144.729 115.197 144.684 114.825 144.373 114.741Z" fill="#332E5F"/>
<path d="M139.9 121.601C139.75 121.56 139.275 121.627 139.367 121.924C139.46 122.221 140.005 122.313 140.148 122.167C140.256 122.057 140.211 121.685 139.9 121.601Z" fill="#332E5F"/>
<path d="M150.294 129.374C150.144 129.333 149.67 129.4 149.762 129.698C149.854 129.994 150.4 130.087 150.543 129.94C150.651 129.83 150.605 129.458 150.294 129.374Z" fill="#332E5F"/>
<path d="M139.711 119.041C139.622 118.913 139.216 118.656 139.095 118.943C138.973 119.229 139.33 119.652 139.533 119.634C139.688 119.619 139.893 119.306 139.711 119.041Z" fill="#332E5F"/>
<path d="M146.562 127.295C146.474 127.166 146.068 126.91 145.947 127.197C145.825 127.483 146.182 127.907 146.385 127.888C146.539 127.873 146.745 127.56 146.562 127.295Z" fill="#332E5F"/>
<path d="M155.089 132.107C155.001 131.979 154.595 131.723 154.474 132.009C154.352 132.296 154.709 132.719 154.912 132.7C155.066 132.685 155.272 132.372 155.089 132.107Z" fill="#332E5F"/>
<path d="M148.938 99.4161C148.938 99.4161 155.617 102.141 156.789 106.625C157.962 111.108 160.169 113.522 161.756 114.005L167.885 110.874L153.489 98.1055L148.938 99.4161Z" fill="#332E5F"/>
<path d="M147.287 120.406L144.254 121.59L149.939 123.528L147.287 120.406Z" fill="#332E5F"/>
<path d="M151.508 118.812L143.543 121.975" stroke="#1E0E36" stroke-width="0.379998" stroke-linecap="round" stroke-linejoin="round"/>
<path d="M142.083 76.6024C142.083 76.6024 147.775 82.4776 150.23 83.7221C150.23 83.7221 152.333 92.3341 149.858 94.7812C149.858 94.7812 145.524 99.6788 151.673 100.328C157.822 100.978 159.008 108.983 161.462 110.228C163.917 111.472 169.447 112.733 171.303 110.898C173.159 109.062 174.209 105.441 173.854 94.9153C173.693 90.1473 173.846 81.4894 173.345 75.8393C172.907 70.9147 168.498 62.2761 163.577 62.2486C158.654 62.2211 150.6 66.6343 142.083 76.6024Z" fill="url(#paint3_linear_2371_159240)"/>
<path d="M148.904 99.3919C148.904 99.3919 149.756 95.5636 152.489 93.8457C155.223 92.1277 153.764 79.7676 153.764 79.7676L150.223 83.7234C150.223 83.7234 152.106 91.69 150.599 93.7663C149.092 95.843 147.652 97.0281 148.904 99.3919Z" fill="#9951F4"/>
<path d="M150.226 83.7616C150.226 83.7616 153.289 81.0085 153.766 79.7613C153.856 79.5251 153.771 78.7501 153.771 78.7501" stroke="#2CA78C" stroke-width="0.379998" stroke-linecap="round" stroke-linejoin="round"/>
<path d="M155.062 79.2251C155.062 79.2251 154.644 79.0476 153.766 79.7651" stroke="#2CA78C" stroke-width="0.379998" stroke-linecap="round" stroke-linejoin="round"/>
<g opacity="0.6">
<path d="M41.9258 88.9632L65.6232 81.3633V105.49L41.9258 114.99V88.9632Z" fill="url(#paint4_linear_2371_159240)"/>
</g>
<path d="M62.1632 40.3957C62.1632 40.3957 62.0589 42.5184 62.056 42.6968C61.9937 42.5359 60.6046 39.1404 60.6046 39.1404C59.5399 39.4233 59.1734 40.3284 59.0878 41.2129C59.0878 41.2129 58.8516 43.3787 58.8343 43.5608C58.7896 43.4065 58.1587 41.4832 58.1587 41.4832C57.8328 40.5184 56.7793 40.1609 56.0538 40.3538L58.3432 45.4497C59.4574 45.1493 59.8562 44.236 59.9574 43.351C59.9574 43.351 60.1648 41.441 60.1727 41.3537C60.1998 41.4275 61.5486 44.5976 61.5486 44.5976C62.6641 44.3009 63.0789 43.4339 63.1985 42.5749L63.7344 38.309C62.6296 38.6025 62.2489 39.5111 62.1632 40.3957Z" fill="#9951F4"/>
<path d="M72.1554 84.5207L58.8041 89.1841C58.0198 89.458 57.3852 88.8861 57.3867 87.9069L57.3901 85.6774C57.3917 84.6986 58.0289 83.6919 58.8136 83.4294L72.1706 78.9602C72.9553 78.6976 73.5891 79.246 73.5864 80.1853L73.5803 82.3239C73.5777 83.2633 72.9397 84.2467 72.1554 84.5207Z" fill="white"/>
<path d="M57.4453 50.2232L89.7774 42.1641" stroke="white" stroke-width="0.698437" stroke-linecap="round" stroke-linejoin="round"/>
<path d="M57.4375 56.1161L82.8787 49.5508" stroke="white" stroke-width="0.698437" stroke-linecap="round" stroke-linejoin="round"/>
<path d="M57.4219 62.0053L76.4331 56.7344" stroke="white" stroke-width="0.698437" stroke-linecap="round" stroke-linejoin="round"/>
<path d="M169.995 4.60404C170.994 5.01966 175.18 6.76006 175.01 9.07621C174.929 10.1798 173.869 11.2686 173.128 11.1687C172.31 11.0587 172.551 9.59108 171.306 8.57278C169.762 7.31077 168.026 8.44742 166.808 7.20977C165.948 6.33486 165.776 4.71116 166.43 4.09687C167.15 3.42101 168.743 4.0834 169.995 4.60404Z" fill="url(#paint5_linear_2371_159240)"/>
<path d="M59.4605 130.457C62.1592 131.929 67.1957 129.539 67.2751 127.054C67.3557 124.537 62.3448 122.218 61.601 122.954C60.8968 123.649 62.7685 125.689 61.7695 126.863C60.8211 127.978 58.3934 127.289 57.8751 128.142C57.5836 128.621 58.388 129.872 59.4605 130.457Z" fill="#FAC7BF"/>
<path d="M157.271 25.0277C158.122 26.0113 161.493 24.9109 161.601 23.7364C161.684 22.8334 159.902 21.1895 158.35 21.8811C157.038 22.4657 156.694 24.3615 157.271 25.0277Z" fill="#F5C7C0"/>
<path d="M45.1635 63.9655C45.987 63.6261 46.2053 63.0113 46.5882 62.3412C46.9712 61.6711 47.4419 61.0948 48.2094 61.2537C48.9769 61.4122 50.8344 62.3476 51.0715 64.3343C51.4918 67.8585 51.0145 69.6766 49.0103 71.1768C47.0814 72.6206 44.6129 72.4567 43.1407 71.5508C41.6686 70.6452 40.6301 68.829 40.6762 67.3005C40.6991 66.528 40.7507 64.745 41.9859 64.4324C43.013 64.1723 44.389 64.2847 45.1635 63.9655Z" fill="url(#paint6_linear_2371_159240)"/>
<path d="M117.136 22.375C117.789 21.9764 117.981 21.4568 118.304 20.868C118.627 20.28 119.015 19.7536 119.605 19.761C120.196 19.7683 121.604 20.2151 121.713 21.7301C121.907 24.4124 121.468 25.9104 119.852 27.4236C118.298 28.8899 116.384 29.189 115.273 28.7249C114.163 28.2564 113.425 26.9819 113.519 25.7528C113.567 25.131 113.675 23.6971 114.647 23.2504C115.456 22.8797 116.521 22.7506 117.136 22.375Z" fill="#FACFC8"/>
<defs>
<linearGradient id="paint0_linear_2371_159240" x1="120.54" y1="131.394" x2="23.9424" y2="122.439" gradientUnits="userSpaceOnUse">
<stop stop-color="#400789"/>
<stop offset="1" stop-color="#9E64E7"/>
</linearGradient>
<linearGradient id="paint1_linear_2371_159240" x1="105.59" y1="72.8853" x2="92.7452" y2="72.0456" gradientUnits="userSpaceOnUse">
<stop stop-color="#7830D2"/>
<stop offset="1" stop-color="#BB86FF"/>
</linearGradient>
<linearGradient id="paint2_linear_2371_159240" x1="119.361" y1="73.1474" x2="104.423" y2="72.0622" gradientUnits="userSpaceOnUse">
<stop stop-color="#7830D2"/>
<stop offset="1" stop-color="#BB86FF"/>
</linearGradient>
<linearGradient id="paint3_linear_2371_159240" x1="173.85" y1="111.854" x2="139.351" y2="109.214" gradientUnits="userSpaceOnUse">
<stop stop-color="#400789"/>
<stop offset="1" stop-color="#9E64E7"/>
</linearGradient>
<linearGradient id="paint4_linear_2371_159240" x1="65.6232" y1="114.99" x2="40.06" y2="113.01" gradientUnits="userSpaceOnUse">
<stop stop-color="#7830D2"/>
<stop offset="1" stop-color="#BB86FF"/>
</linearGradient>
<linearGradient id="paint5_linear_2371_159240" x1="174.949" y1="11.2257" x2="165.316" y2="9.60029" gradientUnits="userSpaceOnUse">
<stop stop-color="#400789"/>
<stop offset="1" stop-color="#9E64E7"/>
</linearGradient>
<linearGradient id="paint6_linear_2371_159240" x1="51.0418" y1="72.403" x2="39.798" y2="70.8987" gradientUnits="userSpaceOnUse">
<stop stop-color="#400789"/>
<stop offset="1" stop-color="#9E64E7"/>
</linearGradient>
</defs>
</svg>
