<svg width="215" height="166" viewBox="0 0 215 166" fill="none" xmlns="http://www.w3.org/2000/svg">
<g clip-path="url(#clip0_2371_159453)">
<g clip-path="url(#clip1_2371_159453)">
<path d="M117.41 84.2613H146.473C146.473 80.5628 143.477 77.5661 139.778 77.5661C139.398 77.5661 139.028 77.5968 138.668 77.658C137.168 74.6568 134.066 72.5977 130.482 72.5977C128.331 72.5977 126.353 73.3408 124.792 74.5867C123.299 75.7715 122.184 77.4197 121.664 79.3127C119.257 79.6755 117.41 81.7519 117.41 84.2613Z" fill="#E6E6E6"/>
<path d="M37.2816 38.9159H11.6094C11.6094 35.649 14.2565 33.0019 17.5235 33.0019C17.8594 33.0019 18.1858 33.029 18.5044 33.0831C19.8288 30.432 22.5688 28.6133 25.7352 28.6133C27.6351 28.6133 29.3826 29.2697 30.7611 30.3702C32.0799 31.4168 33.0646 32.8725 33.5242 34.5447C35.65 34.8652 37.2816 36.6993 37.2816 38.9159Z" fill="#E6E6E6"/>
<path d="M163.608 37.5398H118C119.155 35.1016 121.64 33.4139 124.517 33.4139C124.611 33.4139 124.702 33.4163 124.792 33.4213C126.325 31.2381 128.859 29.8129 131.729 29.8129C132.112 29.8129 132.49 29.8374 132.858 29.889C134.668 25.5423 138.956 22.4883 143.957 22.4883C148.932 22.4883 153.198 25.508 155.025 29.8154C155.074 29.8129 155.123 29.8129 155.172 29.8129C159.6 29.8129 163.233 33.2103 163.608 37.5398Z" fill="#E6E6E6"/>
<g filter="url(#filter0_f_2371_159453)">
<ellipse cx="106.066" cy="154.492" rx="84.9798" ry="4.84341" fill="#48128E" fill-opacity="0.6"/>
</g>
<g opacity="0.999998">
<path d="M29.3781 153.324L74.6114 144.732C79.7759 143.75 83.1672 138.768 82.1863 133.604L63.9678 37.6968C62.9867 32.5323 58.0048 29.141 52.8404 30.1221L7.60703 38.7144C2.44259 39.6956 -0.948815 44.6775 0.0322383 49.8419L18.2507 145.749C19.2317 150.914 24.2135 154.305 29.3781 153.324Z" fill="#1E0E36"/>
</g>
<g opacity="0.999998">
<path d="M86.8434 132.652L83.6915 115.086L86.8434 132.652ZM68.6246 36.7435C67.6436 31.5789 62.6622 28.1879 57.4976 29.169L12.2652 37.7612C7.10059 38.7422 3.70737 43.724 4.68842 48.8886L22.9072 144.798C23.8882 149.962 28.8719 153.353 34.0365 152.372L79.269 143.779C84.4335 142.798 87.8244 137.817 86.8434 132.652M83.582 133.272C84.2197 136.629 82.0063 139.88 78.6495 140.518L33.4169 149.11C30.0577 149.748 26.8085 147.534 26.1709 144.178L7.952 48.2687C7.31442 44.912 9.52606 41.663 12.8852 41.0249L58.1176 32.4327C61.4745 31.795 64.7257 34.006 65.3633 37.3628" fill="#EFEFEF"/>
</g>
<g opacity="0.999998">
<path d="M83.5755 133.273C84.2132 136.63 81.9997 139.882 78.643 140.519L33.4104 149.111C30.0512 149.75 26.8019 147.536 26.1643 144.179L7.94545 48.2698C7.30788 44.9131 9.51952 41.6641 12.8786 41.026L58.1111 32.4338C61.4679 31.7961 64.7191 34.0071 65.3567 37.364" fill="white"/>
</g>
<path d="M15.7823 107.29L22.9071 144.798C23.8882 149.962 28.8719 153.353 34.0363 152.372L80.3889 143.496M74.7367 68.9189L68.6246 36.7435C67.6435 31.5789 62.6622 28.188 57.4976 29.1689L12.2651 37.7611C7.10056 38.7422 3.70746 43.7242 4.68839 48.8887L14.4077 100.054" stroke="#324149" stroke-width="0.928932" stroke-linecap="round" stroke-linejoin="round"/>
<g opacity="0.999993">
<path d="M62.6249 86.5458C63.7719 95.116 57.7542 102.993 49.184 104.141C40.6138 105.288 32.7365 99.2699 31.5894 90.6998C30.4423 82.1295 36.4599 74.2521 45.0302 73.1051C53.6004 71.9579 61.4778 77.9756 62.6249 86.5458Z" fill="url(#paint0_linear_2371_159453)"/>
<path d="M53.9464 81.8672L46.9751 93.6717L42.2227 89.7435" stroke="white" stroke-width="4.77718" stroke-linecap="round" stroke-linejoin="round"/>
</g>
<path d="M61.5197 57.7095L20.8917 65.7101C19.5436 65.9757 18.2353 65.0981 17.9699 63.7499L15.7778 52.6182C15.5124 51.2701 16.3901 49.9619 17.7382 49.6964L58.3663 41.6958C59.7145 41.4303 61.0226 42.3082 61.2881 43.6563L63.4802 54.7877C63.7457 56.1359 62.868 57.444 61.5197 57.7095Z" fill="url(#paint1_linear_2371_159453)"/>
<path d="M113.957 104.507H108.086V100.094H113.957V104.507Z" fill="url(#paint2_linear_2371_159453)" stroke="#324149" stroke-width="0.587101" stroke-linecap="round" stroke-linejoin="round"/>
<path d="M121.354 120.402H100.062L104.729 102.617H116.687L121.354 120.402Z" fill="url(#paint3_linear_2371_159453)"/>
<path d="M106.55 109.062H100.68V104.648H106.55V109.062Z" stroke="#324149" stroke-width="0.587101" stroke-linecap="round" stroke-linejoin="round"/>
<path d="M112.202 121.464H95.0586L98.8161 107.145H108.445L112.202 121.464Z" fill="#E6C10C"/>
<path d="M93.1484 117.344L98.0648 134.187H118.694L123.505 117.344H93.1484Z" fill="white"/>
<path d="M100.442 134.188L95.0745 115.799C94.61 114.208 93.6137 113.118 92.0273 112.824" stroke="#324149" stroke-width="0.587101" stroke-linecap="round" stroke-linejoin="round"/>
<path d="M110.246 140.515C110.246 142.114 111.542 143.41 113.14 143.41C114.739 143.41 116.035 142.114 116.035 140.515C116.035 138.917 114.739 137.621 113.14 137.621C111.542 137.621 110.246 138.917 110.246 140.515Z" fill="#1E0E36"/>
<path d="M100.312 140.613C100.312 142.211 101.608 143.507 103.207 143.507C104.805 143.507 106.101 142.211 106.101 140.613C106.101 139.014 104.805 137.719 103.207 137.719C101.608 137.719 100.312 139.014 100.312 140.613Z" fill="#1E0E36"/>
<path d="M108.418 117.344V134.187" stroke="#324149" stroke-width="0.587101" stroke-linecap="round" stroke-linejoin="round"/>
<path d="M120.134 129.09H96.582" stroke="#324149" stroke-width="0.587101" stroke-linecap="round" stroke-linejoin="round"/>
<path d="M121.759 123.434H95.1992" stroke="#324149" stroke-width="0.587101" stroke-linecap="round" stroke-linejoin="round"/>
<path d="M184.802 153.331L140.659 144.946C135.619 143.989 132.309 139.127 133.266 134.087L151.046 40.4906C152.003 35.4506 156.865 32.1411 161.905 33.0985L206.048 41.4838C211.089 42.4413 214.398 47.3031 213.441 52.3431L195.661 145.939C194.704 150.979 189.842 154.289 184.802 153.331Z" fill="#1E0E36"/>
<path d="M130.819 116.012L127.743 133.155L130.819 116.012ZM127.743 133.155C126.786 138.195 130.095 143.056 135.135 144.014L179.277 152.399C184.318 153.356 189.181 150.047 190.139 145.007L207.918 51.4093C208.876 46.3692 205.564 41.5075 200.524 40.5501L156.382 32.1649C151.342 31.2075 146.48 34.5168 145.523 39.5569M148.706 40.1613C149.328 36.8853 152.501 34.7276 155.776 35.35L199.919 43.7351C203.197 44.3577 205.356 47.5285 204.733 50.8044L186.953 144.402C186.331 147.678 183.16 149.839 179.882 149.216L135.74 140.831C132.464 140.209 130.303 137.035 130.926 133.759" fill="#E3E3E3"/>
<path d="M130.919 133.758C130.297 137.034 132.457 140.208 135.733 140.83L179.876 149.215C183.154 149.838 186.325 147.677 186.947 144.401L204.727 50.8036C205.349 47.5277 203.191 44.357 199.913 43.7343L155.77 35.3491C152.494 34.7268 149.321 36.8845 148.699 40.1605" fill="#F9F9F9"/>
<path d="M157.039 148.176L179.271 152.399C184.311 153.356 189.175 150.047 190.132 145.007L196.817 109.817M198.427 101.342L207.912 51.4094C208.869 46.3693 205.558 41.5075 200.518 40.5499L156.375 32.1649C151.335 31.2075 146.474 34.5168 145.516 39.5568L130.812 118.195" stroke="#324149" stroke-width="0.906548" stroke-linecap="round" stroke-linejoin="round"/>
<path d="M192.795 69.2771L153.072 61.855C151.754 61.6087 150.885 60.3405 151.132 59.0223L153.165 48.1388C153.411 46.8206 154.68 45.9517 155.998 46.198L195.721 53.6203C197.039 53.8666 197.908 55.1348 197.662 56.453L195.628 67.3365C195.382 68.6547 194.113 69.5235 192.795 69.2771Z" fill="url(#paint4_linear_2371_159453)"/>
<path d="M146.188 125.552L149.913 107.501C150.066 106.759 150.791 106.282 151.533 106.435L178.555 112.012C179.297 112.165 179.774 112.89 179.621 113.632L174.704 137.454C174.551 138.196 173.826 138.673 173.084 138.52L150.833 133.928" stroke="#324149" stroke-width="0.906548" stroke-linecap="round" stroke-linejoin="round"/>
<path d="M164.604 118.027L161.962 117.482C161.22 117.329 160.743 116.603 160.896 115.861L161.245 114.169C161.398 113.427 162.124 112.95 162.865 113.103L165.508 113.648C166.25 113.801 166.727 114.527 166.574 115.269L166.225 116.961C166.072 117.703 165.346 118.18 164.604 118.027Z" fill="url(#paint5_linear_2371_159453)"/>
<path d="M172.596 119.664L169.954 119.118C169.212 118.965 168.735 118.24 168.888 117.498L169.237 115.805C169.39 115.064 170.116 114.587 170.857 114.739L173.5 115.285C174.242 115.438 174.719 116.164 174.566 116.905L174.217 118.598C174.064 119.339 173.338 119.817 172.596 119.664Z" fill="url(#paint6_linear_2371_159453)"/>
<g opacity="0.999999">
<path d="M155.175 123.32L152.532 122.775C151.79 122.622 151.313 121.896 151.466 121.154L151.815 119.462C151.968 118.72 152.694 118.243 153.436 118.396L156.078 118.941C156.82 119.094 157.297 119.82 157.144 120.562L156.795 122.254C156.642 122.996 155.917 123.473 155.175 123.32Z" fill="url(#paint7_linear_2371_159453)"/>
</g>
<path d="M163.167 124.968L160.524 124.423C159.783 124.27 159.305 123.544 159.458 122.803L159.808 121.11C159.961 120.368 160.686 119.891 161.428 120.044L164.07 120.59C164.812 120.743 165.29 121.468 165.136 122.21L164.787 123.902C164.634 124.644 163.909 125.121 163.167 124.968Z" fill="url(#paint8_linear_2371_159453)"/>
<path d="M171.155 126.625L168.512 126.079C167.771 125.926 167.293 125.201 167.447 124.459L167.796 122.766C167.949 122.025 168.674 121.547 169.416 121.7L172.059 122.246C172.801 122.399 173.278 123.125 173.125 123.866L172.775 125.559C172.622 126.301 171.897 126.778 171.155 126.625Z" fill="#E6C10C"/>
<path d="M153.733 130.277L151.091 129.732C150.349 129.578 149.872 128.853 150.025 128.111L150.374 126.419C150.527 125.677 151.252 125.2 151.994 125.353L154.637 125.898C155.379 126.051 155.856 126.777 155.703 127.519L155.354 129.211C155.2 129.953 154.475 130.43 153.733 130.277Z" fill="url(#paint9_linear_2371_159453)"/>
<path d="M161.737 131.925L159.095 131.38C158.353 131.227 157.875 130.502 158.029 129.76L158.378 128.067C158.531 127.326 159.256 126.848 159.998 127.001L162.641 127.547C163.383 127.7 163.86 128.425 163.707 129.167L163.357 130.859C163.204 131.601 162.479 132.078 161.737 131.925Z" fill="url(#paint10_linear_2371_159453)"/>
<path d="M169.714 133.57L167.071 133.025C166.329 132.872 165.852 132.146 166.005 131.404L166.354 129.712C166.507 128.97 167.233 128.493 167.975 128.646L170.617 129.191C171.359 129.344 171.836 130.07 171.683 130.812L171.334 132.504C171.181 133.246 170.455 133.723 169.714 133.57Z" fill="url(#paint11_linear_2371_159453)"/>
<path d="M184.173 86.9699C184.531 95.2571 178.103 102.265 169.815 102.623C161.528 102.98 154.52 96.5518 154.163 88.2646C153.805 79.9772 160.233 72.9693 168.521 72.6119C176.808 72.2543 183.816 78.6827 184.173 86.9699Z" fill="url(#paint12_linear_2371_159453)"/>
<path d="M172.863 89.0477C172.291 88.2583 171.33 87.4272 169.985 86.5609C169.265 86.0979 168.786 85.6765 168.554 85.2926C168.327 84.9154 168.262 84.4699 168.364 83.9567C168.471 83.415 168.696 83.0033 169.04 82.7338C169.383 82.4644 169.838 82.383 170.403 82.4953C170.961 82.6064 171.353 82.9035 171.594 83.39C171.712 83.6327 171.78 83.913 171.8 84.2312C171.844 84.8741 172.358 85.391 172.99 85.5169L173.019 85.5225C173.928 85.6914 174.785 84.9551 174.689 84.0409C174.628 83.4836 174.474 82.973 174.218 82.5014C173.759 81.6513 173.037 81.0217 172.05 80.6181L172.271 79.5063C172.328 79.2213 172.272 78.9374 172.128 78.7073C172.124 78.6947 172.115 78.6811 172.106 78.6674C171.946 78.4281 171.697 78.2541 171.394 78.194C171.092 78.1338 170.795 78.199 170.556 78.359C170.316 78.5189 170.142 78.7687 170.082 79.0709L169.868 80.1486C168.787 80.0994 167.857 80.3354 167.085 80.8515C166.23 81.4225 165.696 82.2586 165.475 83.3704C165.238 84.5622 165.407 85.5617 165.989 86.359C166.566 87.1553 167.536 87.9705 168.895 88.7979C169.584 89.2371 170.046 89.6549 170.287 90.0526C170.528 90.4502 170.595 90.9142 170.489 91.4501C170.381 91.9917 170.135 92.3934 169.753 92.649C169.364 92.9037 168.876 92.9726 168.272 92.8525C167.645 92.7277 167.17 92.4318 166.836 91.9683C166.651 91.7062 166.544 91.3769 166.522 90.9813C166.482 90.3509 165.983 89.8487 165.367 89.7263L165.339 89.7206C164.36 89.5438 163.507 90.3758 163.638 91.3561C163.719 91.9647 163.927 92.4982 164.266 92.9686C164.899 93.8412 165.792 94.4752 166.945 94.8468L166.771 95.7191C166.736 95.8959 166.742 96.0748 166.798 96.2401C166.82 96.3392 166.861 96.4303 166.915 96.5179C166.918 96.5307 166.927 96.5443 166.936 96.558C167.096 96.7971 167.346 96.9713 167.648 97.0313C167.871 97.0756 168.095 97.0491 168.288 96.9748C168.36 96.9417 168.426 96.9074 168.487 96.8662C168.726 96.7065 168.901 96.4567 168.961 96.1545L169.148 95.2136C170.168 95.2388 171.037 95.0144 171.769 94.5497C172.608 93.9992 173.144 93.1514 173.371 92.0057C173.606 90.8254 173.44 89.844 172.863 89.0477Z" fill="white"/>
<path d="M172.863 89.0477C172.291 88.2583 171.33 87.4272 169.985 86.5609C169.265 86.0979 168.786 85.6765 168.554 85.2926C168.327 84.9154 168.262 84.4699 168.364 83.9567C168.471 83.415 168.696 83.0033 169.04 82.7338C169.383 82.4644 169.838 82.383 170.403 82.4953C170.961 82.6064 171.353 82.9035 171.594 83.39C171.712 83.6327 171.78 83.913 171.8 84.2312C171.844 84.8741 172.358 85.391 172.99 85.5169L173.019 85.5225C173.928 85.6914 174.785 84.9551 174.689 84.0409C174.628 83.4836 174.474 82.973 174.218 82.5014C173.759 81.6513 173.037 81.0217 172.05 80.6181L172.271 79.5063C172.328 79.2213 172.272 78.9374 172.128 78.7073C172.124 78.6947 172.115 78.6811 172.106 78.6674C171.946 78.4281 171.697 78.2541 171.394 78.194C171.092 78.1338 170.795 78.199 170.556 78.359C170.316 78.5189 170.142 78.7687 170.082 79.0709L169.868 80.1486C168.787 80.0994 167.857 80.3354 167.085 80.8515C166.23 81.4225 165.696 82.2586 165.475 83.3704C165.238 84.5622 165.407 85.5617 165.989 86.359C166.566 87.1553 167.536 87.9705 168.895 88.7979C169.584 89.2371 170.046 89.6549 170.287 90.0526C170.528 90.4502 170.595 90.9142 170.489 91.4501C170.381 91.9917 170.135 92.3934 169.753 92.649C169.364 92.9037 168.876 92.9726 168.272 92.8525C167.645 92.7277 167.17 92.4318 166.836 91.9683C166.651 91.7062 166.544 91.3769 166.522 90.9813C166.482 90.3509 165.983 89.8487 165.367 89.7263L165.339 89.7206C164.36 89.5438 163.507 90.3758 163.638 91.3561C163.719 91.9647 163.927 92.4982 164.266 92.9686C164.899 93.8412 165.792 94.4752 166.945 94.8468L166.771 95.7191C166.736 95.8959 166.742 96.0748 166.798 96.2401C166.82 96.3392 166.861 96.4303 166.915 96.5179C166.918 96.5307 166.927 96.5443 166.936 96.558C167.096 96.7971 167.346 96.9713 167.648 97.0313C167.871 97.0756 168.095 97.0491 168.288 96.9748C168.36 96.9417 168.426 96.9074 168.487 96.8662C168.726 96.7065 168.901 96.4567 168.961 96.1545L169.148 95.2136C170.168 95.2388 171.037 95.0144 171.769 94.5497C172.608 93.9992 173.144 93.1514 173.371 92.0057C173.606 90.8254 173.44 89.844 172.863 89.0477Z" stroke="white" stroke-width="1.17766" stroke-miterlimit="10"/>
<path d="M91.5147 86.5414C87.8249 85.6837 85.529 81.9973 86.3867 78.3075C87.2444 74.6177 90.9311 72.322 94.6207 73.1797C98.3105 74.0375 100.606 77.7239 99.7487 81.4136C98.891 85.1034 95.2044 87.3991 91.5147 86.5414Z" fill="white"/>
<path d="M91.5147 86.5414C87.8249 85.6837 85.529 81.9973 86.3867 78.3075C87.2444 74.6177 90.9311 72.322 94.6207 73.1797C98.3105 74.0375 100.606 77.7239 99.7487 81.4136C98.891 85.1034 95.2044 87.3991 91.5147 86.5414Z" stroke="#324149" stroke-width="0.587101" stroke-linecap="round" stroke-linejoin="round"/>
<path d="M91.6628 81.6302C92.1529 81.4481 92.7205 81.0713 93.3614 80.501C93.7043 80.1957 93.9908 80.0087 94.2225 79.9441C94.45 79.881 94.6896 79.9113 94.94 80.0378C95.2044 80.1713 95.385 80.3463 95.4747 80.5628C95.5644 80.7793 95.5411 81.0259 95.4019 81.3013C95.2642 81.5741 95.0544 81.7335 94.7683 81.7881C94.626 81.8141 94.4712 81.8092 94.3042 81.7736C93.9657 81.7038 93.6247 81.8949 93.4686 82.2037L93.4617 82.2176C93.2437 82.6629 93.5007 83.2118 93.9869 83.2932C94.2837 83.3419 94.5695 83.3361 94.85 83.2718C95.3551 83.1568 95.7843 82.8741 96.1348 82.4226L96.6773 82.6967C96.8164 82.7669 96.9712 82.7786 97.1107 82.7375C97.1177 82.7375 97.126 82.7348 97.1344 82.7321C97.2811 82.6839 97.4069 82.5798 97.4813 82.4323C97.5559 82.2848 97.5649 82.1218 97.5167 81.9752C97.4685 81.8286 97.3645 81.7027 97.2171 81.6282L96.6912 81.3625C96.872 80.8112 96.8839 80.2968 96.7283 79.8235C96.5562 79.3001 96.201 78.904 95.6584 78.63C95.0768 78.3361 94.5362 78.2795 94.0405 78.4657C93.5462 78.649 92.9855 79.0328 92.3627 79.6158C92.0367 79.9085 91.7542 80.0872 91.5142 80.1546C91.2741 80.2219 91.0247 80.1902 90.7632 80.0579C90.4989 79.9244 90.3268 79.7397 90.2497 79.5052C90.1739 79.2678 90.2085 79.0058 90.3576 78.711C90.5122 78.4049 90.7333 78.2023 91.0209 78.0961C91.1829 78.0383 91.3683 78.0306 91.5759 78.0762C91.9073 78.1458 92.2386 77.9604 92.3904 77.6598L92.3975 77.646C92.6295 77.166 92.3223 76.6057 91.797 76.5323C91.4709 76.4864 91.1655 76.5171 90.8737 76.6247C90.332 76.826 89.8759 77.1962 89.5181 77.7386L89.0924 77.5234C89.0062 77.4799 88.9129 77.4571 88.8194 77.4625C88.7651 77.4595 88.7121 77.4674 88.659 77.4826C88.652 77.4826 88.6437 77.4854 88.6353 77.4882C88.4887 77.5362 88.3628 77.6404 88.2883 77.7878C88.2335 77.8963 88.2149 78.0161 88.2255 78.1263C88.2324 78.1682 88.2405 78.2073 88.2529 78.245C88.3011 78.3915 88.4053 78.5174 88.5526 78.5919L89.0117 78.8239C88.852 79.3474 88.843 79.8284 88.9777 80.2737C89.1416 80.7859 89.5024 81.1848 90.0616 81.4672C90.6376 81.7583 91.1685 81.8135 91.6628 81.6302Z" fill="#E6C10C"/>
<path d="M129.916 62.9544C128.909 66.2425 125.427 68.0917 122.139 67.0844C118.851 66.0772 117.002 62.5952 118.009 59.3071C119.016 56.019 122.498 54.1698 125.786 55.1771C129.075 56.1843 130.924 59.6663 129.916 62.9544Z" fill="white"/>
<path d="M129.916 62.9544C128.909 66.2425 125.427 68.0917 122.139 67.0844C118.851 66.0772 117.002 62.5952 118.009 59.3071C119.016 56.019 122.498 54.1698 125.786 55.1771C129.075 56.1843 130.924 59.6663 129.916 62.9544Z" stroke="#324149" stroke-width="0.587101" stroke-linecap="round" stroke-linejoin="round"/>
<path d="M125.489 62.5077C125.355 62.0525 125.049 61.5149 124.573 60.8989C124.318 60.5693 124.166 60.2982 124.122 60.0843C124.079 59.8743 124.122 59.659 124.252 59.4402C124.389 59.2092 124.559 59.0566 124.761 58.9888C124.962 58.9211 125.184 58.9576 125.425 59.1009C125.663 59.2427 125.795 59.4426 125.826 59.7051C125.841 59.8356 125.827 59.9754 125.784 60.1246C125.7 60.4268 125.851 60.7475 126.121 60.9081L126.134 60.9153C126.523 61.1405 127.036 60.942 127.14 60.5068C127.203 60.2411 127.216 59.9819 127.175 59.7237C127.102 59.2591 126.873 58.8528 126.486 58.5072L126.768 58.033C126.841 57.9114 126.861 57.772 126.832 57.6431C126.833 57.6366 126.831 57.629 126.829 57.6211C126.794 57.4853 126.708 57.365 126.579 57.2882C126.45 57.2115 126.303 57.1932 126.167 57.2276C126.031 57.2621 125.911 57.3485 125.834 57.4774L125.561 57.9371C125.073 57.7389 124.608 57.696 124.169 57.8074C123.685 57.9305 123.304 58.2275 123.022 58.7017C122.719 59.2101 122.634 59.6963 122.772 60.1568C122.907 60.6159 123.219 61.1477 123.709 61.7481C123.953 62.0616 124.098 62.3286 124.144 62.5502C124.19 62.7719 124.145 62.9957 124.009 63.2243C123.872 63.4554 123.694 63.5997 123.476 63.655C123.257 63.7087 123.022 63.661 122.764 63.5076C122.496 63.3485 122.327 63.1355 122.248 62.8684C122.206 62.7182 122.211 62.5497 122.265 62.3645C122.349 62.0687 122.202 61.7571 121.939 61.6009L121.927 61.5936C121.506 61.3536 120.98 61.5968 120.881 62.0679C120.819 62.3603 120.827 62.6388 120.907 62.9099C121.055 63.4131 121.362 63.8492 121.831 64.2071L121.609 64.5792C121.564 64.6546 121.538 64.7377 121.537 64.8227C121.531 64.8717 121.535 64.9201 121.545 64.9692C121.545 64.9755 121.547 64.9833 121.549 64.991C121.583 65.1267 121.67 65.2472 121.799 65.3239C121.893 65.3804 122.001 65.4047 122.101 65.402C122.14 65.3984 122.176 65.3934 122.21 65.3846C122.346 65.3501 122.467 65.2637 122.543 65.1348L122.782 64.7335C123.246 64.9108 123.681 64.949 124.093 64.8548C124.567 64.7384 124.951 64.4366 125.242 63.9477C125.541 63.4443 125.624 62.9669 125.489 62.5077Z" fill="#E6C10C"/>
<path d="M100.6 67.3474C98.218 65.7525 97.58 62.5287 99.1751 60.1467C100.77 57.7649 103.994 57.127 106.376 58.7219C108.758 60.3169 109.395 63.5408 107.8 65.9226C106.206 68.3045 102.982 68.9423 100.6 67.3474Z" fill="white"/>
<path d="M100.6 67.3474C98.218 65.7525 97.58 62.5287 99.1751 60.1467C100.77 57.7649 103.994 57.127 106.376 58.7219C108.758 60.3169 109.395 63.5408 107.8 65.9226C106.206 68.3045 102.982 68.9423 100.6 67.3474Z" stroke="#324149" stroke-width="0.587101" stroke-linecap="round" stroke-linejoin="round"/>
<path d="M102.035 63.9142C102.431 63.9166 102.934 63.8019 103.54 63.5698C103.864 63.4455 104.117 63.3899 104.298 63.4062C104.476 63.4225 104.638 63.508 104.781 63.6646C104.932 63.8299 105.013 64.0021 105.019 64.1793C105.024 64.3566 104.942 64.5249 104.77 64.6827C104.599 64.8388 104.408 64.8954 104.191 64.8575C104.083 64.8377 103.975 64.7929 103.866 64.7229C103.645 64.5829 103.353 64.6269 103.16 64.8036L103.151 64.8116C102.878 65.0683 102.913 65.5257 103.235 65.7136C103.432 65.8275 103.636 65.8999 103.852 65.9294C104.24 65.9832 104.619 65.8981 104.988 65.6724L105.299 66.0116C105.378 66.0987 105.485 66.1483 105.595 66.1565C105.6 66.1584 105.606 66.1587 105.613 66.1591C105.73 66.1643 105.847 66.1242 105.939 66.0398C106.031 65.9555 106.081 65.8425 106.086 65.7258C106.091 65.6091 106.051 65.4922 105.967 65.3999L105.666 65.0711C105.941 64.7292 106.088 64.3684 106.104 63.9918C106.122 63.5752 105.977 63.1997 105.666 62.8605C105.333 62.4968 104.966 62.312 104.565 62.3111C104.166 62.3084 103.667 62.43 103.07 62.6759C102.761 62.7958 102.513 62.8467 102.325 62.83C102.137 62.8134 101.969 62.7242 101.819 62.5606C101.668 62.3954 101.596 62.2185 101.604 62.0318C101.614 61.8437 101.709 61.6675 101.893 61.4986C102.084 61.3234 102.295 61.2392 102.527 61.241C102.657 61.2434 102.791 61.2877 102.925 61.3756C103.141 61.5136 103.425 61.471 103.613 61.299L103.622 61.291C103.915 61.0134 103.847 60.5346 103.495 60.3421C103.277 60.2222 103.052 60.1621 102.817 60.1602C102.38 60.1577 101.958 60.2976 101.559 60.5856L101.316 60.3194C101.266 60.2655 101.206 60.2245 101.139 60.2031C101.101 60.1864 101.061 60.1779 101.02 60.1745C101.015 60.1725 101.008 60.1723 101.001 60.172C100.885 60.1669 100.768 60.2068 100.676 60.2912C100.608 60.3533 100.563 60.4332 100.541 60.514C100.534 60.5454 100.529 60.5753 100.528 60.6054C100.523 60.7219 100.563 60.839 100.647 60.9311L100.91 61.2182C100.657 61.546 100.522 61.884 100.498 62.2352C100.477 62.6416 100.625 63.0206 100.946 63.3702C101.275 63.7304 101.636 63.9117 102.035 63.9142Z" fill="#E6C10C"/>
<path d="M145.543 134.494C145.331 134.409 145.104 134.352 144.871 134.319C144.389 134.249 143.879 134.278 143.419 134.357C142.533 134.507 141.669 134.807 140.852 135.222C141.226 133.986 141.548 132.732 141.831 131.473C141.964 130.885 142.526 128.686 142.867 126.432C143.331 123.385 143.394 120.238 141.457 120.845C140.273 121.217 139.24 122.928 138.719 123.973C137.817 125.782 137.171 127.727 136.624 129.67C135.882 132.305 135.337 134.996 134.993 137.711C134.872 136.213 134.599 134.538 134.1 132.972C133.333 130.558 132.031 128.404 129.927 127.561C125.745 125.884 126.296 131.87 127.307 134.026C127.4 134.223 127.496 134.419 127.596 134.611C126.924 134.18 126.188 133.858 125.399 133.801C124.728 133.754 124.037 133.948 123.521 134.325C121.533 135.781 123.399 137.949 124.735 139.061C125.964 140.085 127.287 140.987 128.624 141.868H141.185C142.509 140.813 143.737 139.633 144.859 138.368C145.66 137.461 147.408 135.242 145.543 134.494Z" stroke="#324149" stroke-width="0.587101" stroke-linecap="round" stroke-linejoin="round"/>
<path d="M143.187 140.945L139.681 154.827H130.065L126.559 140.945" fill="#1E0E36"/>
<path d="M74.0221 131.3L74.0227 131.31L74.0227 131.31L74.0227 131.31L74.0227 131.311L74.0229 131.314L74.0233 131.326C74.0236 131.337 74.0238 131.354 74.0235 131.376C74.0228 131.42 74.0201 131.485 74.0116 131.567C73.9946 131.731 73.9546 131.963 73.8626 132.236C73.6788 132.781 73.2868 133.487 72.4523 134.125C71.9592 134.502 71.2662 135.249 70.5065 136.151C69.7457 137.055 68.9146 138.12 68.145 139.138C67.3752 140.156 66.6665 141.127 66.1502 141.844C65.8921 142.202 65.682 142.497 65.5365 142.702C65.4638 142.805 65.4071 142.885 65.3687 142.94L65.3249 143.002L65.319 143.01L65.2982 143.019C65.2753 143.028 65.2418 143.041 65.1997 143.057C65.1155 143.087 64.9973 143.126 64.8615 143.159C64.5875 143.225 64.2514 143.263 63.9773 143.169C63.8418 143.122 63.722 143.043 63.6312 142.919C63.5402 142.794 63.4756 142.62 63.4571 142.378C63.4198 141.893 63.5688 141.147 64.0446 140.019C65.4005 136.805 67.0142 133.28 68.7846 129.948C69.2753 129.025 69.6266 127.72 69.8972 126.249C70.168 124.777 70.3588 123.133 70.5264 121.529C70.5677 121.135 70.6076 120.742 70.6468 120.356C70.7672 119.17 70.8823 118.038 71.0164 117.046C71.1947 115.728 71.4055 114.669 71.7027 114.07C71.847 113.779 72.0565 113.613 72.313 113.541C72.5719 113.468 72.8838 113.489 73.2325 113.584C73.9302 113.775 74.7539 114.256 75.5452 114.818C76.3353 115.378 77.0884 116.015 77.6442 116.513C77.922 116.761 78.1504 116.974 78.3092 117.126C78.3887 117.201 78.4507 117.261 78.4929 117.302L78.5329 117.342L74.0253 131.29L74.0221 131.3Z" fill="#E6C10C" stroke="#1E0E36" stroke-width="0.11128"/>
<path d="M62.5958 141.624L66.6424 141.49L66.7409 142.283C66.7409 142.283 66.7409 142.283 66.7409 142.283C66.8092 142.514 66.9264 142.711 67.1019 142.877L67.1019 142.877C67.3513 143.113 67.596 143.254 67.8423 143.385C67.8749 143.402 67.9075 143.419 67.9401 143.436C68.1543 143.549 68.3696 143.662 68.5956 143.833C69.008 144.144 69.308 144.685 69.4633 145.265C69.6152 145.833 69.6264 146.43 69.4747 146.876L67.6414 146.859C67.6413 146.859 67.6413 146.859 67.6412 146.859C66.9506 146.85 66.46 146.696 66.085 146.419C65.7094 146.141 65.445 145.735 65.2135 145.212L65.2027 145.188L65.176 145.187C64.6606 145.163 64.2024 145.512 64.0872 146.014L63.9045 146.813L62.5865 146.802L62.5958 141.624ZM68.6217 143.798C69.467 144.437 69.8374 146.001 69.5053 146.919L67.1317 142.846C67.409 143.108 67.6807 143.251 67.9599 143.398C68.1741 143.51 68.3927 143.625 68.6217 143.798Z" fill="#1E0E36" stroke="#1E0E36" stroke-width="0.0864741"/>
<path d="M79.6879 128.734L79.6928 128.743L79.6929 128.743L79.6929 128.743L79.6932 128.744L79.6945 128.747L79.7 128.758C79.7048 128.768 79.7119 128.783 79.7207 128.803C79.7382 128.843 79.7625 128.903 79.7885 128.982C79.8407 129.138 79.9003 129.367 79.9289 129.653C79.9863 130.225 79.9204 131.03 79.4235 131.956C79.1299 132.503 78.8064 133.468 78.4867 134.604C78.1666 135.741 77.8488 137.054 77.5675 138.299C77.2862 139.544 77.0412 140.721 76.8666 141.587C76.7792 142.02 76.7095 142.375 76.6616 142.622C76.6376 142.745 76.6191 142.842 76.6066 142.907L76.5924 142.982L76.5905 142.992L76.5751 143.008C76.5581 143.026 76.533 143.052 76.501 143.084C76.4369 143.146 76.3453 143.23 76.235 143.316C76.0126 143.489 75.7223 143.663 75.4337 143.69C75.291 143.703 75.1493 143.681 75.0152 143.605C74.8808 143.529 74.7501 143.397 74.6336 143.184C74.3996 142.758 74.2275 142.017 74.1957 140.793C74.1051 137.306 74.121 133.429 74.3595 129.664C74.4255 128.62 74.2073 127.287 73.847 125.835C73.4864 124.382 72.9822 122.806 72.4734 121.276C72.3481 120.899 72.2226 120.525 72.0988 120.157C71.7196 119.028 71.3572 117.948 71.0703 116.989C70.6891 115.715 70.4444 114.664 70.4678 113.995C70.4792 113.671 70.6016 113.433 70.8054 113.261C71.0111 113.088 71.3041 112.979 71.661 112.922C72.3753 112.808 73.3242 112.906 74.2767 113.092C75.2278 113.276 76.1765 113.546 76.8879 113.77C77.2435 113.881 77.5395 113.982 77.7466 114.054C77.8501 114.09 77.9314 114.119 77.9868 114.139L78.0395 114.158L79.6868 128.724L79.6879 128.734Z" fill="#E6C10C" stroke="#1E0E36" stroke-width="0.11128"/>
<path d="M73.7425 141.941L77.7908 141.878L77.8755 142.672C77.8755 142.672 77.8755 142.672 77.8755 142.672C77.9397 142.904 78.0534 143.103 78.2261 143.273L78.2261 143.273C78.4713 143.513 78.7135 143.658 78.9575 143.793C78.9897 143.811 79.022 143.829 79.0543 143.846C79.2665 143.962 79.4799 144.079 79.7029 144.254C80.1098 144.573 80.4003 145.119 80.5454 145.701C80.6874 146.272 80.6881 146.869 80.5287 147.312L78.6959 147.264C78.6959 147.264 78.6958 147.264 78.6958 147.264C78.0054 147.242 77.5176 147.08 77.1475 146.796C76.7768 146.512 76.5195 146.101 76.2972 145.574L76.2868 145.55L76.2601 145.548C75.7452 145.516 75.281 145.856 75.1571 146.357L74.9604 147.152L73.6428 147.118L73.7425 141.941ZM79.7295 144.22C80.5636 144.874 80.9066 146.443 80.5585 147.356L78.2564 143.242C78.5291 143.509 78.7982 143.657 79.0748 143.808C79.287 143.924 79.5036 144.043 79.7295 144.22Z" fill="#1E0E36" stroke="#1E0E36" stroke-width="0.0864741"/>
<path d="M74.2397 121.061C74.2397 121.061 70.4293 119.149 69.5219 117.964C68.5096 116.643 67.6237 114.2 68.3148 112.253C69.6255 108.562 77.8994 112.123 77.8994 112.123L74.2397 121.061Z" fill="#E6C10C"/>
<path d="M76.543 98.317L76.543 98.3171C78.7156 99.4726 79.5625 102.182 78.4644 104.385L78.516 104.411L78.4644 104.385C78.3952 104.524 78.3373 104.654 78.2988 104.764C78.2612 104.872 78.2384 104.971 78.2488 105.044L78.3059 105.036L78.2488 105.044C78.4329 106.335 79.1884 108.859 79.8959 111.055C80.25 112.154 80.5927 113.173 80.8468 113.918C80.9738 114.29 81.0787 114.593 81.1519 114.803C81.1885 114.909 81.2171 114.99 81.2366 115.046L81.2571 115.104C80.4524 116.329 78.8256 116.816 76.533 116.733C74.2287 116.649 71.272 115.991 67.8542 114.955C67.8293 114.948 67.7996 114.925 67.7672 114.878C67.7354 114.832 67.7051 114.769 67.6767 114.691C67.62 114.536 67.5745 114.334 67.5383 114.123C67.4807 113.788 67.4479 113.441 67.4294 113.245C67.4247 113.195 67.4209 113.155 67.4179 113.127L67.3606 113.134L67.4179 113.127C67.2681 111.765 67.7348 110.422 68.3347 109.206L68.3347 109.206C68.6536 108.559 69.0255 107.939 69.4242 107.337L69.4242 107.337C69.4486 107.3 69.5319 107.192 69.6456 107.045C69.6596 107.027 69.674 107.009 69.6888 106.99C69.7929 106.856 69.9151 106.698 70.0336 106.543C70.1688 106.365 70.2999 106.189 70.3943 106.051C70.4414 105.982 70.4802 105.922 70.5059 105.875C70.5186 105.852 70.5293 105.83 70.5359 105.811C70.5392 105.802 70.5422 105.791 70.5435 105.78C70.5446 105.77 70.5452 105.752 70.5352 105.734L70.5353 105.734L70.5342 105.732C70.2113 105.194 69.9365 104.634 69.7254 104.043L69.7254 104.043C69.3834 103.086 69.1924 102.048 69.352 101.042L69.2951 101.033L69.352 101.042C69.5756 99.6325 70.6337 98.2793 71.9872 97.801L71.9872 97.801C72.0066 97.7941 72.0459 97.7854 72.1004 97.7737C72.1043 97.7729 72.1082 97.772 72.1121 97.7712C72.162 97.7605 72.2201 97.7481 72.2763 97.7337C72.3366 97.7183 72.3978 97.6999 72.4465 97.6774C72.4708 97.6663 72.4943 97.653 72.5136 97.637C72.5324 97.6213 72.5519 97.5989 72.5589 97.5686L72.559 97.5683L72.724 96.8234L72.8363 96.3166L72.8732 96.1499L72.8761 96.1371L76.3498 96.5145L76.3525 98.1839L76.3526 98.2196L76.3845 98.2354C76.4378 98.262 76.4907 98.2892 76.543 98.317Z" fill="#1E0E36" stroke="#1E0E36" stroke-width="0.115299"/>
<path d="M76.5475 98.317L76.5476 98.3171C78.7202 99.4726 79.5669 102.182 78.4688 104.385C78.3996 104.524 78.3417 104.654 78.3032 104.764C78.2656 104.872 78.2428 104.971 78.2533 105.044L78.3104 105.036L78.2533 105.044C78.3458 105.693 78.6404 106.63 79.0278 107.666C79.4156 108.704 79.8981 109.846 80.3689 110.907C80.8397 111.968 81.299 112.948 81.6407 113.664C81.8115 114.022 81.9529 114.313 82.0516 114.515C82.1009 114.616 82.1396 114.695 82.1659 114.748L82.1917 114.8C81.381 116.027 79.4678 116.753 76.7042 116.791C73.9248 116.828 70.303 116.167 66.1285 114.635C66.0626 114.611 66.0166 114.576 65.9844 114.535C65.952 114.493 65.9313 114.441 65.921 114.379C65.9 114.253 65.9229 114.093 65.9667 113.917C65.9969 113.795 66.0356 113.67 66.0739 113.547C66.0911 113.492 66.1083 113.436 66.1245 113.382C66.1759 113.21 66.2189 113.042 66.2182 112.908L66.1605 112.908L66.2182 112.908C66.2039 110.479 67.1855 107.879 69.2891 106.532C69.3157 106.515 69.407 106.468 69.534 106.403L69.5576 106.39C69.6782 106.328 69.8237 106.253 69.9646 106.178C70.1145 106.098 70.2605 106.017 70.3662 105.95C70.4186 105.916 70.4634 105.885 70.4939 105.858C70.5088 105.845 70.5235 105.831 70.5336 105.815C70.5416 105.803 70.56 105.768 70.5386 105.733L70.5386 105.733C70.2157 105.194 69.9411 104.634 69.7299 104.043L69.7299 104.043C69.3879 103.086 69.1969 102.048 69.3565 101.042L69.2995 101.033L69.3565 101.042C69.5801 99.6325 70.6381 98.2793 71.9916 97.801L71.9916 97.801C72.0111 97.7941 72.0503 97.7854 72.1049 97.7737L72.1166 97.7712C72.1664 97.7605 72.2245 97.7481 72.2808 97.7337C72.341 97.7183 72.4022 97.6999 72.4509 97.6774C72.4752 97.6663 72.4988 97.653 72.518 97.637C72.5369 97.6213 72.5563 97.5989 72.5633 97.5686L72.5634 97.5683L72.7285 96.8234L72.8407 96.3166L72.8777 96.1499L72.8805 96.1371L76.3544 96.5145L76.357 98.1839L76.357 98.2196L76.3889 98.2354C76.4422 98.262 76.4953 98.2892 76.5475 98.317Z" fill="#1E0E36" stroke="#1E0E36" stroke-width="0.115299"/>
<path d="M71.8155 91.2481C71.8155 89.5551 73.188 88.1826 74.881 88.1826C76.5741 88.1826 77.9464 89.5551 77.9464 91.2481C77.9464 92.9411 76.5741 94.3135 74.881 94.3135C73.188 94.3135 71.8155 92.9411 71.8155 91.2481Z" fill="white" stroke="#1E0E36" stroke-width="0.115299"/>
<path d="M74.881 88.125C73.1562 88.125 71.7578 89.5232 71.7578 91.2481C71.7578 92.973 73.1562 94.3712 74.881 94.3712C76.6059 94.3712 78.004 92.973 78.004 91.2481C78.004 89.5232 76.6059 88.125 74.881 88.125Z" stroke="#1E0E36" stroke-width="0.587101" stroke-linecap="round" stroke-linejoin="round"/>
<path d="M71.964 92.3863C71.0724 92.3863 70.3477 91.6975 70.3477 90.8059C70.3477 89.9143 71.0705 89.1914 71.9622 89.1914C72.8538 89.1914 73.6247 89.7968 73.6247 90.6884" stroke="#1E0E36" stroke-width="0.587101" stroke-linecap="round" stroke-linejoin="round"/>
<path d="M71.4638 89.219L71.3821 89.1304C72.4456 88.4471 73.378 87.4247 73.5582 86.165C73.5678 86.1675 73.5784 86.1703 73.59 86.1734C73.6492 86.1894 73.7329 86.2139 73.8306 86.2477C74.0265 86.3155 74.2765 86.4201 74.4978 86.5675C74.7197 86.7155 74.9067 86.9026 74.9865 87.1335C75.0651 87.3612 75.0431 87.6426 74.8248 87.9896C74.3871 88.6849 73.549 88.9947 72.8069 89.1285C72.4374 89.1951 72.0956 89.2174 71.846 89.223C71.7213 89.2258 71.6197 89.2245 71.5495 89.2224C71.5145 89.2214 71.4872 89.2202 71.4688 89.2193L71.4638 89.219Z" fill="#E6C10C" stroke="#1E0E36" stroke-width="0.115299"/>
<path d="M70.3094 84.475L70.3093 84.475C70.2684 84.4812 69.968 84.5336 69.6824 84.5966C69.5394 84.6281 69.4019 84.6619 69.3029 84.6934C69.2528 84.7093 69.2156 84.7237 69.1928 84.7359C69.1819 84.7417 69.1778 84.7452 69.1774 84.7456C69.1773 84.7456 69.1773 84.7456 69.1773 84.7456C69.1776 84.7453 69.1809 84.7418 69.1833 84.7349C69.1861 84.7269 69.1868 84.7164 69.1831 84.7058L69.0746 84.745L69.1288 84.7253L69.0746 84.745L69.0746 84.7449L69.0746 84.7449L69.0745 84.7448L69.0745 84.7446L69.074 84.7433L69.0722 84.7384L69.0654 84.7198L69.0404 84.6516C69.0193 84.5945 68.9903 84.5164 68.9587 84.4328L70.3094 84.475ZM70.3094 84.475C70.7576 84.4077 71.2037 84.3434 71.6362 84.4114C71.7675 84.4321 71.8973 84.4649 72.0253 84.5134C72.4921 84.6908 72.8922 85.0385 73.1371 85.4655C73.5483 86.1826 73.54 87.0707 73.2335 87.8524C72.9269 88.6341 72.3251 89.3009 71.561 89.5777L71.5806 89.632L71.561 89.5778C70.1526 90.0881 68.7145 89.2863 68.1352 87.9584C68.1126 87.9065 67.9992 87.5945 67.8996 87.2907C67.8499 87.1391 67.8041 86.9914 67.7752 86.8806C67.7606 86.8248 67.7508 86.7803 67.7466 86.75C67.7444 86.7343 67.7442 86.7257 67.7445 86.7224C67.7446 86.7205 67.7447 86.7238 67.7422 86.7294C67.7397 86.7352 67.7315 86.7495 67.7125 86.7557M70.3094 84.475L67.7125 86.7557M67.7125 86.7557L67.6766 86.6461C67.6765 86.6462 67.6765 86.6462 67.6765 86.6462M67.7125 86.7557L67.6765 86.6462M67.6765 86.6462C67.4205 86.7302 67.1112 86.7955 66.8028 86.8116C66.4938 86.8277 66.1898 86.7942 65.9415 86.6842L65.9415 86.6842C65.6671 86.5627 65.4314 86.2593 65.2959 85.9069C65.1604 85.5545 65.1316 85.1699 65.251 84.8941M67.6765 86.6462L65.251 84.8941M65.251 84.8941C65.251 84.8941 65.2511 84.8941 65.2511 84.8941L65.1982 84.8711M65.251 84.8941L65.1982 84.8711M65.1982 84.8711L65.1453 84.8482C65.1302 84.883 65.1172 84.9191 65.1063 84.9563L65.1982 84.8711ZM64.0289 82.3324C64.2915 82.2629 64.698 82.2299 65.0774 82.2835C65.46 82.3375 65.7952 82.4766 65.9413 82.7328C65.9546 82.7561 65.9816 82.826 66.0125 82.9248C66.0428 83.0213 66.0751 83.1398 66.1001 83.2564C66.1253 83.3737 66.1423 83.4861 66.1431 83.5715C66.1435 83.6146 66.1398 83.6469 66.1331 83.6684C66.1273 83.6869 66.1219 83.6901 66.1218 83.6901C66.1218 83.6901 66.122 83.6899 66.1225 83.6898L66.1628 83.7978C66.1628 83.7978 66.1628 83.7978 66.1629 83.7978L63.5543 84.172L63.5543 84.172C63.3157 83.9348 63.1244 83.6499 63.1321 83.3182L63.1321 83.3181C63.1428 82.8509 63.5597 82.4566 64.0289 82.3324ZM64.0289 82.3324L64.0141 82.2767L64.0289 82.3324ZM66.1629 83.7977C66.1808 83.7911 66.199 83.7843 66.2176 83.7773C66.423 83.7007 66.6708 83.6081 66.9215 83.5329C67.1958 83.4506 67.4682 83.3908 67.6881 83.3936C68.1329 83.3992 68.593 83.6046 68.7797 83.9906L66.1629 83.7977Z" fill="#324149" stroke="#1E0E36" stroke-width="0.115299"/>
<path d="M72.2406 86.5699C72.2377 86.5663 72.2349 86.5629 72.2322 86.5595C72.222 86.5468 72.2123 86.5336 72.2048 86.521C71.2977 87.7656 72.1737 89.6117 73.1456 90.5555C74.3545 91.7295 76.9839 92.5914 78.3479 91.2125C78.9519 90.6019 79.2579 89.5536 78.7055 88.8177C78.2538 88.2159 77.4472 87.9234 76.73 87.8048C76.3372 87.7399 75.9341 87.7137 75.5304 87.6874C74.7553 87.637 73.9779 87.5865 73.2663 87.2612C72.9953 87.1373 72.7435 86.9741 72.5223 86.7741C72.5074 86.7606 72.3446 86.6088 72.2759 86.5219C72.2638 86.5378 72.2521 86.5538 72.2406 86.5699ZM72.2406 86.5699C71.8186 87.1608 71.8039 87.8924 72.0157 88.6011C72.2358 89.3381 72.6988 90.0412 73.1858 90.5142C73.7818 91.0929 74.731 91.5969 75.6996 91.7847C76.6685 91.9726 77.6438 91.8423 78.3069 91.172C78.6013 90.8743 78.8231 90.4698 78.9038 90.0512C78.9844 89.6332 78.9239 89.2046 78.6594 88.8524L78.6594 88.8524C78.2212 88.2685 77.433 87.9795 76.7206 87.8617L76.7206 87.8617C76.3306 87.7972 75.9324 87.7714 75.5302 87.7452C75.3438 87.7331 75.1565 87.7209 74.9689 87.7048C74.3797 87.6543 73.7926 87.5652 73.2424 87.3136L73.2424 87.3136C72.9662 87.1874 72.7094 87.021 72.4836 86.8168L72.4836 86.8168C72.473 86.8072 72.3973 86.7367 72.327 86.6645C72.2958 86.6324 72.2647 86.599 72.2406 86.5699Z" fill="#324149" stroke="#1E0E36" stroke-width="0.115299"/>
<path d="M73.1454 100.305C67.6543 103.887 64.1991 108.794 63.1328 115.254" stroke="#1E0E36" stroke-width="5.55821" stroke-linecap="round" stroke-linejoin="round"/>
<path d="M73.1454 100.305C67.6543 103.887 64.1991 108.794 63.1328 115.254" stroke="#1E0E36" stroke-width="5.55821" stroke-linecap="round" stroke-linejoin="round"/>
<path d="M59.5568 119.172C59.2516 120.852 58.7578 123.945 60.207 124.014C60.7121 124.037 61.1409 123.647 61.1648 123.142L61.2413 121.527C61.2753 121.542 61.3093 121.557 61.344 121.57L61.2311 123.961C61.2071 124.466 61.597 124.895 62.1021 124.919C62.6071 124.943 63.0361 124.553 63.06 124.048L63.1738 121.643C63.1957 121.636 63.2181 121.629 63.2399 121.622C63.2399 121.622 63.1983 122.499 63.1982 122.5C63.1752 122.987 63.6123 123.45 64.1007 123.466C64.799 123.487 64.9903 122.812 65.078 122.256C65.1851 121.579 65.3894 120.609 65.5458 119.551" stroke="#1E0E36" stroke-width="0.587101" stroke-linecap="round" stroke-linejoin="round"/>
<path d="M72.053 104.645C70.3399 106.183 68.8763 108 67.7739 110.023C66.9972 111.449 66.4012 112.976 66.1133 114.577" stroke="#1E0E36" stroke-width="0.587101" stroke-linecap="round" stroke-linejoin="round"/>
<path d="M87.091 113.418C88.7914 113.259 91.9026 112.9 91.5777 111.486C91.4646 110.993 90.9732 110.685 90.4804 110.798L88.9043 111.161C88.9094 111.124 88.9144 111.087 88.9182 111.05L91.2507 110.514C91.7435 110.401 92.0512 109.909 91.938 109.417C91.8248 108.924 91.3335 108.616 90.8407 108.729L88.4944 109.268C88.4819 109.249 88.4697 109.229 88.4569 109.21C88.4569 109.21 89.3126 109.014 89.3136 109.014C89.7884 108.904 90.1169 108.358 89.9997 107.884C89.8321 107.206 89.1305 107.204 88.5716 107.269C87.8901 107.349 86.9011 107.414 85.8398 107.549" stroke="#1E0E36" stroke-width="0.587101" stroke-linecap="round" stroke-linejoin="round"/>
<path d="M74.6593 100.711C74.2034 101.223 73.809 101.785 73.4991 102.404C72.5864 104.227 72.5863 106.477 73.6831 108.222C75.7097 111.445 80.6669 111.723 84.0493 111.209" stroke="#1E0E36" stroke-width="5.55821" stroke-linecap="round" stroke-linejoin="round"/>
</g>
<path d="M200.465 22.0253H174.793C174.793 18.7584 177.44 16.1113 180.707 16.1113C181.043 16.1113 181.369 16.1384 181.688 16.1924C183.012 13.5414 185.752 11.7227 188.919 11.7227C190.819 11.7227 192.566 12.3791 193.945 13.4796C195.263 14.5261 196.248 15.9819 196.708 17.6541C198.834 17.9746 200.465 19.8087 200.465 22.0253Z" fill="#E6E6E6"/>
<path d="M90.5223 18.9539H44.9141C46.0694 16.5157 48.5542 14.8279 51.4316 14.8279C51.5248 14.8279 51.6157 14.8304 51.7064 14.8353C53.2396 12.6521 55.7734 11.2269 58.6435 11.2269C59.0261 11.2269 59.4038 11.2515 59.7718 11.303C61.5821 6.95638 65.8698 3.90234 70.8714 3.90234C75.8461 3.90234 80.1118 6.92202 81.9393 11.2295C81.9884 11.2269 82.0374 11.2269 82.0865 11.2269C86.5141 11.2269 90.147 14.6243 90.5223 18.9539Z" fill="#E6E6E6"/>
</g>
<defs>
<filter id="filter0_f_2371_159453" x="16.3707" y="144.933" width="179.392" height="19.1181" filterUnits="userSpaceOnUse" color-interpolation-filters="sRGB">
<feFlood flood-opacity="0" result="BackgroundImageFix"/>
<feBlend mode="normal" in="SourceGraphic" in2="BackgroundImageFix" result="shape"/>
<feGaussianBlur stdDeviation="2.35764" result="effect1_foregroundBlur_2371_159453"/>
</filter>
<linearGradient id="paint0_linear_2371_159453" x1="62.7651" y1="104.281" x2="29.1865" y2="100.591" gradientUnits="userSpaceOnUse">
<stop stop-color="#580DB7"/>
<stop offset="0.84375" stop-color="#AB69FF"/>
</linearGradient>
<linearGradient id="paint1_linear_2371_159453" x1="63.5275" y1="65.7575" x2="14.0083" y2="54.9693" gradientUnits="userSpaceOnUse">
<stop stop-color="#400789"/>
<stop offset="1" stop-color="#9E64E7"/>
</linearGradient>
<linearGradient id="paint2_linear_2371_159453" x1="113.957" y1="104.507" x2="107.719" y2="103.595" gradientUnits="userSpaceOnUse">
<stop stop-color="#7830D2"/>
<stop offset="1" stop-color="#BB86FF"/>
</linearGradient>
<linearGradient id="paint3_linear_2371_159453" x1="121.354" y1="120.402" x2="98.6415" y2="117.414" gradientUnits="userSpaceOnUse">
<stop stop-color="#7830D2"/>
<stop offset="1" stop-color="#BB86FF"/>
</linearGradient>
<linearGradient id="paint4_linear_2371_159453" x1="197.703" y1="69.3189" x2="149.477" y2="58.6538" gradientUnits="userSpaceOnUse">
<stop stop-color="#400789"/>
<stop offset="1" stop-color="#9E64E7"/>
</linearGradient>
<linearGradient id="paint5_linear_2371_159453" x1="166.603" y1="118.056" x2="160.477" y2="117.28" gradientUnits="userSpaceOnUse">
<stop stop-color="#400789"/>
<stop offset="1" stop-color="#9E64E7"/>
</linearGradient>
<linearGradient id="paint6_linear_2371_159453" x1="174.595" y1="119.692" x2="168.469" y2="118.917" gradientUnits="userSpaceOnUse">
<stop stop-color="#400789"/>
<stop offset="1" stop-color="#9E64E7"/>
</linearGradient>
<linearGradient id="paint7_linear_2371_159453" x1="157.173" y1="123.349" x2="151.047" y2="122.573" gradientUnits="userSpaceOnUse">
<stop stop-color="#400789"/>
<stop offset="1" stop-color="#9E64E7"/>
</linearGradient>
<linearGradient id="paint8_linear_2371_159453" x1="165.165" y1="124.997" x2="159.039" y2="124.222" gradientUnits="userSpaceOnUse">
<stop stop-color="#400789"/>
<stop offset="1" stop-color="#9E64E7"/>
</linearGradient>
<linearGradient id="paint9_linear_2371_159453" x1="155.731" y1="130.305" x2="149.605" y2="129.53" gradientUnits="userSpaceOnUse">
<stop stop-color="#400789"/>
<stop offset="1" stop-color="#9E64E7"/>
</linearGradient>
<linearGradient id="paint10_linear_2371_159453" x1="163.735" y1="131.954" x2="157.609" y2="131.179" gradientUnits="userSpaceOnUse">
<stop stop-color="#400789"/>
<stop offset="1" stop-color="#9E64E7"/>
</linearGradient>
<linearGradient id="paint11_linear_2371_159453" x1="171.712" y1="133.599" x2="165.586" y2="132.823" gradientUnits="userSpaceOnUse">
<stop stop-color="#400789"/>
<stop offset="1" stop-color="#9E64E7"/>
</linearGradient>
<linearGradient id="paint12_linear_2371_159453" x1="184.188" y1="102.637" x2="151.978" y2="99.0973" gradientUnits="userSpaceOnUse">
<stop stop-color="#580DB7"/>
<stop offset="0.84375" stop-color="#AB69FF"/>
</linearGradient>
<clipPath id="clip0_2371_159453">
<rect width="214.826" height="166.002" fill="white"/>
</clipPath>
<clipPath id="clip1_2371_159453">
<rect width="215" height="143" fill="white" transform="translate(0.136719 18)"/>
</clipPath>
</defs>
</svg>
