<svg width="215" height="166" viewBox="0 0 215 166" fill="none" xmlns="http://www.w3.org/2000/svg">
<g clip-path="url(#clip0_2371_159068)">
<path d="M186.44 54.599L186.519 54.7924V54.8033C187.025 56.1894 186.954 57.6535 186.422 58.9206C185.865 60.2491 184.794 61.3681 183.346 61.9603L183.153 62.0387H183.141C181.755 62.5438 180.291 62.475 179.025 61.9418C177.695 61.3843 176.576 60.3137 175.984 58.8652L175.906 58.6716V58.6609C175.4 57.2748 175.471 55.8108 176.003 54.5435C176.56 53.2143 177.632 52.0953 179.079 51.504L179.272 51.4255H179.284C180.67 50.9202 182.134 50.9893 183.4 51.5222C184.73 52.0799 185.849 53.1505 186.44 54.599ZM184.563 55.3254C184.182 54.4177 183.468 53.7433 182.618 53.387C181.758 53.026 180.763 52.9915 179.838 53.3686L179.806 53.3825C178.899 53.7626 178.224 54.4777 177.867 55.3262C177.506 56.1864 177.472 57.1818 177.85 58.1071L177.861 58.1356C178.241 59.0449 178.957 59.7207 179.808 60.0768C180.667 60.4381 181.662 60.4727 182.588 60.0955L182.616 60.0823C183.525 59.7031 184.2 58.9888 184.558 58.1378C184.919 57.2777 184.954 56.2825 184.576 55.3577L184.563 55.3254Z" fill="#F0E4FF"/>
<path d="M127.073 5.44274L127.152 5.63617V5.64703C127.658 7.03318 127.587 8.4972 127.055 9.76431C126.498 11.0929 125.427 12.2118 123.979 12.804L123.786 12.8825H123.773C122.388 13.3876 120.924 13.3187 119.658 12.7856C118.328 12.228 117.209 11.1574 116.617 9.70898L116.539 9.51535V9.5047C116.033 8.11854 116.103 6.65453 116.636 5.38721C117.193 4.05802 118.264 2.93906 119.711 2.34771L119.905 2.26924H119.916C121.303 1.76395 122.767 1.833 124.033 2.36595C125.363 2.92369 126.482 3.9943 127.073 5.44274ZM125.196 6.16912C124.815 5.2614 124.1 4.58708 123.251 4.23075C122.391 3.86972 121.396 3.83529 120.471 4.21231L120.439 4.22625C119.532 4.60634 118.857 5.32144 118.499 6.16994C118.139 7.03011 118.105 8.02552 118.482 8.95085L118.494 8.97933C118.874 9.88868 119.589 10.5644 120.44 10.9206C121.3 11.2818 122.295 11.3164 123.22 10.9392L123.249 10.9261C124.158 10.5468 124.833 9.83254 125.19 8.98159C125.552 8.12141 125.587 7.12621 125.209 6.20149L125.196 6.16912Z" fill="#F0E4FF"/>
<path d="M181.575 111.824C181.575 112.415 181.096 112.893 180.506 112.893C179.916 112.893 179.438 112.415 179.438 111.824V103.597C179.438 103.006 179.916 102.527 180.506 102.527C181.096 102.527 181.575 103.006 181.575 103.597V111.824ZM184.62 106.642C185.211 106.642 185.689 107.12 185.689 107.711C185.689 108.3 185.211 108.778 184.62 108.778H176.393C175.803 108.778 175.324 108.3 175.324 107.711C175.324 107.12 175.803 106.642 176.393 106.642H184.62Z" fill="#F0E4FF"/>
<path d="M32.2704 52.5733C32.2704 53.164 31.792 53.6425 31.2017 53.6425C30.6116 53.6425 30.1331 53.164 30.1331 52.5733V44.3457C30.1331 43.7558 30.6116 43.2773 31.2017 43.2773C31.792 43.2773 32.2704 43.7558 32.2704 44.3457V52.5733ZM35.3157 47.3913C35.9062 47.3913 36.3847 47.87 36.3847 48.4597C36.3847 49.0494 35.9062 49.5281 35.3157 49.5281H27.0879C26.498 49.5281 26.0195 49.0494 26.0195 48.4597C26.0195 47.87 26.498 47.3913 27.0879 47.3913H35.3157Z" fill="#F0E4FF"/>
<path d="M58.0009 13.1788C58.0009 13.7695 57.5225 14.2479 56.9322 14.2479C56.342 14.2479 55.8636 13.7695 55.8636 13.1788V4.95117C55.8636 4.36126 56.342 3.88281 56.9322 3.88281C57.5225 3.88281 58.0009 4.36126 58.0009 4.95117V13.1788ZM61.0462 7.99681C61.6367 7.99681 62.1151 8.47546 62.1151 9.06517C62.1151 9.65487 61.6367 10.1335 61.0462 10.1335H52.8184C52.2284 10.1335 51.75 9.65487 51.75 9.06517C51.75 8.47546 52.2284 7.99681 52.8184 7.99681H61.0462Z" fill="#F0E4FF"/>
<path d="M173.224 17.0772C173.224 17.6679 172.745 18.1464 172.155 18.1464C171.565 18.1464 171.086 17.6679 171.086 17.0772V8.8496C171.086 8.25969 171.565 7.78125 172.155 7.78125C172.745 7.78125 173.224 8.25969 173.224 8.8496V17.0772ZM176.269 11.8953C176.859 11.8953 177.338 12.3739 177.338 12.9636C177.338 13.5533 176.859 14.032 176.269 14.032H168.041C167.451 14.032 166.973 13.5533 166.973 12.9636C166.973 12.3739 167.451 11.8953 168.041 11.8953H176.269Z" fill="#F0E4FF"/>
<path d="M39.4712 109.52L39.5511 109.714V109.725C40.0566 111.112 39.9857 112.575 39.4544 113.842C38.896 115.171 37.8252 116.29 36.3778 116.882L36.1842 116.961H36.1727C34.7863 117.466 33.3225 117.396 32.0562 116.864C30.7266 116.306 29.6077 115.235 29.0155 113.787L28.9372 113.594V113.583C28.4313 112.196 28.5016 110.733 29.034 109.466C29.5917 108.136 30.6629 107.017 32.1097 106.426L32.3034 106.347H32.3148C33.702 105.842 35.165 105.912 36.4315 106.444C37.7615 107.001 38.8805 108.073 39.4712 109.52ZM37.5943 110.248C37.2134 109.34 36.4991 108.665 35.6496 108.309C34.7896 107.947 33.7948 107.913 32.8695 108.291L32.8379 108.304C31.93 108.684 31.2551 109.399 30.8988 110.249C30.5377 111.108 30.5033 112.103 30.8809 113.029L30.8926 113.058C31.2735 113.967 31.9878 114.643 32.8386 114.999C33.6981 115.36 34.6935 115.395 35.6189 115.017L35.648 115.005C36.5567 114.625 37.2316 113.91 37.5888 113.059C37.9504 112.199 37.9851 111.205 37.607 110.279L37.5943 110.248Z" fill="#F0E4FF"/>
<path d="M20.0332 87.1082C20.851 87.1082 21.5192 86.4406 21.5192 85.622C21.5192 84.8041 20.851 84.1367 20.0332 84.1367C19.2151 84.1367 18.5469 84.8041 18.5469 85.622C18.5469 86.4406 19.2151 87.1082 20.0332 87.1082Z" fill="#F0E4FF"/>
<path d="M24.4942 135.773C25.3121 135.773 25.9801 135.105 25.9801 134.286C25.9801 133.468 25.3121 132.801 24.4942 132.801C23.676 132.801 23.0078 133.468 23.0078 134.286C23.0078 135.105 23.676 135.773 24.4942 135.773Z" fill="#F0E4FF"/>
<path d="M53.4267 40.3504C54.2449 40.3504 54.9129 39.683 54.9129 38.8642C54.9129 38.0454 54.2449 37.3789 53.4267 37.3789C52.6088 37.3789 51.9414 38.0454 51.9414 38.8642C51.9414 39.683 52.6088 40.3504 53.4267 40.3504Z" fill="#F0E4FF"/>
<path d="M166.53 47.389C167.348 47.389 168.016 46.7213 168.016 45.9025C168.016 45.0843 167.348 44.418 166.53 44.418C165.712 44.418 165.043 45.0843 165.043 45.9025C165.043 46.7213 165.712 47.389 166.53 47.389Z" fill="#F0E4FF"/>
<path d="M194.779 87.9793C195.597 87.9793 196.265 87.3119 196.265 86.4933C196.265 85.6754 195.597 85.0078 194.779 85.0078C193.961 85.0078 193.293 85.6754 193.293 86.4933C193.293 87.3119 193.961 87.9793 194.779 87.9793Z" fill="#F0E4FF"/>
<path d="M184.018 134.788C184.835 134.788 185.504 134.12 185.504 133.302C185.504 132.484 184.835 131.816 184.018 131.816C183.2 131.816 182.531 132.484 182.531 133.302C182.531 134.12 183.2 134.788 184.018 134.788Z" fill="#F0E4FF"/>
<path d="M51.9414 69.7422H162.842C162.844 69.7422 162.846 69.743 162.846 69.7446V133.442C162.846 136.324 160.488 138.683 157.606 138.683H57.1813C54.299 138.683 51.9414 136.324 51.9414 133.442V69.7422Z" fill="#9951F4"/>
<path d="M107.395 69.7422H162.843C162.845 69.7422 162.846 69.7438 162.846 69.7455V133.442C162.846 136.324 160.489 138.683 157.606 138.683H112.635C109.752 138.683 107.395 136.324 107.395 133.442V69.7422Z" fill="#5D3393"/>
<path d="M51.9414 75.9347H107.393V69.7422H51.9414V75.9347Z" fill="#000581"/>
<path d="M162.846 75.9347H107.395V69.7422H162.846V75.9347Z" fill="#000581"/>
<path d="M74.1328 70.0391H85.2005V133.739C85.2005 136.621 87.5592 138.98 90.4405 138.98H79.3729C76.4906 138.98 74.1328 136.621 74.1328 133.739V70.0391Z" fill="#FFF6E8"/>
<path d="M74.1328 75.9308H85.2003V69.7383H74.1328V75.9308Z" fill="#D3E1F6"/>
<path d="M140.651 70.0391H129.584V133.739C129.584 136.621 127.226 138.98 124.344 138.98H135.411C138.294 138.98 140.651 136.621 140.651 133.739V70.0391Z" fill="#E4DDD2"/>
<path d="M129.59 75.9308H140.658V69.7383H129.59V75.9308Z" fill="#B3CAEA"/>
<path d="M49.5937 53.0781H165.218C167.436 53.0781 169.252 54.8938 169.252 57.1139V66.8268C169.252 69.0473 167.436 70.8627 165.218 70.8627H49.5937C47.374 70.8627 45.5586 69.0473 45.5586 66.8268V57.1139C45.5586 54.8938 47.374 53.0781 49.5937 53.0781Z" fill="#9951F4"/>
<path d="M107.399 53.0781H165.21C167.43 53.0781 169.245 54.8944 169.245 57.1139V66.8268C169.245 69.0473 167.43 70.8627 165.21 70.8627H107.399C105.18 70.8627 103.363 69.0473 103.363 66.8268V57.1139C103.363 54.8944 105.18 53.0781 107.399 53.0781Z" fill="#5D3393"/>
<path d="M74.1367 53.0781H85.2044C82.9847 53.0781 81.1693 54.8944 81.1693 57.1139V66.8268C81.1693 69.0473 82.9847 70.8627 85.2044 70.8627H74.1367C71.917 70.8627 70.1016 69.0473 70.1016 66.8268V57.1139C70.1016 54.8944 71.917 53.0781 74.1367 53.0781Z" fill="#FFF6E8"/>
<path d="M140.661 53.0781H129.594C131.813 53.0781 133.63 54.8944 133.63 57.1139V66.8268C133.63 69.0473 131.813 70.8627 129.594 70.8627H140.661C142.882 70.8627 144.697 69.0473 144.697 66.8268V57.1139C144.697 54.8944 142.882 53.0781 140.661 53.0781Z" fill="#E4DDD2"/>
<path d="M108.336 50.152C107.538 45.6253 105.588 41.5738 103.505 37.5472C100.921 32.2359 98.7135 26.7203 95.2448 21.8405C90.3114 14.8835 83.6708 8.36447 75.087 14.9597C71.7453 17.4975 69.9594 20.514 69.4034 23.6762C70.7587 23.4341 72.2773 23.6168 73.6605 23.9981C81.7739 26.4123 88.1324 33.6673 93.4807 39.8639C95.7281 42.4889 98.0617 44.823 100.419 47.2913C101.182 48.0909 102.542 49.5337 103.287 50.9607C104.771 50.9308 106.252 50.7939 107.718 50.5355L108.336 50.152Z" fill="#FFF6E8"/>
<path d="M93.4194 39.8498C88.0711 33.6532 81.7124 26.3983 73.5992 23.9839C72.216 23.6026 70.697 23.42 69.3419 23.6622C68.4874 28.5211 70.5637 33.7265 74.5767 38.0919C81.7102 45.7518 92.5732 51.1647 103.225 50.9467C102.48 49.5197 101.12 48.0767 100.357 47.2773C98 44.8088 95.6668 42.4748 93.4194 39.8498Z" fill="#E4DDD2"/>
<path d="M104.486 50.0473C105.676 45.6071 107.972 41.7423 110.398 37.9132C113.436 32.8484 116.117 27.5467 119.998 22.9883C125.522 16.489 132.706 10.5768 140.682 17.8959C143.788 20.7171 145.304 23.8779 145.581 27.0769C144.253 26.7173 142.725 26.7655 141.312 27.0261C133.019 28.7215 126.052 35.3924 120.182 41.0972C117.714 43.5157 115.187 45.6374 112.621 47.8905C111.793 48.6189 110.311 49.939 109.445 51.2945C107.969 51.1347 106.505 50.8686 105.068 50.4835L104.486 50.0473Z" fill="#FFF6E8"/>
<path d="M120.253 41.1617C126.123 35.4569 133.09 28.7861 141.383 27.0906C142.796 26.8299 144.324 26.7818 145.652 27.1414C146.08 32.0567 143.556 37.0612 139.178 41.0589C131.401 48.0658 120.108 52.5078 109.516 51.3591C110.382 50.0035 111.864 48.6835 112.692 47.955C115.258 45.702 117.785 43.5803 120.253 41.1617Z" fill="#E4DDD2"/>
<path d="M106.635 48.4453C102.209 48.4453 98.6211 50.6429 98.6211 53.3535H114.649C114.649 50.6429 111.061 48.4453 106.635 48.4453Z" fill="#FFF6E8"/>
<g filter="url(#filter0_f_2371_159068)">
<ellipse cx="109.466" cy="155.034" rx="65.0984" ry="5.96735" fill="#48128E" fill-opacity="0.6"/>
</g>
</g>
<defs>
<filter id="filter0_f_2371_159068" x="38.5577" y="143.257" width="141.814" height="23.5526" filterUnits="userSpaceOnUse" color-interpolation-filters="sRGB">
<feFlood flood-opacity="0" result="BackgroundImageFix"/>
<feBlend mode="normal" in="SourceGraphic" in2="BackgroundImageFix" result="shape"/>
<feGaussianBlur stdDeviation="2.90475" result="effect1_foregroundBlur_2371_159068"/>
</filter>
<clipPath id="clip0_2371_159068">
<rect width="214.826" height="166.002" fill="white"/>
</clipPath>
</defs>
</svg>
