<svg width="178" height="159" viewBox="0 0 178 159" fill="none" xmlns="http://www.w3.org/2000/svg">
<path d="M167.914 45.8534L167.993 46.0468V46.0577C168.499 47.444 168.429 48.9082 167.896 50.1755C167.339 51.5042 166.268 52.6233 164.82 53.2156L164.626 53.2941H164.614C163.229 53.7992 161.765 53.7304 160.498 53.1971C159.168 52.6395 158.049 51.5688 157.457 50.1201L157.379 49.9265V49.9158C156.873 48.5295 156.943 47.0653 157.476 45.7978C158.033 44.4685 159.105 43.3493 160.552 42.7579L160.745 42.6794H160.757C162.143 42.1741 163.607 42.2431 164.874 42.7762C166.204 43.334 167.323 44.4047 167.914 45.8534ZM166.037 46.5798C165.656 45.672 164.941 44.9976 164.092 44.6412C163.232 44.2801 162.236 44.2457 161.311 44.6228L161.28 44.6367C160.372 45.0168 159.697 45.732 159.34 46.5806C158.979 47.4409 158.945 48.4365 159.323 49.3619L159.334 49.3904C159.714 50.2999 160.43 50.9757 161.281 51.3319C162.14 51.6932 163.136 51.7278 164.061 51.3505L164.089 51.3374C164.999 50.9581 165.674 50.2437 166.031 49.3927C166.393 48.5324 166.428 47.537 166.05 46.6122L166.037 46.5798Z" fill="#F0E4FF"/>
<path d="M163.053 103.091C163.053 103.682 162.574 104.16 161.983 104.16C161.393 104.16 160.915 103.682 160.915 103.091V94.8625C160.915 94.2717 161.393 93.793 161.983 93.793C162.574 93.793 163.053 94.2717 163.053 94.8625V103.091ZM166.098 97.9077C166.689 97.9077 167.167 98.3862 167.167 98.977C167.167 99.5662 166.689 100.045 166.098 100.045H157.869C157.279 100.045 156.801 99.5662 156.801 98.977C156.801 98.3862 157.279 97.9077 157.869 97.9077H166.098Z" fill="#F0E4FF"/>
<path d="M13.7205 43.8245C13.7205 44.4153 13.242 44.8938 12.6516 44.8938C12.0614 44.8938 11.5829 44.4153 11.5829 43.8245V35.5958C11.5829 35.0058 12.0614 34.5273 12.6516 34.5273C13.242 34.5273 13.7205 35.0058 13.7205 35.5958V43.8245ZM16.7661 38.6419C17.3567 38.6419 17.8352 39.1206 17.8352 39.7104C17.8352 40.3002 17.3567 40.7789 16.7661 40.7789H8.53724C7.94726 40.7789 7.46875 40.3002 7.46875 39.7104C7.46875 39.1206 7.94726 38.6419 8.53724 38.6419H16.7661Z" fill="#F0E4FF"/>
<path d="M20.9335 100.782L21.0135 100.976V100.987C21.519 102.374 21.4481 103.838 20.9167 105.105C20.3583 106.434 19.2874 107.553 17.8398 108.145L17.6461 108.224H17.6346C16.2481 108.729 14.7841 108.659 13.5176 108.127C12.1879 107.569 11.0687 106.498 10.4765 105.05L10.3982 104.857V104.846C9.89226 103.459 9.96255 101.995 10.4949 100.728C11.0528 99.3984 12.1241 98.2793 13.5711 97.6879L13.7648 97.609H13.7762C15.1636 97.1034 16.6268 97.1733 17.8934 97.7061C19.2236 98.2631 20.3427 99.3347 20.9335 100.782ZM19.0564 101.51C18.6754 100.602 17.9611 99.9269 17.1114 99.5705C16.2514 99.2094 15.2564 99.1748 14.331 99.5527L14.2994 99.566C13.3914 99.9459 12.7164 100.661 12.36 101.511C11.9989 102.37 11.9645 103.366 12.3422 104.291L12.3538 104.32C12.7348 105.23 13.4492 105.906 14.3 106.262C15.1597 106.623 16.1553 106.658 17.0807 106.28L17.1098 106.268C18.0187 105.887 18.6937 105.173 19.0509 104.322C19.4126 103.461 19.4472 102.467 19.0691 101.541L19.0564 101.51Z" fill="#F0E4FF"/>
<path d="M1.48654 78.3703C2.30441 78.3703 2.97268 77.7026 2.97268 76.884C2.97268 76.0659 2.30441 75.3984 1.48654 75.3984C0.668268 75.3984 0 76.0659 0 76.884C0 77.7026 0.668268 78.3703 1.48654 78.3703Z" fill="#F0E4FF"/>
<path d="M5.94358 127.039C6.76165 127.039 7.42971 126.371 7.42971 125.552C7.42971 124.734 6.76165 124.066 5.94358 124.066C5.1253 124.066 4.45703 124.734 4.45703 125.552C4.45703 126.371 5.1253 127.039 5.94358 127.039Z" fill="#F0E4FF"/>
<path d="M34.884 31.6047C35.7022 31.6047 36.3703 30.9372 36.3703 30.1183C36.3703 29.2994 35.7022 28.6328 34.884 28.6328C34.0659 28.6328 33.3984 29.2994 33.3984 30.1183C33.3984 30.9372 34.0659 31.6047 34.884 31.6047Z" fill="#F0E4FF"/>
<path d="M148.007 38.6433C148.825 38.6433 149.493 37.9755 149.493 37.1566C149.493 36.3383 148.825 35.6719 148.007 35.6719C147.189 35.6719 146.52 36.3383 146.52 37.1566C146.52 37.9755 147.189 38.6433 148.007 38.6433Z" fill="#F0E4FF"/>
<path d="M176.26 79.2414C177.078 79.2414 177.746 78.5739 177.746 77.7553C177.746 76.9372 177.078 76.2695 176.26 76.2695C175.442 76.2695 174.773 76.9372 174.773 77.7553C174.773 78.5739 175.442 79.2414 176.26 79.2414Z" fill="#F0E4FF"/>
<path d="M165.487 126.05C166.304 126.05 166.973 125.382 166.973 124.564C166.973 123.746 166.304 123.078 165.487 123.078C164.668 123.078 164 123.746 164 124.564C164 125.382 164.668 126.05 165.487 126.05Z" fill="#F0E4FF"/>
<path d="M33.3984 60.9961H144.314C144.315 60.9961 144.317 60.9969 144.317 60.9986V124.704C144.317 127.587 141.959 129.946 139.076 129.946H38.639C35.7563 129.946 33.3984 127.587 33.3984 124.704V60.9961Z" fill="#9951F4"/>
<path d="M88.8594 60.9961H144.315C144.317 60.9961 144.318 60.9977 144.318 60.9994V124.704C144.318 127.587 141.961 129.946 139.078 129.946H94.1002C91.2173 129.946 88.8594 127.587 88.8594 124.704V60.9961Z" fill="#5D3393"/>
<path d="M33.3984 67.1894H88.8575V60.9961H33.3984V67.1894Z" fill="#000581"/>
<path d="M144.318 67.1894H88.8594V60.9961H144.318V67.1894Z" fill="#000581"/>
<path d="M55.5938 61.293H66.6629V125.001C66.6629 127.884 69.0218 130.242 71.9035 130.242H60.8346C57.9518 130.242 55.5938 127.884 55.5938 125.001V61.293Z" fill="#FFF6E8"/>
<path d="M55.5938 67.1855H66.6627V60.9922H55.5938V67.1855Z" fill="#D3E1F6"/>
<path d="M122.122 61.293H111.053V125.001C111.053 127.884 108.695 130.242 105.812 130.242H116.882C119.764 130.242 122.122 127.884 122.122 125.001V61.293Z" fill="#E4DDD2"/>
<path d="M111.055 67.1855H122.124V60.9922H111.055V67.1855Z" fill="#B3CAEA"/>
<path d="M31.0395 44.3242H146.678C148.897 44.3242 150.714 46.1401 150.714 48.3605V58.0746C150.714 60.2954 148.897 62.1111 146.678 62.1111H31.0395C28.8196 62.1111 27.0039 60.2954 27.0039 58.0746V48.3605C27.0039 46.1401 28.8196 44.3242 31.0395 44.3242Z" fill="#9951F4"/>
<path d="M88.8568 44.3242H146.675C148.895 44.3242 150.711 46.1407 150.711 48.3605V58.0746C150.711 60.2954 148.895 62.1111 146.675 62.1111H88.8568C86.6368 62.1111 84.8203 60.2954 84.8203 58.0746V48.3605C84.8203 46.1407 86.6368 44.3242 88.8568 44.3242Z" fill="#5D3393"/>
<path d="M55.5942 44.3242H66.6634C64.4434 44.3242 62.6278 46.1407 62.6278 48.3605V58.0746C62.6278 60.2954 64.4434 62.1111 66.6634 62.1111H55.5942C53.3743 62.1111 51.5586 60.2954 51.5586 58.0746V48.3605C51.5586 46.1407 53.3743 44.3242 55.5942 44.3242Z" fill="#FFF6E8"/>
<path d="M122.124 44.3242H111.055C113.275 44.3242 115.091 46.1407 115.091 48.3605V58.0746C115.091 60.2954 113.275 62.1111 111.055 62.1111H122.124C124.345 62.1111 126.16 60.2954 126.16 58.0746V48.3605C126.16 46.1407 124.345 44.3242 122.124 44.3242Z" fill="#E4DDD2"/>
<path d="M89.7946 41.4066C88.9964 36.8793 87.0462 32.8272 84.9632 28.8001C82.3789 23.4882 80.1706 17.9718 76.7014 13.0914C71.7675 6.13355 65.126 -0.386336 56.5411 6.20977C53.1989 8.74784 51.4128 11.7648 50.8567 14.9274C52.2122 14.6853 53.731 14.868 55.1144 15.2493C63.2288 17.6638 69.5881 24.9197 74.9371 31.1171C77.1848 33.7425 79.5188 36.0769 81.8762 38.5455C82.6394 39.3453 83.9996 40.7882 84.7446 42.2154C86.2293 42.1855 87.71 42.0486 89.1758 41.7902L89.7946 41.4066Z" fill="#FFF6E8"/>
<path d="M74.8757 31.1019C69.5267 24.9045 63.1672 17.6486 55.053 15.2339C53.6696 14.8525 52.1504 14.6699 50.7952 14.9122C49.9405 19.7717 52.0171 24.9778 56.0306 29.3437C63.1651 37.0046 74.0294 42.4182 84.683 42.2003C83.9378 40.7731 82.5777 39.3299 81.8146 38.5303C79.4569 36.0615 77.1234 33.7272 74.8757 31.1019Z" fill="#E4DDD2"/>
<path d="M85.939 41.2978C87.1295 36.857 89.4254 32.9918 91.8522 29.1622C94.8907 24.0967 97.5722 18.7943 101.454 14.2354C106.978 7.73526 114.163 1.82225 122.14 9.14232C125.246 11.9638 126.762 15.1251 127.04 18.3244C125.711 17.9648 124.183 18.0131 122.77 18.2736C114.476 19.9693 107.508 26.641 101.637 32.3466C99.1689 34.7654 96.6415 36.8874 94.0756 39.1407C93.2473 39.8693 91.7649 41.1895 90.8985 42.5452C89.4225 42.3854 87.9588 42.1193 86.5217 41.7341L85.939 41.2978Z" fill="#FFF6E8"/>
<path d="M101.711 32.4134C107.582 26.7079 114.55 20.0361 122.844 18.3405C124.257 18.0797 125.786 18.0317 127.114 18.3913C127.542 23.3073 125.018 28.3123 120.639 32.3106C112.861 39.3184 101.566 43.761 90.9727 42.6121C91.8391 41.2564 93.3214 39.9361 94.1498 39.2076C96.7157 36.9543 99.2431 34.8323 101.711 32.4134Z" fill="#E4DDD2"/>
<path d="M88.093 39.6914C83.6666 39.6914 80.0781 41.8893 80.0781 44.6002H96.108C96.108 41.8893 92.5195 39.6914 88.093 39.6914Z" fill="#FFF6E8"/>
<g filter="url(#filter0_f_2020_146970)">
<ellipse cx="91" cy="147.5" rx="60" ry="5.5" fill="#48128E" fill-opacity="0.8"/>
</g>
<defs>
<filter id="filter0_f_2020_146970" x="25.6455" y="136.645" width="130.709" height="21.709" filterUnits="userSpaceOnUse" color-interpolation-filters="sRGB">
<feFlood flood-opacity="0" result="BackgroundImageFix"/>
<feBlend mode="normal" in="SourceGraphic" in2="BackgroundImageFix" result="shape"/>
<feGaussianBlur stdDeviation="2.67725" result="effect1_foregroundBlur_2020_146970"/>
</filter>
</defs>
</svg>
