<svg width="215" height="166" viewBox="0 0 215 166" fill="none" xmlns="http://www.w3.org/2000/svg">
<path d="M107.555 98.073C106.953 97.7517 106.23 97.7517 105.628 98.073L47.8349 128.676C47.594 128.797 47.4737 129.078 47.5942 129.319C47.6343 129.439 47.7144 129.52 47.8349 129.56L104.142 159.4C105.668 160.203 107.475 160.203 109.001 159.4L165.308 129.56C165.549 129.439 165.67 129.158 165.549 128.877C165.509 128.797 165.429 128.676 165.308 128.636L107.555 98.073Z" fill="#450893"/>
<path d="M165.397 90.3136C164.152 90.3136 162.907 90.5949 161.822 91.1572L138.689 103.406C137.765 103.888 137.203 104.531 137.203 105.174C137.203 105.656 137.565 106.138 138.207 106.459L162.264 119.23C163.871 120.074 166.722 119.953 168.569 118.989L191.663 106.74C192.586 106.258 193.148 105.615 193.148 104.973C193.148 104.491 192.787 104.009 192.144 103.687L168.088 90.9162C167.244 90.4744 166.32 90.2735 165.397 90.3136Z" stroke="#6B5F9B" stroke-width="0.401655" stroke-miterlimit="10"/>
<path d="M49.7561 71.8449C48.511 71.8449 47.2659 72.1262 46.1814 72.6884L23.0484 84.9377C22.1248 85.4196 21.5625 86.0623 21.5625 86.7048C21.5625 87.1869 21.924 87.6688 22.5666 87.99L46.6235 100.761C48.23 101.605 51.0812 101.484 52.9287 100.52L76.0219 88.2712C76.9456 87.7893 77.5077 87.1466 77.5077 86.5041C77.5077 86.0222 77.1463 85.54 76.5036 85.2187L52.447 72.4474C51.6036 72.0056 50.6797 71.8047 49.7561 71.8449Z" stroke="#6B5F9B" stroke-width="0.401655" stroke-miterlimit="10"/>
<path d="M147.315 157.602C148.279 157.963 149.323 157.923 150.247 157.481L161.452 151.537C161.854 151.336 162.095 151.055 162.095 150.814C162.095 150.573 161.854 150.413 161.693 150.292L150.046 144.107C149.082 143.746 148.038 143.786 147.114 144.228L135.869 150.132C135.468 150.332 135.227 150.614 135.227 150.895C135.227 151.176 135.468 151.296 135.628 151.417L147.315 157.602Z" stroke="#6B5F9B" stroke-width="0.401655" stroke-miterlimit="10"/>
<path d="M59.9482 159.805C60.9121 160.166 61.9562 160.126 62.8798 159.684L74.0849 153.74C74.4866 153.54 74.7278 153.258 74.7278 153.017C74.7278 152.776 74.4866 152.616 74.326 152.495L62.6791 146.31C61.7151 145.949 60.671 145.989 59.7473 146.431L48.5019 152.335C48.1004 152.535 47.8594 152.817 47.8594 153.098C47.8594 153.379 48.1006 153.499 48.2612 153.62L59.9482 159.805Z" stroke="#6B5F9B" stroke-width="0.401655" stroke-miterlimit="10"/>
<g opacity="0.999998">
<path d="M107.625 131.816L48.5067 100.449L47.543 100.971L107.625 132.82L167.747 100.971L166.783 100.449L107.625 131.816Z" fill="white"/>
</g>
<path d="M107.625 132.818L47.543 100.969L107.625 69.1211L167.747 100.969L107.625 132.818Z" fill="#BCBEFF"/>
<g opacity="0.999998">
<path d="M107.628 124.146L63.9727 100.973L107.628 77.8398L151.325 100.973L107.628 124.146Z" fill="#453C9E"/>
</g>
<path d="M107.628 79.406L149.879 101.776L151.325 100.973L107.628 77.8398L63.9727 100.973L65.4186 101.776L107.628 79.406Z" fill="white"/>
<path d="M167.747 100.973V119.046L107.625 150.894V132.821L167.747 100.973Z" fill="#A0A2EC"/>
<path d="M158.754 113.625V116.878L116.664 139.168V135.955L158.754 113.625Z" fill="#453C9E"/>
<path d="M47.543 100.973V119.045L107.625 150.894V132.821L47.543 100.973Z" fill="#24126A"/>
<g opacity="0.5">
<path d="M51.6055 109.078V114.781L103.575 142.332V136.629L51.6055 109.078Z" fill="#453C9E"/>
</g>
<path d="M90.1142 131.901L79.2305 126.117V127.322L90.1142 133.065V131.901Z" fill="#42E8E0"/>
<path d="M77.631 125.272L74.6992 123.746V124.911L77.631 126.477V125.272Z" fill="#42E8E0"/>
<path d="M63.8092 117.974L57.7852 114.801V115.965L63.8092 119.178V117.974Z" fill="#42E8E0"/>
<path d="M69.3659 120.896L64.9883 118.566V119.771L69.3659 122.101V120.896Z" fill="#42E8E0"/>
<path d="M73.4162 123.066L70.4844 121.5V122.705L73.4162 124.271V123.066Z" fill="#42E8E0"/>
<g opacity="0.999998">
<path d="M107.625 100.144L48.5067 68.7773L47.543 69.2995L107.625 101.148L167.747 69.2995L166.783 68.7773L107.625 100.144Z" fill="white"/>
</g>
<path d="M107.625 101.138L47.543 69.2897L107.625 37.4414L167.747 69.2897L107.625 101.138Z" fill="#BCBEFF"/>
<g opacity="0.999998">
<path d="M107.625 92.4705L63.9688 69.2972L107.625 46.1641L151.321 69.2972L107.625 92.4705Z" fill="#453C9E"/>
</g>
<path d="M107.625 47.7302L149.875 70.1004L151.321 69.2971L107.625 46.1641L63.9688 69.2971L65.4147 70.1004L107.625 47.7302Z" fill="white"/>
<path d="M167.747 69.293V87.3659L107.625 119.214V101.141L167.747 69.293Z" fill="#A0A2EC"/>
<path d="M158.754 81.9492V85.2023L116.664 107.492V104.279L158.754 81.9492Z" fill="#453C9E"/>
<path d="M47.543 69.293V87.3657L107.625 119.214V101.141L47.543 69.293Z" fill="#24126A"/>
<g opacity="0.5">
<path d="M51.6055 77.4062V83.1092L103.575 110.66V104.957L51.6055 77.4062Z" fill="#453C9E"/>
</g>
<path d="M90.1103 100.209L79.2266 94.4258V95.6307L90.1103 101.374V100.209Z" fill="#42E8E0"/>
<path d="M77.631 93.5926L74.6992 92.0664V93.2313L77.631 94.7976V93.5926Z" fill="#42E8E0"/>
<path d="M63.8092 86.2783L57.7852 83.1055V84.2702L63.8092 87.4831V86.2783Z" fill="#42E8E0"/>
<path d="M69.3659 89.2122L64.9883 86.8828V88.0876L69.3659 90.417V89.2122Z" fill="#42E8E0"/>
<path d="M73.4162 91.3867L70.4844 89.8203V91.0253L73.4162 92.5916V91.3867Z" fill="#42E8E0"/>
<g opacity="0.999998">
<path d="M107.621 68.4523L48.5028 37.0859L47.5391 37.6081L107.621 69.4565L167.743 37.6081L166.779 37.0859L107.621 68.4523Z" fill="white"/>
</g>
<path d="M107.621 69.4543L47.5391 37.6061L107.621 5.75781L167.743 37.6061L107.621 69.4543Z" fill="#BCBEFF"/>
<g opacity="0.999998">
<path d="M107.625 60.783L63.9688 37.6097L107.625 14.4766L151.321 37.6097L107.625 60.783Z" fill="#453C9E"/>
</g>
<path d="M107.625 16.0427L149.875 38.4129L151.321 37.6096L107.625 14.4766L63.9688 37.6096L65.4147 38.4129L107.625 16.0427Z" fill="white"/>
<path d="M167.743 37.6016V55.6745L107.621 87.5227V69.4498L167.743 37.6016Z" fill="#A0A2EC"/>
<path d="M158.75 50.2539V53.5069L116.66 75.7968V72.5839L158.75 50.2539Z" fill="#453C9E"/>
<path d="M47.5391 37.6016V55.6743L107.621 87.5226V69.45L47.5391 37.6016Z" fill="#24126A"/>
<g opacity="0.5">
<path d="M51.6016 45.7227V51.4256L103.571 78.9766V73.2735L51.6016 45.7227Z" fill="#453C9E"/>
</g>
<path d="M90.1064 68.5216L79.2227 62.7383V63.9432L90.1064 69.6863V68.5216Z" fill="#42E8E0"/>
<path d="M77.6271 61.8973L74.6953 60.3711V61.5359L77.6271 63.1023V61.8973Z" fill="#42E8E0"/>
<path d="M63.8053 54.5986L57.7812 51.4258V52.5905L63.8053 55.8034V54.5986Z" fill="#42E8E0"/>
<path d="M69.362 57.5286L64.9844 55.1992V56.404L69.362 58.7334V57.5286Z" fill="#42E8E0"/>
<path d="M73.4123 59.6913L70.4805 58.125V59.33L73.4123 60.8963V59.6913Z" fill="#42E8E0"/>
</svg>
