<svg width="215" height="166" viewBox="0 0 215 166" fill="none" xmlns="http://www.w3.org/2000/svg">
<ellipse cx="102.216" cy="154.211" rx="78.0128" ry="6.10156" fill="black"/>
<path d="M173.045 75.3199H191.386C192.386 75.3199 193.197 74.4893 193.197 73.4648V58.0621C193.197 57.0377 192.386 56.207 191.386 56.207H173.045C172.045 56.207 171.234 57.0377 171.234 58.0621V73.4648C171.234 74.4893 172.045 75.3199 173.045 75.3199Z" fill="url(#paint0_linear_2371_158647)"/>
<path d="M187.229 68.9409H178.644H177.094V61.9766H187.229V63.7177V68.9409Z" stroke="white" stroke-width="0.495219" stroke-linecap="round" stroke-linejoin="round"/>
<path d="M177.094 61.9766L182.161 66.0688L187.228 61.9766" stroke="white" stroke-width="0.495219" stroke-linecap="round" stroke-linejoin="round"/>
<path d="M36.3253 106.516H18.8712C17.7686 106.516 16.875 105.6 16.875 104.47V87.1975C16.875 86.0677 17.7686 85.1523 18.8712 85.1523H36.3253C37.4279 85.1523 38.3218 86.0677 38.3218 87.1975V104.47C38.3218 105.6 37.4279 106.516 36.3253 106.516Z" fill="url(#paint1_linear_2371_158647)"/>
<path d="M33.4872 96.034C33.4872 99.2956 30.907 101.94 27.7241 101.94C24.5411 101.94 21.9609 99.2956 21.9609 96.034C21.9609 92.7727 24.5411 90.1289 27.7241 90.1289C30.907 90.1289 33.4872 92.7727 33.4872 96.034Z" stroke="white" stroke-width="0.601358" stroke-miterlimit="10"/>
<path d="M22.8594 92.9062H32.6137" stroke="white" stroke-width="0.72163" stroke-miterlimit="10"/>
<path d="M21.9609 96.0352H33.4294" stroke="white" stroke-width="0.72163" stroke-miterlimit="10"/>
<path d="M22.8359 99.168H32.6104" stroke="white" stroke-width="0.72163" stroke-miterlimit="10"/>
<mask id="mask0_2371_158647" style="mask-type:alpha" maskUnits="userSpaceOnUse" x="21" y="90" width="13" height="12">
<path d="M33.486 96.0313C33.486 99.2911 30.9061 101.935 27.725 101.935C24.5408 101.935 21.9609 99.2911 21.9609 96.0313C21.9609 92.7685 24.5408 90.125 27.725 90.125C30.9061 90.125 33.486 92.7685 33.486 96.0313Z" fill="#FF0000"/>
</mask>
<g mask="url(#mask0_2371_158647)">
<path d="M35.7553 90.2188C34.2062 92.9066 33.1716 97.2312 35.9258 101.942" stroke="white" stroke-width="0.601358" stroke-miterlimit="10"/>
<path d="M35.7553 90.2188C34.2062 92.9066 33.1716 97.2312 35.9258 101.942" stroke="white" stroke-width="0.601358" stroke-miterlimit="10"/>
<path d="M26.728 90.2188C25.1789 92.9066 24.1442 97.2312 26.8985 101.942" stroke="white" stroke-width="0.601358" stroke-miterlimit="10"/>
</g>
<mask id="mask1_2371_158647" style="mask-type:alpha" maskUnits="userSpaceOnUse" x="21" y="90" width="13" height="12">
<path d="M33.486 96.0313C33.486 99.2911 30.9061 101.935 27.725 101.935C24.5408 101.935 21.9609 99.2911 21.9609 96.0313C21.9609 92.7685 24.5408 90.125 27.725 90.125C30.9061 90.125 33.486 92.7685 33.486 96.0313Z" fill="#FF0000"/>
</mask>
<g mask="url(#mask1_2371_158647)">
<path d="M28.7865 90.2734C30.491 93.2781 31.0545 97.7073 28.6289 101.812" stroke="white" stroke-width="0.598389" stroke-miterlimit="10"/>
<path d="M19.7669 90.2734C21.4715 93.2781 22.035 97.7073 19.6094 101.812" stroke="white" stroke-width="0.598389" stroke-miterlimit="10"/>
</g>
<path d="M201.036 108.447H186.238C185.609 108.447 185.098 107.923 185.098 107.278C185.098 106.633 185.609 106.109 186.238 106.109H201.036C201.666 106.109 202.177 106.633 202.177 107.278C202.177 107.923 201.666 108.447 201.036 108.447Z" fill="#4A90E2"/>
<path d="M190.684 121.978H188.876C188.401 121.978 188.016 121.584 188.016 121.097V119.358C188.016 118.871 188.401 118.477 188.876 118.477H190.684C191.159 118.477 191.544 118.871 191.544 119.358V121.097C191.544 121.584 191.159 121.978 190.684 121.978Z" fill="#1E147E"/>
<path d="M19.2775 130.068H17.4695C16.9945 130.068 16.6094 129.674 16.6094 129.187V127.448C16.6094 126.961 16.9945 126.566 17.4695 126.566H19.2775C19.7525 126.566 20.1376 126.961 20.1376 127.448V129.187C20.1376 129.674 19.7525 130.068 19.2775 130.068Z" fill="#96B6FA"/>
<path d="M157.675 30.935H127.582C127.081 30.935 126.676 30.5194 126.676 30.007V22.4782C126.676 21.9658 127.081 21.5508 127.582 21.5508H157.675C158.175 21.5508 158.58 21.9658 158.58 22.4782V30.007C158.58 30.5194 158.175 30.935 157.675 30.935Z" fill="url(#paint2_linear_2371_158647)"/>
<path d="M131.02 24.8945H152.421H131.02Z" fill="url(#paint3_linear_2371_158647)"/>
<path d="M131.02 24.8945H152.421" stroke="white" stroke-width="0.354801" stroke-miterlimit="10"/>
<path d="M131.02 27.1484H139.737H131.02Z" fill="url(#paint4_linear_2371_158647)"/>
<path d="M131.02 27.1484H139.737" stroke="white" stroke-width="0.354801" stroke-miterlimit="10"/>
<path d="M130.156 29.8711V33.5283L134.645 29.8711H130.156Z" fill="url(#paint5_linear_2371_158647)"/>
<path d="M83.7427 31.493H69.1751C67.7601 31.493 66.6133 30.3176 66.6133 28.8676V14.99C66.6133 13.891 67.4828 13 68.5554 13H83.7427C84.8152 13 85.6848 13.891 85.6848 14.99V29.5026C85.6848 30.6019 84.8152 31.493 83.7427 31.493Z" fill="url(#paint6_linear_2371_158647)"/>
<path d="M80.5928 23.6153L79.5071 22.5027C79.3131 22.284 79.0612 22.1647 78.8092 22.1647C78.5569 22.1647 78.3049 22.2836 78.111 22.4824L77.4901 23.1186L77.3737 23.0588C77.2965 23.0191 77.2384 22.9994 77.1801 22.9596C76.5983 22.5819 76.0748 22.0852 75.5706 21.4493C75.3378 21.1514 75.1634 20.8732 75.0666 20.6347C75.2215 20.4957 75.3574 20.3364 75.493 20.1975C75.5513 20.138 75.6094 20.0782 75.6677 20.0188C75.8809 19.8 75.9972 19.5418 75.9972 19.2833C75.9972 19.0252 75.8809 18.767 75.6677 18.5482L75.1247 17.9918C75.0666 17.9323 75.0083 17.8722 74.95 17.793C74.8339 17.6735 74.698 17.5349 74.5816 17.4156C74.3877 17.2169 74.1357 17.0977 73.8835 17.0977C73.6315 17.0977 73.3985 17.1969 73.1853 17.4156L72.5066 18.111C72.2547 18.3695 72.0995 18.7072 72.0607 19.0846C72.022 19.6808 72.1771 20.2372 72.3127 20.5949C72.623 21.5091 73.1074 22.3237 73.8251 23.1981C74.6977 24.2512 75.7254 25.0858 76.9278 25.682C77.3737 25.9005 77.9946 26.1584 78.6736 26.2181H78.8092C79.2746 26.2181 79.6622 26.0397 79.9722 25.7017L79.9918 25.682C80.0889 25.5628 80.2052 25.4436 80.3411 25.3243C80.4187 25.2448 80.5152 25.1453 80.5928 25.0658C81.0002 24.6289 81.0002 24.0324 80.5928 23.6153ZM80.1472 24.6483C80.0696 24.7278 79.9918 24.8076 79.9142 24.8871C79.7783 25.0064 79.6622 25.1453 79.5263 25.2843C79.3324 25.483 79.1192 25.5825 78.8281 25.5825H78.7316C78.1498 25.5428 77.6068 25.304 77.2189 25.1053C76.1136 24.5488 75.1436 23.7743 74.3294 22.7809C73.67 21.966 73.2244 21.1908 72.9138 20.3762C72.7201 19.8992 72.6423 19.5218 72.681 19.1444C72.7003 18.9259 72.7782 18.7272 72.9529 18.5682L73.6122 17.8926C73.6703 17.8328 73.7671 17.7533 73.8835 17.7533C73.9998 17.7533 74.0771 17.8131 74.1547 17.8926C74.271 18.0118 74.3877 18.1307 74.5041 18.25C74.5624 18.3094 74.6201 18.3892 74.6977 18.4487L75.2407 19.0054C75.2988 19.0649 75.3763 19.1841 75.3763 19.2833C75.3763 19.4026 75.2988 19.5021 75.2407 19.5616L75.0666 19.7406C74.8919 19.9193 74.7368 20.0782 74.5816 20.2372L74.5624 20.2573C74.3685 20.456 74.4069 20.6347 74.4457 20.7539V20.7736C74.5813 21.1313 74.7951 21.4493 75.0859 21.8468C75.6289 22.5425 76.2104 23.0786 76.8503 23.4957C76.9278 23.5555 77.025 23.5956 77.1028 23.635C77.1801 23.675 77.2384 23.6948 77.2968 23.7345L77.3157 23.7545C77.5096 23.8537 77.7036 23.814 77.8587 23.655L78.5374 22.9596C78.5954 22.8999 78.6928 22.8204 78.8092 22.8204C78.906 22.8204 79.0028 22.8999 79.0608 22.9596L80.1472 24.0722C80.3219 24.2512 80.3219 24.4496 80.1472 24.6483Z" fill="white"/>
<mask id="mask2_2371_158647" style="mask-type:alpha" maskUnits="userSpaceOnUse" x="25" y="35" width="154" height="123">
<path d="M178.436 35.3125V157.677H25.0898V35.3125H178.436Z" fill="#4A90E2"/>
</mask>
<g mask="url(#mask2_2371_158647)">
<path d="M82.3961 101.503L73.0125 100.222L73.0982 99.1055L62.1228 100.603C62.1228 100.603 56.1326 117.052 61.4637 151.25H69.0967L71.7577 116.574H72.7334L75.4804 151.25H83.1138C88.4448 117.052 82.3961 101.503 82.3961 101.503Z" fill="#282828"/>
<path d="M81.6487 54.7197C80.3787 53.1888 79.3618 51.4027 78.4976 48.8963C77.5697 46.2059 74.532 47.2994 74.532 47.2994C74.532 47.2994 72.0005 43.9623 68.1912 45.1248C64.3819 46.2869 63.0583 49.0648 62.9808 52.3671C62.9029 55.6693 60.3682 56.1857 58.4162 60.0062C54.9701 66.7502 60.772 72.431 71.333 70.8551L71.3472 70.75C72.3872 71.0739 73.6618 71.215 75.2178 71.1204C87.9053 70.3486 86.6809 60.786 81.6487 54.7197Z" fill="#282828"/>
<path d="M77.4902 59.723C78.5328 60.6921 80.8642 57.0164 79.8568 55.9845C78.8494 54.9528 78.0807 56.5716 78.0807 56.5716L77.6309 57.6689L77.2918 59.1549L77.2109 59.544L77.4902 59.723Z" fill="#F3968E"/>
<path d="M79.3655 57.2877C79.3655 57.2877 78.5764 56.9239 77.875 58.0964" stroke="#282828" stroke-width="0.298574" stroke-linecap="round" stroke-linejoin="round"/>
<path d="M65.1596 59.6116C64.2006 60.6676 61.574 57.2072 62.4927 56.0918C63.4114 54.9763 64.3106 56.523 64.3106 56.523L64.8496 57.5772L65.3102 59.0284L65.4226 59.4092L65.1596 59.6116Z" fill="#F3968E"/>
<path d="M63.0898 57.3441C63.0898 57.3441 63.8462 56.9135 64.6417 58.0209" stroke="#282828" stroke-width="0.298574" stroke-linecap="round" stroke-linejoin="round"/>
<path d="M79.3226 52.4772C79.3226 57.3434 75.7018 59.6511 71.2355 59.6511C66.7692 59.6511 63.1484 57.3434 63.1484 52.4772C63.1484 47.611 66.7692 44.3008 71.2355 44.3008C75.7018 44.3008 79.3226 47.611 79.3226 52.4772Z" fill="#282828"/>
<path d="M74.5278 72.1676H67.875V63.3398H74.5278V72.1676Z" fill="#FFB0A4"/>
<path d="M66.9062 62.7852C66.9062 62.7852 68.7581 66.5724 71.0364 67.1636C71.645 67.3217 72.295 67.2674 72.8819 67.0542C73.7395 66.7427 74.8267 65.4327 75.0117 63.9834L75.0974 63.1552C75.0974 63.1552 71.0433 65.417 66.9062 62.7852Z" fill="#282828"/>
<path d="M78.229 52.8149C78.229 55.8022 77.8168 58.3801 77.4057 60.2097C77.0031 62.001 75.8702 63.2528 74.2693 64.2603L73.978 64.4439C72.2843 65.5103 70.0956 65.5349 68.3757 64.5077C66.6414 63.4712 65.4267 62.1051 65.0529 60.1832C64.3731 56.6868 64.2991 52.8149 64.2991 52.8149C64.2991 52.8149 63.6521 45.2734 71.1645 45.4201C78.6767 45.5664 78.229 52.8149 78.229 52.8149Z" fill="#FFB0A4"/>
<path d="M70.7305 57.5273V58.1471C70.7305 58.2088 70.7422 58.2679 70.7632 58.3221C70.8468 58.5347 71.087 58.6363 71.3044 58.5775L71.7712 58.4512" stroke="#282828" stroke-width="0.369835" stroke-linecap="round" stroke-linejoin="round"/>
<path d="M72.2969 53.4359L76.2928 54.4053C76.2928 54.4053 76.1113 53.3527 74.4764 52.9701C72.8416 52.5878 72.2969 53.4359 72.2969 53.4359Z" fill="#282828"/>
<path d="M70.2 53.4359L66.1523 54.4053C66.1523 54.4053 66.336 53.3527 67.9919 52.9701C69.6478 52.5878 70.2 53.4359 70.2 53.4359Z" fill="#282828"/>
<path d="M68.332 59.6445H73.8579C73.8579 59.6445 73.4679 61.2005 70.9621 61.2005C69.0537 61.2005 68.332 59.6445 68.332 59.6445Z" fill="white"/>
<path d="M64.3894 55.3136C64.3894 55.3136 67.3929 51.1527 66.7001 46.9375C66.7001 46.9375 64.4709 48.0873 63.8903 51.0544C63.3096 54.0214 64.3894 55.3136 64.3894 55.3136Z" fill="#282828"/>
<path d="M78.2272 55.1765C78.2272 55.1765 74.7381 50.8714 75.4309 46.6562C75.4309 46.6562 77.851 48.0889 78.4316 51.0557C79.012 54.023 78.2272 55.1765 78.2272 55.1765Z" fill="#282828"/>
<path d="M64.6445 48.6042C64.6445 48.6042 68.0906 53.3508 78.6424 52.6105C78.6424 52.6105 77.4372 45.8414 72.3236 45.1651C72.3236 45.1651 66.4191 44.4429 64.6445 48.6042Z" fill="#282828"/>
<path d="M55.0199 122.381C54.8666 122.628 63.8022 82.5414 61.1493 83.1474C60.9075 83.2026 56.2608 83.6447 55.5705 85.0835C53.5686 89.254 52.1328 122.077 52.1328 122.077L55.0199 122.381Z" fill="#FFB0A4"/>
<path d="M52.1334 122.078C52.1334 122.078 50.6931 128.926 56.1378 129.675C56.4965 129.724 56.8432 129.507 56.9614 129.156L56.977 129.11C57.1072 128.723 56.9181 128.308 56.5533 128.141C55.6657 127.734 54.2886 126.707 54.9718 124.373C54.9718 124.373 55.7589 124.274 56.1931 125.779C56.305 126.166 56.7289 126.36 57.0807 126.179C57.3207 126.054 57.456 125.79 57.422 125.516C57.2915 124.463 56.7743 121.927 54.7896 121.246L52.1334 122.078Z" fill="#FFB0A4"/>
<path d="M53.9688 94.7257C53.9688 94.7257 59.1173 102.155 59.1443 102.011C59.1714 101.868 61.3955 88.6151 61.3955 88.6151L54.8849 87.9219L53.9688 94.7257Z" fill="#F3968E"/>
<path d="M68.2696 70.7033C68.4891 70.7021 55.5454 70.9397 53.1797 87.6872L60.6185 88.8549L62.1183 101.499H82.8702L86.9899 78.1382C86.9899 78.1382 84.0612 73.077 75.5244 70.5977L68.2696 70.7033Z" fill="#FFC83C"/>
<path d="M61.9414 72.7361C61.9414 72.7361 63.7701 75.2244 71.2652 75.2244C78.6907 75.2244 80.5895 72.6058 80.5895 72.6058C80.5895 72.6058 76.2122 70.0997 71.1329 69.2891C71.1329 69.2891 66.5974 70.1169 61.9414 72.7361Z" fill="#FFB0A4"/>
<path d="M68.72 56.0885C68.72 56.4437 68.438 56.7317 68.0902 56.7317C67.7426 56.7317 67.4609 56.4437 67.4609 56.0885C67.4609 55.7333 67.7426 55.4453 68.0902 55.4453C68.438 55.4453 68.72 55.7333 68.72 56.0885Z" fill="#282828"/>
<path d="M68.7834 56.0747C68.7834 56.4654 68.4732 56.7823 68.0906 56.7823C67.7083 56.7823 67.3984 56.4654 67.3984 56.0747C67.3984 55.684 67.7083 55.3672 68.0906 55.3672C68.4732 55.3672 68.7834 55.684 68.7834 56.0747Z" fill="#FFB1A5"/>
<path d="M74.6809 56.0885C74.6809 56.4437 74.3992 56.7317 74.0514 56.7317C73.7036 56.7317 73.4219 56.4437 73.4219 56.0885C73.4219 55.7333 73.7036 55.4453 74.0514 55.4453C74.3992 55.4453 74.6809 55.7333 74.6809 56.0885Z" fill="#282828"/>
<path d="M74.7443 56.0747C74.7443 56.4654 74.4345 56.7823 74.0518 56.7823C73.6692 56.7823 73.3594 56.4654 73.3594 56.0747C73.3594 55.684 73.6692 55.3672 74.0518 55.3672C74.4345 55.3672 74.7443 55.684 74.7443 56.0747Z" fill="#FFB1A5"/>
<path d="M153.515 85.1028C152.576 83.5672 147.301 83.6211 147.023 83.5878C145.597 83.4165 147.937 95.0437 150.903 105.207C151.472 107.155 153.564 108.17 155.391 107.376C155.411 107.368 155.431 107.359 155.451 107.351C156.896 106.723 157.719 105.15 157.428 103.57C156.017 95.9009 154.601 86.8787 153.515 85.1028Z" fill="#FFB0A4"/>
<path d="M154.776 89.3125L148.042 91.9902L147.41 88.716L154.383 86.9336L154.776 89.3125Z" fill="#F3968E"/>
<path d="M156.426 97.289C156.426 97.289 152.86 100.254 153.013 100.052C153.164 99.8502 155.514 92.957 155.514 92.957L156.426 97.289Z" fill="#F3968E"/>
<path d="M161.687 90.548L151.651 101.925C150.333 103.419 150.542 105.747 152.102 106.971C153.659 108.193 155.903 107.795 156.968 106.107L165.646 92.3651L161.687 90.548Z" fill="#FFB0A4"/>
<path d="M163.804 93.8306C161.878 93.0188 160.958 90.7606 161.75 88.7863C162.542 86.8117 164.747 85.8696 166.673 86.6811C168.6 87.4929 169.52 89.7514 168.728 91.7257C167.935 93.7003 165.731 94.6424 163.804 93.8306Z" fill="#FFB0A4"/>
<path d="M170.643 80.6625L174.331 82.6627C174.536 82.7739 174.594 83.0381 174.46 83.2524L168.709 92.4643C168.575 92.6786 168.3 92.7627 168.095 92.6511L164.406 90.6513C164.201 90.5397 164.143 90.2756 164.277 90.0612L170.029 80.8497C170.163 80.6351 170.438 80.5513 170.643 80.6625Z" fill="#372E5F"/>
<path d="M170.291 80.4633L173.979 82.4638C174.185 82.575 174.243 82.8392 174.109 83.0535L168.357 92.2651C168.223 92.4797 167.948 92.5631 167.743 92.4519L164.055 90.4518C163.849 90.3405 163.792 90.0763 163.926 89.8617L169.677 80.6505C169.811 80.4358 170.086 80.3521 170.291 80.4633Z" fill="#251B43"/>
<path d="M169.776 81.4121L173.017 83.1695L168.33 90.6773L165.089 88.9198L169.776 81.4121Z" fill="#E6E6E6"/>
<path d="M173.017 83.1696L165.089 88.9195L169.776 81.4121L173.017 83.1696Z" fill="white"/>
<path d="M167.512 86.2473C165.744 85.3344 163.473 85.3305 161.76 88.8013L163.031 90.1444C164.168 90.0634 165.168 88.8477 165.475 88.437L168.167 88.1728C168.167 88.1728 169.279 87.1601 167.512 86.2473Z" fill="#FFB0A4"/>
<path d="M147.11 101.509L136.134 100.012L136.22 101.129L126.836 102.409C126.836 102.409 120.788 117.958 126.118 152.156H133.752L136.499 117.48H137.475L140.136 152.156H147.769C153.1 117.958 147.11 101.509 147.11 101.509Z" fill="#8E706C"/>
<path d="M133.016 117.484H140.98" stroke="#282828" stroke-width="0.370737" stroke-linecap="round" stroke-linejoin="round"/>
<path d="M139.571 69.8164C139.352 69.8152 153.687 71.849 156.052 88.5968L148.614 89.7649L147.114 102.408H126.362L122.242 79.0481C122.242 79.0481 126.84 72.296 135.376 69.8164H139.571Z" fill="#FED364"/>
<path d="M148.617 89.7656L149.262 82.4531" stroke="#282828" stroke-width="0.370737" stroke-linecap="round" stroke-linejoin="round"/>
<path d="M140.94 70.0514V64.2344H134.287V70.1198C133.947 70.2239 133.38 70.4343 132.5 70.8626L137.689 74.0296L142.993 70.8626C142.993 70.8626 142.151 70.3604 140.94 70.0514Z" fill="#FFB0A4"/>
<path d="M134.215 64.9452C134.215 64.9452 135.409 68.196 138.599 67.9153C141.53 67.6574 141.064 63.1523 141.064 63.1523L134.215 64.9452Z" fill="#282828"/>
<path d="M131.309 60.6214C130.266 61.5905 127.935 57.9149 128.942 56.8829C129.95 55.8512 130.718 57.47 130.718 57.47L131.168 58.5673L131.507 60.0534L131.588 60.4424L131.309 60.6214Z" fill="#F3968E"/>
<path d="M129.434 58.1862C129.434 58.1862 130.222 57.8224 130.924 58.9948" stroke="#282828" stroke-width="0.298574" stroke-linecap="round" stroke-linejoin="round"/>
<path d="M143.642 60.5181C144.601 61.5741 147.228 58.1138 146.309 56.998C145.39 55.8826 144.491 57.4293 144.491 57.4293L143.952 58.4834L143.491 59.9347L143.379 60.3154L143.642 60.5181Z" fill="#F3968E"/>
<path d="M145.716 58.2504C145.716 58.2504 144.96 57.8198 144.164 58.9269" stroke="#282828" stroke-width="0.298574" stroke-linecap="round" stroke-linejoin="round"/>
<path d="M129.484 53.3796C129.484 58.2458 133.105 60.5534 137.571 60.5534C142.038 60.5534 145.659 58.2458 145.659 53.3796C145.659 48.5134 142.038 45.2031 137.571 45.2031C133.105 45.2031 129.484 48.5134 129.484 53.3796Z" fill="#282828"/>
<path d="M130.587 53.7169C130.587 56.7043 130.999 59.2822 131.41 61.1117C131.813 62.903 132.946 64.1551 134.546 65.1629L134.838 65.3466C136.532 66.4126 138.72 66.4376 140.44 65.41C142.175 64.3739 143.389 63.0074 143.763 61.0852C144.443 57.5891 144.517 53.7169 144.517 53.7169C144.517 53.7169 145.164 46.1758 137.652 46.3224C130.139 46.4691 130.587 53.7169 130.587 53.7169Z" fill="#FFB0A4"/>
<path d="M137.094 58.0156V59.059C137.094 59.1206 137.105 59.1801 137.126 59.2343C137.21 59.4475 137.45 59.5497 137.667 59.4906L138.134 59.3637" stroke="#282828" stroke-width="0.370437" stroke-linecap="round" stroke-linejoin="round"/>
<path d="M135.901 53.9752L132.168 54.872C132.168 54.872 132.338 53.8985 133.865 53.5449C135.392 53.1909 135.901 53.9752 135.901 53.9752Z" fill="#282828"/>
<path d="M139.211 53.9752L142.815 54.872C142.815 54.872 142.651 53.8985 141.176 53.5449C139.702 53.1909 139.211 53.9752 139.211 53.9752Z" fill="#282828"/>
<path d="M135.109 60.7109H139.964C139.964 60.7109 137.812 63.3931 135.109 60.7109Z" fill="white"/>
<path d="M136.894 57.0405C136.894 58.5558 135.696 59.7842 134.217 59.7842C132.738 59.7842 131.539 58.5558 131.539 57.0405C131.539 55.5253 132.738 54.2969 134.217 54.2969C135.696 54.2969 136.894 55.5253 136.894 57.0405Z" stroke="#1E147E" stroke-width="0.403511" stroke-miterlimit="10"/>
<path d="M143.468 57.0405C143.468 58.5558 142.27 59.7842 140.791 59.7842C139.312 59.7842 138.113 58.5558 138.113 57.0405C138.113 55.5253 139.312 54.2969 140.791 54.2969C142.27 54.2969 143.468 55.5253 143.468 57.0405Z" stroke="#1E147E" stroke-width="0.403511" stroke-miterlimit="10"/>
<path d="M136.883 57.0391C136.883 57.0391 137.517 56.4326 138.105 57.0391" stroke="#1E147E" stroke-width="0.403511" stroke-miterlimit="10"/>
<path d="M131.538 57.0366L130.695 57.0156" stroke="#1E147E" stroke-width="0.403511" stroke-miterlimit="10"/>
<path d="M143.469 57.0366L144.316 57.0156" stroke="#1E147E" stroke-width="0.403511" stroke-miterlimit="10"/>
<path d="M144.423 56.2153C144.423 56.2153 141.419 52.055 142.112 47.8398C142.112 47.8398 144.341 48.9894 144.921 51.9564C145.502 54.9238 144.423 56.2153 144.423 56.2153Z" fill="#282828"/>
<path d="M130.578 56.503C130.578 56.503 134.068 51.7777 133.375 47.5625C133.375 47.5625 130.955 48.9952 130.374 51.9622C129.794 54.9296 130.578 56.503 130.578 56.503Z" fill="#282828"/>
<path d="M144.166 49.5066C144.166 49.5066 140.31 53.833 129.758 53.0923C129.758 53.0923 131.374 46.7438 136.487 46.0675C136.487 46.0675 142.392 45.345 144.166 49.5066Z" fill="#282828"/>
<path d="M148.928 44.4432C148.928 47.2944 146.672 49.6058 143.89 49.6058C141.107 49.6058 138.852 47.2944 138.852 44.4432C138.852 41.592 141.107 39.2812 143.89 39.2812C146.672 39.2812 148.928 41.592 148.928 44.4432Z" fill="#282828"/>
<path d="M135.115 56.7877C135.115 57.1429 134.833 57.431 134.485 57.431C134.137 57.431 133.855 57.1429 133.855 56.7877C133.855 56.4326 134.137 56.1445 134.485 56.1445C134.833 56.1445 135.115 56.4326 135.115 56.7877Z" fill="#282828"/>
<path d="M135.166 56.7935C135.166 57.1842 134.856 57.501 134.473 57.501C134.091 57.501 133.781 57.1842 133.781 56.7935C133.781 56.4028 134.091 56.0859 134.473 56.0859C134.856 56.0859 135.166 56.4028 135.166 56.7935Z" fill="#FFB1A5"/>
<path d="M141.079 56.7877C141.079 57.1429 140.798 57.431 140.45 57.431C140.102 57.431 139.82 57.1429 139.82 56.7877C139.82 56.4326 140.102 56.1445 140.45 56.1445C140.798 56.1445 141.079 56.4326 141.079 56.7877Z" fill="#282828"/>
<path d="M141.143 56.7935C141.143 57.1842 140.833 57.501 140.45 57.501C140.068 57.501 139.758 57.1842 139.758 56.7935C139.758 56.4028 140.068 56.0859 140.45 56.0859C140.833 56.0859 141.143 56.4028 141.143 56.7935Z" fill="#FFB1A5"/>
<path d="M122.973 105.468C122.973 105.468 128.932 104.909 133.007 102.154L132.9 99.7305L122.969 101.117L122.973 105.468Z" fill="#F3968E"/>
<path d="M56.2167 81.4182L70.8061 98.033C70.8061 98.033 79.3062 106.668 74.1721 111.657C69.8457 114.688 66.8601 110.607 66.8601 110.607C66.8601 110.607 55.7038 95.6819 50.5459 84.0386C50.5459 84.0386 50.2399 82.3758 52.7475 81.2067C55.2752 80.0283 56.2167 81.4182 56.2167 81.4182Z" fill="#FFB0A4"/>
<path d="M57.5829 84.1385C57.6374 85.994 56.2134 87.5439 54.4023 87.5998C52.5912 87.6556 51.0789 86.1961 51.0244 84.3407C50.9699 82.4849 52.3939 80.9352 54.205 80.8794C56.0161 80.8236 57.5284 82.2827 57.5829 84.1385Z" fill="#FFB0A4"/>
<path d="M56.4972 81.9189C56.4972 81.9189 56.9396 84.0901 54.6152 85.0455C52.4963 85.9169 51.162 84.8263 50.5047 84.3904C48.1347 82.8201 45.6626 76.4154 45.6626 76.4154C45.6626 76.4154 54.5114 71.886 54.4392 72.0339C54.3664 72.1824 56.4972 81.9189 56.4972 81.9189Z" fill="#FFB0A4"/>
<path d="M56.5058 81.9239C56.3676 81.425 57.7289 75.744 58.178 73.6199C58.2863 73.1078 57.8981 72.5998 57.3628 72.5521C57.0143 72.5212 56.4775 72.6216 56.2721 73.1507L54.3699 77.4392L56.5058 81.9239Z" fill="#FFB0A4"/>
<path d="M55.7373 76.0117L53.3386 68.0963C53.1904 67.5683 52.6256 67.2534 52.1096 67.4109C51.6633 67.5471 51.4044 67.9949 51.5053 68.4571L52.8019 74.4025L55.7373 76.0117Z" fill="#FFB0A4"/>
<path d="M52.2776 73.3775L49.5437 67.8332C49.3148 67.3466 48.7314 67.1252 48.2581 67.3453C47.8479 67.536 47.6535 68 47.7996 68.4399L50.0683 74.9408L52.2776 73.3775Z" fill="#FFB0A4"/>
<path d="M50.1479 75.3156L46.8532 69.9327C46.5504 69.4326 45.9035 69.2538 45.416 69.5352C44.9577 69.7996 44.8015 70.3788 45.0579 70.8632L47.768 75.988L50.1479 75.3156Z" fill="#FFB0A4"/>
<path d="M45.6746 76.4227L43.1879 73.1751C42.9696 72.7852 43.0871 72.3096 43.4562 72.0877C43.8093 71.875 44.2806 71.9628 44.5561 72.293L47.7683 75.9913L45.6746 76.4227Z" fill="#FFB0A4"/>
<path d="M53.7998 76.4101C53.7998 76.4101 50.7501 77.5453 52.3341 81.6556" stroke="#282828" stroke-width="0.46064" stroke-linecap="round" stroke-linejoin="round"/>
<path d="M67.6652 101.243C65.02 104.472 64.4204 108.544 67.54 111.292C68.6617 112.28 70.3826 113.074 71.9632 112.681C77.2318 111.37 85.3107 99.8221 85.3107 99.8221L83.2507 80.1032L69.156 99.1134L67.6652 101.243Z" fill="#FFB0A4"/>
<path d="M73.1593 93.1149C73.1593 93.1149 78.2501 100.794 82.5505 103.473L85.305 99.825L74.429 91.4031L73.1593 93.1149Z" fill="#F3968E"/>
<path d="M95.0761 70.148C95.0761 70.148 80.3852 73.571 72.5852 91.0888C72.5852 91.0888 77.3307 98.386 84.9231 101.619L89.9904 95.2331L95.0761 70.148Z" fill="#5D3393"/>
<path d="M87.4102 125.793L87.4261 156.182H103.665L104.792 125.793H87.4102Z" fill="#272448"/>
<path d="M105.035 125.793L106.163 156.182H122.401L122.417 125.793H105.035Z" fill="#272448"/>
<path d="M113.614 137.397H96.9414V125.793H113.614V137.397Z" fill="#272448"/>
<path d="M99.2656 137.395H110.765" stroke="#282828" stroke-width="0.420049" stroke-linecap="round" stroke-linejoin="round"/>
<path d="M132.607 96.6367C133.607 107.955 132.552 116.201 132.844 137.026L123.219 137.439L121.785 98.4576L132.607 96.6367Z" fill="#FFB0A4"/>
<path d="M113.41 70.5859C113.41 70.5859 132.341 75.4641 135.77 100.086C135.77 100.086 126.505 104.202 117.22 102.431L119.309 94.1965L113.41 70.5859Z" fill="#5D3393"/>
<path d="M95.0657 70.1005C89.3245 73.118 85.7148 77.12 85.7148 77.12L86.8475 128.283H123.028L122.91 77.3837C122.91 77.3837 118.35 72.8108 113.407 70.5814C109.209 68.6878 99.1471 67.9554 95.0657 70.1005Z" fill="#5D3393"/>
<path d="M116.159 92.3754C114.641 92.3754 113.41 91.1146 113.41 89.5593V86.5547H118.907V89.5593C118.907 91.1146 117.676 92.3754 116.159 92.3754Z" stroke="#282828" stroke-width="0.300679" stroke-miterlimit="10"/>
<path d="M122.973 102.616L123.442 85.8789" stroke="#282828" stroke-width="0.420049" stroke-linecap="round" stroke-linejoin="round"/>
<path d="M86.274 99.8361L85.4922 85.3281" stroke="#282828" stroke-width="0.420049" stroke-linecap="round" stroke-linejoin="round"/>
<path d="M95.4883 51.4152L93.9798 43.7699C93.8951 43.1472 93.6593 42.1863 93.948 41.2832C94.4257 39.7892 96.1814 36.9202 99.1822 38.2336L99.8308 41.2607C99.8308 41.2607 96.7148 41.9053 95.4649 46.0825L95.4883 51.4152Z" fill="#282828"/>
<path d="M98.9681 39.8125C98.9134 40.8172 98.0481 45.2126 95.0061 46.8138C95.0061 46.8138 92.3412 40.9583 98.9681 39.8125Z" fill="#282828"/>
<path d="M109.637 68.6932V55.7109H97.9572V68.6932L94.4805 70.3172C94.4805 70.3172 95.2959 75.6979 103.919 75.8174C112.543 75.9367 113.409 70.5822 113.409 70.5822L109.637 68.6932Z" fill="#FFB0A4"/>
<path d="M99.1875 38.2334C99.1875 38.2334 101.331 32.4392 107.941 35.5196C111.941 37.3839 113.062 39.8836 113.539 41.6548C113.697 42.2433 113.76 43.1701 113.717 43.7207L112.118 51.4153L105.876 40.7694L99.8361 41.2605L99.1875 38.2334Z" fill="#282828"/>
<path d="M112.115 51.4206C112.115 51.4206 112.903 50.1371 114.527 50.7684C116.151 51.3997 115.416 55.4411 112.98 55.9562C112.98 55.9562 112.107 56.1512 111.422 55.5387C111.422 55.5387 112.021 52.5535 112.115 51.4206Z" fill="#F3968E"/>
<path d="M114.201 52.1859C114.201 52.1859 112.841 51.7207 111.875 53.7733" stroke="#282828" stroke-width="0.420049" stroke-linecap="round" stroke-linejoin="round"/>
<path d="M95.4902 51.4206C95.4902 51.4206 94.7024 50.1371 93.0784 50.7684C91.4545 51.3997 92.1893 55.4411 94.6254 55.9562C94.6254 55.9562 95.4986 56.1512 96.1835 55.5387C96.1835 55.5387 95.5843 52.5535 95.4902 51.4206Z" fill="#F3968E"/>
<path d="M93.4023 52.1859C93.4023 52.1859 94.7624 51.7207 95.728 53.7733" stroke="#282828" stroke-width="0.420049" stroke-linecap="round" stroke-linejoin="round"/>
<path d="M112.28 47.5805C112.28 50.017 112.047 55.1146 110.585 58.1398C109.213 60.9805 106.943 62.5093 103.967 62.6005C100.991 62.6914 98.774 61.516 96.9973 57.8296C95.2205 54.1428 95.3053 47.6258 95.3053 47.6258C95.3053 47.6258 95.3053 38.9219 103.7 38.9219C112.542 38.9219 112.28 47.5805 112.28 47.5805Z" fill="#FFB0A4"/>
<path d="M98.043 59.6445C98.043 59.6445 99.0208 64.7298 103.34 65.3142C108.311 65.9865 109.635 59.7736 109.635 59.7736C109.635 59.7736 107.438 62.594 103.965 62.5983C100.091 62.6036 98.043 59.6445 98.043 59.6445Z" fill="#282828"/>
<path d="M103.199 51.1914V53.2058C103.199 53.2923 103.215 53.3749 103.245 53.451C103.362 53.7495 103.697 53.8924 104 53.8098L104.651 53.6321" stroke="#282828" stroke-width="0.420049" stroke-linecap="round" stroke-linejoin="round"/>
<path d="M105.156 46.335L110.293 47.6953C110.293 47.6953 110.06 46.2185 107.958 45.6819C105.856 45.1456 105.156 46.335 105.156 46.335Z" fill="#282828"/>
<path d="M101.97 46.335L96.832 47.6953C96.832 47.6953 97.0656 46.2185 99.1673 45.6819C101.269 45.1456 101.97 46.335 101.97 46.335Z" fill="#282828"/>
<path d="M100.949 55.2344C100.949 55.2344 101.707 55.8296 103.7 55.8296C105.513 55.8296 106.645 55.2344 106.645 55.2344" stroke="#282828" stroke-width="0.420049" stroke-linecap="round" stroke-linejoin="round"/>
<path d="M102.999 50.4642C102.999 52.3021 101.545 53.7918 99.7515 53.7918C97.958 53.7918 96.5039 52.3021 96.5039 50.4642C96.5039 48.6264 97.958 47.1367 99.7515 47.1367C101.545 47.1367 102.999 48.6264 102.999 50.4642Z" stroke="white" stroke-width="0.586625" stroke-miterlimit="10"/>
<path d="M110.972 50.4642C110.972 52.3021 109.518 53.7918 107.724 53.7918C105.931 53.7918 104.477 52.3021 104.477 50.4642C104.477 48.6264 105.931 47.1367 107.724 47.1367C109.518 47.1367 110.972 48.6264 110.972 50.4642Z" stroke="white" stroke-width="0.586625" stroke-miterlimit="10"/>
<path d="M102.988 50.4557C102.988 50.4557 103.757 49.7204 104.471 50.4557" stroke="white" stroke-width="0.586625" stroke-miterlimit="10"/>
<path d="M96.499 50.4652L95.4102 50.4375" stroke="white" stroke-width="0.586625" stroke-miterlimit="10"/>
<path d="M110.973 50.4606L112.188 50.4414" stroke="white" stroke-width="0.586625" stroke-miterlimit="10"/>
<path d="M98.043 40.0075C98.043 40.0075 99.6026 44.5477 106.64 44.4084C111.421 44.3138 112.564 47.8592 112.564 47.8592C112.564 47.8592 111.732 39.9326 111.513 40.0075C111.294 40.0823 104.237 38.0781 104.237 38.0781L98.043 40.0075Z" fill="#282828"/>
<path d="M100.732 50.2362C100.732 50.6684 100.389 51.0193 99.967 51.0193C99.5452 51.0193 99.2031 50.6684 99.2031 50.2362C99.2031 49.8037 99.5452 49.4531 99.967 49.4531C100.389 49.4531 100.732 49.8037 100.732 50.2362Z" fill="#282828"/>
<path d="M100.783 50.2325C100.783 50.7079 100.406 51.0938 99.9419 51.0938C99.4779 51.0938 99.1016 50.7079 99.1016 50.2325C99.1016 49.7567 99.4779 49.3711 99.9419 49.3711C100.406 49.3711 100.783 49.7567 100.783 50.2325Z" fill="#FFB1A5"/>
<path d="M107.884 50.2362C107.884 50.6684 107.541 51.0193 107.12 51.0193C106.698 51.0193 106.355 50.6684 106.355 50.2362C106.355 49.8037 106.698 49.4531 107.12 49.4531C107.541 49.4531 107.884 49.8037 107.884 50.2362Z" fill="#282828"/>
<path d="M107.951 50.2325C107.951 50.7079 107.574 51.0938 107.11 51.0938C106.646 51.0938 106.27 50.7079 106.27 50.2325C106.27 49.7567 106.646 49.3711 107.11 49.3711C107.574 49.3711 107.951 49.7567 107.951 50.2325Z" fill="#FFB1A5"/>
</g>
<path d="M42.6693 30.9297H12" stroke="#1E147E" stroke-width="2.40543" stroke-linecap="round"/>
<defs>
<linearGradient id="paint0_linear_2371_158647" x1="193.197" y1="75.3199" x2="169.737" y2="72.3577" gradientUnits="userSpaceOnUse">
<stop stop-color="#400789"/>
<stop offset="1" stop-color="#9E64E7"/>
</linearGradient>
<linearGradient id="paint1_linear_2371_158647" x1="38.3218" y1="106.516" x2="15.3275" y2="103.979" gradientUnits="userSpaceOnUse">
<stop stop-color="#400789"/>
<stop offset="1" stop-color="#9E64E7"/>
</linearGradient>
<linearGradient id="paint2_linear_2371_158647" x1="158.58" y1="30.935" x2="128.198" y2="19.5842" gradientUnits="userSpaceOnUse">
<stop stop-color="#400789"/>
<stop offset="1" stop-color="#9E64E7"/>
</linearGradient>
<linearGradient id="paint3_linear_2371_158647" x1="152.421" y1="25.8945" x2="148.865" y2="17.5312" gradientUnits="userSpaceOnUse">
<stop stop-color="#400789"/>
<stop offset="1" stop-color="#9E64E7"/>
</linearGradient>
<linearGradient id="paint4_linear_2371_158647" x1="139.737" y1="28.1484" x2="134.803" y2="23.423" gradientUnits="userSpaceOnUse">
<stop stop-color="#400789"/>
<stop offset="1" stop-color="#9E64E7"/>
</linearGradient>
<linearGradient id="paint5_linear_2371_158647" x1="134.645" y1="33.5283" x2="129.861" y2="32.8831" gradientUnits="userSpaceOnUse">
<stop stop-color="#400789"/>
<stop offset="1" stop-color="#9E64E7"/>
</linearGradient>
<linearGradient id="paint6_linear_2371_158647" x1="85.6848" y1="31.493" x2="65.2508" y2="29.1773" gradientUnits="userSpaceOnUse">
<stop stop-color="#400789"/>
<stop offset="1" stop-color="#9E64E7"/>
</linearGradient>
</defs>
</svg>
