<svg width="244" height="174" viewBox="0 0 244 174" fill="none" xmlns="http://www.w3.org/2000/svg">
<g clip-path="url(#clip0_2020_147346)">
<path d="M133.383 74.7409H166.386C166.386 70.5411 162.983 67.1381 158.783 67.1381C158.351 67.1381 157.932 67.1729 157.522 67.2424C155.819 63.8344 152.297 61.4961 148.226 61.4961C145.784 61.4961 143.538 62.3399 141.765 63.7548C140.07 65.1002 138.804 66.9718 138.213 69.1214C135.48 69.5334 133.383 71.8913 133.383 74.7409Z" fill="#E6E6E6"/>
<path d="M42.4063 23.2657H13.2539C13.2539 19.556 16.2599 16.55 19.9698 16.55C20.3512 16.55 20.7218 16.5807 21.0836 16.6421C22.5876 13.6317 25.699 11.5664 29.2947 11.5664C31.4521 11.5664 33.4365 12.3118 35.0019 13.5615C36.4995 14.7499 37.6177 16.4031 38.1396 18.3019C40.5535 18.6659 42.4063 20.7486 42.4063 23.2657Z" fill="#E6E6E6"/>
<path d="M185.846 21.6897H134.055C135.367 18.9209 138.188 17.0044 141.456 17.0044C141.562 17.0044 141.665 17.0071 141.768 17.0127C143.509 14.5336 146.386 12.9152 149.645 12.9152C150.08 12.9152 150.509 12.9431 150.927 13.0016C152.982 8.06571 157.851 4.59766 163.531 4.59766C169.18 4.59766 174.024 8.02669 176.099 12.9181C176.155 12.9152 176.211 12.9152 176.266 12.9152C181.294 12.9152 185.42 16.7731 185.846 21.6897Z" fill="#E6E6E6"/>
<g filter="url(#filter0_f_2020_147346)">
<path d="M21.5312 154.295C21.5312 150.827 26.0605 148.016 31.6477 148.016H218.635C224.223 148.016 228.752 150.827 228.752 154.295C228.752 157.763 224.223 160.574 218.635 160.574H31.6477C26.0605 160.574 21.5312 157.763 21.5312 154.295Z" fill="#1A1A1A"/>
</g>
<g opacity="0.999998">
<path d="M34.18 153.194L79.6305 144.56C84.8198 143.574 88.2274 138.568 87.2418 133.379L68.9358 37.0113C67.95 31.822 62.9442 28.4145 57.755 29.4002L12.3044 38.0338C7.11513 39.0197 3.70744 44.0255 4.69321 49.2148L22.9992 145.583C23.9848 150.772 28.9906 154.179 34.18 153.194Z" fill="#1E0E36"/>
</g>
<g opacity="0.999998">
<path d="M92.934 132.412L89.767 114.761L92.934 132.412ZM74.6278 36.0424C73.642 30.853 68.6367 27.4457 63.4474 28.4315L17.9977 37.065C12.8083 38.0507 9.39878 43.0564 10.3845 48.2458L28.6908 144.615C29.6766 149.805 34.6842 153.212 39.8736 152.226L85.3233 143.592C90.5126 142.606 93.9198 137.601 92.934 132.412M89.657 133.034C90.2978 136.407 88.0737 139.675 84.7008 140.315L39.251 148.949C35.8757 149.59 32.6108 147.365 31.9702 143.992L13.6638 47.623C13.0232 44.2501 15.2454 40.9855 18.6206 40.3443L64.0703 31.7109C67.4433 31.0701 70.7101 33.2917 71.3508 36.6647" fill="#EFEFEF"/>
</g>
<g opacity="0.999998">
<path d="M89.654 133.035C90.2948 136.408 88.0707 139.675 84.6978 140.316L39.248 148.95C35.8727 149.591 32.6078 147.366 31.9672 143.993L13.6608 47.6237C13.0202 44.2509 15.2424 40.9863 18.6177 40.3451L64.0673 31.7117C67.4403 31.0709 70.7072 33.2925 71.3478 36.6655" fill="white"/>
</g>
<path d="M21.5317 106.928L28.6908 144.615C29.6765 149.805 34.6842 153.212 39.8734 152.226L86.4486 143.307M80.7692 68.3723L74.6277 36.0424C73.642 30.853 68.6367 27.4458 63.4473 28.4315L17.9976 37.0649C12.8083 38.0507 9.39887 43.0566 10.3845 48.2459L20.1505 99.6571" stroke="#324149" stroke-width="0.933394" stroke-linecap="round" stroke-linejoin="round"/>
<g opacity="0.999993">
<path d="M68.5793 86.0915C69.7318 94.7029 63.6852 102.618 55.0738 103.771C46.4625 104.923 38.5474 98.8767 37.3948 90.2654C36.2422 81.654 42.2887 73.7388 50.9001 72.5862C59.5115 71.4335 67.4267 77.4801 68.5793 86.0915Z" fill="url(#paint0_linear_2020_147346)"/>
<path d="M59.866 81.4023L52.8612 93.2635L48.0859 89.3165" stroke="white" stroke-width="4.80012" stroke-linecap="round" stroke-linejoin="round"/>
</g>
<path d="M67.4896 57.1226L26.6665 65.1616C25.3119 65.4285 23.9974 64.5467 23.7307 63.1919L21.528 52.0068C21.2613 50.6522 22.1433 49.3378 23.4979 49.071L64.321 41.0319C65.6758 40.7652 66.9901 41.6473 67.2569 43.0019L69.4595 54.1868C69.7263 55.5414 68.8444 56.8558 67.4896 57.1226Z" fill="url(#paint1_linear_2020_147346)"/>
<path d="M129.472 97.7185H122.805V92.707H129.472V97.7185Z" fill="url(#paint2_linear_2020_147346)" stroke="#324149" stroke-width="0.666691" stroke-linecap="round" stroke-linejoin="round"/>
<path d="M137.885 115.786H113.707L119.006 95.5898H132.586L137.885 115.786Z" fill="url(#paint3_linear_2020_147346)"/>
<path d="M121.046 102.926H114.379V97.9141H121.046V102.926Z" stroke="#324149" stroke-width="0.666691" stroke-linecap="round" stroke-linejoin="round"/>
<path d="M127.448 117.011H107.98L112.247 100.75H123.181L127.448 117.011Z" fill="#E6C10C"/>
<path d="M105.828 112.324L111.411 131.45H134.837L140.3 112.324H105.828Z" fill="white"/>
<path d="M114.103 131.452L108.007 110.569C107.48 108.762 106.348 107.524 104.547 107.191" stroke="#324149" stroke-width="0.666691" stroke-linecap="round" stroke-linejoin="round"/>
<path d="M125.23 138.642C125.23 140.457 126.702 141.929 128.517 141.929C130.332 141.929 131.804 140.457 131.804 138.642C131.804 136.827 130.332 135.355 128.517 135.355C126.702 135.355 125.23 136.827 125.23 138.642Z" fill="#1E0E36"/>
<path d="M113.961 138.74C113.961 140.555 115.432 142.026 117.248 142.026C119.063 142.026 120.534 140.555 120.534 138.74C120.534 136.925 119.063 135.453 117.248 135.453C115.432 135.453 113.961 136.925 113.961 138.74Z" fill="#1E0E36"/>
<path d="M123.156 112.324V131.45" stroke="#324149" stroke-width="0.666691" stroke-linecap="round" stroke-linejoin="round"/>
<path d="M136.468 125.668H109.723" stroke="#324149" stroke-width="0.666691" stroke-linecap="round" stroke-linejoin="round"/>
<path d="M138.324 119.238H108.164" stroke="#324149" stroke-width="0.666691" stroke-linecap="round" stroke-linejoin="round"/>
<path d="M208.395 153.194L162.945 144.56C157.756 143.574 154.348 138.568 155.334 133.379L173.64 37.0113C174.625 31.822 179.631 28.4145 184.821 29.4002L230.271 38.0338C235.46 39.0197 238.868 44.0255 237.882 49.2148L219.576 145.583C218.591 150.772 213.585 154.179 208.395 153.194Z" fill="#1E0E36"/>
<path d="M152.809 114.761L149.642 132.412L152.809 114.761ZM149.642 132.412C148.657 137.601 152.064 142.606 157.253 143.592L202.703 152.226C207.892 153.212 212.9 149.805 213.886 144.615L232.192 48.2458C233.178 43.0564 229.768 38.0507 224.579 37.065L179.129 28.4315C173.94 27.4457 168.934 30.853 167.949 36.0424M171.226 36.6647C171.866 33.2917 175.133 31.0701 178.506 31.7109L223.956 40.3443C227.331 40.9854 229.553 44.2501 228.913 47.623L210.606 143.992C209.966 147.365 206.701 149.59 203.325 148.949L157.876 140.315C154.503 139.675 152.279 136.407 152.919 133.034" fill="#E3E3E3"/>
<path d="M152.919 133.035C152.278 136.408 154.502 139.675 157.875 140.316L203.325 148.95C206.7 149.591 209.965 147.366 210.606 143.993L228.912 47.6237C229.552 44.2509 227.33 40.9863 223.955 40.3451L178.505 31.7117C175.132 31.0709 171.866 33.2925 171.225 36.6655" fill="#F9F9F9"/>
<path d="M179.812 147.878L202.702 152.226C207.891 153.212 212.899 149.805 213.885 144.615L220.767 108.383M222.425 99.6572L232.191 48.2459C233.177 43.0565 229.767 38.0507 224.578 37.0648L179.128 28.4315C173.939 27.4457 168.934 30.853 167.948 36.0423L152.809 117.009" stroke="#324149" stroke-width="0.933394" stroke-linecap="round" stroke-linejoin="round"/>
<path d="M216.628 66.6571L175.729 59.0152C174.372 58.7616 173.477 57.4558 173.73 56.0986L175.824 44.8928C176.078 43.5356 177.384 42.6409 178.741 42.8945L219.64 50.5366C220.997 50.7902 221.892 52.096 221.638 53.4532L219.544 64.659C219.291 66.0162 217.985 66.9107 216.628 66.6571Z" fill="url(#paint4_linear_2020_147346)"/>
<path d="M168.633 124.595L172.469 106.01C172.626 105.246 173.373 104.755 174.137 104.912L201.959 110.654C202.722 110.812 203.214 111.559 203.056 112.323L197.994 136.85C197.836 137.614 197.089 138.105 196.326 137.948L173.416 133.219" stroke="#324149" stroke-width="0.933394" stroke-linecap="round" stroke-linejoin="round"/>
<path d="M187.598 116.838L184.877 116.276C184.113 116.119 183.622 115.372 183.779 114.608L184.139 112.865C184.297 112.101 185.044 111.61 185.807 111.768L188.528 112.329C189.292 112.487 189.783 113.234 189.626 113.998L189.266 115.74C189.109 116.504 188.362 116.995 187.598 116.838Z" fill="url(#paint5_linear_2020_147346)"/>
<path d="M195.828 118.533L193.107 117.971C192.344 117.814 191.852 117.067 192.01 116.303L192.369 114.561C192.527 113.797 193.274 113.305 194.038 113.463L196.759 114.025C197.522 114.182 198.014 114.929 197.856 115.693L197.497 117.435C197.339 118.199 196.592 118.691 195.828 118.533Z" fill="url(#paint6_linear_2020_147346)"/>
<g opacity="0.999999">
<path d="M177.891 122.303L175.17 121.741C174.406 121.583 173.915 120.837 174.072 120.073L174.432 118.33C174.59 117.566 175.337 117.075 176.1 117.233L178.821 117.794C179.585 117.952 180.076 118.699 179.919 119.463L179.559 121.205C179.401 121.969 178.655 122.46 177.891 122.303Z" fill="url(#paint7_linear_2020_147346)"/>
</g>
<path d="M186.117 123.998L183.397 123.436C182.633 123.279 182.141 122.532 182.299 121.768L182.659 120.025C182.816 119.262 183.563 118.77 184.327 118.928L187.048 119.489C187.812 119.647 188.303 120.394 188.145 121.158L187.786 122.9C187.628 123.664 186.881 124.155 186.117 123.998Z" fill="url(#paint8_linear_2020_147346)"/>
<path d="M194.348 125.697L191.627 125.136C190.863 124.978 190.372 124.231 190.529 123.467L190.889 121.725C191.047 120.961 191.794 120.469 192.557 120.627L195.278 121.189C196.042 121.346 196.533 122.093 196.376 122.857L196.016 124.6C195.859 125.363 195.112 125.855 194.348 125.697Z" fill="#E6C10C"/>
<path d="M176.41 129.463L173.69 128.901C172.926 128.743 172.434 127.997 172.592 127.233L172.952 125.49C173.109 124.726 173.856 124.235 174.62 124.393L177.341 124.954C178.104 125.112 178.596 125.859 178.438 126.623L178.079 128.365C177.921 129.129 177.174 129.62 176.41 129.463Z" fill="url(#paint9_linear_2020_147346)"/>
<path d="M184.641 131.162L181.92 130.6C181.156 130.443 180.665 129.696 180.822 128.932L181.182 127.19C181.34 126.426 182.087 125.934 182.85 126.092L185.571 126.653C186.335 126.811 186.826 127.558 186.669 128.322L186.309 130.064C186.151 130.828 185.405 131.32 184.641 131.162Z" fill="url(#paint10_linear_2020_147346)"/>
<path d="M192.871 132.861L190.15 132.3C189.387 132.142 188.895 131.395 189.053 130.631L189.412 128.889C189.57 128.125 190.317 127.634 191.081 127.791L193.802 128.353C194.565 128.51 195.057 129.257 194.899 130.021L194.54 131.764C194.382 132.527 193.635 133.019 192.871 132.861Z" fill="url(#paint11_linear_2020_147346)"/>
<path d="M207.746 84.8643C208.114 93.3969 201.496 100.612 192.963 100.98C184.43 101.348 177.215 94.7299 176.847 86.1972C176.479 77.6645 183.097 70.4491 191.63 70.0811C200.163 69.7129 207.378 76.3316 207.746 84.8643Z" fill="url(#paint12_linear_2020_147346)"/>
<path d="M196.11 87.0182C195.52 86.2054 194.531 85.3497 193.146 84.4578C192.405 83.9811 191.912 83.5472 191.673 83.1519C191.439 82.7636 191.371 82.3048 191.477 81.7765C191.588 81.2187 191.818 80.7948 192.173 80.5173C192.527 80.2399 192.995 80.1561 193.576 80.2717C194.151 80.3862 194.554 80.692 194.803 81.1929C194.924 81.4429 194.994 81.7315 195.015 82.059C195.06 82.721 195.589 83.2532 196.24 83.3829L196.27 83.3886C197.206 83.5625 198.089 82.8044 197.989 81.8632C197.926 81.2893 197.768 80.7636 197.505 80.278C197.032 79.4027 196.288 78.7545 195.272 78.339L195.5 77.1942C195.558 76.9008 195.501 76.6085 195.353 76.3716C195.349 76.3586 195.34 76.3446 195.33 76.3305C195.166 76.0841 194.908 75.905 194.597 75.843C194.286 75.7811 193.98 75.8483 193.733 76.013C193.487 76.1776 193.308 76.4348 193.246 76.7459L193.025 77.8556C191.912 77.8049 190.955 78.0479 190.16 78.5793C189.28 79.1672 188.73 80.0281 188.503 81.1728C188.259 82.3998 188.433 83.429 189.032 84.2499C189.626 85.0698 190.624 85.9091 192.023 86.761C192.733 87.2132 193.209 87.6434 193.457 88.0528C193.705 88.4623 193.775 88.94 193.665 89.4918C193.554 90.0494 193.301 90.463 192.907 90.7262C192.507 90.9884 192.004 91.0594 191.382 90.9356C190.736 90.8072 190.248 90.5025 189.903 90.0253C189.713 89.7554 189.603 89.4163 189.581 89.009C189.539 88.36 189.025 87.843 188.391 87.7169L188.362 87.711C187.355 87.529 186.476 88.3857 186.611 89.395C186.694 90.0216 186.908 90.5709 187.258 91.0552C187.909 91.9536 188.829 92.6064 190.016 92.989L189.837 93.8872C189.801 94.0692 189.807 94.2534 189.865 94.4236C189.887 94.5256 189.93 94.6195 189.985 94.7097C189.988 94.7228 189.998 94.7368 190.007 94.7509C190.172 94.9971 190.429 95.1764 190.74 95.2382C190.969 95.2838 191.2 95.2566 191.399 95.1801C191.472 95.1459 191.541 95.1107 191.604 95.0683C191.85 94.9038 192.03 94.6466 192.091 94.3355L192.284 93.3667C193.335 93.3927 194.229 93.1616 194.983 92.6832C195.846 92.1164 196.398 91.2435 196.633 90.0638C196.874 88.8485 196.703 87.8381 196.11 87.0182Z" fill="white"/>
<path d="M196.11 87.0182C195.52 86.2054 194.531 85.3497 193.146 84.4578C192.405 83.9811 191.912 83.5472 191.673 83.1519C191.439 82.7636 191.371 82.3048 191.477 81.7765C191.588 81.2187 191.818 80.7948 192.173 80.5173C192.527 80.2399 192.995 80.1561 193.576 80.2717C194.151 80.3862 194.554 80.692 194.803 81.1929C194.924 81.4429 194.994 81.7315 195.015 82.059C195.06 82.721 195.589 83.2532 196.24 83.3829L196.27 83.3886C197.206 83.5625 198.089 82.8044 197.989 81.8632C197.926 81.2893 197.768 80.7636 197.505 80.278C197.032 79.4027 196.288 78.7545 195.272 78.339L195.5 77.1942C195.558 76.9008 195.501 76.6085 195.353 76.3716C195.349 76.3586 195.34 76.3446 195.33 76.3305C195.166 76.0841 194.908 75.905 194.597 75.843C194.286 75.7811 193.98 75.8483 193.733 76.013C193.487 76.1776 193.308 76.4348 193.246 76.7459L193.025 77.8556C191.912 77.8049 190.955 78.0479 190.16 78.5793C189.28 79.1672 188.73 80.0281 188.503 81.1728C188.259 82.3998 188.433 83.429 189.032 84.2499C189.626 85.0698 190.624 85.9091 192.023 86.761C192.733 87.2132 193.209 87.6434 193.457 88.0528C193.705 88.4623 193.775 88.94 193.665 89.4918C193.554 90.0494 193.301 90.463 192.907 90.7262C192.507 90.9884 192.004 91.0594 191.382 90.9356C190.736 90.8072 190.248 90.5025 189.903 90.0253C189.713 89.7554 189.603 89.4163 189.581 89.009C189.539 88.36 189.025 87.843 188.391 87.7169L188.362 87.711C187.355 87.529 186.476 88.3857 186.611 89.395C186.694 90.0216 186.908 90.5709 187.258 91.0552C187.909 91.9536 188.829 92.6064 190.016 92.989L189.837 93.8872C189.801 94.0692 189.807 94.2534 189.865 94.4236C189.887 94.5256 189.93 94.6195 189.985 94.7097C189.988 94.7228 189.998 94.7368 190.007 94.7509C190.172 94.9971 190.429 95.1764 190.74 95.2382C190.969 95.2838 191.2 95.2566 191.399 95.1801C191.472 95.1459 191.541 95.1107 191.604 95.0683C191.85 94.9038 192.03 94.6466 192.091 94.3355L192.284 93.3667C193.335 93.3927 194.229 93.1616 194.983 92.6832C195.846 92.1164 196.398 91.2435 196.633 90.0638C196.874 88.8485 196.703 87.8381 196.11 87.0182Z" stroke="white" stroke-width="1.21253" stroke-miterlimit="10"/>
<path d="M103.976 77.342C99.7864 76.368 97.1792 72.1818 98.1532 67.9918C99.1272 63.8018 103.314 61.1949 107.504 62.1689C111.694 63.143 114.301 67.3292 113.327 71.519C112.353 75.709 108.166 78.316 103.976 77.342Z" fill="white"/>
<path d="M103.976 77.342C99.7864 76.368 97.1792 72.1818 98.1532 67.9918C99.1272 63.8018 103.314 61.1949 107.504 62.1689C111.694 63.143 114.301 67.3292 113.327 71.519C112.353 75.709 108.166 78.316 103.976 77.342Z" stroke="#324149" stroke-width="0.666691" stroke-linecap="round" stroke-linejoin="round"/>
<path d="M104.149 71.7654C104.705 71.5587 105.35 71.1308 106.078 70.4833C106.467 70.1366 106.792 69.9242 107.055 69.8509C107.314 69.7791 107.586 69.8135 107.87 69.9572C108.17 70.1088 108.375 70.3075 108.477 70.5534C108.579 70.7992 108.553 71.0792 108.395 71.392C108.238 71.7018 108 71.8828 107.675 71.9448C107.514 71.9743 107.338 71.9688 107.148 71.9283C106.764 71.8491 106.377 72.0661 106.199 72.4167L106.191 72.4325C105.944 72.9382 106.236 73.5615 106.788 73.654C107.125 73.7092 107.449 73.7027 107.768 73.6296C108.342 73.4991 108.829 73.178 109.227 72.6653L109.843 72.9765C110.001 73.0563 110.177 73.0696 110.335 73.0229C110.343 73.0229 110.352 73.0199 110.362 73.0167C110.529 72.962 110.671 72.8438 110.756 72.6763C110.841 72.5089 110.851 72.3237 110.796 72.1573C110.741 71.9908 110.623 71.8478 110.456 71.7632L109.859 71.4616C110.064 70.8354 110.078 70.2514 109.901 69.7139C109.705 69.1195 109.302 68.6698 108.686 68.3585C108.025 68.0248 107.412 67.9605 106.849 68.172C106.287 68.3801 105.651 68.816 104.943 69.478C104.573 69.8104 104.253 70.0133 103.98 70.0898C103.707 70.1663 103.424 70.1303 103.127 69.9801C102.827 69.8285 102.632 69.6187 102.544 69.3524C102.458 69.0828 102.497 68.7854 102.667 68.4506C102.842 68.103 103.093 67.8729 103.42 67.7523C103.604 67.6866 103.814 67.678 104.05 67.7297C104.426 67.8088 104.803 67.5982 104.975 67.2569L104.983 67.2412C105.246 66.6961 104.898 66.0598 104.301 65.9765C103.931 65.9244 103.584 65.9593 103.253 66.0814C102.638 66.31 102.12 66.7304 101.713 67.3463L101.23 67.102C101.132 67.0525 101.026 67.0267 100.92 67.0327C100.858 67.0293 100.798 67.0384 100.738 67.0557C100.73 67.0557 100.72 67.0588 100.711 67.0619C100.544 67.1165 100.401 67.2348 100.317 67.4022C100.254 67.5254 100.233 67.6615 100.245 67.7866C100.253 67.8342 100.262 67.8785 100.277 67.9214C100.331 68.0878 100.45 68.2307 100.617 68.3153L101.138 68.5788C100.957 69.1732 100.947 69.7194 101.1 70.2251C101.286 70.8068 101.695 71.2597 102.33 71.5804C102.984 71.9109 103.587 71.9736 104.149 71.7654Z" fill="#E6C10C"/>
<path d="M147.607 50.5538C146.463 54.2876 142.509 56.3875 138.775 55.2437C135.041 54.0999 132.942 50.1458 134.085 46.412C135.229 42.6782 139.183 40.5783 142.917 41.7221C146.651 42.8659 148.751 46.82 147.607 50.5538Z" fill="white"/>
<path d="M147.607 50.5538C146.463 54.2876 142.509 56.3875 138.775 55.2437C135.041 54.0999 132.942 50.1458 134.085 46.412C135.229 42.6782 139.183 40.5783 142.917 41.7221C146.651 42.8659 148.751 46.82 147.607 50.5538Z" stroke="#324149" stroke-width="0.666691" stroke-linecap="round" stroke-linejoin="round"/>
<path d="M142.569 50.05C142.416 49.5331 142.069 48.9226 141.528 48.223C141.238 47.8488 141.066 47.5409 141.016 47.298C140.967 47.0596 141.016 46.8151 141.163 46.5666C141.32 46.3043 141.512 46.131 141.741 46.0541C141.97 45.9772 142.222 46.0186 142.496 46.1813C142.766 46.3424 142.915 46.5694 142.951 46.8674C142.968 47.0156 142.952 47.1744 142.904 47.3438C142.808 47.687 142.98 48.0511 143.287 48.2335L143.301 48.2417C143.743 48.4975 144.326 48.272 144.444 47.7779C144.515 47.4761 144.529 47.1817 144.483 46.8886C144.401 46.361 144.14 45.8996 143.701 45.5072L144.021 44.9687C144.103 44.8305 144.126 44.6722 144.094 44.5258C144.094 44.5185 144.092 44.5099 144.09 44.501C144.051 44.3467 143.953 44.21 143.806 44.1228C143.66 44.0358 143.493 44.015 143.339 44.0541C143.185 44.0933 143.048 44.1913 142.96 44.3377L142.65 44.8597C142.096 44.6347 141.568 44.5859 141.07 44.7124C140.519 44.8523 140.087 45.1895 139.766 45.728C139.423 46.3053 139.326 46.8574 139.483 47.3804C139.636 47.9017 139.991 48.5056 140.547 49.1874C140.825 49.5434 140.988 49.8465 141.041 50.0982C141.093 50.35 141.042 50.6041 140.888 50.8637C140.732 51.1261 140.53 51.29 140.283 51.3528C140.034 51.4138 139.767 51.3596 139.474 51.1854C139.17 51.0047 138.977 50.7629 138.889 50.4596C138.841 50.289 138.846 50.0977 138.907 49.8874C139.003 49.5514 138.835 49.1977 138.537 49.0203L138.523 49.012C138.046 48.7394 137.448 49.0155 137.335 49.5505C137.265 49.8826 137.275 50.1989 137.365 50.5067C137.533 51.0781 137.882 51.5734 138.415 51.9798L138.163 52.4023C138.112 52.4879 138.082 52.5823 138.081 52.6788C138.074 52.7344 138.078 52.7894 138.09 52.8452C138.09 52.8523 138.092 52.8612 138.094 52.87C138.133 53.0241 138.231 53.1609 138.378 53.248C138.485 53.3121 138.607 53.3397 138.722 53.3366C138.765 53.3325 138.806 53.3269 138.846 53.3168C139 53.2777 139.136 53.1796 139.223 53.0332L139.495 52.5775C140.022 52.7788 140.516 52.8222 140.983 52.7152C141.522 52.5831 141.957 52.2403 142.288 51.6852C142.628 51.1135 142.722 50.5714 142.569 50.05Z" fill="#E6C10C"/>
<path d="M114.31 55.542C111.606 53.7308 110.881 50.0701 112.693 47.3652C114.504 44.6605 118.165 43.936 120.869 45.7472C123.574 47.5584 124.298 51.2194 122.487 53.9241C120.676 56.6288 117.015 57.3531 114.31 55.542Z" fill="white"/>
<path d="M114.31 55.542C111.606 53.7308 110.881 50.0701 112.693 47.3652C114.504 44.6605 118.165 43.936 120.869 45.7472C123.574 47.5584 124.298 51.2194 122.487 53.9241C120.676 56.6288 117.015 57.3531 114.31 55.542Z" stroke="#324149" stroke-width="0.666691" stroke-linecap="round" stroke-linejoin="round"/>
<path d="M115.924 51.6419C116.373 51.6446 116.944 51.5143 117.632 51.2508C118 51.1096 118.288 51.0465 118.493 51.065C118.696 51.0835 118.879 51.1806 119.042 51.3584C119.214 51.5462 119.306 51.7416 119.312 51.9429C119.318 52.1442 119.224 52.3354 119.029 52.5145C118.835 52.6918 118.618 52.7561 118.371 52.713C118.249 52.6906 118.126 52.6397 118.003 52.5602C117.752 52.4013 117.42 52.4511 117.201 52.6519L117.191 52.6609C116.88 52.9525 116.92 53.4719 117.286 53.6851C117.51 53.8145 117.741 53.8967 117.986 53.9302C118.427 53.9914 118.858 53.8948 119.277 53.6384L119.63 54.0236C119.72 54.1224 119.841 54.1789 119.966 54.1882C119.971 54.1903 119.979 54.1907 119.986 54.1911C120.119 54.1969 120.252 54.1515 120.356 54.0557C120.461 53.9598 120.518 53.8315 120.524 53.699C120.53 53.5665 120.484 53.4338 120.388 53.329L120.046 52.9556C120.359 52.5674 120.525 52.1576 120.544 51.73C120.565 51.2569 120.4 50.8305 120.047 50.4453C119.669 50.0324 119.252 49.8225 118.797 49.8214C118.344 49.8184 117.776 49.9564 117.099 50.2357C116.748 50.3719 116.466 50.4296 116.253 50.4107C116.039 50.3919 115.849 50.2905 115.679 50.1048C115.507 49.9171 115.425 49.7163 115.434 49.5043C115.445 49.2906 115.553 49.0906 115.762 48.8988C115.979 48.6999 116.219 48.6042 116.482 48.6063C116.63 48.609 116.781 48.6593 116.934 48.7591C117.18 48.9158 117.502 48.8675 117.716 48.6721L117.725 48.6631C118.058 48.3478 117.981 47.8041 117.581 47.5856C117.333 47.4494 117.078 47.3812 116.811 47.3789C116.315 47.3761 115.835 47.535 115.383 47.8621L115.106 47.5598C115.05 47.4985 114.982 47.452 114.906 47.4277C114.863 47.4087 114.818 47.3991 114.77 47.3952C114.765 47.393 114.757 47.3927 114.75 47.3923C114.617 47.3865 114.484 47.4318 114.38 47.5277C114.303 47.5983 114.251 47.689 114.226 47.7808C114.219 47.8164 114.214 47.8503 114.212 47.8845C114.206 48.0168 114.252 48.1497 114.348 48.2543L114.646 48.5803C114.358 48.9526 114.205 49.3365 114.178 49.7353C114.154 50.1968 114.323 50.6272 114.686 51.0241C115.061 51.4332 115.471 51.639 115.924 51.6419Z" fill="#E6C10C"/>
<path d="M165.334 131.788C165.092 131.691 164.835 131.627 164.57 131.589C164.023 131.51 163.444 131.543 162.922 131.632C161.916 131.803 160.934 132.143 160.006 132.615C160.431 131.211 160.797 129.788 161.119 128.358C161.27 127.69 161.907 125.193 162.295 122.633C162.821 119.173 162.893 115.6 160.693 116.289C159.349 116.711 158.176 118.654 157.585 119.841C156.56 121.895 155.827 124.104 155.206 126.31C154.363 129.302 153.744 132.358 153.354 135.441C153.216 133.74 152.906 131.838 152.339 130.06C151.468 127.318 149.99 124.873 147.6 123.915C142.852 122.011 143.477 128.808 144.626 131.257C144.731 131.48 144.841 131.702 144.954 131.921C144.19 131.431 143.355 131.066 142.459 131.002C141.697 130.948 140.912 131.168 140.326 131.596C138.069 133.249 140.188 135.711 141.704 136.974C143.1 138.137 144.603 139.161 146.121 140.162H160.384C161.889 138.964 163.283 137.624 164.556 136.187C165.467 135.157 167.451 132.638 165.334 131.788Z" stroke="#324149" stroke-width="0.666691" stroke-linecap="round" stroke-linejoin="round"/>
<path d="M162.652 139.102L158.67 154.865H147.751L143.77 139.102" fill="#1E0E36"/>
<path d="M84.126 128.17L84.1268 128.181L84.1268 128.182L84.1268 128.182L84.1268 128.182L84.127 128.186L84.1274 128.2C84.1278 128.212 84.128 128.231 84.1276 128.256C84.1269 128.306 84.1238 128.38 84.1141 128.473C84.0948 128.659 84.0494 128.923 83.9449 129.233C83.7362 129.852 83.2911 130.653 82.3435 131.378C81.7836 131.807 80.9966 132.654 80.1339 133.679C79.2699 134.706 78.3262 135.915 77.4522 137.071C76.5781 138.227 75.7733 139.329 75.1871 140.143C74.8939 140.55 74.6554 140.885 74.4902 141.118C74.4075 141.235 74.3432 141.326 74.2996 141.388L74.2499 141.458L74.2432 141.468C74.237 141.47 74.2291 141.474 74.2195 141.478C74.1935 141.488 74.1555 141.503 74.1077 141.521C74.0121 141.555 73.8778 141.6 73.7236 141.637C73.4125 141.711 73.0308 141.755 72.7196 141.648C72.5657 141.595 72.4296 141.505 72.3265 141.364C72.2232 141.222 72.1499 141.024 72.1288 140.75C72.0865 140.199 72.2557 139.352 72.796 138.071C74.3357 134.421 76.1682 130.419 78.1786 126.635C78.7357 125.587 79.1347 124.105 79.442 122.434C79.7495 120.763 79.9662 118.896 80.1565 117.075C80.2034 116.627 80.2486 116.181 80.2933 115.742C80.43 114.396 80.5606 113.11 80.713 111.984C80.9154 110.487 81.1548 109.285 81.4923 108.604C81.6562 108.274 81.8941 108.085 82.1852 108.003C82.4792 107.92 82.8335 107.944 83.2294 108.053C84.0217 108.269 84.957 108.816 85.8557 109.453C86.7529 110.09 87.608 110.813 88.2392 111.378C88.5547 111.66 88.814 111.902 88.9944 112.074C89.0846 112.16 89.155 112.228 89.2029 112.275L89.2484 112.32L84.1297 128.158L84.126 128.17Z" fill="#E6C10C" stroke="#1E0E36" stroke-width="0.126366"/>
<path d="M75.8581 140.642C75.9357 140.905 76.0687 141.129 76.2681 141.317L76.2681 141.317C76.5512 141.586 76.8291 141.745 77.1088 141.894C77.1458 141.913 77.1828 141.933 77.2199 141.952C77.4631 142.08 77.7076 142.209 77.9643 142.403C78.4326 142.756 78.7732 143.37 78.9495 144.029C79.1221 144.674 79.1348 145.352 78.9626 145.858L76.8806 145.839C76.0963 145.829 75.5391 145.655 75.1133 145.339C74.6868 145.024 74.3866 144.563 74.1237 143.969L74.1114 143.941L74.081 143.94C73.4958 143.913 72.9755 144.309 72.8447 144.88L72.6372 145.786L71.1405 145.774L71.1511 139.895L75.7462 139.742C75.7457 139.766 75.7467 139.796 75.7487 139.829C75.7535 139.911 75.7651 140.021 75.7788 140.133C75.7926 140.245 75.8088 140.36 75.8232 140.452C75.8374 140.543 75.8504 140.616 75.8581 140.642ZM75.8581 140.642L75.9052 140.628L75.8581 140.642C75.8581 140.642 75.8581 140.642 75.8581 140.642Z" fill="#1E0E36" stroke="#1E0E36" stroke-width="0.0981968"/>
<path d="M90.5289 125.247L90.5345 125.257L90.5345 125.257L90.5345 125.257L90.5348 125.258L90.5363 125.261L90.5426 125.273C90.548 125.285 90.5561 125.302 90.5661 125.325C90.586 125.371 90.6135 125.439 90.6431 125.528C90.7024 125.705 90.77 125.965 90.8026 126.29C90.8677 126.94 90.7929 127.854 90.2287 128.905C89.8952 129.526 89.5279 130.623 89.1649 131.912C88.8013 133.204 88.4405 134.695 88.121 136.108C87.8016 137.522 87.5234 138.858 87.325 139.842C87.2259 140.333 87.1467 140.736 87.0922 141.017C87.065 141.157 87.044 141.267 87.0298 141.341L87.0137 141.426L87.0115 141.437C87.007 141.442 87.0011 141.449 86.994 141.456C86.9747 141.476 86.9463 141.506 86.9099 141.541C86.8372 141.613 86.7331 141.708 86.6079 141.806C86.3553 142.002 86.0256 142.199 85.698 142.23C85.5359 142.245 85.375 142.22 85.2227 142.133C85.0701 142.047 84.9217 141.897 84.7894 141.656C84.5236 141.171 84.3282 140.33 84.2921 138.94C84.1892 134.98 84.2073 130.578 84.4781 126.302C84.5531 125.117 84.3053 123.603 83.8961 121.954C83.4867 120.305 82.9141 118.515 82.3363 116.777C82.1941 116.35 82.0515 115.925 81.911 115.507C81.4804 114.224 81.0688 112.999 80.743 111.91C80.3101 110.463 80.0323 109.269 80.0589 108.51C80.0718 108.141 80.2108 107.871 80.4422 107.676C80.6758 107.48 81.0085 107.355 81.4138 107.291C82.2249 107.161 83.3025 107.273 84.3841 107.484C85.4641 107.693 86.5414 108 87.3493 108.254C87.753 108.38 88.0892 108.494 88.3244 108.576C88.442 108.617 88.5343 108.65 88.5972 108.673L88.657 108.695L90.5276 125.235L90.5289 125.247Z" fill="#E6C10C" stroke="#1E0E36" stroke-width="0.126366"/>
<path d="M88.4825 141.08C88.5555 141.344 88.6846 141.57 88.8806 141.763L88.8806 141.763C89.159 142.036 89.4341 142.2 89.7111 142.354C89.7478 142.374 89.7845 142.394 89.8211 142.414C90.0621 142.546 90.3044 142.679 90.5576 142.877C91.0196 143.239 91.3495 143.859 91.5143 144.521C91.6756 145.168 91.6764 145.847 91.4954 146.35L89.4141 146.295C88.6301 146.27 88.0761 146.086 87.6558 145.764C87.2349 145.441 86.9427 144.975 86.6903 144.376L86.6784 144.348L86.6481 144.346C86.0634 144.31 85.5363 144.696 85.3956 145.265L85.1723 146.168L83.676 146.129L83.7892 140.251L88.3863 140.179C88.3854 140.203 88.3858 140.232 88.3872 140.265C88.3907 140.348 88.4003 140.458 88.4121 140.57C88.4239 140.682 88.4381 140.797 88.4509 140.89C88.4634 140.98 88.4752 141.054 88.4825 141.08ZM88.4825 141.08L88.5298 141.067L88.4825 141.08C88.4825 141.08 88.4825 141.08 88.4825 141.08Z" fill="#1E0E36" stroke="#1E0E36" stroke-width="0.0981968"/>
<path d="M84.3421 116.559C84.3421 116.559 80.0151 114.388 78.9847 113.043C77.8352 111.542 76.8291 108.768 77.614 106.558C79.1023 102.366 88.4978 106.409 88.4978 106.409L84.3421 116.559Z" fill="#E6C10C"/>
<path d="M86.9674 90.7266L86.9675 90.7266C89.4346 92.0387 90.3963 95.1151 89.1493 97.6172L89.2079 97.6464L89.1493 97.6172C89.0707 97.7749 89.005 97.9221 88.9612 98.0476C88.9186 98.1699 88.8927 98.2824 88.9046 98.3655C89.1136 99.8309 89.9715 102.697 90.7749 105.191C91.177 106.44 91.5661 107.597 91.8546 108.442C91.9989 108.864 92.1181 109.209 92.2012 109.448C92.2427 109.567 92.2752 109.66 92.2974 109.724L92.3206 109.79C91.4068 111.18 89.5595 111.733 86.9561 111.639C84.3394 111.544 80.9819 110.797 77.1008 109.62C77.0725 109.612 77.0388 109.586 77.002 109.533C76.9659 109.481 76.9314 109.409 76.8992 109.32C76.8348 109.144 76.7832 108.915 76.7421 108.676C76.6766 108.295 76.6394 107.9 76.6184 107.678C76.6131 107.621 76.6088 107.576 76.6053 107.545L76.5403 107.552L76.6053 107.545C76.4352 105.998 76.9652 104.473 77.6464 103.092L77.6464 103.092C78.0086 102.357 78.4309 101.653 78.8836 100.969L78.8836 100.969C78.9113 100.927 79.006 100.804 79.135 100.638C79.1509 100.618 79.1673 100.597 79.1841 100.575C79.3024 100.423 79.4411 100.244 79.5756 100.067C79.7292 99.8657 79.8781 99.6655 79.9852 99.509C80.0387 99.431 80.0828 99.3624 80.112 99.3093C80.1264 99.283 80.1385 99.2583 80.146 99.2369C80.1497 99.2263 80.1532 99.2141 80.1546 99.2015C80.1558 99.1903 80.1565 99.1698 80.1452 99.1493L80.1453 99.1492L80.1441 99.1472C79.7774 98.536 79.4654 97.8995 79.2256 97.2286L79.2256 97.2285C78.8372 96.1426 78.6204 94.9631 78.8016 93.8209L78.737 93.8107L78.8016 93.8209C79.0556 92.2203 80.2571 90.6837 81.794 90.1405L81.794 90.1405C81.8161 90.1327 81.8607 90.1228 81.9226 90.1095C81.927 90.1086 81.9314 90.1077 81.9359 90.1067C81.9925 90.0946 82.0585 90.0805 82.1224 90.0642C82.1908 90.0467 82.2603 90.0257 82.3156 90.0003C82.3432 89.9875 82.37 89.9725 82.3918 89.9543C82.4132 89.9364 82.4353 89.911 82.4432 89.8767L82.4433 89.8763L82.6308 89.0304L82.7583 88.455L82.8002 88.2656L82.8034 88.2511L86.7481 88.6797L86.7512 90.5754L86.7512 90.6159L86.7875 90.6339C86.848 90.664 86.908 90.6949 86.9674 90.7266Z" fill="#1E0E36" stroke="#1E0E36" stroke-width="0.130929"/>
<path d="M86.9697 90.7266L86.9697 90.7266C89.4368 92.0387 90.3984 95.1151 89.1514 97.6172L89.21 97.6464L89.1514 97.6172C89.0728 97.7749 89.0071 97.9222 88.9633 98.0477C88.9207 98.17 88.8948 98.2825 88.9066 98.3657C89.0117 99.1027 89.3462 100.166 89.7861 101.343C90.2265 102.522 90.7744 103.818 91.309 105.023C91.8437 106.228 92.3653 107.341 92.7532 108.154C92.9472 108.56 93.1077 108.891 93.2198 109.12C93.2759 109.235 93.3198 109.324 93.3497 109.385L93.3789 109.444C92.4584 110.837 90.2858 111.662 87.1475 111.704C83.9913 111.747 79.8786 110.996 75.1382 109.257C75.0633 109.229 75.0111 109.19 74.9745 109.143C74.9377 109.095 74.9142 109.036 74.9025 108.966C74.8787 108.822 74.9047 108.641 74.9544 108.441C74.9887 108.303 75.0327 108.161 75.0762 108.021C75.0957 107.958 75.1152 107.896 75.1337 107.834C75.192 107.638 75.2409 107.448 75.24 107.295L75.1745 107.296L75.24 107.295C75.2238 104.537 76.3385 101.585 78.7272 100.056C78.7575 100.036 78.8611 99.9825 79.0053 99.9082L79.0324 99.8942C79.1693 99.8237 79.3344 99.7385 79.4943 99.6531C79.6645 99.562 79.8303 99.4698 79.9503 99.3937C80.0099 99.356 80.0607 99.3206 80.0954 99.2903C80.1123 99.2755 80.129 99.2588 80.1405 99.241C80.1496 99.227 80.1705 99.1881 80.1462 99.1475L80.1461 99.1475C79.7795 98.5362 79.4676 97.8995 79.2278 97.2286L79.2278 97.2285C78.8394 96.1426 78.6225 94.9631 78.8037 93.8209L78.7391 93.8107L78.8037 93.8209C79.0577 92.2203 80.2591 90.6837 81.7961 90.1405L81.7961 90.1405C81.8182 90.1327 81.8627 90.1228 81.9247 90.1095C81.9291 90.1086 81.9335 90.1077 81.938 90.1067C81.9946 90.0946 82.0606 90.0805 82.1245 90.0642C82.1929 90.0467 82.2624 90.0257 82.3177 90.0003C82.3453 89.9875 82.372 89.9725 82.3939 89.9543C82.4153 89.9364 82.4374 89.911 82.4453 89.8767L82.4454 89.8763L82.6328 89.0304L82.7603 88.455L82.8023 88.2656L82.8055 88.2511L86.7503 88.6797L86.7532 90.5754L86.7533 90.6159L86.7895 90.6339C86.8501 90.664 86.9103 90.6949 86.9697 90.7266Z" fill="#1E0E36" stroke="#1E0E36" stroke-width="0.130929"/>
<path d="M81.6084 82.7184C81.6084 80.7958 83.167 79.2373 85.0896 79.2373C87.0121 79.2373 88.5705 80.7958 88.5705 82.7184C88.5705 84.6409 87.0121 86.1994 85.0896 86.1994C83.167 86.1994 81.6084 84.6409 81.6084 82.7184Z" fill="white" stroke="#1E0E36" stroke-width="0.130929"/>
<path d="M85.0896 79.1719C83.1309 79.1719 81.543 80.7597 81.543 82.7184C81.543 84.6771 83.1309 86.2648 85.0896 86.2648C87.0483 86.2648 88.6359 84.6771 88.6359 82.7184C88.6359 80.7597 87.0483 79.1719 85.0896 79.1719Z" stroke="#1E0E36" stroke-width="0.666691" stroke-linecap="round" stroke-linejoin="round"/>
<path d="M81.7847 83.9991C80.7722 83.9991 79.9492 83.217 79.9492 82.2045C79.9492 81.192 80.77 80.3711 81.7826 80.3711C82.7951 80.3711 83.6705 81.0586 83.6705 82.0711" stroke="#1E0E36" stroke-width="0.666691" stroke-linecap="round" stroke-linejoin="round"/>
<path d="M81.2174 80.4083L81.1247 80.3077C82.3323 79.5318 83.3912 78.3708 83.5957 76.9402C83.6067 76.9431 83.6187 76.9463 83.6319 76.9498C83.6991 76.968 83.7941 76.9958 83.9051 77.0342C84.1276 77.1112 84.4115 77.2299 84.6627 77.3974C84.9147 77.5654 85.1271 77.7779 85.2176 78.04C85.307 78.2987 85.282 78.6182 85.034 79.0122C84.5371 79.8018 83.5853 80.1536 82.7426 80.3055C82.3231 80.3811 81.9349 80.4065 81.6514 80.4129C81.5098 80.4161 81.3945 80.4145 81.3148 80.4122C81.275 80.411 81.244 80.4097 81.2231 80.4086L81.2174 80.4083Z" fill="#E6C10C" stroke="#1E0E36" stroke-width="0.130929"/>
<path d="M79.9035 75.0257L79.9034 75.0258C79.8569 75.0327 79.5159 75.0923 79.1915 75.1638C79.0291 75.1996 78.873 75.2379 78.7605 75.2737C78.7037 75.2918 78.6614 75.3082 78.6356 75.3219C78.6231 75.3286 78.6185 75.3325 78.618 75.3329C78.618 75.333 78.618 75.333 78.618 75.333C78.6183 75.3327 78.6221 75.3287 78.6248 75.3208C78.628 75.3117 78.6288 75.2998 78.6245 75.2878L78.5013 75.3323L78.5629 75.3099L78.5013 75.3323L78.5013 75.3322L78.5013 75.3321L78.5013 75.3321L78.5012 75.3318L78.5006 75.3304L78.4986 75.3249L78.4909 75.3036L78.4625 75.2263C78.4386 75.1614 78.4056 75.0727 78.3697 74.9778C78.2972 74.7866 78.2139 74.5739 78.1664 74.4756C77.9544 74.0373 77.432 73.8041 76.9269 73.7977C76.6771 73.7945 76.3679 73.8625 76.0563 73.9559C75.7717 74.0413 75.4902 74.1464 75.257 74.2335C75.2359 74.2414 75.2151 74.2491 75.1948 74.2567L75.149 74.134C75.1485 74.1342 75.1483 74.1344 75.1483 74.1344C75.1483 74.1344 75.1545 74.1308 75.161 74.1098C75.1686 74.0854 75.1729 74.0486 75.1724 73.9997C75.1715 73.9027 75.1521 73.7751 75.1236 73.6419C75.0952 73.5095 75.0585 73.3749 75.0241 73.2653C74.989 73.1531 74.9584 73.0738 74.9433 73.0473C74.7774 72.7564 74.3967 72.5984 73.9622 72.5371C73.5314 72.4762 73.0698 72.5137 72.7716 72.5927C72.2388 72.7337 71.7654 73.1815 71.7532 73.712L71.7532 73.712C71.7444 74.0888 71.9617 74.4122 72.2326 74.6817L72.2326 74.6817C72.5141 74.9615 72.8749 75.2052 73.2412 75.3578C73.3267 75.3934 73.5136 75.4711 73.692 75.5081C73.7816 75.5266 73.8632 75.5336 73.9264 75.5231C73.9878 75.5128 74.0225 75.4882 74.0393 75.4495C74.0393 75.4495 74.0393 75.4495 74.0393 75.4495L74.0994 75.4756L74.1594 75.5016C74.1355 75.5569 74.0964 75.5945 74.05 75.619C73.8706 76.2986 74.2955 77.319 74.917 77.5942L79.9035 75.0257ZM79.9035 75.0257C80.4124 74.9493 80.919 74.8763 81.4102 74.9535C81.5593 74.977 81.7067 75.0143 81.852 75.0694C82.3821 75.2707 82.8365 75.6657 83.1145 76.1505C83.5814 76.9648 83.5721 77.9733 83.224 78.8609C82.8759 79.7486 82.1925 80.5059 81.3248 80.8202L81.3471 80.8817L81.3248 80.8202C79.7255 81.3997 78.0925 80.4892 77.4346 78.9814L79.9035 75.0257Z" fill="#324149" stroke="#1E0E36" stroke-width="0.130929"/>
<path d="M82.0978 77.4005C82.0945 77.3965 82.0913 77.3926 82.0882 77.3887C82.0767 77.3743 82.0657 77.3593 82.0571 77.345C81.0271 78.7584 82.0219 80.8547 83.1255 81.9265C84.4983 83.2596 87.4842 84.2383 89.033 82.6725C89.719 81.9791 90.0665 80.7887 89.4392 79.9531C88.9262 79.2697 88.0102 78.9375 87.1959 78.8029C86.7498 78.7292 86.2921 78.6994 85.8337 78.6696C84.9534 78.6123 84.0706 78.5549 83.2626 78.1856C82.9548 78.0448 82.6688 77.8596 82.4177 77.6324C82.4008 77.6171 82.2159 77.4447 82.138 77.3461C82.1242 77.3641 82.1108 77.3822 82.0978 77.4005ZM82.0978 77.4005C81.6187 78.0715 81.6019 78.9023 81.8424 79.7071C82.0924 80.544 82.6181 81.3425 83.1711 81.8795C83.8479 82.5367 84.9258 83.109 86.0257 83.3223C87.126 83.5357 88.2335 83.3877 88.9865 82.6265C89.3208 82.2885 89.5727 81.8291 89.6643 81.3537C89.7558 80.8791 89.6871 80.3924 89.3868 79.9924L89.3868 79.9924C88.8892 79.3294 87.9941 79.0012 87.1852 78.8675L87.1852 78.8675C86.7423 78.7943 86.2901 78.7649 85.8334 78.7352C85.6217 78.7214 85.4091 78.7076 85.1959 78.6893C84.5269 78.6319 83.8602 78.5307 83.2354 78.2451L83.2354 78.2451C82.9218 78.1017 82.6301 77.9128 82.3738 77.681L82.3738 77.6809C82.3618 77.67 82.2758 77.59 82.196 77.5079C82.1605 77.4715 82.1251 77.4335 82.0978 77.4005Z" fill="#324149" stroke="#1E0E36" stroke-width="0.130929"/>
<path d="M83.1082 92.9883C76.8727 97.0566 72.9491 102.629 71.7383 109.964" stroke="#1E0E36" stroke-width="6.3117" stroke-linecap="round" stroke-linejoin="round"/>
<path d="M83.1082 92.9883C76.8727 97.0566 72.9491 102.629 71.7383 109.964" stroke="#1E0E36" stroke-width="6.3117" stroke-linecap="round" stroke-linejoin="round"/>
<path d="M67.6802 114.414C67.3337 116.322 66.7729 119.834 68.4185 119.912C68.9921 119.939 69.4791 119.496 69.5062 118.923L69.5931 117.088C69.6317 117.105 69.6703 117.122 69.7098 117.138L69.5814 119.852C69.5542 120.426 69.997 120.913 70.5706 120.94C71.1441 120.967 71.6311 120.524 71.6584 119.951L71.7876 117.22C71.8125 117.212 71.8379 117.205 71.8626 117.197C71.8626 117.197 71.8154 118.193 71.8152 118.194C71.7892 118.746 72.2855 119.273 72.8401 119.29C73.633 119.314 73.8503 118.548 73.9499 117.917C74.0715 117.147 74.3035 116.046 74.4811 114.844" stroke="#1E0E36" stroke-width="0.666691" stroke-linecap="round" stroke-linejoin="round"/>
<path d="M81.8621 97.9141C79.9168 99.6616 78.2548 101.725 77.003 104.022C76.1209 105.64 75.4441 107.375 75.1172 109.193" stroke="#1E0E36" stroke-width="0.666691" stroke-linecap="round" stroke-linejoin="round"/>
<path d="M98.9598 107.884C100.891 107.703 104.424 107.296 104.055 105.69C103.926 105.13 103.368 104.781 102.809 104.909L101.019 105.321C101.025 105.279 101.03 105.237 101.035 105.195L103.683 104.586C104.243 104.458 104.592 103.9 104.464 103.34C104.335 102.781 103.777 102.431 103.218 102.56L100.553 103.172C100.539 103.15 100.525 103.128 100.511 103.106C100.511 103.106 101.483 102.883 101.484 102.883C102.023 102.759 102.396 102.139 102.263 101.6C102.072 100.83 101.276 100.827 100.641 100.902C99.8672 100.992 98.7441 101.066 97.5391 101.219" stroke="#1E0E36" stroke-width="0.666691" stroke-linecap="round" stroke-linejoin="round"/>
<path d="M84.8401 93.457C84.3224 94.0381 83.8745 94.6769 83.5226 95.3797C82.4861 97.4492 82.486 100.005 83.7315 101.986C86.0329 105.647 91.6621 105.962 95.503 105.378" stroke="#1E0E36" stroke-width="6.3117" stroke-linecap="round" stroke-linejoin="round"/>
</g>
<defs>
<filter id="filter0_f_2020_147346" x="8.07537" y="134.56" width="234.131" height="39.4704" filterUnits="userSpaceOnUse" color-interpolation-filters="sRGB">
<feFlood flood-opacity="0" result="BackgroundImageFix"/>
<feBlend mode="normal" in="SourceGraphic" in2="BackgroundImageFix" result="shape"/>
<feGaussianBlur stdDeviation="6.72794" result="effect1_foregroundBlur_2020_147346"/>
</filter>
<linearGradient id="paint0_linear_2020_147346" x1="68.7201" y1="103.912" x2="34.9803" y2="100.204" gradientUnits="userSpaceOnUse">
<stop stop-color="#580DB7"/>
<stop offset="0.84375" stop-color="#AB69FF"/>
</linearGradient>
<linearGradient id="paint1_linear_2020_147346" x1="69.5071" y1="65.2092" x2="19.7501" y2="54.3692" gradientUnits="userSpaceOnUse">
<stop stop-color="#400789"/>
<stop offset="1" stop-color="#9E64E7"/>
</linearGradient>
<linearGradient id="paint2_linear_2020_147346" x1="129.472" y1="97.7185" x2="122.388" y2="96.6829" gradientUnits="userSpaceOnUse">
<stop stop-color="#7830D2"/>
<stop offset="1" stop-color="#BB86FF"/>
</linearGradient>
<linearGradient id="paint3_linear_2020_147346" x1="137.885" y1="115.786" x2="112.093" y2="112.393" gradientUnits="userSpaceOnUse">
<stop stop-color="#7830D2"/>
<stop offset="1" stop-color="#BB86FF"/>
</linearGradient>
<linearGradient id="paint4_linear_2020_147346" x1="221.681" y1="66.7001" x2="172.027" y2="55.7192" gradientUnits="userSpaceOnUse">
<stop stop-color="#400789"/>
<stop offset="1" stop-color="#9E64E7"/>
</linearGradient>
<linearGradient id="paint5_linear_2020_147346" x1="189.655" y1="116.867" x2="183.348" y2="116.069" gradientUnits="userSpaceOnUse">
<stop stop-color="#400789"/>
<stop offset="1" stop-color="#9E64E7"/>
</linearGradient>
<linearGradient id="paint6_linear_2020_147346" x1="197.886" y1="118.562" x2="191.578" y2="117.764" gradientUnits="userSpaceOnUse">
<stop stop-color="#400789"/>
<stop offset="1" stop-color="#9E64E7"/>
</linearGradient>
<linearGradient id="paint7_linear_2020_147346" x1="179.948" y1="122.332" x2="173.641" y2="121.534" gradientUnits="userSpaceOnUse">
<stop stop-color="#400789"/>
<stop offset="1" stop-color="#9E64E7"/>
</linearGradient>
<linearGradient id="paint8_linear_2020_147346" x1="188.175" y1="124.027" x2="181.867" y2="123.229" gradientUnits="userSpaceOnUse">
<stop stop-color="#400789"/>
<stop offset="1" stop-color="#9E64E7"/>
</linearGradient>
<linearGradient id="paint9_linear_2020_147346" x1="178.468" y1="129.492" x2="172.16" y2="128.694" gradientUnits="userSpaceOnUse">
<stop stop-color="#400789"/>
<stop offset="1" stop-color="#9E64E7"/>
</linearGradient>
<linearGradient id="paint10_linear_2020_147346" x1="186.698" y1="131.191" x2="180.391" y2="130.393" gradientUnits="userSpaceOnUse">
<stop stop-color="#400789"/>
<stop offset="1" stop-color="#9E64E7"/>
</linearGradient>
<linearGradient id="paint11_linear_2020_147346" x1="194.929" y1="132.891" x2="188.621" y2="132.093" gradientUnits="userSpaceOnUse">
<stop stop-color="#400789"/>
<stop offset="1" stop-color="#9E64E7"/>
</linearGradient>
<linearGradient id="paint12_linear_2020_147346" x1="207.761" y1="100.995" x2="174.597" y2="97.3508" gradientUnits="userSpaceOnUse">
<stop stop-color="#580DB7"/>
<stop offset="0.84375" stop-color="#AB69FF"/>
</linearGradient>
<clipPath id="clip0_2020_147346">
<rect width="244" height="173.132" fill="white"/>
</clipPath>
</defs>
</svg>
