<svg width="215" height="166" viewBox="0 0 215 166" fill="none" xmlns="http://www.w3.org/2000/svg">
<path d="M153.008 132.768C153.008 132.768 150.105 132.49 150.694 135.336L113.618 116.694C111.189 115.638 108.309 115.715 105.96 116.898L72.7744 133.261C69.519 131.968 66.5267 131.548 65.1865 133.444C62.7538 136.885 64.3889 138.756 65.7628 139.913C66.0837 140.221 66.5007 140.508 67.0186 140.759C67.0626 140.781 67.0877 140.793 67.0877 140.793L105.637 160.144C108.027 161.179 110.859 161.101 113.168 159.936L152.349 140.537C152.349 140.537 158.061 137.53 153.008 132.768Z" fill="#3098E5"/>
<path d="M105.927 112.843L66.4182 132.362C64.4496 133.503 64.2903 135.738 67.0546 137.165L105.604 156.516C107.994 157.551 110.826 157.473 113.135 156.308L152.316 136.909C154.517 135.798 154.132 133.283 152.14 132.024L113.585 112.64C112.446 112.145 111.209 111.898 109.974 111.898C108.573 111.898 107.175 112.215 105.927 112.843Z" fill="#EDDEFF"/>
<path d="M106.544 114.32L69.5868 132.571C67.9432 133.524 67.8108 135.39 70.1191 136.582L106.304 154.741C108.299 155.605 110.664 155.54 112.592 154.568L149.275 136.416C151.113 135.489 150.792 133.388 149.129 132.337L112.939 114.15C111.988 113.737 110.956 113.531 109.924 113.531C108.755 113.531 107.587 113.795 106.544 114.32Z" fill="#50B5FF"/>
<g opacity="0.394601">
<path d="M149.782 118.242L149.72 31.4804C148.872 30.4082 148.001 29.7067 146.835 29.0865L112.679 11.5041C109.765 10.5518 108.395 10.9835 106.509 11.6737L71.8942 29.2492C70.6577 29.8414 69.5368 30.5973 69.222 31.1204L69.203 117.65C69.0142 118.5 69.5015 119.455 70.8789 120.166L106.389 137.986C108.347 138.836 110.668 138.771 112.56 137.817L148.559 120.004C149.384 119.588 149.762 118.93 149.777 118.242H149.782Z" fill="url(#paint0_linear_2377_159975)"/>
</g>
<path d="M149.662 118.133C149.714 118.886 149.342 119.622 148.446 120.073L112.446 137.887C110.553 138.842 108.233 138.905 106.276 138.057L70.7651 120.236C69.687 119.679 69.157 118.974 69.0658 118.285V127.036C68.7779 127.923 69.2377 128.952 70.6989 129.706L106.209 147.527C108.167 148.376 110.488 148.312 112.38 147.357L148.379 129.544C149.276 129.092 149.648 128.356 149.596 127.604H149.597L149.683 118.133H149.662Z" fill="url(#paint1_linear_2377_159975)"/>
<path d="M103.136 83.4522C103.131 83.4544 103.126 83.4574 103.121 83.4596L78.8555 95.5754L87.1377 122.882L111.281 110.829C111.689 110.66 111.953 110.216 111.954 109.569L111.995 89.4769C111.997 88.3529 111.211 87.0467 110.239 86.5584L104.252 83.5511C104.003 83.4263 103.767 83.3672 103.552 83.3672C103.401 83.3672 103.261 83.3961 103.136 83.4522Z" fill="url(#paint2_linear_2377_159975)"/>
<path d="M86.0084 122.791L80.0202 119.783C79.0488 119.295 78.2631 117.989 78.2656 116.865L78.3065 96.7726C78.309 95.649 79.0986 95.1336 80.07 95.6218L86.0577 98.6291C87.0292 99.1169 87.8148 100.424 87.8128 101.548L87.7714 121.64C87.769 122.764 86.9798 123.279 86.0084 122.791Z" fill="#AB94F8"/>
<path d="M84.807 120.418L80.975 118.493C80.3532 118.181 79.8501 117.345 79.8516 116.626L79.8645 98.6712C79.866 97.952 80.3717 97.6218 80.9934 97.9343L84.8259 99.8595C85.4476 100.172 85.9508 101.008 85.9493 101.727L85.9364 119.681C85.9344 120.401 85.4292 120.731 84.807 120.418Z" fill="#03C5E0"/>
<path d="M79.865 98.6702L79.8516 116.625C79.8506 117.344 80.3537 118.18 80.975 118.493L84.8065 120.418C85.4292 120.73 85.9339 120.4 85.9359 119.681L85.9364 119.2L82.8402 117.644C82.2189 117.332 81.7158 116.496 81.7173 115.777L81.7297 98.3038L80.9934 97.9342C80.834 97.854 80.6825 97.8164 80.545 97.8164C80.146 97.8164 79.866 98.1354 79.865 98.6702Z" fill="#8E4FFF"/>
<path d="M116.227 89.9401C116.222 89.9422 116.216 89.9457 116.211 89.9478L91.9453 102.065L100.228 129.37L124.371 117.317C124.779 117.149 125.043 116.704 125.045 116.058L125.085 95.9652C125.087 94.8416 124.302 93.5345 123.33 93.0467L117.343 90.0398C117.094 89.9146 116.858 89.8555 116.643 89.8555C116.492 89.8555 116.352 89.8844 116.227 89.9401Z" fill="url(#paint3_linear_2377_159975)"/>
<path d="M99.1016 129.279L93.1145 126.271C92.1425 125.783 91.3569 124.477 91.3594 123.353L91.4007 103.26C91.4027 102.137 92.1923 101.622 93.1638 102.11L99.1514 105.117C100.123 105.605 100.909 106.912 100.907 108.036L100.865 128.128C100.863 129.252 100.074 129.767 99.1016 129.279Z" fill="#AB94F8"/>
<path d="M97.9012 126.906L94.0687 124.981C93.447 124.669 92.9438 123.833 92.9453 123.114L92.9593 105.159C92.9603 104.44 93.4654 104.11 94.0871 104.423L97.9197 106.347C98.5414 106.66 99.0446 107.496 99.0431 108.215L99.0301 126.17C99.0286 126.889 98.523 127.219 97.9012 126.906Z" fill="#0EE2FF"/>
<path d="M92.9622 105.163L92.9492 123.117C92.9477 123.836 93.4504 124.673 94.0721 124.985L97.9036 126.91C98.5264 127.223 99.031 126.893 99.033 126.173L99.0335 125.692L95.9373 124.137C95.3161 123.824 94.8129 122.988 94.8144 122.27L94.8274 104.796L94.0906 104.426C93.9311 104.347 93.7797 104.309 93.6422 104.309C93.2431 104.309 92.9632 104.628 92.9622 105.163Z" fill="#8E4FFF"/>
<path d="M129.32 96.5616L129.32 96.562C129.315 96.5642 129.31 96.5668 129.305 96.5694L105.039 108.685L113.322 135.992L137.465 123.938C137.873 123.77 138.136 123.326 138.138 122.679L138.179 102.587C138.181 101.463 137.395 100.156 136.424 99.6683L130.436 96.6604C130.188 96.5357 129.951 96.4766 129.736 96.4766C129.585 96.4766 129.446 96.5059 129.32 96.5616Z" fill="url(#paint4_linear_2377_159975)"/>
<path d="M112.196 135.908L106.208 132.9C105.237 132.412 104.451 131.105 104.453 129.982L104.494 109.89C104.496 108.766 105.286 108.251 106.258 108.739L112.245 111.746C113.217 112.234 114.003 113.541 114 114.664L113.959 134.757C113.957 135.881 113.167 136.396 112.196 135.908Z" fill="#AB94F8"/>
<path d="M110.994 133.527L107.162 131.602C106.54 131.29 106.038 130.454 106.039 129.735L106.052 111.78C106.054 111.061 106.559 110.731 107.181 111.044L111.012 112.969C111.634 113.281 112.137 114.117 112.136 114.836L112.123 132.791C112.121 133.51 111.616 133.84 110.994 133.527Z" fill="#03C5E0"/>
<path d="M106.052 111.784L106.039 129.739C106.038 130.458 106.54 131.294 107.162 131.606L110.994 133.531C111.616 133.843 112.121 133.514 112.123 132.795V132.312L109.027 130.758C108.406 130.445 107.903 129.61 107.904 128.891L107.917 111.417L107.18 111.048C107.021 110.967 106.87 110.93 106.732 110.93C106.333 110.929 106.053 111.249 106.052 111.784Z" fill="#8E4FFF"/>
<path d="M103.414 57.3936V57.3941C103.409 57.3958 103.404 57.3988 103.399 57.401L79.1328 69.5172L87.4151 96.8236L111.558 84.7699C111.967 84.6016 112.23 84.1578 112.231 83.5108L112.272 63.4183C112.275 62.2947 111.489 60.9881 110.517 60.5003L104.53 57.4925C104.281 57.3677 104.044 57.3086 103.829 57.3086C103.679 57.3086 103.539 57.3375 103.414 57.3936Z" fill="url(#paint5_linear_2377_159975)"/>
<path d="M86.2974 96.7362L80.3093 93.7284C79.3378 93.2406 78.5522 91.934 78.5547 90.8099L78.5955 70.7179C78.598 69.5943 79.3877 69.0789 80.3591 69.5671L86.3468 72.5744C87.3182 73.0627 88.1038 74.3693 88.1019 75.4929L88.0605 95.5858C88.058 96.7094 87.2689 97.2244 86.2974 96.7362Z" fill="#AB94F8"/>
<path d="M85.096 94.3592L81.264 92.4345C80.6423 92.1219 80.1391 91.2858 80.1406 90.5667L80.1536 72.6126C80.1551 71.893 80.6607 71.5633 81.2825 71.8758L85.115 73.8006C85.7367 74.1131 86.2394 74.9492 86.2374 75.6683L86.2244 93.6228C86.2229 94.342 85.7183 94.6717 85.096 94.3592Z" fill="#03C5E0"/>
<path d="M80.1541 72.616L80.1406 90.5713C80.1391 91.29 80.6418 92.1261 81.264 92.4387L85.096 94.3634C85.7178 94.676 86.2229 94.3462 86.2244 93.6266L86.2249 93.1449L83.1292 91.59C82.5075 91.2775 82.0043 90.4414 82.0063 89.7222L82.0188 72.2499L81.2825 71.88C81.1235 71.7997 80.9716 71.7617 80.8341 71.7617C80.4351 71.7617 80.1551 72.0811 80.1541 72.616Z" fill="#8E4FFF"/>
<path d="M116.519 63.8858C116.514 63.8884 116.508 63.891 116.503 63.8927L92.2383 76.0094L100.52 103.316L124.663 91.2617C125.071 91.0938 125.335 90.65 125.336 90.003L125.377 69.9101C125.38 68.7869 124.593 67.4802 123.622 66.992L117.635 63.9847C117.386 63.8599 117.149 63.8008 116.934 63.8008C116.784 63.8008 116.644 63.8297 116.519 63.8858Z" fill="url(#paint6_linear_2377_159975)"/>
<path d="M99.3829 103.228L93.3952 100.221C92.4238 99.7328 91.6381 98.4257 91.6406 97.3021L91.6815 77.2105C91.684 76.0864 92.4736 75.571 93.445 76.0593L99.4327 79.0666C100.404 79.5548 101.19 80.8615 101.188 81.9851L101.146 102.078C101.144 103.202 100.354 103.717 99.3829 103.228Z" fill="#AB94F8"/>
<path d="M98.1825 100.851L94.35 98.9266C93.7282 98.6141 93.2251 97.778 93.2266 97.0588L93.2395 79.1048C93.241 78.3852 93.7467 78.0554 94.3684 78.368L98.2009 80.2927C98.8226 80.6053 99.3258 81.4414 99.3243 82.1605L99.3114 100.115C99.3099 100.834 98.8042 101.164 98.1825 100.851Z" fill="#03C5E0"/>
<path d="M93.24 79.1047L93.2266 97.0596C93.2251 97.7787 93.7282 98.6149 94.35 98.9269L98.182 100.852C98.8037 101.164 99.3089 100.835 99.3104 100.115L99.3109 99.6331L96.2152 98.0783C95.5934 97.7658 95.0903 96.9301 95.0923 96.2105L95.1047 78.7382L94.3684 78.3678C94.2095 78.288 94.0575 78.25 93.92 78.25C93.521 78.25 93.241 78.5694 93.24 79.1047Z" fill="#8E4FFF"/>
<path d="M129.616 70.5069C129.611 70.5091 129.607 70.5117 129.602 70.5143L105.336 82.6305L113.618 109.937L137.762 97.8832C138.17 97.7149 138.433 97.2707 138.434 96.6241L138.476 76.5316C138.478 75.408 137.692 74.1013 136.72 73.6131L130.733 70.6058C130.484 70.4806 130.248 70.4219 130.033 70.4219C129.882 70.4219 129.742 70.4508 129.616 70.5069Z" fill="url(#paint7_linear_2377_159975)"/>
<path d="M112.484 109.846L106.497 106.838C105.525 106.35 104.74 105.043 104.742 103.919L104.784 83.8273C104.786 82.7036 105.575 82.1882 106.547 82.6764L112.534 85.6838C113.506 86.1716 114.292 87.4787 114.289 88.6023L114.248 108.694C114.246 109.818 113.456 110.333 112.484 109.846Z" fill="#AB94F8"/>
<path d="M111.284 107.465L107.452 105.54C106.83 105.228 106.327 104.392 106.328 103.672L106.341 85.718C106.343 84.9989 106.848 84.6687 107.47 84.9812L111.302 86.9064C111.924 87.2189 112.427 88.0546 112.426 88.7738L112.413 106.728C112.411 107.447 111.906 107.778 111.284 107.465Z" fill="#03C5E0"/>
<path d="M129.866 100.82C129.866 101.171 129.651 101.494 129.302 101.67L129.293 101.675V98.1808C129.293 97.9948 129.354 97.8122 129.469 97.6551L132.569 93.4153C132.683 93.2578 132.744 93.0756 132.744 92.8891V88.6709C132.744 88.5332 132.872 88.4219 133.031 88.4219C133.19 88.4219 133.318 88.5332 133.318 88.6709V93.0337C133.318 93.2202 133.257 93.4024 133.142 93.5599L130.043 97.7997C129.927 97.9568 129.866 98.1394 129.866 98.3254V100.82Z" fill="#30E7FF"/>
<path d="M128.138 101.684C128.138 102.035 127.921 102.359 127.57 102.534V97.6978C127.57 97.5113 127.632 97.3291 127.747 97.1716L130.846 92.9318C130.961 92.7743 131.022 92.5925 131.022 92.406V83.8346C131.022 83.6973 131.151 83.5859 131.309 83.5859C131.468 83.5859 131.596 83.6973 131.596 83.8346V92.5507C131.596 92.7367 131.534 92.9189 131.42 93.0764L128.32 97.317C128.205 97.4737 128.144 97.6559 128.144 97.8419L128.138 101.684Z" fill="#30E7FF"/>
<path d="M131.419 84.6342C130.934 84.8828 130.535 84.6286 130.527 84.0652V84.0147C130.519 83.4519 130.906 82.7931 131.39 82.5445C131.874 82.2959 132.273 82.5505 132.281 83.1139L132.281 83.1635C132.289 83.7268 131.903 84.3855 131.419 84.6342Z" fill="#30E7FF"/>
<path d="M133.181 88.845C132.696 89.0941 132.298 88.839 132.29 88.2761L132.289 88.226C132.282 87.6632 132.668 87.0044 133.152 86.7554C133.637 86.5067 134.035 86.7618 134.043 87.3252L134.044 87.3748C134.051 87.9377 133.665 88.5964 133.181 88.845Z" fill="#30E7FF"/>
<g opacity="0.5">
<path d="M131.436 85.7732C130.419 86.2963 129.58 85.7607 129.564 84.5766L129.563 84.4717C129.547 83.2877 130.359 81.9038 131.377 81.3802C132.395 80.857 133.233 81.3931 133.249 82.5772L133.251 82.6816C133.267 83.8657 132.455 85.25 131.436 85.7732Z" fill="#F8FFFF"/>
</g>
<g opacity="0.5">
<path d="M133.199 90.0075C132.18 90.5307 131.342 89.995 131.326 88.811L131.324 88.7061C131.309 87.522 132.121 86.1381 133.139 85.6145C134.157 85.0914 134.995 85.6275 135.011 86.812L135.013 86.9164C135.029 88.1005 134.216 89.4844 133.199 90.0075Z" fill="#F8FFFF"/>
</g>
<path d="M107.364 84.9418C106.21 84.817 106.336 85.6972 106.336 85.6972C106.336 85.6972 106.336 101.156 106.336 103.125C106.336 105.095 107.457 105.58 107.457 105.58L111.442 107.496C111.442 107.496 111.868 107.761 112.216 107.372C112.563 106.983 112.47 106.282 112.47 106.282L109.419 104.717C109.419 104.717 108.869 104.406 108.537 103.955C108.204 103.503 108.267 102.936 108.267 102.936L108.204 85.5081L108.298 85.4002C108.298 85.4002 107.769 84.9958 107.364 84.9418Z" fill="#8E4FFF"/>
<path d="M123.93 136.423L119.203 134.099L119.205 131.684L123.931 134.007L123.93 136.423Z" fill="#002869"/>
<path d="M128.474 134.165L123.938 131.97L128.475 131.738L128.474 134.165Z" fill="#002869"/>
<path d="M124.891 125.833L124.887 130.566L129.906 129.052L133.03 124.688L130.154 122.645L124.891 125.833Z" fill="#064FBA"/>
<path d="M124.889 118.787L124.887 122.881L130.869 120.557L131.833 116.509L128.952 115.91L124.889 118.787Z" fill="#064FBA"/>
<path d="M117.07 115.06L119.224 113.984L123.951 116.308L121.797 117.384L117.07 115.06Z" fill="#0ABFBF"/>
<path d="M128.488 114.047L123.761 111.723L121.555 112.813L126.282 115.138L128.488 114.047Z" fill="#0ABFBF"/>
<path d="M132.239 113.078L127.726 110.832L126.293 112.149L131.142 113.893L132.239 113.078Z" fill="#0ABFBF"/>
<path d="M119.221 111.574L123.947 113.899L123.946 116.314L119.219 113.99L119.221 111.574Z" fill="#286BF0"/>
<path d="M123.76 109.305L128.487 111.628L128.485 114.056L123.758 111.731L123.76 109.305Z" fill="#286BF0"/>
<path d="M126.089 108.141L130.816 110.465L128.484 111.629L123.758 109.306L126.089 108.141Z" fill="#0ABFBF"/>
<path d="M121.558 110.41L126.285 112.735L123.953 113.899L119.227 111.575L121.558 110.41Z" fill="#0ABFBF"/>
<path d="M128.467 134.165L128.469 131.738C128.029 131.966 127.539 132.214 126.995 132.486L126.263 132.852L126.261 135.267L123.93 136.432L123.931 134.017L121.777 135.092L121.79 117.391L123.944 116.315L123.946 113.9L126.277 112.736L126.275 115.151L127.917 114.33C128.112 114.233 128.3 114.143 128.482 114.06L128.484 111.633L130.815 110.469L130.813 113.1C131.335 112.969 131.807 112.963 132.224 113.084C132.698 113.218 133.092 113.514 133.405 113.973C133.718 114.432 133.874 115.044 133.874 115.809C133.873 116.638 133.679 117.495 133.291 118.381C132.904 119.267 132.38 120.048 131.717 120.725C132.651 120.572 133.368 120.749 133.87 121.254C134.371 121.761 134.621 122.525 134.621 123.547C134.62 124.352 134.457 125.216 134.133 126.138C133.808 127.061 133.363 127.893 132.798 128.634C132.255 129.348 131.589 129.958 130.8 130.465L130.798 133.001L128.467 134.165ZM124.878 125.83L124.874 130.564L127.739 129.133C128.854 128.576 129.562 128.186 129.862 127.964C130.322 127.638 130.697 127.216 130.986 126.696C131.275 126.178 131.421 125.604 131.422 124.976C131.422 124.445 131.31 124.05 131.088 123.791C130.865 123.532 130.543 123.423 130.121 123.465C129.699 123.506 128.785 123.879 127.377 124.582L124.878 125.83ZM124.883 118.791L124.88 122.885L126.909 121.872C128.114 121.269 128.864 120.875 129.156 120.688C129.686 120.351 130.103 119.931 130.407 119.43C130.71 118.928 130.862 118.392 130.862 117.821C130.862 117.273 130.732 116.894 130.471 116.682C130.209 116.471 129.822 116.457 129.305 116.643C128.999 116.755 128.117 117.175 126.66 117.903L124.883 118.791Z" fill="#1DE7FB"/>
<path d="M117.071 115.066L121.798 117.391L121.785 135.092L117.059 132.768L117.071 115.066Z" fill="#286BF0"/>
<path d="M125.182 43.9281L109.4 51.8982L93.6172 43.9281L109.4 35.957L125.182 43.9281Z" fill="#1F8FFF"/>
<path d="M125.182 41.3695L109.4 49.3405L93.6172 41.3695L109.4 33.3984L125.182 41.3695Z" fill="#004F91"/>
<g opacity="0.7">
<path d="M125.188 41.3686L109.406 15.5156V49.3396L125.188 41.3686Z" fill="url(#paint8_linear_2377_159975)"/>
</g>
<path d="M125.188 43.9336L109.406 64.9351V51.9042L125.188 43.9336Z" fill="#189CF8"/>
<path d="M93.6172 43.9336L109.4 64.9351V51.9042L93.6172 43.9336Z" fill="#0ADEF3"/>
<g opacity="0.7">
<path d="M109.446 15.4922L93.6914 41.3918L109.416 49.3775L109.446 15.4922Z" fill="#0DCAF4"/>
</g>
<g opacity="0.394601">
<path d="M149.782 118.254L149.72 31.4928C149.571 31.9957 149.206 32.4524 148.578 32.7679L112.579 50.5817C110.687 51.5361 108.366 51.6 106.408 50.7513L70.8979 32.9307C69.9 32.4157 69.3679 31.7717 69.222 31.1328L69.203 117.662C69.0142 118.512 69.5015 119.467 70.8789 120.179L106.389 137.999C108.347 138.848 110.668 138.784 112.56 137.829L148.559 120.016C149.384 119.6 149.762 118.943 149.777 118.254H149.782Z" fill="url(#paint9_linear_2377_159975)"/>
</g>
<path d="M109.488 54.463C108.355 54.463 107.218 54.2366 106.168 53.7819L66.9475 34.0992C65.6731 33.4415 64.9558 32.5479 64.9267 31.5818C64.9014 30.7301 65.4228 29.9309 66.3579 29.3885L66.3727 29.3804L106.417 9.60429C108.623 8.49524 111.301 8.42327 113.581 9.4146L152.807 29.1273C153.881 29.805 154.496 30.854 154.435 31.8787C154.383 32.7433 153.861 33.4677 152.966 33.9195L113.217 53.5884C112.063 54.1703 110.777 54.463 109.488 54.463ZM66.6274 29.7512C65.8419 30.2092 65.403 30.8717 65.4239 31.5708C65.4487 32.383 66.079 33.1493 67.2 33.7275L106.405 53.402C108.486 54.3033 110.945 54.2351 112.967 53.2152L152.717 33.5464C153.462 33.1708 153.896 32.5703 153.938 31.8563C153.99 30.9756 153.453 30.0681 152.535 29.4881L113.344 9.79398C111.228 8.87462 108.726 8.94086 106.666 9.97795L66.6274 29.7512Z" fill="#13FEE2"/>
<path d="M109.474 51.3375C108.301 51.3375 107.125 51.1032 106.038 50.6327L65.4516 30.2645C64.1322 29.5838 63.3905 28.6591 63.3603 27.6594C63.3336 26.778 63.8732 25.9509 64.8408 25.3897L64.8562 25.3813L106.296 4.91639C108.578 3.76871 111.35 3.69423 113.709 4.72009L154.301 25.1194C155.412 25.8207 156.05 26.9063 155.986 27.9666C155.933 28.8613 155.393 29.611 154.465 30.0785L113.332 50.4325C112.139 51.0347 110.807 51.3375 109.474 51.3375ZM65.1197 25.765C64.3069 26.239 63.8533 26.9245 63.8749 27.648C63.9005 28.4884 64.5528 29.2815 65.7123 29.8798L106.283 50.2396C108.437 51.1723 110.981 51.1017 113.074 50.0463L154.208 29.6924C154.978 29.3042 155.428 28.6823 155.472 27.9435C155.526 27.032 154.97 26.093 154.02 25.4927L113.464 5.11268C111.275 4.16129 108.685 4.22985 106.553 5.30305L65.1197 25.765Z" fill="#13FEE2"/>
<path d="M172.116 116.142L161.316 121.597L150.516 116.142L161.316 110.688L172.116 116.142Z" fill="#1F8FFF"/>
<path d="M172.116 114.396L161.316 119.851L150.516 114.396L161.316 108.941L172.116 114.396Z" fill="#004F91"/>
<g opacity="0.7">
<path d="M172.117 114.388L161.316 96.6953V119.842L172.117 114.388Z" fill="url(#paint10_linear_2377_159975)"/>
</g>
<path d="M172.117 116.152L161.316 130.525V121.607L172.117 116.152Z" fill="#189CF8"/>
<path d="M150.516 116.152L161.316 130.525V121.607L150.516 116.152Z" fill="#0ADEF3"/>
<g opacity="0.7">
<path d="M161.356 96.6836L150.574 114.408L161.335 119.873L161.356 96.6836Z" fill="#0DCAF4"/>
</g>
<path d="M80.2887 112.845L68.4922 118.802L56.6953 112.845L68.4922 106.887L80.2887 112.845Z" fill="#1F8FFF"/>
<path d="M80.2887 110.927L68.4922 116.885L56.6953 110.927L68.4922 104.969L80.2887 110.927Z" fill="#004F91"/>
<g opacity="0.7">
<path d="M80.2887 110.93L68.4922 91.6055V116.888L80.2887 110.93Z" fill="url(#paint11_linear_2377_159975)"/>
</g>
<path d="M80.2887 112.848L68.4922 128.546V118.805L80.2887 112.848Z" fill="#189CF8"/>
<path d="M56.6953 112.848L68.4922 128.546V118.805L56.6953 112.848Z" fill="#0ADEF3"/>
<g opacity="0.7">
<path d="M68.5225 91.5898L56.7461 110.949L68.4994 116.918L68.5225 91.5898Z" fill="#0DCAF4"/>
</g>
<path d="M49.7169 80.3427L45.0195 78.0328L45.021 75.6328L49.7184 77.9422L49.7169 80.3427Z" fill="#002869"/>
<path d="M54.2268 78.0957L49.7188 75.9137L54.2283 75.6836L54.2268 78.0957Z" fill="#002869"/>
<path d="M50.6607 69.809L50.6562 74.5132L55.6445 73.0089L58.7487 68.6716L55.8906 66.6406L50.6607 69.809Z" fill="#064FBA"/>
<path d="M50.6666 62.8159L50.6641 66.8843L56.6089 64.5749L57.5669 60.5519L54.7043 59.957L50.6666 62.8159Z" fill="#064FBA"/>
<path d="M42.8867 59.1122L45.0274 58.043L49.7253 60.3523L47.5841 61.422L42.8867 59.1122Z" fill="#0ABFBF"/>
<path d="M54.2424 58.1106L49.5441 55.8008L47.3516 56.8847L52.0499 59.1945L54.2424 58.1106Z" fill="#0ABFBF"/>
<path d="M57.9524 57.154L53.4673 54.9219L52.043 56.2307L56.8624 57.9642L57.9524 57.154Z" fill="#0ABFBF"/>
<path d="M45.0293 55.6523L49.7262 57.9626L49.7252 60.3626L45.0273 58.0528L45.0293 55.6523Z" fill="#286BF0"/>
<path d="M49.545 53.3945L54.2428 55.7039L54.2408 58.116L49.543 55.8062L49.545 53.3945Z" fill="#286BF0"/>
<path d="M51.8639 52.2305L56.5613 54.5407L54.2442 55.6976L49.5469 53.3886L51.8639 52.2305Z" fill="#0ABFBF"/>
<path d="M47.3439 54.4922L52.0417 56.8024L49.7242 57.9593L45.0273 55.6499L47.3439 54.4922Z" fill="#0ABFBF"/>
<path d="M54.2264 78.1043L54.2284 75.6922C53.7915 75.9184 53.3037 76.1657 52.7632 76.436L52.0359 76.7994L52.0339 79.1999L49.7173 80.3567L49.7188 77.9567L47.5781 79.0259L47.5906 61.4341L49.7318 60.3648L49.7333 57.9644L52.0503 56.8075L52.0483 59.2075L53.6799 58.3921C53.8737 58.2955 54.0605 58.2061 54.2413 58.1237L54.2433 55.712L56.5599 54.5547L56.5579 57.1701C57.077 57.0393 57.5453 57.0333 57.9602 57.1541C58.4315 57.2867 58.8226 57.5811 59.134 58.0373C59.4448 58.4936 59.6003 59.1018 59.6003 59.8619C59.5993 60.686 59.406 61.5376 59.0209 62.4182C58.6363 63.2984 58.1147 64.0745 57.4561 64.747C58.3842 64.5955 59.0971 64.7712 59.5963 65.2737C60.094 65.777 60.3425 66.5363 60.3421 67.552C60.3411 68.3523 60.1796 69.2108 59.8568 70.1273C59.534 71.0445 59.0921 71.8712 58.5307 72.6071C57.9906 73.3172 57.329 73.9233 56.5454 74.427L56.5434 76.947L54.2264 78.1043ZM50.6599 69.8212L50.6559 74.5254L53.503 73.1035C54.6115 72.5497 55.3144 72.1625 55.6128 71.9419C56.0701 71.6173 56.4423 71.1978 56.7297 70.6819C57.0172 70.1665 57.1622 69.5963 57.1627 68.9721C57.1632 68.4446 57.0521 68.0518 56.8309 67.7946C56.6097 67.5373 56.2893 67.4289 55.8699 67.4704C55.4509 67.5114 54.5422 67.8818 53.1433 68.581L50.6599 69.8212ZM50.6644 62.8253L50.6619 66.8937L52.6775 65.8871C53.8751 65.2883 54.6204 64.8964 54.9109 64.7108C55.4374 64.3762 55.8519 63.9588 56.1543 63.4603C56.4557 62.9617 56.6062 62.4286 56.6067 61.861C56.6067 61.3171 56.4772 60.9398 56.2176 60.7296C55.958 60.5194 55.573 60.5056 55.0593 60.6903C54.7549 60.8021 53.8781 61.2195 52.4309 61.943L50.6644 62.8253Z" fill="#1DE7FB"/>
<path d="M42.8875 59.1133L47.5848 61.4231L47.5719 79.0145L42.875 76.7051L42.8875 59.1133Z" fill="#286BF0"/>
<path d="M99.7969 97.2876C99.7969 85.3125 99.7969 74.0578 99.7969 71.2305" stroke="#286BF1" stroke-width="0.498182" stroke-linecap="round"/>
<defs>
<linearGradient id="paint0_linear_2377_159975" x1="109.971" y1="32.1879" x2="109.971" y2="138.808" gradientUnits="userSpaceOnUse">
<stop stop-color="#3488F2"/>
<stop offset="0.56" stop-color="#23C4EA"/>
<stop offset="1" stop-color="#13FFE2"/>
</linearGradient>
<linearGradient id="paint1_linear_2377_159975" x1="102.779" y1="139.415" x2="116.23" y2="139.415" gradientUnits="userSpaceOnUse">
<stop stop-color="#A7FFE2"/>
<stop offset="0.56" stop-color="#71E1F0"/>
<stop offset="1" stop-color="#3BC3FF"/>
</linearGradient>
<linearGradient id="paint2_linear_2377_159975" x1="83.7187" y1="93.0886" x2="89.2971" y2="122.987" gradientUnits="userSpaceOnUse">
<stop stop-color="#D3C2FF"/>
<stop offset="0.56" stop-color="#AD84FF"/>
<stop offset="1" stop-color="#8845FF"/>
</linearGradient>
<linearGradient id="paint3_linear_2377_159975" x1="98.3036" y1="99.469" x2="106.107" y2="132.308" gradientUnits="userSpaceOnUse">
<stop stop-color="#D3C2FF"/>
<stop offset="0.56" stop-color="#AD84FF"/>
<stop offset="1" stop-color="#8845FF"/>
</linearGradient>
<linearGradient id="paint4_linear_2377_159975" x1="113.639" y1="106.09" x2="123.48" y2="128.805" gradientUnits="userSpaceOnUse">
<stop stop-color="#D3C2FF"/>
<stop offset="0.56" stop-color="#AD84FF"/>
<stop offset="1" stop-color="#8845FF"/>
</linearGradient>
<linearGradient id="paint5_linear_2377_159975" x1="92.4657" y1="64.3321" x2="97.3687" y2="94.8015" gradientUnits="userSpaceOnUse">
<stop stop-color="#D3C2FF"/>
<stop offset="0.56" stop-color="#AD84FF"/>
<stop offset="1" stop-color="#8845FF"/>
</linearGradient>
<linearGradient id="paint6_linear_2377_159975" x1="105.072" y1="71.256" x2="111.149" y2="98.8675" gradientUnits="userSpaceOnUse">
<stop stop-color="#D3C2FF"/>
<stop offset="0.56" stop-color="#AD84FF"/>
<stop offset="1" stop-color="#8845FF"/>
</linearGradient>
<linearGradient id="paint7_linear_2377_159975" x1="116.178" y1="77.8771" x2="123.673" y2="102.72" gradientUnits="userSpaceOnUse">
<stop stop-color="#D3C2FF"/>
<stop offset="0.56" stop-color="#AD84FF"/>
<stop offset="1" stop-color="#8845FF"/>
</linearGradient>
<linearGradient id="paint8_linear_2377_159975" x1="107.583" y1="25.6286" x2="121.417" y2="42.9357" gradientUnits="userSpaceOnUse">
<stop stop-color="#3E16FF"/>
<stop offset="0.56" stop-color="#237BF9"/>
<stop offset="1" stop-color="#09E1F2"/>
</linearGradient>
<linearGradient id="paint9_linear_2377_159975" x1="109.971" y1="32.2003" x2="109.971" y2="138.82" gradientUnits="userSpaceOnUse">
<stop stop-color="#3488F2"/>
<stop offset="0.56" stop-color="#23C4EA"/>
<stop offset="1" stop-color="#13FFE2"/>
</linearGradient>
<linearGradient id="paint10_linear_2377_159975" x1="160.069" y1="103.616" x2="169.536" y2="115.46" gradientUnits="userSpaceOnUse">
<stop stop-color="#3E16FF"/>
<stop offset="0.56" stop-color="#237BF9"/>
<stop offset="1" stop-color="#09E1F2"/>
</linearGradient>
<linearGradient id="paint11_linear_2377_159975" x1="67.1293" y1="99.1646" x2="77.4701" y2="112.101" gradientUnits="userSpaceOnUse">
<stop stop-color="#3E16FF"/>
<stop offset="0.56" stop-color="#237BF9"/>
<stop offset="1" stop-color="#09E1F2"/>
</linearGradient>
</defs>
</svg>
