<svg width="156" height="169" viewBox="0 0 156 169" fill="none" xmlns="http://www.w3.org/2000/svg">
<path d="M139.742 12.0619L140.677 12.2975L139.742 12.5295C134.266 13.9027 129.985 18.18 128.612 23.6561L128.38 24.5914L128.144 23.6561C126.773 18.18 122.493 13.9027 117.017 12.5295L116.082 12.2975L117.017 12.0619C122.493 10.6887 126.773 6.40763 128.144 0.935258L128.38 0L128.612 0.935258C129.985 6.40763 134.266 10.6887 139.742 12.0619Z" fill="#FFCF63"/>
<path d="M19.6711 90.8817L20.4489 91.0779L19.6711 91.2751C15.1163 92.414 11.5586 95.9718 10.4196 100.527L10.2224 101.304L10.0302 100.527C8.88626 95.9718 5.32954 92.414 0.778755 91.2751L0 91.0779L0.778755 90.8817C5.32954 89.7417 8.88626 86.185 10.0302 81.6342L10.2224 80.8555L10.4196 81.6342C11.5586 86.185 15.1163 89.7417 19.6711 90.8817Z" fill="#FFCF63"/>
<path d="M154.501 45.0632L155.003 45.1907L154.501 45.3182C151.577 46.0475 149.291 48.3351 148.557 51.263L148.429 51.7642L148.305 51.263C147.572 48.3351 145.285 46.0475 142.357 45.3182L141.859 45.1907L142.357 45.0632C145.285 44.3291 147.572 42.0463 148.305 39.1184L148.429 38.6172L148.557 39.1184C149.291 42.0463 151.577 44.3291 154.501 45.0632Z" fill="#FFCF63"/>
<path d="M14.7424 119.683L15.3268 119.832L14.7424 119.975C11.3285 120.831 8.66327 123.496 7.80716 126.906L7.66289 127.491L7.51547 126.906C6.66357 123.496 3.99414 120.831 0.584431 119.975L0 119.832L0.584431 119.683C3.99414 118.828 6.66357 116.162 7.51547 112.752L7.66289 112.168L7.80716 112.752C8.66327 116.162 11.3285 118.828 14.7424 119.683Z" fill="#FFCF63"/>
<path d="M117.107 121.965H37.6368C31.8321 121.965 27.125 117.261 27.125 111.458V60.2011C27.125 54.3983 31.8321 49.6953 37.6368 49.6953H117.107C122.908 49.6953 127.611 54.3983 127.611 60.2011V111.458C127.611 117.261 122.908 121.965 117.107 121.965Z" fill="#5D3393"/>
<path d="M111.948 57.2435C111.948 75.8862 96.8344 90.9966 78.1897 90.9966C59.55 90.9966 44.4375 75.8862 44.4375 57.2435C44.4375 38.5987 59.55 23.4883 78.1897 23.4883C96.8344 23.4883 111.948 38.5987 111.948 57.2435Z" fill="#ECBB35"/>
<path d="M103.53 57.2437C103.53 71.2351 92.1874 82.5791 78.1909 82.5791C64.1984 82.5791 52.8555 71.2351 52.8555 57.2437C52.8555 43.2472 64.1984 31.9062 78.1909 31.9062C92.1874 31.9062 103.53 43.2472 103.53 57.2437Z" fill="#F6E080"/>
<path d="M89.763 62.704C89.763 61.1583 89.3119 59.8629 88.4129 58.8179C87.5067 57.777 86.2945 57.0898 84.7701 56.7593C85.1897 56.5749 85.4867 56.4401 85.6499 56.3569C85.8161 56.2769 86.109 56.0701 86.5286 55.7397C87.7713 54.8031 88.3936 53.372 88.3936 51.4492C88.3936 49.8569 87.8433 48.4267 86.7425 47.1618C86.1323 46.4806 85.2221 45.9424 84.014 45.5431C83.6541 45.4245 83.27 45.3292 82.8656 45.2461V42.1172H78.5508V44.9461H75.66V42.1172H71.3442V44.9461H70.1411H66.625V49.5873H70.1411V64.8852H66.625V69.5284H70.1411H71.3442V72.3543H75.66V69.5284H78.5508V72.3543H82.8656V69.421C85.21 69.1696 86.928 68.4489 88.0054 67.2418C89.1771 65.9312 89.763 64.4189 89.763 62.704ZM81.7141 50.1153C82.3912 50.4681 82.7318 51.1867 82.7318 52.2773C82.7318 53.3699 82.3628 54.0764 81.6229 54.4028C80.886 54.7342 79.7539 54.8964 78.2295 54.8964H75.6286V49.5873H78.2649C79.8846 49.5873 81.029 49.7636 81.7141 50.1153ZM82.9254 64.3034C82.1378 64.6916 80.9621 64.8852 79.39 64.8852H75.6286V59.2244H78.8629C80.6925 59.2244 82.0223 59.4058 82.8544 59.7676C83.6856 60.1325 84.1011 60.8826 84.1011 62.0198C84.1011 63.155 83.7089 63.9172 82.9254 64.3034Z" fill="white"/>
<path d="M121.581 139.675H37.6368C31.8321 139.675 27.125 134.97 27.125 129.169V59.8906C27.125 59.8906 27.497 63.65 31.9466 65.9762C34.7147 67.4235 39.2048 67.4073 41.3222 67.4073H121.581C127.386 67.4073 132.089 72.1083 132.089 77.9131V129.169C132.089 134.97 127.386 139.675 121.581 139.675Z" fill="url(#paint0_linear_2020_146938)"/>
<path d="M103.704 114.612C101.103 114.612 98.9961 112.504 98.9961 109.903V96.9464C98.9961 94.3465 101.103 92.2383 103.704 92.2383H132.093V114.612H103.704Z" fill="url(#paint1_linear_2020_146938)"/>
<path d="M112.798 103.422C112.798 106.002 110.703 108.095 108.126 108.095C105.544 108.095 103.453 106.002 103.453 103.422C103.453 100.84 105.544 98.75 108.126 98.75C110.703 98.75 112.798 100.84 112.798 103.422Z" fill="white"/>
<g filter="url(#filter0_f_2020_146938)">
<ellipse cx="79.5" cy="157.5" rx="59.5" ry="5.5" fill="#48128E" fill-opacity="0.8"/>
</g>
<defs>
<filter id="filter0_f_2020_146938" x="14.6455" y="146.645" width="129.709" height="21.709" filterUnits="userSpaceOnUse" color-interpolation-filters="sRGB">
<feFlood flood-opacity="0" result="BackgroundImageFix"/>
<feBlend mode="normal" in="SourceGraphic" in2="BackgroundImageFix" result="shape"/>
<feGaussianBlur stdDeviation="2.67725" result="effect1_foregroundBlur_2020_146938"/>
</filter>
<linearGradient id="paint0_linear_2020_146938" x1="132.089" y1="139.675" x2="20.5137" y2="123.545" gradientUnits="userSpaceOnUse">
<stop stop-color="#400789"/>
<stop offset="1" stop-color="#9E64E7"/>
</linearGradient>
<linearGradient id="paint1_linear_2020_146938" x1="132.093" y1="114.612" x2="97.1008" y2="108.924" gradientUnits="userSpaceOnUse">
<stop stop-color="#7830D2"/>
<stop offset="1" stop-color="#BB86FF"/>
</linearGradient>
</defs>
</svg>
