<svg width="187" height="192" viewBox="0 0 187 192" fill="none" xmlns="http://www.w3.org/2000/svg">
<path d="M144.547 133.023H176.95V129.27H144.547V133.023Z" fill="#1E0E36"/>
<path d="M151.555 184.194H153.181V132.148H151.555V184.194Z" fill="#1E0E36"/>
<path d="M169.695 184.194H171.322V132.148H169.695V184.194Z" fill="#1E0E36"/>
<path d="M166.316 184.194H167.943V132.148H166.316V184.194Z" fill="#1E0E36"/>
<path d="M167.13 169.742H151.555V171.369H167.13V169.742Z" fill="#1E0E36"/>
<path d="M167.296 98.9333L78.1575 139.25L15.3555 119.468L119.947 77.3242L167.296 98.9333Z" fill="#272448"/>
<path d="M75.4853 124.466L71.8794 125.906C71.6359 126.003 71.3695 126.024 71.1137 125.967L65.5112 124.713C64.2653 124.434 64.1277 122.713 65.3132 122.239L68.9191 120.799C69.1621 120.702 69.429 120.681 69.6843 120.739L75.2873 121.992C76.5332 122.271 76.6708 123.992 75.4853 124.466Z" fill="#ECECEC"/>
<path d="M128.761 106.823L90.4343 121.522L67.9414 116.398L106.268 101.699L128.761 106.823Z" fill="#ECECEC"/>
<path d="M78.5312 116.143L106.645 105.031" stroke="white" stroke-width="0.441038" stroke-linecap="round" stroke-linejoin="round"/>
<path d="M83.1016 117.166L111.215 106.055" stroke="white" stroke-width="0.441038" stroke-linecap="round" stroke-linejoin="round"/>
<path d="M87.6719 118.19L115.785 107.078" stroke="white" stroke-width="0.441038" stroke-linecap="round" stroke-linejoin="round"/>
<path d="M5.09766 152.497C5.15543 114.039 14.6161 99.8598 24.4949 94.7349C41.5679 85.8784 60.3469 103.825 76.6534 93.0113C88.6042 85.0863 82.5584 72.7673 95.6198 49.0434C97.0862 46.3795 101.935 37.5716 109.297 28.9727" stroke="url(#paint0_linear_2020_147134)" stroke-width="0.441038" stroke-miterlimit="10"/>
<g opacity="0.6">
<path d="M12.6406 30.3225L55.4786 22.5391L55.7194 53.5802L12.6609 64.8919L12.6406 30.3225Z" fill="#BADAFF"/>
</g>
<g opacity="0.6">
<path d="M68.4926 13.0011L96.2056 8.48047L96.1818 33.5358L68.4688 39.7104L68.4926 13.0011Z" fill="#F0E4FF"/>
</g>
<path d="M121.076 22.4531L121.134 86.3516L25.5909 122.906L24.4297 42.7991L121.076 22.4531Z" fill="#1E0E36"/>
<g opacity="0.6">
<path d="M113.664 34.3734L141.425 27.7578V50.0188L113.664 58.1779V34.3734Z" fill="#ADD2FF"/>
<path d="M117.422 53.4703C127.456 50.5498 127.918 35.1492 138.284 32.5625" stroke="white" stroke-width="0.810627" stroke-linecap="round" stroke-linejoin="round"/>
<path d="M138.288 32.2812L127.602 34.9398" stroke="white" stroke-width="0.202436" stroke-linecap="round" stroke-linejoin="round"/>
<path d="M127.839 34.9234C127.837 35.1007 127.692 35.2811 127.514 35.3252C127.336 35.3697 127.194 35.2617 127.195 35.0835C127.197 34.9058 127.342 34.7258 127.52 34.6817C127.698 34.6376 127.841 34.7461 127.839 34.9234Z" fill="white"/>
<path d="M117.457 53.4057L128.13 50.3008" stroke="white" stroke-width="0.202436" stroke-linecap="round" stroke-linejoin="round"/>
<path d="M127.891 50.4124C127.889 50.5897 128.031 50.6915 128.209 50.6399C128.387 50.5879 128.532 50.4027 128.534 50.2254C128.535 50.0481 128.393 49.9462 128.215 49.9978C128.038 50.0494 127.892 50.2351 127.891 50.4124Z" fill="white"/>
</g>
<path d="M146.113 57.5366C146.113 57.5366 144.423 61.9578 144.497 62.3945C144.576 62.8613 146.115 64.0031 146.115 64.0031" fill="#E5B970"/>
<path d="M159.155 47.9469L146.257 50.9247C146.257 50.9247 144.583 66.5744 147.457 68.0694C150.332 69.564 157.921 65.4963 157.921 65.4963L160.906 63.922" fill="#FED796"/>
<path d="M149.334 64.1662C149.334 64.1662 148.633 65.6901 146.873 65.3175" stroke="#032220" stroke-width="0.32284" stroke-linecap="round" stroke-linejoin="round"/>
<path d="M147.255 58.7431C147.303 59.1013 147.54 59.3646 147.784 59.3321C148.028 59.2992 148.186 58.9823 148.138 58.6246C148.09 58.266 147.853 58.0027 147.609 58.0352C147.366 58.0681 147.207 58.385 147.255 58.7431Z" fill="#032220"/>
<path d="M147.243 55.8949C147.175 56.093 147.559 56.4044 148.1 56.5914C148.642 56.7779 149.136 56.7692 149.205 56.5711C149.273 56.3734 148.889 56.0615 148.347 55.875C147.805 55.688 147.311 55.6972 147.243 55.8949Z" fill="#032220"/>
<path d="M152.058 55.223C150.576 54.7008 150.673 51.7488 150.673 51.7488C150.673 51.7488 149.431 53.7406 147.778 53.8491C146.455 53.9367 147.183 52.5178 146.423 52.5597C145.492 52.6105 143.229 53.8483 142.779 52.9362C142.349 52.0628 144.638 50.9763 143.902 50.9167C142.911 50.8357 142.123 50.029 142.299 49.1496C142.442 48.428 144.534 47.4846 145.392 47.2606C146.517 46.967 149.135 46.5485 151.535 46.1841C153.705 45.8549 155.161 45.533 159.267 46.9466C160.774 47.4652 161.774 48.617 162.657 49.3338C164.396 50.7453 166.329 52.7289 165.291 54.2875C164.212 55.907 163.132 55.0963 163.132 55.0963C163.132 55.0963 166.031 57.649 164.243 59.0005C162.47 60.3402 160.645 58.6844 160.645 58.6844C160.645 58.6844 163.027 60.0846 162.367 61.7153C161.516 63.8207 160.638 64.9548 158.114 64.3967C156.909 64.1304 155.623 60.1427 155.398 59.6839" fill="#032220"/>
<path d="M152.865 58.1264C153.035 59.3958 154.203 60.2871 155.473 60.1161C156.742 59.9454 157.633 58.7778 157.462 57.5083C157.291 56.2388 156.124 55.3475 154.854 55.5186C153.585 55.6892 152.694 56.8569 152.865 58.1264Z" fill="#FED796"/>
<path d="M155.162 57.8157C155.162 57.8157 154.892 55.8457 156.257 57.1486" stroke="#032220" stroke-width="0.32284" stroke-linecap="round" stroke-linejoin="round"/>
<path d="M155.328 56.7734L155.687 57.3113" stroke="#032220" stroke-width="0.32284" stroke-linecap="round" stroke-linejoin="round"/>
<path d="M151.761 66.6035L152.973 75.6158C152.973 75.6158 163.844 76.481 162.704 74.3066C160.435 69.9787 160.91 63.9211 160.91 63.9211" fill="#FED796"/>
<path d="M151.94 67.9353C151.94 67.9353 155.908 66.822 156.213 66.0417C156.213 66.0417 156.362 70.8257 152.756 72.7484L151.94 67.9353Z" fill="#E5B970"/>
<path d="M78.2656 61.3564L93.597 55.4023L107.876 60.5947L91.7173 66.4384L78.2656 61.3564Z" fill="#DABDFF"/>
<path d="M78.349 61.4023L91.8425 66.4465L91.9528 84.5952L78.1562 79.6335L78.349 61.4023Z" fill="url(#paint1_linear_2020_147134)"/>
<path d="M91.8711 66.418L107.932 60.6016V78.8045L91.8711 84.8966V66.418Z" fill="url(#paint2_linear_2020_147134)"/>
<path d="M105.091 66.4409C105.474 66.4599 105.769 66.7863 105.751 67.1691C105.731 67.5523 105.405 67.8478 105.022 67.8289C103.853 67.7707 102.454 69.4378 101.009 72.9868C99.3612 77.0333 97.6553 79.1366 95.7072 79.1816C95.324 79.1904 95.0055 78.887 94.9963 78.5033C94.9879 78.1196 95.2913 77.8016 95.675 77.7928C96.8605 77.7654 98.271 76.0269 99.722 72.4629C101.376 68.4009 103.104 66.3417 105.091 66.4409Z" fill="white"/>
<path d="M105.091 66.4409C105.474 66.4599 105.769 66.7863 105.751 67.1691C105.731 67.5523 105.405 67.8478 105.022 67.8289C103.853 67.7707 102.454 69.4378 101.009 72.9868C99.3612 77.0333 97.6553 79.1366 95.7072 79.1816C95.324 79.1904 95.0055 78.887 94.9963 78.5033C94.9879 78.1196 95.2913 77.8016 95.675 77.7928C96.8605 77.7654 98.271 76.0269 99.722 72.4629C101.376 68.4009 103.104 66.3417 105.091 66.4409Z" stroke="white" stroke-width="0.665526" stroke-miterlimit="10"/>
<path d="M135.644 71.2637C135.644 71.2637 136.988 68.3959 136.268 66.884C136.028 66.3795 132.775 60.0301 132.44 59.644C132.106 59.2578 131.715 60.3356 131.823 60.9596C131.932 61.5838 132.358 64.4641 132.358 64.4641C132.358 64.4641 129.295 65.6202 129.267 67.2692C129.239 68.9188 132.403 71.9498 132.403 71.9498L135.644 71.2637Z" fill="#FED796"/>
<path d="M150.268 92.1878C149.803 92.6519 135.797 72.503 135.704 70.8316L132.408 71.3894C132.408 71.3894 138.731 93.4958 142.817 96.4653C146.903 99.4354 150.268 92.1878 150.268 92.1878Z" fill="#FED796"/>
<path d="M110.381 110.831C110.381 110.831 107.363 109.921 105.926 110.112C104.49 110.304 99.9871 114.471 100.657 114.615C101.328 114.758 104.565 113.301 105.485 113.455C106.405 113.609 111.215 113.824 111.215 113.824L110.381 110.831Z" fill="#FED796"/>
<path d="M127.431 99.6689C127.219 100.291 113.541 109.084 110.103 110.758L110.921 113.755C110.921 113.755 127.562 110.616 131.7 107.72C137.69 103.527 143.755 97.1595 143.755 97.1595C143.755 97.1595 139.247 84.7282 137.153 86.9358C131.37 93.034 127.431 99.6689 127.431 99.6689Z" fill="#FED796"/>
<path d="M125.658 180.504C125.658 180.504 123.93 179.379 119.77 179.379C118.812 179.379 116.837 179.888 116.058 180.321C115.423 180.675 115.375 182.759 115.375 182.759L128.115 186.083C128.115 186.083 129.837 182.438 127.781 180.94L125.658 180.504Z" fill="#018788"/>
<path d="M124.559 176.109L124.821 180.592C124.821 180.592 126.006 181.697 128.1 181.552L129.252 176.924L124.559 176.109Z" fill="#FED796"/>
<path d="M124.719 177.539L128.506 179.922L128.795 178.762L124.719 177.539Z" fill="#E5B970"/>
<path d="M167.214 122.633C167.214 122.633 160.75 131.143 141.836 142.183C141.836 142.183 139.447 158.065 130.34 177.682C130.141 178.111 131.217 178.551 129.733 178.974C129.481 179.046 123.441 177.139 123.441 177.139C122.516 176.492 123.951 176.02 123.841 175.079C123.046 168.27 125.135 142.022 128.268 135.756C131.286 129.72 149.691 119.332 149.691 119.332L167.214 122.633Z" fill="#332E5F"/>
<path d="M155.959 160.013C155.959 160.013 158.227 159.563 159.681 161.658C159.681 161.658 158.634 167.066 155.377 170.44H148.863C148.863 170.44 149.327 169.427 150.208 168.816C150.542 168.584 152.527 167.125 153.633 166.95L154.272 161.308L155.959 160.013Z" fill="#018788"/>
<path d="M149.484 159.812L154.477 162.87C154.477 162.87 156.619 161.441 156.619 160.014L154.273 155.949L149.484 159.812Z" fill="#FED796"/>
<path d="M154.864 156.66L152.365 161.576L149.484 159.812L154.864 156.66Z" fill="#E5B970"/>
<path d="M142.19 115.406C142.19 115.406 121.003 125.43 115.055 136.115C112.068 141.479 120.809 148.08 132.595 153.304C132.595 153.304 141.272 156.638 147.005 158.685C147.671 158.923 147.832 160.197 148.4 160.393C149.073 160.625 149.912 160.05 150.609 159.919C150.609 159.919 152.747 158.681 154.864 156.659C154.864 156.659 155.798 155.817 155.345 154.837C155.142 154.399 153.844 154.163 153.472 153.566C152.589 152.15 151.162 150.32 148.864 148.228C142.253 142.208 139.492 140.086 139.492 140.086C139.492 140.086 165.7 129.925 167.128 125.64C168.556 121.356 151.116 108.622 142.19 115.406Z" fill="#433D7E"/>
<path d="M153.152 122.637C153.152 122.637 134.711 131.849 130.009 135.585C125.306 139.321 127.566 143.487 134.607 147.223C141.648 150.959 149.551 155.126 149.551 155.126" stroke="#332E5F" stroke-width="0.441038" stroke-linecap="round" stroke-linejoin="round"/>
<path d="M150.031 125.717C149.75 125.868 149.048 126.986 149.887 126.986C150.725 126.986 150.877 125.262 150.031 125.717Z" fill="#332E5F"/>
<path d="M134.686 135.367C134.467 135.135 133.205 134.751 133.424 135.561C133.643 136.369 135.347 136.065 134.686 135.367Z" fill="#332E5F"/>
<path d="M137.311 146.351C137.352 146.034 136.848 144.815 136.362 145.497C135.875 146.179 137.191 147.304 137.311 146.351Z" fill="#332E5F"/>
<path d="M146.208 151.602C146.348 151.888 147.439 152.63 147.47 151.793C147.502 150.955 145.784 150.739 146.208 151.602Z" fill="#332E5F"/>
<path d="M153.237 154.887C153.237 154.887 151.135 157.792 149.07 158.239" stroke="#332E5F" stroke-width="0.441038" stroke-linecap="round" stroke-linejoin="round"/>
<path d="M145.959 128.035C145.791 128.224 146.006 129.185 146.486 128.898C146.965 128.61 146.722 127.17 145.959 128.035Z" fill="#332E5F"/>
<path d="M140.138 131.788C140.163 131.537 139.426 130.886 139.206 131.399C138.987 131.913 140.027 132.936 140.138 131.788Z" fill="#332E5F"/>
<path d="M134.119 143.785C134.143 143.533 133.406 142.881 133.186 143.395C132.967 143.909 134.008 144.933 134.119 143.785Z" fill="#332E5F"/>
<path d="M142.618 129.534C142.505 129.675 142.355 130.212 142.714 130.252C143.073 130.292 143.425 129.754 143.337 129.534C143.27 129.368 142.852 129.243 142.618 129.534Z" fill="#332E5F"/>
<path d="M141.5 148.785C141.331 148.719 140.774 148.733 140.842 149.088C140.909 149.443 141.527 149.621 141.711 149.472C141.85 149.359 141.847 148.923 141.5 148.785Z" fill="#332E5F"/>
<path d="M136.965 133.173C136.791 133.126 136.239 133.203 136.346 133.549C136.453 133.894 137.087 134 137.253 133.831C137.379 133.702 137.326 133.27 136.965 133.173Z" fill="#332E5F"/>
<path d="M131.77 141.138C131.595 141.09 131.043 141.168 131.151 141.513C131.258 141.858 131.891 141.965 132.057 141.796C132.183 141.668 132.13 141.235 131.77 141.138Z" fill="#332E5F"/>
<path d="M143.84 150.157C143.665 150.11 143.114 150.188 143.221 150.533C143.328 150.878 143.962 150.985 144.128 150.815C144.254 150.687 144.2 150.255 143.84 150.157Z" fill="#332E5F"/>
<path d="M131.541 138.16C131.438 138.011 130.967 137.713 130.826 138.046C130.684 138.379 131.099 138.87 131.335 138.848C131.514 138.832 131.753 138.468 131.541 138.16Z" fill="#332E5F"/>
<path d="M139.506 147.749C139.403 147.6 138.931 147.303 138.79 147.636C138.649 147.969 139.063 148.46 139.3 148.439C139.479 148.422 139.717 148.057 139.506 147.749Z" fill="#332E5F"/>
<path d="M149.404 153.328C149.301 153.179 148.83 152.881 148.689 153.214C148.548 153.547 148.962 154.038 149.198 154.016C149.377 153.999 149.616 153.636 149.404 153.328Z" fill="#332E5F"/>
<path d="M142.262 115.381C142.262 115.381 150.014 118.543 151.375 123.747C152.736 128.951 155.298 131.753 157.139 132.313L164.253 128.679L147.545 113.859L142.262 115.381Z" fill="#332E5F"/>
<path d="M140.341 139.754L136.82 141.128L143.418 143.377L140.341 139.754Z" fill="#332E5F"/>
<path d="M145.248 137.895L136.004 141.565" stroke="#1E0E36" stroke-width="0.441038" stroke-linecap="round" stroke-linejoin="round"/>
<path d="M134.301 88.9C134.301 88.9 140.907 95.7189 143.756 97.1633C143.756 97.1633 146.197 107.159 143.325 109.999C143.325 109.999 138.295 115.683 145.431 116.437C152.568 117.191 153.945 126.482 156.793 127.927C159.641 129.371 166.06 130.835 168.214 128.705C170.368 126.574 171.587 122.371 171.174 110.155C170.988 104.621 171.166 94.5719 170.584 88.0143C170.076 82.2986 164.959 72.2724 159.247 72.2405C153.534 72.2085 144.186 77.3306 134.301 88.9Z" fill="url(#paint3_linear_2020_147134)"/>
<path d="M142.226 115.35C142.226 115.35 143.215 110.906 146.388 108.913C149.561 106.919 147.866 92.573 147.866 92.573L143.757 97.1643C143.757 97.1643 145.942 106.411 144.194 108.82C142.445 111.231 140.773 112.606 142.226 115.35Z" fill="#9951F4"/>
<path d="M143.756 97.2142C143.756 97.2142 147.311 94.0189 147.865 92.5714C147.969 92.2972 147.872 91.3978 147.872 91.3978" stroke="#2CA78C" stroke-width="0.441038" stroke-linecap="round" stroke-linejoin="round"/>
<path d="M149.367 91.9441C149.367 91.9441 148.882 91.7381 147.864 92.5708" stroke="#2CA78C" stroke-width="0.441038" stroke-linecap="round" stroke-linejoin="round"/>
<g opacity="0.6">
<path d="M18.0508 103.25L45.5548 94.4297V122.432L18.0508 133.458V103.25Z" fill="url(#paint4_linear_2020_147134)"/>
</g>
<path d="M41.5441 46.8745C41.5441 46.8745 41.423 49.3382 41.4196 49.5452C41.3473 49.3585 39.7351 45.4175 39.7351 45.4175C38.4993 45.7459 38.074 46.7964 37.9746 47.823C37.9746 47.823 37.7004 50.3366 37.6804 50.548C37.6286 50.3689 36.8962 48.1367 36.8962 48.1367C36.5181 47.017 35.2953 46.602 34.4532 46.8258L37.1104 52.7403C38.4036 52.3916 38.8665 51.3317 38.9839 50.3045C38.9839 50.3045 39.2247 48.0877 39.2338 47.9863C39.2652 48.072 40.8307 51.7513 40.8307 51.7513C42.1254 51.4071 42.6069 50.4007 42.7457 49.4037L43.3676 44.4526C42.0854 44.7933 41.6435 45.8478 41.5441 46.8745Z" fill="#9951F4"/>
<path d="M53.1448 98.0846L37.649 103.497C36.7387 103.815 36.0021 103.151 36.0039 102.015L36.0079 99.4271C36.0096 98.291 36.7493 97.1227 37.66 96.818L53.1625 91.6309C54.0732 91.3262 54.8089 91.9626 54.8058 93.0528L54.7987 95.535C54.7956 96.6252 54.0551 97.7666 53.1448 98.0846Z" fill="white"/>
<path d="M36.0703 58.2834L73.5959 48.9297" stroke="white" stroke-width="0.810627" stroke-linecap="round" stroke-linejoin="round"/>
<path d="M36.0586 65.1239L65.5864 57.5039" stroke="white" stroke-width="0.810627" stroke-linecap="round" stroke-linejoin="round"/>
<path d="M36.0469 71.9614L58.1119 65.8438" stroke="white" stroke-width="0.810627" stroke-linecap="round" stroke-linejoin="round"/>
<path d="M166.699 5.34293C167.859 5.82531 172.717 7.84527 172.519 10.5335C172.425 11.8144 171.195 13.0781 170.336 12.9621C169.386 12.8344 169.665 11.131 168.22 9.94918C166.429 8.48445 164.413 9.80368 163 8.36722C162.002 7.35177 161.802 5.46725 162.562 4.75429C163.397 3.96987 165.246 4.73866 166.699 5.34293Z" fill="url(#paint5_linear_2020_147134)"/>
<path d="M38.417 151.411C41.5492 153.119 47.3947 150.346 47.4868 147.461C47.5804 144.54 41.7646 141.849 40.9013 142.702C40.084 143.51 42.2564 145.877 41.0968 147.24C39.9962 148.534 37.1785 147.734 36.5769 148.724C36.2385 149.28 37.1722 150.731 38.417 151.411Z" fill="#FAC7BF"/>
<path d="M151.925 29.0461C152.913 30.1877 156.825 28.9105 156.95 27.5473C157.046 26.4993 154.979 24.5913 153.178 25.394C151.655 26.0725 151.256 28.2728 151.925 29.0461Z" fill="#F5C7C0"/>
<path d="M21.8159 74.2395C22.7716 73.8455 23.0249 73.132 23.4694 72.3543C23.9139 71.5766 24.4602 70.9077 25.351 71.0921C26.2417 71.276 28.3977 72.3617 28.6728 74.6676C29.1606 78.7579 28.6067 80.868 26.2805 82.6091C24.0418 84.2849 21.1768 84.0946 19.4681 83.0432C17.7595 81.9922 16.5542 79.8842 16.6077 78.1102C16.6343 77.2136 16.6942 75.1442 18.1277 74.7814C19.3199 74.4795 20.9169 74.6099 21.8159 74.2395Z" fill="url(#paint6_linear_2020_147134)"/>
<path d="M105.349 25.9629C106.107 25.5004 106.331 24.8973 106.706 24.2139C107.08 23.5314 107.531 22.9205 108.216 22.9291C108.901 22.9376 110.535 23.4561 110.662 25.2146C110.887 28.3276 110.377 30.0662 108.503 31.8225C106.698 33.5244 104.477 33.8715 103.188 33.3329C101.899 32.7891 101.042 31.3099 101.152 29.8833C101.207 29.1617 101.333 27.4975 102.461 26.9791C103.4 26.5488 104.636 26.399 105.349 25.9629Z" fill="#FACFC8"/>
<defs>
<linearGradient id="paint0_linear_2020_147134" x1="109.297" y1="152.497" x2="-2.81707" y2="142.105" gradientUnits="userSpaceOnUse">
<stop stop-color="#400789"/>
<stop offset="1" stop-color="#9E64E7"/>
</linearGradient>
<linearGradient id="paint1_linear_2020_147134" x1="91.9528" y1="84.5952" x2="77.0444" y2="83.6207" gradientUnits="userSpaceOnUse">
<stop stop-color="#7830D2"/>
<stop offset="1" stop-color="#BB86FF"/>
</linearGradient>
<linearGradient id="paint2_linear_2020_147134" x1="107.932" y1="84.8966" x2="90.5942" y2="83.6371" gradientUnits="userSpaceOnUse">
<stop stop-color="#7830D2"/>
<stop offset="1" stop-color="#BB86FF"/>
</linearGradient>
<linearGradient id="paint3_linear_2020_147134" x1="171.17" y1="129.814" x2="131.129" y2="126.75" gradientUnits="userSpaceOnUse">
<stop stop-color="#400789"/>
<stop offset="1" stop-color="#9E64E7"/>
</linearGradient>
<linearGradient id="paint4_linear_2020_147134" x1="45.5548" y1="133.458" x2="15.8853" y2="131.16" gradientUnits="userSpaceOnUse">
<stop stop-color="#7830D2"/>
<stop offset="1" stop-color="#BB86FF"/>
</linearGradient>
<linearGradient id="paint5_linear_2020_147134" x1="172.449" y1="13.0282" x2="161.269" y2="11.1417" gradientUnits="userSpaceOnUse">
<stop stop-color="#400789"/>
<stop offset="1" stop-color="#9E64E7"/>
</linearGradient>
<linearGradient id="paint6_linear_2020_147134" x1="28.6383" y1="84.0323" x2="15.5884" y2="82.2864" gradientUnits="userSpaceOnUse">
<stop stop-color="#400789"/>
<stop offset="1" stop-color="#9E64E7"/>
</linearGradient>
</defs>
</svg>
