<svg width="215" height="166" viewBox="0 0 215 166" fill="none" xmlns="http://www.w3.org/2000/svg">
<g clip-path="url(#clip0_2371_159035)">
<path d="M165.822 18.8077L166.815 19.0579L165.822 19.3042C160.007 20.7623 155.462 25.3041 154.003 31.1188L153.757 32.1119L153.507 31.1188C152.052 25.3041 147.507 20.7623 141.692 19.3042L140.699 19.0579L141.692 18.8077C147.507 17.3496 152.052 12.8038 153.507 6.99309L153.757 6L154.003 6.99309C155.462 12.8038 160.007 17.3496 165.822 18.8077Z" fill="#FFCF63"/>
<path d="M51.2234 86.7282L52.0492 86.9365L51.2234 87.1459C46.3869 88.3553 42.6092 92.133 41.3998 96.9694L41.1904 97.7953L40.9864 96.9694C39.7717 92.133 35.995 88.3553 31.1628 87.1459L30.3359 86.9365L31.1628 86.7282C35.995 85.5177 39.7717 81.7411 40.9864 76.9089L41.1904 76.082L41.3998 76.9089C42.6092 81.7411 46.3869 85.5177 51.2234 86.7282Z" fill="#FFCF63"/>
<path d="M190.806 44.3798L191.339 44.5151L190.806 44.6505C187.702 45.4249 185.274 47.854 184.494 50.9628L184.359 51.4951L184.227 50.9628C183.449 47.854 181.02 45.4249 177.911 44.6505L177.383 44.5151L177.911 44.3798C181.02 43.6003 183.449 41.1763 184.227 38.0674L184.359 37.5352L184.494 38.0674C185.274 41.1763 187.702 43.6003 190.806 44.3798Z" fill="#FFCF63"/>
<path d="M45.9899 117.312L46.6105 117.47L45.9899 117.622C42.3649 118.531 39.5349 121.361 38.6258 124.982L38.4726 125.602L38.3161 124.982C37.4115 121.361 34.577 118.531 30.9565 117.622L30.3359 117.47L30.9565 117.312C34.577 116.404 37.4115 113.573 38.3161 109.953L38.4726 109.332L38.6258 109.953C39.5349 113.573 42.3649 116.404 45.9899 117.312Z" fill="#FFCF63"/>
<path d="M154.691 119.743H70.3063C64.1426 119.743 59.1445 114.748 59.1445 108.585V54.1592C59.1445 47.9977 64.1426 43.0039 70.3063 43.0039H154.691C160.85 43.0039 165.844 47.9977 165.844 54.1592V108.585C165.844 114.748 160.85 119.743 154.691 119.743Z" fill="#5D3393"/>
<path d="M149.196 43.9517C149.196 63.7472 133.148 79.7919 113.351 79.7919C93.5586 79.7919 77.5117 63.7472 77.5117 43.9517C77.5117 24.1541 93.5586 8.10938 113.351 8.10938C133.148 8.10938 149.196 24.1541 149.196 43.9517Z" fill="#ECBB35"/>
<path d="M140.269 43.951C140.269 58.8075 128.225 70.8529 113.363 70.8529C98.5052 70.8529 86.4609 58.8075 86.4609 43.951C86.4609 29.089 98.5052 17.0469 113.363 17.0469C128.225 17.0469 140.269 29.089 140.269 43.951Z" fill="#F6E080"/>
<path d="M125.647 49.7503C125.647 48.1091 125.168 46.7336 124.213 45.624C123.251 44.5187 121.964 43.789 120.345 43.4381C120.791 43.2423 121.106 43.0991 121.279 43.0109C121.456 42.9258 121.767 42.7063 122.212 42.3554C123.532 41.361 124.193 39.8413 124.193 37.7997C124.193 36.1089 123.608 34.5903 122.44 33.2471C121.792 32.5239 120.825 31.9524 119.542 31.5283C119.16 31.4024 118.752 31.3013 118.323 31.213V27.8906H113.741V30.8944H110.672V27.8906H106.089V30.8944H104.812H101.078V35.8226H104.812V52.0664H101.078V56.9967H104.812H106.089V59.9973H110.672V56.9967H113.741V59.9973H118.323V56.8826C120.812 56.6157 122.636 55.8505 123.781 54.5687C125.025 53.1771 125.647 51.5714 125.647 49.7503ZM117.1 36.3833C117.819 36.7578 118.181 37.5209 118.181 38.679C118.181 39.8392 117.789 40.5893 117.003 40.9358C116.221 41.2878 115.019 41.46 113.4 41.46H110.638V35.8226H113.438C115.158 35.8226 116.373 36.0099 117.1 36.3833ZM118.386 51.4487C117.55 51.8609 116.302 52.0664 114.632 52.0664H110.638V46.0556H114.073C116.015 46.0556 117.427 46.2482 118.311 46.6324C119.194 47.0199 119.635 47.8163 119.635 49.0239C119.635 50.2293 119.218 51.0386 118.386 51.4487Z" fill="white"/>
<path d="M159.441 138.55H70.3063C64.1426 138.55 59.1445 133.554 59.1445 127.394V53.832C59.1445 53.832 59.5395 57.8238 64.2643 60.2938C67.2035 61.8307 71.9713 61.8135 74.2196 61.8135H159.441C165.605 61.8135 170.599 66.8051 170.599 72.9688V127.394C170.599 133.554 165.605 138.55 159.441 138.55Z" fill="url(#paint0_linear_2371_159035)"/>
<path d="M140.464 111.933C137.702 111.933 135.465 109.694 135.465 106.933V93.175C135.465 90.4144 137.702 88.1758 140.464 88.1758H170.609V111.933H140.464Z" fill="url(#paint1_linear_2371_159035)"/>
<path d="M150.114 100.05C150.114 102.79 147.89 105.013 145.153 105.013C142.412 105.013 140.191 102.79 140.191 100.05C140.191 97.3091 142.412 95.0898 145.153 95.0898C147.89 95.0898 150.114 97.3091 150.114 100.05Z" fill="white"/>
<g filter="url(#filter0_f_2371_159035)">
<ellipse cx="114.272" cy="154.581" rx="58.5888" ry="6.34712" fill="#48128E" fill-opacity="0.6"/>
</g>
</g>
<defs>
<filter id="filter0_f_2371_159035" x="49.6974" y="142.248" width="129.148" height="24.6678" filterUnits="userSpaceOnUse" color-interpolation-filters="sRGB">
<feFlood flood-opacity="0" result="BackgroundImageFix"/>
<feBlend mode="normal" in="SourceGraphic" in2="BackgroundImageFix" result="shape"/>
<feGaussianBlur stdDeviation="2.99311" result="effect1_foregroundBlur_2371_159035"/>
</filter>
<linearGradient id="paint0_linear_2371_159035" x1="170.599" y1="138.55" x2="52.1244" y2="121.422" gradientUnits="userSpaceOnUse">
<stop stop-color="#400789"/>
<stop offset="1" stop-color="#9E64E7"/>
</linearGradient>
<linearGradient id="paint1_linear_2371_159035" x1="170.609" y1="111.933" x2="133.452" y2="105.893" gradientUnits="userSpaceOnUse">
<stop stop-color="#7830D2"/>
<stop offset="1" stop-color="#BB86FF"/>
</linearGradient>
<clipPath id="clip0_2371_159035">
<rect width="214.826" height="166.002" fill="white"/>
</clipPath>
</defs>
</svg>
