<svg width="125" height="173" viewBox="0 0 125 173" fill="none" xmlns="http://www.w3.org/2000/svg">
<g filter="url(#filter0_f_2020_147031)">
<ellipse cx="75.5" cy="162" rx="43.5" ry="4" fill="#48128E"/>
</g>
<path d="M107.733 152.973L44.0977 152.589C40.1269 152.564 36.9145 149.178 36.9219 145.029L37.1606 7.45301C37.1676 3.45164 40.3285 0.202144 44.2228 0.190091L106.622 3.34588e-05C110.547 -0.0120193 113.756 3.23377 113.789 7.25322L114.92 145.465C114.955 149.633 111.736 152.997 107.733 152.973Z" fill="#8FC9ED"/>
<path d="M108.611 151.973C108.346 152.006 108.076 152.022 107.807 152.02L44.1915 151.569C40.7793 151.545 37.9901 148.576 37.9961 144.954L38.2158 7.52967C38.2214 4.03681 40.9665 1.18551 44.3134 1.17207L106.708 0.918039C106.805 0.917572 106.904 0.919426 107.001 0.923599C108.571 0.991742 110.038 1.66204 111.135 2.8084C112.256 3.98025 112.88 5.53315 112.893 7.18386L114.009 145.535C114.036 148.814 111.723 151.582 108.611 151.973Z" fill="#33201B"/>
<path d="M110.706 7.87891L111.779 145.749L40.1133 145.347L40.2959 7.87891H110.706Z" fill="white"/>
<path d="M91.9453 15.5195H80.7891L81.6527 28.4415L93.9683 28.429L91.9453 15.5195Z" fill="#FED364"/>
<path d="M80.0469 7.82031L80.7904 15.519H91.9467L90.0582 7.82031H80.0469Z" fill="#FED364"/>
<path d="M80.7921 15.5195H69.6423L69.3438 28.4535L81.6557 28.4415L80.7921 15.5195Z" fill="#5D3393"/>
<path d="M70.0397 7.82031L69.6406 15.519H80.7904L80.0469 7.82031H70.0397Z" fill="#5D3393"/>
<path d="M90.0586 7.82031L91.9471 15.519H103.108L100.073 7.82031H90.0586Z" fill="#5D3393"/>
<path d="M103.106 15.5195H91.9453L93.9683 28.429L106.288 28.4169L103.106 15.5195Z" fill="#5D3393"/>
<path d="M100.07 7.82031L103.106 15.519H114.817L110.717 7.82031H100.07Z" fill="#FED364"/>
<path d="M114.821 15.5195H103.109L106.291 28.4169L119.001 28.4039L114.821 15.5195Z" fill="#FED364"/>
<path d="M39.9802 7.82031L36.0117 15.519H47.3557L50.0351 7.82031H39.9802Z" fill="#FED364"/>
<path d="M36.0116 15.5195L32 28.4911L44.7314 28.4781L47.3556 15.5195H36.0116Z" fill="#FED364"/>
<path d="M58.4953 15.5195L57.0352 28.466L69.342 28.4535L69.6405 15.5195H58.4953Z" fill="#FED364"/>
<path d="M60.036 7.82031L58.4961 15.519H69.6413L70.0404 7.82031H60.036Z" fill="#FED364"/>
<path d="M47.3546 15.5195L44.7305 28.4781L57.0345 28.466L58.4947 15.5195H47.3546Z" fill="#5D3393"/>
<path d="M50.0348 7.82031L47.3555 15.519H58.4955L60.0354 7.82031H50.0348Z" fill="#5D3393"/>
<path d="M44.7356 28.5158L32.0046 28.5283C32.0023 28.5158 32.0014 28.5047 32 28.4922V30.4122C32 33.8596 34.8791 36.6539 38.4308 36.6539C41.6678 36.6539 44.7356 34.2856 44.7356 30.5592V28.5158Z" fill="#F0C149"/>
<path d="M57.0345 28.4416L44.7351 28.4541C44.7328 28.4416 44.7319 28.4305 44.7305 28.418V30.3375C44.7305 33.785 47.5118 36.5797 50.9434 36.5797C54.0706 36.5797 57.0345 34.2114 57.0345 30.4849V28.4416Z" fill="#9951F4"/>
<path d="M69.3397 28.4416L57.0398 28.4541C57.0375 28.4416 57.0365 28.4305 57.0352 28.418V30.3375C57.0352 33.785 59.8169 36.5797 63.2486 36.5797C66.3757 36.5797 69.3397 34.2114 69.3397 30.4849V28.4416Z" fill="#F0C149"/>
<path d="M81.6482 28.4416L69.3484 28.4541C69.3461 28.4416 69.3451 28.4305 69.3438 28.418V30.3375C69.3438 33.785 72.1255 36.5797 75.5572 36.5797C78.6843 36.5797 81.6482 34.2114 81.6482 30.4849V28.4416Z" fill="#9951F4"/>
<path d="M93.9607 28.4416L81.6613 28.4541C81.659 28.4416 81.6576 28.4305 81.6562 28.418V30.3375C81.6562 33.785 84.438 36.5797 87.8697 36.5797C90.9968 36.5797 93.9607 34.2114 93.9607 30.4849V28.4416Z" fill="#F0C149"/>
<path d="M106.265 28.4416L93.9656 28.4541C93.9633 28.4416 93.9623 28.4305 93.9609 28.418V30.3375C93.9609 33.785 96.7422 36.5797 100.174 36.5797C103.301 36.5797 106.265 34.2114 106.265 30.4849V28.4416Z" fill="#9951F4"/>
<path d="M119 28.3791L106.282 28.3916C106.28 28.3791 106.279 28.368 106.277 28.3555V30.2755C106.277 33.7229 109.154 36.5172 112.702 36.5172C115.935 36.5172 119 34.1494 119 30.4229V28.3791Z" fill="#F0C149"/>
<path d="M44.6104 28.5158V28.4922H32C32.0014 28.5047 32.0023 28.5158 32.0046 28.5283L44.6104 28.5158Z" fill="#FBD2CB"/>
<path d="M44.6094 28.5157H44.7314C44.7314 28.5079 44.7305 28.5 44.73 28.4922H44.6094V28.5157Z" fill="#F13005"/>
<path d="M44.7344 28.4922C44.7354 28.5005 44.7358 28.5088 44.7373 28.517V28.4922H44.7344Z" fill="#F13005"/>
<path d="M97.8482 90.5219H52.1055V44.8047H97.8482V90.5219Z" fill="url(#paint0_linear_2020_147031)"/>
<path d="M98 116.116H52V99.1211H98V116.116Z" fill="#46C263"/>
<path d="M83.5086 74.1383H66.5046C66.1662 74.1383 65.8663 73.9199 65.7629 73.5978L62.506 63.4502C62.43 63.2133 62.4717 62.9546 62.6182 62.7534C62.7647 62.5523 62.9983 62.4336 63.2472 62.4336H86.7655C87.0144 62.4336 87.2481 62.5523 87.3945 62.7534C87.541 62.9546 87.5832 63.2133 87.5072 63.4502L84.2498 73.5978C84.1464 73.9199 83.847 74.1383 83.5086 74.1383ZM67.072 72.5812H82.9407L85.6979 63.9907H64.3148L67.072 72.5812Z" fill="#F9F9F9"/>
<path d="M82.1116 78.4341H67.6103C67.1802 78.4341 66.832 78.0855 66.832 77.6553C66.832 77.2251 67.1802 76.877 67.6103 76.877H81.5428C82.4908 76.8534 82.92 76.1956 82.9882 75.5253C83.0494 74.9245 82.8208 74.3131 82.4175 74.1374L87.3136 58.8036C87.4165 58.481 87.7164 58.2617 88.0553 58.2617H93.1191C93.5493 58.2617 93.8974 58.6103 93.8974 59.0405C93.8974 59.4707 93.5493 59.8188 93.1191 59.8188H88.624L84.1364 74.0517C85.3291 76.0129 83.7048 78.4341 82.1116 78.4341Z" fill="#F9F9F9"/>
<path d="M72.3661 81.0407C72.3661 82.0295 71.5641 82.8309 70.5754 82.8309C69.5866 82.8309 68.7852 82.0295 68.7852 81.0407C68.7852 80.0519 69.5866 79.25 70.5754 79.25C71.5641 79.25 72.3661 80.0519 72.3661 81.0407Z" fill="#F9F9F9"/>
<path d="M81.3778 81.0407C81.3778 82.0295 80.5763 82.8309 79.5876 82.8309C78.5988 82.8309 77.7969 82.0295 77.7969 81.0407C77.7969 80.0519 78.5988 79.25 79.5876 79.25C80.5763 79.25 81.3778 80.0519 81.3778 81.0407Z" fill="#F9F9F9"/>
<path d="M75.4272 74.1383C74.997 74.1383 74.6484 73.7897 74.6484 73.3595V63.2124C74.6484 62.7822 74.997 62.4336 75.4272 62.4336C75.8574 62.4336 76.2055 62.7822 76.2055 63.2124V73.3595C76.2055 73.7897 75.8574 74.1383 75.4272 74.1383Z" fill="#F9F9F9"/>
<path d="M71.0886 74.1382C70.733 74.1382 70.4122 73.8935 70.3302 73.5319L68.0273 63.3843C67.9322 62.9648 68.1946 62.5481 68.6141 62.453C69.0336 62.358 69.4508 62.6204 69.5459 63.0399L71.8483 73.1875C71.9433 73.607 71.681 74.0237 71.2615 74.1188C71.2035 74.1317 71.1456 74.1382 71.0886 74.1382Z" fill="#F9F9F9"/>
<path d="M79.5882 74.1382C79.5511 74.1382 79.5131 74.1354 79.4751 74.1298C79.0496 74.0677 78.7547 73.6732 78.8169 73.2477L80.2928 63.1001C80.3549 62.6746 80.7499 62.3797 81.1754 62.4419C81.6009 62.504 81.8958 62.8985 81.8336 63.324L80.3577 73.4716C80.3011 73.8591 79.9688 74.1382 79.5882 74.1382Z" fill="#F9F9F9"/>
<path d="M85.1369 69.1274H64.896C64.4658 69.1274 64.1172 68.7788 64.1172 68.3486C64.1172 67.9184 64.4658 67.5703 64.896 67.5703H85.1369C85.5671 67.5703 85.9157 67.9184 85.9157 68.3486C85.9157 68.7788 85.5671 69.1274 85.1369 69.1274Z" fill="#F9F9F9"/>
<path d="M43.89 123.13C43.89 123.13 45.6619 121.654 47.2122 123.278C48.7625 124.902 49.8705 134.648 49.575 135.017C49.2796 135.386 42.5607 139.89 40.6412 138.192C38.7217 136.494 37.4665 129.923 39.5339 128.003C41.6012 126.084 43.89 123.13 43.89 123.13Z" fill="#ABB7D3"/>
<path d="M43.89 123.13C43.89 123.13 45.6619 121.654 47.2122 123.278C48.7625 124.902 49.8705 134.648 49.575 135.017C49.2796 135.386 42.5607 139.89 40.6412 138.192C38.7217 136.494 37.4665 129.923 39.5339 128.003C41.6012 126.084 43.89 123.13 43.89 123.13Z" stroke="#231F20" stroke-width="0.293954" stroke-miterlimit="10"/>
<path d="M42.851 127.445C43.4971 128.15 45.9052 131.733 45.7876 132.379C45.67 133.025 45.2003 140.602 43.1447 139.427C41.0891 138.253 37.3297 134.905 38.6807 132.79C40.0317 130.676 42.851 127.445 42.851 127.445Z" fill="#8A97B2"/>
<path d="M42.851 127.445C43.4971 128.15 45.9052 131.733 45.7876 132.379C45.67 133.025 45.2003 140.602 43.1447 139.427C41.0891 138.253 37.3297 134.905 38.6807 132.79C40.0317 130.676 42.851 127.445 42.851 127.445Z" stroke="#231F20" stroke-width="0.293954" stroke-miterlimit="10"/>
<path d="M28.3645 155.465L36.9003 145.832C36.9003 145.832 48.8822 143.561 50.2917 142.778C51.7012 141.995 58.2796 137.531 59.0627 136.357C59.8458 135.182 60.4725 133.537 59.7676 132.519C59.0627 131.501 57.6673 130.012 54.9544 130.428C52.2415 130.843 48.6244 134.118 48.2334 134.24C47.8425 134.362 41.7858 134.565 41.7858 134.565C41.7858 134.565 46.7337 120.396 47.4533 119.047C48.1729 117.698 56.3139 109.242 56.4488 104.609C56.5838 99.9765 52.5807 100.876 51.5013 101.551C50.4219 102.225 42.0557 112.391 41.2911 113.335C40.5265 114.279 35.5787 122.69 35.5787 122.69L36.8421 120.462C36.8421 120.462 34.2879 120.396 30.968 122.447L33.6518 121.066C33.6518 121.066 30.7176 120.793 26.9114 122.271L29.7387 121.363C29.7387 121.363 28.6502 120.746 26.7148 121.265C24.7794 121.784 23.1547 123.235 22.2908 124.203C21.4268 125.17 13.5115 137.855 12.6476 140.24C11.7837 142.625 11.7143 143.316 11.749 144.595C11.7837 145.874 28.3645 155.465 28.3645 155.465Z" fill="#DCE4FB"/>
<path d="M28.3645 155.465L36.9003 145.832C36.9003 145.832 48.8822 143.561 50.2917 142.778C51.7012 141.995 58.2796 137.531 59.0627 136.357C59.8458 135.182 60.4725 133.537 59.7676 132.519C59.0627 131.501 57.6673 130.012 54.9544 130.428C52.2415 130.843 48.6244 134.118 48.2334 134.24C47.8425 134.362 41.7858 134.565 41.7858 134.565C41.7858 134.565 46.7337 120.396 47.4533 119.047C48.1729 117.698 56.3139 109.242 56.4489 104.609C56.5838 99.9765 52.5807 100.876 51.5013 101.551C50.4219 102.225 42.0557 112.391 41.2911 113.335C40.5265 114.279 35.5787 122.69 35.5787 122.69L36.8421 120.462C36.8421 120.462 34.2879 120.396 30.968 122.447L33.6518 121.066C33.6518 121.066 30.7176 120.793 26.9114 122.271L29.7387 121.363C29.7387 121.363 28.6502 120.746 26.7148 121.265C24.7794 121.784 23.1547 123.235 22.2908 124.203C21.4268 125.17 13.5115 137.855 12.6476 140.24C11.7837 142.625 11.7143 143.316 11.749 144.595C11.7837 145.874 28.3645 155.465 28.3645 155.465Z" stroke="#231F20" stroke-width="0.293954" stroke-miterlimit="10"/>
<path d="M5.10563 157.094C5.10563 157.094 3.84927 155.257 3.9645 153.673C4.07973 152.09 8.74273 144.52 10.7002 143.829C12.6576 143.138 18.2419 144.721 22.5306 147.571C26.8194 150.42 29.6405 153.501 29.6693 155.919C29.6981 158.336 25.1501 164.986 23.1638 166.166C21.1776 167.346 5.10563 157.094 5.10563 157.094Z" fill="#FED364"/>
<path d="M1.2471 162.358C1.2471 162.358 -0.116844 160.362 0.00808659 158.643C0.133017 156.923 5.19697 148.702 7.32255 147.952C9.44813 147.202 15.5121 148.921 20.1695 152.016C24.8269 155.11 27.8905 158.455 27.9217 161.081C27.9528 163.706 23.0141 170.927 20.8574 172.209C18.7006 173.49 1.2471 162.358 1.2471 162.358Z" fill="url(#paint1_linear_2020_147031)"/>
<path d="M21.6358 171.554C20.0611 174.086 14.0689 173.206 8.2515 169.589C2.43414 165.972 -1.00542 160.986 0.569297 158.454C2.14401 155.922 8.13627 156.801 13.9536 160.419C19.771 164.036 23.2105 169.022 21.6358 171.554Z" fill="#5D3393"/>
<path d="M59.2646 103.891H60.4268L62.3701 109.242L64.3086 103.891H65.4756L62.834 111H61.9014L59.2646 103.891ZM58.6787 103.891H59.8164L60.0215 108.808V111H58.6787V103.891ZM64.9189 103.891H66.0615V111H64.7188V108.808L64.9189 103.891ZM69.0094 103.891V111H67.6666V103.891H69.0094ZM73.5148 103.891V111H72.177V103.891H73.5148ZM75.7219 103.891V104.95H69.9943V103.891H75.7219ZM78.1961 103.891V111H76.8533V103.891H78.1961ZM85.5092 103.891V111H84.1615L81.1391 106.068V111H79.7963V103.891H81.1391L84.1713 108.827V103.891H85.5092ZM92.5732 107.323V110.092C92.4691 110.225 92.3047 110.37 92.0801 110.526C91.8587 110.683 91.569 110.818 91.2109 110.932C90.8529 111.042 90.4134 111.098 89.8926 111.098C89.4401 111.098 89.0267 111.023 88.6523 110.873C88.278 110.72 87.9557 110.497 87.6855 110.204C87.4154 109.911 87.207 109.553 87.0605 109.13C86.9141 108.707 86.8408 108.223 86.8408 107.68V107.211C86.8408 106.667 86.9092 106.184 87.0459 105.761C87.1859 105.338 87.3844 104.979 87.6416 104.687C87.902 104.394 88.2129 104.171 88.5742 104.018C88.9388 103.865 89.3457 103.788 89.7949 103.788C90.3971 103.788 90.8919 103.887 91.2793 104.086C91.6699 104.285 91.9694 104.558 92.1777 104.906C92.3861 105.251 92.5163 105.648 92.5684 106.098H91.2598C91.224 105.85 91.1523 105.634 91.0449 105.448C90.9375 105.259 90.7845 105.113 90.5859 105.009C90.3906 104.901 90.1367 104.848 89.8242 104.848C89.5605 104.848 89.3278 104.9 89.126 105.004C88.9242 105.108 88.7549 105.259 88.6182 105.458C88.4814 105.657 88.3773 105.902 88.3057 106.195C88.2373 106.488 88.2031 106.824 88.2031 107.201V107.68C88.2031 108.061 88.2422 108.399 88.3203 108.695C88.3984 108.988 88.5107 109.236 88.6572 109.438C88.807 109.636 88.9909 109.787 89.209 109.892C89.4303 109.993 89.681 110.043 89.9609 110.043C90.2148 110.043 90.4248 110.022 90.5908 109.979C90.7601 109.934 90.8952 109.88 90.9961 109.818C91.097 109.757 91.1751 109.696 91.2305 109.638V108.305H89.8193V107.323H92.5732Z" fill="white"/>
<defs>
<filter id="filter0_f_2020_147031" x="26.6455" y="152.645" width="97.709" height="18.709" filterUnits="userSpaceOnUse" color-interpolation-filters="sRGB">
<feFlood flood-opacity="0" result="BackgroundImageFix"/>
<feBlend mode="normal" in="SourceGraphic" in2="BackgroundImageFix" result="shape"/>
<feGaussianBlur stdDeviation="2.67725" result="effect1_foregroundBlur_2020_147031"/>
</filter>
<linearGradient id="paint0_linear_2020_147031" x1="97.8482" y1="90.5219" x2="48.801" y2="85.1292" gradientUnits="userSpaceOnUse">
<stop stop-color="#400789"/>
<stop offset="1" stop-color="#9E64E7"/>
</linearGradient>
<linearGradient id="paint1_linear_2020_147031" x1="27.9218" y1="172.312" x2="-1.9124" y2="168.58" gradientUnits="userSpaceOnUse">
<stop stop-color="#400789"/>
<stop offset="1" stop-color="#9E64E7"/>
</linearGradient>
</defs>
</svg>
