<svg width="219" height="182" viewBox="0 0 219 182" fill="none" xmlns="http://www.w3.org/2000/svg">
<path d="M101.901 108.302C101.194 107.925 100.346 107.925 99.6394 108.302L31.834 144.208C31.5514 144.349 31.4102 144.679 31.5516 144.961C31.5987 145.103 31.6926 145.197 31.834 145.244L97.8962 180.254C99.6867 181.196 101.807 181.196 103.597 180.254L169.659 145.244C169.942 145.103 170.083 144.773 169.942 144.443C169.895 144.349 169.801 144.208 169.659 144.16L101.901 108.302Z" fill="#450893"/>
<path d="M186.184 99.2051C184.723 99.2051 183.262 99.5351 181.99 100.195L154.849 114.566C153.765 115.132 153.105 115.886 153.105 116.64C153.105 117.205 153.53 117.77 154.283 118.147L182.508 133.131C184.393 134.121 187.738 133.979 189.906 132.849L217 118.477C218.084 117.912 218.743 117.158 218.743 116.404C218.743 115.839 218.319 115.273 217.565 114.896L189.341 99.912C188.351 99.3937 187.267 99.158 186.184 99.2051Z" stroke="#6B5F9B" stroke-width="0.471241" stroke-miterlimit="10"/>
<path d="M34.0781 77.5332C32.6173 77.5332 31.1565 77.8633 29.8842 78.523L2.74339 92.8944C1.6597 93.4598 1 94.2138 1 94.9677C1 95.5332 1.42417 96.0986 2.17801 96.4755L30.4028 111.459C32.2876 112.449 35.6328 112.308 37.8004 111.177L64.8944 96.8054C65.9781 96.24 66.6377 95.486 66.6377 94.7321C66.6377 94.1668 66.2137 93.601 65.4596 93.2241L37.2352 78.2402C36.2456 77.7219 35.1618 77.4862 34.0781 77.5332Z" stroke="#6B5F9B" stroke-width="0.471241" stroke-miterlimit="10"/>
<path d="M148.546 178.146C149.677 178.57 150.902 178.523 151.986 178.005L165.132 171.031C165.604 170.795 165.887 170.465 165.887 170.183C165.887 169.9 165.604 169.711 165.415 169.57L151.75 162.314C150.62 161.89 149.394 161.937 148.311 162.455L135.117 169.382C134.646 169.617 134.363 169.947 134.363 170.277C134.363 170.607 134.646 170.748 134.835 170.889L148.546 178.146Z" stroke="#6B5F9B" stroke-width="0.471241" stroke-miterlimit="10"/>
<path d="M46.0465 180.72C47.1774 181.144 48.4023 181.097 49.486 180.579L62.6324 173.605C63.1036 173.369 63.3866 173.04 63.3866 172.757C63.3866 172.474 63.1036 172.286 62.9152 172.144L49.2505 164.888C48.1195 164.464 46.8945 164.511 45.8108 165.029L32.6171 171.956C32.1461 172.191 31.8633 172.521 31.8633 172.851C31.8633 173.181 32.1462 173.322 32.3347 173.464L46.0465 180.72Z" stroke="#6B5F9B" stroke-width="0.471241" stroke-miterlimit="10"/>
<g opacity="0.999998">
<path d="M101.991 147.902L32.6308 111.102L31.5 111.714L101.991 149.08L172.529 111.714L171.398 111.102L101.991 147.902Z" fill="white"/>
</g>
<path d="M101.991 149.08L31.5 111.714L101.991 74.3477L172.529 111.714L101.991 149.08Z" fill="#BCBEFF"/>
<g opacity="0.999998">
<path d="M101.993 138.899L50.7734 111.711L101.993 84.5703L153.259 111.711L101.993 138.899Z" fill="#453C9E"/>
</g>
<path d="M101.993 86.4078L151.563 112.654L153.259 111.711L101.993 84.5703L50.7734 111.711L52.4699 112.654L101.993 86.4078Z" fill="white"/>
<path d="M172.531 111.711V132.915L101.992 170.281V149.077L172.531 111.711Z" fill="#A0A2EC"/>
<path d="M161.975 126.555V130.371L112.594 156.523V152.753L161.975 126.555Z" fill="#453C9E"/>
<path d="M31.5 111.711V132.915L101.991 170.281V149.077L31.5 111.711Z" fill="#24126A"/>
<g opacity="0.5">
<path d="M36.2578 121.234V127.925L97.2305 160.25V153.558L36.2578 121.234Z" fill="#453C9E"/>
</g>
<path d="M81.449 147.992L68.6797 141.207V142.621L81.449 149.359V147.992Z" fill="#42E8E0"/>
<path d="M66.7952 140.22L63.3555 138.43V139.796L66.7952 141.634V140.22Z" fill="#42E8E0"/>
<path d="M50.5833 131.644L43.5156 127.922V129.288L50.5833 133.058V131.644Z" fill="#42E8E0"/>
<path d="M57.0852 135.081L51.9492 132.348V133.761L57.0852 136.494V135.081Z" fill="#42E8E0"/>
<path d="M61.846 137.627L58.4062 135.789V137.203L61.846 139.04V137.627Z" fill="#42E8E0"/>
<g opacity="0.999998">
<path d="M101.991 110.722L32.6308 73.9219L31.5 74.5345L101.991 111.901L172.529 74.5345L171.398 73.9219L101.991 110.722Z" fill="white"/>
</g>
<path d="M101.991 111.896L31.5 74.53L101.991 37.1641L172.529 74.53L101.991 111.896Z" fill="#BCBEFF"/>
<g opacity="0.999998">
<path d="M101.989 101.723L50.7695 74.5355L101.989 47.3945L153.255 74.5355L101.989 101.723Z" fill="#453C9E"/>
</g>
<path d="M101.989 49.2321L151.559 75.4778L153.255 74.5353L101.989 47.3945L50.7695 74.5353L52.466 75.4778L101.989 49.2321Z" fill="white"/>
<path d="M172.531 74.5352V95.7392L101.992 133.105V111.901L172.531 74.5352Z" fill="#A0A2EC"/>
<path d="M161.975 89.3789V93.1955L112.594 119.347V115.578L161.975 89.3789Z" fill="#453C9E"/>
<path d="M31.5 74.5352V95.739L101.991 133.105V111.901L31.5 74.5352Z" fill="#24126A"/>
<g opacity="0.5">
<path d="M36.2578 84.0508V90.7417L97.2305 123.066V116.375L36.2578 84.0508Z" fill="#453C9E"/>
</g>
<path d="M81.4451 110.817L68.6758 104.031V105.445L81.4451 112.183V110.817Z" fill="#42E8E0"/>
<path d="M66.7952 103.045L63.3555 101.254V102.621L66.7952 104.458V103.045Z" fill="#42E8E0"/>
<path d="M50.5833 94.4686L43.5156 90.7461V92.1126L50.5833 95.8821V94.4686Z" fill="#42E8E0"/>
<path d="M57.0852 97.9048L51.9492 95.1719V96.5854L57.0852 99.3184V97.9048Z" fill="#42E8E0"/>
<path d="M61.846 100.451L58.4062 98.6133V100.027L61.846 101.865V100.451Z" fill="#42E8E0"/>
<g opacity="0.999998">
<path d="M101.987 73.5545L32.6268 36.7539L31.4961 37.3665L101.987 74.7327L172.525 37.3665L171.394 36.7539L101.987 73.5545Z" fill="white"/>
</g>
<path d="M101.987 74.7319L31.4961 37.3659L101.987 0L172.525 37.3659L101.987 74.7319Z" fill="#BCBEFF"/>
<g opacity="0.999998">
<path d="M101.989 64.5516L50.7695 37.3636L101.989 10.2227L153.255 37.3636L101.989 64.5516Z" fill="#453C9E"/>
</g>
<path d="M101.989 12.0602L151.559 38.3059L153.255 37.3634L101.989 10.2227L50.7695 37.3634L52.466 38.3059L101.989 12.0602Z" fill="white"/>
<path d="M172.527 37.3633V58.5673L101.988 95.9332V74.7292L172.527 37.3633Z" fill="#A0A2EC"/>
<path d="M161.971 52.207V56.0237L112.59 82.1752V78.4057L161.971 52.207Z" fill="#453C9E"/>
<path d="M31.4961 37.3633V58.5671L101.987 95.933V74.7294L31.4961 37.3633Z" fill="#24126A"/>
<g opacity="0.5">
<path d="M36.2578 46.8867V53.5777L97.2305 85.9019V79.2108L36.2578 46.8867Z" fill="#453C9E"/>
</g>
<path d="M81.4412 73.6447L68.6719 66.8594V68.2731L81.4412 75.0111V73.6447Z" fill="#42E8E0"/>
<path d="M66.7874 65.8727L63.3477 64.082V65.4487L66.7874 67.2864V65.8727Z" fill="#42E8E0"/>
<path d="M50.5794 57.2967L43.5117 53.5742V54.9407L50.5794 58.7102V57.2967Z" fill="#42E8E0"/>
<path d="M57.0813 60.7408L51.9453 58.0078V59.4214L57.0813 62.1543V60.7408Z" fill="#42E8E0"/>
<path d="M61.8421 63.2791L58.4023 61.4414V62.8551L61.8421 64.6928V63.2791Z" fill="#42E8E0"/>
</svg>
