<svg width="295" height="381" viewBox="0 0 295 381" fill="none" xmlns="http://www.w3.org/2000/svg">
<path d="M254.848 312.42C254.848 312.42 248.745 311.745 249.983 318.649L172.037 273.419C166.931 270.858 160.877 271.042 155.939 273.913L86.1718 313.614C79.3279 310.477 73.037 309.459 70.2195 314.06C65.1053 322.408 68.5427 326.947 71.4311 329.754C72.1057 330.503 72.9823 331.199 74.0712 331.807C74.1637 331.861 74.2165 331.89 74.2165 331.89L155.259 378.841C160.284 381.353 166.237 381.164 171.092 378.338L253.462 331.27C253.462 331.27 265.471 323.974 254.848 312.42Z" fill="#3098E5"/>
<path d="M155.853 264.082L72.7925 311.44C68.6539 314.208 68.319 319.632 74.1305 323.093L155.173 370.044C160.198 372.557 166.151 372.367 171.006 369.541L253.376 322.472C258.004 319.777 257.195 313.675 253.007 310.62L171.951 263.588C169.558 262.386 166.957 261.789 164.36 261.789C161.416 261.789 158.477 262.556 155.853 264.082Z" fill="#EDDEFF"/>
<path d="M157.153 267.657L79.4566 311.939C76.0012 314.251 75.7229 318.779 80.5757 321.669L156.648 365.728C160.843 367.827 165.814 367.669 169.866 365.309L246.988 321.268C250.852 319.018 250.175 313.922 246.679 311.371L170.596 267.243C168.598 266.24 166.427 265.742 164.258 265.742C161.8 265.742 159.345 266.383 157.153 267.657Z" fill="#50B5FF"/>
<g opacity="0.394601">
<path d="M248.045 277.202L247.914 66.6922C246.133 64.0906 244.3 62.3887 241.849 60.8836L170.044 18.2235C163.917 15.9131 161.037 16.9604 157.071 18.6351L84.3002 61.2785C81.7007 62.7154 79.3442 64.5493 78.6823 65.8187L78.6425 275.765C78.2456 277.827 79.2699 280.145 82.1657 281.871L156.819 325.108C160.936 327.168 165.814 327.012 169.792 324.696L245.475 281.476C247.208 280.467 248.002 278.872 248.034 277.202H248.045Z" fill="url(#paint0_linear_1336_144089)"/>
</g>
<path d="M247.819 276.902C247.928 278.729 247.146 280.515 245.262 281.61L169.579 324.832C165.6 327.148 160.723 327.302 156.607 325.244L81.9527 282.005C79.6862 280.655 78.5719 278.943 78.3802 277.272V298.504C77.7748 300.656 78.7415 303.154 81.8134 304.984L156.468 348.222C160.584 350.281 165.462 350.126 169.44 347.81L245.123 304.59C247.007 303.493 247.789 301.707 247.681 299.882H247.682L247.863 276.902H247.819Z" fill="url(#paint1_linear_1336_144089)"/>
<path d="M149.96 192.781C149.95 192.786 149.939 192.793 149.929 192.798L98.9141 222.195L116.326 288.45L167.082 259.204C167.94 258.795 168.495 257.719 168.497 256.149L168.584 207.398C168.588 204.671 166.935 201.502 164.892 200.317L152.306 193.02C151.783 192.718 151.286 192.574 150.835 192.574C150.517 192.574 150.223 192.644 149.96 192.781Z" fill="url(#paint2_linear_1336_144089)"/>
<path d="M113.959 288.219L101.37 280.921C99.3281 279.737 97.6764 276.567 97.6817 273.84L97.7675 225.091C97.7728 222.365 99.4328 221.114 101.475 222.299L114.063 229.595C116.105 230.779 117.757 233.95 117.753 236.676L117.666 285.426C117.661 288.153 116.002 289.403 113.959 288.219Z" fill="#AB94F8"/>
<path d="M111.426 282.46L103.37 277.79C102.062 277.031 101.005 275.003 101.008 273.258L101.035 229.695C101.038 227.95 102.101 227.149 103.408 227.907L111.465 232.578C112.773 233.337 113.83 235.364 113.827 237.109L113.8 280.672C113.796 282.418 112.734 283.218 111.426 282.46Z" fill="#03C5E0"/>
<path d="M101.044 229.701L101.016 273.265C101.014 275.009 102.071 277.038 103.377 277.796L111.432 282.466C112.742 283.224 113.803 282.425 113.807 280.679L113.808 279.511L107.299 275.737C105.993 274.98 104.935 272.951 104.938 271.207L104.964 228.811L103.416 227.915C103.081 227.72 102.763 227.629 102.474 227.629C101.635 227.629 101.046 228.403 101.044 229.701Z" fill="#8E4FFF"/>
<path d="M177.502 208.514C177.492 208.519 177.48 208.527 177.47 208.533L126.455 237.931L143.868 304.184L194.625 274.939C195.482 274.531 196.037 273.452 196.04 271.883L196.125 223.133C196.129 220.406 194.479 217.235 192.435 216.052L179.848 208.756C179.326 208.452 178.829 208.309 178.378 208.309C178.061 208.309 177.766 208.379 177.502 208.514Z" fill="url(#paint3_linear_1336_144089)"/>
<path d="M141.486 303.96L128.899 296.664C126.855 295.479 125.204 292.309 125.209 289.582L125.296 240.832C125.3 238.106 126.96 236.856 129.002 238.041L141.59 245.337C143.633 246.52 145.285 249.692 145.28 252.418L145.193 301.167C145.189 303.894 143.529 305.145 141.486 303.96Z" fill="#AB94F8"/>
<path d="M138.958 298.197L130.901 293.527C129.594 292.769 128.536 290.74 128.539 288.995L128.568 245.432C128.57 243.688 129.632 242.887 130.94 243.646L138.997 248.316C140.304 249.074 141.362 251.102 141.358 252.848L141.331 296.41C141.328 298.155 140.265 298.956 138.958 298.197Z" fill="#0EE2FF"/>
<path d="M128.574 245.44L128.547 289.003C128.544 290.748 129.601 292.777 130.908 293.535L138.963 298.206C140.272 298.964 141.333 298.163 141.337 296.418L141.338 295.25L134.829 291.477C133.523 290.718 132.465 288.69 132.468 286.946L132.495 244.55L130.946 243.653C130.611 243.459 130.293 243.367 130.004 243.367C129.165 243.367 128.576 244.142 128.574 245.44Z" fill="#8E4FFF"/>
<path d="M205.03 224.593L205.029 224.594C205.018 224.599 205.008 224.606 204.997 224.612L153.982 254.009L171.395 320.263L222.152 291.016C223.01 290.609 223.563 289.532 223.566 287.961L223.652 239.212C223.658 236.485 222.006 233.315 219.964 232.131L207.376 224.833C206.853 224.53 206.355 224.387 205.903 224.387C205.587 224.387 205.293 224.458 205.03 224.593Z" fill="url(#paint4_linear_1336_144089)"/>
<path d="M169.028 320.039L156.44 312.742C154.397 311.557 152.745 308.387 152.75 305.661L152.837 256.911C152.841 254.184 154.501 252.935 156.545 254.119L169.131 261.415C171.175 262.599 172.826 265.771 172.821 268.496L172.734 317.246C172.73 319.974 171.07 321.223 169.028 320.039Z" fill="#AB94F8"/>
<path d="M166.497 314.271L158.442 309.601C157.134 308.843 156.077 306.815 156.08 305.07L156.107 261.507C156.11 259.762 157.172 258.962 158.481 259.72L166.536 264.39C167.843 265.148 168.901 267.177 168.897 268.922L168.87 312.485C168.867 314.23 167.804 315.03 166.497 314.271Z" fill="#03C5E0"/>
<path d="M156.107 261.522L156.08 305.086C156.077 306.83 157.134 308.858 158.441 309.617L166.497 314.287C167.805 315.045 168.867 314.245 168.871 312.5V311.33L162.362 307.558C161.056 306.8 159.998 304.773 160.001 303.028L160.029 260.633L158.48 259.735C158.145 259.54 157.826 259.449 157.537 259.449C156.698 259.448 156.109 260.223 156.107 261.522Z" fill="#8E4FFF"/>
<path d="M150.564 129.55V129.551C150.553 129.555 150.543 129.563 150.532 129.568L99.5176 158.966L116.93 225.219L167.687 195.973C168.544 195.565 169.097 194.488 169.101 192.918L169.188 144.168C169.193 141.442 167.54 138.271 165.498 137.088L152.91 129.79C152.387 129.487 151.889 129.344 151.437 129.344C151.121 129.344 150.828 129.414 150.564 129.55Z" fill="url(#paint5_linear_1336_144089)"/>
<path d="M114.567 224.993L101.978 217.695C99.9355 216.511 98.2838 213.341 98.2891 210.614L98.375 161.864C98.3802 159.138 100.04 157.888 102.083 159.072L114.67 166.369C116.713 167.553 118.364 170.724 118.36 173.45L118.273 222.201C118.268 224.928 116.609 226.177 114.567 224.993Z" fill="#AB94F8"/>
<path d="M112.037 219.232L103.981 214.562C102.674 213.804 101.616 211.775 101.619 210.03L101.646 166.469C101.65 164.723 102.713 163.922 104.02 164.681L112.077 169.351C113.384 170.109 114.441 172.138 114.436 173.883L114.409 217.446C114.406 219.19 113.345 219.991 112.037 219.232Z" fill="#03C5E0"/>
<path d="M101.647 166.475L101.619 210.04C101.616 211.784 102.673 213.813 103.981 214.571L112.037 219.241C113.344 219.999 114.406 219.199 114.409 217.453L114.41 216.284L107.902 212.512C106.595 211.754 105.537 209.725 105.541 207.98L105.568 165.587L104.02 164.689C103.686 164.495 103.366 164.402 103.077 164.402C102.238 164.402 101.65 165.177 101.647 166.475Z" fill="#8E4FFF"/>
<path d="M178.104 145.288C178.093 145.295 178.082 145.301 178.071 145.305L127.059 174.704L144.47 240.957L195.227 211.71C196.084 211.303 196.637 210.226 196.64 208.656L196.727 159.905C196.733 157.18 195.079 154.01 193.037 152.825L180.45 145.528C179.927 145.226 179.429 145.082 178.977 145.082C178.661 145.082 178.368 145.152 178.104 145.288Z" fill="url(#paint6_linear_1336_144089)"/>
<path d="M142.089 240.731L129.501 233.434C127.459 232.249 125.807 229.078 125.813 226.352L125.898 177.604C125.904 174.876 127.564 173.626 129.606 174.81L142.194 182.107C144.236 183.292 145.889 186.462 145.884 189.188L145.797 237.939C145.792 240.666 144.131 241.915 142.089 240.731Z" fill="#AB94F8"/>
<path d="M139.579 234.967L131.522 230.297C130.215 229.538 129.157 227.51 129.16 225.765L129.187 182.203C129.191 180.457 130.254 179.657 131.561 180.415L139.618 185.085C140.925 185.843 141.983 187.872 141.98 189.617L141.952 233.18C141.949 234.925 140.886 235.725 139.579 234.967Z" fill="#03C5E0"/>
<path d="M129.188 182.214L129.16 225.778C129.157 227.523 130.215 229.552 131.522 230.309L139.578 234.979C140.885 235.736 141.947 234.938 141.95 233.192L141.951 232.023L135.443 228.25C134.136 227.492 133.078 225.464 133.082 223.718L133.109 181.325L131.561 180.427C131.227 180.233 130.907 180.141 130.618 180.141C129.779 180.141 129.191 180.916 129.188 182.214Z" fill="#8E4FFF"/>
<path d="M205.637 161.363C205.626 161.368 205.617 161.374 205.607 161.38L154.592 190.778L172.004 257.032L222.762 227.786C223.62 227.377 224.172 226.3 224.175 224.731L224.262 175.98C224.266 173.254 222.614 170.084 220.572 168.899L207.984 161.602C207.461 161.299 206.964 161.156 206.513 161.156C206.195 161.156 205.901 161.226 205.637 161.363Z" fill="url(#paint7_linear_1336_144089)"/>
<path d="M169.63 256.809L157.043 249.511C155 248.327 153.348 245.157 153.354 242.43L153.44 193.681C153.445 190.954 155.105 189.704 157.148 190.888L169.735 198.185C171.777 199.369 173.43 202.54 173.425 205.266L173.338 254.016C173.334 256.743 171.674 257.992 169.63 256.809Z" fill="#AB94F8"/>
<path d="M167.103 251.046L159.045 246.376C157.738 245.617 156.68 243.589 156.684 241.844L156.711 198.281C156.715 196.536 157.777 195.735 159.084 196.493L167.141 201.164C168.448 201.923 169.506 203.95 169.503 205.695L169.476 249.258C169.473 251.003 168.41 251.804 167.103 251.046Z" fill="#03C5E0"/>
<path d="M206.174 234.895C206.174 235.745 205.722 236.53 204.988 236.956L204.969 236.968V228.491C204.969 228.039 205.097 227.596 205.338 227.215L211.855 216.928C212.096 216.546 212.225 216.104 212.225 215.651V205.417C212.225 205.083 212.494 204.812 212.828 204.812C213.161 204.812 213.431 205.083 213.431 205.417V216.002C213.431 216.455 213.302 216.897 213.06 217.279L206.545 227.566C206.302 227.947 206.174 228.39 206.174 228.842V234.895Z" fill="#30E7FF"/>
<path d="M202.542 236.994C202.541 237.845 202.085 238.631 201.348 239.056V227.322C201.348 226.869 201.476 226.427 201.718 226.045L208.235 215.758C208.476 215.376 208.605 214.935 208.605 214.482V193.685C208.605 193.352 208.875 193.082 209.207 193.082C209.541 193.082 209.81 193.352 209.81 193.685V214.833C209.81 215.285 209.681 215.727 209.44 216.109L202.923 226.398C202.682 226.778 202.554 227.22 202.553 227.671L202.542 236.994Z" fill="#30E7FF"/>
<path d="M209.433 195.618C208.415 196.221 207.576 195.604 207.559 194.237V194.115C207.542 192.749 208.355 191.151 209.372 190.548C210.39 189.944 211.229 190.562 211.244 191.929L211.245 192.049C211.262 193.416 210.451 195.014 209.433 195.618Z" fill="#30E7FF"/>
<path d="M213.125 205.864C212.106 206.468 211.269 205.849 211.252 204.483L211.25 204.362C211.235 202.996 212.047 201.398 213.064 200.794C214.083 200.19 214.921 200.809 214.937 202.176L214.939 202.296C214.955 203.662 214.143 205.26 213.125 205.864Z" fill="#30E7FF"/>
<g opacity="0.5">
<path d="M209.471 198.411C207.331 199.68 205.568 198.38 205.535 195.508L205.532 195.253C205.498 192.38 207.205 189.022 209.346 187.752C211.486 186.483 213.247 187.783 213.282 190.656L213.285 190.91C213.319 193.783 211.612 197.141 209.471 198.411Z" fill="#F8FFFF"/>
</g>
<g opacity="0.5">
<path d="M213.157 208.657C211.017 209.926 209.254 208.627 209.22 205.754L209.217 205.499C209.184 202.626 210.892 199.269 213.032 197.998C215.172 196.729 216.934 198.03 216.969 200.903L216.972 201.157C217.005 204.03 215.297 207.388 213.157 208.657Z" fill="#F8FFFF"/>
</g>
<path d="M158.878 196.377C156.453 196.074 156.717 198.21 156.717 198.21C156.717 198.21 156.717 235.717 156.717 240.496C156.717 245.275 159.074 246.452 159.074 246.452L167.453 251.1C167.453 251.1 168.347 251.743 169.078 250.8C169.809 249.856 169.613 248.154 169.613 248.154L163.198 244.358C163.198 244.358 162.042 243.604 161.344 242.508C160.645 241.413 160.776 240.037 160.776 240.037L160.645 197.751L160.842 197.489C160.842 197.489 159.73 196.508 158.878 196.377Z" fill="#8E4FFF"/>
<path d="M193.693 321.315L183.756 315.676L183.759 309.816L193.696 315.455L193.693 321.315Z" fill="#002869"/>
<path d="M203.234 315.815L193.697 310.487L203.237 309.926L203.234 315.815Z" fill="#002869"/>
<path d="M195.697 295.595L195.688 307.08L206.24 303.407L212.806 292.818L206.76 287.859L195.697 295.595Z" fill="#064FBA"/>
<path d="M195.701 278.515L195.695 288.448L208.271 282.809L210.298 272.987L204.242 271.535L195.701 278.515Z" fill="#064FBA"/>
<path d="M179.254 269.478L183.782 266.867L193.72 272.505L189.191 275.117L179.254 269.478Z" fill="#0ABFBF"/>
<path d="M203.274 267.034L193.335 261.395L188.697 264.041L198.636 269.68L203.274 267.034Z" fill="#0ABFBF"/>
<path d="M211.132 264.672L201.644 259.223L198.631 262.418L208.826 266.65L211.132 264.672Z" fill="#0ABFBF"/>
<path d="M183.795 261.008L193.731 266.648L193.729 272.508L183.791 266.868L183.795 261.008Z" fill="#286BF0"/>
<path d="M193.34 255.508L203.278 261.146L203.274 267.035L193.336 261.396L193.34 255.508Z" fill="#286BF0"/>
<path d="M198.237 252.684L208.174 258.324L203.273 261.148L193.336 255.511L198.237 252.684Z" fill="#0ABFBF"/>
<path d="M188.703 258.184L198.641 263.824L193.739 266.648L183.803 261.01L188.703 258.184Z" fill="#0ABFBF"/>
<path d="M203.238 315.819L203.242 309.93C202.318 310.482 201.286 311.086 200.142 311.746L198.604 312.633L198.6 318.493L193.699 321.318L193.702 315.458L189.174 318.069L189.2 275.12L193.73 272.509L193.733 266.649L198.634 263.824L198.63 269.684L202.082 267.693C202.491 267.457 202.887 267.239 203.269 267.038L203.273 261.15L208.174 258.324L208.17 264.71C209.268 264.39 210.258 264.375 211.136 264.671C212.133 264.994 212.961 265.713 213.619 266.827C214.277 267.941 214.606 269.426 214.606 271.281C214.604 273.293 214.195 275.373 213.38 277.522C212.566 279.671 211.463 281.566 210.07 283.208C212.033 282.838 213.541 283.267 214.597 284.494C215.65 285.723 216.176 287.576 216.175 290.056C216.173 292.01 215.831 294.106 215.148 296.343C214.465 298.583 213.531 300.601 212.343 302.398C211.201 304.131 209.801 305.611 208.143 306.841L208.139 312.993L203.238 315.819ZM195.693 295.596L195.685 307.081L201.707 303.61C204.052 302.258 205.539 301.312 206.171 300.774C207.138 299.981 207.925 298.957 208.533 297.698C209.141 296.439 209.448 295.047 209.449 293.523C209.45 292.235 209.215 291.276 208.747 290.648C208.279 290.02 207.602 289.756 206.714 289.857C205.828 289.957 203.906 290.861 200.947 292.568L195.693 295.596ZM195.703 278.516L195.697 288.449L199.961 285.991C202.495 284.53 204.071 283.573 204.686 283.119C205.8 282.303 206.676 281.284 207.316 280.066C207.954 278.849 208.272 277.548 208.273 276.162C208.273 274.834 207.999 273.913 207.45 273.4C206.901 272.886 206.086 272.853 205 273.304C204.356 273.577 202.501 274.596 199.439 276.362L195.703 278.516Z" fill="#1DE7FB"/>
<path d="M179.263 269.48L189.2 275.12L189.172 318.068L179.236 312.43L179.263 269.48Z" fill="#286BF0"/>
<path d="M196.345 96.9222L163.166 116.26L129.986 96.9222L163.166 77.582L196.345 96.9222Z" fill="#1F8FFF"/>
<path d="M196.345 90.6956L163.166 110.036L129.986 90.6956L163.166 71.3555L196.345 90.6956Z" fill="#004F91"/>
<g opacity="0.7">
<path d="M196.345 90.6998L163.166 27.9727V110.04L196.345 90.6998Z" fill="url(#paint8_linear_1336_144089)"/>
</g>
<path d="M196.345 96.918L163.166 147.874V116.257L196.345 96.918Z" fill="#189CF8"/>
<path d="M129.986 96.9141L163.166 147.87V116.253L129.986 96.9141Z" fill="#0ADEF3"/>
<g opacity="0.7">
<path d="M163.261 27.9102L130.139 90.7504L163.196 110.126L163.261 27.9102Z" fill="#0DCAF4"/>
</g>
<g opacity="0.394601">
<path d="M248.045 277.199L247.914 66.6899C247.601 67.91 246.833 69.0181 245.515 69.7837L169.832 113.005C165.854 115.321 160.976 115.476 156.86 113.417L82.2055 70.1786C80.1077 68.9291 78.9892 67.3665 78.6823 65.8164L78.6425 275.762C78.2456 277.825 79.2699 280.142 82.1657 281.868L156.819 325.106C160.936 327.166 165.814 327.01 169.792 324.694L245.475 281.474C247.208 280.465 248.002 278.87 248.034 277.199H248.045Z" fill="url(#paint9_linear_1336_144089)"/>
</g>
<path d="M163.328 122.458C160.946 122.458 158.557 121.909 156.349 120.806L73.8949 73.0494C71.2156 71.4536 69.7077 69.2854 69.6464 66.9414C69.5932 64.875 70.6894 62.9357 72.6553 61.6198L72.6865 61.6001L156.873 13.6173C161.509 10.9264 167.14 10.7518 171.934 13.1571L254.399 60.9861C256.656 62.6304 257.95 65.1756 257.822 67.6619C257.713 69.7595 256.615 71.5172 254.733 72.6135L171.167 120.336C168.742 121.748 166.039 122.458 163.328 122.458ZM73.2219 62.4998C71.5706 63.6111 70.6478 65.2184 70.6917 66.9148C70.7438 68.8853 72.069 70.7448 74.4257 72.1474L156.847 119.884C161.222 122.071 166.392 121.905 170.643 119.431L254.209 71.708C255.775 70.7968 256.688 69.3398 256.776 67.6075C256.886 65.4705 255.756 63.2688 253.827 61.8615L171.435 14.0776C166.987 11.8469 161.727 12.0077 157.396 14.5239L73.2219 62.4998Z" fill="#13FEE2"/>
<path d="M163.326 114.855C160.86 114.855 158.388 114.287 156.104 113.145L70.7774 63.7255C68.0036 62.0742 66.4443 59.8304 66.3809 57.4048C66.3247 55.2664 67.4591 53.2596 69.4934 51.8978L69.5257 51.8775L156.646 2.22343C161.443 -0.561191 167.27 -0.741883 172.23 1.74716L257.567 51.242C259.903 52.9437 261.243 55.5775 261.11 58.1503C260.998 60.3211 259.862 62.14 257.913 63.2744L171.438 112.659C168.928 114.12 166.129 114.855 163.326 114.855ZM70.0798 52.8084C68.3709 53.9584 67.4172 55.6218 67.4627 57.3773C67.5165 59.4164 68.8879 61.3406 71.3255 62.7921L156.617 112.191C161.146 114.454 166.495 114.283 170.894 111.722L257.372 62.3374C258.991 61.3957 259.936 59.8867 260.028 58.0941C260.142 55.8827 258.973 53.6042 256.977 52.1479L171.715 2.6997C167.112 0.391348 161.668 0.557683 157.185 3.1616L70.0798 52.8084Z" fill="#13FEE2"/>
<path d="M294.999 272.087L272.294 285.321L249.588 272.087L272.294 258.852L294.999 272.087Z" fill="#1F8FFF"/>
<path d="M294.999 267.829L272.294 281.064L249.588 267.829L272.294 254.594L294.999 267.829Z" fill="#004F91"/>
<g opacity="0.7">
<path d="M294.995 267.829L272.289 224.902V281.064L294.995 267.829Z" fill="url(#paint10_linear_1336_144089)"/>
</g>
<path d="M294.995 272.086L272.289 306.957V285.32L294.995 272.086Z" fill="#189CF8"/>
<path d="M249.588 272.086L272.294 306.957V285.32L249.588 272.086Z" fill="#0ADEF3"/>
<g opacity="0.7">
<path d="M272.352 224.863L249.686 267.867L272.308 281.127L272.352 224.863Z" fill="#0DCAF4"/>
</g>
<path d="M101.939 264.109L77.1387 278.563L52.3379 264.109L77.1387 249.652L101.939 264.109Z" fill="#1F8FFF"/>
<path d="M101.939 259.452L77.1387 273.908L52.3379 259.452L77.1387 244.996L101.939 259.452Z" fill="#004F91"/>
<g opacity="0.7">
<path d="M101.945 259.457L77.1445 212.57V273.913L101.945 259.457Z" fill="url(#paint11_linear_1336_144089)"/>
</g>
<path d="M101.945 264.105L77.1445 302.194V278.561L101.945 264.105Z" fill="#189CF8"/>
<path d="M52.3379 264.105L77.1387 302.194V278.561L52.3379 264.105Z" fill="#0ADEF3"/>
<g opacity="0.7">
<path d="M77.2226 212.523L52.4648 259.495L77.174 273.977L77.2226 212.523Z" fill="#0DCAF4"/>
</g>
<path d="M14.3734 185.256L4.49805 179.651L4.50119 173.828L14.3765 179.431L14.3734 185.256Z" fill="#002869"/>
<path d="M23.8543 179.79L14.377 174.496L23.8575 173.938L23.8543 179.79Z" fill="#002869"/>
<path d="M16.3629 159.691L16.3535 171.105L26.8405 167.455L33.3665 156.932L27.3579 152.004L16.3629 159.691Z" fill="#064FBA"/>
<path d="M16.3627 142.718L16.3574 152.589L28.8553 146.986L30.8693 137.224L24.8513 135.781L16.3627 142.718Z" fill="#064FBA"/>
<path d="M0.0253906 133.735L4.5258 131.141L14.4022 136.744L9.90074 139.339L0.0253906 133.735Z" fill="#0ABFBF"/>
<path d="M23.893 131.311L14.0156 125.707L9.40625 128.337L19.2837 133.941L23.893 131.311Z" fill="#0ABFBF"/>
<path d="M31.6989 128.955L22.2697 123.539L19.2754 126.715L29.4073 130.921L31.6989 128.955Z" fill="#0ABFBF"/>
<path d="M4.52372 125.316L14.398 130.922L14.3959 136.745L4.51953 131.141L4.52372 125.316Z" fill="#286BF0"/>
<path d="M14.0022 119.852L23.8786 125.455L23.8744 131.307L13.998 125.703L14.0022 119.852Z" fill="#286BF0"/>
<path d="M18.8907 117.047L28.766 122.652L23.8949 125.459L14.0195 119.857L18.8907 117.047Z" fill="#0ABFBF"/>
<path d="M9.39942 122.512L19.2758 128.117L14.4036 130.924L4.5293 125.321L9.39942 122.512Z" fill="#0ABFBF"/>
<path d="M23.8537 179.787L23.8579 173.934C22.9393 174.483 21.914 175.083 20.7776 175.739L19.2485 176.621L19.2443 182.445L14.3742 185.252L14.3774 179.429L9.87695 182.023L9.90314 139.34L14.4046 136.746L14.4077 130.921L19.2789 128.114L19.2747 133.938L22.7047 131.959C23.1122 131.725 23.5049 131.508 23.8851 131.308L23.8893 125.456L28.7594 122.648L28.7552 128.994C29.8465 128.677 30.831 128.662 31.7035 128.956C32.6942 129.277 33.5164 129.991 34.171 131.098C34.8245 132.205 35.1513 133.681 35.1513 135.525C35.1492 137.525 34.7428 139.591 33.9332 141.728C33.1247 143.863 32.0281 145.746 30.6436 147.378C32.5947 147.011 34.0935 147.437 35.1429 148.656C36.1892 149.877 36.7118 151.719 36.7108 154.184C36.7087 156.126 36.3694 158.209 35.6907 160.432C35.012 162.658 34.083 164.663 32.9027 166.449C31.7674 168.172 30.3765 169.642 28.729 170.865L28.7248 176.979L23.8537 179.787ZM16.3558 159.69L16.3474 171.103L22.3329 167.654C24.6633 166.31 26.1411 165.37 26.7684 164.835C27.7299 164.048 28.5122 163.03 29.1165 161.778C29.7209 160.527 30.0256 159.144 30.0267 157.63C30.0277 156.35 29.7942 155.397 29.3292 154.772C28.8641 154.148 28.1907 153.885 27.3088 153.986C26.428 154.085 24.5177 154.984 21.5768 156.681L16.3558 159.69ZM16.3652 142.715L16.36 152.587L20.5975 150.144C23.1153 148.692 24.6821 147.741 25.2927 147.29C26.3997 146.479 27.2711 145.466 27.9069 144.256C28.5405 143.046 28.8568 141.753 28.8578 140.376C28.8578 139.056 28.5855 138.141 28.0399 137.631C27.4942 137.121 26.6846 137.087 25.6048 137.535C24.9649 137.807 23.1216 138.819 20.0791 140.575L16.3652 142.715Z" fill="#1DE7FB"/>
<path d="M0.0261835 133.738L9.90153 139.343L9.8743 182.025L0 176.421L0.0261835 133.738Z" fill="#286BF0"/>
<path d="M142.959 226.355C142.959 197.3 142.959 169.993 142.959 163.133" stroke="#286BF1" stroke-width="1.04734" stroke-linecap="round"/>
<defs>
<linearGradient id="paint0_linear_1336_144089" x1="164.35" y1="68.4088" x2="164.35" y2="327.101" gradientUnits="userSpaceOnUse">
<stop stop-color="#3488F2"/>
<stop offset="0.56" stop-color="#23C4EA"/>
<stop offset="1" stop-color="#13FFE2"/>
</linearGradient>
<linearGradient id="paint1_linear_1336_144089" x1="149.256" y1="328.539" x2="177.534" y2="328.539" gradientUnits="userSpaceOnUse">
<stop stop-color="#A7FFE2"/>
<stop offset="0.56" stop-color="#71E1F0"/>
<stop offset="1" stop-color="#3BC3FF"/>
</linearGradient>
<linearGradient id="paint2_linear_1336_144089" x1="109.138" y1="216.161" x2="124.586" y2="287.904" gradientUnits="userSpaceOnUse">
<stop stop-color="#D3C2FF"/>
<stop offset="0.56" stop-color="#AD84FF"/>
<stop offset="1" stop-color="#8845FF"/>
</linearGradient>
<linearGradient id="paint3_linear_1336_144089" x1="139.822" y1="231.634" x2="161.293" y2="309.922" gradientUnits="userSpaceOnUse">
<stop stop-color="#D3C2FF"/>
<stop offset="0.56" stop-color="#AD84FF"/>
<stop offset="1" stop-color="#8845FF"/>
</linearGradient>
<linearGradient id="paint4_linear_1336_144089" x1="172.063" y1="247.712" x2="198.246" y2="300.079" gradientUnits="userSpaceOnUse">
<stop stop-color="#D3C2FF"/>
<stop offset="0.56" stop-color="#AD84FF"/>
<stop offset="1" stop-color="#8845FF"/>
</linearGradient>
<linearGradient id="paint5_linear_1336_144089" x1="127.547" y1="146.385" x2="141.163" y2="219.699" gradientUnits="userSpaceOnUse">
<stop stop-color="#D3C2FF"/>
<stop offset="0.56" stop-color="#AD84FF"/>
<stop offset="1" stop-color="#8845FF"/>
</linearGradient>
<linearGradient id="paint6_linear_1336_144089" x1="154.04" y1="163.171" x2="170.797" y2="229.153" gradientUnits="userSpaceOnUse">
<stop stop-color="#D3C2FF"/>
<stop offset="0.56" stop-color="#AD84FF"/>
<stop offset="1" stop-color="#8845FF"/>
</linearGradient>
<linearGradient id="paint7_linear_1336_144089" x1="177.385" y1="179.245" x2="197.808" y2="237.896" gradientUnits="userSpaceOnUse">
<stop stop-color="#D3C2FF"/>
<stop offset="0.56" stop-color="#AD84FF"/>
<stop offset="1" stop-color="#8845FF"/>
</linearGradient>
<linearGradient id="paint8_linear_1336_144089" x1="159.333" y1="52.5097" x2="193.633" y2="89.6902" gradientUnits="userSpaceOnUse">
<stop stop-color="#3E16FF"/>
<stop offset="0.56" stop-color="#237BF9"/>
<stop offset="1" stop-color="#09E1F2"/>
</linearGradient>
<linearGradient id="paint9_linear_1336_144089" x1="164.35" y1="68.4065" x2="164.35" y2="327.099" gradientUnits="userSpaceOnUse">
<stop stop-color="#3488F2"/>
<stop offset="0.56" stop-color="#23C4EA"/>
<stop offset="1" stop-color="#13FFE2"/>
</linearGradient>
<linearGradient id="paint10_linear_1336_144089" x1="269.666" y1="241.694" x2="293.139" y2="267.138" gradientUnits="userSpaceOnUse">
<stop stop-color="#3E16FF"/>
<stop offset="0.56" stop-color="#237BF9"/>
<stop offset="1" stop-color="#09E1F2"/>
</linearGradient>
<linearGradient id="paint11_linear_1336_144089" x1="74.2793" y1="230.911" x2="99.9177" y2="258.702" gradientUnits="userSpaceOnUse">
<stop stop-color="#3E16FF"/>
<stop offset="0.56" stop-color="#237BF9"/>
<stop offset="1" stop-color="#09E1F2"/>
</linearGradient>
</defs>
</svg>
