<svg width="215" height="166" viewBox="0 0 215 166" fill="none" xmlns="http://www.w3.org/2000/svg">
<g clip-path="url(#clip0_2371_159136)">
<g filter="url(#filter0_f_2371_159136)">
<ellipse cx="108.166" cy="157.049" rx="41.7403" ry="3.83819" fill="#48128E" fill-opacity="0.6"/>
</g>
<path d="M135.358 143L80.3583 142.668C76.9263 142.647 74.1499 139.72 74.1563 136.134L74.3626 17.2268C74.3686 13.7684 77.1006 10.9599 80.4665 10.9495L134.398 10.7852C137.79 10.7748 140.564 13.5801 140.593 17.0541L141.571 136.511C141.6 140.114 138.818 143.021 135.358 143Z" fill="#8FC9ED"/>
<path d="M136.118 142.135C135.89 142.164 135.656 142.177 135.424 142.176L80.4406 141.786C77.4914 141.765 75.0807 139.199 75.0859 136.069L75.2759 17.2926C75.2807 14.2737 77.6533 11.8094 80.546 11.7977L134.474 11.5782C134.558 11.5778 134.643 11.5794 134.727 11.583C136.084 11.6419 137.352 12.2212 138.3 13.212C139.269 14.2249 139.808 15.567 139.819 16.9937L140.784 136.571C140.807 139.405 138.808 141.797 136.118 142.135Z" fill="#33201B"/>
<path d="M137.927 17.5938L138.855 136.755L76.9141 136.408L77.0719 17.5938H137.927Z" fill="white"/>
<path d="M121.717 24.1992H112.074L112.821 35.3677L123.465 35.3569L121.717 24.1992Z" fill="#FED364"/>
<path d="M111.422 17.5469L112.065 24.2008H121.707L120.075 17.5469H111.422Z" fill="#FED364"/>
<path d="M112.071 24.1992H102.434L102.176 35.3781L112.817 35.3677L112.071 24.1992Z" fill="#5D3393"/>
<path d="M102.775 17.5469L102.43 24.2008H112.066L111.424 17.5469H102.775Z" fill="#5D3393"/>
<path d="M120.086 17.5469L121.718 24.2008H131.365L128.741 17.5469H120.086Z" fill="#5D3393"/>
<path d="M131.357 24.1992H121.711L123.459 35.3569L134.107 35.3465L131.357 24.1992Z" fill="#5D3393"/>
<path d="M128.734 17.5469L131.358 24.2008H141.48L137.936 17.5469H128.734Z" fill="#FED364"/>
<path d="M141.481 24.1992H131.359L134.109 35.3465L145.095 35.3352L141.481 24.1992Z" fill="#FED364"/>
<path d="M76.7932 17.5469L73.3633 24.2008H83.1679L85.4837 17.5469H76.7932Z" fill="#FED364"/>
<path d="M73.3656 24.1992L69.8984 35.4106L80.9022 35.3993L83.1703 24.1992H73.3656Z" fill="#FED364"/>
<path d="M92.805 24.1992L91.543 35.3889L102.18 35.3781L102.438 24.1992H92.805Z" fill="#FED364"/>
<path d="M94.1356 17.5469L92.8047 24.2008H102.437L102.782 17.5469H94.1356Z" fill="#FED364"/>
<path d="M83.1665 24.1992L80.8984 35.3993L91.5328 35.3889L92.7949 24.1992H83.1665Z" fill="#5D3393"/>
<path d="M85.4837 17.5469L83.168 24.2008H92.7963L94.1273 17.5469H85.4837Z" fill="#5D3393"/>
<path d="M80.9058 35.4267L69.9024 35.4375C69.9004 35.4267 69.8996 35.4171 69.8984 35.4062V37.0657C69.8984 40.0454 72.3869 42.4605 75.4566 42.4605C78.2544 42.4605 80.9058 40.4136 80.9058 37.1927V35.4267Z" fill="#F0C149"/>
<path d="M91.5328 35.3681L80.9024 35.3789C80.9004 35.3681 80.8996 35.3585 80.8984 35.3477V37.0067C80.8984 39.9864 83.3023 42.4019 86.2683 42.4019C88.9711 42.4019 91.5328 40.355 91.5328 37.1341V35.3681Z" fill="#9951F4"/>
<path d="M102.178 35.3681L91.547 35.3789C91.545 35.3681 91.5442 35.3585 91.543 35.3477V37.0067C91.543 39.9864 93.9473 42.4019 96.9133 42.4019C99.616 42.4019 102.178 40.355 102.178 37.1341V35.3681Z" fill="#F0C149"/>
<path d="M112.811 35.3681L102.18 35.3789C102.178 35.3681 102.177 35.3585 102.176 35.3477V37.0067C102.176 39.9864 104.58 42.4019 107.546 42.4019C110.249 42.4019 112.811 40.355 112.811 37.1341V35.3681Z" fill="#9951F4"/>
<path d="M123.451 35.3681L112.821 35.3789C112.819 35.3681 112.818 35.3585 112.816 35.3477V37.0067C112.816 39.9864 115.221 42.4019 118.187 42.4019C120.889 42.4019 123.451 40.355 123.451 37.1341V35.3681Z" fill="#F0C149"/>
<path d="M134.088 35.3681L123.457 35.3789C123.455 35.3681 123.454 35.3585 123.453 35.3477V37.0067C123.453 39.9864 125.857 42.4019 128.823 42.4019C131.526 42.4019 134.088 40.355 134.088 37.1341V35.3681Z" fill="#9951F4"/>
<path d="M145.094 35.3134L134.102 35.3242C134.1 35.3134 134.099 35.3038 134.098 35.293V36.9525C134.098 39.9321 136.584 42.3472 139.65 42.3472C142.445 42.3472 145.094 40.3007 145.094 37.0799V35.3134Z" fill="#F0C149"/>
<path d="M80.7977 35.4267V35.4062H69.8984C69.8996 35.4171 69.9004 35.4267 69.9024 35.4375L80.7977 35.4267Z" fill="#FBD2CB"/>
<path d="M80.8008 35.4266H80.9066C80.9066 35.4198 80.9058 35.413 80.9054 35.4062H80.8008V35.4266Z" fill="#F13005"/>
<path d="M80.9023 35.4062C80.9032 35.4139 80.9037 35.4216 80.905 35.4292V35.4062H80.9023Z" fill="#F13005"/>
<path d="M126.809 89.0291H87.2734V49.5156H126.809V89.0291Z" fill="url(#paint0_linear_2371_159136)"/>
<path d="M126.945 111.146H87.1875V96.457H126.945V111.146Z" fill="#46C263"/>
<path d="M114.415 74.8703H99.7187C99.4262 74.8703 99.167 74.6816 99.0776 74.4031L96.2627 65.6325C96.197 65.4278 96.233 65.2042 96.3596 65.0304C96.4862 64.8565 96.6882 64.7539 96.9033 64.7539H117.23C117.445 64.7539 117.647 64.8565 117.774 65.0304C117.9 65.2042 117.937 65.4278 117.871 65.6325L115.056 74.4031C114.967 74.6816 114.708 74.8703 114.415 74.8703ZM100.209 73.5245H113.924L116.308 66.0997H97.826L100.209 73.5245Z" fill="#F9F9F9"/>
<path d="M113.21 78.5834H100.677C100.305 78.5834 100.004 78.2822 100.004 77.9104C100.004 77.5386 100.305 77.2377 100.677 77.2377H112.718C113.538 77.2172 113.909 76.6487 113.968 76.0694C114.021 75.5501 113.823 75.0217 113.475 74.8698L117.706 61.6168C117.795 61.3379 118.054 61.1484 118.347 61.1484H122.724C123.096 61.1484 123.397 61.4497 123.397 61.8215C123.397 62.1933 123.096 62.4942 122.724 62.4942H118.839L114.96 74.7957C115.991 76.4909 114.587 78.5834 113.21 78.5834Z" fill="#F9F9F9"/>
<path d="M104.783 80.8329C104.783 81.6874 104.089 82.3802 103.235 82.3802C102.38 82.3802 101.688 81.6874 101.688 80.8329C101.688 79.9783 102.38 79.2852 103.235 79.2852C104.089 79.2852 104.783 79.9783 104.783 80.8329Z" fill="#F9F9F9"/>
<path d="M112.575 80.8329C112.575 81.6874 111.883 82.3802 111.028 82.3802C110.174 82.3802 109.48 81.6874 109.48 80.8329C109.48 79.9783 110.174 79.2852 111.028 79.2852C111.883 79.2852 112.575 79.9783 112.575 80.8329Z" fill="#F9F9F9"/>
<path d="M107.435 74.8703C107.063 74.8703 106.762 74.569 106.762 74.1972V65.427C106.762 65.0552 107.063 64.7539 107.435 64.7539C107.807 64.7539 108.107 65.0552 108.107 65.427V74.1972C108.107 74.569 107.807 74.8703 107.435 74.8703Z" fill="#F9F9F9"/>
<path d="M103.682 74.8703C103.375 74.8703 103.098 74.6587 103.027 74.3462L101.036 65.5756C100.954 65.213 101.181 64.8529 101.544 64.7707C101.906 64.6886 102.267 64.9153 102.349 65.2779L104.339 74.0485C104.421 74.4111 104.194 74.7713 103.832 74.8534C103.782 74.8646 103.732 74.8703 103.682 74.8703Z" fill="#F9F9F9"/>
<path d="M111.025 74.8702C110.993 74.8702 110.96 74.8678 110.928 74.863C110.56 74.8093 110.305 74.4684 110.359 74.1006L111.634 65.33C111.688 64.9622 112.029 64.7074 112.397 64.761C112.765 64.8147 113.02 65.1557 112.966 65.5235L111.69 74.2941C111.642 74.629 111.354 74.8702 111.025 74.8702Z" fill="#F9F9F9"/>
<path d="M115.82 70.5372H98.3254C97.9536 70.5372 97.6523 70.2359 97.6523 69.8641C97.6523 69.4923 97.9536 69.1914 98.3254 69.1914H115.82C116.192 69.1914 116.493 69.4923 116.493 69.8641C116.493 70.2359 116.192 70.5372 115.82 70.5372Z" fill="#F9F9F9"/>
<path d="M80.2058 112.934C80.2058 112.934 81.9061 111.517 83.3937 113.075C84.8813 114.634 85.9444 123.985 85.6609 124.34C85.3774 124.694 78.9303 129.015 77.0885 127.386C75.2466 125.756 74.0422 119.451 76.0259 117.609C78.0097 115.768 80.2058 112.934 80.2058 112.934Z" fill="#ABB7D3"/>
<path d="M80.2058 112.934C80.2058 112.934 81.9061 111.517 83.3937 113.075C84.8813 114.634 85.9444 123.985 85.6609 124.34C85.3774 124.694 78.9303 129.015 77.0885 127.386C75.2466 125.756 74.0422 119.451 76.0259 117.609C78.0097 115.768 80.2058 112.934 80.2058 112.934Z" stroke="#231F20" stroke-width="0.282063" stroke-miterlimit="10"/>
<path d="M79.2059 117.07C79.8259 117.747 82.1365 121.184 82.0237 121.804C81.9109 122.424 81.4601 129.695 79.4877 128.568C77.5152 127.441 73.9079 124.228 75.2043 122.199C76.5006 120.17 79.2059 117.07 79.2059 117.07Z" fill="#8A97B2"/>
<path d="M79.2059 117.07C79.8259 117.747 82.1365 121.184 82.0237 121.804C81.9109 122.424 81.4601 129.695 79.4877 128.568C77.5152 127.441 73.9079 124.228 75.2043 122.199C76.5006 120.17 79.2059 117.07 79.2059 117.07Z" stroke="#231F20" stroke-width="0.282063" stroke-miterlimit="10"/>
<path d="M65.3092 143.957L73.4998 134.714C73.4998 134.714 84.9969 132.535 86.3494 131.783C87.7019 131.032 94.0142 126.749 94.7656 125.622C95.517 124.495 96.1184 122.916 95.442 121.94C94.7656 120.963 93.4267 119.534 90.8235 119.932C88.2204 120.331 84.7496 123.473 84.3744 123.591C83.9993 123.708 78.1877 123.902 78.1877 123.902C78.1877 123.902 82.9353 110.307 83.6258 109.012C84.3163 107.718 92.1281 99.6039 92.2575 95.1586C92.387 90.7133 88.5459 91.5764 87.5101 92.2237C86.4744 92.871 78.4466 102.625 77.7129 103.531C76.9793 104.438 72.2316 112.508 72.2316 112.508L73.4439 110.37C73.4439 110.37 70.9931 110.306 67.8075 112.275L70.3827 110.95C70.3827 110.95 67.5671 110.688 63.915 112.106L66.6279 111.234C66.6279 111.234 65.5834 110.643 63.7263 111.141C61.8692 111.638 60.3102 113.031 59.4812 113.959C58.6523 114.888 51.0571 127.06 50.2282 129.348C49.3992 131.636 49.3326 132.3 49.3659 133.527C49.3992 134.754 65.3092 143.957 65.3092 143.957Z" fill="#DCE4FB"/>
<path d="M65.3092 143.957L73.4998 134.714C73.4998 134.714 84.9969 132.535 86.3494 131.783C87.7019 131.032 94.0142 126.749 94.7656 125.622C95.517 124.495 96.1184 122.916 95.442 121.94C94.7656 120.963 93.4267 119.534 90.8235 119.932C88.2204 120.331 84.7496 123.473 84.3744 123.591C83.9993 123.708 78.1877 123.902 78.1877 123.902C78.1877 123.902 82.9353 110.307 83.6258 109.012C84.3163 107.718 92.1281 99.6039 92.2575 95.1586C92.387 90.7133 88.5459 91.5764 87.5101 92.2237C86.4744 92.871 78.4466 102.625 77.7129 103.531C76.9793 104.438 72.2316 112.508 72.2316 112.508L73.4439 110.37C73.4439 110.37 70.9931 110.306 67.8075 112.275L70.3827 110.95C70.3827 110.95 67.5671 110.688 63.915 112.106L66.6279 111.234C66.6279 111.234 65.5834 110.643 63.7263 111.141C61.8692 111.638 60.3102 113.031 59.4812 113.959C58.6523 114.888 51.0571 127.06 50.2282 129.348C49.3992 131.636 49.3326 132.3 49.3659 133.527C49.3992 134.754 65.3092 143.957 65.3092 143.957Z" stroke="#231F20" stroke-width="0.282063" stroke-miterlimit="10"/>
<path d="M42.9889 145.52C42.9889 145.52 41.7833 143.757 41.8939 142.237C42.0045 140.718 46.4788 133.454 48.3571 132.791C50.2353 132.128 55.5937 133.647 59.709 136.382C63.8243 139.116 66.5312 142.072 66.5589 144.392C66.5865 146.712 62.2224 153.092 60.3165 154.224C58.4106 155.357 42.9889 145.52 42.9889 145.52Z" fill="#FED364"/>
<path d="M39.2904 150.572C39.2904 150.572 37.9816 148.657 38.1015 147.008C38.2214 145.358 43.0805 137.47 45.1201 136.75C47.1597 136.03 52.9784 137.68 57.4474 140.649C61.9164 143.618 64.856 146.828 64.8859 149.347C64.9158 151.867 60.1769 158.795 58.1074 160.025C56.0379 161.255 39.2904 150.572 39.2904 150.572Z" fill="url(#paint1_linear_2371_159136)"/>
<path d="M58.8502 159.399C57.3392 161.829 51.5893 160.985 46.0073 157.514C40.4253 154.043 37.1249 149.258 38.6359 146.829C40.1469 144.399 45.8967 145.243 51.4788 148.714C57.0608 152.185 60.3612 156.97 58.8502 159.399Z" fill="#5D3393"/>
<path d="M94.7024 100.339H95.6278L97.1754 104.6L98.719 100.339H99.6483L97.5448 106H96.8021L94.7024 100.339ZM94.2358 100.339H95.1418L95.3051 104.254V106H94.2358V100.339ZM99.2051 100.339H100.115V106H99.0456V104.254L99.2051 100.339ZM102.462 100.339V106H101.393V100.339H102.462ZM106.05 100.339V106H104.985V100.339H106.05ZM107.808 100.339V101.182H103.247V100.339H107.808ZM109.778 100.339V106H108.709V100.339H109.778ZM115.602 100.339V106H114.528L112.122 102.073V106H111.052V100.339H112.122L114.536 104.27V100.339H115.602ZM121.227 103.072V105.277C121.144 105.383 121.013 105.498 120.834 105.623C120.658 105.747 120.427 105.855 120.142 105.946C119.857 106.034 119.507 106.078 119.092 106.078C118.732 106.078 118.403 106.018 118.105 105.899C117.807 105.777 117.55 105.6 117.335 105.366C117.12 105.133 116.954 104.848 116.837 104.511C116.72 104.174 116.662 103.789 116.662 103.356V102.983C116.662 102.55 116.717 102.165 116.825 101.828C116.937 101.491 117.095 101.206 117.3 100.972C117.507 100.739 117.755 100.562 118.042 100.44C118.333 100.318 118.657 100.257 119.015 100.257C119.494 100.257 119.888 100.336 120.197 100.494C120.508 100.652 120.746 100.87 120.912 101.147C121.078 101.422 121.182 101.738 121.223 102.096H120.181C120.153 101.899 120.095 101.727 120.01 101.579C119.924 101.429 119.803 101.312 119.644 101.229C119.489 101.143 119.287 101.101 119.038 101.101C118.828 101.101 118.643 101.142 118.482 101.225C118.321 101.308 118.186 101.429 118.077 101.587C117.969 101.745 117.886 101.941 117.829 102.174C117.774 102.407 117.747 102.674 117.747 102.975V103.356C117.747 103.659 117.778 103.929 117.84 104.165C117.902 104.398 117.992 104.595 118.109 104.756C118.228 104.914 118.374 105.034 118.548 105.117C118.724 105.198 118.924 105.238 119.147 105.238C119.349 105.238 119.516 105.221 119.648 105.187C119.783 105.151 119.891 105.108 119.971 105.059C120.051 105.01 120.114 104.962 120.158 104.915V103.854H119.034V103.072H121.227Z" fill="white"/>
</g>
<defs>
<filter id="filter0_f_2371_159136" x="61.2879" y="148.073" width="93.7563" height="17.9516" filterUnits="userSpaceOnUse" color-interpolation-filters="sRGB">
<feFlood flood-opacity="0" result="BackgroundImageFix"/>
<feBlend mode="normal" in="SourceGraphic" in2="BackgroundImageFix" result="shape"/>
<feGaussianBlur stdDeviation="2.56895" result="effect1_foregroundBlur_2371_159136"/>
</filter>
<linearGradient id="paint0_linear_2371_159136" x1="126.809" y1="89.0291" x2="84.4174" y2="84.3682" gradientUnits="userSpaceOnUse">
<stop stop-color="#400789"/>
<stop offset="1" stop-color="#9E64E7"/>
</linearGradient>
<linearGradient id="paint1_linear_2371_159136" x1="64.8861" y1="160.124" x2="36.2587" y2="156.544" gradientUnits="userSpaceOnUse">
<stop stop-color="#400789"/>
<stop offset="1" stop-color="#9E64E7"/>
</linearGradient>
<clipPath id="clip0_2371_159136">
<rect width="214.826" height="166.002" fill="white"/>
</clipPath>
</defs>
</svg>
