<svg width="221" height="169" viewBox="0 0 221 169" fill="none" xmlns="http://www.w3.org/2000/svg">
<ellipse cx="105.5" cy="162" rx="89.5" ry="7" fill="black"/>
<path d="M186.761 71.5014H207.802C208.949 71.5014 209.88 70.5485 209.88 69.3732V51.7025C209.88 50.5272 208.949 49.5742 207.802 49.5742H186.761C185.614 49.5742 184.684 50.5272 184.684 51.7025V69.3732C184.684 70.5485 185.614 71.5014 186.761 71.5014Z" fill="url(#paint0_linear_2020_146551)"/>
<path d="M203.03 64.1813H193.181H191.402V56.1914H203.03V58.1889V64.1813Z" stroke="white" stroke-width="0.568138" stroke-linecap="round" stroke-linejoin="round"/>
<path d="M191.402 56.1914L197.216 60.8862L203.029 56.1914" stroke="white" stroke-width="0.568138" stroke-linecap="round" stroke-linejoin="round"/>
<path d="M29.9081 107.286H9.8839C8.61895 107.286 7.59375 106.235 7.59375 104.939V85.1237C7.59375 83.8275 8.61895 82.7773 9.8839 82.7773H29.9081C31.173 82.7773 32.1986 83.8275 32.1986 85.1237V104.939C32.1986 106.235 31.173 107.286 29.9081 107.286Z" fill="url(#paint1_linear_2020_146551)"/>
<path d="M26.657 95.259C26.657 99.0008 23.697 102.034 20.0453 102.034C16.3936 102.034 13.4336 99.0008 13.4336 95.259C13.4336 91.5175 16.3936 88.4844 20.0453 88.4844C23.697 88.4844 26.657 91.5175 26.657 95.259Z" stroke="white" stroke-width="0.689907" stroke-miterlimit="10"/>
<path d="M14.4609 91.668H25.6516" stroke="white" stroke-width="0.827888" stroke-miterlimit="10"/>
<path d="M13.4336 95.2578H26.5908" stroke="white" stroke-width="0.827888" stroke-miterlimit="10"/>
<path d="M14.4375 98.8516H25.6512" stroke="white" stroke-width="0.827888" stroke-miterlimit="10"/>
<mask id="mask0_2020_146551" style="mask-type:alpha" maskUnits="userSpaceOnUse" x="13" y="88" width="14" height="15">
<path d="M26.6557 95.2604C26.6557 99.0001 23.696 102.033 20.0464 102.033C16.3933 102.033 13.4336 99.0001 13.4336 95.2604C13.4336 91.5172 16.3933 88.4844 20.0464 88.4844C23.696 88.4844 26.6557 91.5172 26.6557 95.2604Z" fill="#FF0000"/>
</mask>
<g mask="url(#mask0_2020_146551)">
<path d="M29.2562 88.5859C27.479 91.6696 26.292 96.6309 29.4517 102.035" stroke="white" stroke-width="0.689907" stroke-miterlimit="10"/>
<path d="M29.2562 88.5859C27.479 91.6696 26.292 96.6309 29.4517 102.035" stroke="white" stroke-width="0.689907" stroke-miterlimit="10"/>
<path d="M18.9046 88.5859C17.1274 91.6696 15.9404 96.6309 19.1002 102.035" stroke="white" stroke-width="0.689907" stroke-miterlimit="10"/>
</g>
<mask id="mask1_2020_146551" style="mask-type:alpha" maskUnits="userSpaceOnUse" x="13" y="88" width="14" height="15">
<path d="M26.6557 95.2604C26.6557 99.0001 23.696 102.033 20.0464 102.033C16.3933 102.033 13.4336 99.0001 13.4336 95.2604C13.4336 91.5172 16.3933 88.4844 20.0464 88.4844C23.696 88.4844 26.6557 91.5172 26.6557 95.2604Z" fill="#FF0000"/>
</mask>
<g mask="url(#mask1_2020_146551)">
<path d="M21.2511 88.6523C23.2066 92.0994 23.8531 97.1809 21.0703 101.89" stroke="white" stroke-width="0.686501" stroke-miterlimit="10"/>
<path d="M10.8995 88.6523C12.855 92.0994 13.5015 97.1809 10.7188 101.89" stroke="white" stroke-width="0.686501" stroke-miterlimit="10"/>
</g>
<path d="M218.879 109.51H201.903C201.18 109.51 200.594 108.909 200.594 108.169C200.594 107.428 201.18 106.828 201.903 106.828H218.879C219.602 106.828 220.188 107.428 220.188 108.169C220.188 108.909 219.602 109.51 218.879 109.51Z" fill="#4A90E2"/>
<path d="M206.991 125.018H204.917C204.372 125.018 203.93 124.565 203.93 124.007V122.011C203.93 121.452 204.372 121 204.917 121H206.991C207.536 121 207.978 121.452 207.978 122.011V124.007C207.978 124.565 207.536 125.018 206.991 125.018Z" fill="#1E147E"/>
<path d="M10.3505 134.307H8.27597C7.73095 134.307 7.28906 133.855 7.28906 133.296V131.3C7.28906 130.742 7.73095 130.289 8.27597 130.289H10.3505C10.8956 130.289 11.3374 130.742 11.3374 131.3V133.296C11.3374 133.855 10.8956 134.307 10.3505 134.307Z" fill="#96B6FA"/>
<path d="M169.126 20.5746H134.602C134.028 20.5746 133.562 20.0978 133.562 19.51V10.8725C133.562 10.2847 134.028 9.80859 134.602 9.80859H169.126C169.7 9.80859 170.165 10.2847 170.165 10.8725V19.51C170.165 20.0978 169.7 20.5746 169.126 20.5746Z" fill="url(#paint2_linear_2020_146551)"/>
<path d="M138.547 13.6445H163.1H138.547Z" fill="url(#paint3_linear_2020_146551)"/>
<path d="M138.547 13.6445H163.1" stroke="white" stroke-width="0.407045" stroke-miterlimit="10"/>
<path d="M138.547 16.2266H148.547H138.547Z" fill="url(#paint4_linear_2020_146551)"/>
<path d="M138.547 16.2266H148.547" stroke="white" stroke-width="0.407045" stroke-miterlimit="10"/>
<path d="M137.551 19.3555V23.5519L142.701 19.3555H137.551Z" fill="url(#paint5_linear_2020_146551)"/>
<path d="M84.304 21.216H67.5913C65.968 21.216 64.6523 19.8675 64.6523 18.2041V2.28307C64.6523 1.02224 65.6499 0 66.8804 0H84.304C85.5344 0 86.532 1.02224 86.532 2.28307V18.9326C86.532 20.1938 85.5344 21.216 84.304 21.216Z" fill="url(#paint6_linear_2020_146551)"/>
<path d="M80.6977 12.1765L79.4521 10.9002C79.2296 10.6492 78.9405 10.5124 78.6514 10.5124C78.362 10.5124 78.0729 10.6488 77.8504 10.8768L77.1381 11.6067L77.0046 11.5382C76.916 11.4926 76.8494 11.4699 76.7825 11.4244C76.115 10.991 75.5144 10.4212 74.9359 9.69164C74.6689 9.34983 74.4689 9.03065 74.3578 8.75706C74.5354 8.59765 74.6914 8.4149 74.8469 8.25549C74.9139 8.18727 74.9804 8.11869 75.0473 8.05047C75.2919 7.79951 75.4254 7.5033 75.4254 7.20674C75.4254 6.91053 75.2919 6.61432 75.0473 6.36336L74.4244 5.72499C74.3578 5.65677 74.2909 5.58784 74.2239 5.497C74.0908 5.35986 73.9349 5.20079 73.8014 5.064C73.5789 4.83601 73.2898 4.69922 73.0004 4.69922C72.7113 4.69922 72.444 4.81304 72.1994 5.064L71.4209 5.86178C71.1318 6.15835 70.9538 6.54575 70.9093 6.97875C70.8648 7.66272 71.0428 8.30108 71.1984 8.71146C71.5543 9.76021 72.1101 10.6948 72.9335 11.6979C73.9345 12.9061 75.1136 13.8637 76.493 14.5476C77.0046 14.7982 77.7169 15.0941 78.4958 15.1627H78.6514C79.1854 15.1627 79.6301 14.958 79.9857 14.5702L80.0081 14.5476C80.1195 14.4108 80.253 14.274 80.409 14.1372C80.498 14.046 80.6087 13.9319 80.6977 13.8407C81.1651 13.3395 81.1651 12.6551 80.6977 12.1765ZM80.1865 13.3617C80.0975 13.4529 80.0081 13.5445 79.9191 13.6357C79.7632 13.7725 79.6301 13.9319 79.4741 14.0913C79.2516 14.3193 79.0071 14.4334 78.6732 14.4334H78.5624C77.8949 14.3878 77.272 14.1139 76.827 13.8859C75.5589 13.2476 74.4461 12.3589 73.512 11.2193C72.7555 10.2844 72.2443 9.39508 71.8879 8.4605C71.6658 7.91333 71.5764 7.48033 71.6209 7.04732C71.643 6.79671 71.7323 6.56872 71.9328 6.38633L72.6892 5.61117C72.7558 5.5426 72.8669 5.4514 73.0004 5.4514C73.1339 5.4514 73.2225 5.51998 73.3115 5.61117C73.445 5.74797 73.5789 5.88441 73.7124 6.0212C73.7793 6.08942 73.8455 6.18097 73.9345 6.24919L74.5575 6.88791C74.6241 6.95613 74.7131 7.09292 74.7131 7.20674C74.7131 7.34353 74.6241 7.4577 74.5575 7.52592L74.3578 7.73129C74.1574 7.9363 73.9794 8.11869 73.8014 8.30108L73.7793 8.32406C73.5568 8.55205 73.601 8.75706 73.6455 8.89386V8.91648C73.801 9.32686 74.0463 9.69164 74.3799 10.1476C75.0028 10.9458 75.67 11.5608 76.404 12.0394C76.493 12.108 76.6045 12.1539 76.6938 12.1992C76.7825 12.2451 76.8494 12.2677 76.9163 12.3133L76.938 12.3363C77.1605 12.4501 77.383 12.4045 77.561 12.2221L78.3396 11.4244C78.4062 11.3558 78.5179 11.2646 78.6514 11.2646C78.7625 11.2646 78.8736 11.3558 78.9401 11.4244L80.1865 12.7007C80.3869 12.9061 80.3869 13.1337 80.1865 13.3617Z" fill="white"/>
<mask id="mask2_2020_146551" style="mask-type:alpha" maskUnits="userSpaceOnUse" x="17" y="25" width="176" height="141">
<path d="M192.926 25.6172V166H17V25.6172H192.926Z" fill="#4A90E2"/>
</mask>
<g mask="url(#mask2_2020_146551)">
<path d="M82.7568 101.535L71.9915 100.066L72.0898 98.7852L59.4983 100.503C59.4983 100.503 52.6262 119.374 58.7422 158.608H67.4992L70.552 118.826H71.6714L74.8229 158.608H83.5802C89.6962 119.374 82.7568 101.535 82.7568 101.535Z" fill="#282828"/>
<path d="M81.8997 47.8602C80.4426 46.1038 79.276 44.0547 78.2846 41.1792C77.22 38.0927 73.735 39.3472 73.735 39.3472C73.735 39.3472 70.8308 35.5187 66.4606 36.8524C62.0904 38.1857 60.5719 41.3726 60.4829 45.1611C60.3936 48.9496 57.4856 49.542 55.2462 53.925C51.2927 61.6621 57.9489 68.1794 70.065 66.3714L70.0812 66.2509C71.2744 66.6224 72.7367 66.7843 74.5218 66.6758C89.0775 65.7903 87.6728 54.8197 81.8997 47.8602Z" fill="#282828"/>
<path d="M77.133 53.5983C78.3293 54.7103 81.0044 50.4927 79.8484 49.3086C78.6925 48.1248 77.8105 49.9823 77.8105 49.9823L77.2944 51.2414L76.9053 52.9465L76.8125 53.3929L77.133 53.5983Z" fill="#F3968E"/>
<path d="M79.2884 50.8034C79.2884 50.8034 78.3829 50.386 77.5781 51.7313" stroke="#282828" stroke-width="0.342539" stroke-linecap="round" stroke-linejoin="round"/>
<path d="M62.9834 53.4714C61.883 54.6831 58.8692 50.7125 59.9233 49.4326C60.9775 48.1527 62.0093 49.9275 62.0093 49.9275L62.6278 51.137L63.1562 52.8022L63.2853 53.2391L62.9834 53.4714Z" fill="#F3968E"/>
<path d="M60.6055 50.8719C60.6055 50.8719 61.4734 50.3778 62.3861 51.6485" stroke="#282828" stroke-width="0.342539" stroke-linecap="round" stroke-linejoin="round"/>
<path d="M79.2315 45.2867C79.2315 50.8694 75.0776 53.5169 69.9536 53.5169C64.8297 53.5169 60.6758 50.8694 60.6758 45.2867C60.6758 39.7039 64.8297 35.9062 69.9536 35.9062C75.0776 35.9062 79.2315 39.7039 79.2315 45.2867Z" fill="#282828"/>
<path d="M73.734 67.8737H66.1016V57.7461H73.734V67.8737Z" fill="#FFB0A4"/>
<path d="M64.9883 57.1133C64.9883 57.1133 67.1128 61.4581 69.7266 62.1365C70.4247 62.3178 71.1705 62.2556 71.8439 62.011C72.8277 61.6536 74.075 60.1507 74.2872 58.4879L74.3855 57.5378C74.3855 57.5378 69.7345 60.1326 64.9883 57.1133Z" fill="#282828"/>
<path d="M77.9697 45.6736C77.9697 49.1008 77.4968 52.0583 77.0252 54.1572C76.5633 56.2123 75.2635 57.6485 73.427 58.8043L73.0927 59.015C71.1496 60.2383 68.6387 60.2666 66.6656 59.0881C64.6759 57.8991 63.2823 56.3318 62.8535 54.1268C62.0735 50.1156 61.9887 45.6736 61.9887 45.6736C61.9887 45.6736 61.2463 37.0217 69.865 37.1899C78.4833 37.3578 77.9697 45.6736 77.9697 45.6736Z" fill="#FFB0A4"/>
<path d="M69.375 51.082V51.7932C69.375 51.8639 69.3885 51.9318 69.4126 51.994C69.5085 52.2379 69.7841 52.3545 70.0335 52.287L70.5692 52.1421" stroke="#282828" stroke-width="0.424293" stroke-linecap="round" stroke-linejoin="round"/>
<path d="M71.1719 46.3902L75.757 47.5026C75.757 47.5026 75.5486 46.2948 73.6728 45.8558C71.7969 45.4171 71.1719 46.3902 71.1719 46.3902Z" fill="#282828"/>
<path d="M68.7655 46.3902L64.1211 47.5026C64.1211 47.5026 64.3319 46.2948 66.2319 45.8558C68.1319 45.4171 68.7655 46.3902 68.7655 46.3902Z" fill="#282828"/>
<path d="M66.625 53.5156H72.9646C72.9646 53.5156 72.5171 55.3007 69.6423 55.3007C67.4529 55.3007 66.625 53.5156 66.625 53.5156Z" fill="white"/>
<path d="M62.1014 48.543C62.1014 48.543 65.5472 43.7694 64.7524 38.9336C64.7524 38.9336 62.1949 40.2527 61.5288 43.6567C60.8627 47.0606 62.1014 48.543 62.1014 48.543Z" fill="#282828"/>
<path d="M77.9766 48.3843C77.9766 48.3843 73.9737 43.4452 74.7685 38.6094C74.7685 38.6094 77.545 40.253 78.2111 43.6566C78.8769 47.0609 77.9766 48.3843 77.9766 48.3843Z" fill="#282828"/>
<path d="M62.3906 40.8403C62.3906 40.8403 66.3441 46.2859 78.4496 45.4365C78.4496 45.4365 77.067 37.6707 71.2004 36.8949C71.2004 36.8949 64.4265 36.0663 62.3906 40.8403Z" fill="#282828"/>
<path d="M51.3513 125.487C51.1754 125.771 61.4267 79.7813 58.3832 80.4766C58.1058 80.5398 52.7749 81.0471 51.9829 82.6978C49.6862 87.4823 48.0391 125.138 48.0391 125.138L51.3513 125.487Z" fill="#FFB0A4"/>
<path d="M48.0416 125.138C48.0416 125.138 46.3892 132.995 52.6356 133.853C53.0472 133.91 53.4449 133.66 53.5805 133.259L53.5984 133.205C53.7478 132.761 53.5308 132.285 53.1124 132.094C52.0941 131.627 50.5142 130.448 51.2979 127.771C51.2979 127.771 52.201 127.658 52.6991 129.384C52.8274 129.827 53.3138 130.05 53.7174 129.842C53.9927 129.7 54.1479 129.397 54.1089 129.083C53.9592 127.874 53.3659 124.964 51.0889 124.184L48.0416 125.138Z" fill="#FFB0A4"/>
<path d="M50.1445 93.751C50.1445 93.751 56.0512 102.275 56.0822 102.11C56.1133 101.945 58.6649 86.7406 58.6649 86.7406L51.1956 85.9453L50.1445 93.751Z" fill="#F3968E"/>
<path d="M66.554 66.2033C66.8058 66.2019 51.9563 66.4744 49.2422 85.688L57.7763 87.0276L59.497 101.533H83.3046L88.0308 74.7329C88.0308 74.7329 84.671 68.9264 74.8771 66.082L66.554 66.2033Z" fill="#FFC83C"/>
<path d="M59.2969 68.5288C59.2969 68.5288 61.3949 71.3835 69.9935 71.3835C78.5125 71.3835 80.6909 68.3793 80.6909 68.3793C80.6909 68.3793 75.6691 65.5042 69.8418 64.5742C69.8418 64.5742 64.6385 65.524 59.2969 68.5288Z" fill="#FFB0A4"/>
<path d="M67.0658 49.4216C67.0658 49.8292 66.7422 50.1597 66.3431 50.1597C65.9443 50.1597 65.6211 49.8292 65.6211 49.4216C65.6211 49.0141 65.9443 48.6836 66.3431 48.6836C66.7422 48.6836 67.0658 49.0141 67.0658 49.4216Z" fill="#282828"/>
<path d="M67.1399 49.4212C67.1399 49.8695 66.784 50.2331 66.345 50.2331C65.9063 50.2331 65.5508 49.8695 65.5508 49.4212C65.5508 48.9729 65.9063 48.6094 66.345 48.6094C66.784 48.6094 67.1399 48.9729 67.1399 49.4212Z" fill="#FFB1A5"/>
<path d="M73.9134 49.4216C73.9134 49.8292 73.5902 50.1597 73.1911 50.1597C72.792 50.1597 72.4688 49.8292 72.4688 49.4216C72.4688 49.0141 72.792 48.6836 73.1911 48.6836C73.5902 48.6836 73.9134 49.0141 73.9134 49.4216Z" fill="#282828"/>
<path d="M73.9876 49.4212C73.9876 49.8695 73.632 50.2331 73.193 50.2331C72.754 50.2331 72.3984 49.8695 72.3984 49.4212C72.3984 48.9729 72.754 48.6094 73.193 48.6094C73.632 48.6094 73.9876 48.9729 73.9876 49.4212Z" fill="#FFB1A5"/>
<path d="M164.358 82.7245C163.281 80.9628 157.23 81.0247 156.91 80.9865C155.275 80.79 157.959 94.1293 161.362 105.789C162.014 108.024 164.415 109.189 166.511 108.278C166.534 108.268 166.556 108.258 166.579 108.248C168.238 107.528 169.181 105.724 168.847 103.911C167.229 95.1126 165.604 84.7619 164.358 82.7245Z" fill="#FFB0A4"/>
<path d="M165.798 87.5495L158.072 90.6215L157.348 86.8651L165.347 84.8203L165.798 87.5495Z" fill="#F3968E"/>
<path d="M167.692 96.7003C167.692 96.7003 163.6 100.102 163.775 99.8705C163.949 99.6387 166.645 91.7305 166.645 91.7305L167.692 96.7003Z" fill="#F3968E"/>
<path d="M173.73 88.96L162.216 102.013C160.705 103.726 160.943 106.397 162.734 107.802C164.52 109.203 167.094 108.747 168.317 106.81L178.272 91.0448L173.73 88.96Z" fill="#FFB0A4"/>
<path d="M176.163 92.7382C173.952 91.8069 172.897 89.2162 173.806 86.9511C174.715 84.6858 177.244 83.605 179.454 84.5359C181.664 85.4673 182.72 88.0583 181.811 90.3234C180.902 92.5887 178.373 93.6696 176.163 92.7382Z" fill="#FFB0A4"/>
<path d="M183.997 77.6287L188.228 79.9234C188.464 80.051 188.53 80.3541 188.377 80.6L181.779 91.1683C181.625 91.4141 181.309 91.5106 181.074 91.3826L176.842 89.0883C176.607 88.9603 176.541 88.6572 176.694 88.4114L183.293 77.8434C183.446 77.5972 183.762 77.5011 183.997 77.6287Z" fill="#372E5F"/>
<path d="M183.591 77.4022L187.822 79.6972C188.058 79.8248 188.124 80.1279 187.971 80.3738L181.372 90.9417C181.218 91.1879 180.903 91.2837 180.668 91.156L176.436 88.8614C176.201 88.7338 176.134 88.4307 176.288 88.1845L182.887 77.6169C183.04 77.3706 183.355 77.2745 183.591 77.4022Z" fill="#251B43"/>
<path d="M183.012 78.4836L186.729 80.4998L181.352 89.113L177.634 87.0968L183.012 78.4836Z" fill="#E6E6E6"/>
<path d="M186.73 80.4998L177.634 87.0964L183.012 78.4836L186.73 80.4998Z" fill="white"/>
<path d="M180.407 84.0228C178.379 82.9755 175.774 82.971 173.809 86.9529L175.267 88.4937C176.571 88.4008 177.718 87.0061 178.071 86.535L181.158 86.2319C181.158 86.2319 182.435 85.07 180.407 84.0228Z" fill="#FFB0A4"/>
<path d="M157.004 101.546L144.413 99.8281L144.511 101.109L133.746 102.578C133.746 102.578 126.807 120.417 132.922 159.651H141.68L144.831 119.868H145.951L149.004 159.651H157.761C163.877 120.417 157.004 101.546 157.004 101.546Z" fill="#8E706C"/>
<path d="M140.828 119.867H149.965" stroke="#282828" stroke-width="0.425328" stroke-linecap="round" stroke-linejoin="round"/>
<path d="M148.349 65.1875C148.098 65.1861 164.544 67.5193 167.257 86.7333L158.723 88.0733L157.003 102.578H133.195L128.469 75.7785C128.469 75.7785 133.743 68.0322 143.537 65.1875H148.349Z" fill="#FED364"/>
<path d="M158.727 88.0729L159.467 79.6836" stroke="#282828" stroke-width="0.425328" stroke-linecap="round" stroke-linejoin="round"/>
<path d="M149.917 65.4587V58.7852H142.285V65.5372C141.894 65.6566 141.244 65.898 140.234 66.3894L146.187 70.0227L152.273 66.3894C152.273 66.3894 151.307 65.8132 149.917 65.4587Z" fill="#FFB0A4"/>
<path d="M142.211 59.5998C142.211 59.5998 143.581 63.3293 147.24 63.0073C150.604 62.7114 150.068 57.543 150.068 57.543L142.211 59.5998Z" fill="#282828"/>
<path d="M138.882 54.6413C137.685 55.7533 135.01 51.5357 136.166 50.3516C137.322 49.1678 138.204 51.0253 138.204 51.0253L138.72 52.2843L139.109 53.9895L139.202 54.4359L138.882 54.6413Z" fill="#F3968E"/>
<path d="M136.727 51.8464C136.727 51.8464 137.632 51.4289 138.436 52.7742" stroke="#282828" stroke-width="0.342539" stroke-linecap="round" stroke-linejoin="round"/>
<path d="M153.029 54.5147C154.129 55.7264 157.143 51.7559 156.088 50.4756C155.034 49.1957 154.003 50.9704 154.003 50.9704L153.384 52.18L152.856 53.8452L152.727 54.2821L153.029 54.5147Z" fill="#F3968E"/>
<path d="M155.41 51.9149C155.41 51.9149 154.542 51.4208 153.629 52.6911" stroke="#282828" stroke-width="0.342539" stroke-linecap="round" stroke-linejoin="round"/>
<path d="M136.781 46.3296C136.781 51.9123 140.935 54.5598 146.059 54.5598C151.183 54.5598 155.337 51.9123 155.337 46.3296C155.337 40.7469 151.183 36.9492 146.059 36.9492C140.935 36.9492 136.781 40.7469 136.781 46.3296Z" fill="#282828"/>
<path d="M138.045 46.7162C138.045 50.1434 138.517 53.1009 138.989 55.1998C139.451 57.2549 140.751 58.6914 142.587 59.8476L142.922 60.0583C144.865 61.2813 147.376 61.3099 149.349 60.1311C151.339 58.9424 152.732 57.3747 153.161 55.1694C153.941 51.1586 154.026 46.7162 154.026 46.7162C154.026 46.7162 154.768 38.0646 146.15 38.2329C137.531 38.4011 138.045 46.7162 138.045 46.7162Z" fill="#FFB0A4"/>
<path d="M145.516 51.6523V52.8495C145.516 52.9202 145.528 52.9885 145.553 53.0507C145.649 53.2953 145.924 53.4126 146.173 53.3448L146.709 53.1991" stroke="#282828" stroke-width="0.424983" stroke-linecap="round" stroke-linejoin="round"/>
<path d="M144.143 47.0131L139.859 48.0421C139.859 48.0421 140.054 46.9251 141.807 46.5193C143.559 46.1132 144.143 47.0131 144.143 47.0131Z" fill="#282828"/>
<path d="M147.945 47.0131L152.081 48.0421C152.081 48.0421 151.893 46.9251 150.201 46.5193C148.509 46.1132 147.945 47.0131 147.945 47.0131Z" fill="#282828"/>
<path d="M143.238 54.7383H148.809C148.809 54.7383 146.34 57.816 143.238 54.7383Z" fill="white"/>
<path d="M145.284 50.5227C145.284 52.261 143.909 53.6703 142.213 53.6703C140.516 53.6703 139.141 52.261 139.141 50.5227C139.141 48.7843 140.516 47.375 142.213 47.375C143.909 47.375 145.284 48.7843 145.284 50.5227Z" stroke="#1E147E" stroke-width="0.462927" stroke-miterlimit="10"/>
<path d="M152.831 50.5227C152.831 52.261 151.456 53.6703 149.76 53.6703C148.063 53.6703 146.688 52.261 146.688 50.5227C146.688 48.7843 148.063 47.375 149.76 47.375C151.456 47.375 152.831 48.7843 152.831 50.5227Z" stroke="#1E147E" stroke-width="0.462927" stroke-miterlimit="10"/>
<path d="M145.281 50.5242C145.281 50.5242 146.009 49.8282 146.684 50.5242" stroke="#1E147E" stroke-width="0.462927" stroke-miterlimit="10"/>
<path d="M139.14 50.5202L138.172 50.4961" stroke="#1E147E" stroke-width="0.462927" stroke-miterlimit="10"/>
<path d="M152.828 50.5202L153.802 50.4961" stroke="#1E147E" stroke-width="0.462927" stroke-miterlimit="10"/>
<path d="M153.919 49.5853C153.919 49.5853 150.473 44.8124 151.267 39.9766C151.267 39.9766 153.825 41.2954 154.491 44.6993C155.157 48.1036 153.919 49.5853 153.919 49.5853Z" fill="#282828"/>
<path d="M138.038 49.9094C138.038 49.9094 142.041 44.4882 141.247 39.6523C141.247 39.6523 138.47 41.296 137.804 44.6999C137.138 48.1042 138.038 49.9094 138.038 49.9094Z" fill="#282828"/>
<path d="M153.624 41.8794C153.624 41.8794 149.2 46.8428 137.094 45.9931C137.094 45.9931 138.948 38.7098 144.814 37.934C144.814 37.934 151.588 37.1051 153.624 41.8794Z" fill="#282828"/>
<path d="M159.095 36.0783C159.095 39.3493 156.507 42.0011 153.315 42.0011C150.123 42.0011 147.535 39.3493 147.535 36.0783C147.535 32.8073 150.123 30.1562 153.315 30.1562C156.507 30.1562 159.095 32.8073 159.095 36.0783Z" fill="#282828"/>
<path d="M143.238 50.238C143.238 50.6456 142.914 50.9761 142.515 50.9761C142.116 50.9761 141.793 50.6456 141.793 50.238C141.793 49.8305 142.116 49.5 142.515 49.5C142.914 49.5 143.238 49.8305 143.238 50.238Z" fill="#282828"/>
<path d="M143.308 50.2376C143.308 50.6859 142.952 51.0495 142.513 51.0495C142.074 51.0495 141.719 50.6859 141.719 50.2376C141.719 49.7893 142.074 49.4258 142.513 49.4258C142.952 49.4258 143.308 49.7893 143.308 50.2376Z" fill="#FFB1A5"/>
<path d="M150.085 50.238C150.085 50.6456 149.762 50.9761 149.363 50.9761C148.964 50.9761 148.641 50.6456 148.641 50.238C148.641 49.8305 148.964 49.5 149.363 49.5C149.762 49.5 150.085 49.8305 150.085 50.238Z" fill="#282828"/>
<path d="M150.156 50.2376C150.156 50.6859 149.8 51.0495 149.361 51.0495C148.922 51.0495 148.566 50.6859 148.566 50.2376C148.566 49.7893 148.922 49.4258 149.361 49.4258C149.8 49.4258 150.156 49.7893 150.156 50.2376Z" fill="#FFB1A5"/>
<path d="M129.313 106.086C129.313 106.086 136.15 105.445 140.825 102.285L140.702 99.5039L129.309 101.094L129.313 106.086Z" fill="#F3968E"/>
<path d="M52.7384 78.4887L69.476 97.5501C69.476 97.5501 79.2277 107.457 73.3377 113.18C68.3743 116.657 64.949 111.976 64.949 111.976C64.949 111.976 52.15 94.8527 46.2326 81.495C46.2326 81.495 45.8816 79.5873 48.7584 78.2461C51.6583 76.8942 52.7384 78.4887 52.7384 78.4887Z" fill="#FFB0A4"/>
<path d="M54.2858 81.6152C54.3483 83.7439 52.7146 85.5221 50.6369 85.5862C48.5591 85.6502 46.8241 83.9759 46.7616 81.8472C46.6991 79.7181 48.3328 77.9403 50.4105 77.8762C52.4883 77.8122 54.2233 79.4862 54.2858 81.6152Z" fill="#FFB0A4"/>
<path d="M53.0582 79.0802C53.0582 79.0802 53.5658 81.5712 50.8991 82.6672C48.4682 83.6669 46.9374 82.4157 46.1833 81.9156C43.4643 80.1141 40.6283 72.7663 40.6283 72.7663C40.6283 72.7663 50.78 67.57 50.6971 67.7397C50.6137 67.91 53.0582 79.0802 53.0582 79.0802Z" fill="#FFB0A4"/>
<path d="M53.0589 79.0809C52.9004 78.5085 54.4622 71.991 54.9774 69.5542C55.1017 68.9666 54.6563 68.3839 54.0422 68.3291C53.6423 68.2937 53.0264 68.4088 52.7909 69.0159L50.6085 73.9358L53.0589 79.0809Z" fill="#FFB0A4"/>
<path d="M52.1807 72.306L49.4288 63.2251C49.2588 62.6193 48.6108 62.2581 48.0188 62.4388C47.5068 62.595 47.2098 63.1087 47.3255 63.639L48.8131 70.4599L52.1807 72.306Z" fill="#FFB0A4"/>
<path d="M48.2185 69.2669L45.082 62.9061C44.8194 62.348 44.1502 62.0939 43.6072 62.3464C43.1366 62.5652 42.9136 63.0975 43.0812 63.6022L45.684 71.0603L48.2185 69.2669Z" fill="#FFB0A4"/>
<path d="M45.7631 71.4993L41.9833 65.3237C41.636 64.75 40.8938 64.5448 40.3345 64.8676C39.8088 65.171 39.6295 65.8355 39.9236 66.3912L43.0329 72.2706L45.7631 71.4993Z" fill="#FFB0A4"/>
<path d="M40.6296 72.7669L37.7763 69.0404C37.5258 68.5931 37.6606 68.0473 38.0841 67.7928C38.4893 67.5487 39.0301 67.6495 39.3462 68.0283L43.032 72.2719L40.6296 72.7669Z" fill="#FFB0A4"/>
<path d="M49.9516 72.7577C49.9516 72.7577 46.4523 74.0603 48.2698 78.7766" stroke="#282828" stroke-width="0.528469" stroke-linecap="round" stroke-linejoin="round"/>
<path d="M65.8611 101.236C62.8264 104.94 62.1386 109.611 65.7175 112.764C67.0044 113.897 68.9787 114.808 70.7921 114.357C76.8364 112.853 86.1049 99.605 86.1049 99.605L83.7416 76.9825L67.5715 98.7919L65.8611 101.236Z" fill="#FFB0A4"/>
<path d="M72.1699 91.9077C72.1699 91.9077 78.0103 100.717 82.9438 103.791L86.104 99.6059L73.6265 89.9439L72.1699 91.9077Z" fill="#F3968E"/>
<path d="M97.2997 65.5674C97.2997 65.5674 80.4456 69.4944 71.4971 89.5917C71.4971 89.5917 76.9413 97.9634 85.6517 101.672L91.4652 94.3463L97.2997 65.5674Z" fill="#5D3393"/>
<path d="M88.5117 129.395L88.53 164.258H107.16L108.453 129.395H88.5117Z" fill="#272448"/>
<path d="M108.738 129.395L110.032 164.258H128.661L128.68 129.395H108.738Z" fill="#272448"/>
<path d="M118.573 142.707H99.4453V129.395H118.573V142.707Z" fill="#272448"/>
<path d="M102.121 142.707H115.314" stroke="#282828" stroke-width="0.4819" stroke-linecap="round" stroke-linejoin="round"/>
<path d="M140.368 95.9531C141.515 108.938 140.305 118.398 140.64 142.29L129.599 142.764L127.953 98.0421L140.368 95.9531Z" fill="#FFB0A4"/>
<path d="M118.344 66.0586C118.344 66.0586 140.062 71.6551 143.997 99.9024C143.997 99.9024 133.367 104.624 122.715 102.593L125.112 93.1458L118.344 66.0586Z" fill="#5D3393"/>
<path d="M97.3019 65.5078C90.7154 68.9697 86.5742 73.5609 86.5742 73.5609L87.8737 132.258H129.382L129.247 73.8635C129.247 73.8635 124.015 68.6173 118.344 66.0596C113.528 63.8872 101.984 63.047 97.3019 65.5078Z" fill="#5D3393"/>
<path d="M121.497 91.0606C119.756 91.0606 118.344 89.6142 118.344 87.8299V84.3828H124.65V87.8299C124.65 89.6142 123.238 91.0606 121.497 91.0606Z" stroke="#282828" stroke-width="0.344953" stroke-miterlimit="10"/>
<path d="M129.312 102.811L129.851 83.6094" stroke="#282828" stroke-width="0.4819" stroke-linecap="round" stroke-linejoin="round"/>
<path d="M87.2133 99.613L86.3164 82.9688" stroke="#282828" stroke-width="0.4819" stroke-linecap="round" stroke-linejoin="round"/>
<path d="M97.7865 44.0696L96.0558 35.2985C95.9586 34.5842 95.6881 33.4817 96.0193 32.4457C96.5674 30.7317 98.5816 27.4402 102.024 28.947L102.768 32.4199C102.768 32.4199 99.1935 33.1593 97.7596 37.9517L97.7865 44.0696Z" fill="#282828"/>
<path d="M101.774 30.7578C101.711 31.9105 100.718 36.9531 97.2286 38.7901C97.2286 38.7901 94.1713 32.0724 101.774 30.7578Z" fill="#282828"/>
<path d="M114.017 63.8938V49H100.618V63.8938L96.6289 65.757C96.6289 65.757 97.5644 71.93 107.458 72.0671C117.351 72.2039 118.345 66.061 118.345 66.061L114.017 63.8938Z" fill="#FFB0A4"/>
<path d="M102.027 28.9455C102.027 28.9455 104.487 22.2982 112.07 25.8322C116.659 27.971 117.945 30.8387 118.492 32.8708C118.673 33.5459 118.746 34.6092 118.697 35.2408L116.862 44.0684L109.701 31.8549L102.771 32.4184L102.027 28.9455Z" fill="#282828"/>
<path d="M116.862 44.0697C116.862 44.0697 117.765 42.5972 119.629 43.3214C121.492 44.0457 120.649 48.6822 117.854 49.2732C117.854 49.2732 116.852 49.4969 116.066 48.7942C116.066 48.7942 116.754 45.3694 116.862 44.0697Z" fill="#F3968E"/>
<path d="M119.258 44.9543C119.258 44.9543 117.698 44.4205 116.59 46.7757" stroke="#282828" stroke-width="0.4819" stroke-linecap="round" stroke-linejoin="round"/>
<path d="M97.7894 44.0697C97.7894 44.0697 96.8857 42.5972 95.0226 43.3214C93.1595 44.0457 94.0025 48.6822 96.7974 49.2732C96.7974 49.2732 97.7991 49.4969 98.5849 48.7942C98.5849 48.7942 97.8974 45.3694 97.7894 44.0697Z" fill="#F3968E"/>
<path d="M95.3906 44.9543C95.3906 44.9543 96.9512 44.4205 98.0592 46.7757" stroke="#282828" stroke-width="0.4819" stroke-linecap="round" stroke-linejoin="round"/>
<path d="M117.049 39.668C117.05 42.4632 116.782 48.3114 115.105 51.7821C113.53 55.0411 110.926 56.795 107.512 56.8997C104.098 57.0039 101.554 55.6554 99.516 51.4262C97.4777 47.1965 97.575 39.7199 97.575 39.7199C97.575 39.7199 97.575 29.7344 107.206 29.7344C117.35 29.7344 117.049 39.668 117.049 39.668Z" fill="#FFB0A4"/>
<path d="M100.719 53.5117C100.719 53.5117 101.841 59.3458 106.796 60.0163C112.498 60.7876 114.017 53.6598 114.017 53.6598C114.017 53.6598 111.498 56.8955 107.512 56.9004C103.068 56.9065 100.719 53.5117 100.719 53.5117Z" fill="#282828"/>
<path d="M106.625 43.8125V46.1238C106.625 46.2232 106.644 46.3179 106.678 46.4052C106.811 46.7477 107.196 46.9117 107.544 46.817L108.291 46.613" stroke="#282828" stroke-width="0.4819" stroke-linecap="round" stroke-linejoin="round"/>
<path d="M108.879 38.2408L114.773 39.8017C114.773 39.8017 114.505 38.1072 112.094 37.4914C109.682 36.8761 108.879 38.2408 108.879 38.2408Z" fill="#282828"/>
<path d="M105.216 38.2408L99.3203 39.8017C99.3203 39.8017 99.5883 38.1072 102 37.4914C104.411 36.8761 105.216 38.2408 105.216 38.2408Z" fill="#282828"/>
<path d="M104.043 48.4531C104.043 48.4531 104.913 49.136 107.199 49.136C109.279 49.136 110.578 48.4531 110.578 48.4531" stroke="#282828" stroke-width="0.4819" stroke-linecap="round" stroke-linejoin="round"/>
<path d="M106.393 42.9737C106.393 45.0822 104.725 46.7912 102.667 46.7912C100.61 46.7912 98.9414 45.0822 98.9414 42.9737C98.9414 40.8653 100.61 39.1562 102.667 39.1562C104.725 39.1562 106.393 40.8653 106.393 42.9737Z" stroke="white" stroke-width="0.673004" stroke-miterlimit="10"/>
<path d="M115.545 42.9737C115.545 45.0822 113.877 46.7912 111.82 46.7912C109.762 46.7912 108.094 45.0822 108.094 42.9737C108.094 40.8653 109.762 39.1562 111.82 39.1562C113.877 39.1562 115.545 40.8653 115.545 42.9737Z" stroke="white" stroke-width="0.673004" stroke-miterlimit="10"/>
<path d="M106.391 42.9726C106.391 42.9726 107.273 42.1289 108.092 42.9726" stroke="white" stroke-width="0.673004" stroke-miterlimit="10"/>
<path d="M98.9447 42.9731L97.6953 42.9414" stroke="white" stroke-width="0.673004" stroke-miterlimit="10"/>
<path d="M115.547 42.9713L116.941 42.9492" stroke="white" stroke-width="0.673004" stroke-miterlimit="10"/>
<path d="M100.719 30.983C100.719 30.983 102.508 36.1917 110.581 36.0319C116.067 35.9234 117.378 39.9908 117.378 39.9908C117.378 39.9908 116.423 30.8971 116.172 30.983C115.921 31.0689 107.825 28.7695 107.825 28.7695L100.719 30.983Z" fill="#282828"/>
<path d="M103.781 42.711C103.781 43.2069 103.388 43.6095 102.904 43.6095C102.42 43.6095 102.027 43.2069 102.027 42.711C102.027 42.2147 102.42 41.8125 102.904 41.8125C103.388 41.8125 103.781 42.2147 103.781 42.711Z" fill="#282828"/>
<path d="M103.867 42.711C103.867 43.2565 103.434 43.6994 102.902 43.6994C102.369 43.6994 101.938 43.2565 101.938 42.711C101.938 42.1651 102.369 41.7227 102.902 41.7227C103.434 41.7227 103.867 42.1651 103.867 42.711Z" fill="#FFB1A5"/>
<path d="M112 42.711C112 43.2069 111.607 43.6095 111.123 43.6095C110.639 43.6095 110.246 43.2069 110.246 42.711C110.246 42.2147 110.639 41.8125 111.123 41.8125C111.607 41.8125 112 42.2147 112 42.711Z" fill="#282828"/>
<path d="M112.089 42.711C112.089 43.2565 111.657 43.6994 111.125 43.6994C110.592 43.6994 110.16 43.2565 110.16 42.711C110.16 42.1651 110.592 41.7227 111.125 41.7227C111.657 41.7227 112.089 42.1651 112.089 42.711Z" fill="#FFB1A5"/>
</g>
<path d="M37.1852 20.5703H2" stroke="#1E147E" stroke-width="2.75963" stroke-linecap="round"/>
<defs>
<linearGradient id="paint0_linear_2020_146551" x1="209.88" y1="71.5014" x2="182.966" y2="68.103" gradientUnits="userSpaceOnUse">
<stop stop-color="#400789"/>
<stop offset="1" stop-color="#9E64E7"/>
</linearGradient>
<linearGradient id="paint1_linear_2020_146551" x1="32.1986" y1="107.286" x2="5.8184" y2="104.376" gradientUnits="userSpaceOnUse">
<stop stop-color="#400789"/>
<stop offset="1" stop-color="#9E64E7"/>
</linearGradient>
<linearGradient id="paint2_linear_2020_146551" x1="170.165" y1="20.5746" x2="135.309" y2="7.55239" gradientUnits="userSpaceOnUse">
<stop stop-color="#400789"/>
<stop offset="1" stop-color="#9E64E7"/>
</linearGradient>
<linearGradient id="paint3_linear_2020_146551" x1="163.1" y1="14.6445" x2="159.882" y2="5.96182" gradientUnits="userSpaceOnUse">
<stop stop-color="#400789"/>
<stop offset="1" stop-color="#9E64E7"/>
</linearGradient>
<linearGradient id="paint4_linear_2020_146551" x1="148.547" y1="17.2266" x2="143.632" y2="11.8243" gradientUnits="userSpaceOnUse">
<stop stop-color="#400789"/>
<stop offset="1" stop-color="#9E64E7"/>
</linearGradient>
<linearGradient id="paint5_linear_2020_146551" x1="142.701" y1="23.5519" x2="137.212" y2="22.8116" gradientUnits="userSpaceOnUse">
<stop stop-color="#400789"/>
<stop offset="1" stop-color="#9E64E7"/>
</linearGradient>
<linearGradient id="paint6_linear_2020_146551" x1="86.532" y1="21.216" x2="63.0892" y2="18.5593" gradientUnits="userSpaceOnUse">
<stop stop-color="#400789"/>
<stop offset="1" stop-color="#9E64E7"/>
</linearGradient>
</defs>
</svg>
