<svg width="139" height="107" viewBox="0 0 139 107" fill="none" xmlns="http://www.w3.org/2000/svg">
<ellipse cx="65.9893" cy="101.716" rx="56.1963" ry="4.39524" fill="black"/>
<path d="M117.007 44.889H130.219C130.939 44.889 131.524 44.2907 131.524 43.5527V32.4574C131.524 31.7194 130.939 31.1211 130.219 31.1211H117.007C116.287 31.1211 115.703 31.7194 115.703 32.4574V43.5527C115.703 44.2907 116.287 44.889 117.007 44.889Z" fill="url(#paint0_linear_2020_146551)"/>
<path d="M127.231 40.298H121.046H119.93V35.2812H127.231V36.5354V40.298Z" stroke="white" stroke-width="0.35673" stroke-linecap="round" stroke-linejoin="round"/>
<path d="M119.93 35.2812L123.58 38.2291L127.23 35.2812" stroke="white" stroke-width="0.35673" stroke-linecap="round" stroke-linejoin="round"/>
<path d="M18.5266 67.3694H5.95359C5.15934 67.3694 4.51562 66.7096 4.51562 65.8958V53.4537C4.51562 52.6399 5.15934 51.9805 5.95359 51.9805H18.5266C19.3209 51.9805 19.9648 52.6399 19.9648 53.4537V65.8958C19.9648 66.7096 19.3209 67.3694 18.5266 67.3694Z" fill="url(#paint1_linear_2020_146551)"/>
<path d="M16.4826 59.8123C16.4826 62.1618 14.624 64.0665 12.3311 64.0665C10.0383 64.0665 8.17969 62.1618 8.17969 59.8123C8.17969 57.4631 10.0383 55.5586 12.3311 55.5586C14.624 55.5586 16.4826 57.4631 16.4826 59.8123Z" stroke="white" stroke-width="0.433187" stroke-miterlimit="10"/>
<path d="M8.82812 57.5547H15.8546" stroke="white" stroke-width="0.519825" stroke-miterlimit="10"/>
<path d="M8.17969 59.8164H16.441" stroke="white" stroke-width="0.519825" stroke-miterlimit="10"/>
<path d="M8.80859 62.0625H15.8496" stroke="white" stroke-width="0.519825" stroke-miterlimit="10"/>
<mask id="mask0_2020_146551" style="mask-type:alpha" maskUnits="userSpaceOnUse" x="8" y="55" width="9" height="10">
<path d="M16.4778 59.8132C16.4778 62.1614 14.6194 64.0656 12.3279 64.0656C10.0342 64.0656 8.17578 62.1614 8.17578 59.8132C8.17578 57.4629 10.0342 55.5586 12.3279 55.5586C14.6194 55.5586 16.4778 57.4629 16.4778 59.8132Z" fill="#FF0000"/>
</mask>
<g mask="url(#mask0_2020_146551)">
<path d="M18.1164 55.625C17.0005 57.5612 16.2552 60.6764 18.2392 64.0699" stroke="white" stroke-width="0.433187" stroke-miterlimit="10"/>
<path d="M18.1164 55.625C17.0005 57.5612 16.2552 60.6764 18.2392 64.0699" stroke="white" stroke-width="0.433187" stroke-miterlimit="10"/>
<path d="M11.6164 55.625C10.5005 57.5612 9.75521 60.6764 11.7392 64.0699" stroke="white" stroke-width="0.433187" stroke-miterlimit="10"/>
</g>
<mask id="mask1_2020_146551" style="mask-type:alpha" maskUnits="userSpaceOnUse" x="8" y="55" width="9" height="10">
<path d="M16.4778 59.8132C16.4778 62.1614 14.6194 64.0656 12.3279 64.0656C10.0342 64.0656 8.17578 62.1614 8.17578 59.8132C8.17578 57.4629 10.0342 55.5586 12.3279 55.5586C14.6194 55.5586 16.4778 57.4629 16.4778 59.8132Z" fill="#FF0000"/>
</mask>
<g mask="url(#mask1_2020_146551)">
<path d="M13.0862 55.6602C14.314 57.8245 14.7199 61.0152 12.9727 63.9717" stroke="white" stroke-width="0.431048" stroke-miterlimit="10"/>
<path d="M6.57834 55.6602C7.80621 57.8245 8.2121 61.0152 6.46484 63.9717" stroke="white" stroke-width="0.431048" stroke-miterlimit="10"/>
</g>
<path d="M137.181 68.7579H126.521C126.067 68.7579 125.699 68.381 125.699 67.916C125.699 67.4511 126.067 67.0742 126.521 67.0742H137.181C137.634 67.0742 138.002 67.4511 138.002 67.916C138.002 68.381 137.634 68.7579 137.181 68.7579Z" fill="#4A90E2"/>
<path d="M129.715 78.4996H128.413C128.07 78.4996 127.793 78.2151 127.793 77.8644V76.6113C127.793 76.2606 128.07 75.9766 128.413 75.9766H129.715C130.057 75.9766 130.335 76.2606 130.335 76.6113V77.8644C130.335 78.2151 130.057 78.4996 129.715 78.4996Z" fill="#1E147E"/>
<path d="M6.24649 84.3355H4.94389C4.60168 84.3355 4.32422 84.0512 4.32422 83.7006V82.4475C4.32422 82.0968 4.60168 81.8125 4.94389 81.8125H6.24649C6.5887 81.8125 6.86616 82.0968 6.86616 82.4475V83.7006C6.86616 84.0512 6.5887 84.3355 6.24649 84.3355Z" fill="#96B6FA"/>
<path d="M105.931 12.9161H84.2542C83.8937 12.9161 83.6016 12.6167 83.6016 12.2477V6.82429C83.6016 6.45521 83.8937 6.15625 84.2542 6.15625H105.931C106.292 6.15625 106.584 6.45521 106.584 6.82429V12.2477C106.584 12.6167 106.292 12.9161 105.931 12.9161Z" fill="url(#paint2_linear_2020_146551)"/>
<path d="M86.7383 8.56641H102.155H86.7383Z" fill="url(#paint3_linear_2020_146551)"/>
<path d="M86.7383 8.56641H102.155" stroke="white" stroke-width="0.25558" stroke-miterlimit="10"/>
<path d="M86.7383 10.1914H93.0175H86.7383Z" fill="url(#paint4_linear_2020_146551)"/>
<path d="M86.7383 10.1914H93.0175" stroke="white" stroke-width="0.25558" stroke-miterlimit="10"/>
<path d="M86.1094 12.1562V14.7911L89.3431 12.1562H86.1094Z" fill="url(#paint5_linear_2020_146551)"/>
<path d="M52.679 13.3214H42.1852C41.1659 13.3214 40.3398 12.4747 40.3398 11.4302V1.43352C40.3398 0.641855 40.9662 0 41.7388 0H52.679C53.4515 0 54.0779 0.641855 54.0779 1.43352V11.8876C54.0779 12.6795 53.4515 13.3214 52.679 13.3214Z" fill="url(#paint6_linear_2020_146551)"/>
<path d="M50.4199 7.64026L49.6378 6.83883C49.4981 6.68125 49.3166 6.59536 49.1351 6.59536C48.9534 6.59536 48.7719 6.68103 48.6322 6.82418L48.1849 7.28249L48.1011 7.23944C48.0454 7.2108 48.0036 7.1966 47.9616 7.16797C47.5425 6.89587 47.1654 6.5381 46.8022 6.08001C46.6345 5.8654 46.5089 5.66498 46.4392 5.4932C46.5507 5.3931 46.6486 5.27836 46.7463 5.17827C46.7883 5.13543 46.8301 5.09237 46.8721 5.04954C47.0257 4.89196 47.1095 4.70597 47.1095 4.51977C47.1095 4.33378 47.0257 4.14779 46.8721 3.99021L46.481 3.58939C46.4392 3.54655 46.3972 3.50327 46.3551 3.44623C46.2715 3.36012 46.1736 3.26025 46.0898 3.17436C45.9501 3.0312 45.7686 2.94531 45.5869 2.94531C45.4054 2.94531 45.2375 3.01678 45.084 3.17436L44.5951 3.67528C44.4136 3.86149 44.3018 4.10473 44.2739 4.37661C44.2459 4.80607 44.3577 5.2069 44.4554 5.46457C44.6789 6.12307 45.0279 6.70988 45.5449 7.33975C46.1734 8.09835 46.9137 8.69959 47.7799 9.12905C48.1011 9.2864 48.5484 9.47217 49.0374 9.51522H49.1351C49.4704 9.51522 49.7496 9.38672 49.9729 9.14325L49.987 9.12905C50.0569 9.04315 50.1408 8.95726 50.2387 8.87137C50.2945 8.81411 50.3641 8.74242 50.4199 8.68516C50.7134 8.37045 50.7134 7.94077 50.4199 7.64026ZM50.099 8.38443C50.0431 8.44169 49.987 8.49918 49.9311 8.55644C49.8332 8.64233 49.7496 8.74242 49.6517 8.84252C49.512 8.98567 49.3584 9.05736 49.1488 9.05736H49.0792C48.6601 9.02873 48.269 8.85672 47.9896 8.71357C47.1934 8.31274 46.4946 7.75478 45.9081 7.03924C45.4331 6.45221 45.1121 5.8938 44.8884 5.30699C44.7489 4.96343 44.6928 4.69155 44.7207 4.41967C44.7346 4.26231 44.7907 4.11916 44.9165 4.00464L45.3915 3.51792C45.4333 3.47486 45.5031 3.4176 45.5869 3.4176C45.6707 3.4176 45.7264 3.46066 45.7822 3.51792C45.8661 3.60381 45.9501 3.68948 46.0339 3.77537C46.0759 3.81821 46.1175 3.87569 46.1734 3.91853L46.5646 4.31957C46.6064 4.36241 46.6623 4.4483 46.6623 4.51977C46.6623 4.60566 46.6064 4.67734 46.5646 4.72018L46.4392 4.84913C46.3133 4.97785 46.2016 5.09237 46.0898 5.2069L46.0759 5.22132C45.9362 5.36447 45.964 5.4932 45.9919 5.57909V5.5933C46.0896 5.85097 46.2436 6.08001 46.453 6.36632C46.8442 6.86746 47.2631 7.25364 47.724 7.55415C47.7799 7.5972 47.8498 7.62606 47.9059 7.65447C47.9616 7.68332 48.0036 7.69752 48.0457 7.72615L48.0593 7.74058C48.199 7.81204 48.3387 7.78341 48.4505 7.66889L48.9393 7.16797C48.9811 7.12491 49.0513 7.06765 49.1351 7.06765C49.2049 7.06765 49.2746 7.12491 49.3164 7.16797L50.099 7.9694C50.2248 8.09835 50.2248 8.24128 50.099 8.38443Z" fill="white"/>
<mask id="mask2_2020_146551" style="mask-type:alpha" maskUnits="userSpaceOnUse" x="10" y="16" width="111" height="89">
<path d="M120.881 16.082V104.227H10.418V16.082H120.881Z" fill="#4A90E2"/>
</mask>
<g mask="url(#mask2_2020_146551)">
<path d="M51.7056 63.7501L44.9461 62.828L45.0078 62.0234L37.1017 63.1021C37.1017 63.1021 32.7868 74.9511 36.627 99.5857H42.1254L44.0423 74.6066H44.7451L46.7239 99.5857H52.2226C56.0628 74.9511 51.7056 63.7501 51.7056 63.7501Z" fill="#282828"/>
<path d="M51.1666 30.0498C50.2517 28.9469 49.5192 27.6603 48.8967 25.8548C48.2283 23.9168 46.0401 24.7045 46.0401 24.7045C46.0401 24.7045 44.2166 22.3007 41.4725 23.138C38.7285 23.9752 37.7751 25.9762 37.7192 28.355C37.6631 30.7338 35.8372 31.1057 34.4311 33.8578C31.9487 38.7159 36.1281 42.8081 43.7357 41.6728L43.7459 41.5971C44.4951 41.8304 45.4132 41.9321 46.5341 41.8639C55.6735 41.308 54.7915 34.4196 51.1666 30.0498Z" fill="#282828"/>
<path d="M48.1778 33.656C48.9289 34.3543 50.6086 31.7061 49.8828 30.9626C49.157 30.2193 48.6032 31.3856 48.6032 31.3856L48.2791 32.1761L48.0348 33.2468L47.9766 33.5271L48.1778 33.656Z" fill="#F3968E"/>
<path d="M49.5309 31.9017C49.5309 31.9017 48.9623 31.6396 48.457 32.4843" stroke="#282828" stroke-width="0.215077" stroke-linecap="round" stroke-linejoin="round"/>
<path d="M39.2862 33.5733C38.5953 34.3341 36.7029 31.841 37.3648 31.0373C38.0267 30.2337 38.6746 31.3481 38.6746 31.3481L39.0629 32.1076L39.3947 33.1531L39.4758 33.4274L39.2862 33.5733Z" fill="#F3968E"/>
<path d="M37.7969 31.9422C37.7969 31.9422 38.3418 31.6319 38.9149 32.4298" stroke="#282828" stroke-width="0.215077" stroke-linecap="round" stroke-linejoin="round"/>
<path d="M49.4948 28.4368C49.4948 31.9421 46.8865 33.6044 43.6693 33.6044C40.452 33.6044 37.8438 31.9421 37.8438 28.4368C37.8438 24.9314 40.452 22.5469 43.6693 22.5469C46.8865 22.5469 49.4948 24.9314 49.4948 28.4368Z" fill="#282828"/>
<path d="M46.0423 42.6169H41.25V36.2578H46.0423V42.6169Z" fill="#FFB0A4"/>
<path d="M40.5469 35.8594C40.5469 35.8594 41.8809 38.5875 43.522 39.0134C43.9604 39.1272 44.4287 39.0882 44.8515 38.9346C45.4692 38.7102 46.2524 37.7665 46.3856 36.7225L46.4473 36.1259C46.4473 36.1259 43.527 37.7552 40.5469 35.8594Z" fill="#282828"/>
<path d="M48.7046 28.676C48.7046 30.8279 48.4076 32.6849 48.1115 34.0028C47.8215 35.2932 47.0054 36.1949 45.8522 36.9207L45.6424 37.053C44.4223 37.8211 42.8457 37.8388 41.6068 37.0989C40.3575 36.3523 39.4824 35.3682 39.2132 33.9837C38.7235 31.4651 38.6702 28.676 38.6702 28.676C38.6702 28.676 38.2041 23.2435 43.6157 23.3492C49.0271 23.4546 48.7046 28.676 48.7046 28.676Z" fill="#FFB0A4"/>
<path d="M43.3047 32.0742V32.5208C43.3047 32.5652 43.3131 32.6078 43.3283 32.6468C43.3885 32.8 43.5616 32.8732 43.7182 32.8308L44.0545 32.7398" stroke="#282828" stroke-width="0.26641" stroke-linecap="round" stroke-linejoin="round"/>
<path d="M44.4297 29.1296L47.3086 29.828C47.3086 29.828 47.1778 29.0696 46 28.794C44.8222 28.5186 44.4297 29.1296 44.4297 29.1296Z" fill="#282828"/>
<path d="M42.9201 29.1296L40.0039 29.828C40.0039 29.828 40.1362 29.0696 41.3292 28.794C42.5222 28.5186 42.9201 29.1296 42.9201 29.1296Z" fill="#282828"/>
<path d="M41.5781 33.5977H45.5587C45.5587 33.5977 45.2778 34.7185 43.4727 34.7185C42.0979 34.7185 41.5781 33.5977 41.5781 33.5977Z" fill="white"/>
<path d="M38.737 30.479C38.737 30.479 40.9005 27.4817 40.4015 24.4453C40.4015 24.4453 38.7957 25.2736 38.3775 27.4109C37.9592 29.5482 38.737 30.479 38.737 30.479Z" fill="#282828"/>
<path d="M48.7049 30.3798C48.7049 30.3798 46.1915 27.2786 46.6906 24.2422C46.6906 24.2422 48.4339 25.2742 48.8522 27.4113C49.2702 29.5488 48.7049 30.3798 48.7049 30.3798Z" fill="#282828"/>
<path d="M38.918 25.6447C38.918 25.6447 41.4003 29.0639 49.0013 28.5306C49.0013 28.5306 48.1332 23.6545 44.4496 23.1674C44.4496 23.1674 40.1963 22.6471 38.918 25.6447Z" fill="#282828"/>
<path d="M31.9899 78.7899C31.8794 78.9681 38.3162 50.0918 36.4051 50.5283C36.231 50.5681 32.8838 50.8866 32.3865 51.923C30.9444 54.9272 29.9102 78.5709 29.9102 78.5709L31.9899 78.7899Z" fill="#FFB0A4"/>
<path d="M29.9094 78.5682C29.9094 78.5682 28.8719 83.5011 32.794 84.0402C33.0523 84.0757 33.3021 83.9192 33.3872 83.6669L33.3985 83.6334C33.4922 83.3546 33.356 83.0559 33.0933 82.9356C32.4539 82.6424 31.4619 81.9022 31.954 80.2212C31.954 80.2212 32.521 80.15 32.8338 81.2337C32.9144 81.5125 33.2198 81.6523 33.4732 81.5218C33.646 81.4324 33.7435 81.2419 33.719 81.0449C33.625 80.2858 33.2525 78.459 31.8227 77.9688L29.9094 78.5682Z" fill="#FFB0A4"/>
<path d="M31.2305 58.8621C31.2305 58.8621 34.9392 64.214 34.9587 64.1103C34.9782 64.0071 36.5803 54.4603 36.5803 54.4603L31.8904 53.9609L31.2305 58.8621Z" fill="#F3968E"/>
<path d="M41.5301 41.5683C41.6882 41.5674 32.3643 41.7385 30.6602 53.8026L36.0187 54.6438L37.099 63.7516H52.0477L55.0152 46.924C55.0152 46.924 52.9056 43.2782 46.7561 41.4922L41.5301 41.5683Z" fill="#FFC83C"/>
<path d="M36.9727 43.03C36.9727 43.03 38.29 44.8224 43.689 44.8224C49.038 44.8224 50.4058 42.9361 50.4058 42.9361C50.4058 42.9361 47.2526 41.1308 43.5937 40.5469C43.5937 40.5469 40.3266 41.1432 36.9727 43.03Z" fill="#FFB0A4"/>
<path d="M41.8602 31.0337C41.8602 31.2896 41.6571 31.4971 41.4065 31.4971C41.1561 31.4971 40.9531 31.2896 40.9531 31.0337C40.9531 30.7778 41.1561 30.5703 41.4065 30.5703C41.6571 30.5703 41.8602 30.7778 41.8602 31.0337Z" fill="#282828"/>
<path d="M41.9041 31.0332C41.9041 31.3147 41.6806 31.5429 41.4049 31.5429C41.1295 31.5429 40.9062 31.3147 40.9062 31.0332C40.9062 30.7517 41.1295 30.5234 41.4049 30.5234C41.6806 30.5234 41.9041 30.7517 41.9041 31.0332Z" fill="#FFB1A5"/>
<path d="M46.1532 31.0337C46.1532 31.2896 45.9502 31.4971 45.6996 31.4971C45.449 31.4971 45.2461 31.2896 45.2461 31.0337C45.2461 30.7778 45.449 30.5703 45.6996 30.5703C45.9502 30.5703 46.1532 30.7778 46.1532 31.0337Z" fill="#282828"/>
<path d="M46.2009 31.0332C46.2009 31.3147 45.9777 31.5429 45.702 31.5429C45.4264 31.5429 45.2031 31.3147 45.2031 31.0332C45.2031 30.7517 45.4264 30.5234 45.702 30.5234C45.9777 30.5234 46.2009 30.7517 46.2009 31.0332Z" fill="#FFB1A5"/>
<path d="M102.947 51.9481C102.27 50.8419 98.4707 50.8808 98.2701 50.8568C97.243 50.7334 98.9286 59.109 101.065 66.43C101.475 67.8336 102.982 68.5646 104.298 67.9927C104.313 67.9867 104.327 67.9803 104.341 67.9743C105.382 67.5222 105.975 66.3894 105.765 65.2508C104.749 59.7265 103.729 53.2274 102.947 51.9481Z" fill="#FFB0A4"/>
<path d="M103.849 54.9714L98.9978 56.9003L98.543 54.5417L103.566 53.2578L103.849 54.9714Z" fill="#F3968E"/>
<path d="M105.041 60.7103C105.041 60.7103 102.472 62.8463 102.582 62.7009C102.691 62.5553 104.384 57.5898 104.384 57.5898L105.041 60.7103Z" fill="#F3968E"/>
<path d="M108.829 55.8565L101.599 64.0521C100.65 65.1281 100.8 66.8054 101.924 67.687C103.046 68.5671 104.662 68.2803 105.43 67.0646L111.681 57.1655L108.829 55.8565Z" fill="#FFB0A4"/>
<path d="M110.364 58.2317C108.976 57.6469 108.314 56.0202 108.884 54.598C109.455 53.1756 111.043 52.497 112.431 53.0815C113.819 53.6663 114.481 55.2932 113.911 56.7154C113.34 58.1378 111.752 58.8164 110.364 58.2317Z" fill="#FFB0A4"/>
<path d="M115.276 48.7373L117.933 50.1781C118.08 50.2582 118.122 50.4486 118.026 50.603L113.883 57.2387C113.786 57.3931 113.588 57.4536 113.44 57.3733L110.783 55.9327C110.635 55.8524 110.594 55.6621 110.69 55.5077L114.833 48.8722C114.93 48.7176 115.128 48.6572 115.276 48.7373Z" fill="#372E5F"/>
<path d="M115.026 48.5967L117.683 50.0377C117.831 50.1179 117.872 50.3082 117.776 50.4626L113.633 57.0981C113.536 57.2527 113.338 57.3128 113.19 57.2327L110.533 55.7919C110.385 55.7117 110.344 55.5214 110.441 55.3669L114.584 48.7315C114.68 48.5769 114.878 48.5166 115.026 48.5967Z" fill="#251B43"/>
<path d="M114.663 49.2779L116.997 50.5439L113.621 55.9521L111.286 54.6861L114.663 49.2779Z" fill="#E6E6E6"/>
<path d="M116.998 50.5439L111.287 54.6859L114.663 49.278L116.998 50.5439Z" fill="white"/>
<path d="M113.018 52.7591C111.744 52.1015 110.109 52.0987 108.875 54.5989L109.79 55.5664C110.609 55.5081 111.33 54.6323 111.551 54.3365L113.489 54.1462C113.489 54.1462 114.291 53.4167 113.018 52.7591Z" fill="#FFB0A4"/>
<path d="M98.3322 63.7581L90.4261 62.6797L90.4878 63.4842L83.7281 64.4064C83.7281 64.4064 79.3711 75.6076 83.2111 100.242H88.7098L90.6888 75.2627H91.3916L93.3085 100.242H98.8069C102.647 75.6076 98.3322 63.7581 98.3322 63.7581Z" fill="#8E706C"/>
<path d="M88.168 75.2578H93.9049" stroke="#282828" stroke-width="0.26706" stroke-linecap="round" stroke-linejoin="round"/>
<path d="M92.8931 40.9297C92.735 40.9288 103.061 42.3938 104.765 54.4581L99.4067 55.2995L98.3266 64.4071H83.3779L80.4102 47.5797C80.4102 47.5797 83.7221 42.7159 89.8714 40.9297H92.8931Z" fill="#FED364"/>
<path d="M99.4102 55.2988L99.875 50.0312" stroke="#282828" stroke-width="0.26706" stroke-linecap="round" stroke-linejoin="round"/>
<path d="M93.8767 41.1004V36.9102H89.0843V41.1497C88.8391 41.2247 88.4306 41.3763 87.7969 41.6848L91.5344 43.9661L95.3556 41.6848C95.3556 41.6848 94.7491 41.323 93.8767 41.1004Z" fill="#FFB0A4"/>
<path d="M89.0391 37.4204C89.0391 37.4204 89.8996 39.7621 92.197 39.5599C94.3088 39.3741 93.9726 36.1289 93.9726 36.1289L89.0391 37.4204Z" fill="#282828"/>
<path d="M86.9456 34.3123C86.1942 35.0105 84.5146 32.3623 85.2406 31.6188C85.9664 30.8755 86.52 32.0418 86.52 32.0418L86.844 32.8324L87.0883 33.903L87.1466 34.1833L86.9456 34.3123Z" fill="#F3968E"/>
<path d="M85.5938 32.5541C85.5938 32.5541 86.1621 32.292 86.6672 33.1367" stroke="#282828" stroke-width="0.215077" stroke-linecap="round" stroke-linejoin="round"/>
<path d="M95.8304 34.2297C96.5213 34.9905 98.4135 32.4975 97.7515 31.6936C97.0896 30.8899 96.4418 32.0043 96.4418 32.0043L96.0537 32.7638L95.7216 33.8094L95.6406 34.0837L95.8304 34.2297Z" fill="#F3968E"/>
<path d="M97.3251 32.5946C97.3251 32.5946 96.7801 32.2843 96.207 33.0819" stroke="#282828" stroke-width="0.215077" stroke-linecap="round" stroke-linejoin="round"/>
<path d="M85.6328 29.0891C85.6328 32.5944 88.241 34.2568 91.4583 34.2568C94.6756 34.2568 97.2838 32.5944 97.2838 29.0891C97.2838 25.5838 94.6756 23.1992 91.4583 23.1992C88.241 23.1992 85.6328 25.5838 85.6328 29.0891Z" fill="#282828"/>
<path d="M86.4255 29.332C86.4255 31.484 86.7223 33.341 87.0184 34.6588C87.3084 35.9492 88.1245 36.8512 89.2776 37.5771L89.4875 37.7094C90.7076 38.4773 92.2844 38.4953 93.5233 37.7551C94.7726 37.0088 95.6474 36.0244 95.9167 34.6398C96.4064 32.1214 96.4597 29.332 96.4597 29.332C96.4597 29.332 96.9258 23.8998 91.5144 24.0054C86.1028 24.1111 86.4255 29.332 86.4255 29.332Z" fill="#FFB0A4"/>
<path d="M91.1133 32.4336V33.1853C91.1133 33.2297 91.1213 33.2725 91.1367 33.3116C91.1969 33.4652 91.3699 33.5389 91.5263 33.4962L91.8627 33.4048" stroke="#282828" stroke-width="0.266843" stroke-linecap="round" stroke-linejoin="round"/>
<path d="M90.2561 29.5207L87.5664 30.1668C87.5664 30.1668 87.6888 29.4654 88.7891 29.2106C89.8894 28.9556 90.2561 29.5207 90.2561 29.5207Z" fill="#282828"/>
<path d="M92.6406 29.5207L95.2371 30.1668C95.2371 30.1668 95.1191 29.4654 94.0567 29.2106C92.9945 28.9556 92.6406 29.5207 92.6406 29.5207Z" fill="#282828"/>
<path d="M89.6836 34.3711H93.1811C93.1811 34.3711 91.631 36.3035 89.6836 34.3711Z" fill="white"/>
<path d="M90.9669 31.7225C90.9669 32.814 90.1036 33.6989 89.0384 33.6989C87.9732 33.6989 87.1094 32.814 87.1094 31.7225C87.1094 30.631 87.9732 29.7461 89.0384 29.7461C90.1036 29.7461 90.9669 30.631 90.9669 31.7225Z" stroke="#1E147E" stroke-width="0.290668" stroke-miterlimit="10"/>
<path d="M95.7091 31.7225C95.7091 32.814 94.8458 33.6989 93.7805 33.6989C92.7153 33.6989 91.8516 32.814 91.8516 31.7225C91.8516 30.631 92.7153 29.7461 93.7805 29.7461C94.8458 29.7461 95.7091 30.631 95.7091 31.7225Z" stroke="#1E147E" stroke-width="0.290668" stroke-miterlimit="10"/>
<path d="M90.9688 31.7255C90.9688 31.7255 91.4255 31.2885 91.8494 31.7255" stroke="#1E147E" stroke-width="0.290668" stroke-miterlimit="10"/>
<path d="M87.1117 31.7222L86.5039 31.707" stroke="#1E147E" stroke-width="0.290668" stroke-miterlimit="10"/>
<path d="M95.7031 31.7222L96.3144 31.707" stroke="#1E147E" stroke-width="0.290668" stroke-miterlimit="10"/>
<path d="M96.3918 31.1348C96.3918 31.1348 94.228 28.1379 94.7271 25.1016C94.7271 25.1016 96.3329 25.9296 96.7511 28.0669C97.1696 30.2044 96.3918 31.1348 96.3918 31.1348Z" fill="#282828"/>
<path d="M86.4185 31.3387C86.4185 31.3387 88.9318 27.9348 88.4328 24.8984C88.4328 24.8984 86.6895 25.9305 86.2712 28.0678C85.8532 30.2053 86.4185 31.3387 86.4185 31.3387Z" fill="#282828"/>
<path d="M96.2034 26.2931C96.2034 26.2931 93.4254 29.4096 85.8242 28.8761C85.8242 28.8761 86.9882 24.303 90.6718 23.8158C90.6718 23.8158 94.9253 23.2954 96.2034 26.2931Z" fill="#282828"/>
<path d="M99.6413 22.6559C99.6413 24.7098 98.0164 26.3748 96.0121 26.3748C94.0077 26.3748 92.3828 24.7098 92.3828 22.6559C92.3828 20.6021 94.0077 18.9375 96.0121 18.9375C98.0164 18.9375 99.6413 20.6021 99.6413 22.6559Z" fill="#282828"/>
<path d="M89.6883 31.5376C89.6883 31.7935 89.4852 32.001 89.2346 32.001C88.9842 32.001 88.7812 31.7935 88.7812 31.5376C88.7812 31.2817 88.9842 31.0742 89.2346 31.0742C89.4852 31.0742 89.6883 31.2817 89.6883 31.5376Z" fill="#282828"/>
<path d="M89.7322 31.5371C89.7322 31.8186 89.5087 32.0469 89.233 32.0469C88.9576 32.0469 88.7344 31.8186 88.7344 31.5371C88.7344 31.2556 88.9576 31.0273 89.233 31.0273C89.5087 31.0273 89.7322 31.2556 89.7322 31.5371Z" fill="#FFB1A5"/>
<path d="M93.9813 31.5376C93.9813 31.7935 93.7784 32.001 93.5278 32.001C93.2772 32.001 93.0742 31.7935 93.0742 31.5376C93.0742 31.2817 93.2772 31.0742 93.5278 31.0742C93.7784 31.0742 93.9813 31.2817 93.9813 31.5376Z" fill="#282828"/>
<path d="M94.0291 31.5371C94.0291 31.8186 93.8058 32.0469 93.5302 32.0469C93.2545 32.0469 93.0312 31.8186 93.0312 31.5371C93.0312 31.2556 93.2545 31.0273 93.5302 31.0273C93.8058 31.0273 94.0291 31.2556 94.0291 31.5371Z" fill="#FFB1A5"/>
<path d="M80.9364 66.6096C80.9364 66.6096 85.2295 66.2067 88.1648 64.2226L88.0875 62.4766L80.9336 63.4751L80.9364 66.6096Z" fill="#F3968E"/>
<path d="M32.8605 49.2736L43.37 61.2421C43.37 61.2421 49.493 67.4626 45.7947 71.0562C42.6782 73.2395 40.5275 70.3 40.5275 70.3C40.5275 70.3 32.4911 59.5484 28.7756 51.1612C28.7756 51.1612 28.5552 49.9634 30.3615 49.1213C32.1823 48.2725 32.8605 49.2736 32.8605 49.2736Z" fill="#FFB0A4"/>
<path d="M33.8306 51.2436C33.8698 52.5802 32.8441 53.6967 31.5395 53.7369C30.2349 53.7772 29.1455 52.7259 29.1062 51.3893C29.067 50.0524 30.0927 48.9361 31.3973 48.8959C32.7019 48.8557 33.7913 49.9068 33.8306 51.2436Z" fill="#FFB0A4"/>
<path d="M33.0627 49.6507C33.0627 49.6507 33.3814 51.2148 31.707 51.903C30.1807 52.5307 29.2195 51.745 28.746 51.431C27.0388 50.2999 25.2581 45.6863 25.2581 45.6863C25.2581 45.6863 31.6322 42.4235 31.5802 42.5301C31.5278 42.637 33.0627 49.6507 33.0627 49.6507Z" fill="#FFB0A4"/>
<path d="M33.0634 49.6481C32.9639 49.2887 33.9445 45.1964 34.268 43.6664C34.346 43.2975 34.0663 42.9315 33.6808 42.8972C33.4297 42.8749 33.043 42.9472 32.8951 43.3284L31.5248 46.4176L33.0634 49.6481Z" fill="#FFB0A4"/>
<path d="M32.5137 45.3941L30.7858 39.6923C30.6791 39.3119 30.2722 39.0851 29.9005 39.1986C29.579 39.2967 29.3925 39.6192 29.4652 39.9522L30.3992 44.2349L32.5137 45.3941Z" fill="#FFB0A4"/>
<path d="M30.0243 43.4904L28.0549 39.4965C27.8901 39.1461 27.4698 38.9866 27.1289 39.1451C26.8334 39.2825 26.6934 39.6167 26.7986 39.9336L28.4329 44.6165L30.0243 43.4904Z" fill="#FFB0A4"/>
<path d="M28.4862 44.8912L26.1129 41.0137C25.8948 40.6534 25.4287 40.5246 25.0776 40.7273C24.7475 40.9178 24.6349 41.335 24.8196 41.6839L26.7719 45.3756L28.4862 44.8912Z" fill="#FFB0A4"/>
<path d="M25.2601 45.6857L23.4685 43.3459C23.3113 43.065 23.3959 42.7223 23.6618 42.5625C23.9162 42.4092 24.2558 42.4725 24.4543 42.7104L26.7686 45.3749L25.2601 45.6857Z" fill="#FFB0A4"/>
<path d="M31.1156 45.6787C31.1156 45.6787 28.9184 46.4966 30.0596 49.4579" stroke="#282828" stroke-width="0.331821" stroke-linecap="round" stroke-linejoin="round"/>
<path d="M41.092 63.5619C39.1865 65.8876 38.7546 68.8208 41.0018 70.8005C41.8098 71.512 43.0495 72.0839 44.1881 71.8006C47.9833 70.8565 53.8029 62.538 53.8029 62.538L52.319 48.3336L42.1659 62.0275L41.092 63.5619Z" fill="#FFB0A4"/>
<path d="M45.0642 57.7107C45.0642 57.7107 48.7314 63.242 51.8291 65.1719L53.8134 62.5443L45.9788 56.4776L45.0642 57.7107Z" fill="#F3968E"/>
<path d="M60.8383 41.1601C60.8383 41.1601 50.2557 43.6259 44.637 56.2448C44.637 56.2448 48.0554 61.5013 53.5245 63.8301L57.1748 59.2302L60.8383 41.1601Z" fill="#5D3393"/>
<path d="M55.3281 81.2422L55.3396 103.133H67.0372L67.8494 81.2422H55.3281Z" fill="#272448"/>
<path d="M68.0234 81.2422L68.8357 103.133H80.533L80.5447 81.2422H68.0234Z" fill="#272448"/>
<path d="M74.1976 89.6009H62.1875V81.2422H74.1976V89.6009Z" fill="#272448"/>
<path d="M63.8711 89.6016H72.1549" stroke="#282828" stroke-width="0.302581" stroke-linecap="round" stroke-linejoin="round"/>
<path d="M87.8892 60.25C88.6093 68.4028 87.8495 74.3428 88.0596 89.3445L81.1269 89.6422L80.0938 61.5617L87.8892 60.25Z" fill="#FFB0A4"/>
<path d="M74.0586 41.4727C74.0586 41.4727 87.6951 44.9867 90.1658 62.7229C90.1658 62.7229 83.4917 65.6878 76.8033 64.4125L78.3082 58.4805L74.0586 41.4727Z" fill="#5D3393"/>
<path d="M60.8452 41.1293C56.7096 43.303 54.1094 46.1858 54.1094 46.1858L54.9253 83.0412H80.9878L80.9031 46.3758C80.9031 46.3758 77.618 43.0818 74.0574 41.4758C71.0336 40.1117 63.7853 39.5842 60.8452 41.1293Z" fill="#5D3393"/>
<path d="M76.0385 57.1734C74.9451 57.1734 74.0586 56.2652 74.0586 55.1448V52.9805H78.0184V55.1448C78.0184 56.2652 77.1318 57.1734 76.0385 57.1734Z" stroke="#282828" stroke-width="0.216594" stroke-miterlimit="10"/>
<path d="M80.9453 64.5524L81.2832 52.4961" stroke="#282828" stroke-width="0.302581" stroke-linecap="round" stroke-linejoin="round"/>
<path d="M54.5085 62.5406L53.9453 52.0898" stroke="#282828" stroke-width="0.302581" stroke-linecap="round" stroke-linejoin="round"/>
<path d="M61.1475 27.6625L60.0609 22.1553C59.9998 21.7067 59.83 21.0145 60.0379 20.364C60.3821 19.2878 61.6468 17.2211 63.8084 18.1672L64.2756 20.3478C64.2756 20.3478 62.031 20.8121 61.1306 23.8212L61.1475 27.6625Z" fill="#282828"/>
<path d="M63.6535 19.3086C63.614 20.0323 62.9907 23.1986 60.7994 24.352C60.7994 24.352 58.8797 20.134 63.6535 19.3086Z" fill="#282828"/>
<path d="M71.3358 40.1174V30.7656H62.9224V40.1174L60.418 41.2872C60.418 41.2872 61.0054 45.1632 67.2173 45.2493C73.4294 45.3352 74.0534 41.4781 74.0534 41.4781L71.3358 40.1174Z" fill="#FFB0A4"/>
<path d="M63.8047 18.1713C63.8047 18.1713 65.3488 13.9975 70.1102 16.2164C72.9919 17.5594 73.7992 19.36 74.1425 20.636C74.2566 21.0599 74.3021 21.7275 74.2711 22.1241L73.1193 27.6669L68.623 19.9981L64.2719 20.3519L63.8047 18.1713Z" fill="#282828"/>
<path d="M73.1245 27.6699C73.1245 27.6699 73.6917 26.7452 74.8618 27.2C76.0316 27.6548 75.5024 30.566 73.7474 30.9371C73.7474 30.9371 73.1184 31.0775 72.625 30.6363C72.625 30.6363 73.0567 28.4859 73.1245 27.6699Z" fill="#F3968E"/>
<path d="M74.6287 28.224C74.6287 28.224 73.6488 27.8889 72.9531 29.3677" stroke="#282828" stroke-width="0.302581" stroke-linecap="round" stroke-linejoin="round"/>
<path d="M61.1474 27.6699C61.1474 27.6699 60.5799 26.7452 59.4101 27.2C58.2402 27.6548 58.7696 30.566 60.5244 30.9371C60.5244 30.9371 61.1534 31.0775 61.6468 30.6363C61.6468 30.6363 61.2151 28.4859 61.1474 27.6699Z" fill="#F3968E"/>
<path d="M59.6445 28.224C59.6445 28.224 60.6244 27.8889 61.3201 29.3677" stroke="#282828" stroke-width="0.302581" stroke-linecap="round" stroke-linejoin="round"/>
<path d="M73.2473 24.9013C73.248 26.6564 73.0799 30.3284 72.0268 32.5077C71.0383 34.554 69.403 35.6552 67.2594 35.7209C65.1156 35.7864 63.5186 34.9397 62.2388 32.2842C60.9589 29.6284 61.02 24.9339 61.02 24.9339C61.02 24.9339 61.02 18.6641 67.0673 18.6641C73.4364 18.6641 73.2473 24.9013 73.2473 24.9013Z" fill="#FFB0A4"/>
<path d="M62.9883 33.5938C62.9883 33.5938 63.6926 37.2569 66.804 37.6779C70.3845 38.1622 71.3384 33.6867 71.3384 33.6867C71.3384 33.6867 69.7562 35.7184 67.2539 35.7215C64.4633 35.7253 62.9883 33.5938 62.9883 33.5938Z" fill="#282828"/>
<path d="M66.6992 27.5078V28.9591C66.6992 29.0215 66.7109 29.0809 66.7324 29.1358C66.8162 29.3508 67.0577 29.4538 67.276 29.3943L67.7454 29.2663" stroke="#282828" stroke-width="0.302581" stroke-linecap="round" stroke-linejoin="round"/>
<path d="M68.1133 24.0081L71.8144 24.9882C71.8144 24.9882 71.6461 23.9242 70.1319 23.5376C68.6177 23.1512 68.1133 24.0081 68.1133 24.0081Z" fill="#282828"/>
<path d="M65.8149 24.0081L62.1133 24.9882C62.1133 24.9882 62.2816 23.9242 63.7958 23.5376C65.31 23.1512 65.8149 24.0081 65.8149 24.0081Z" fill="#282828"/>
<path d="M65.0703 30.4219C65.0703 30.4219 65.6163 30.8507 67.0521 30.8507C68.358 30.8507 69.1735 30.4219 69.1735 30.4219" stroke="#282828" stroke-width="0.302581" stroke-linecap="round" stroke-linejoin="round"/>
<path d="M66.5539 26.9829C66.5539 28.3068 65.5064 29.3799 64.2144 29.3799C62.9224 29.3799 61.875 28.3068 61.875 26.9829C61.875 25.659 62.9224 24.5859 64.2144 24.5859C65.5064 24.5859 66.5539 25.659 66.5539 26.9829Z" stroke="white" stroke-width="0.422574" stroke-miterlimit="10"/>
<path d="M72.2999 26.9829C72.2999 28.3068 71.2525 29.3799 69.9605 29.3799C68.6685 29.3799 67.6211 28.3068 67.6211 26.9829C67.6211 25.659 68.6685 24.5859 69.9605 24.5859C71.2525 24.5859 72.2999 25.659 72.2999 26.9829Z" stroke="white" stroke-width="0.422574" stroke-miterlimit="10"/>
<path d="M66.5469 26.9815C66.5469 26.9815 67.1009 26.4518 67.6151 26.9815" stroke="white" stroke-width="0.422574" stroke-miterlimit="10"/>
<path d="M61.8743 26.9809L61.0898 26.9609" stroke="white" stroke-width="0.422574" stroke-miterlimit="10"/>
<path d="M72.3047 26.9826L73.1802 26.9688" stroke="white" stroke-width="0.422574" stroke-miterlimit="10"/>
<path d="M62.9883 19.4562C62.9883 19.4562 64.1118 22.7267 69.1809 22.6264C72.6254 22.5583 73.4484 25.1122 73.4484 25.1122C73.4484 25.1122 72.8489 19.4023 72.6915 19.4562C72.5338 19.5101 67.4501 18.0664 67.4501 18.0664L62.9883 19.4562Z" fill="#282828"/>
<path d="M64.9058 26.8181C64.9058 27.1295 64.6591 27.3823 64.3551 27.3823C64.0512 27.3823 63.8047 27.1295 63.8047 26.8181C63.8047 26.5065 64.0512 26.2539 64.3551 26.2539C64.6591 26.2539 64.9058 26.5065 64.9058 26.8181Z" fill="#282828"/>
<path d="M64.9652 26.812C64.9652 27.1545 64.6938 27.4326 64.3593 27.4326C64.025 27.4326 63.7539 27.1545 63.7539 26.812C63.7539 26.4692 64.025 26.1914 64.3593 26.1914C64.6938 26.1914 64.9652 26.4692 64.9652 26.812Z" fill="#FFB1A5"/>
<path d="M70.066 26.8181C70.066 27.1295 69.8193 27.3823 69.5154 27.3823C69.2115 27.3823 68.9648 27.1295 68.9648 26.8181C68.9648 26.5065 69.2115 26.2539 69.5154 26.2539C69.8193 26.2539 70.066 26.5065 70.066 26.8181Z" fill="#282828"/>
<path d="M70.1253 26.812C70.1253 27.1545 69.854 27.4326 69.5197 27.4326C69.1854 27.4326 68.9141 27.1545 68.9141 26.812C68.9141 26.4692 69.1854 26.1914 69.5197 26.1914C69.854 26.1914 70.1253 26.4692 70.1253 26.812Z" fill="#FFB1A5"/>
</g>
<path d="M23.0925 12.918H1" stroke="#1E147E" stroke-width="1.73275" stroke-linecap="round"/>
<defs>
<linearGradient id="paint0_linear_2020_146551" x1="131.524" y1="44.889" x2="114.625" y2="42.7552" gradientUnits="userSpaceOnUse">
<stop stop-color="#400789"/>
<stop offset="1" stop-color="#9E64E7"/>
</linearGradient>
<linearGradient id="paint1_linear_2020_146551" x1="19.9648" y1="67.3694" x2="3.40089" y2="65.5421" gradientUnits="userSpaceOnUse">
<stop stop-color="#400789"/>
<stop offset="1" stop-color="#9E64E7"/>
</linearGradient>
<linearGradient id="paint2_linear_2020_146551" x1="106.584" y1="12.9161" x2="84.6982" y2="4.7396" gradientUnits="userSpaceOnUse">
<stop stop-color="#400789"/>
<stop offset="1" stop-color="#9E64E7"/>
</linearGradient>
<linearGradient id="paint3_linear_2020_146551" x1="102.155" y1="9.56641" x2="97.832" y2="2.24273" gradientUnits="userSpaceOnUse">
<stop stop-color="#400789"/>
<stop offset="1" stop-color="#9E64E7"/>
</linearGradient>
<linearGradient id="paint4_linear_2020_146551" x1="93.0175" y1="11.1914" x2="88.4012" y2="8.00605" gradientUnits="userSpaceOnUse">
<stop stop-color="#400789"/>
<stop offset="1" stop-color="#9E64E7"/>
</linearGradient>
<linearGradient id="paint5_linear_2020_146551" x1="89.3431" y1="14.7911" x2="85.8965" y2="14.3263" gradientUnits="userSpaceOnUse">
<stop stop-color="#400789"/>
<stop offset="1" stop-color="#9E64E7"/>
</linearGradient>
<linearGradient id="paint6_linear_2020_146551" x1="54.0779" y1="13.3214" x2="39.3584" y2="11.6532" gradientUnits="userSpaceOnUse">
<stop stop-color="#400789"/>
<stop offset="1" stop-color="#9E64E7"/>
</linearGradient>
</defs>
</svg>
