<svg width="60" height="60" viewBox="0 0 60 60" fill="none" xmlns="http://www.w3.org/2000/svg">
<g filter="url(#filter0_d_2265_152340)">
<path d="M27 40H33C38 40 40 38 40 33V27C40 22 38 20 33 20H27C22 20 20 22 20 27V33C20 38 22 40 27 40Z" stroke="white" stroke-width="1.5" stroke-linecap="round" stroke-linejoin="round"/>
<path d="M30 33.5C31.933 33.5 33.5 31.933 33.5 30C33.5 28.067 31.933 26.5 30 26.5C28.067 26.5 26.5 28.067 26.5 30C26.5 31.933 28.067 33.5 30 33.5Z" stroke="white" stroke-width="1.5" stroke-linecap="round" stroke-linejoin="round"/>
<path d="M35.6361 25H35.6477" stroke="white" stroke-width="2" stroke-linecap="round" stroke-linejoin="round"/>
</g>
<rect x="0.65" y="0.65" width="58.7" height="58.7" rx="29.35" stroke="white" stroke-width="1.3"/>
<defs>
<filter id="filter0_d_2265_152340" x="8" y="8" width="44" height="44" filterUnits="userSpaceOnUse" color-interpolation-filters="sRGB">
<feFlood flood-opacity="0" result="BackgroundImageFix"/>
<feColorMatrix in="SourceAlpha" type="matrix" values="0 0 0 0 0 0 0 0 0 0 0 0 0 0 0 0 0 0 127 0" result="hardAlpha"/>
<feOffset/>
<feGaussianBlur stdDeviation="5"/>
<feComposite in2="hardAlpha" operator="out"/>
<feColorMatrix type="matrix" values="0 0 0 0 0.874856 0 0 0 0 0.874856 0 0 0 0 0.874856 0 0 0 1 0"/>
<feBlend mode="normal" in2="BackgroundImageFix" result="effect1_dropShadow_2265_152340"/>
<feBlend mode="normal" in="SourceGraphic" in2="effect1_dropShadow_2265_152340" result="shape"/>
</filter>
</defs>
</svg>
