<svg width="70" height="70" viewBox="0 0 70 70" fill="none" xmlns="http://www.w3.org/2000/svg">
<g filter="url(#filter0_d_2265_152340)">
<path d="M32 45H38C43 45 45 43 45 38V32C45 27 43 25 38 25H32C27 25 25 27 25 32V38C25 43 27 45 32 45Z" stroke="white" stroke-width="1.5" stroke-linecap="round" stroke-linejoin="round"/>
<path d="M35 38.5C36.933 38.5 38.5 36.933 38.5 35C38.5 33.067 36.933 31.5 35 31.5C33.067 31.5 31.5 33.067 31.5 35C31.5 36.933 33.067 38.5 35 38.5Z" stroke="white" stroke-width="1.5" stroke-linecap="round" stroke-linejoin="round"/>
<path d="M40.6361 30H40.6477" stroke="white" stroke-width="2" stroke-linecap="round" stroke-linejoin="round"/>
</g>
<rect x="6" y="6" width="58" height="58" rx="29" stroke="white" stroke-width="2"/>
<defs>
<filter id="filter0_d_2265_152340" x="-1" y="-1" width="72" height="72" filterUnits="userSpaceOnUse" color-interpolation-filters="sRGB">
<feFlood flood-opacity="0" result="BackgroundImageFix"/>
<feColorMatrix in="SourceAlpha" type="matrix" values="0 0 0 0 0 0 0 0 0 0 0 0 0 0 0 0 0 0 127 0" result="hardAlpha"/>
<feOffset/>
<feGaussianBlur stdDeviation="12"/>
<feComposite in2="hardAlpha" operator="out"/>
<feColorMatrix type="matrix" values="0 0 0 0 0.949856 0 0 0 0 0.949856 0 0 0 0 0.949856 0 0 0 1 0"/>
<feBlend mode="normal" in2="BackgroundImageFix" result="effect1_dropShadow_2265_152340"/>
<feBlend mode="normal" in="SourceGraphic" in2="effect1_dropShadow_2265_152340" result="shape"/>
</filter>
</defs>
</svg>
