<svg width="196" height="142" viewBox="0 0 196 142" fill="none" xmlns="http://www.w3.org/2000/svg">
<g filter="url(#filter0_f_2020_141307)">
<path d="M10.8703 108.773C10.8703 108.773 3.45248 112.324 4.0323 113.773C5.46118 117.346 84.0483 137.451 84.0483 137.451L145.592 125.612C145.592 125.612 176.211 143.677 187.846 134.186L152.634 106.016L12.4011 108.773" fill="#504C55"/>
</g>
<path d="M9.59255 95.0801C9.59255 95.0801 2.14655 99.85 5.28253 108.677C6.14657 111.111 8.19186 112.939 10.6755 113.646L75.9284 132.213C79.2107 133.147 82.6842 133.184 85.9857 132.32L150.015 115.574L148.042 98.5716L115.403 96.9017L18.3979 92.1953L9.59255 95.0801Z" fill="url(#paint0_linear_2020_141307)"/>
<path d="M87.1412 115.47C83.1088 116.428 80.0454 119.855 79.784 123.991C79.7558 124.441 79.7588 124.902 79.802 125.371C79.8068 125.421 79.8116 125.471 79.8163 125.52C80.1797 128.969 83.5603 131.265 86.9176 130.393L147.433 114.668L146.066 101.461L87.1412 115.47Z" fill="#EEEDE8"/>
<path d="M12.403 77.9981C12.403 77.9981 4.60983 81.8212 5.56562 90.2944C6.02012 94.3244 9.04877 97.5935 12.9858 98.5654L79.1226 114.887L146.981 99.1752L143.338 79.8197L91.8746 67.5234L12.403 77.9981Z" fill="url(#paint1_linear_2020_141307)"/>
<path d="M16.4309 81.4677L77.2995 96.6847L144.247 83.7049C144.247 83.7049 141.287 95.5461 146.069 97.1404L79.8041 111.713L14.5427 96.2458C10.2519 95.2289 7.40192 91.0244 8.26296 86.7C8.29654 86.5315 8.33372 86.3624 8.37569 86.1915C9.24573 82.6658 12.9076 80.5863 16.4309 81.4677Z" fill="white"/>
<path d="M79.805 111.711C79.805 111.711 75.0231 107.841 77.3004 96.683L144.247 83.7031L143.792 85.8659L79.805 111.711Z" fill="#EEEDE8"/>
<path d="M79.8027 111.706L144.815 96.3359L144.132 95.5391L80.0306 110.568L79.8027 111.706Z" fill="#EEEDE8"/>
<path d="M134.757 73.2319C135.971 68.8295 128.077 51.9786 123.22 43.629C119.593 37.3954 112.069 28.2033 97.6876 25.1441C92.8068 24.1055 87.1392 23.7704 80.5615 24.5013C53.95 27.458 45.3648 43.6679 44.1374 46.3014C44.0282 46.5365 43.9761 46.6654 43.9761 46.6654L40.9396 48.1836C40.5463 48.3839 40.1703 48.5938 39.8033 48.8078C35.7434 45.5939 30.2557 45.5909 30.2557 45.5909C27.8315 50.2187 30.4266 56.5494 31.4795 58.7506C28.479 67.0427 31.2241 75.9643 31.2241 75.9643C32.894 85.5282 40.3322 85.5288 40.3322 85.5288L66.1396 86.8947L134.757 81.4298C140.982 81.4298 133.543 77.6342 134.757 73.2319Z" fill="#333333"/>
<path d="M29.3965 71.4858C29.3546 71.2891 29.3288 71.1812 29.3288 71.1812L29.2856 71.0391C24.4131 72.1609 15.0598 75.4132 12.4029 84.1604C10.2826 91.1399 14.8787 91.2412 18.0764 90.7412C20.4263 90.3742 22.4998 89.0437 23.9269 87.1411C25.0967 85.5839 27.0616 83.5842 29.9374 82.4989C31.0419 79.6495 29.7185 72.9902 29.3965 71.4858Z" fill="url(#paint2_linear_2020_141307)"/>
<path d="M35.0217 81.7265C43.8264 82.1817 32.2892 70.4922 32.2892 70.4922C32.2892 70.4922 31.093 70.6175 29.2852 71.0336L29.3289 71.1757C29.3289 71.1757 29.3535 71.2843 29.3961 71.481C29.7175 72.9854 31.0414 79.6447 29.9369 82.4941C31.3934 81.9448 33.0789 81.6258 35.0217 81.7265Z" fill="#333333"/>
<path d="M33.7689 61.1573L34.6797 57.628C34.6797 57.628 29.6699 49.4301 32.8575 46.1286L32.9528 45.8785C31.3656 45.5865 30.2575 45.5859 30.2575 45.5859C27.8333 50.2138 30.429 56.5433 31.4814 58.7445C28.4809 67.0365 30.6941 76.1105 30.6941 76.1105C33.1231 85.2186 40.3346 85.5226 40.3346 85.5226L41.9638 85.6089C36.6686 82.9754 30.7079 76.5985 33.7689 61.1573Z" fill="#333333"/>
<path d="M97.689 25.1435C92.8081 24.1056 87.1406 23.7704 80.5628 24.5013C53.9519 27.458 45.3661 43.6686 44.1387 46.3021L48.3797 44.5404C48.3797 44.5404 64.2473 21.3821 97.689 25.1435Z" fill="#F1C615"/>
<path d="M131.719 70.8696C131.724 70.8588 132.563 65.4341 132.997 68.1995C133.074 68.6876 144.067 69.5204 151.341 80.3573C158.779 91.4399 167.001 110.434 170.621 113.3C176.085 117.627 187.054 120.635 190.469 121.801C196.694 123.926 197.756 135.008 185.763 135.615C175.904 136.115 161.664 134.516 153.77 124.799C147.09 116.578 141.962 99.9814 140.357 89.3101C139.577 84.1324 135.78 81.0786 129.29 81.6482C129.218 81.6542 126.74 81.9606 126.672 81.9894C126.644 82.0014 125.181 81.5631 125.191 81.5337L131.719 70.8696Z" fill="url(#paint3_linear_2020_141307)"/>
<path d="M134.759 73.2258C135.974 68.8235 130.663 52.9757 125.805 44.6267C122.425 38.8164 113.074 29.436 100.527 25.8462C59.0228 22.1579 49.823 44.6482 49.823 44.6482L44.1326 46.311C44.0289 46.5346 43.9785 46.6593 43.9785 46.6593L40.9421 48.1776C40.5487 48.3778 40.1728 48.5877 39.8058 48.8018C37.5687 47.0311 34.8998 46.2366 32.9528 45.8787L32.8581 46.1281C29.6706 49.4296 34.6797 57.6281 34.6797 57.6281L33.7695 61.1568C30.7079 76.5987 36.6692 82.9749 41.9644 85.6085L46.0676 85.8255L66.142 86.8886L134.759 81.4237C140.984 81.4237 133.545 77.6282 134.759 73.2258Z" fill="url(#paint4_linear_2020_141307)"/>
<path d="M100.525 25.8516C99.6101 25.5896 98.6651 25.3516 97.6877 25.1435C92.8069 24.1056 87.1399 23.7704 80.5622 24.5013C53.9507 27.458 45.3649 43.668 44.1375 46.3015C44.1351 46.3075 44.1333 46.3111 44.1309 46.3171L49.8212 44.6543C49.8212 44.6543 59.0211 22.1628 100.525 25.8516Z" fill="#333333"/>
<path d="M43.959 46.6101C45.4628 45.6657 47.0968 44.945 48.7877 44.4108C50.4768 43.8603 52.2301 43.5089 54.0055 43.3033C55.7852 43.1336 57.5936 43.157 59.3691 43.4232C61.1469 43.6876 62.8702 44.3034 64.4112 45.1669L64.3788 45.2502C62.7383 44.6716 61.0366 44.2746 59.3025 44.1205C57.5702 43.9874 55.8259 44.0024 54.0961 44.1901C52.3668 44.3706 50.6501 44.674 48.9604 45.0919C47.2736 45.5158 45.6037 46.0315 43.995 46.6917L43.959 46.6101Z" fill="#333333"/>
<path d="M62.8474 72.114C59.9411 72.114 57.8166 69.8246 57.7861 69.7911C57.6505 69.6418 57.6619 69.4109 57.8112 69.2748C57.9611 69.1387 58.192 69.1501 58.3281 69.3C58.4864 69.4739 62.261 73.5165 66.5098 69.875C66.6639 69.7431 66.8948 69.7617 67.0261 69.9146C67.158 70.0681 67.14 70.3001 66.9865 70.4314C65.5313 71.6792 64.115 72.114 62.8474 72.114Z" fill="#333333"/>
<path d="M43.0594 69.9674C40.0038 69.9674 37.7702 67.5606 37.7384 67.5258C37.5957 67.3687 37.6077 67.1253 37.7642 66.9825C37.9219 66.8404 38.1648 66.8512 38.3081 67.0083C38.4748 67.1912 42.4424 71.4431 46.9101 67.6133C47.0714 67.4748 47.3143 67.494 47.4528 67.6553C47.5913 67.8166 47.5727 68.0594 47.4108 68.198C45.8806 69.5093 44.3917 69.9674 43.0594 69.9674Z" fill="#333333"/>
<path d="M50.5787 77.394C50.3808 77.4732 49.8957 77.4438 49.7308 77.3095C48.7745 76.5276 45.6637 73.8365 46.8959 72.8687C48.3445 71.7301 54.2429 72.5581 54.6567 73.7999C54.6567 73.7999 55.4476 75.4435 50.5787 77.394Z" fill="#4D4D4D"/>
<path d="M75.0597 59.968C75.0267 59.968 74.9931 59.9644 74.9596 59.9566C74.7197 59.902 74.5698 59.6628 74.6244 59.4223C76.5144 51.1794 73.8035 46.9294 73.1547 46.0611C66.7934 46.7711 62.8222 54.5565 62.782 54.6362C62.6717 54.8563 62.4049 54.945 62.1836 54.8353C61.9635 54.7249 61.8748 54.4575 61.9845 54.2369C62.1578 53.8903 66.3137 45.7325 73.3142 45.1491C73.4575 45.1419 73.5894 45.1917 73.6824 45.2948C73.8485 45.4783 77.7214 49.9053 75.4944 59.6214C75.4471 59.8283 75.263 59.968 75.0597 59.968Z" fill="#333333"/>
<path d="M69.1789 84.4675C69.1789 84.4675 55.9718 90.084 57.9451 103.14C57.9451 103.14 60.3742 109.971 69.634 103.443C78.8944 96.916 77.7558 88.528 98.0983 85.6439L110.509 83.2532C110.509 83.2532 94.6823 73.5371 69.1789 84.4675Z" fill="url(#paint5_linear_2020_141307)"/>
<path d="M65.3066 86.7387C65.3066 86.7387 76.9955 77.1749 85.7247 77.2504C85.7247 77.2504 74.4909 80.5141 65.3066 86.7387Z" fill="#333333"/>
<path d="M51.7213 80.2122C51.7213 80.4851 51.0072 80.7057 50.1264 80.7057C49.2467 80.7057 48.5332 80.4851 48.5332 80.2122C48.5332 79.94 49.2467 79.7188 50.1264 79.7188C51.0072 79.7188 51.7213 79.94 51.7213 80.2122Z" fill="#9951F4"/>
<path d="M38.4648 34.7254L38.7179 33.5082L43.1658 28.2916H39.5657L39.8344 27H45.4054L45.1727 28.2124L40.678 33.4614C41.1559 33.4506 41.4317 33.4452 41.5055 33.4452C41.8431 33.4452 42.3084 33.4416 42.902 33.4351H44.7254L44.4568 34.7254H38.4648Z" fill="url(#paint6_linear_2020_141307)"/>
<path d="M46.0098 13.3054L46.4451 11.2086L54.1057 2.22337H47.9063L48.3692 0H57.9625L57.5631 2.08726L49.8209 11.127C50.6436 11.109 51.1191 11.1 51.2462 11.1C51.8272 11.1 52.6289 11.0941 53.6512 11.0821H56.7914L56.3285 13.3054H46.0098Z" fill="url(#paint7_linear_2020_141307)"/>
<defs>
<filter id="filter0_f_2020_141307" x="0" y="102.016" width="191.846" height="39.4375" filterUnits="userSpaceOnUse" color-interpolation-filters="sRGB">
<feFlood flood-opacity="0" result="BackgroundImageFix"/>
<feBlend mode="normal" in="SourceGraphic" in2="BackgroundImageFix" result="shape"/>
<feGaussianBlur stdDeviation="2" result="effect1_foregroundBlur_2020_141307"/>
</filter>
<linearGradient id="paint0_linear_2020_141307" x1="150.015" y1="132.941" x2="13.1846" y2="79.2473" gradientUnits="userSpaceOnUse">
<stop stop-color="#400789"/>
<stop offset="1" stop-color="#9E64E7"/>
</linearGradient>
<linearGradient id="paint1_linear_2020_141307" x1="76.2326" y1="67.5234" x2="76.2326" y2="114.887" gradientUnits="userSpaceOnUse">
<stop stop-color="#509FFF"/>
<stop offset="0.401042" stop-color="#3C87E2"/>
<stop offset="1" stop-color="#03418C"/>
</linearGradient>
<linearGradient id="paint2_linear_2020_141307" x1="11.8633" y1="80.979" x2="30.3695" y2="80.979" gradientUnits="userSpaceOnUse">
<stop offset="0.0208333" stop-color="#767676"/>
<stop offset="0.473958" stop-color="#A9A9A9"/>
<stop offset="1" stop-color="#D2D2D2"/>
</linearGradient>
<linearGradient id="paint3_linear_2020_141307" x1="125.191" y1="101.555" x2="195.017" y2="101.555" gradientUnits="userSpaceOnUse">
<stop offset="0.0208333" stop-color="#767676"/>
<stop offset="0.473958" stop-color="#A9A9A9"/>
<stop offset="1" stop-color="#D2D2D2"/>
</linearGradient>
<linearGradient id="paint4_linear_2020_141307" x1="31.7969" y1="56.1631" x2="137.275" y2="56.1631" gradientUnits="userSpaceOnUse">
<stop offset="0.0208333" stop-color="#767676"/>
<stop offset="0.473958" stop-color="#A9A9A9"/>
<stop offset="1" stop-color="#D2D2D2"/>
</linearGradient>
<linearGradient id="paint5_linear_2020_141307" x1="57.7441" y1="92.7708" x2="110.509" y2="92.7708" gradientUnits="userSpaceOnUse">
<stop offset="0.0208333" stop-color="#767676"/>
<stop offset="0.473958" stop-color="#A9A9A9"/>
<stop offset="1" stop-color="#D2D2D2"/>
</linearGradient>
<linearGradient id="paint6_linear_2020_141307" x1="45.4054" y1="34.7254" x2="37.9462" y2="33.989" gradientUnits="userSpaceOnUse">
<stop stop-color="#400789"/>
<stop offset="1" stop-color="#9E64E7"/>
</linearGradient>
<linearGradient id="paint7_linear_2020_141307" x1="57.9625" y1="13.3054" x2="45.1165" y2="12.0373" gradientUnits="userSpaceOnUse">
<stop stop-color="#400789"/>
<stop offset="1" stop-color="#9E64E7"/>
</linearGradient>
</defs>
</svg>
