<svg width="53" height="46" viewBox="0 0 53 46" fill="none" xmlns="http://www.w3.org/2000/svg">
<path d="M35.4911 6.32681C31.4461 2.247 26.1089 0 20.4623 0C18.2375 0 13.0053 0.29374 12.4722 3.01478L12.4026 3.37013L12.5338 3.70794C12.8881 4.62297 13.5194 4.87238 13.8965 5.02138C13.9867 5.05694 14.0643 5.08774 14.147 5.12881C18.2583 7.16446 20.7127 11.1917 20.7127 15.9015C20.7127 22.4605 15.208 27.7964 8.44219 27.7964C6.679 27.7964 5.5396 27.4646 4.16706 26.8914C4.08292 26.8563 3.99502 26.812 3.90211 26.7654C3.60136 26.6142 3.18942 26.4073 2.65703 26.4071C2.29168 26.4071 1.92782 26.506 1.57573 26.7008L1.21813 26.8987L1.04635 27.269C0.60561 28.2179 0.926898 29.4269 1.27373 30.2743C2.82481 34.0634 5.43918 37.1981 8.8336 39.3397C12.1842 41.4537 16.2485 42.5711 20.5875 42.5711C32.2554 42.5711 41.7478 33.0787 41.7478 21.4107C41.7478 15.753 39.5258 10.3961 35.4911 6.32681Z" fill="#E6E6E6"/>
<path d="M37.5077 20.6386C38.1465 16.6362 37.7386 12.8098 36.4725 9.38809C32.8053 4.47464 26.9804 1.25 20.4622 1.25C17.646 1.25 13.9829 1.81294 13.7009 3.25334C13.91 3.79325 14.187 3.74917 14.7026 4.0046C19.094 6.17898 21.9647 10.557 21.9647 15.8995C21.9647 23.2986 15.8413 29.0464 8.44217 29.0464C6.56704 29.0464 5.29241 28.7161 3.68423 28.0447C3.28105 27.8765 2.99733 27.6568 2.65651 27.6568C2.51252 27.6568 2.35901 27.6962 2.18172 27.7943C1.9348 28.3257 2.19574 29.2204 2.43213 29.7977C3.7571 33.0341 5.8571 35.6717 8.51404 37.6042C9.58908 37.9976 10.7403 38.2926 12.1045 38.5105C24.1376 40.4304 35.5877 32.6717 37.5077 20.6386Z" fill="#F9F9F9"/>
<path d="M40.4967 21.4028C40.4967 21.088 40.4874 20.7752 40.4724 20.4637C40.4679 20.3633 40.4599 20.2639 40.4533 20.1637C40.4401 19.9499 40.4243 19.7362 40.4043 19.5241C40.3935 19.4105 40.3815 19.2978 40.3687 19.1848C40.3459 18.9817 40.3199 18.7794 40.2911 18.5781C40.2753 18.4694 40.2605 18.3604 40.243 18.2523C40.2064 18.0241 40.1649 17.7975 40.1205 17.5716C40.1055 17.496 40.0932 17.4196 40.0775 17.3443C40.0161 17.0498 39.9483 16.7578 39.8739 16.4678C39.8506 16.3771 39.8238 16.2877 39.7998 16.1976C39.7447 15.9953 39.6881 15.7937 39.6272 15.5938C39.5924 15.4794 39.5551 15.3662 39.5185 15.2525C39.4612 15.0767 39.4021 14.9022 39.3405 14.7284C39.2989 14.6119 39.2573 14.4955 39.2138 14.3801C39.1474 14.2045 39.078 14.0307 39.0072 13.8574C38.9636 13.7513 38.922 13.6446 38.8767 13.5392C38.7693 13.2882 38.6568 13.0398 38.5396 12.7939C38.4948 12.7003 38.4467 12.6081 38.4007 12.5152C38.3088 12.3299 38.2159 12.1453 38.1182 11.9633C38.0571 11.8493 37.9932 11.7369 37.9301 11.6242C37.848 11.4777 37.7651 11.3317 37.6795 11.1872C37.6101 11.0703 37.5392 10.9543 37.4676 10.8389C37.381 10.6992 37.2918 10.5607 37.2019 10.4229C37.129 10.3113 37.0567 10.1998 36.9816 10.0899C36.8776 9.93764 36.7702 9.78839 36.6625 9.63914C36.5972 9.54874 36.5341 9.45659 36.4672 9.36719C36.4694 9.3732 36.4714 9.37946 36.4737 9.38547C37.7396 12.8072 38.1472 16.6343 37.5084 20.6365C35.5885 32.6698 24.1389 40.428 12.1055 38.5081C10.7415 38.2902 9.59007 37.9955 8.51502 37.6021C8.51327 37.6013 8.51152 37.6008 8.50977 37.6001C8.52279 37.6096 8.53656 37.6181 8.54958 37.6279C8.7379 37.7638 8.92796 37.8971 9.12179 38.026C9.13681 38.036 9.15209 38.0458 9.16711 38.0558C9.36044 38.1838 9.55651 38.308 9.75509 38.4292C9.77788 38.4427 9.80042 38.4565 9.82321 38.4703C10.0173 38.5872 10.2139 38.7012 10.4129 38.8111C10.4375 38.8246 10.462 38.8384 10.4866 38.8519C10.6892 38.9628 10.8937 39.0698 11.1008 39.1734C11.1209 39.1835 11.1404 39.1935 11.1604 39.2032C11.3826 39.3134 11.6069 39.4199 11.8346 39.5215C11.8388 39.5235 11.8433 39.5258 11.8476 39.5275C12.1651 39.6698 12.4882 39.802 12.8157 39.9275C13.2196 40.0825 13.6303 40.2262 14.0485 40.3559C14.0643 40.3609 14.0803 40.3649 14.0961 40.3699C14.322 40.4391 14.5498 40.5049 14.7797 40.5665C14.8388 40.5823 14.8984 40.5971 14.9578 40.6123C15.1456 40.6614 15.3342 40.7083 15.5247 40.7521C15.6034 40.7704 15.6827 40.7871 15.7621 40.8044C15.9349 40.842 16.1085 40.8783 16.2835 40.9118C16.3739 40.9291 16.465 40.9457 16.5559 40.9619C16.722 40.9915 16.8885 41.019 17.0563 41.0451C17.1539 41.0603 17.2516 41.0749 17.3498 41.0889C17.5143 41.1119 17.6798 41.133 17.8459 41.1525C17.9465 41.1645 18.0469 41.1765 18.1479 41.1871C18.3164 41.2048 18.4862 41.2194 18.6565 41.2334C18.7556 41.2414 18.8543 41.2507 18.954 41.2577C19.1378 41.2702 19.3233 41.2792 19.5086 41.2875C19.595 41.2912 19.6804 41.297 19.7671 41.3C20.0393 41.3093 20.3127 41.3145 20.5884 41.3145C21.6192 41.3145 22.6313 41.2364 23.62 41.0851C23.9495 41.0348 24.2766 40.9765 24.6004 40.9101C25.2482 40.7776 25.8848 40.6133 26.5083 40.4195C27.1316 40.2257 27.7419 40.0018 28.3374 39.7502C28.8319 39.5408 29.314 39.3079 29.787 39.0605C30.0472 38.9248 30.3036 38.783 30.5571 38.636C31.7969 37.9171 32.9546 37.0722 34.0063 36.1118C34.4656 35.6924 34.9061 35.2526 35.3248 34.7921C36.1817 33.8496 36.9492 32.8241 37.6141 31.7295C37.8906 31.2748 38.1445 30.8052 38.3841 30.3279C38.4983 30.1005 38.6078 29.8707 38.7134 29.6383C39.0703 28.854 39.3783 28.0431 39.633 27.2087C39.7349 26.8749 39.8283 26.5376 39.9129 26.1965C39.9976 25.8557 40.0735 25.5111 40.1401 25.1636C40.2402 24.6422 40.3201 24.1136 40.3785 23.5784C40.4566 22.865 40.4967 22.1403 40.4967 21.406V21.4028Z" fill="#E6E6E6"/>
<path d="M52.2272 25.9595C51.7378 25.9595 50.7829 26.1841 49.2848 26.4292C48.182 24.751 47.5334 23.9375 47.1051 23.9375C46.5932 23.9375 46.3962 25.1003 46.1143 27.3353C42.4903 28.5794 42.1705 28.4319 45.9574 30.3714C46.1778 32.5754 46.2161 33.6449 46.6734 33.6449C47.0622 33.6449 47.7541 32.8732 49.1198 31.3693C50.525 31.861 51.4353 32.141 51.9426 32.141C52.8901 32.141 52.4289 31.1644 51.1507 28.7722C52.5656 26.5829 53.0434 25.9595 52.2272 25.9595Z" fill="#E6E6E6"/>
<path d="M3.97704 41.9817C3.95256 39.1986 3.66329 39.3785 1.98543 41.3778C-0.362518 40.7988 -0.481739 40.6114 0.863747 42.9349C-0.0024627 44.6279 -0.327923 45.091 0.631161 44.9313C1.42046 44.3695 2.34229 44.1409 2.97485 43.6278C3.55259 43.1592 3.85969 42.3963 4.20085 42.0783C4.1282 42.0474 4.05395 42.0152 3.97704 41.9817Z" fill="#F9F9F9"/>
<path d="M4.2025 42.0781C3.84697 42.4094 1.39151 44.3912 0.632812 44.9312C0.977966 44.8737 1.48811 44.7361 2.20157 44.5456C3.85708 46.6724 3.95235 46.4818 4.16737 43.8627C6.48685 42.815 6.33463 42.988 4.2025 42.0781Z" fill="#E6E6E6"/>
<path d="M14.3843 16.2398C13.1868 13.9817 13.0188 14.2549 12.4489 16.6191C10.2236 17.1741 10.0438 17.0734 12.1614 18.3788C12.1413 20.7713 12.0004 20.8732 13.9696 19.1073C16.265 20.1162 16.2645 19.9197 15.3387 17.6904C16.9033 15.758 16.7919 16.0457 14.3843 16.2398Z" fill="#E6E6E6"/>
<path d="M14.3826 16.2398C13.1851 13.9817 13.0169 14.2549 12.4469 16.6191C10.2217 17.1741 10.0419 17.0734 12.1594 18.3788C12.1527 19.1752 12.1341 19.7123 12.1832 20.0168C13.3474 18.5499 14.3561 17.0489 14.8547 16.1982C14.7074 16.212 14.5524 16.226 14.3826 16.2398Z" fill="#F9F9F9"/>
<path d="M7.36198 9.35605C7.20396 8.53869 7.08552 8.16406 6.90622 8.16406C6.72667 8.16406 6.48601 8.54019 6.08259 9.22383C5.6997 9.20405 5.40872 9.18276 5.20613 9.18276C4.6179 9.18276 4.77065 9.36131 5.56773 10.2668C5.28801 11.1558 5.13726 11.5267 5.39444 11.5267C5.45054 11.5267 5.52817 11.5074 5.62608 11.4738C6.1765 11.0161 6.7149 10.9149 7.05296 10.5946C7.12934 10.5222 7.42608 10.1804 7.48869 10.1181C7.7038 9.90397 7.58109 9.64879 7.72558 9.43268C7.61365 9.40964 7.49495 9.38535 7.36198 9.35605Z" fill="#F9F9F9"/>
<path d="M7.72646 9.42969C7.58197 9.64605 7.40793 9.86216 7.19257 10.0763C6.85325 10.4138 6.30208 10.9099 5.62695 11.4708C5.83154 11.4002 6.13155 11.2607 6.55801 11.0627C7.08965 11.5199 7.39991 11.7586 7.5692 11.7586C7.79457 11.7586 7.76903 11.3349 7.68163 10.4399C8.90968 9.61124 8.90818 9.67034 7.72646 9.42969Z" fill="#E6E6E6"/>
</svg>
