<svg width="322" height="219" viewBox="0 0 322 219" fill="none" xmlns="http://www.w3.org/2000/svg">
<path d="M21.2089 94.5615C24.2131 94.5615 26.6523 97.0007 26.6523 100.005C26.6523 103.009 24.2131 105.448 21.2089 105.448C18.2048 105.448 15.7656 103.009 15.7656 100.005C15.7656 97.0007 18.2048 94.5615 21.2089 94.5615Z" fill="#B3C3C6"/>
<path d="M271.603 138.105C274.608 138.105 277.047 140.545 277.047 143.549C277.047 146.553 274.608 148.992 271.603 148.992C268.599 148.992 266.16 146.553 266.16 143.549C266.16 140.545 268.599 138.105 271.603 138.105Z" fill="#B3C3C6"/>
<path d="M223.967 22.4365C226.971 22.4365 229.41 24.8757 229.41 27.8798C229.41 30.884 226.971 33.3232 223.967 33.3232C220.963 33.3232 218.523 30.884 218.523 27.8798C218.523 24.8757 220.963 22.4365 223.967 22.4365Z" stroke="#B3C1C6" stroke-width="1.36083"/>
<g opacity="0.862372">
<path d="M74.2022 47.6452C75.0942 51.9249 72.3437 56.124 68.0639 57.016C63.7842 57.908 59.5851 55.1574 58.6931 50.8777C57.8011 46.598 60.5517 42.3989 64.8314 41.5069C69.1111 40.6149 73.3102 43.3654 74.2022 47.6452Z" stroke="#B3C1C6" stroke-width="1.3202"/>
<path d="M46.5803 155.761L35.2103 159.211L34.827 157.948L46.197 154.498L46.5803 155.761ZM42.8686 161.716L41.6052 162.099L38.5388 151.993L39.8021 151.609L42.8686 161.716Z" fill="#CAD4D6"/>
<path d="M301.518 95.4443L291.533 101.886L290.818 100.776L300.802 94.3349L301.518 95.4443ZM299.585 102.19L298.476 102.906L292.75 94.0307L293.859 93.315L299.585 102.19Z" fill="#CAD4D6"/>
<path d="M158.387 39.3805L158.001 51.256L156.681 51.2131L157.067 39.3376L158.387 39.3805ZM162.834 44.8086L162.791 46.1281L152.235 45.785L152.278 44.4655L162.834 44.8086Z" fill="#CAD4D6"/>
</g>
<path d="M175.019 130.632L198.889 154.502L185.835 167.556L161.965 143.686L175.019 130.632Z" fill="#D7D7D7"/>
<path d="M199.083 145.721L228.189 174.827C231.136 177.774 231.136 182.559 228.189 185.506L216.391 197.304C213.444 200.251 208.659 200.251 205.712 197.304L176.606 168.198C173.658 165.251 173.658 160.466 176.605 157.519L188.403 145.721C191.35 142.774 196.136 142.774 199.083 145.721Z" fill="#969696"/>
<path d="M178.857 141.578C197.537 122.796 197.518 92.3314 178.824 73.5296C160.13 54.7279 129.83 54.7181 111.157 73.499C92.4769 92.2805 92.489 122.746 111.19 141.539C129.883 160.341 160.177 160.359 178.857 141.578Z" fill="#DBDBDB"/>
<path d="M116.831 80.81C131.565 66.0755 155.503 66.0871 170.252 80.8359C185.001 95.5847 185.012 119.523 170.278 134.257C155.543 148.992 131.605 148.98 116.856 134.231C102.108 119.483 102.096 95.5445 116.831 80.81Z" fill="white"/>
<g opacity="0.92">
<path d="M132.927 96.5146C134.754 96.5146 136.238 99.3417 136.238 102.824C136.238 106.305 134.754 109.132 132.927 109.132C131.101 109.132 129.617 106.305 129.617 102.824C129.617 99.3417 131.101 96.5146 132.927 96.5146Z" fill="#575757"/>
</g>
<g opacity="0.92">
<path d="M153.814 96.5137C155.641 96.5137 157.124 99.3407 157.124 102.823C157.124 106.304 155.641 109.131 153.814 109.131C151.987 109.131 150.504 106.304 150.504 102.823C150.504 99.3407 151.987 96.5137 153.814 96.5137Z" fill="#575757"/>
</g>
<g opacity="0.133025">
<path d="M187.268 86.8989C190.87 86.8989 193.79 84.7647 193.79 82.1305C193.79 79.4962 187.268 73.1299 187.268 73.1299C187.268 73.1299 180.746 79.4962 180.746 82.1305C180.746 84.7647 183.667 86.8989 187.268 86.8989Z" fill="url(#paint0_linear_1736_143905)"/>
</g>
<path d="M151.501 121.275C141.315 116.183 133.151 121.86 134.492 121.569C140.357 120.298 151.892 121.471 151.501 121.275Z" fill="#748394"/>
<path d="M139.182 201.253C147.369 201.253 154.016 202.375 154.016 203.757C154.016 205.139 147.369 206.26 139.182 206.26C130.995 206.26 124.348 205.139 124.348 203.757C124.348 202.375 130.995 201.253 139.182 201.253Z" fill="#D8DBDF"/>
<defs>
<linearGradient id="paint0_linear_1736_143905" x1="187.275" y1="76.6678" x2="190.967" y2="86.8989" gradientUnits="userSpaceOnUse">
<stop stop-color="#B0F9FF"/>
<stop offset="0.5" stop-color="#B6F3FE"/>
<stop offset="1" stop-color="#BCEEFD"/>
</linearGradient>
</defs>
</svg>
