<svg width="26" height="25" viewBox="0 0 26 25" fill="none" xmlns="http://www.w3.org/2000/svg">
<path d="M13.9609 9.87133L13.1376 9.04798C12.8018 8.71215 12.8018 8.15964 13.1376 7.82381L13.9609 7.00047C14.1018 6.85963 14.2155 6.58338 14.2155 6.38838V5.22378C14.2155 4.74712 14.6055 4.35713 15.0822 4.35713H16.2468C16.4418 4.35713 16.718 4.2434 16.8589 4.10256L17.6822 3.27922C18.018 2.94339 18.5705 2.94339 18.9064 3.27922L19.7297 4.10256C19.8705 4.2434 20.1468 4.35713 20.3418 4.35713H21.5064C21.983 4.35713 22.373 4.74712 22.373 5.22378V6.38838C22.373 6.58338 22.4868 6.85963 22.6276 7.00047L23.451 7.82381C23.7868 8.15964 23.7868 8.71215 23.451 9.04798L22.6276 9.87133C22.4868 10.0122 22.373 10.2884 22.373 10.4834V11.6479C22.373 12.1246 21.983 12.5147 21.5064 12.5147H20.3418C20.1468 12.5147 19.8705 12.6284 19.7297 12.7692L18.9064 13.5926C18.5705 13.9284 18.018 13.9284 17.6822 13.5926L16.8589 12.7692C16.718 12.6284 16.4418 12.5147 16.2468 12.5147H15.0822C14.6055 12.5147 14.2155 12.1246 14.2155 11.6479V10.4834C14.2155 10.283 14.1018 10.0067 13.9609 9.87133Z" stroke="#B3B3B3" stroke-width="1.2" stroke-linecap="round" stroke-linejoin="round"/>
<path d="M16.6748 10.0547L19.9248 6.80469" stroke="#B3B3B3" stroke-width="0.8125" stroke-linecap="round" stroke-linejoin="round"/>
<path d="M19.6507 9.78451H19.6555" stroke="#B3B3B3" stroke-width="1.08333" stroke-linecap="round" stroke-linejoin="round"/>
<path d="M16.9427 7.07552H16.9475" stroke="#B3B3B3" stroke-width="1.08333" stroke-linecap="round" stroke-linejoin="round"/>
<path d="M4.99628 20.7734V21.0759C4.99628 21.4901 4.66049 21.8259 4.24628 21.8259H1.9502C1.53598 21.8259 1.2002 21.4901 1.2002 21.0759V13.7422C1.2002 13.328 1.53598 12.9922 1.9502 12.9922H4.24628C4.66049 12.9922 4.99628 13.328 4.99628 13.7422V15.3898M4.99628 20.7734C6.08909 20.0832 8.90969 19.1928 11.4496 21.153C12.7437 21.9237 15.8807 22.9268 18.0755 20.7734L24.4771 16.011C24.3793 15.4876 23.8386 14.5547 22.4583 15.0102L19.0935 16.9255L18.6622 17.0526M4.99628 20.7734V15.3898M4.99628 15.3898C5.83602 14.1417 8.4093 12.3944 11.9845 15.3898H16.9367C17.4885 15.6246 18.3752 16.2113 18.6622 17.0526M13.3649 18.1679H18.6622C18.7955 17.7601 18.776 17.3863 18.6622 17.0526" stroke="#B3B3B3" stroke-width="1.5" stroke-linecap="round" stroke-linejoin="round"/>
</svg>
