<svg width="87" height="87" viewBox="0 0 87 87" fill="none" xmlns="http://www.w3.org/2000/svg">
<g filter="url(#filter0_f_1122_101500)">
<path d="M81.4376 79.3401C81.4376 81.8018 63.8535 83.7976 42.1623 83.7976C20.471 83.7976 2.88672 81.8018 2.88672 79.3401C2.88672 76.8784 20.471 74.8828 42.1623 74.8828C63.8535 74.8828 81.4376 76.8784 81.4376 79.3401Z" fill="#B3B3B3"/>
</g>
<path d="M12.472 79.1401L57.8584 79.3354C68.8898 70.6731 70.0289 57.8394 62.1592 50.0604C57.396 45.3549 51.348 46.3044 45.5887 45.5559C45.5832 45.5559 45.5776 45.5531 45.5721 45.5531C43.566 45.2917 41.5986 44.8239 39.7303 43.8387C33.8005 40.7102 30.4571 33.3301 25.4682 27.1223C24.8463 26.3435 24.197 25.5868 23.5146 24.8575C19.4118 20.4769 11.2462 20.3343 6.9752 26.493C-3.87716 42.1417 1.09412 65.4332 12.472 79.1401Z" fill="#DCDCDC"/>
<path d="M11.4624 43.343C12.6511 61.9637 34.1555 68.9143 47.5865 63.3367C59.2647 58.4855 55.4426 47.4156 45.5861 45.5637C45.5807 45.5637 45.575 45.5609 45.5695 45.5609C43.5635 45.2995 41.596 44.8317 39.7277 43.8465C33.7979 40.7179 30.4546 33.3379 25.4656 27.1301C18.0333 23.2695 10.5902 29.7083 11.4624 43.343Z" fill="#C8C8C8"/>
<path d="M49.1858 77.8971C48.5574 77.6668 34.3629 66.3225 34.0948 65.5477C33.9917 65.2544 35.5232 63.0908 37.4482 60.529C37.8637 59.9757 38.2963 59.4069 38.7389 58.8318C41.6075 55.0941 44.7384 51.1953 44.7384 51.1953L54.2558 58.7564L47.9942 66.1847L46.621 67.8164C46.621 67.8164 50.113 74.5905 50.3157 75.4718C50.5153 76.3507 49.8143 78.1275 49.1858 77.8971Z" fill="#FFD2BF"/>
<path d="M49.1857 77.8935C48.5573 77.6632 34.3628 66.3188 34.0947 65.5441C33.9708 65.1863 36.2572 62.0665 38.7388 58.8281L47.9941 66.1811L46.6209 67.8128C46.6209 67.8128 50.1129 74.5869 50.3156 75.4681C50.5152 76.3471 49.8142 78.1238 49.1857 77.8935Z" fill="white"/>
<path d="M49.1858 77.9072C48.5574 77.6769 34.3629 66.3326 34.0948 65.5578C33.9917 65.2645 35.5232 63.1009 37.4482 60.5391L46.621 67.8265C46.621 67.8265 50.113 74.6006 50.3157 75.4819C50.5153 76.3608 49.8143 78.1376 49.1858 77.9072Z" fill="url(#paint0_linear_1122_101500)"/>
<path d="M49.4303 77.1776C47.0975 75.2175 37.5038 67.5319 35.0488 65.7717C35.0288 65.7574 35.0185 65.7707 35.037 65.7868C37.3068 67.7801 46.9623 75.3876 49.3992 77.2166C49.4507 77.2552 49.4797 77.2189 49.4303 77.1776Z" fill="#1A2E35"/>
<path d="M49.8067 74.2435C49.2608 73.7696 48.495 73.597 47.9188 73.687C47.3651 73.7738 46.7493 74.0255 46.3718 74.5324C46.3608 74.5469 46.3867 74.5681 46.4005 74.5553C47.2805 73.7328 48.7812 73.5919 49.783 74.2735C49.8031 74.2871 49.8254 74.2596 49.8067 74.2435Z" fill="#1A2E35"/>
<path d="M47.35 68.8043C46.4081 68.0299 45.0355 67.4836 43.8212 67.7895C43.7742 67.8013 43.7916 67.8682 43.8315 67.8762C45.0473 68.1204 46.1299 68.4438 47.2727 68.9347C47.3534 68.9693 47.4174 68.8597 47.35 68.8043Z" fill="#1A2E35"/>
<path d="M47.856 69.6715C46.9141 68.8971 45.5413 68.3508 44.327 68.6567C44.28 68.6687 44.2976 68.7352 44.3375 68.7432C45.553 68.9874 46.6359 69.3108 47.7787 69.8017C47.8594 69.8363 47.9234 69.7269 47.856 69.6715Z" fill="#1A2E35"/>
<path d="M48.3619 70.5543C47.42 69.7799 46.0472 69.2336 44.8329 69.5395C44.7859 69.5513 44.8033 69.6182 44.8432 69.6262C46.0588 69.8704 47.1418 70.1938 48.2847 70.6847C48.3651 70.7193 48.4293 70.6097 48.3619 70.5543Z" fill="#1A2E35"/>
<path d="M48.8697 71.4213C47.9279 70.6469 46.5549 70.1008 45.3407 70.4067C45.2936 70.4185 45.3113 70.4852 45.3512 70.4932C46.5667 70.7374 47.6495 71.0608 48.7924 71.5517C48.873 71.5863 48.9371 71.4767 48.8697 71.4213Z" fill="#1A2E35"/>
<path d="M37.4618 63.9934C36.3908 63.1426 35.0667 64.8056 36.1394 65.6579C37.2105 66.5087 38.5346 64.8457 37.4618 63.9934Z" fill="#1A2E35"/>
<path d="M50.4112 67.0828C50.2487 66.2979 49.3292 66.2032 48.7001 66.3807C47.6816 66.6681 46.5977 67.3461 45.8884 68.1245C45.871 68.1438 45.8798 68.1639 45.8964 68.1753C45.8622 68.2597 45.897 68.3815 46.0062 68.389C47.059 68.4619 48.1756 68.6704 49.2196 68.418C49.8289 68.2706 50.5649 67.8253 50.4112 67.0828ZM47.6251 68.1732C47.1065 68.1499 46.592 68.1014 46.0726 68.0972C46.6218 67.7585 47.1537 67.398 47.737 67.1149C48.0152 66.9799 48.3037 66.8466 48.5983 66.7506C49.0567 66.6013 50.6277 66.5524 49.8942 67.6644C49.4901 68.2775 48.2435 68.2009 47.6251 68.1732Z" fill="#1A2E35"/>
<path d="M43.2425 66.5843C43.9698 67.3744 45.014 67.8219 45.9297 68.3466C46.0246 68.401 46.1212 68.3195 46.1397 68.2301C46.1596 68.2298 46.1785 68.2177 46.1747 68.192C46.0179 67.1506 45.494 65.9846 44.807 65.1794C44.3828 64.6822 43.5656 64.2498 42.9941 64.8119C42.4534 65.3436 42.8179 66.123 43.2425 66.5843ZM43.1008 65.5827C43.1094 64.2507 44.3877 65.1649 44.6858 65.5437C44.8773 65.7872 45.043 66.0581 45.1992 66.3252C45.5265 66.8848 45.7684 67.4802 46.0368 68.0671C45.6028 67.7818 45.1482 67.5361 44.7041 67.2671C44.1748 66.9465 43.0959 66.317 43.1008 65.5827Z" fill="#1A2E35"/>
<path d="M63.8686 44.1917C63.8503 45.6151 62.4299 48.2114 60.4811 51.1132C56.7333 56.6999 51.0305 63.4106 49.6225 65.0477C49.4148 65.289 49.3018 65.4202 49.3018 65.4202L39.222 57.6742L39.3381 57.5245L48.2144 45.9023L21.7383 45.7465L31.7904 37.9302C31.7904 37.9302 32.606 38.4005 34.3013 38.1532C40.1446 37.2979 53.3186 35.4042 56.4249 35.5293C60.4324 35.6942 63.9297 39.616 63.8686 44.1917Z" fill="#375A64"/>
<path d="M60.4809 51.1093C56.7332 56.696 51.0303 63.4067 49.6223 65.0438L39.3379 57.5206L48.2142 45.8984L60.4809 51.1093Z" fill="#1A2E35"/>
<path d="M51.4016 41.5907C51.0575 41.9393 50.7824 42.3754 50.486 42.7643C50.1723 43.1756 49.8535 43.5829 49.5402 43.9947C49.5371 43.9987 49.5342 44.0029 49.531 44.0071C49.5866 43.8866 49.641 43.7652 49.6988 43.6457C49.8966 43.2363 50.0547 42.8132 50.2886 42.4216C50.3029 42.3976 50.2663 42.3752 50.2516 42.3989C50.0114 42.7878 49.7326 43.1573 49.5268 43.5666C49.43 43.7593 49.3383 43.954 49.2528 44.152C49.206 44.2603 49.1581 44.3689 49.1161 44.4793C49.097 44.5297 49.0726 44.5832 49.0584 44.6376C48.9179 44.8285 48.7795 45.0208 48.6447 45.2159C48.3459 45.6488 48.082 46.1064 47.7794 46.536C47.7633 46.5591 47.7998 46.5803 47.8164 46.5584C48.1227 46.1547 48.466 45.7782 48.7772 45.3774C49.0938 44.9694 49.3947 44.5501 49.6914 44.1274C49.981 43.715 50.2644 43.2984 50.5536 42.8858C50.8448 42.4703 51.1904 42.0604 51.4266 41.6109C51.4348 41.5954 51.4153 41.5771 51.4016 41.5907Z" fill="#1A2E35"/>
<path d="M25.3788 26.8573C27.2551 29.1683 34.0662 35.7723 38.32 36.7417C40.6641 37.2759 51.991 38.8601 53.5435 37.4479C55.3617 35.7937 54.5184 29.5574 53.073 29.5005C48.6613 29.327 40.4967 30.1904 38.4573 29.74C37.5347 29.5364 32.6447 26.3826 27.4229 23.8596C25.4483 22.9055 24.1018 25.2844 25.3788 26.8573Z" fill="#FFD2BF"/>
<path d="M51.3185 28.9396C51.3185 28.9396 51.2938 29.1804 51.2522 29.5898C51.2467 29.6562 51.2413 29.7282 51.2329 29.803C51.2079 30.0381 51.1802 30.3149 51.1497 30.6193C51.147 30.6552 51.1413 30.6914 51.1386 30.7273C51.1136 30.9817 51.0861 31.2528 51.0556 31.5407C51.0472 31.6098 51.0391 31.6818 51.0336 31.7538C51.0059 32.0167 50.9754 32.2907 50.9477 32.5702C50.9423 32.6061 50.9393 32.6422 50.9366 32.6781C50.9061 32.9464 50.8786 33.2202 50.8482 33.4943C50.8398 33.5633 50.8314 33.6356 50.8259 33.7046C50.7955 33.9787 50.765 34.2527 50.7346 34.521C50.7291 34.5569 50.7262 34.593 50.7207 34.6289C50.6903 34.9057 50.6599 35.1797 50.6294 35.4453C50.621 35.5173 50.613 35.5864 50.6046 35.6555C50.5826 35.8298 50.5631 36.0013 50.5437 36.1674C50.5299 36.2699 50.516 36.3723 50.5049 36.4719C50.4994 36.5078 50.4967 36.5439 50.4912 36.5798C50.4719 36.7347 50.4524 36.8842 50.4331 37.0281C50.4165 37.1553 50.3999 37.2798 50.386 37.3962C50.3722 37.4682 50.364 37.54 50.3529 37.6063C50.2974 37.9855 50.2504 38.2705 50.2088 38.4227C50.1977 38.4752 50.1841 38.5113 50.1729 38.5306C50.1645 38.5418 50.1591 38.5472 50.1536 38.5472C50.1425 38.5445 50.0927 38.539 50.0125 38.5306C49.9212 38.5195 49.7883 38.5058 49.6194 38.4893C49.5531 38.4838 49.4838 38.4754 49.4063 38.467C49.2707 38.4531 49.1187 38.4393 48.9526 38.4227C48.8392 38.4116 48.7201 38.3979 48.5929 38.3868C48.557 38.3813 48.5211 38.3784 48.4822 38.3757C48.2332 38.3507 47.9592 38.3232 47.6686 38.2927C47.5995 38.2843 47.5275 38.2789 47.4555 38.2705C47.1981 38.2455 46.9243 38.218 46.6421 38.1875C46.6061 38.1848 46.57 38.1791 46.5312 38.1764C46.2683 38.1487 45.9972 38.1212 45.7178 38.0907C45.6487 38.0823 45.5767 38.0769 45.5046 38.0685C45.239 38.0408 44.965 38.0105 44.691 37.9801C44.6551 37.9774 44.6162 37.9744 44.5803 37.969C44.312 37.9385 44.0409 37.9081 43.7669 37.8803C43.6978 37.8719 43.6258 37.864 43.5538 37.8556C43.2825 37.8251 43.0114 37.7945 42.7402 37.7613C42.7013 37.7586 42.6654 37.7531 42.6295 37.7504C42.3555 37.7172 42.0842 37.6865 41.8159 37.6534C41.7468 37.645 41.675 37.637 41.603 37.6286C41.5448 37.6202 41.4866 37.6118 41.4285 37.6063C41.2126 37.5786 40.9997 37.5511 40.7893 37.5261C40.7534 37.5207 40.7146 37.515 40.6787 37.5123C40.3992 37.4764 40.1279 37.4402 39.865 37.4043C39.8457 37.4016 39.8291 37.3989 39.8125 37.3962C39.7571 37.3907 39.7046 37.3823 39.6521 37.3739C39.3699 37.335 39.0959 37.2966 38.8385 37.2578C38.7996 37.2523 38.7637 37.2467 38.7278 37.2412C38.4345 37.1969 38.1632 37.1526 37.9142 37.1083C37.8394 37.0972 37.7701 37.0835 37.7011 37.0696C37.38 37.0115 37.1035 36.9563 36.8876 36.9008C36.8488 36.8924 36.8101 36.8815 36.777 36.8731C36.7577 36.8677 36.7381 36.862 36.7188 36.8565C36.5307 36.804 36.3121 36.7098 36.0658 36.5798C36.0326 36.5632 35.9965 36.5466 35.9633 36.5273C35.9302 36.5107 35.897 36.4912 35.8638 36.4719C35.8279 36.4525 35.7891 36.4303 35.7502 36.4082C35.4985 36.2587 35.2274 36.0845 34.9368 35.8825C34.9009 35.8604 34.8648 35.8327 34.8259 35.805C34.7568 35.758 34.6878 35.708 34.6157 35.6555C34.5217 35.5891 34.4247 35.5173 34.3251 35.4453C34.2227 35.3678 34.1177 35.2901 34.0125 35.2099C33.9434 35.1545 33.8714 35.0993 33.7994 35.0468C33.6278 34.9111 33.4536 34.7728 33.2736 34.6289C33.2293 34.5958 33.185 34.5569 33.138 34.521C33.0882 34.4794 33.0382 34.4408 32.9857 34.3965C32.9498 34.3688 32.9139 34.3383 32.8751 34.3052C32.828 34.2663 32.7783 34.2277 32.7285 34.1861C32.5404 34.0284 32.3466 33.8707 32.1557 33.7046C32.1253 33.6797 32.0921 33.6549 32.0617 33.6244C32.0092 33.5829 31.9592 33.5386 31.9067 33.4943L31.8485 33.4445C31.5772 33.2121 31.3062 32.9769 31.0349 32.7361C31.0128 32.7167 30.9906 32.6974 30.9685 32.6781C30.9547 32.6642 30.9381 32.6531 30.9242 32.6393C30.8993 32.6172 30.8717 32.5952 30.8468 32.5702C30.6005 32.3516 30.3542 32.1301 30.1106 31.9088C30.0524 31.859 29.9945 31.8063 29.9391 31.7538C29.9252 31.7427 29.9116 31.7288 29.8977 31.715C29.8341 31.6595 29.7675 31.5988 29.7039 31.5407C29.4935 31.3498 29.286 31.156 29.0813 30.9652L28.9734 30.8654C28.9236 30.8184 28.8737 30.7716 28.8239 30.7273C28.7823 30.6884 28.7466 30.6525 28.7078 30.6193C28.5224 30.4451 28.3368 30.2706 28.1598 30.1018C28.0877 30.0354 28.0157 29.9661 27.9466 29.8998C27.9107 29.8666 27.8776 29.8361 27.8444 29.803C27.7669 29.7309 27.6922 29.6589 27.6201 29.5898C27.4513 29.4265 27.2882 29.269 27.1305 29.1195C27.0946 29.0836 27.0585 29.0475 27.0226 29.0143C26.9396 28.9314 26.8592 28.8537 26.779 28.7762C26.7401 28.7374 26.7015 28.7015 26.6656 28.6655C26.5022 28.5051 26.35 28.3529 26.2062 28.2118C26.1314 28.1398 26.0621 28.0678 25.9958 28.0014C25.9404 27.9489 25.8906 27.8992 25.8436 27.8521C25.7827 27.7885 25.722 27.7303 25.6666 27.6722C25.6554 27.661 25.6445 27.6501 25.6361 27.639C25.4646 27.4647 25.3123 27.2848 25.1794 27.0994C25.1406 27.0496 25.1049 26.9969 25.0717 26.9444C25.044 26.9056 25.019 26.8642 24.994 26.8254C24.969 26.7895 24.947 26.7536 24.9277 26.7147C24.7673 26.4464 24.6425 26.1694 24.5596 25.9011C24.5346 25.829 24.5126 25.7602 24.496 25.6882C24.424 25.406 24.3937 25.129 24.4076 24.8745C24.4103 24.8357 24.413 24.7998 24.4185 24.7639C24.4489 24.4539 24.5514 24.1743 24.7202 23.9502C24.7811 23.8727 24.8475 23.8007 24.9249 23.7371C24.9692 23.6983 25.0192 23.6624 25.0717 23.6292C25.1049 23.6071 25.1406 23.5849 25.1794 23.5656C25.4007 23.4492 25.672 23.3804 25.9958 23.3692C26.0621 23.3665 26.1342 23.3665 26.2062 23.3692C26.4136 23.3776 26.6433 23.4079 26.8924 23.4633V23.466C26.9339 23.4744 26.9783 23.4853 27.0226 23.4992C27.0585 23.5047 27.0946 23.5158 27.1305 23.5269C27.3325 23.5794 27.5427 23.6512 27.7696 23.7371C27.8278 23.7592 27.8857 23.7841 27.9466 23.8091C28.0157 23.8368 28.0877 23.87 28.1598 23.9005C28.1929 23.917 28.2291 23.9336 28.265 23.9502C28.4061 24.0138 28.5526 24.0859 28.7021 24.1661C28.7935 24.2131 28.8821 24.2601 28.9734 24.3072L29.0813 24.3653C29.3303 24.4982 29.5794 24.631 29.8257 24.7639C29.8507 24.775 29.8756 24.7886 29.8977 24.8025C29.942 24.8245 29.9861 24.8495 30.0304 24.8745C30.0581 24.8884 30.0856 24.9022 30.1106 24.9188C30.3846 25.0654 30.6559 25.2149 30.9242 25.3644C30.9631 25.3837 30.999 25.406 31.0349 25.4253C31.1926 25.5139 31.3505 25.6023 31.5054 25.6882C31.6218 25.7518 31.7351 25.8181 31.8485 25.8818C31.8624 25.8872 31.8733 25.8956 31.8844 25.9011C31.9453 25.9342 32.0035 25.9676 32.0617 26.0008C32.3384 26.1558 32.6095 26.3107 32.8751 26.463C32.9139 26.485 32.9498 26.5073 32.9857 26.5266C33.0964 26.5902 33.2073 26.6538 33.3152 26.7147C33.3788 26.7536 33.4452 26.7895 33.5088 26.8254C33.6083 26.8835 33.7053 26.939 33.7994 26.9914C33.8714 27.0358 33.9434 27.0744 34.0125 27.116C34.292 27.2764 34.563 27.4313 34.8259 27.5808C34.8591 27.6029 34.8925 27.6224 34.9257 27.639C34.9311 27.6417 34.9341 27.6445 34.9368 27.6445C35.0586 27.7165 35.1801 27.7858 35.2965 27.8521C35.4514 27.9407 35.6037 28.0264 35.7502 28.1066C35.8222 28.1482 35.8943 28.1895 35.9633 28.2284C36.2428 28.3833 36.5057 28.5299 36.7547 28.6655C36.7631 28.6683 36.7686 28.6739 36.777 28.6767C36.8129 28.696 36.8517 28.7155 36.8876 28.7348C36.9126 28.7487 36.9401 28.7623 36.9651 28.7762C37.2307 28.9173 37.477 29.0448 37.7011 29.1554C37.7758 29.1913 37.8451 29.2245 37.9142 29.2549C38.2407 29.4099 38.512 29.5178 38.7278 29.5787C38.7417 29.5814 38.7553 29.5871 38.7692 29.5898C38.7942 29.5953 38.8164 29.601 38.8385 29.6064C38.88 29.6148 38.9187 29.623 38.9546 29.6257C39.0818 29.6396 39.3229 29.6451 39.6521 29.6396C39.7185 29.6396 39.7903 29.6369 39.865 29.6341C40.1029 29.6314 40.3769 29.6203 40.6787 29.6092C40.7146 29.6064 40.7534 29.6064 40.7893 29.6037C40.8972 29.601 41.0052 29.5953 41.1186 29.5898C41.2735 29.5844 41.4369 29.5762 41.603 29.5678C41.675 29.5651 41.7438 29.5594 41.8159 29.5567C42.0787 29.5428 42.35 29.5289 42.6295 29.5124C42.6654 29.5124 42.7043 29.5096 42.7402 29.5069C43.0058 29.493 43.2771 29.4765 43.5538 29.4599C43.6229 29.4571 43.6949 29.4515 43.7669 29.4487C44.0353 29.4322 44.3063 29.4156 44.5803 29.399C44.6192 29.3962 44.6551 29.3933 44.691 29.3906C44.9623 29.374 45.2334 29.3574 45.5046 29.3408C45.5767 29.3354 45.6457 29.3297 45.7178 29.327C45.9918 29.3076 46.2628 29.2911 46.5312 29.2745C46.5671 29.2717 46.6061 29.2688 46.6421 29.2661C46.9188 29.2467 47.1899 29.23 47.4555 29.2106C47.5275 29.2052 47.5995 29.2024 47.6686 29.197C47.9481 29.1777 48.2221 29.1581 48.4822 29.1416C48.5211 29.1388 48.557 29.1359 48.5929 29.1332C48.8808 29.1138 49.1518 29.0945 49.4063 29.0779C49.4783 29.0725 49.5504 29.0668 49.6194 29.0613C49.9239 29.0393 50.1979 29.0198 50.4331 29.0032C50.4719 29.0005 50.5078 28.9975 50.5437 28.9948C51.0309 28.9616 51.3185 28.9396 51.3185 28.9396Z" fill="url(#paint1_linear_1122_101500)"/>
<g opacity="0.2">
<path d="M25.18 23.5625V27.0963C25.1411 27.0466 25.1054 26.9938 25.0723 26.9414V23.6261C25.1054 23.6041 25.1411 23.5818 25.18 23.5625Z" fill="white"/>
</g>
<g opacity="0.2">
<path d="M27.1275 23.5355V29.1281C27.0915 29.0922 27.0554 29.0561 27.0195 29.0229V23.5078C27.0554 23.5133 27.0915 23.5244 27.1275 23.5355Z" fill="white"/>
</g>
<g opacity="0.2">
<path d="M26.2045 23.3692V28.2118C26.1298 28.1398 26.0605 28.0678 25.9941 28.0014V23.3692C26.0605 23.3665 26.1325 23.3665 26.2045 23.3692Z" fill="white"/>
</g>
<g opacity="0.2">
<path d="M28.1604 23.9038V30.1051C28.0884 30.0388 28.0163 29.9695 27.9473 29.9031V23.8125C28.0163 23.8402 28.0884 23.8734 28.1604 23.9038Z" fill="white"/>
</g>
<g opacity="0.2">
<path d="M29.0825 24.3707V30.9705L28.9746 30.8707V24.3125L29.0825 24.3707Z" fill="white"/>
</g>
<g opacity="0.2">
<path d="M31.0345 25.4281V32.7389C31.0124 32.7195 30.9902 32.7002 30.9681 32.6809C30.9543 32.667 30.9377 32.6559 30.9238 32.6421V25.3672C30.9627 25.3865 30.9986 25.4088 31.0345 25.4281Z" fill="white"/>
</g>
<g opacity="0.2">
<path d="M30.1055 24.9132V31.9031C30.0473 31.8534 29.9894 31.8007 29.9339 31.7482H29.8926V24.7969C29.9369 24.8189 29.981 24.8439 30.0253 24.8689C30.053 24.8828 30.0805 24.8966 30.1055 24.9132Z" fill="white"/>
</g>
<g opacity="0.2">
<path d="M32.0608 26.0097V33.6333C32.0083 33.5917 31.9583 33.5474 31.9058 33.5031L31.8477 33.4534V25.8906C31.8615 25.8961 31.8724 25.9045 31.8836 25.9099C31.9445 25.9431 32.0026 25.9765 32.0608 26.0097Z" fill="white"/>
</g>
<g opacity="0.2">
<path d="M32.9857 26.5324V34.4023C32.9498 34.3746 32.9138 34.3441 32.875 34.311V26.4688C32.9138 26.4908 32.9498 26.5131 32.9857 26.5324Z" fill="white"/>
</g>
<g opacity="0.2">
<path d="M34.937 27.6441V35.8876C34.9011 35.8655 34.865 35.8378 34.8262 35.8101V27.5859C34.8593 27.608 34.8927 27.6275 34.9259 27.6441H34.937Z" fill="white"/>
</g>
<g opacity="0.2">
<path d="M34.0139 27.1167V35.2107C33.9448 35.1552 33.8728 35.1 33.8008 35.0475V26.9922C33.8728 27.0365 33.9448 27.0751 34.0139 27.1167Z" fill="white"/>
</g>
<g opacity="0.2">
<path d="M35.9612 28.2312V36.5301C35.928 36.5135 35.8948 36.4939 35.8616 36.4746H35.748V28.1094C35.8201 28.1509 35.8921 28.1923 35.9612 28.2312Z" fill="white"/>
</g>
<g opacity="0.2">
<path d="M36.886 28.7457V36.9117C36.8472 36.9033 36.8086 36.8923 36.7754 36.8839V28.6875C36.8113 28.7068 36.8501 28.7263 36.886 28.7457Z" fill="white"/>
</g>
<g opacity="0.2">
<path d="M38.8392 29.5971V37.265C38.8003 37.2595 38.7644 37.2539 38.7285 37.2484V29.5859C38.7424 29.5887 38.756 29.5943 38.7699 29.5971H38.8392Z" fill="white"/>
</g>
<g opacity="0.2">
<path d="M37.9123 29.2558V37.1091C37.8376 37.098 37.7683 37.0843 37.6992 37.0705V29.1562C37.774 29.1922 37.8433 29.2253 37.9123 29.2558Z" fill="white"/>
</g>
<g opacity="0.2">
<path d="M39.8633 29.6406V37.4108C39.844 37.4081 39.8274 37.4054 39.8108 37.4026H39.6504V29.6461C39.7167 29.6461 39.7886 29.6434 39.8633 29.6406Z" fill="white"/>
</g>
<g opacity="0.2">
<path d="M40.7884 29.6172V37.5396C40.7525 37.5342 40.7136 37.5285 40.6777 37.5258V29.6226C40.7136 29.6199 40.7525 29.6199 40.7884 29.6172Z" fill="white"/>
</g>
<g opacity="0.2">
<path d="M42.7396 29.5156V37.77C42.7007 37.7673 42.6648 37.7618 42.6289 37.7591V29.5211C42.6648 29.5211 42.7037 29.5184 42.7396 29.5156Z" fill="white"/>
</g>
<g opacity="0.2">
<path d="M41.8164 29.5547V37.6514C41.7473 37.643 41.6755 37.635 41.6035 37.6266V29.5658C41.6755 29.5631 41.7444 29.5574 41.8164 29.5547Z" fill="white"/>
</g>
<g opacity="0.2">
<path d="M43.7639 29.4609V37.8925C43.6948 37.8841 43.6228 37.8762 43.5508 37.8678V29.4721C43.6199 29.4693 43.6919 29.4637 43.7639 29.4609Z" fill="white"/>
</g>
<g opacity="0.2">
<path d="M44.6868 29.4062V37.9958C44.6509 37.993 44.6121 37.9901 44.5762 37.9846V29.4146C44.615 29.4119 44.6509 29.409 44.6868 29.4062Z" fill="white"/>
</g>
<g opacity="0.2">
<path d="M46.6402 29.2734V38.1949C46.6043 38.1922 46.5681 38.1865 46.5293 38.1838V29.2818C46.5652 29.2791 46.6043 29.2762 46.6402 29.2734Z" fill="white"/>
</g>
<g opacity="0.2">
<path d="M45.717 29.3281V38.0919C45.6479 38.0835 45.5759 38.078 45.5039 38.0696V29.342C45.5759 29.3365 45.645 29.3309 45.717 29.3281Z" fill="white"/>
</g>
<g opacity="0.2">
<path d="M47.6662 29.2109V38.3067C47.5972 38.2983 47.5251 38.2928 47.4531 38.2844V29.2246C47.5251 29.2191 47.5972 29.2164 47.6662 29.2109Z" fill="white"/>
</g>
<g opacity="0.2">
<path d="M48.5911 29.1328V38.3865C48.5552 38.381 48.5193 38.3781 48.4805 38.3753V29.1412C48.5193 29.1385 48.5552 29.1355 48.5911 29.1328Z" fill="white"/>
</g>
<g opacity="0.2">
<path d="M50.5423 28.9922V36.1648C50.5284 36.2673 50.5146 36.3697 50.5034 36.4693C50.498 36.5052 50.4953 36.5413 50.4898 36.5772C50.4705 36.7321 50.451 36.8816 50.4316 37.0255V29.0006C50.4705 28.9979 50.5064 28.9949 50.5423 28.9922Z" fill="white"/>
</g>
<g opacity="0.2">
<path d="M49.6174 29.0703V38.4982C49.5511 38.4928 49.4818 38.4844 49.4043 38.476V29.0869C49.4763 29.0814 49.5483 29.0758 49.6174 29.0703Z" fill="white"/>
</g>
<g opacity="0.2">
<path d="M50.2074 38.4219C50.1963 38.4744 50.1827 38.5105 50.1715 38.5298H50.0111C49.9198 38.5187 49.7869 38.505 49.618 38.4884C49.5517 38.483 49.4824 38.4746 49.4049 38.4662C49.2693 38.4523 49.1173 38.4385 48.9512 38.4219H50.2074Z" fill="white"/>
</g>
<g opacity="0.2">
<path d="M50.3841 37.3984C50.3702 37.4705 50.362 37.5423 50.3509 37.6086H41.4265C41.2106 37.5809 40.9977 37.5534 40.7873 37.5284C40.7514 37.523 40.7126 37.5173 40.6767 37.5146C40.3972 37.4786 40.1259 37.4425 39.863 37.4066C39.8437 37.4039 39.8271 37.4012 39.8105 37.3984H50.3841Z" fill="white"/>
</g>
<g opacity="0.2">
<path d="M50.5044 36.4688C50.4989 36.5047 50.4962 36.5408 50.4907 36.5767H36.0653C36.0321 36.5601 35.996 36.5435 35.9628 36.5242C35.9296 36.5076 35.8965 36.4881 35.8633 36.4688H50.5044Z" fill="white"/>
</g>
<g opacity="0.2">
<path d="M50.7334 34.5312C50.7279 34.5672 50.725 34.6033 50.7195 34.6392H33.2724C33.2281 34.606 33.1838 34.5672 33.1367 34.5312H50.7334Z" fill="white"/>
</g>
<g opacity="0.2">
<path d="M50.6285 35.4531C50.6201 35.5251 50.6121 35.5942 50.6037 35.6633H34.6148C34.5208 35.597 34.4237 35.5251 34.3242 35.4531H50.6285Z" fill="white"/>
</g>
<g opacity="0.2">
<path d="M50.8497 33.5078C50.8413 33.5769 50.8329 33.6491 50.8274 33.7182H32.1572C32.1268 33.6932 32.0936 33.6684 32.0632 33.638C32.0107 33.5964 31.9607 33.5521 31.9082 33.5078H50.8497Z" fill="white"/>
</g>
<g opacity="0.2">
<path d="M50.9447 32.5781C50.9393 32.614 50.9363 32.6501 50.9336 32.6861H30.9655C30.9517 32.6722 30.9351 32.6611 30.9212 32.6472C30.8962 32.6252 30.8687 32.6031 30.8438 32.5781H50.9447Z" fill="white"/>
</g>
<g opacity="0.2">
<path d="M51.149 30.6328C51.1462 30.6687 51.1406 30.7048 51.1378 30.7407H28.8231C28.7816 30.7019 28.7459 30.666 28.707 30.6328H51.149Z" fill="white"/>
</g>
<g opacity="0.2">
<path d="M51.0549 31.5469C51.0465 31.616 51.0383 31.688 51.0328 31.76H29.8969V31.7212C29.8333 31.6657 29.7667 31.605 29.7031 31.5469H51.0549Z" fill="white"/>
</g>
<g opacity="0.2">
<path d="M51.2492 29.6016C51.2438 29.6679 51.2383 29.7399 51.2299 29.8147H27.8414C27.764 29.7427 27.6892 29.6706 27.6172 29.6016H38.8355V29.6182C38.8771 29.6265 38.9157 29.6347 38.9516 29.6375C39.0789 29.6513 39.3199 29.6568 39.6492 29.6513C39.7155 29.6513 39.7873 29.6486 39.8621 29.6459C40.1 29.6431 40.374 29.632 40.6757 29.6209C40.7116 29.6182 40.7505 29.6182 40.7864 29.6154C40.8943 29.6127 41.0022 29.607 41.1156 29.6016H51.2492Z" fill="white"/>
</g>
<g opacity="0.2">
<path d="M36.9636 28.7825H26.7774C26.7386 28.7437 26.7 28.7078 26.6641 28.6719H36.7754V28.683C36.8113 28.7023 36.8502 28.7218 36.8861 28.7412C36.9111 28.755 36.9386 28.7687 36.9636 28.7825Z" fill="white"/>
</g>
<g opacity="0.2">
<path d="M33.5069 26.8294H24.9921C24.9672 26.7935 24.9451 26.7576 24.9258 26.7188H33.3133C33.3769 26.7576 33.4433 26.7935 33.5069 26.8294Z" fill="white"/>
</g>
<g opacity="0.2">
<path d="M35.2971 27.8537H25.8442C25.7833 27.7901 25.7226 27.732 25.6672 27.6738C25.656 27.6627 25.6451 27.6518 25.6367 27.6406H34.9374V27.6461C35.0592 27.7181 35.1807 27.7874 35.2971 27.8537Z" fill="white"/>
</g>
<g opacity="0.2">
<path d="M31.8826 25.9082H24.5578C24.5328 25.8362 24.5107 25.7673 24.4941 25.6953H31.5036C31.6199 25.7589 31.7333 25.8253 31.8467 25.8889C31.8606 25.8944 31.8715 25.9028 31.8826 25.9082Z" fill="white"/>
</g>
<g opacity="0.2">
<path d="M30.0291 24.8763H24.4062C24.409 24.8374 24.4117 24.8015 24.4172 24.7656H29.8243C29.8493 24.7768 29.8743 24.7904 29.8964 24.8043C29.9407 24.8263 29.9848 24.8513 30.0291 24.8763Z" fill="white"/>
</g>
<g opacity="0.2">
<path d="M28.2635 23.9553H24.7188C24.7796 23.8778 24.846 23.8058 24.9235 23.7422H27.7682C27.8263 23.7642 27.8843 23.7892 27.9452 23.8142C28.0142 23.8419 28.0863 23.8751 28.1583 23.9055C28.1915 23.9221 28.2276 23.9387 28.2635 23.9553Z" fill="white"/>
</g>
<path d="M32.7279 34.1874C30.0919 32.0066 27.0679 29.0895 25.6659 27.6722C23.7325 25.7203 23.9309 22.8003 26.8907 23.4631V23.4661C27.697 24.804 31.2098 31.3499 32.7279 34.1874Z" fill="#1A2E35"/>
<path d="M49.4999 29.8043C49.4997 29.7802 49.463 29.7707 49.4577 29.797C49.3305 30.4376 49.278 31.0969 49.2051 31.7461C49.1298 32.4174 49.0653 33.0906 49.0048 33.7633C48.8845 35.1044 48.743 36.4543 48.7012 37.8007C48.6993 37.859 48.7772 37.858 48.7856 37.8034C48.9878 36.4814 49.0951 35.1378 49.2203 33.8064C49.2822 33.1464 49.3416 32.4855 49.3889 31.8243C49.4369 31.1538 49.5088 30.4767 49.4999 29.8043Z" fill="#1A2E35"/>
<path d="M33.4255 44.0902C33.3923 44.1261 33.2399 44.1733 32.9854 44.2315C32.9522 44.2369 32.9136 44.2451 32.8748 44.2535C32.7889 44.2728 32.6923 44.2924 32.5871 44.3117C32.4321 44.3421 32.2551 44.3726 32.0613 44.4057C32.0336 44.4112 32.0059 44.4141 31.9755 44.4196C31.9339 44.4251 31.8925 44.4335 31.8482 44.4389C31.5992 44.4805 31.3279 44.5246 31.0346 44.5689C30.9987 44.5743 30.9598 44.58 30.9239 44.5827C30.6665 44.6243 30.3952 44.663 30.1103 44.7045C30.0412 44.7129 29.9694 44.7238 29.8974 44.735C29.6372 44.7709 29.3632 44.8095 29.0837 44.8484C29.0478 44.8511 29.0119 44.8568 28.9731 44.8622C28.7102 44.8981 28.4362 44.9342 28.1594 44.9731C28.0904 44.9815 28.0183 44.9895 27.9463 45.0006C27.6807 45.0338 27.4096 45.0699 27.1329 45.1058C27.097 45.1085 27.0581 45.1142 27.0222 45.1196C26.9116 45.1335 26.8034 45.1474 26.6928 45.1612C26.5324 45.1805 26.372 45.2028 26.2086 45.2248C26.1782 45.2276 26.145 45.2305 26.1145 45.236C26.0757 45.2414 26.0343 45.2442 25.9955 45.2526C25.7242 45.2857 25.4533 45.3189 25.1821 45.3521C25.1461 45.3575 25.1073 45.3605 25.0714 45.3659C24.8417 45.3937 24.612 45.4212 24.3823 45.4489C24.3407 45.4543 24.2993 45.46 24.2578 45.4627C24.1887 45.4739 24.1167 45.4821 24.0446 45.4904C23.7734 45.5236 23.4993 45.5568 23.231 45.59C23.1922 45.5927 23.1562 45.5984 23.1203 45.6038C22.8463 45.6343 22.5753 45.6675 22.3069 45.6979C22.2349 45.7063 22.1658 45.7145 22.0938 45.7229C21.8198 45.7561 21.5485 45.7865 21.2802 45.817C21.2443 45.8224 21.2054 45.8254 21.1695 45.8308C20.8928 45.864 20.6217 45.8944 20.3561 45.9249C20.2841 45.9333 20.212 45.9387 20.143 45.9499C19.8635 45.9803 19.5895 46.0105 19.3293 46.0383C19.2905 46.0437 19.2546 46.0467 19.2187 46.0521C19.1716 46.0549 19.1273 46.0605 19.0803 46.066C18.8451 46.091 18.6209 46.116 18.405 46.138C18.333 46.1464 18.2612 46.1544 18.1921 46.1628C17.8988 46.1932 17.6248 46.2209 17.3785 46.2459C17.3396 46.2514 17.3037 46.2543 17.2678 46.2598C17.254 46.2598 17.2401 46.2598 17.229 46.2625C16.9272 46.293 16.6673 46.3179 16.4542 46.3345C16.3767 46.3429 16.3047 46.3484 16.2411 46.3539C16.1497 46.3623 16.0695 46.3677 16.0086 46.3704C15.8896 46.3759 15.8259 46.3759 15.8205 46.3704C15.8094 46.3593 15.8039 46.3234 15.8039 46.2625C15.7984 46.1187 15.8123 45.839 15.8427 45.4489C15.8482 45.3825 15.8539 45.3107 15.8593 45.236C15.8814 44.9951 15.9091 44.7241 15.9423 44.4196C15.945 44.3837 15.9479 44.3476 15.9534 44.3117C15.9811 44.0572 16.0116 43.7859 16.0447 43.4953C16.0531 43.4262 16.0611 43.3569 16.0695 43.2849C16.1 43.0248 16.1333 42.751 16.1692 42.4688C16.1747 42.4328 16.1804 42.3967 16.1831 42.3608C16.2024 42.217 16.2217 42.0702 16.2411 41.9207C16.2576 41.7962 16.2744 41.6717 16.291 41.5445C16.2994 41.4754 16.3101 41.4061 16.3185 41.3341C16.3544 41.0685 16.3933 40.7972 16.4321 40.5177L16.4487 40.4098C16.4487 40.3959 16.4514 40.3793 16.4542 40.3627C16.4901 40.111 16.526 39.8538 16.5648 39.5936C16.576 39.5245 16.5842 39.4552 16.5953 39.3832C16.6369 39.1149 16.6782 38.8436 16.7198 38.5669C16.7253 38.531 16.7309 38.4948 16.7364 38.4589C16.778 38.1906 16.8195 37.9193 16.8638 37.6426C16.875 37.5735 16.8886 37.5044 16.8997 37.4324C16.9413 37.1611 16.9883 36.89 17.0326 36.616C17.0381 36.5801 17.0465 36.544 17.0492 36.5081C17.0963 36.2368 17.1433 35.9657 17.1931 35.6917C17.2042 35.6226 17.2151 35.5506 17.229 35.4815C17.2428 35.4068 17.254 35.332 17.2678 35.26C17.3037 35.0608 17.3398 34.8617 17.3757 34.6652C17.3757 34.6597 17.3785 34.6513 17.3785 34.6459C17.3839 34.6154 17.3896 34.5877 17.3951 34.5572C17.4448 34.2832 17.4975 34.0122 17.55 33.7409C17.5611 33.6718 17.575 33.5996 17.5916 33.5305C17.6414 33.2565 17.6968 32.9856 17.7493 32.7143C17.7577 32.6784 17.7659 32.6423 17.7743 32.6064C17.8297 32.3324 17.8847 32.0584 17.9429 31.79C17.9595 31.718 17.9733 31.6489 17.9872 31.5769C18.0481 31.3029 18.109 31.0318 18.1726 30.7635C18.178 30.733 18.1837 30.7053 18.1921 30.6749C18.1921 30.6694 18.1948 30.661 18.1948 30.6556C18.2585 30.3788 18.3248 30.1048 18.3884 29.8392C18.3939 29.8199 18.3996 29.7976 18.405 29.7756C18.4162 29.7258 18.43 29.6758 18.4439 29.6261C18.5129 29.3493 18.582 29.0753 18.654 28.8124C18.6624 28.7765 18.6734 28.7377 18.6845 28.7018C18.7592 28.4196 18.8367 28.1485 18.9142 27.8884C18.9362 27.8163 18.9587 27.7443 18.9808 27.6752C19.0582 27.4178 19.1385 27.1715 19.2187 26.9391C19.2271 26.9141 19.2353 26.8866 19.2464 26.8616C19.2575 26.8227 19.2712 26.7868 19.285 26.7509C19.2989 26.7094 19.3127 26.668 19.3293 26.6292C19.3764 26.4935 19.4263 26.3635 19.4761 26.239C19.5177 26.1338 19.5561 26.0341 19.5977 25.9373C19.6281 25.8626 19.6615 25.7935 19.6919 25.7244C19.8385 25.4006 19.9878 25.1266 20.1373 24.9108C20.1373 24.908 20.1402 24.9051 20.143 24.9024C20.1679 24.8664 20.1927 24.8305 20.2177 24.8001C20.2647 24.7392 20.309 24.6865 20.3561 24.6367C20.3811 24.609 20.4086 24.5842 20.4336 24.5593C20.4833 24.5122 20.5331 24.4709 20.5801 24.4266C20.7682 24.2605 20.9425 24.1137 21.1059 23.9865C21.1279 23.9671 21.1475 23.9506 21.1695 23.9367C21.2054 23.9062 21.2443 23.8785 21.2802 23.8508C21.3161 23.8231 21.3495 23.7983 21.3854 23.7733C21.6398 23.5852 21.8725 23.433 22.0938 23.2946C22.1658 23.2476 22.2378 23.2035 22.3069 23.1592C22.3208 23.1508 22.3374 23.1399 22.3512 23.1315C22.4564 23.0651 22.5837 23.0097 22.7275 22.9599C22.8493 22.9183 22.9792 22.8852 23.1203 22.8547C23.1315 22.852 23.1424 22.8493 23.1508 22.8493C23.1785 22.8438 23.2033 22.8381 23.231 22.8327C23.4828 22.7856 23.7597 22.7522 24.0446 22.7302C24.1167 22.7247 24.1857 22.7218 24.2578 22.7191C24.5345 22.7052 24.8085 22.6998 25.0714 22.7052H25.1821C25.4838 22.7136 25.763 22.7302 25.9955 22.7552C26.073 22.7636 26.1423 22.7716 26.2086 22.78C26.372 22.7993 26.5019 22.8243 26.5878 22.8493C26.6071 22.8547 26.621 22.8604 26.6348 22.8658C26.6764 22.8824 26.726 22.9129 26.7841 22.9599C26.8532 23.0153 26.9336 23.0928 27.0222 23.1896C27.0581 23.2285 27.094 23.2698 27.1329 23.3141C27.2408 23.4441 27.3626 23.5991 27.4844 23.7733C27.5341 23.8424 27.5839 23.9117 27.6337 23.9865C27.7361 24.1387 27.8411 24.3048 27.9463 24.4791C28.0099 24.5815 28.0765 24.6894 28.1374 24.8001C28.1458 24.8112 28.151 24.8249 28.1594 24.836C28.1733 24.861 28.1872 24.8858 28.201 24.9108C28.3476 25.1709 28.4887 25.4449 28.6216 25.7244C28.6575 25.7935 28.6909 25.8653 28.7241 25.9373C28.8127 26.1311 28.8956 26.3276 28.9731 26.5269C29.0035 26.6016 29.031 26.6762 29.0587 26.7509C29.0671 26.773 29.0753 26.7952 29.0837 26.8173C29.0892 26.8311 29.0949 26.845 29.1003 26.8616C29.1944 27.1245 29.2746 27.3901 29.3382 27.6475C29.341 27.6559 29.3439 27.6641 29.3439 27.6752C29.3605 27.7361 29.3771 27.8081 29.3991 27.8884C29.4516 28.1015 29.5209 28.3753 29.6068 28.7018C29.6152 28.7377 29.6261 28.7736 29.6372 28.8124C29.7008 29.0587 29.7701 29.33 29.8503 29.6261C29.8642 29.687 29.8808 29.7506 29.8974 29.8142C29.9001 29.8226 29.9028 29.8308 29.9028 29.8392C29.9692 30.0855 30.0383 30.3454 30.1103 30.6194C30.113 30.6306 30.116 30.6444 30.1187 30.6556C30.1271 30.6915 30.138 30.7276 30.1464 30.7635C30.2155 31.0236 30.2875 31.2947 30.3622 31.5769C30.3788 31.646 30.3982 31.718 30.4175 31.79C30.4866 32.0557 30.5586 32.3269 30.6306 32.6064C30.6417 32.6423 30.6499 32.6784 30.661 32.7143C30.7301 32.9827 30.8021 33.2537 30.8742 33.5305C30.8907 33.5941 30.9073 33.6579 30.9239 33.7216C30.9267 33.727 30.9267 33.7325 30.9294 33.7409C30.9653 33.8709 30.9987 34.0038 31.0346 34.1367C31.0705 34.275 31.1066 34.4161 31.1425 34.5572C31.1536 34.5932 31.1618 34.6293 31.1729 34.6652C31.242 34.9365 31.3143 35.2075 31.3833 35.4815C31.4027 35.5506 31.422 35.6197 31.4386 35.6917C31.5106 35.963 31.5826 36.2368 31.6517 36.5081C31.6601 36.544 31.671 36.5801 31.6794 36.616C31.7348 36.8319 31.7928 37.0477 31.8482 37.2636C31.8621 37.319 31.8757 37.377 31.8896 37.4324C31.9089 37.5015 31.9257 37.5735 31.945 37.6426C31.9839 37.7948 32.0225 37.9443 32.0613 38.0938C32.0918 38.2183 32.1222 38.3399 32.1554 38.4589C32.1638 38.4948 32.1718 38.531 32.1829 38.5669C32.252 38.8436 32.3215 39.1176 32.3878 39.3832C32.4072 39.4552 32.4237 39.5245 32.4431 39.5936C32.5121 39.8731 32.5814 40.1469 32.6451 40.4098C32.6535 40.4457 32.6644 40.4818 32.6728 40.5177C32.7419 40.8026 32.8084 41.0739 32.872 41.3341H32.8748V41.3397C32.8914 41.4088 32.9079 41.4781 32.9245 41.5445C32.9438 41.6358 32.9661 41.7242 32.9854 41.8128C33.0325 42.0037 33.0768 42.1893 33.1156 42.3608C33.124 42.3967 33.132 42.4328 33.1404 42.4688C33.2124 42.7814 33.2706 43.0552 33.3176 43.2849C33.3342 43.3597 33.348 43.4317 33.3592 43.4953C33.4282 43.8495 33.4532 44.0597 33.4255 44.0902Z" fill="url(#paint2_linear_1122_101500)"/>
<g opacity="0.2">
<path d="M17.3763 34.6328V46.2329C17.3374 46.2383 17.3015 46.2413 17.2656 46.2467V35.247C17.3015 35.0477 17.3376 34.8487 17.3736 34.6521C17.3736 34.6467 17.3763 34.6383 17.3763 34.6328Z" fill="white"/>
</g>
<g opacity="0.2">
<path d="M16.4514 40.3594V46.3312C16.3739 46.3396 16.3019 46.345 16.2383 46.3505V41.9174C16.2549 41.7928 16.2717 41.6683 16.2883 41.5411C16.2967 41.472 16.3074 41.4027 16.3158 41.3307C16.3517 41.0651 16.3905 40.7938 16.4294 40.5143L16.4459 40.4064C16.4459 40.3926 16.4487 40.376 16.4514 40.3594Z" fill="white"/>
</g>
<g opacity="0.2">
<path d="M18.4024 29.7812V46.1437C18.3303 46.1521 18.2585 46.1601 18.1895 46.1684V30.6612H18.1922C18.2558 30.3845 18.3222 30.1105 18.3858 29.8449C18.3912 29.8256 18.3969 29.8033 18.4024 29.7812Z" fill="white"/>
</g>
<g opacity="0.2">
<path d="M19.3294 26.6328V46.0419C19.2906 46.0474 19.2547 46.0503 19.2188 46.0558V26.9427C19.2272 26.9177 19.2353 26.8902 19.2465 26.8653C19.2576 26.8264 19.2712 26.7905 19.2851 26.7546C19.299 26.713 19.3128 26.6717 19.3294 26.6328Z" fill="white"/>
</g>
<g opacity="0.2">
<path d="M21.2767 23.8438V45.8099C21.2408 45.8153 21.2019 45.8183 21.166 45.8237V23.9296C21.2019 23.8992 21.2408 23.8715 21.2767 23.8438Z" fill="white"/>
</g>
<g opacity="0.2">
<path d="M20.3537 24.625V45.9131C20.2817 45.9215 20.2097 45.927 20.1406 45.9381V24.8906C20.1656 24.8547 20.1904 24.8188 20.2154 24.7884C20.2624 24.7275 20.3067 24.6748 20.3537 24.625Z" fill="white"/>
</g>
<g opacity="0.2">
<path d="M22.3049 23.1484V45.6872C22.2329 45.6956 22.1638 45.7038 22.0918 45.7122V23.2839C22.1638 23.2368 22.2358 23.1927 22.3049 23.1484Z" fill="white"/>
</g>
<g opacity="0.2">
<path d="M23.2278 22.8203V45.5776C23.189 45.5804 23.1531 45.586 23.1172 45.5915V22.8369H23.1476C23.1754 22.8314 23.2001 22.8258 23.2278 22.8203Z" fill="white"/>
</g>
<g opacity="0.2">
<path d="M25.179 22.7031V45.35C25.1431 45.3554 25.1043 45.3584 25.0684 45.3638V22.7031H25.179Z" fill="white"/>
</g>
<g opacity="0.2">
<path d="M24.258 22.7266V45.4702C24.189 45.4813 24.1169 45.4895 24.0449 45.4979V22.7377C24.1169 22.7322 24.186 22.7293 24.258 22.7266Z" fill="white"/>
</g>
<g opacity="0.2">
<path d="M26.2053 22.7748V45.2196C26.1749 45.2224 26.1417 45.2253 26.1112 45.2308C26.0724 45.2362 26.031 45.239 25.9922 45.2474V22.75C26.0697 22.7584 26.139 22.7664 26.2053 22.7748Z" fill="white"/>
</g>
<g opacity="0.2">
<path d="M27.1321 23.3198V45.1115C27.0962 45.1142 27.0574 45.1199 27.0215 45.1253V23.1953C27.0574 23.2342 27.0933 23.2755 27.1321 23.3198Z" fill="white"/>
</g>
<g opacity="0.2">
<path d="M29.0853 26.7553V44.8527C29.0494 44.8554 29.0135 44.8611 28.9746 44.8666V26.5312C29.0051 26.606 29.0326 26.6805 29.0603 26.7553H29.0853Z" fill="white"/>
</g>
<g opacity="0.2">
<path d="M28.1584 24.8335V44.9706C28.0893 44.979 28.0173 44.987 27.9453 44.9981V24.4766C28.0089 24.579 28.0755 24.687 28.1364 24.7976C28.1448 24.8087 28.15 24.8224 28.1584 24.8335Z" fill="white"/>
</g>
<g opacity="0.2">
<path d="M30.1074 30.6177V44.7028C30.0384 44.7112 29.9665 44.7221 29.8945 44.7333V29.8125C29.8973 29.8209 29.9 29.8291 29.9 29.8375C29.9663 30.0838 30.0354 30.3437 30.1074 30.6177Z" fill="white"/>
</g>
<g opacity="0.2">
<path d="M31.0345 34.1417V44.5739C30.9986 44.5793 30.9597 44.585 30.9238 44.5877V33.7266C30.9266 33.732 30.9266 33.7375 30.9293 33.7459C30.9652 33.8759 30.9986 34.0088 31.0345 34.1417Z" fill="white"/>
</g>
<g opacity="0.2">
<path d="M32.9857 41.809V44.2277C32.9525 44.2331 32.9138 44.2413 32.875 44.2497V41.3359C32.8916 41.405 32.9082 41.4743 32.9248 41.5407C32.9441 41.632 32.9663 41.7204 32.9857 41.809Z" fill="white"/>
</g>
<g opacity="0.2">
<path d="M32.0608 38.088V44.4C32.0331 44.4054 32.0053 44.4084 31.9749 44.4138C31.9333 44.4193 31.892 44.4277 31.8477 44.4332V37.2578C31.8615 37.3132 31.8752 37.3712 31.889 37.4266C31.9083 37.4957 31.9251 37.5677 31.9445 37.6368C31.9833 37.789 32.0219 37.9385 32.0608 38.088Z" fill="white"/>
</g>
<g opacity="0.2">
<path d="M17.2278 46.2578C16.9261 46.2883 16.6661 46.3132 16.453 46.3298C16.3755 46.3382 16.3035 46.3437 16.2399 46.3491V46.3657H15.8193C15.8082 46.3546 15.8027 46.3187 15.8027 46.2578H17.2278Z" fill="white"/>
</g>
<g opacity="0.2">
<path d="M26.1136 45.2344C26.0747 45.2398 26.0334 45.2426 25.9945 45.251C25.7233 45.2841 25.4524 45.3173 25.1811 45.3505C25.1452 45.3559 25.1064 45.3589 25.0705 45.3643C24.8407 45.3921 24.611 45.4196 24.3813 45.4473H15.8418C15.8473 45.3809 15.8529 45.3091 15.8584 45.2344H26.1136Z" fill="white"/>
</g>
<g opacity="0.2">
<path d="M32.5843 44.3047C32.4293 44.3351 32.2523 44.3656 32.0585 44.3988C32.0308 44.4042 32.0031 44.4072 31.9726 44.4126H15.9395C15.9422 44.3767 15.9451 44.3406 15.9506 44.3047H32.5843Z" fill="white"/>
</g>
<g opacity="0.2">
<path d="M33.1391 42.4595H16.168C16.1734 42.4236 16.1791 42.3875 16.1818 42.3516H33.1143C33.1227 42.3875 33.1307 42.4236 33.1391 42.4595Z" fill="white"/>
</g>
<g opacity="0.2">
<path d="M33.3594 43.4838H16.0449C16.0533 43.4147 16.0613 43.3455 16.0697 43.2734H33.3178C33.3344 43.3482 33.3482 43.4202 33.3594 43.4838Z" fill="white"/>
</g>
<g opacity="0.2">
<path d="M32.9206 41.5385H16.2871C16.2955 41.4694 16.3062 41.4001 16.3146 41.3281H32.8708V41.3338C32.8874 41.4029 32.904 41.4722 32.9206 41.5385Z" fill="white"/>
</g>
<g opacity="0.2">
<path d="M32.6703 40.5064H16.4297L16.4463 40.3984H32.6426C32.651 40.4343 32.6619 40.4705 32.6703 40.5064Z" fill="white"/>
</g>
<g opacity="0.2">
<path d="M32.1819 38.5689H16.7188C16.7242 38.533 16.7299 38.4968 16.7353 38.4609H32.1544C32.1628 38.4968 32.1707 38.533 32.1819 38.5689Z" fill="white"/>
</g>
<g opacity="0.2">
<path d="M32.4427 39.5776H16.5645C16.5756 39.5085 16.5838 39.4392 16.5949 39.3672H32.3875C32.4068 39.4392 32.4234 39.5085 32.4427 39.5776Z" fill="white"/>
</g>
<g opacity="0.2">
<path d="M31.9406 37.6477H16.8594C16.8705 37.5786 16.8841 37.5095 16.8953 37.4375H31.8851C31.9044 37.5066 31.9212 37.5786 31.9406 37.6477Z" fill="white"/>
</g>
<g opacity="0.2">
<path d="M31.68 36.6079H17.0332C17.0387 36.572 17.0471 36.5359 17.0498 36.5H31.6522C31.6606 36.5359 31.6716 36.572 31.68 36.6079Z" fill="white"/>
</g>
<g opacity="0.2">
<path d="M31.1722 34.6626H17.375C17.375 34.6572 17.3777 34.6488 17.3777 34.6433C17.3832 34.6128 17.3889 34.5851 17.3943 34.5547H31.1418C31.1529 34.5906 31.1611 34.6267 31.1722 34.6626Z" fill="white"/>
</g>
<g opacity="0.2">
<path d="M31.4369 35.6946H17.1914C17.2025 35.6255 17.2135 35.5535 17.2273 35.4844H31.3817C31.401 35.5535 31.4203 35.6225 31.4369 35.6946Z" fill="white"/>
</g>
<g opacity="0.2">
<path d="M30.9262 33.7495H17.5469C17.558 33.6804 17.5719 33.6081 17.5884 33.5391H30.871C30.8876 33.6027 30.9042 33.6665 30.9208 33.7301C30.9235 33.7356 30.9235 33.7411 30.9262 33.7495Z" fill="white"/>
</g>
<g opacity="0.2">
<path d="M30.6598 32.7173H17.748C17.7564 32.6814 17.7646 32.6453 17.773 32.6094H30.6294C30.6405 32.6453 30.6487 32.6814 30.6598 32.7173Z" fill="white"/>
</g>
<g opacity="0.2">
<path d="M30.1437 30.7642H18.1699C18.1754 30.7337 18.181 30.706 18.1894 30.6756V30.6562H30.116C30.1244 30.6922 30.1353 30.7283 30.1437 30.7642Z" fill="white"/>
</g>
<g opacity="0.2">
<path d="M30.418 31.7991H17.9434C17.9599 31.727 17.9738 31.658 17.9877 31.5859H30.3627C30.3793 31.655 30.3986 31.727 30.418 31.7991Z" fill="white"/>
</g>
<g opacity="0.2">
<path d="M29.9011 29.8381H18.3867C18.3922 29.8188 18.3978 29.7965 18.4033 29.7745C18.4144 29.7247 18.4283 29.6748 18.4422 29.625H29.8486C29.8625 29.6859 29.8791 29.7495 29.8957 29.8131C29.8984 29.8215 29.9011 29.8297 29.9011 29.8381Z" fill="white"/>
</g>
<g opacity="0.2">
<path d="M29.6375 28.8138H18.6543C18.6627 28.7779 18.6736 28.739 18.6847 28.7031H29.607C29.6154 28.739 29.6263 28.7749 29.6375 28.8138Z" fill="white"/>
</g>
<g opacity="0.2">
<path d="M29.1 26.8528H19.2461C19.2572 26.814 19.2709 26.7781 19.2847 26.7422H29.0835V26.8085C29.0889 26.8224 29.0946 26.8363 29.1 26.8528Z" fill="white"/>
</g>
<g opacity="0.2">
<path d="M29.399 27.885H18.9141C18.9361 27.813 18.9586 27.741 18.9806 27.6719H29.3438C29.3603 27.7328 29.3769 27.8048 29.399 27.885Z" fill="white"/>
</g>
<g opacity="0.2">
<path d="M28.7241 25.9238H19.5977C19.6281 25.8491 19.6615 25.78 19.6919 25.7109H28.6216C28.6575 25.78 28.6909 25.8518 28.7241 25.9238Z" fill="white"/>
</g>
<g opacity="0.2">
<path d="M28.2005 24.8997H20.1367C20.1367 24.897 20.1397 24.894 20.1424 24.8913C20.1674 24.8554 20.1922 24.8195 20.2171 24.7891H28.1368C28.1452 24.8002 28.1505 24.8138 28.1589 24.825C28.1727 24.85 28.1866 24.8747 28.2005 24.8997Z" fill="white"/>
</g>
<g opacity="0.2">
<path d="M26.7813 22.9544H22.7246C22.8464 22.9128 22.9764 22.8797 23.1175 22.8492V22.8438H26.5849C26.6042 22.8492 26.6181 22.8549 26.632 22.8603C26.6735 22.8769 26.7231 22.9074 26.7813 22.9544Z" fill="white"/>
</g>
<g opacity="0.2">
<path d="M27.6352 23.9866H21.1074C21.1295 23.9672 21.149 23.9507 21.171 23.9368C21.2069 23.9063 21.2458 23.8786 21.2817 23.8509C21.3176 23.8232 21.351 23.7984 21.3869 23.7734H27.4859C27.5357 23.8425 27.5855 23.9118 27.6352 23.9866Z" fill="white"/>
</g>
<path d="M26.6937 45.1557C24.0852 45.4916 21.2141 45.8276 19.082 46.0598L19.4759 26.2333C19.7875 25.436 20.1113 24.8496 20.4351 24.5533C20.484 24.5075 20.5327 24.4647 20.5816 24.4219L26.6937 45.1557Z" fill="#1A2E35"/>
<path d="M30.292 42.3971C30.1598 41.7821 30.0262 41.1673 29.8914 40.5529C29.6218 39.3239 29.3463 38.0962 29.0637 36.8702C28.4936 34.3972 27.8866 31.933 27.2523 29.4746C26.8966 28.0959 26.5193 26.7223 26.169 25.3426C26.1625 25.3166 26.121 25.3287 26.1277 25.3548C26.7681 27.8014 27.3231 30.271 27.8956 32.7332C28.4657 35.1846 29.0305 37.6375 29.5786 40.0935C29.7323 40.7828 29.8845 41.4724 30.035 42.1623C30.1868 42.8584 30.3015 43.5771 30.5108 44.2591C30.5344 44.3355 30.6689 44.32 30.6589 44.2362C30.5845 43.6191 30.4229 43.0052 30.292 42.3971Z" fill="#1A2E35"/>
<path d="M26.1516 26.01C25.1263 26.1517 23.5506 24.456 22.9888 23.1495C22.9507 23.0597 23.1668 22.1749 23.378 21.087C23.5038 20.4264 23.6279 19.6877 23.6928 19.0058C23.7054 18.8657 24.1577 19.1683 24.1577 19.1683L25.02 19.4654L27.8721 20.4516C27.8721 20.4516 27.3156 21.8414 27.21 23.0313C27.2022 23.1309 27.2033 23.2243 27.2127 23.3142C27.213 23.3272 27.2153 23.3429 27.2146 23.361C27.2507 23.9008 27.1424 25.8722 26.1516 26.01Z" fill="#FFD2BF"/>
<path d="M27.2131 23.2875C27.2133 23.3005 27.2156 23.3163 27.215 23.3343C27.0791 23.3406 26.9326 23.3345 26.773 23.3158C23.8985 22.978 23.8867 19.2812 23.8867 19.2812L25.0204 19.4387L27.8724 20.425C27.8724 20.425 27.316 21.8148 27.2104 23.0047C27.2026 23.1042 27.2036 23.1976 27.2131 23.2875Z" fill="#1A2E35"/>
<path d="M24.212 13.5359C23.4448 14.932 23.3303 19.4052 24.19 20.588C25.4364 22.3024 27.9262 22.9625 29.4964 21.3617C31.0184 19.81 31.0642 13.9779 30.062 12.8568C28.5859 11.2058 25.3454 11.4735 24.212 13.5359Z" fill="#FFD2BF"/>
<path d="M27.9279 17.2373C27.9258 17.2258 27.9039 17.251 27.9039 17.2634C27.9043 17.5649 27.854 17.9103 27.5783 18.0018C27.5697 18.0048 27.5703 18.0199 27.5804 18.0188C27.9144 17.9821 27.9766 17.5229 27.9279 17.2373Z" fill="#1A2E35"/>
<path d="M27.6674 16.9238C27.184 16.8724 27.1164 17.8431 27.5643 17.8908C28.005 17.9378 28.0726 16.9671 27.6674 16.9238Z" fill="#1A2E35"/>
<path d="M29.6613 17.409C29.6645 17.3976 29.6838 17.4247 29.6825 17.4371C29.6521 17.7371 29.6678 18.0857 29.9328 18.2045C29.941 18.2083 29.9391 18.2232 29.929 18.2211C29.6004 18.1514 29.5843 17.6882 29.6613 17.409Z" fill="#1A2E35"/>
<path d="M29.9528 17.1016C30.4389 17.0984 30.4093 18.0712 29.9589 18.0739C29.5156 18.0769 29.5452 17.1041 29.9528 17.1016Z" fill="#1A2E35"/>
<path d="M27.3178 16.4534C27.4524 16.4292 27.5723 16.3847 27.7029 16.3471C27.8503 16.3047 27.9718 16.2862 28.0749 16.164C28.1302 16.0985 28.1178 15.9727 28.0592 15.9131C27.9225 15.7741 27.7293 15.781 27.5498 15.8249C27.3551 15.8724 27.2172 15.9589 27.0965 16.1185C26.9795 16.273 27.1403 16.4851 27.3178 16.4534Z" fill="#1A2E35"/>
<path d="M30.3639 16.6566C30.231 16.6253 30.1134 16.5743 29.9851 16.5297C29.8403 16.4793 29.7199 16.4542 29.6236 16.3265C29.5719 16.258 29.591 16.1335 29.6528 16.077C29.7966 15.9456 29.9893 15.9632 30.1661 16.0166C30.358 16.0745 30.491 16.1682 30.6029 16.334C30.7114 16.4947 30.5395 16.6979 30.3639 16.6566Z" fill="#1A2E35"/>
<path d="M27.579 19.9043C27.6462 19.9797 27.7115 20.0817 27.8198 20.0985C27.9237 20.1145 28.0497 20.0756 28.1482 20.0452C28.1579 20.0422 28.1669 20.053 28.1602 20.0616C28.0741 20.1716 27.9048 20.2325 27.7671 20.1983C27.6325 20.1651 27.5735 20.0427 27.5492 19.9158C27.5458 19.898 27.5691 19.8934 27.579 19.9043Z" fill="#1A2E35"/>
<path d="M27.8353 19.1476C27.9855 19.4204 28.2232 19.5801 28.4871 19.6507C28.6049 19.683 28.7302 19.6958 28.8541 19.6931C28.8783 19.6944 28.9028 19.6933 28.9251 19.69C28.9471 19.6889 28.9671 19.6877 28.9917 19.6845C29.0271 19.6818 29.0483 19.6541 29.0565 19.6213L29.0567 19.6192C29.0574 19.6081 29.0578 19.5993 29.0561 19.5881C29.0561 19.5881 29.0559 19.5883 29.0561 19.586L29.0576 19.5596C29.08 19.3286 29.0819 18.9748 29.0819 18.9748C29.1636 19.0231 29.5812 19.2471 29.5829 19.1256C29.5928 18.1202 29.6037 17.0023 29.4013 15.9997C29.3963 15.9663 29.3452 15.9703 29.3459 16.0035C29.2982 16.9694 29.4206 17.9373 29.3881 18.9082C29.2541 18.8463 29.0364 18.734 28.915 18.7279C28.8814 18.735 28.9232 19.4113 28.9049 19.5144C28.9049 19.5144 28.9047 19.5188 28.9022 19.5253C28.5098 19.548 28.2248 19.4101 27.8654 19.1226C27.8442 19.1039 27.819 19.1224 27.8353 19.1476Z" fill="#1A2E35"/>
<path d="M30.2684 14.3699C28.7285 15.2467 26.8618 13.5699 26.8618 13.5699C26.2972 14.6697 25.1709 14.4381 25.1709 14.4381C25.1709 14.4381 24.6783 16.8797 24.0293 16.8207C23.0393 16.7316 23.0143 13.344 23.3818 12.7094C23.7492 12.0749 24.6036 11.976 24.6036 11.976C24.6036 11.976 24.7081 11.4685 25.3593 11.0519C26.0788 10.5906 28.3549 11.4832 28.3549 11.4832C28.3549 11.4832 28.5515 11.0618 29.0201 10.726C29.3174 10.5144 29.6824 10.5925 29.8948 10.8806C29.7678 11.0332 29.6654 11.2317 29.6064 11.4689C29.4291 12.1809 30.0192 12.2294 30.0685 11.5743C30.0903 11.2829 30.0175 11.0465 29.8948 10.8806C30.2216 10.477 30.7083 10.3777 30.9777 10.6309C31.4663 11.0908 31.549 13.6415 30.2684 14.3699Z" fill="#1A2E35"/>
<path d="M24.4036 17.2518C24.4036 17.2518 23.6891 15.6686 22.9886 15.8977C22.2882 16.1267 22.6415 18.2932 23.3345 18.7111C24.0274 19.1289 24.4267 18.495 24.4267 18.495L24.4036 17.2518Z" fill="#FFD2BF"/>
<path d="M23.1043 16.5161C23.0926 16.5127 23.0871 16.5289 23.0968 16.5352C23.5793 16.8453 23.763 17.3818 23.8611 17.9204C23.742 17.6978 23.5503 17.5519 23.2566 17.6879C23.2412 17.6951 23.2503 17.719 23.2656 17.7186C23.4884 17.7131 23.6355 17.7793 23.7479 17.9779C23.8275 18.1186 23.8684 18.2853 23.9154 18.4392C23.931 18.4904 24.02 18.4814 24.0124 18.4243C24.0118 18.4201 24.011 18.4155 24.0103 18.4113C24.1491 17.7476 23.8069 16.7179 23.1043 16.5161Z" fill="#1A2E35"/>
<path d="M27.214 23.3295L26.2849 25.6446L23.0703 22.5547L22.2148 23.6006C22.2148 23.6006 25.415 28.5647 25.4276 28.3358L26.401 26.1397L27.9397 27.6039L27.7094 23.8235L27.214 23.3295Z" fill="url(#paint3_linear_1122_101500)"/>
<path d="M27.9296 25.7251C27.8706 25.1023 27.8288 24.4733 27.741 23.8538C27.7379 23.8318 27.703 23.823 27.6984 23.8492C27.5907 24.4554 27.8288 26.8363 27.8424 27.4082C27.8403 27.4061 27.8378 27.4038 27.8357 27.4017C27.7715 27.3383 26.4117 26.1156 26.3991 26.136C26.1843 26.4865 25.4698 28.0858 25.4219 28.2309C24.9157 27.4425 22.7742 24.3376 22.1806 23.5952C22.1636 23.5739 22.1302 23.5926 22.1438 23.6178C22.5948 24.4531 25.3642 28.5517 25.4015 28.5396C25.4278 28.5587 26.3164 26.5883 26.4186 26.2181C26.6504 26.4865 28.0272 27.8708 28.0291 27.778C28.0419 27.151 27.9886 26.3487 27.9296 25.7251Z" fill="#1A2E35"/>
<path d="M39.873 40.1144H51.1097L53.2329 24.2109H41.9963L39.873 40.1144Z" fill="#A8A8A8"/>
<path d="M40.4258 40.1144H51.6624L53.7856 24.2109H42.549L40.4258 40.1144Z" fill="#DCDCDC"/>
<path d="M48.198 31.3742C48.1451 31.9778 47.6131 32.4671 47.0094 32.4671C46.4057 32.4671 45.9593 31.9778 46.012 31.3742C46.065 30.7705 46.597 30.2812 47.2007 30.2812C47.8044 30.2812 48.2508 30.7705 48.198 31.3742Z" fill="white"/>
<path d="M19.6593 27.7533C19.1319 35.1558 20.4333 40.2512 21.7382 40.7975C25.2511 42.2679 35.9363 43.0885 38.3862 42.8294C39.3433 42.7282 38.7104 34.7894 37.6818 34.8175C35.13 34.8872 25.7737 34.9628 25.6607 34.9095C24.8677 34.5351 24.8263 32.0673 22.9949 26.7912C21.5134 22.5227 19.875 24.7263 19.6593 27.7533Z" fill="#FFD2BF"/>
<path d="M45.8543 33.2519C46.3356 33.8877 45.8573 34.5607 45.8573 34.5607C45.8573 34.5607 46.4584 34.7704 46.7318 35.3176C47.0449 35.9444 46.1993 36.7099 46.1993 36.7099C46.1993 36.7099 46.7639 37.0482 46.9945 37.6552C47.2338 38.2851 46.491 39.1794 46.491 39.1794C46.491 39.1794 46.8403 39.7824 46.6667 40.451C46.4754 41.1867 44.6405 42.1247 43.5484 42.4738C42.4564 42.8232 39.0313 42.7909 38.3781 42.8507L36.0762 35.8608C36.0762 35.8608 40.528 32.9013 41.8703 32.6728C43.0012 32.4805 45.3141 32.5382 45.8543 33.2519Z" fill="#FFD2BF"/>
<path d="M45.7748 34.4445C44.5234 34.3605 43.3155 34.6511 42.093 34.8726C42.0657 34.8777 42.0739 34.9201 42.1012 34.9148C43.3142 34.6803 44.5581 34.69 45.778 34.5041C45.8116 34.4991 45.8087 34.4468 45.7748 34.4445Z" fill="#1A2E35"/>
<path d="M46.1512 36.6181C45.8676 36.6076 45.5811 36.6905 45.3071 36.7546C45.0119 36.8234 44.7182 36.8976 44.4255 36.9761C43.8394 37.1334 43.2572 37.3036 42.6802 37.4914C42.6546 37.4998 42.6611 37.5411 42.6884 37.5338C43.2727 37.3782 43.8592 37.2312 44.4494 37.1002C44.7448 37.0347 45.0409 36.9717 45.3372 36.9106C45.6129 36.8539 45.9083 36.8167 46.1663 36.6996C46.2046 36.6821 46.1941 36.6198 46.1512 36.6181Z" fill="#1A2E35"/>
<path d="M46.4689 39.174C46.2228 39.1549 45.9494 39.2695 45.7155 39.3376C45.4501 39.4148 45.1841 39.4904 44.9178 39.5647C44.3853 39.7132 43.8526 39.8614 43.3153 39.9912C43.2887 39.9977 43.2964 40.0397 43.3235 40.0334C43.8703 39.9043 44.4185 39.7827 44.964 39.6487C45.2319 39.583 45.4995 39.5156 45.7665 39.447C45.9937 39.3886 46.2843 39.3413 46.4775 39.2004C46.4882 39.1925 46.4813 39.1748 46.4689 39.174Z" fill="#1A2E35"/>
<path d="M36.68 34.4464V43.3568C36.68 43.3568 36.4225 43.3459 35.9715 43.3209C35.9052 43.3209 35.8331 43.3152 35.7584 43.3097C35.6836 43.307 35.6034 43.3041 35.5205 43.2986C35.3462 43.2902 35.1524 43.2793 34.945 43.2682C34.9091 43.2627 34.8729 43.2627 34.8341 43.26C34.5823 43.2434 34.3113 43.2266 34.0207 43.2073C33.9516 43.2046 33.8796 43.1991 33.8076 43.1936C33.5474 43.177 33.2761 43.1575 32.9939 43.1382C32.958 43.1355 32.9221 43.1325 32.8833 43.1298C32.6204 43.1105 32.3493 43.0882 32.0698 43.0662C32.0007 43.0607 31.9287 43.0551 31.8567 43.0496C31.5911 43.0275 31.3171 43.0026 31.0431 42.9805C31.0042 42.9751 30.9683 42.9721 30.9324 42.9694C30.6641 42.9444 30.3928 42.9196 30.1188 42.8946C30.0468 42.8862 29.9779 42.881 29.9059 42.8726C29.6346 42.8449 29.3635 42.8172 29.0922 42.7867C29.0534 42.784 29.0175 42.7812 28.9816 42.7758C28.7103 42.7481 28.4392 42.7149 28.1679 42.6845C28.0959 42.6761 28.0268 42.6679 27.9548 42.6595C27.6808 42.6236 27.4097 42.5902 27.1414 42.5543C27.1055 42.5488 27.0696 42.5431 27.0307 42.5377C26.8978 42.5211 26.7678 42.5018 26.6349 42.4825C26.4938 42.4631 26.3555 42.4409 26.2171 42.4216C26.1451 42.4104 26.076 42.3993 26.004 42.3882C25.979 42.3827 25.9515 42.38 25.9265 42.3745C25.6747 42.3357 25.4314 42.2943 25.1905 42.25C25.1546 42.2446 25.1158 42.2389 25.0799 42.2305C24.8004 42.1807 24.5264 42.1282 24.2662 42.0728C24.1942 42.0562 24.1222 42.0424 24.0531 42.0258C23.7653 41.9622 23.494 41.8983 23.2395 41.8292C23.2006 41.8181 23.1647 41.8099 23.1288 41.7988C22.8466 41.7213 22.5892 41.6411 22.3568 41.5582C22.3429 41.5527 22.3293 41.547 22.3154 41.5443C22.2407 41.5166 22.1714 41.4891 22.1023 41.4614C22.0137 41.4225 21.928 41.3866 21.8505 41.3478C21.6154 41.2371 21.427 41.1237 21.2886 41.002C21.2775 40.9936 21.2693 40.9854 21.2609 40.977C21.2332 40.9493 21.2057 40.9217 21.178 40.8913C21.0812 40.7918 20.9926 40.6698 20.904 40.5314C20.8819 40.4982 20.8624 40.4623 20.8404 40.4235C20.7047 40.191 20.5804 39.9172 20.4641 39.6073C20.4391 39.5382 20.4143 39.469 20.3893 39.3969C20.3809 39.3719 20.373 39.3472 20.3646 39.3195C20.2898 39.0981 20.2178 38.86 20.1514 38.6083C20.1487 38.5999 20.1458 38.5917 20.143 38.5806C20.1346 38.5447 20.1267 38.5085 20.1183 38.4726C20.0492 38.2125 19.9881 37.9385 19.9272 37.6563C19.9133 37.5872 19.8997 37.5181 19.8886 37.4461C19.8331 37.1832 19.7861 36.9092 19.7418 36.6297C19.7334 36.5938 19.7279 36.5577 19.7225 36.5218C19.6809 36.2562 19.6421 35.9822 19.6061 35.7054C19.595 35.6364 19.587 35.5643 19.5786 35.4952C19.5455 35.2269 19.5123 34.9529 19.4846 34.6789C19.4818 34.643 19.4762 34.6069 19.4734 34.571C19.4457 34.2997 19.4207 34.0286 19.3987 33.7546C19.3932 33.6855 19.3876 33.6133 19.3821 33.5442C19.3655 33.3338 19.3517 33.1238 19.3378 32.9134C19.3323 32.8526 19.3294 32.7917 19.3267 32.728C19.3239 32.6921 19.3212 32.656 19.3185 32.6201C19.3019 32.3461 19.2908 32.0721 19.2796 31.8037C19.2769 31.7317 19.2742 31.6597 19.2687 31.5906C19.2603 31.3166 19.2519 31.0455 19.2465 30.7772V30.6693C19.241 30.3925 19.2383 30.1185 19.2383 29.8529V29.6398C19.241 29.3603 19.2465 29.0863 19.2549 28.8261C19.2549 28.7873 19.2549 28.7514 19.2576 28.7155C19.266 28.4306 19.2769 28.1595 19.2935 27.9021C19.299 27.83 19.3019 27.758 19.3074 27.6889C19.3158 27.556 19.3267 27.4315 19.3378 27.3097C19.3517 27.1548 19.3683 27.0109 19.3848 26.8753C19.3903 26.8365 19.3932 26.8006 19.3987 26.7646C19.4237 26.5738 19.4541 26.4022 19.4846 26.2527C19.5066 26.1475 19.5287 26.0478 19.5564 25.951C19.5757 25.879 19.598 25.8072 19.62 25.7381C19.7225 25.4171 19.8527 25.143 19.9992 24.9245C20.0269 24.8856 20.0544 24.8497 20.0822 24.8138C20.1042 24.7861 20.1265 24.7584 20.1514 24.7307C20.2178 24.6532 20.2898 24.5841 20.3646 24.5287C20.6109 24.3321 20.8874 24.2519 21.178 24.2908C21.2139 24.2962 21.2498 24.3044 21.2886 24.3128C21.5515 24.3764 21.8255 24.5398 22.0968 24.8138C22.0996 24.8138 22.0996 24.8165 22.1023 24.8193C22.1355 24.8524 22.1686 24.8856 22.2018 24.9245C22.2407 24.966 22.2795 25.0103 22.3154 25.0574C22.4704 25.2482 22.6226 25.4725 22.7692 25.7381C22.808 25.8072 22.8466 25.879 22.8855 25.951C22.9684 26.1144 23.0486 26.2886 23.1288 26.4768C23.1647 26.5654 23.2036 26.6567 23.2395 26.7508C23.2422 26.7535 23.2424 26.7592 23.2452 26.7646C23.259 26.8006 23.2729 26.8365 23.2867 26.8753C23.3669 27.0939 23.4472 27.3263 23.5219 27.5726C23.533 27.6115 23.5467 27.6501 23.5578 27.6889C23.5799 27.761 23.5992 27.83 23.6242 27.9021C23.7071 28.1788 23.7902 28.4499 23.8705 28.7155C23.8816 28.7543 23.8925 28.7902 23.9036 28.8261C23.9534 28.995 24.0034 29.161 24.0531 29.3215C24.0863 29.4294 24.1195 29.5346 24.1499 29.6398C24.172 29.7118 24.1942 29.7838 24.2135 29.8529C24.2329 29.9083 24.2497 29.9633 24.2662 30.0188C24.3353 30.2428 24.4019 30.4589 24.4655 30.6693C24.4794 30.7052 24.4903 30.7413 24.5014 30.7772C24.5873 31.0621 24.673 31.3332 24.7532 31.5906C24.7782 31.6626 24.8004 31.7347 24.8197 31.8037C24.9111 32.0887 24.997 32.3545 25.0799 32.6035C25.0826 32.609 25.0826 32.6147 25.0853 32.6201C25.0965 32.656 25.1074 32.6921 25.1212 32.728C25.1462 32.8001 25.1685 32.8664 25.1905 32.9328C25.2653 33.1568 25.3371 33.3588 25.4035 33.5442C25.4312 33.6162 25.4589 33.6882 25.4839 33.7546C25.6304 34.1393 25.7522 34.416 25.8517 34.571C25.8822 34.618 25.9126 34.6539 25.9376 34.6789C25.9626 34.6982 25.9847 34.7093 26.004 34.7093C26.0455 34.7093 26.1176 34.7093 26.2171 34.7066C26.4025 34.7039 26.6792 34.6984 27.0307 34.69C27.0666 34.69 27.1025 34.6871 27.1414 34.6871C27.2548 34.6843 27.3738 34.6816 27.5011 34.6789C27.6449 34.6762 27.7971 34.6732 27.9548 34.6678C28.0239 34.6678 28.0959 34.665 28.1679 34.6623C28.4254 34.6568 28.6966 34.6514 28.9816 34.643C29.0175 34.643 29.0534 34.6428 29.0922 34.64C29.3551 34.6346 29.6264 34.6291 29.9059 34.6207C29.9749 34.618 30.0468 34.618 30.1188 34.6153C30.3871 34.6098 30.6584 34.6012 30.9324 34.5957C30.9683 34.5957 31.0072 34.593 31.0431 34.593C31.3144 34.5846 31.5854 34.5791 31.8567 34.5737C31.8926 34.571 31.9287 34.571 31.9619 34.571C31.9978 34.5682 32.0339 34.5682 32.0698 34.5682C32.3466 34.5598 32.6176 34.5544 32.8833 34.546C32.9192 34.546 32.958 34.5432 32.9939 34.5432C33.2734 34.5348 33.5447 34.5296 33.8076 34.5212C33.8796 34.5212 33.9516 34.5183 34.0207 34.5155C34.3085 34.5101 34.5796 34.5017 34.8341 34.4962C34.8729 34.4935 34.9091 34.4935 34.945 34.4935C35.2494 34.4851 35.5232 34.4767 35.7584 34.4712C35.8331 34.4685 35.9052 34.4658 35.9715 34.4658C36.4171 34.4546 36.68 34.4464 36.68 34.4464Z" fill="url(#paint4_linear_1122_101500)"/>
<g opacity="0.2">
<path d="M19.3378 27.3125V32.9162C19.3323 32.8553 19.3294 32.7944 19.3267 32.7308C19.3239 32.6949 19.3212 32.6588 19.3185 32.6229C19.3019 32.3489 19.2908 32.0749 19.2796 31.8065C19.2769 31.7345 19.2742 31.6625 19.2687 31.5934C19.2603 31.3194 19.2519 31.0483 19.2465 30.78V30.672C19.241 30.3953 19.2383 30.1213 19.2383 29.8557V29.6426C19.241 29.3631 19.2465 29.0891 19.2549 28.8289C19.2549 28.7901 19.2549 28.7542 19.2576 28.7183C19.266 28.4333 19.2769 28.1623 19.2935 27.9048C19.299 27.8328 19.3019 27.7608 19.3074 27.6917C19.3158 27.5588 19.3267 27.4343 19.3378 27.3125Z" fill="white"/>
</g>
<g opacity="0.2">
<path d="M21.2884 24.3267V41.0159C21.2773 41.0075 21.2691 40.9993 21.2607 40.9909C21.233 40.9632 21.2055 40.9357 21.1777 40.9052V24.3047C21.2136 24.3101 21.2495 24.3183 21.2884 24.3267Z" fill="white"/>
</g>
<g opacity="0.2">
<path d="M20.3655 24.5469V39.3377C20.2907 39.1164 20.2187 38.8783 20.1523 38.6265V24.7489C20.2187 24.6714 20.2907 24.6023 20.3655 24.5469Z" fill="white"/>
</g>
<g opacity="0.2">
<path d="M22.3108 25.074V41.561C22.236 41.5333 22.1667 41.5058 22.0977 41.478V24.8359C22.1308 24.8691 22.164 24.9023 22.1972 24.9411C22.236 24.9827 22.2749 25.027 22.3108 25.074Z" fill="white"/>
</g>
<g opacity="0.2">
<path d="M23.2376 26.7506V41.829C23.1988 41.8179 23.1629 41.8097 23.127 41.7986V26.4766C23.1629 26.5652 23.2017 26.6565 23.2376 26.7506Z" fill="white"/>
</g>
<g opacity="0.2">
<path d="M25.1888 32.9386V42.2559C25.1529 42.2504 25.114 42.2447 25.0781 42.2363V32.6094C25.0809 32.6148 25.0809 32.6205 25.0836 32.626C25.0947 32.6619 25.1056 32.698 25.1195 32.7339C25.1445 32.8059 25.1667 32.8723 25.1888 32.9386Z" fill="white"/>
</g>
<g opacity="0.2">
<path d="M24.2659 29.8674V42.0873C24.1938 42.0707 24.1218 42.0568 24.0527 42.0402V29.3359C24.0859 29.4439 24.1191 29.5491 24.1495 29.6543C24.1716 29.7263 24.1938 29.7983 24.2131 29.8674H24.2659Z" fill="white"/>
</g>
<g opacity="0.2">
<path d="M26.2151 34.7109V42.4259C26.1431 42.4148 26.074 42.4037 26.002 42.3925V34.7137C26.0435 34.7137 26.1156 34.7137 26.2151 34.7109Z" fill="white"/>
</g>
<g opacity="0.2">
<path d="M27.138 34.6875V42.5629C27.1021 42.5574 27.0662 42.5518 27.0273 42.5463V34.6875H27.138Z" fill="white"/>
</g>
<g opacity="0.2">
<path d="M29.0892 34.6484V42.7951C29.0503 42.7924 29.0144 42.7897 28.9785 42.7842V34.6514C29.0144 34.6514 29.0503 34.6512 29.0892 34.6484Z" fill="white"/>
</g>
<g opacity="0.2">
<path d="M28.1662 34.6797V42.7018C28.0942 42.6934 28.0251 42.6853 27.9531 42.6769V34.6851C28.0222 34.6851 28.0942 34.6824 28.1662 34.6797Z" fill="white"/>
</g>
<g opacity="0.2">
<path d="M30.1172 34.6328V42.9122C30.0452 42.9038 29.9763 42.8985 29.9043 42.8901V34.6383C29.9734 34.6355 30.0452 34.6355 30.1172 34.6328Z" fill="white"/>
</g>
<g opacity="0.2">
<path d="M31.0423 34.6016V42.9891C31.0035 42.9836 30.9675 42.9807 30.9316 42.9779V34.6043C30.9675 34.6043 31.0064 34.6016 31.0423 34.6016Z" fill="white"/>
</g>
<g opacity="0.2">
<path d="M32.9915 34.5547V43.1496C32.9556 43.1469 32.9197 43.144 32.8809 43.1412V34.5574C32.9168 34.5574 32.9556 34.5547 32.9915 34.5547Z" fill="white"/>
</g>
<g opacity="0.2">
<path d="M32.0686 34.5781V43.0761C31.9995 43.0706 31.9275 43.0649 31.8555 43.0595V34.5809H31.9607C31.9966 34.5781 32.0327 34.5781 32.0686 34.5781Z" fill="white"/>
</g>
<g opacity="0.2">
<path d="M34.0217 34.5156V43.2074C33.9526 43.2047 33.8806 43.1992 33.8086 43.1937V34.5213C33.8806 34.5213 33.9526 34.5184 34.0217 34.5156Z" fill="white"/>
</g>
<g opacity="0.2">
<path d="M34.9448 34.5V43.2747C34.9089 43.2692 34.8728 43.2692 34.834 43.2665V34.5027C34.8728 34.5 34.9089 34.5 34.9448 34.5Z" fill="white"/>
</g>
<g opacity="0.2">
<path d="M35.969 34.4688V43.3239C35.9026 43.3239 35.8306 43.3182 35.7559 43.3127V34.4742C35.8306 34.4715 35.9026 34.4688 35.969 34.4688Z" fill="white"/>
</g>
<g opacity="0.2">
<path d="M36.6773 42.3906V42.4986H26.6323C26.4912 42.4792 26.3528 42.457 26.2144 42.4377C26.1424 42.4265 26.0733 42.4154 26.0013 42.4043C25.9763 42.3988 25.9488 42.3961 25.9238 42.3906H36.6773Z" fill="white"/>
</g>
<g opacity="0.2">
<path d="M36.677 43.2969V43.355C36.677 43.355 36.4196 43.3441 35.9686 43.3191C35.9022 43.3191 35.8302 43.3135 35.7555 43.308C35.6807 43.3053 35.6005 43.3023 35.5176 43.2969H36.677Z" fill="white"/>
</g>
<g opacity="0.2">
<path d="M36.679 41.3672V41.5776H22.3559C22.342 41.5721 22.3283 41.5664 22.3145 41.5637C22.2397 41.536 22.1704 41.5085 22.1014 41.4808C22.0128 41.4419 21.9271 41.406 21.8496 41.3672H36.679Z" fill="white"/>
</g>
<g opacity="0.2">
<path d="M36.6794 40.4297V40.5376H20.9035C20.8814 40.5044 20.8619 40.4685 20.8398 40.4297H36.6794Z" fill="white"/>
</g>
<g opacity="0.2">
<path d="M36.6789 38.4844V38.5923H20.142C20.1336 38.5564 20.1256 38.5203 20.1172 38.4844H36.6789Z" fill="white"/>
</g>
<g opacity="0.2">
<path d="M36.6793 39.4062V39.6166H20.4634C20.4384 39.5476 20.4137 39.4783 20.3887 39.4062H36.6793Z" fill="white"/>
</g>
<g opacity="0.2">
<path d="M36.6801 37.4531V37.6633H19.9273C19.9135 37.5942 19.8998 37.5251 19.8887 37.4531H36.6801Z" fill="white"/>
</g>
<g opacity="0.2">
<path d="M36.6762 36.5391V36.647H19.7381C19.7297 36.6111 19.7242 36.575 19.7188 36.5391H36.6762Z" fill="white"/>
</g>
<g opacity="0.2">
<path d="M25.8509 34.5781C25.8814 34.6252 25.9118 34.6611 25.9368 34.6861H19.4838C19.4811 34.6501 19.4754 34.614 19.4727 34.5781H25.8509Z" fill="white"/>
</g>
<g opacity="0.2">
<path d="M36.6808 34.5781V34.6861H27.502C27.6458 34.6833 27.798 34.6804 27.9557 34.6749C28.0248 34.6749 28.0968 34.6722 28.1688 34.6695C28.4262 34.664 28.6975 34.6585 28.9825 34.6501C29.0184 34.6501 29.0543 34.6499 29.0931 34.6472C29.356 34.6417 29.6273 34.6363 29.9068 34.6279C29.9758 34.6252 30.0476 34.6252 30.1197 34.6224C30.388 34.617 30.6593 34.6084 30.9333 34.6029C30.9692 34.6029 31.0081 34.6002 31.044 34.6002C31.3152 34.5918 31.5863 34.5863 31.8576 34.5809V34.5781H36.6808Z" fill="white"/>
</g>
<g opacity="0.2">
<path d="M36.6794 35.5078V35.718H19.6056C19.5945 35.6489 19.5865 35.5769 19.5781 35.5078H36.6794Z" fill="white"/>
</g>
<g opacity="0.2">
<path d="M25.4826 33.7729H19.3974C19.392 33.7038 19.3863 33.6316 19.3809 33.5625H25.4022C25.4299 33.6345 25.4576 33.7065 25.4826 33.7729Z" fill="white"/>
</g>
<g opacity="0.2">
<path d="M25.1192 32.7329H19.3246C19.3219 32.697 19.3191 32.6609 19.3164 32.625H25.0833C25.0944 32.6609 25.1053 32.697 25.1192 32.7329Z" fill="white"/>
</g>
<g opacity="0.2">
<path d="M24.501 30.7876H19.2461V30.6797H24.4651C24.479 30.7156 24.4899 30.7517 24.501 30.7876Z" fill="white"/>
</g>
<g opacity="0.2">
<path d="M24.8186 31.8069H19.2785C19.2758 31.7349 19.273 31.6628 19.2676 31.5938H24.752C24.777 31.6658 24.7993 31.7378 24.8186 31.8069Z" fill="white"/>
</g>
<g opacity="0.2">
<path d="M24.2135 29.8616H19.2383V29.6484H24.1499C24.172 29.7205 24.1942 29.7925 24.2135 29.8616Z" fill="white"/>
</g>
<g opacity="0.2">
<path d="M23.9007 28.8294H19.252C19.252 28.7906 19.252 28.7547 19.2547 28.7188H23.8675C23.8787 28.7576 23.8896 28.7935 23.9007 28.8294Z" fill="white"/>
</g>
<g opacity="0.2">
<path d="M23.2847 26.8841H19.3828C19.3883 26.8452 19.3912 26.8093 19.3967 26.7734H23.2431C23.257 26.8093 23.2708 26.8452 23.2847 26.8841Z" fill="white"/>
</g>
<g opacity="0.2">
<path d="M23.6217 27.9162H19.291C19.2965 27.8442 19.2994 27.7722 19.3049 27.7031H23.5553C23.5774 27.7751 23.5967 27.8442 23.6217 27.9162Z" fill="white"/>
</g>
<g opacity="0.2">
<path d="M22.8857 25.9551H19.5566C19.576 25.8831 19.5982 25.8113 19.6203 25.7422H22.7694C22.8083 25.8113 22.8469 25.8831 22.8857 25.9551Z" fill="white"/>
</g>
<g opacity="0.2">
<path d="M22.1987 24.9232H19.9961C20.0238 24.8843 20.0513 24.8484 20.079 24.8125H22.0992V24.818C22.1323 24.8511 22.1655 24.8843 22.1987 24.9232Z" fill="white"/>
</g>
<path d="M36.7358 34.4414C36.7614 34.3866 36.7343 34.3077 36.6541 34.3068C35.2525 34.2921 33.8451 34.3673 32.444 34.4011C31.0407 34.4349 29.6373 34.4656 28.2342 34.5128C27.4464 34.5395 25.9298 34.61 25.917 34.5876C25.8979 34.5535 25.4779 33.2481 25.3879 32.975C25.2115 32.4395 25.0246 31.9075 24.8405 31.3746C24.7869 31.2198 24.7309 31.0659 24.6757 30.9116C24.6612 30.8076 24.6416 30.7031 24.6288 30.6004C24.611 30.4564 24.5971 30.3119 24.5803 30.1677C24.5474 29.8825 24.502 29.5988 24.4375 29.319C24.4312 29.2919 24.3897 29.3043 24.3962 29.3313C24.4663 29.6217 24.472 29.9209 24.4869 30.2181C24.4905 30.2897 24.4982 30.361 24.5037 30.4324C24.2347 29.6965 24.1595 29.5659 23.9231 28.8194C23.9147 28.793 23.8744 28.8052 23.8817 28.832C24.174 29.9077 24.3084 30.3713 24.6473 31.4332C24.8186 31.9701 24.987 32.5076 25.1661 33.042C25.2539 33.3038 25.6585 34.5208 25.7904 34.7658C25.8063 34.7952 27.2272 34.714 27.9283 34.7032C28.6302 34.6925 29.3318 34.6816 30.0335 34.6642C31.4367 34.6295 32.8402 34.5949 34.2434 34.56C35.0216 34.5407 35.8031 34.5397 36.5804 34.4964C36.5886 34.588 36.6511 35.0491 36.6451 35.0801C36.639 35.1118 36.6894 35.1156 36.6875 35.0848C36.6856 35.0556 36.7385 34.4492 36.7358 34.4414Z" fill="#1A2E35"/>
<path d="M35.1073 35.1535C35.1056 35.1306 35.0684 35.1235 35.0647 35.1489C34.9746 35.7662 34.9599 36.3969 34.9246 37.0195C34.8881 37.6631 34.8625 38.3077 34.8408 38.9519C34.7978 40.2361 34.7346 41.5297 34.7703 42.8145C34.7717 42.8704 34.8494 42.8651 34.8547 42.8126C34.9805 41.5423 35.0101 40.2562 35.0584 38.9811C35.0823 38.349 35.1035 37.7162 35.1127 37.0838C35.122 36.4425 35.1547 35.7935 35.1073 35.1535Z" fill="#1A2E35"/>
<path d="M36.751 39.7223C36.7487 39.6309 36.747 39.5396 36.7434 39.4483C36.7416 39.4027 36.7392 39.3571 36.7367 39.3116C36.7458 39.2818 36.7472 39.2626 36.7424 39.2521C36.7424 39.2519 36.7426 39.2517 36.7426 39.2515C36.7395 39.2259 36.7363 39.2005 36.7332 39.1749C36.7325 39.1602 36.7109 39.1606 36.7105 39.1753C36.7098 39.2003 36.708 39.2253 36.7071 39.2503C36.7048 39.2513 36.7033 39.2511 36.7008 39.2526C36.6983 39.2614 36.7012 39.2675 36.7061 39.2719C36.6832 39.9379 36.6095 40.6048 36.5784 41.2708C36.5471 41.9429 36.5381 42.6148 36.5446 43.2876C35.7828 43.2252 35.011 43.2336 34.2477 43.1939C33.4551 43.1526 32.6635 43.0986 31.8723 43.0352C30.2868 42.9082 28.703 42.7461 27.1268 42.5327C26.6881 42.4733 26.2501 42.4105 25.8119 42.3478C25.3659 42.2839 24.9023 42.2501 24.4639 42.147C24.4362 42.1405 24.4265 42.1857 24.4534 42.189C24.8557 42.2398 25.254 42.3503 25.6532 42.4236C26.0431 42.4949 26.4336 42.5615 26.8252 42.623C27.6084 42.7461 28.3935 42.8567 29.1801 42.9552C30.7521 43.1519 32.3305 43.2859 33.9128 43.3665C34.3655 43.3896 34.8186 43.4085 35.2718 43.4236C35.7169 43.4383 36.1671 43.4667 36.6122 43.4449C36.6599 43.453 36.7143 43.4289 36.7151 43.3659C36.7245 42.6659 36.7514 41.9664 36.7604 41.2664C36.7649 40.9231 36.7661 40.5796 36.7625 40.2361C36.7607 40.0647 36.7554 39.8936 36.751 39.7223Z" fill="#1A2E35"/>
<path d="M53.172 28.7734C53.8766 29.6805 55.5096 30.6714 55.7916 31.4772C56.0463 32.2048 55.4835 32.6044 55.4835 32.6044C55.4835 32.6044 56.4003 32.8339 56.5357 33.6074C56.6054 34.0053 56.0307 34.4664 56.0307 34.4664C56.0307 34.4664 56.7572 34.6824 56.8353 35.3777C56.8975 35.9316 56.3125 36.3104 56.3125 36.3104C56.3125 36.3104 56.9128 36.8426 56.7952 37.4272C56.5567 38.6127 51.8846 39.6441 50.7831 38.0823C50.2697 37.3545 51.4246 37.1643 51.4246 37.1643C51.4246 37.1643 49.698 37.0364 49.4607 36.0788C49.2234 35.1211 50.7388 34.9649 50.7388 34.9649C50.7388 34.9649 49.0664 34.8263 48.9207 33.8085C48.7689 32.749 50.3115 32.8523 50.3115 32.8523C50.3115 32.8523 49.1172 32.3774 49.184 31.5726C49.2942 30.2437 51.902 31.3769 52.8751 30.9065L53.172 28.7734Z" fill="#FFD2BF"/>
<path d="M56.2292 36.3835C56.2443 36.3789 56.2542 36.399 56.2392 36.4064C54.7852 37.1201 52.9687 37.4588 51.3631 37.182C51.3104 37.173 51.3022 37.0833 51.3622 37.0823C53.0718 37.051 54.5866 36.887 56.2292 36.3835Z" fill="#1A2E35"/>
<path d="M56.0584 34.4694C56.0762 34.464 56.0855 34.4932 56.0674 34.502C54.5651 35.2291 52.5088 35.5541 50.6955 35.0174C50.6333 34.9992 50.596 34.9202 50.6692 34.936C51.902 35.2016 54.5818 34.9301 56.0584 34.4694Z" fill="#1A2E35"/>
<path d="M50.1922 32.7678C51.9509 33.2152 53.6759 33.0538 55.4241 32.6334C55.4467 32.628 55.4522 32.6609 55.4344 32.6706C54.6352 33.1092 53.493 33.2608 52.5943 33.3039C51.7334 33.345 50.9485 33.2094 50.1765 32.8293C50.1464 32.8146 50.1546 32.7584 50.1922 32.7678Z" fill="#1A2E35"/>
<path d="M85.9521 64.9315C85.7233 65.5607 74.4148 79.7837 73.6407 80.0537C73.3477 80.1577 71.18 78.6314 68.6134 76.7129C68.059 76.2986 67.4894 75.8677 66.913 75.4265C63.1681 72.5673 59.2615 69.446 59.2615 69.446L66.7986 59.9096L74.2425 66.1527L75.8777 67.5218C75.8777 67.5218 82.6431 64.0127 83.5238 63.8078C84.4023 63.606 86.181 64.3024 85.9521 64.9315Z" fill="#FFD2BF"/>
<path d="M85.953 64.9366C85.7242 65.5657 74.4157 79.7888 73.6416 80.0588C73.2841 80.1837 70.1586 77.9051 66.9139 75.4316L74.2435 66.1578L75.8786 67.5269C75.8786 67.5269 82.644 64.0178 83.5247 63.8129C84.4032 63.6111 86.1819 64.3075 85.953 64.9366Z" fill="white"/>
<path d="M85.9476 64.9385C85.7187 65.5676 74.4102 79.7907 73.6361 80.0607C73.3432 80.1647 71.1755 78.6384 68.6089 76.7199L75.8731 67.5288C75.8731 67.5288 82.6386 64.0197 83.5193 63.8148C84.3977 63.613 86.1764 64.3094 85.9476 64.9385Z" fill="url(#paint5_linear_1122_101500)"/>
<path d="M85.2237 64.6783C83.2694 67.016 75.6084 76.6289 73.8543 79.0883C73.8399 79.1083 73.853 79.1188 73.8691 79.1002C75.8567 76.8255 83.4398 67.1507 85.2629 64.7093C85.3015 64.6579 85.265 64.6289 85.2237 64.6783Z" fill="#1A2E35"/>
<path d="M82.2879 64.3161C81.8153 64.8633 81.6443 65.6292 81.736 66.2053C81.824 66.7587 82.0776 67.3739 82.5854 67.7502C82.6 67.7611 82.621 67.7351 82.6081 67.7214C81.7834 66.8434 81.6385 65.3433 82.3177 64.3399C82.3314 64.3197 82.304 64.2974 82.2879 64.3161Z" fill="#1A2E35"/>
<path d="M76.8506 66.7951C76.0786 67.739 75.5358 69.113 75.8447 70.3266C75.8567 70.3736 75.9232 70.356 75.9311 70.316C76.1723 69.0997 76.493 68.0163 76.981 66.8721C77.0154 66.7915 76.9058 66.7276 76.8506 66.7951Z" fill="#1A2E35"/>
<path d="M77.7256 66.2795C76.9536 67.2234 76.4108 68.5974 76.7197 69.811C76.7317 69.8579 76.7982 69.8403 76.8061 69.8004C77.0473 68.5841 77.368 67.5007 77.856 66.3565C77.8904 66.2758 77.7808 66.212 77.7256 66.2795Z" fill="#1A2E35"/>
<path d="M78.5986 65.7717C77.8267 66.7156 77.2838 68.0896 77.5927 69.3032C77.6047 69.3501 77.6714 69.3325 77.6794 69.2926C77.9206 68.0763 78.2413 66.9929 78.7292 65.8486C78.7636 65.768 78.6539 65.7042 78.5986 65.7717Z" fill="#1A2E35"/>
<path d="M79.4677 65.2639C78.6958 66.2078 78.153 67.5818 78.4619 68.7954C78.4739 68.8423 78.5406 68.8247 78.5485 68.7848C78.7897 67.5685 79.1104 66.4849 79.5984 65.3407C79.6328 65.26 79.523 65.1964 79.4677 65.2639Z" fill="#1A2E35"/>
<path d="M72.0759 76.6903C71.2277 77.7633 72.8942 79.0835 73.7437 78.0086C74.5919 76.9354 72.9254 75.6154 72.0759 76.6903Z" fill="#1A2E35"/>
<path d="M75.1279 63.7265C74.3433 63.891 74.2507 64.811 74.4299 65.4395C74.7198 66.4574 75.4007 67.5393 76.1808 68.2466C76.2 68.264 76.2203 68.2552 76.2318 68.2386C76.3164 68.2725 76.4379 68.2374 76.4453 68.1282C76.5155 67.0752 76.7209 65.958 76.4659 64.9148C76.3171 64.3057 75.8701 63.5708 75.1279 63.7265ZM76.2252 66.5099C76.2032 67.0287 76.156 67.5432 76.1531 68.0627C75.8131 67.5141 75.4512 66.9832 75.1667 66.4007C75.031 66.1228 74.8968 65.8345 74.8002 65.5402C74.6498 65.0823 74.5969 63.5114 75.7106 64.242C76.3245 64.6448 76.2513 65.8916 76.2252 66.5099Z" fill="#1A2E35"/>
<path d="M74.6467 70.9079C75.4349 70.1786 75.8798 69.1335 76.4022 68.2165C76.4564 68.1213 76.3744 68.025 76.2851 68.0066C76.2847 67.9866 76.2727 67.9678 76.2471 67.9717C75.2061 68.1312 74.0412 68.6582 73.2378 69.3471C72.7418 69.7726 72.3114 70.5906 72.8749 71.1608C73.408 71.7001 74.1865 71.3339 74.6467 70.9079ZM73.6453 71.0523C72.3134 71.0471 73.2241 69.7663 73.6022 69.4672C73.8453 69.275 74.116 69.1088 74.3826 68.9519C74.9414 68.623 75.5363 68.38 76.1225 68.11C75.8382 68.5448 75.5936 68.9999 75.3257 69.4447C75.0065 69.9749 74.3796 71.0552 73.6453 71.0523Z" fill="#1A2E35"/>
<path d="M73.8671 64.7452L65.9667 75.4044L39.3073 56.9058L36.7366 55.121C36.7366 55.121 36.0088 55.6107 34.913 56.2166C33.3911 57.0578 31.1608 58.1234 29.1877 58.414C25.8781 58.9038 20.3519 58.8511 17.5627 55.121C15.2133 51.9803 16.8183 46.2907 16.8183 46.2907L20.6841 45.8619C20.6841 45.8619 28.7228 39.1569 34.2932 38.941C36.6591 38.847 40.1043 40.6401 43.2948 42.5135C46.4826 44.3841 73.8671 64.7452 73.8671 64.7452Z" fill="#375A64"/>
<path d="M36.736 55.1156C36.736 55.1156 36.0083 55.6053 34.9124 56.2113C32.9755 53.8924 28.8745 49.6808 28.75 49.5312L36.736 55.1156Z" fill="#1A2E35"/>
<path d="M23.2756 43.9237C22.7616 44.2807 22.2644 44.6599 21.7573 45.0263C21.2584 45.3868 20.7433 45.7253 20.2692 46.1188C19.7871 46.519 19.3298 46.9463 18.8754 47.3775C18.6562 47.5856 18.4387 47.7954 18.2268 48.0108C18.0169 48.2244 17.7819 48.4385 17.6078 48.6827C17.5917 48.7054 17.6244 48.7325 17.6459 48.7188C17.8913 48.5614 18.1118 48.3453 18.3348 48.158C18.5754 47.9556 18.8133 47.75 19.0529 47.5464C19.515 47.1535 19.9864 46.7718 20.4475 46.3777C20.9057 45.9863 21.3302 45.5575 21.7838 45.1613C22.2694 44.7369 22.7815 44.342 23.2859 43.9403C23.2953 43.9328 23.2861 43.9164 23.2756 43.9237Z" fill="#1A2E35"/>
<path d="M72.0108 64.3602C71.4978 64.9137 71.0233 65.5092 70.5452 66.0933C70.0652 66.6796 69.5884 67.2685 69.1149 67.86C68.1673 69.0436 67.2119 70.2218 66.2807 71.4184C65.769 72.0758 65.264 72.7379 64.7884 73.4219C64.7672 73.4524 64.8159 73.4868 64.8403 73.4599C65.8597 72.3391 66.7913 71.1433 67.7368 69.9608C68.684 68.7761 69.628 67.5881 70.5574 66.3892C71.0659 65.733 71.59 65.0804 72.0574 64.3944C72.0763 64.3667 72.0328 64.3363 72.0108 64.3602Z" fill="#1A2E35"/>
<path d="M50.8451 47.719C49.9057 46.6311 45.8818 43.7776 43.3128 42.5027C43.2876 42.4901 43.2685 42.5255 43.2918 42.5405C45.8536 44.1864 50.0776 47.3083 50.8058 47.7727C50.8381 47.7935 50.8696 47.7473 50.8451 47.719Z" fill="#1A2E35"/>
<path d="M46.6137 22.375L46.6669 22.4871L46.7859 22.505L46.6998 22.5922L46.7201 22.7154L46.6137 22.6572L46.5072 22.7154L46.5275 22.5922L46.4414 22.505L46.5604 22.4871L46.6137 22.375Z" fill="url(#paint6_linear_1122_101500)"/>
<path d="M43.0407 21.9141L43.2939 22.4273L43.8603 22.5096L43.4506 22.9093L43.5473 23.4734L43.0407 23.207L42.5339 23.4734L42.6308 22.9093L42.2207 22.5096L42.7873 22.4273L43.0407 21.9141Z" fill="url(#paint7_linear_1122_101500)"/>
<path d="M45.0932 21.7656L45.3386 22.263L45.8875 22.3428L45.4902 22.73L45.5841 23.2766L45.0932 23.0185L44.6022 23.2766L44.6959 22.73L44.2988 22.3428L44.8477 22.263L45.0932 21.7656Z" fill="url(#paint8_linear_1122_101500)"/>
<path d="M42.0425 0.203125L42.7523 1.64101L44.3392 1.87177L43.1909 2.99091L43.462 4.57137L42.0425 3.82534L40.6234 4.57137L40.8944 2.99091L39.7461 1.87177L41.3328 1.64101L42.0425 0.203125Z" fill="url(#paint9_linear_1122_101500)"/>
<path d="M45.2821 14.1875L45.7942 15.2655L46.9392 15.4383L46.1106 16.2773L46.3061 17.462L45.2821 16.9026L44.2579 17.462L44.4535 16.2773L43.625 15.4383L44.77 15.2655L45.2821 14.1875Z" fill="url(#paint10_linear_1122_101500)"/>
<path d="M41.1459 7.83594L41.469 8.49084L42.1918 8.59582L41.6689 9.10584L41.7924 9.82562L41.1459 9.48568L40.4992 9.82562L40.6229 9.10584L40.0996 8.59582L40.8225 8.49084L41.1459 7.83594Z" fill="url(#paint11_linear_1122_101500)"/>
<path d="M45.0014 3.36719L45.2468 3.86461L45.7957 3.9444L45.3984 4.33159L45.4923 4.87814L45.0014 4.62009L44.5104 4.87814L44.6041 4.33159L44.207 3.9444L44.7559 3.86461L45.0014 3.36719Z" fill="url(#paint12_linear_1122_101500)"/>
<path d="M62.324 23.5399H51.2031V19.0938H62.324V23.5399Z" fill="#ECECEC"/>
<path d="M51.207 23.5469V24.4304L52.0076 23.5469H51.207Z" fill="#ECECEC"/>
<path d="M55.0668 21.4338C55.0668 22.3896 54.2919 23.1644 53.3361 23.1644C52.3803 23.1644 51.6055 22.3896 51.6055 21.4338C51.6055 20.478 52.3803 19.7031 53.3361 19.7031C54.2919 19.7031 55.0668 20.478 55.0668 21.4338Z" fill="white"/>
<path d="M56.3118 20.0547L56.4384 20.311L56.7213 20.3522L56.5166 20.5517L56.5649 20.8335L56.3118 20.7005L56.0588 20.8335L56.1071 20.5517L55.9023 20.3522L56.1853 20.311L56.3118 20.0547Z" fill="url(#paint13_linear_1122_101500)"/>
<path d="M57.4271 20.0547L57.5536 20.311L57.8365 20.3522L57.6318 20.5517L57.6801 20.8335L57.4271 20.7005L57.174 20.8335L57.2223 20.5517L57.0176 20.3522L57.3005 20.311L57.4271 20.0547Z" fill="url(#paint14_linear_1122_101500)"/>
<path d="M58.5403 20.0547L58.6669 20.311L58.9498 20.3522L58.7451 20.5517L58.7934 20.8335L58.5403 20.7005L58.2873 20.8335L58.3356 20.5517L58.1309 20.3522L58.4138 20.311L58.5403 20.0547Z" fill="url(#paint15_linear_1122_101500)"/>
<path d="M59.6556 20.0547L59.7821 20.311L60.065 20.3522L59.8603 20.5517L59.9086 20.8335L59.6556 20.7005L59.4025 20.8335L59.4508 20.5517L59.2461 20.3522L59.529 20.311L59.6556 20.0547Z" fill="url(#paint16_linear_1122_101500)"/>
<path d="M60.7689 20.0547L60.8954 20.311L61.1783 20.3522L60.9736 20.5517L61.0219 20.8335L60.7689 20.7005L60.5158 20.8335L60.5641 20.5517L60.3594 20.3522L60.6423 20.311L60.7689 20.0547Z" fill="url(#paint17_linear_1122_101500)"/>
<path d="M61.1788 21.4235H55.9023V21.3125H61.1788V21.4235Z" fill="#1A2E35"/>
<path d="M59.8281 21.7672H55.9023V21.6562H59.8281V21.7672Z" fill="white"/>
<path d="M60.6025 22.111H55.9023V22H60.6025V22.111Z" fill="white"/>
<path d="M57.9192 22.4391H55.9023V22.3281H57.9192V22.4391Z" fill="white"/>
<path d="M55.1465 22.7619H54.9991C54.9839 22.5732 54.8644 22.285 54.8949 22.4305C54.9183 22.5401 54.9174 22.6802 54.9138 22.7619H52.4152C52.3865 22.4781 52.513 22.0119 52.513 22.0119C52.3684 22.2463 52.3127 22.5787 52.292 22.7619H52.056C52.0316 22.5921 52.0917 22.3029 52.0917 22.3029C52.027 22.417 51.9884 22.6307 51.9704 22.7619H51.7019C51.692 22.4781 51.7881 22.1053 52.0144 21.7676C52.1959 21.4963 51.9713 21.3382 51.9758 20.8101C51.9803 20.1077 52.4626 19.8383 52.5426 19.7646C53.633 18.7542 54.6228 19.6919 54.7288 20.3592C54.8312 21.0122 54.6435 21.0984 54.9471 21.6912C55.1761 22.1367 55.1465 22.7619 55.1465 22.7619Z" fill="#1A2E35"/>
<path d="M52.209 23.125C52.2111 23.127 52.2139 23.1281 52.216 23.1301C52.5787 23.3769 53.2949 23.8116 53.6777 23.6736C53.9724 23.5674 54.1449 23.2643 54.1648 23.1679C54.0102 23.0297 53.7898 22.9041 53.6916 22.8386C53.1264 22.4632 52.6168 22.6884 52.209 23.125Z" fill="#375A64"/>
<path d="M52.7593 22.8896C52.7849 22.9733 53.2275 23.498 53.6148 23.4538C53.7409 23.4392 53.6919 22.7473 53.6919 22.7473L53.7001 22.6954L53.8123 21.9687L52.9352 21.4852L52.8089 21.4219C52.8089 21.4219 52.7913 21.6227 52.7719 21.873C52.7709 21.8847 52.7699 21.8963 52.7691 21.9087C52.7676 21.9228 52.766 21.9362 52.7653 21.9494C52.7619 21.9867 52.7586 22.0249 52.7561 22.0629C52.7541 22.0919 52.752 22.1201 52.751 22.1506C52.7492 22.1812 52.7481 22.2108 52.7463 22.2414C52.7352 22.5432 52.749 22.854 52.7593 22.8896Z" fill="#FB6A55"/>
<path d="M52.7715 21.873C53.0147 22.4292 53.4854 22.6311 53.6997 22.6954L53.8119 21.9687L52.9348 21.4852L52.8085 21.4219C52.8085 21.4219 52.7909 21.6227 52.7715 21.873Z" fill="#1A2E35"/>
<path d="M54.7111 20.7812C54.9136 22.0557 54.1732 22.3209 53.8983 22.3643C53.6488 22.4037 52.7941 22.506 52.461 21.2593C52.1279 20.0124 52.6564 19.5154 53.2224 19.3952C53.7883 19.275 54.5087 19.5067 54.7111 20.7812Z" fill="#FB6A55"/>
<path d="M52.568 21.3555C52.8873 21.3176 52.8986 20.3256 52.8987 20.2038C52.9027 20.2805 52.9251 20.6867 52.9574 20.7003C52.9656 20.7034 53.0007 20.693 53.0563 20.673L53.0571 20.6727C53.0534 20.6268 53.053 20.5769 53.0567 20.5268C53.0574 20.5041 53.0692 20.5749 53.0887 20.6614C53.1065 20.6549 53.1256 20.6473 53.1465 20.6401C53.1369 20.553 53.1332 20.4445 53.1515 20.3294C53.1577 20.2905 53.1822 20.4618 53.2313 20.6092C53.4473 20.5313 53.7598 20.4265 54.0574 20.3919C54.137 20.3822 54.206 20.3775 54.2672 20.3754C54.2578 20.2557 54.2334 20.1294 54.2445 20.1562C54.2775 20.2322 54.299 20.309 54.3129 20.3743C54.3461 20.3734 54.3769 20.3732 54.4045 20.3736C54.3987 20.2039 54.296 19.9409 54.3265 19.9799C54.4432 20.1313 54.5003 20.2953 54.5242 20.3825C54.6413 20.3952 54.675 20.4152 54.6757 20.385C54.6768 20.3305 54.5716 19.8632 54.1745 19.547C53.743 19.2034 52.9367 19.1749 52.5348 19.7929C52.5348 19.7929 52.1842 20.0655 52.1581 20.4602C52.1319 20.854 52.3835 21.3771 52.568 21.3555Z" fill="#1A2E35"/>
<path d="M54.1839 21.5288C54.1839 21.5288 54.1403 21.6213 54.0645 21.6667C54.0366 21.6836 54.005 21.6944 53.9693 21.6921C53.8958 21.6878 53.8812 21.6241 53.883 21.5667C53.8843 21.5196 53.8974 21.4766 53.8974 21.4766C53.8974 21.4766 54.0185 21.5515 54.1839 21.5288Z" fill="white"/>
<path d="M54.4485 20.6164C54.418 20.6156 54.39 20.6097 54.36 20.6057C54.3261 20.6012 54.2986 20.6012 54.2718 20.5776C54.2574 20.5649 54.2561 20.5369 54.267 20.5217C54.2926 20.4865 54.3354 20.4817 54.3765 20.4854C54.421 20.4895 54.4542 20.504 54.4862 20.5351C54.5171 20.5654 54.4887 20.6175 54.4485 20.6164Z" fill="#1A2E35"/>
<path d="M53.5596 20.7271C53.5894 20.721 53.6159 20.7103 53.6448 20.7012C53.6774 20.6909 53.7044 20.686 53.7267 20.6581C53.7387 20.6432 53.7351 20.6153 53.7217 20.6023C53.6904 20.5721 53.6474 20.5748 53.6076 20.5856C53.5645 20.5973 53.5342 20.6175 53.5082 20.6537C53.483 20.6889 53.5202 20.7353 53.5596 20.7271Z" fill="#1A2E35"/>
<path d="M53.7544 21.032C53.7534 21.0288 53.7481 21.0369 53.7486 21.0405C53.7611 21.1274 53.7608 21.2293 53.685 21.2671C53.6826 21.2682 53.6834 21.2726 53.6863 21.2719C53.7812 21.2476 53.7802 21.1124 53.7544 21.032Z" fill="#1A2E35"/>
<path d="M53.6679 20.9454C53.5263 20.9503 53.5467 21.2333 53.678 21.2286C53.8071 21.2241 53.7867 20.9412 53.6679 20.9454Z" fill="#1A2E35"/>
<path d="M53.6142 20.9707C53.5906 20.9885 53.5685 21.0184 53.5389 21.0235C53.5046 21.0294 53.4765 21.0017 53.4519 20.9748C53.4494 20.972 53.4471 20.9747 53.4473 20.9784C53.4504 21.0327 53.4752 21.0868 53.5339 21.0907C53.5875 21.0943 53.6221 21.0436 53.6317 20.9881C53.6335 20.9778 53.6237 20.9635 53.6142 20.9707Z" fill="#1A2E35"/>
<path d="M54.2976 20.954C54.2981 20.9506 54.3047 20.9578 54.3048 20.9613C54.3077 21.0492 54.3257 21.1494 54.407 21.1734C54.4095 21.1741 54.4095 21.1785 54.4066 21.1783C54.3089 21.1709 54.2862 21.0377 54.2976 20.954Z" fill="#1A2E35"/>
<path d="M54.371 20.8526C54.5113 20.8328 54.5406 21.115 54.4105 21.1333C54.2826 21.1513 54.2533 20.8691 54.371 20.8526Z" fill="#1A2E35"/>
<path d="M54.437 20.882C54.4609 20.8947 54.4857 20.9195 54.5126 20.9185C54.5436 20.9173 54.5633 20.8845 54.58 20.8531C54.5817 20.8499 54.5841 20.8521 54.5846 20.8558C54.5917 20.9096 54.5797 20.9676 54.529 20.9833C54.4827 20.9976 54.4432 20.9549 54.4248 20.9026C54.4214 20.8929 54.4274 20.8769 54.437 20.882Z" fill="#1A2E35"/>
<path d="M53.8484 21.7045C53.87 21.7245 53.8917 21.7522 53.9237 21.7541C53.9543 21.7558 53.9898 21.7411 54.0175 21.7295C54.0203 21.7283 54.0231 21.7311 54.0214 21.7338C53.9995 21.7681 53.9522 21.7905 53.9112 21.7845C53.8713 21.7786 53.8507 21.7448 53.8401 21.7087C53.8385 21.7036 53.8453 21.7015 53.8484 21.7045Z" fill="#1A2E35"/>
<path d="M54.1913 21.3421C54.1913 21.3421 54.2204 21.4714 54.2256 21.5331C54.226 21.5389 54.2113 21.5428 54.1905 21.5458C54.1895 21.5462 54.189 21.5466 54.1881 21.5461C54.0806 21.5722 53.9678 21.5438 53.8941 21.4605C53.8894 21.4548 53.8966 21.4478 53.9026 21.4511C53.9889 21.504 54.08 21.5119 54.1768 21.5054C54.1797 21.488 54.1196 21.2857 54.1293 21.2841C54.1629 21.2784 54.2312 21.2958 54.2721 21.3041C54.2194 21.0331 54.1237 20.7728 54.0753 20.5021C54.0737 20.4924 54.0875 20.4883 54.0911 20.4968C54.2107 20.7626 54.2782 21.073 54.3398 21.3515C54.3478 21.3862 54.2169 21.3505 54.1913 21.3421Z" fill="#1A2E35"/>
<defs>
<filter id="filter0_f_1122_101500" x="0.194802" y="72.1909" width="83.9346" height="14.2979" filterUnits="userSpaceOnUse" color-interpolation-filters="sRGB">
<feFlood flood-opacity="0" result="BackgroundImageFix"/>
<feBlend mode="normal" in="SourceGraphic" in2="BackgroundImageFix" result="shape"/>
<feGaussianBlur stdDeviation="1.34596" result="effect1_foregroundBlur_1122_101500"/>
</filter>
<linearGradient id="paint0_linear_1122_101500" x1="50.3503" y1="77.9277" x2="32.8888" y2="76.1333" gradientUnits="userSpaceOnUse">
<stop stop-color="#580DB7"/>
<stop offset="0.84375" stop-color="#AB69FF"/>
</linearGradient>
<linearGradient id="paint1_linear_1122_101500" x1="51.3185" y1="38.5472" x2="23.1793" y2="33.0647" gradientUnits="userSpaceOnUse">
<stop stop-color="#580DB7"/>
<stop offset="0.84375" stop-color="#AB69FF"/>
</linearGradient>
<linearGradient id="paint2_linear_1122_101500" x1="33.4366" y1="46.3745" x2="14.4277" y2="44.8184" gradientUnits="userSpaceOnUse">
<stop stop-color="#580DB7"/>
<stop offset="0.84375" stop-color="#AB69FF"/>
</linearGradient>
<linearGradient id="paint3_linear_1122_101500" x1="27.9397" y1="28.3435" x2="21.7996" y2="27.6762" gradientUnits="userSpaceOnUse">
<stop stop-color="#580DB7"/>
<stop offset="0.84375" stop-color="#AB69FF"/>
</linearGradient>
<linearGradient id="paint4_linear_1122_101500" x1="36.68" y1="43.3568" x2="17.9414" y2="41.474" gradientUnits="userSpaceOnUse">
<stop stop-color="#580DB7"/>
<stop offset="0.84375" stop-color="#AB69FF"/>
</linearGradient>
<linearGradient id="paint5_linear_1122_101500" x1="86.0547" y1="79.9943" x2="67.3906" y2="77.9002" gradientUnits="userSpaceOnUse">
<stop stop-color="#580DB7"/>
<stop offset="0.84375" stop-color="#AB69FF"/>
</linearGradient>
<linearGradient id="paint6_linear_1122_101500" x1="46.7859" y1="22.7154" x2="46.4166" y2="22.6743" gradientUnits="userSpaceOnUse">
<stop stop-color="#580DB7"/>
<stop offset="0.84375" stop-color="#AB69FF"/>
</linearGradient>
<linearGradient id="paint7_linear_1122_101500" x1="43.8603" y1="23.4734" x2="42.1044" y2="23.2705" gradientUnits="userSpaceOnUse">
<stop stop-color="#580DB7"/>
<stop offset="0.84375" stop-color="#AB69FF"/>
</linearGradient>
<linearGradient id="paint8_linear_1122_101500" x1="45.8875" y1="23.2766" x2="44.1862" y2="23.08" gradientUnits="userSpaceOnUse">
<stop stop-color="#580DB7"/>
<stop offset="0.84375" stop-color="#AB69FF"/>
</linearGradient>
<linearGradient id="paint9_linear_1122_101500" x1="44.3392" y1="4.57137" x2="39.4204" y2="4.00302" gradientUnits="userSpaceOnUse">
<stop stop-color="#580DB7"/>
<stop offset="0.84375" stop-color="#AB69FF"/>
</linearGradient>
<linearGradient id="paint10_linear_1122_101500" x1="46.9392" y1="17.462" x2="43.3866" y2="17.0669" gradientUnits="userSpaceOnUse">
<stop stop-color="#580DB7"/>
<stop offset="0.84375" stop-color="#AB69FF"/>
</linearGradient>
<linearGradient id="paint11_linear_1122_101500" x1="42.1918" y1="9.82562" x2="39.9513" y2="9.56674" gradientUnits="userSpaceOnUse">
<stop stop-color="#580DB7"/>
<stop offset="0.84375" stop-color="#AB69FF"/>
</linearGradient>
<linearGradient id="paint12_linear_1122_101500" x1="45.7957" y1="4.87814" x2="44.0944" y2="4.68157" gradientUnits="userSpaceOnUse">
<stop stop-color="#580DB7"/>
<stop offset="0.84375" stop-color="#AB69FF"/>
</linearGradient>
<linearGradient id="paint13_linear_1122_101500" x1="56.7213" y1="20.8335" x2="55.8443" y2="20.7322" gradientUnits="userSpaceOnUse">
<stop stop-color="#580DB7"/>
<stop offset="0.84375" stop-color="#AB69FF"/>
</linearGradient>
<linearGradient id="paint14_linear_1122_101500" x1="57.8365" y1="20.8335" x2="56.9595" y2="20.7322" gradientUnits="userSpaceOnUse">
<stop stop-color="#580DB7"/>
<stop offset="0.84375" stop-color="#AB69FF"/>
</linearGradient>
<linearGradient id="paint15_linear_1122_101500" x1="58.9498" y1="20.8335" x2="58.0728" y2="20.7322" gradientUnits="userSpaceOnUse">
<stop stop-color="#580DB7"/>
<stop offset="0.84375" stop-color="#AB69FF"/>
</linearGradient>
<linearGradient id="paint16_linear_1122_101500" x1="60.065" y1="20.8335" x2="59.188" y2="20.7322" gradientUnits="userSpaceOnUse">
<stop stop-color="#580DB7"/>
<stop offset="0.84375" stop-color="#AB69FF"/>
</linearGradient>
<linearGradient id="paint17_linear_1122_101500" x1="61.1783" y1="20.8335" x2="60.3013" y2="20.7322" gradientUnits="userSpaceOnUse">
<stop stop-color="#580DB7"/>
<stop offset="0.84375" stop-color="#AB69FF"/>
</linearGradient>
</defs>
</svg>
