<svg width="196" height="157" viewBox="0 0 196 157" fill="none" xmlns="http://www.w3.org/2000/svg">
<path d="M187.065 126.092C185.832 126.622 180.961 128.945 178.523 133.464C176.084 137.982 176.819 143.327 177.056 144.649C178.289 144.118 183.157 141.798 185.595 137.277C188.034 132.756 187.299 127.413 187.065 126.092ZM176.603 145.07C176.591 145.004 175.178 138.563 178.061 133.215C180.946 127.864 187.106 125.505 187.169 125.482L187.447 125.375L187.515 125.668C187.53 125.731 188.943 132.175 186.058 137.526C183.175 142.874 177.015 145.235 176.952 145.259L176.671 145.366L176.603 145.07Z" fill="#3F3D56"/>
<path d="M183.848 135.643C178.663 138.763 176.666 144.961 176.666 144.961C176.666 144.961 183.075 146.096 188.26 142.979C193.445 139.859 195.439 133.664 195.439 133.664C195.439 133.664 189.033 132.526 183.848 135.643Z" fill="url(#paint0_linear_1069_96292)"/>
<path d="M68.7531 0.494809L68.7323 0.0503697C69.5501 0.0177776 70.3827 0 71.2093 0H71.4079V0.444439H71.2093C70.3886 0.444439 69.562 0.462216 68.7531 0.494809ZM76.7115 0.702213C75.8345 0.619251 74.9456 0.554067 74.0626 0.512586L74.0834 0.0681473C74.9723 0.112591 75.87 0.174813 76.753 0.260737L76.7115 0.702213ZM63.4613 0.957025L63.405 0.515549C64.285 0.399995 65.1798 0.299256 66.0627 0.225182L66.1013 0.666658C65.2242 0.740731 64.3354 0.838508 63.4613 0.957025ZM81.9677 1.43998C81.1025 1.27702 80.2226 1.13184 79.3485 1.01036L79.4107 0.571845C80.2907 0.696288 81.1766 0.841471 82.0507 1.00443L81.9677 1.43998ZM58.2377 1.89924L58.1399 1.46665C59.0051 1.26813 59.885 1.09036 60.7591 0.930359L60.8391 1.36887C59.971 1.52294 59.0969 1.70368 58.2377 1.89924ZM87.1351 2.66071C86.2877 2.41775 85.4225 2.19257 84.5662 1.99109L84.6669 1.5585C85.5321 1.76294 86.4032 1.98812 87.2565 2.23108L87.1351 2.66071ZM53.1207 3.31848L52.9844 2.89774C53.8288 2.61923 54.691 2.35849 55.5444 2.12145L55.6629 2.55108C54.8155 2.78811 53.9592 3.04293 53.1207 3.31848ZM92.175 4.34958C91.3513 4.02958 90.5098 3.7244 89.6713 3.44292L89.8135 3.02515C90.6609 3.30663 91.5054 3.61181 92.335 3.93477L92.175 4.34958ZM48.1637 5.2029L47.9889 4.79401C48.8007 4.44143 49.6333 4.10365 50.46 3.78958L50.617 4.20439C49.7963 4.5155 48.9696 4.85327 48.1637 5.2029ZM97.0401 6.50066C96.249 6.10659 95.4401 5.72734 94.6342 5.36882L94.812 4.9629C95.6268 5.32141 96.4416 5.7066 97.2386 6.10066L97.0401 6.50066ZM43.4052 7.53176L43.1889 7.14065C43.9652 6.71695 44.7682 6.30214 45.5623 5.914L45.7578 6.31103C44.9697 6.69621 44.1786 7.10806 43.4052 7.53176ZM38.872 10.2873L38.626 9.91691C39.3608 9.4221 40.1164 8.93618 40.8779 8.47693L41.109 8.85619C40.3564 9.31544 39.6008 9.79543 38.872 10.2873ZM34.6113 13.4458L34.3298 13.1021C35.0172 12.5421 35.7283 11.991 36.4424 11.4606L36.7061 11.8191C35.9979 12.3435 35.2928 12.8887 34.6113 13.4458ZM110.166 15.4754C109.514 14.8828 108.839 14.2961 108.157 13.7361L108.441 13.3924C109.123 13.9583 109.804 14.548 110.462 15.1465L110.166 15.4754ZM30.6498 16.9835L30.3387 16.6635C30.9728 16.0413 31.6306 15.4309 32.2943 14.8383L32.5906 15.1702C31.9358 15.7568 31.2809 16.3642 30.6498 16.9835ZM113.932 19.2175C113.333 18.5687 112.714 17.9227 112.089 17.3035L112.403 16.9894C113.034 17.6146 113.653 18.2635 114.258 18.9183L113.932 19.2175ZM27.0292 20.8649L26.6884 20.5746C27.2662 19.902 27.8617 19.2294 28.4691 18.5775L28.7951 18.8827C28.1906 19.5286 27.601 20.1953 27.0292 20.8649ZM117.342 23.2856C116.806 22.5834 116.246 21.8871 115.683 21.2116L116.024 20.9301C116.592 21.6086 117.155 22.3108 117.695 23.016L117.342 23.2856ZM23.7699 25.0634L23.4085 24.8056C23.921 24.0797 24.4573 23.3538 25.0025 22.6516L25.3521 22.9271C24.8099 23.6234 24.2796 24.3434 23.7699 25.0634ZM120.361 27.6471C119.893 26.8974 119.404 26.1537 118.904 25.4308L119.268 25.1789C119.772 25.9078 120.267 26.6545 120.741 27.4071L120.361 27.6471ZM20.9107 29.5404L20.5255 29.3182C20.967 28.5508 21.4381 27.7804 21.9151 27.0308L22.2914 27.2678C21.8144 28.0145 21.3522 28.7759 20.9107 29.5404ZM122.975 32.2603C122.578 31.4752 122.154 30.69 121.721 29.9256L122.109 29.7033C122.545 30.4737 122.969 31.2678 123.372 32.0589L122.975 32.2603ZM18.4693 34.2692L18.0693 34.0825C18.4396 33.2737 18.8337 32.4648 19.2426 31.6737L19.6367 31.8781C19.2337 32.6633 18.8396 33.4662 18.4693 34.2692ZM125.149 37.0899C124.823 36.2721 124.477 35.4514 124.118 34.6514L124.521 34.4677C124.886 35.2736 125.238 36.1003 125.564 36.9269L125.149 37.0899ZM16.4782 39.1995L16.0574 39.0514C16.3537 38.2099 16.6708 37.3714 17.0056 36.5447L17.4174 36.7107C17.0856 37.5284 16.7715 38.3669 16.4782 39.1995ZM126.877 42.1091C126.628 41.2647 126.355 40.4113 126.071 39.5817L126.492 39.4365C126.779 40.2751 127.052 41.1313 127.303 41.9847L126.877 42.1091ZM14.9463 44.2928L14.5167 44.1832C14.733 43.3239 14.973 42.4558 15.2278 41.6024L15.6515 41.7328C15.3967 42.5772 15.1626 43.4365 14.9463 44.2928ZM128.13 47.2705C127.961 46.4024 127.772 45.5313 127.564 44.678L127.994 44.5713C128.204 45.4335 128.397 46.3105 128.569 47.1846L128.13 47.2705ZM13.8945 49.4957L13.456 49.4275C13.5923 48.5475 13.7493 47.6616 13.9241 46.7935L14.3597 46.8824C14.1849 47.7446 14.0278 48.6246 13.8945 49.4957ZM128.921 52.0645C128.832 51.1875 128.711 50.7609 128.58 49.8868L129.019 49.8216C129.149 50.7016 129.262 51.3712 129.351 52.2542L128.921 52.0645ZM13.3227 54.7756L12.8782 54.746C12.9345 53.8601 13.0115 52.9623 13.1064 52.0823L13.5478 52.1268C13.453 53.0038 13.379 53.8927 13.3227 54.7756ZM12.7864 60.0941C12.7716 59.5489 12.7656 58.9948 12.7656 58.4437C12.7656 58.1 12.7656 57.7593 12.7716 57.4185L13.216 57.4274C13.2101 57.7652 13.2101 58.103 13.2101 58.4437C13.2101 58.9889 13.216 59.5459 13.2308 60.0852L12.7864 60.0941ZM129.591 61.1192L129.146 61.0985C129.185 60.2155 129.209 59.3237 129.209 58.4437H129.653C129.653 59.3296 129.629 60.2304 129.591 61.1192ZM13.1775 65.4333C13.0738 64.5533 12.9878 63.6525 12.9227 62.7666L13.3641 62.734C13.4293 63.617 13.5152 64.5059 13.6189 65.3799L13.1775 65.4333ZM129.108 66.4466L128.666 66.3844C128.788 65.5133 128.886 64.6273 128.966 63.7474L129.41 63.7888C129.33 64.6748 129.229 65.5696 129.108 66.4466ZM14.0515 70.7102C13.8678 69.8421 13.6989 68.9591 13.5538 68.0821L13.9923 68.008C14.1375 68.8762 14.3063 69.7562 14.49 70.6184L14.0515 70.7102ZM128.139 71.7087L127.706 71.608C127.905 70.7517 128.086 69.8776 128.246 69.0095L128.684 69.0895C128.521 69.9636 128.34 70.8465 128.139 71.7087ZM15.4115 75.8835C15.1478 75.0361 14.8989 74.1709 14.6737 73.3117L15.1004 73.1991C15.3256 74.0524 15.5745 74.9117 15.8352 75.7531L15.4115 75.8835ZM126.69 76.8583L126.269 76.719C126.548 75.8835 126.806 75.0272 127.046 74.1798L127.472 74.2983C127.232 75.1546 126.969 76.0168 126.69 76.8583ZM17.2367 80.9057C16.893 80.0879 16.57 79.2523 16.2678 78.4198L16.6856 78.2687C16.9848 79.0953 17.3078 79.922 17.6456 80.7338L17.2367 80.9057ZM124.77 81.8656L124.361 81.6879C124.714 80.879 125.055 80.0494 125.372 79.2257L125.786 79.3827C125.469 80.2123 125.126 81.0508 124.77 81.8656ZM122.397 86.6715L122.009 86.4552C122.435 85.6819 122.847 84.8908 123.238 84.0997L123.638 84.2952C123.241 85.0952 122.826 85.8952 122.397 86.6715ZM22.2262 90.3396C21.7403 89.5959 21.2692 88.8315 20.8189 88.0671L21.2011 87.8419C21.6514 88.6004 22.1166 89.3589 22.5996 90.0966L22.2262 90.3396ZM119.591 91.2344L119.227 90.9855C119.721 90.2567 120.204 89.5041 120.666 88.7515L121.046 88.9855C120.581 89.7411 120.092 90.4996 119.591 91.2344ZM25.3492 94.6803C24.7981 93.984 24.2559 93.267 23.7373 92.544L24.0988 92.2833C24.6114 92.9974 25.1507 93.7114 25.6958 94.4018L25.3492 94.6803ZM116.385 95.5218L116.044 95.2373C116.604 94.5588 117.152 93.8536 117.683 93.1485L118.038 93.4151C117.505 94.1262 116.951 94.8344 116.385 95.5218ZM28.8543 98.7158C28.241 98.0699 27.6366 97.4062 27.0558 96.7366L27.3906 96.4462C27.9684 97.1099 28.5699 97.7736 29.1773 98.4106L28.8543 98.7158ZM112.803 99.498L112.489 99.184C113.108 98.5558 113.721 97.9069 114.311 97.2551L114.64 97.5484C114.044 98.2091 113.428 98.864 112.803 99.498ZM32.715 102.422C32.0483 101.836 31.3847 101.231 30.7417 100.615L31.0498 100.292C31.6839 100.902 32.3476 101.507 33.0083 102.088L32.715 102.422ZM108.877 103.131L108.59 102.79C109.262 102.224 109.932 101.631 110.578 101.033L110.88 101.359C110.228 101.963 109.556 102.559 108.877 103.131ZM36.8987 105.762C36.1816 105.24 35.4646 104.698 34.7683 104.141L35.0468 103.791C35.7402 104.342 36.4483 104.885 37.1594 105.403L36.8987 105.762ZM104.637 106.387L104.382 106.025C105.105 105.522 105.822 104.991 106.521 104.455L106.794 104.808C106.089 105.35 105.366 105.88 104.637 106.387ZM100.122 109.246L99.9023 108.858C100.67 108.422 101.434 107.963 102.175 107.495L102.412 107.871C101.662 108.342 100.895 108.808 100.122 109.246ZM95.3661 111.676L95.1824 111.273C95.9824 110.911 96.7824 110.52 97.5705 110.12L97.772 110.517C96.9809 110.923 96.169 111.308 95.3661 111.676ZM51.0407 113.314C50.2052 113.006 49.3637 112.677 48.543 112.33L48.7178 111.922C49.5326 112.262 50.3622 112.591 51.1918 112.896L51.0407 113.314ZM90.4032 113.661L90.258 113.243C91.0876 112.953 91.9261 112.642 92.7439 112.313L92.9098 112.725C92.0861 113.053 91.2417 113.37 90.4032 113.661ZM56.1458 114.929C55.2895 114.701 54.4244 114.449 53.577 114.179L53.7103 113.759C54.5488 114.022 55.4081 114.271 56.2614 114.499L56.1458 114.929ZM85.2744 115.184L85.1677 114.751C86.024 114.541 86.8891 114.307 87.7306 114.058L87.8551 114.482C87.0077 114.736 86.1395 114.97 85.2744 115.184ZM61.3754 116.064C60.4984 115.916 59.6154 115.747 58.7473 115.557L58.8421 115.124C59.7043 115.311 60.5784 115.48 61.4495 115.625L61.3754 116.064ZM80.027 116.227L79.9618 115.788C80.8359 115.655 81.7129 115.501 82.5751 115.329L82.664 115.764C81.7959 115.939 80.907 116.09 80.027 116.227ZM66.685 116.713C65.799 116.647 64.9042 116.559 64.0242 116.449L64.0776 116.01C64.9516 116.117 65.8376 116.206 66.7175 116.271L66.685 116.713ZM74.7056 116.787L74.6819 116.342C75.5589 116.292 76.4508 116.218 77.3278 116.126L77.3722 116.564C76.4893 116.656 75.5915 116.733 74.7056 116.787ZM71.2093 116.887C70.5901 116.887 69.9679 116.879 69.3575 116.858L69.3694 116.413C70.2464 116.443 71.1412 116.452 72.0241 116.437L72.033 116.882C71.7575 116.887 71.4849 116.887 71.2093 116.887Z" fill="#3F3D56"/>
<path d="M132.895 70.2327L135.117 104.677C135.117 104.677 140.451 118.232 140.228 131.121C140.228 131.121 138.228 136.232 139.784 137.121C141.339 138.01 142.228 138.676 141.339 139.343C140.451 140.01 139.784 141.565 140.451 142.01C141.117 142.454 141.339 143.121 141.117 143.121H134.451C134.451 143.121 135.784 139.787 133.784 138.899C131.784 138.01 132.895 135.787 132.895 135.787L118.006 92.2325L106.229 132.232C106.229 132.232 108.229 133.565 106.673 134.232C105.118 134.899 104.451 133.565 105.118 134.899C105.784 136.232 104.895 136.899 104.895 137.121C104.895 137.343 98.2289 136.454 98.2289 136.454C98.2289 136.454 101.562 133.565 100.007 132.899C98.4511 132.232 97.7845 131.565 98.2289 131.121C98.6734 130.676 100.451 126.454 100.451 126.454C100.451 126.454 101.34 110.454 101.562 109.788C101.784 109.121 101.562 106.01 101.562 104.455C101.562 102.899 101.34 96.6768 102.007 95.1213C102.673 93.5658 103.34 74.4549 106.895 72.2327C110.451 70.0105 132.895 70.2327 132.895 70.2327Z" fill="#2D2D3F"/>
<path d="M104.67 136.007C104.67 136.007 109.114 145.118 106.003 146.229C102.892 147.34 98.8923 146.451 98.0034 147.784C97.1146 149.118 87.3369 150.673 87.1147 147.34C86.8925 144.007 97.7812 137.784 97.7812 137.784L99.1975 135.5L104.67 136.007Z" fill="#2D2D3F"/>
<path d="M140.668 142.679C140.668 142.679 145.112 151.79 142.001 152.901C138.89 154.012 134.89 153.123 134.001 154.456C133.113 155.789 123.335 157.345 123.113 154.012C122.891 150.678 133.779 144.456 133.779 144.456L135.196 142.172L140.668 142.679Z" fill="#2D2D3F"/>
<path d="M120.114 28.354C116.058 28.354 112.781 25.074 112.781 21.0207C112.781 16.9645 116.058 13.6875 120.114 13.6875C124.171 13.6875 127.448 16.9645 127.448 21.0207C127.448 25.074 124.171 28.354 120.114 28.354Z" fill="#F4C9D0"/>
<path d="M125.114 24.8906L124.226 31.335L117.559 36.446L115.781 34.0016V25.5573L125.114 24.8906Z" fill="#F4C9D0"/>
<path d="M114.669 33.1215C114.669 33.1215 121.557 33.7882 125.113 31.3438L132.224 73.3432C132.224 73.3432 107.113 75.3432 106.002 74.0099V60.8989L110.446 39.5659L114.669 33.1215Z" fill="#3F3D56"/>
<path d="M124.505 29.3438L126.893 31.3526C126.893 31.3526 136.671 32.9081 136.004 35.5748L133.338 67.1299L134.226 77.7965C134.226 77.7965 126.671 75.7965 120.893 77.7965C115.116 79.7965 119.705 34.8163 119.705 34.8163C119.705 34.8163 125.003 30.0015 124.505 29.3438Z" fill="url(#paint1_linear_1069_96292)"/>
<path d="M115.778 31.7578C115.778 31.7578 108.667 36.8896 107.778 40.2229C106.889 43.5562 104 78.6669 104 78.6669C104 78.6669 105.333 78.0002 106 79.1113C106.667 80.2224 116.889 33.5148 115.778 31.7578Z" fill="url(#paint2_linear_1069_96292)"/>
<path d="M112.784 20.701C112.784 20.701 111.987 19.51 112.295 18.227C112.34 18.0463 112.378 17.8626 112.411 17.6759C112.444 17.4922 112.467 17.3055 112.485 17.1189C112.503 16.9322 112.515 16.7455 112.518 16.5589C112.524 16.3693 112.521 16.1856 112.509 15.9989C112.497 15.8122 113.152 13.9189 113.792 12.7604C114.432 11.6019 114.127 11.1101 116.141 10.7456C118.156 10.3812 117.332 7.75306 122.645 10.5945C122.734 10.719 122.84 10.8315 122.962 10.9204C123.083 11.0152 123.22 11.0893 123.362 11.1427C123.507 11.1989 123.655 11.2286 123.809 11.2404C123.963 11.2523 124.115 11.2375 124.263 11.2049C125.362 10.9886 125.759 12.5174 125.759 12.5174C125.759 12.5174 126.491 12.0908 126.766 12.7011C127.039 13.3115 129 12.3337 129 16.4552C129 20.5766 126.772 24.2595 126.772 24.2595C126.772 24.2595 126.932 17.3233 123.3 16.6211C119.667 15.9189 115.762 13.8745 114.814 16.4996C114.687 16.87 114.547 17.2344 114.399 17.5929C114.251 17.9515 114.091 18.307 113.922 18.6596C113.75 19.0092 113.569 19.3588 113.38 19.6966C113.19 20.0374 112.992 20.3722 112.784 20.701Z" fill="#2D2D3F"/>
<path d="M126.852 22.3408C126.455 22.3408 126.135 21.9141 126.135 21.3867C126.135 20.8563 126.455 20.4297 126.852 20.4297C127.249 20.4297 127.569 20.8563 127.569 21.3867C127.569 21.9141 127.249 22.3408 126.852 22.3408Z" fill="#F4C9D0"/>
<path d="M96.7362 90.1031C94.9792 89.0453 92.8547 89.1253 92.0488 89.2083C92.357 89.9579 93.2814 91.866 95.0384 92.9238C96.8014 93.9845 98.9169 93.9016 99.7198 93.8216C99.4117 93.0719 98.4932 91.1609 96.7362 90.1031Z" fill="url(#paint3_linear_1069_96292)"/>
<path d="M104.99 111.086H94.0004C93.3456 111.086 92.7174 111.35 92.2523 111.812C91.7871 112.277 91.5293 112.905 91.5293 113.56C91.5293 114.215 91.7871 114.843 92.2523 115.308C92.7174 115.773 93.3456 116.034 94.0004 116.034H104.99C105.645 116.034 106.273 115.77 106.738 115.308C107.2 114.843 107.461 114.215 107.461 113.56C107.461 112.905 107.2 112.277 106.738 111.815C106.273 111.35 105.645 111.089 104.99 111.086Z" fill="url(#paint4_linear_1069_96292)"/>
<path d="M154.998 111.082C154.995 110.652 154.912 110.223 154.746 109.823C154.581 109.423 154.338 109.061 154.029 108.756C153.721 108.448 153.36 108.208 152.96 108.042C152.563 107.876 152.133 107.787 151.701 107.787H143.458C143.025 107.787 142.598 107.876 142.198 108.042C141.798 108.208 141.437 108.448 141.129 108.756C140.821 109.061 140.581 109.423 140.415 109.823C140.252 110.223 140.163 110.652 140.16 111.082V116.03C140.163 116.462 140.252 116.889 140.415 117.289C140.581 117.689 140.821 118.051 141.129 118.359C141.437 118.664 141.798 118.907 142.198 119.07C142.598 119.236 143.025 119.325 143.458 119.328H151.701C152.133 119.325 152.563 119.236 152.96 119.07C153.36 118.907 153.721 118.664 154.029 118.359C154.338 118.051 154.581 117.689 154.746 117.289C154.912 116.889 154.995 116.462 154.998 116.03V111.082ZM104.993 116.578C105.796 116.578 106.563 116.258 107.129 115.692C107.695 115.126 108.015 114.359 108.015 113.556C108.015 112.753 107.695 111.986 107.129 111.42C106.563 110.854 105.796 110.534 104.993 110.534H94.0035C93.2006 110.534 92.4332 110.854 91.8672 111.42C91.3013 111.986 90.9813 112.753 90.9813 113.556C90.9813 114.359 91.3013 115.126 91.8672 115.692C92.4332 116.258 93.2006 116.578 94.0035 116.578H104.993ZM91.3102 88.7621L91.405 89.0614C91.4435 89.1799 92.3621 91.9561 94.7502 93.3932C96.1516 94.2376 97.7249 94.4154 98.8094 94.4154C98.922 94.4183 99.0316 94.4154 99.1442 94.4124C99.2568 94.4065 99.3664 94.4035 99.479 94.3976C99.5916 94.3887 99.7012 94.3768 99.8138 94.365C99.9264 94.3502 100.033 94.3354 100.146 94.3176L100.457 94.2643L100.359 93.965C100.32 93.8494 99.402 91.0702 97.0138 89.6302C94.6228 88.1932 91.7398 88.6821 91.6184 88.7058L91.3102 88.7621ZM154.761 84.9844C155.478 84.9844 156.189 85.1236 156.85 85.3992C157.511 85.6718 158.112 86.0747 158.622 86.5814C159.129 87.0881 159.532 87.6895 159.804 88.3503C160.077 89.014 160.219 89.7221 160.219 90.4391V120.462C160.219 121.179 160.077 121.891 159.804 122.551C159.532 123.212 159.129 123.814 158.622 124.32C158.112 124.83 157.511 125.23 156.85 125.505C156.189 125.778 155.478 125.92 154.761 125.92H93.1413C92.4272 125.92 91.7132 125.778 91.0524 125.505C90.3917 125.23 89.7902 124.83 89.2836 124.32C88.7769 123.814 88.371 123.212 88.0984 122.551C87.8258 121.891 87.6836 121.179 87.6836 120.462V90.4391C87.6836 89.7221 87.8258 89.014 88.0984 88.3503C88.371 87.6895 88.7769 87.0881 89.2836 86.5814C89.7902 86.0747 90.3917 85.6718 91.0524 85.3992C91.7132 85.1236 92.4272 84.9844 93.1413 84.9844H154.761Z" fill="url(#paint5_linear_1069_96292)"/>
<path d="M146.073 116.45C146.183 116.45 146.287 116.411 146.364 116.331C146.441 116.254 146.485 116.151 146.485 116.041C146.485 115.931 146.441 115.825 146.364 115.748C146.287 115.671 146.183 115.626 146.073 115.626H142.5C142.39 115.626 142.287 115.671 142.207 115.748C142.13 115.825 142.085 115.931 142.085 116.041C142.085 116.151 142.13 116.254 142.207 116.331C142.287 116.411 142.39 116.45 142.5 116.45H146.073ZM146.073 115.078C146.328 115.078 146.568 115.179 146.752 115.36C146.933 115.54 147.033 115.786 147.033 116.041C147.033 116.296 146.933 116.539 146.752 116.72C146.568 116.9 146.328 117.001 146.073 117.001H142.5C142.245 117.001 141.999 116.9 141.819 116.72C141.638 116.539 141.537 116.296 141.537 116.041C141.537 115.786 141.638 115.54 141.819 115.36C141.999 115.179 142.245 115.078 142.5 115.078H146.073Z" fill="url(#paint6_linear_1069_96292)"/>
<path d="M152.954 116.331C153.028 116.254 153.075 116.151 153.075 116.041C153.075 115.931 153.028 115.828 152.954 115.748C152.874 115.671 152.773 115.629 152.663 115.626H149.093C148.98 115.626 148.877 115.671 148.8 115.748C148.723 115.825 148.678 115.931 148.678 116.041C148.678 116.151 148.723 116.254 148.8 116.331C148.877 116.411 148.98 116.45 149.093 116.45H152.663C152.773 116.45 152.874 116.411 152.954 116.331ZM152.663 115.078C152.918 115.078 153.164 115.179 153.345 115.36C153.525 115.54 153.626 115.786 153.626 116.041C153.626 116.296 153.525 116.539 153.345 116.72C153.164 116.9 152.918 117.001 152.663 117.001H149.093C148.838 117.001 148.589 116.9 148.408 116.72C148.228 116.539 148.127 116.296 148.127 116.041C148.127 115.786 148.228 115.54 148.408 115.36C148.589 115.179 148.838 115.078 149.093 115.078H152.663Z" fill="url(#paint7_linear_1069_96292)"/>
<path d="M146.073 113.961C146.183 113.961 146.287 113.916 146.364 113.839C146.438 113.759 146.485 113.659 146.485 113.549C146.485 113.439 146.438 113.339 146.364 113.259C146.287 113.181 146.183 113.137 146.073 113.137H142.5C142.39 113.137 142.287 113.181 142.207 113.259C142.13 113.339 142.088 113.439 142.088 113.549C142.088 113.659 142.13 113.759 142.207 113.839C142.287 113.916 142.39 113.961 142.5 113.961H146.073ZM146.752 112.867C146.933 113.048 147.036 113.294 147.036 113.549C147.036 113.804 146.933 114.05 146.752 114.23C146.571 114.411 146.328 114.512 146.073 114.512H142.5C142.245 114.512 141.999 114.411 141.819 114.23C141.638 114.05 141.537 113.804 141.537 113.549C141.537 113.294 141.638 113.048 141.819 112.867C141.999 112.687 142.245 112.586 142.5 112.586H146.073C146.328 112.586 146.571 112.687 146.752 112.867Z" fill="url(#paint8_linear_1069_96292)"/>
<path d="M152.954 113.839C153.031 113.759 153.075 113.659 153.075 113.549C153.075 113.439 153.031 113.339 152.954 113.259C152.874 113.181 152.773 113.137 152.663 113.137H149.093C148.98 113.137 148.877 113.181 148.8 113.259C148.725 113.339 148.678 113.439 148.678 113.549C148.678 113.659 148.725 113.759 148.8 113.839C148.877 113.916 148.98 113.961 149.093 113.961H152.663C152.773 113.961 152.874 113.916 152.954 113.839ZM152.663 112.586C152.918 112.586 153.164 112.687 153.345 112.867C153.525 113.048 153.626 113.294 153.626 113.549C153.626 113.804 153.525 114.05 153.345 114.23C153.164 114.411 152.918 114.512 152.663 114.512H149.093C148.838 114.512 148.589 114.411 148.408 114.23C148.228 114.05 148.127 113.804 148.127 113.549C148.127 113.294 148.228 113.048 148.408 112.867C148.589 112.687 148.838 112.586 149.093 112.586H152.663Z" fill="url(#paint9_linear_1069_96292)"/>
<path d="M146.073 111.484C146.183 111.484 146.287 111.44 146.364 111.363C146.438 111.286 146.485 111.182 146.485 111.069C146.485 110.96 146.438 110.856 146.364 110.779C146.287 110.699 146.183 110.66 146.073 110.66H142.5C142.39 110.66 142.287 110.699 142.207 110.779C142.13 110.856 142.088 110.96 142.088 111.069C142.088 111.182 142.13 111.286 142.207 111.363C142.287 111.44 142.39 111.484 142.5 111.484H146.073ZM146.073 110.109C146.328 110.109 146.568 110.21 146.752 110.391C146.933 110.572 147.033 110.815 147.033 111.069C147.033 111.324 146.933 111.57 146.752 111.751C146.568 111.932 146.328 112.032 146.073 112.032H142.5C142.245 112.032 141.999 111.932 141.819 111.751C141.638 111.57 141.537 111.324 141.537 111.069C141.537 110.815 141.638 110.572 141.819 110.391C141.999 110.21 142.245 110.109 142.5 110.109H146.073Z" fill="url(#paint10_linear_1069_96292)"/>
<path d="M152.954 111.363C153.031 111.286 153.075 111.182 153.075 111.069C153.075 110.96 153.031 110.856 152.954 110.779C152.874 110.699 152.773 110.661 152.663 110.661H149.093C148.98 110.661 148.877 110.699 148.8 110.779C148.725 110.856 148.678 110.96 148.678 111.069C148.678 111.182 148.725 111.286 148.8 111.363C148.877 111.44 148.98 111.484 149.093 111.484H152.663C152.773 111.484 152.874 111.44 152.954 111.363ZM152.663 110.109C152.918 110.109 153.161 110.21 153.342 110.391C153.522 110.572 153.623 110.815 153.623 111.069C153.623 111.324 153.522 111.57 153.342 111.751C153.161 111.932 152.918 112.032 152.663 112.032H149.093C148.838 112.032 148.589 111.932 148.408 111.751C148.228 111.57 148.127 111.324 148.127 111.069C148.127 110.815 148.228 110.572 148.408 110.391C148.589 110.21 148.838 110.106 149.093 110.109H152.663Z" fill="url(#paint11_linear_1069_96292)"/>
<path d="M135.333 78.243L133.739 83.443C133.739 83.443 133.333 93.1317 127.999 91.7984C122.666 90.4651 129.555 79.1319 129.555 79.1319L131.111 76.6875L135.333 78.243Z" fill="#F4C9D0"/>
<path d="M105.112 78.243L103.518 83.443C103.518 83.443 103.112 93.1317 97.7788 91.7984C92.4455 90.4651 99.3343 79.1319 99.3343 79.1319L100.89 76.6875L105.112 78.243Z" fill="#F4C9D0"/>
<path d="M134.223 33.9918C134.223 33.9918 137.779 33.1029 138.89 39.1028C140.001 45.1027 141.334 62.2136 141.334 62.2136L136.001 80.2134C136.001 80.2134 130.668 77.3245 129.557 77.769L133.755 62.1396L130.223 46.2138C130.223 46.2138 133.334 33.9918 134.223 33.9918Z" fill="url(#paint12_linear_1069_96292)"/>
<path d="M129.055 46.5312L133.721 62.0866L129.055 77.8642L131.721 62.0866L129.055 46.5312Z" fill="black" fill-opacity="0.149"/>
<path d="M107.779 46.2188L99.7793 77.7739C99.7793 77.7739 103.999 79.1665 105.554 80.2776L107.779 46.2188Z" fill="url(#paint13_linear_1069_96292)"/>
<path d="M23.8567 125.522C11.5695 125.522 1.63477 115.59 1.63477 103.3C1.63477 91.0098 11.5695 81.0781 23.8567 81.0781C36.1469 81.0781 46.0787 91.0098 46.0787 103.3C46.0787 115.59 36.1469 125.522 23.8567 125.522Z" fill="url(#paint14_linear_1069_96292)"/>
<path d="M23.857 122.409C13.2882 122.409 4.74609 113.867 4.74609 103.298C4.74609 92.7326 13.2882 84.1875 23.857 84.1875C34.4257 84.1875 42.9678 92.7326 42.9678 103.298C42.9678 113.867 34.4257 122.409 23.857 122.409Z" fill="#D1CCE0" fill-opacity="0.102"/>
<path d="M22.942 114.571V111.792C21.5346 111.762 20.0798 111.267 19.2324 110.58L19.8161 108.734C20.065 108.921 20.3287 109.09 20.6072 109.235C20.8828 109.383 21.1702 109.501 21.4665 109.605C21.7628 109.706 22.065 109.78 22.3731 109.833C22.6813 109.887 22.9924 109.916 23.3064 109.919C25.0249 109.919 26.1894 108.79 26.1894 107.22C26.1894 105.706 25.2472 104.767 23.4516 103.94C20.9776 102.841 19.4517 101.573 19.4517 99.1757C19.4517 96.8912 20.8828 95.155 23.1139 94.7431V91.9609H24.6161V94.6335C24.8946 94.6365 25.1701 94.6602 25.4457 94.7016C25.7212 94.7461 25.9938 94.8113 26.2605 94.8913C26.5271 94.9742 26.7849 95.072 27.0368 95.1905C27.2916 95.3061 27.5316 95.4453 27.7656 95.5964L27.1582 97.4157C26.936 97.2646 26.702 97.1253 26.459 97.0098C26.216 96.8912 25.9642 96.7905 25.7035 96.7135C25.4457 96.6335 25.182 96.5742 24.9153 96.5357C24.6457 96.4972 24.3761 96.4764 24.1064 96.4794C22.2398 96.4794 21.5346 97.7446 21.5346 98.8468C21.5346 100.278 22.4324 100.995 24.542 101.987C27.0397 103.143 28.299 104.574 28.299 107.024C28.299 109.202 26.9657 111.241 24.4679 111.706V114.571H22.942Z" fill="#F9F9F9"/>
<path d="M47.3327 148.505C43.4187 149.089 39.481 149.53 35.5344 149.821C31.5848 150.114 27.6263 150.259 23.6679 150.259C19.7094 150.259 15.748 150.114 11.7984 149.821C7.85175 149.53 3.91402 149.089 0 148.505V143.172C3.92291 143.699 7.86064 144.09 11.8073 144.354C15.7568 144.618 19.7123 144.748 23.6679 144.748C27.6234 144.748 31.5759 144.618 35.5255 144.354C39.4721 144.09 43.4098 143.699 47.3327 143.172V148.505Z" fill="url(#paint15_linear_1069_96292)"/>
<path d="M47.3327 140.286C43.4187 140.87 39.481 141.312 35.5344 141.602C31.5848 141.895 27.6263 142.04 23.6679 142.04C19.7094 142.04 15.748 141.895 11.7984 141.602C7.85175 141.312 3.91402 140.87 0 140.286V134.953C3.92291 135.481 7.86064 135.872 11.8073 136.135C15.7568 136.399 19.7123 136.529 23.6679 136.529C27.6234 136.529 31.5759 136.399 35.5255 136.135C39.4721 135.872 43.4098 135.481 47.3327 134.953V140.286Z" fill="url(#paint16_linear_1069_96292)"/>
<path d="M47.3327 132.052C43.4187 132.636 39.481 133.077 35.5344 133.368C31.5848 133.661 27.6263 133.806 23.6679 133.806C19.7094 133.806 15.748 133.661 11.7984 133.368C7.85175 133.077 3.91402 132.636 0 132.052V126.719C3.92291 127.246 7.86064 127.637 11.8073 127.901C15.7568 128.165 19.7123 128.295 23.6679 128.295C27.6234 128.295 31.5759 128.165 35.5255 127.901C39.4721 127.637 43.4098 127.246 47.3327 126.719V132.052Z" fill="url(#paint17_linear_1069_96292)"/>
<defs>
<linearGradient id="paint0_linear_1069_96292" x1="195.439" y1="145.163" x2="175.681" y2="141.679" gradientUnits="userSpaceOnUse">
<stop stop-color="#400789"/>
<stop offset="1" stop-color="#9E64E7"/>
</linearGradient>
<linearGradient id="paint1_linear_1069_96292" x1="136.037" y1="77.8612" x2="116.471" y2="77.0609" gradientUnits="userSpaceOnUse">
<stop stop-color="#400789"/>
<stop offset="1" stop-color="#9E64E7"/>
</linearGradient>
<linearGradient id="paint2_linear_1069_96292" x1="115.862" y1="79.1308" x2="102.999" y2="78.7769" gradientUnits="userSpaceOnUse">
<stop stop-color="#400789"/>
<stop offset="1" stop-color="#9E64E7"/>
</linearGradient>
<linearGradient id="paint3_linear_1069_96292" x1="99.7198" y1="93.8644" x2="91.6546" y2="92.418" gradientUnits="userSpaceOnUse">
<stop stop-color="#400789"/>
<stop offset="1" stop-color="#9E64E7"/>
</linearGradient>
<linearGradient id="paint4_linear_1069_96292" x1="107.461" y1="116.034" x2="92.0954" y2="110.597" gradientUnits="userSpaceOnUse">
<stop stop-color="#400789"/>
<stop offset="1" stop-color="#9E64E7"/>
</linearGradient>
<linearGradient id="paint5_linear_1069_96292" x1="160.219" y1="125.92" x2="84.3788" y2="111.153" gradientUnits="userSpaceOnUse">
<stop stop-color="#400789"/>
<stop offset="1" stop-color="#9E64E7"/>
</linearGradient>
<linearGradient id="paint6_linear_1069_96292" x1="147.033" y1="117.001" x2="141.604" y2="115.296" gradientUnits="userSpaceOnUse">
<stop stop-color="#400789"/>
<stop offset="1" stop-color="#9E64E7"/>
</linearGradient>
<linearGradient id="paint7_linear_1069_96292" x1="153.626" y1="117.001" x2="148.195" y2="115.294" gradientUnits="userSpaceOnUse">
<stop stop-color="#400789"/>
<stop offset="1" stop-color="#9E64E7"/>
</linearGradient>
<linearGradient id="paint8_linear_1069_96292" x1="147.036" y1="114.512" x2="141.603" y2="112.807" gradientUnits="userSpaceOnUse">
<stop stop-color="#400789"/>
<stop offset="1" stop-color="#9E64E7"/>
</linearGradient>
<linearGradient id="paint9_linear_1069_96292" x1="153.626" y1="114.512" x2="148.193" y2="112.807" gradientUnits="userSpaceOnUse">
<stop stop-color="#400789"/>
<stop offset="1" stop-color="#9E64E7"/>
</linearGradient>
<linearGradient id="paint10_linear_1069_96292" x1="147.033" y1="112.032" x2="141.604" y2="110.327" gradientUnits="userSpaceOnUse">
<stop stop-color="#400789"/>
<stop offset="1" stop-color="#9E64E7"/>
</linearGradient>
<linearGradient id="paint11_linear_1069_96292" x1="153.623" y1="112.032" x2="148.194" y2="110.327" gradientUnits="userSpaceOnUse">
<stop stop-color="#400789"/>
<stop offset="1" stop-color="#9E64E7"/>
</linearGradient>
<linearGradient id="paint12_linear_1069_96292" x1="141.334" y1="80.2134" x2="128.563" y2="79.8561" gradientUnits="userSpaceOnUse">
<stop stop-color="#400789"/>
<stop offset="1" stop-color="#9E64E7"/>
</linearGradient>
<linearGradient id="paint13_linear_1069_96292" x1="107.779" y1="80.2776" x2="99.1035" y2="80.0536" gradientUnits="userSpaceOnUse">
<stop stop-color="#400789"/>
<stop offset="1" stop-color="#9E64E7"/>
</linearGradient>
<linearGradient id="paint14_linear_1069_96292" x1="46.0786" y1="125.522" x2="-1.57653" y2="120.285" gradientUnits="userSpaceOnUse">
<stop stop-color="#400789"/>
<stop offset="1" stop-color="#9E64E7"/>
</linearGradient>
<linearGradient id="paint15_linear_1069_96292" x1="47.3327" y1="150.259" x2="13.9482" y2="125.758" gradientUnits="userSpaceOnUse">
<stop stop-color="#400789"/>
<stop offset="1" stop-color="#9E64E7"/>
</linearGradient>
<linearGradient id="paint16_linear_1069_96292" x1="47.3327" y1="142.04" x2="13.9482" y2="117.54" gradientUnits="userSpaceOnUse">
<stop stop-color="#400789"/>
<stop offset="1" stop-color="#9E64E7"/>
</linearGradient>
<linearGradient id="paint17_linear_1069_96292" x1="47.3327" y1="133.806" x2="13.9482" y2="109.305" gradientUnits="userSpaceOnUse">
<stop stop-color="#400789"/>
<stop offset="1" stop-color="#9E64E7"/>
</linearGradient>
</defs>
</svg>
