<svg width="171" height="167" viewBox="0 0 171 167" fill="none" xmlns="http://www.w3.org/2000/svg">
<path d="M168.551 71.864L147.037 59.4434C146.612 59.1974 146.227 59.1885 145.925 59.3541C145.925 59.3521 145.927 59.3401 145.927 59.3401L143.84 60.5457C143.84 60.5457 144.764 60.8825 145.306 61.0816V76.7487C145.306 78.0231 146.081 79.5041 147.037 80.056L167.6 91.9277V93.766L169.708 92.5519L169.697 92.5479C170.053 92.3309 170.282 91.8538 170.282 91.1682V75.1713C170.282 73.8969 169.507 72.4164 168.551 71.864Z" fill="#B3B3B3"/>
<path d="M166.426 93.7023L144.913 81.2812C143.957 80.7293 143.182 79.2488 143.182 77.9739V61.977C143.182 60.7026 143.957 60.1167 144.913 60.6686L166.426 73.0892C167.382 73.6411 168.157 75.1216 168.157 76.3965V92.3929C168.156 93.6684 167.382 94.2542 166.426 93.7023Z" fill="#666666"/>
<path d="M156.309 51.7468L134.795 39.3263C134.37 39.0802 133.985 39.0713 133.683 39.2369C133.683 39.2354 133.684 39.223 133.684 39.223L131.598 40.4285C131.598 40.4285 132.522 40.7654 133.064 40.9645V56.6315C133.064 57.9064 133.839 59.387 134.795 59.9388L155.358 71.8105V73.6488L157.466 72.4347L157.455 72.4307C157.811 72.2137 158.04 71.7366 158.04 71.051V55.0542C158.04 53.7792 157.265 52.2987 156.309 51.7468Z" fill="#182A53"/>
<path d="M154.184 73.5924L132.67 61.1714C131.714 60.6195 130.939 59.1384 130.939 57.864V41.8676C130.939 40.5932 131.714 40.0074 132.67 40.5593L154.184 52.9803C155.14 53.5322 155.915 55.0127 155.915 56.2877V72.2845C155.915 73.5585 155.14 74.1443 154.184 73.5924Z" fill="url(#paint0_linear_2020_141252)"/>
<g filter="url(#filter0_f_2020_141252)">
<path d="M97.6021 151.882L73.5006 137.967C72.0213 137.113 72.2069 135.622 73.9151 134.635L97.1872 121.199C98.895 120.212 101.479 120.105 102.958 120.96L127.06 134.875C128.539 135.729 128.353 137.22 126.645 138.207L103.373 151.643C101.665 152.629 99.0815 152.736 97.6021 151.882Z" fill="#333333"/>
</g>
<path d="M135.054 124.269V113.856L111.704 113.843L103.633 109.183C101.78 108.113 98.5448 108.248 96.4059 109.482L88.8758 113.83L65.5045 113.817V124.527C65.4519 125.251 65.8553 125.949 66.7457 126.463L96.9261 143.888C98.7784 144.958 102.014 144.823 104.153 143.589L133.295 126.763C134.529 126.051 135.124 125.128 135.054 124.269Z" fill="#1C2D59"/>
<path d="M100.279 108.469C98.9238 108.502 97.5169 108.843 96.4059 109.485L88.8758 113.832L65.5045 113.819V124.529C65.4519 125.253 65.8553 125.951 66.7457 126.465L96.9261 143.89C97.816 144.404 99.0263 144.637 100.28 144.607V108.469H100.279Z" fill="#1C2D59"/>
<path d="M68.1494 113.83L65.5045 113.828V124.538C65.4519 125.262 65.8553 125.96 66.7457 126.474L68.1498 127.285V113.83H68.1494Z" fill="url(#paint1_linear_2020_141252)"/>
<path d="M97.3926 144.117C98.9901 144.801 101.301 144.763 103.169 144.051V131.891H97.3926V144.117Z" fill="url(#paint2_linear_2020_141252)"/>
<path d="M96.9231 133.217L66.7427 115.792C64.8904 114.723 65.1226 112.855 67.2615 111.62L96.4034 94.7949C98.5423 93.5602 101.778 93.4259 103.63 94.4954L133.811 111.92C135.663 112.99 135.431 114.858 133.292 116.092L104.15 132.918C102.011 134.152 98.7754 134.287 96.9231 133.217Z" fill="#D3E9F8"/>
<path d="M97.4706 130.086L72.1788 115.483C70.6265 114.587 70.8213 113.022 72.6136 111.987L97.0349 97.8872C98.8272 96.8524 101.538 96.7402 103.091 97.6361L128.383 112.238C129.935 113.135 129.74 114.7 127.948 115.735L103.526 129.835C101.734 130.869 99.0229 130.982 97.4706 130.086Z" fill="#5D3393"/>
<path d="M123.952 127.019C123.952 127.796 123.406 128.741 122.733 129.13C122.06 129.519 121.514 129.203 121.514 128.426C121.514 127.649 122.059 126.704 122.733 126.315C123.406 125.926 123.952 126.241 123.952 127.019Z" fill="#D3E9F8"/>
<path d="M127.876 124.753C127.876 125.53 127.33 126.476 126.657 126.864C125.984 127.253 125.438 126.938 125.438 126.16C125.438 125.383 125.983 124.438 126.657 124.049C127.329 123.661 127.876 123.976 127.876 124.753Z" fill="#D3E9F8"/>
<path d="M129.346 122.96C129.822 122.136 130.595 121.69 131.07 121.965C131.546 122.239 131.546 123.131 131.07 123.955C130.594 124.779 129.822 125.225 129.346 124.951C128.871 124.676 128.871 123.784 129.346 122.96Z" fill="#D3E9F8"/>
<path d="M135.054 107.629V97.2152L111.704 97.2023L103.633 92.5422C101.78 91.4728 98.5448 91.6071 96.4059 92.8418L88.8758 97.1894L65.5045 97.1764V107.886C65.4519 108.61 65.8553 109.308 66.7457 109.823L96.9261 127.247C98.7784 128.317 102.014 128.183 104.153 126.948L133.295 110.123C134.529 109.41 135.124 108.488 135.054 107.629Z" fill="#1C2D59"/>
<path d="M100.279 91.8359C98.9238 91.8687 97.5169 92.2103 96.4059 92.8519L88.8758 97.1994L65.5045 97.1865V107.896C65.4519 108.62 65.8553 109.318 66.7457 109.833L96.9261 127.257C97.816 127.771 99.0263 128.004 100.28 127.974V91.8359H100.279Z" fill="url(#paint3_linear_2020_141252)"/>
<path d="M68.1494 97.1811L65.5045 97.1797V107.89C65.4519 108.613 65.8553 109.312 66.7457 109.826L68.1498 110.636V97.1811H68.1494Z" fill="url(#paint4_linear_2020_141252)"/>
<path d="M97.3926 127.484C98.9901 128.168 101.301 128.13 103.169 127.418V115.258H97.3926V127.484Z" fill="url(#paint5_linear_2020_141252)"/>
<path d="M96.9231 116.584L66.7427 99.1595C64.8904 98.0901 65.1226 96.2221 67.2615 94.9874L96.4034 78.1621C98.5423 76.9274 101.778 76.7931 103.63 77.8626L133.811 95.2874C135.663 96.3569 135.431 98.2248 133.292 99.4595L104.15 116.285C102.011 117.519 98.7754 117.654 96.9231 116.584Z" fill="#D3E9F8"/>
<path d="M97.4706 113.445L72.1788 98.8427C70.6265 97.9463 70.8213 96.3811 72.6136 95.3463L97.0349 81.2466C98.8272 80.2118 101.538 80.0996 103.091 80.9955L128.383 95.5978C129.935 96.4942 129.74 98.0594 127.948 99.0942L103.526 113.194C101.734 114.229 99.0229 114.341 97.4706 113.445Z" fill="#1C2D59"/>
<path d="M123.952 110.386C123.952 111.163 123.406 112.108 122.733 112.497C122.06 112.886 121.514 112.571 121.514 111.793C121.514 111.016 122.059 110.07 122.733 109.682C123.406 109.294 123.952 109.608 123.952 110.386Z" fill="#D3E9F8"/>
<path d="M127.876 108.113C127.876 108.89 127.33 109.835 126.657 110.224C125.984 110.612 125.438 110.297 125.438 109.52C125.438 108.743 125.983 107.797 126.657 107.409C127.329 107.02 127.876 107.335 127.876 108.113Z" fill="#D3E9F8"/>
<path d="M129.37 106.327C129.846 105.503 130.618 105.057 131.094 105.332C131.569 105.607 131.569 106.499 131.093 107.322C130.618 108.146 129.845 108.593 129.37 108.318C128.894 108.043 128.894 107.151 129.37 106.327Z" fill="#D3E9F8"/>
<path d="M135.054 90.9881V80.5746L111.704 80.5617L103.633 75.9016C101.78 74.8322 98.5448 74.9665 96.4059 76.2012L88.8758 80.5487L65.5045 80.5358V91.2457C65.4519 91.9694 65.8553 92.6678 66.7457 93.182L96.9261 110.607C98.7784 111.676 102.014 111.542 104.153 110.307L133.295 93.482C134.529 92.7693 135.124 91.8466 135.054 90.9881Z" fill="#1C2D59"/>
<path d="M100.279 75.1953C98.9238 75.2281 97.5169 75.5697 96.4059 76.2112L88.8758 80.5588L65.5045 80.5459V91.2557C65.4519 91.9795 65.8553 92.6778 66.7457 93.192L96.9261 110.617C97.816 111.131 99.0263 111.364 100.28 111.333V75.1953H100.279Z" fill="#1C2D59"/>
<path d="M68.1494 80.5483L65.5045 80.5469V91.2567C65.4519 91.9805 65.8553 92.6789 66.7457 93.193L68.1498 94.0036V80.5483H68.1494Z" fill="url(#paint6_linear_2020_141252)"/>
<path d="M97.3926 110.843C98.9901 111.528 101.301 111.49 103.169 110.777V98.6172H97.3926V110.843Z" fill="url(#paint7_linear_2020_141252)"/>
<path d="M96.9231 99.9437L66.7427 82.5189C64.8904 81.4494 65.1226 79.5814 67.2615 78.3467L96.4034 61.5215C98.5423 60.2868 101.778 60.1525 103.63 61.2219L133.811 78.6468C135.663 79.7162 135.431 81.5842 133.292 82.8189L104.15 99.6442C102.011 100.879 98.7754 101.013 96.9231 99.9437Z" fill="#5D3393"/>
<path d="M116.62 88.1641L95.6244 75.1953L89.0918 87.6905L90.9053 94.4198L97.9798 98.9949L116.62 88.1641Z" fill="url(#paint8_linear_2020_141252)"/>
<path d="M133.295 80.7644L104.154 97.5897C102.015 98.8244 98.7795 98.9587 96.9267 97.8892L66.7463 80.4644C66.3332 80.2258 66.0299 79.9465 65.8222 79.6442C65.1857 80.6684 65.4742 81.7794 66.7463 82.5133L96.9267 99.9382C98.779 101.008 102.015 100.873 104.154 99.6386L133.295 82.8133C134.958 81.8537 135.462 80.5133 134.738 79.4609C134.448 79.9285 133.966 80.3776 133.295 80.7644Z" fill="white"/>
<path d="M123.952 93.7454C123.952 94.5227 123.406 95.468 122.733 95.8566C122.06 96.2453 121.514 95.93 121.514 95.1527C121.514 94.3755 122.059 93.4302 122.733 93.0415C123.406 92.6529 123.952 92.9677 123.952 93.7454Z" fill="#D3E9F8"/>
<path d="M127.876 91.472C127.876 92.2493 127.33 93.1946 126.657 93.5832C125.984 93.9719 125.438 93.6566 125.438 92.8793C125.438 92.102 125.983 91.1567 126.657 90.7681C127.329 90.3794 127.876 90.6942 127.876 91.472Z" fill="#D3E9F8"/>
<path d="M129.389 89.7023C129.865 88.8783 130.638 88.4323 131.113 88.7069C131.589 88.9815 131.589 89.8735 131.113 90.6975C130.637 91.5215 129.865 91.9675 129.389 91.6929C128.914 91.4183 128.914 90.5263 129.389 89.7023Z" fill="#D3E9F8"/>
<path d="M96.0275 103.465C96.0275 104.008 95.6467 104.228 95.1769 103.956C94.707 103.685 94.3262 103.025 94.3262 102.482C94.3262 101.94 94.707 101.72 95.1769 101.991C95.6467 102.263 96.0275 102.922 96.0275 103.465Z" fill="#D3E9F8"/>
<path d="M93.3908 101.949C93.3908 102.492 93.01 102.712 92.5401 102.441C92.0702 102.169 91.6895 101.51 91.6895 100.967C91.6895 100.424 92.0702 100.204 92.5401 100.476C93.0095 100.747 93.3908 101.407 93.3908 101.949Z" fill="#F0E4FF"/>
<path d="M96.0275 106.653C96.0275 107.195 95.6467 107.415 95.1769 107.144C94.707 106.872 94.3262 106.213 94.3262 105.67C94.3262 105.127 94.707 104.907 95.1769 105.179C95.6467 105.45 96.0275 106.11 96.0275 106.653Z" fill="#D3E9F8"/>
<path d="M93.3908 105.145C93.3908 105.688 93.01 105.907 92.5401 105.636C92.0702 105.365 91.6895 104.705 91.6895 104.162C91.6895 103.619 92.0702 103.4 92.5401 103.671C93.0095 103.942 93.3908 104.602 93.3908 105.145Z" fill="#D3E9F8"/>
<path d="M96.0275 119.965C96.0275 120.508 95.6467 120.728 95.1769 120.456C94.707 120.185 94.3262 119.525 94.3262 118.982C94.3262 118.44 94.707 118.22 95.1769 118.491C95.6467 118.763 96.0275 119.422 96.0275 119.965Z" fill="white"/>
<path d="M93.3908 118.449C93.3908 118.992 93.01 119.212 92.5401 118.941C92.0702 118.669 91.6895 118.01 91.6895 117.467C91.6895 116.924 92.0702 116.704 92.5401 116.976C93.0095 117.247 93.3908 117.907 93.3908 118.449Z" fill="#F0E4FF"/>
<path d="M96.0275 123.153C96.0275 123.695 95.6467 123.915 95.1769 123.644C94.707 123.372 94.3262 122.713 94.3262 122.17C94.3262 121.627 94.707 121.407 95.1769 121.679C95.6467 121.95 96.0275 122.61 96.0275 123.153Z" fill="#D3E9F8"/>
<path d="M93.3908 121.645C93.3908 122.188 93.01 122.407 92.5401 122.136C92.0702 121.864 91.6895 121.205 91.6895 120.662C91.6895 120.12 92.0702 119.9 92.5401 120.171C93.0095 120.442 93.3908 121.102 93.3908 121.645Z" fill="#D3E9F8"/>
<path d="M96.0275 136.645C96.0275 137.188 95.6467 137.407 95.1769 137.136C94.707 136.865 94.3262 136.205 94.3262 135.662C94.3262 135.119 94.707 134.9 95.1769 135.171C95.6467 135.442 96.0275 136.102 96.0275 136.645Z" fill="white"/>
<path d="M93.3908 135.121C93.3908 135.664 93.01 135.884 92.5401 135.612C92.0702 135.341 91.6895 134.681 91.6895 134.139C91.6895 133.596 92.0702 133.376 92.5401 133.647C93.0095 133.919 93.3908 134.579 93.3908 135.121Z" fill="#F0E4FF"/>
<path d="M96.0275 139.832C96.0275 140.375 95.6467 140.595 95.1769 140.323C94.707 140.052 94.3262 139.392 94.3262 138.85C94.3262 138.307 94.707 138.087 95.1769 138.359C95.6467 138.63 96.0275 139.289 96.0275 139.832Z" fill="white"/>
<path d="M93.3908 138.301C93.3908 138.844 93.01 139.064 92.5401 138.792C92.0702 138.521 91.6895 137.861 91.6895 137.318C91.6895 136.776 92.0702 136.556 92.5401 136.827C93.0095 137.099 93.3908 137.758 93.3908 138.301Z" fill="#D3E9F8"/>
<path d="M0.101926 129.398L18.6068 118.623C22.2726 116.507 25.7298 116.172 28.3419 117.679C30.953 119.187 32.3912 122.348 32.3912 126.581V127.937C32.2602 128.025 32.1231 128.112 31.9832 128.197V126.581C31.9832 122.5 30.6174 119.464 28.1379 118.032C25.6574 116.601 22.3451 116.936 18.8109 118.977L0.305942 129.751C0.209473 129.809 0.0839242 129.775 0.0276115 129.677C-0.0291624 129.579 0.004535 129.454 0.101926 129.398Z" fill="#D3E9F8"/>
<path d="M57.8089 116.562V74.8605C57.8089 66.5134 63.6903 56.3265 70.9194 52.1529C74.4597 50.1091 77.7992 49.7851 80.3221 51.2413C82.8451 52.6976 84.234 55.7514 84.234 59.8395V62.7474C84.0978 62.8836 83.9621 63.0193 83.8259 63.1555V59.8395C83.8259 55.9032 82.5091 52.975 80.1181 51.5949C77.7267 50.2153 74.5326 50.5384 71.1234 52.5061C64.0069 56.615 58.2169 66.6426 58.2169 74.8605V116.562C58.2169 123.481 54.1459 131.67 48.625 136.597C48.625 136.415 48.625 136.232 48.625 136.05C53.9276 131.177 57.8089 123.264 57.8089 116.562Z" fill="#D3E9F8"/>
<path d="M84.2357 64.0201C84.9054 63.3835 88.0303 60.6275 92.5897 59.9305C97.7533 59.1412 99.8872 65.1795 99.8872 65.1795C99.8872 65.1795 100.484 68.3159 100.463 70.1724C100.442 72.0288 100.309 78.7705 100.309 78.7705L83.9403 69.3411V69.3388C83.8743 69.3051 83.8281 69.2381 83.8281 69.1592V64.3727C83.9638 64.2365 84.0995 64.1562 84.2357 64.0201Z" fill="#1C2D59"/>
<path d="M95.8385 60.1874L80.3232 51.2431L80.3837 51.466C77.9923 49.9216 74.3786 49.755 69.5446 53.2998C59.9425 60.3411 58.7895 70.144 58.2997 71.9806C57.81 73.8177 58.0117 85.4553 58.0117 85.4553C58.0117 85.4553 57.9799 113.524 57.9476 116.789C57.9157 120.054 56.9653 123.716 55.131 127.671C53.2968 131.626 48.5859 136.425 48.5859 136.425V142.138C49.3383 148.316 51.9628 149.756 55.8673 150.108C59.0189 150.392 62.3764 148.117 65.059 145.637C64.9602 145.74 64.8965 145.805 64.8965 145.805V151.518C65.6489 157.696 68.2734 159.136 72.1778 159.488C76.0828 159.84 80.3057 156.263 83.1665 153.236C86.0278 150.208 88.4404 145.586 89.7808 141.415C91.1213 137.244 90.6772 131.856 90.6772 131.856C90.6772 131.856 90.7091 101.173 90.7414 95.1234C90.7732 89.074 90.9652 90.1306 92.9495 84.0494C94.9338 77.9681 100.194 73.7115 100.194 73.7115L112.816 69.9525L95.8385 60.1874Z" fill="#F0F9FF"/>
<path d="M95.8385 60.1874L80.3232 51.2431L80.3837 51.466C77.9923 49.9216 74.3786 49.755 69.5446 53.2998C59.9425 60.3411 58.7895 70.144 58.2997 71.9806C57.81 73.8177 58.0117 85.4553 58.0117 85.4553C58.0117 85.4553 57.9799 113.524 57.9476 116.789C57.9157 120.054 56.9653 123.716 55.131 127.671C53.2968 131.626 48.5859 136.425 48.5859 136.425V142.138C49.3383 148.316 51.9628 149.756 55.8673 150.108C59.0189 150.392 62.3764 148.117 65.059 145.637C64.9602 145.74 64.8965 145.805 64.8965 145.805V151.518C65.6489 157.696 68.2734 159.136 72.1778 159.488C76.0828 159.84 80.3057 156.263 83.1665 153.236C86.0278 150.208 88.4404 145.586 89.7808 141.415C91.1213 137.244 90.6772 131.856 90.6772 131.856C90.6772 131.856 90.7091 101.173 90.7414 95.1234C90.7732 89.074 90.9652 90.1306 92.9495 84.0494C94.9338 77.9681 100.194 73.7115 100.194 73.7115L112.816 69.9525L95.8385 60.1874Z" fill="#F0F9FF"/>
<path d="M68.8303 158.972C68.6176 158.682 65.8532 156.829 65.1488 153.564C64.757 151.748 64.7967 148.987 64.7967 148.987C64.7967 148.987 64.8082 147.451 64.8451 146.055C64.876 146.028 64.9079 146.003 64.9384 145.976C64.9384 145.794 64.9384 145.611 64.9384 145.429C64.913 145.452 64.8871 145.472 64.8617 145.496C64.8724 145.18 64.8844 144.884 64.8982 144.634C64.978 143.183 63.9063 140.089 63.9063 140.089C63.9063 140.089 62.3859 135.944 57.8569 135.784C53.8357 135.642 49.6035 138.535 48.703 139.186V137.315C48.6435 137.355 48.5788 137.394 48.517 137.434C48.5221 137.183 48.5281 136.926 48.5345 136.675C48.5654 136.648 48.5968 136.623 48.6278 136.595C48.6278 136.413 48.6278 136.23 48.6278 136.048C48.6024 136.071 48.5765 136.092 48.5511 136.115C48.5618 135.8 48.5738 135.504 48.5876 135.253C48.6675 133.802 47.5957 130.708 47.5957 130.708C47.5957 130.708 46.0753 126.563 41.5463 126.404C37.5251 126.261 33.2929 129.154 32.3924 129.806V127.934C32.2613 128.023 32.1242 128.109 31.9844 128.195V131.472C31.9844 135.442 33.3068 138.425 35.7088 139.907L35.7185 139.918L35.8025 139.966C35.8251 139.979 35.8459 139.995 35.869 140.008C35.8833 140.016 35.8994 140.021 35.9137 140.03L52.5202 149.59C52.5161 149.585 52.505 149.574 52.499 149.568L68.8303 158.972Z" fill="url(#paint9_linear_2020_141252)"/>
<path d="M44.6542 127.064C44.6542 127.064 44.5295 127 44.3103 126.91C44.2429 126.878 44.1778 126.84 44.1095 126.809L28.3431 117.684C28.3431 117.684 25.4463 116.161 21.9425 117.444C18.4387 118.726 0.0800781 129.74 0.0800781 129.74L16.4816 139.189L16.4844 139.187C16.4978 139.195 16.5139 139.195 16.5282 139.199L32.7922 148.569C32.7922 148.569 41.9936 142.869 48.3597 139.191L48.7677 138.956C51.3705 137.459 53.4374 136.341 54.0859 136.17C58.0107 135.13 60.7418 136.397 61.4526 136.787L44.6542 127.064Z" fill="#F3FAFF"/>
<path d="M44.6542 127.064C44.6542 127.064 44.5295 127 44.3103 126.91C44.2429 126.878 44.1778 126.84 44.1095 126.809L28.3431 117.684C28.3431 117.684 25.4463 116.161 21.9425 117.444C18.4387 118.726 0.0800781 129.74 0.0800781 129.74L16.4816 139.189L16.4844 139.187C16.4978 139.195 16.5139 139.195 16.5282 139.199L32.7922 148.569C32.7922 148.569 41.9936 142.869 48.3597 139.191L48.7677 138.956C51.3705 137.459 53.4374 136.341 54.0859 136.17C58.0107 135.13 60.7418 136.397 61.4526 136.787L44.6542 127.064Z" fill="#F3FAFF"/>
<path d="M61.4492 136.789L61.6389 136.899C61.6389 136.899 61.5697 136.856 61.4492 136.789Z" fill="#D3E9F8"/>
<path d="M100.548 73.4029C101.218 72.7664 104.343 70.0103 108.902 69.3133C114.066 68.524 116.2 74.5623 116.2 74.5623C116.2 74.5623 116.797 77.6987 116.776 79.5552C116.754 81.4116 116.622 88.1533 116.622 88.1533L100.253 78.7239V78.7216C100.187 78.6879 100.141 78.6209 100.141 78.542V73.756C100.276 73.6198 100.412 73.539 100.548 73.4029Z" fill="#1C2D59"/>
<path d="M72.0175 159.715C73.8222 159.715 75.8204 159.112 77.8873 157.918C85.0643 153.775 90.9027 143.662 90.9027 135.375V93.6733C90.9027 85.4564 96.6927 75.4278 103.81 71.3185C107.219 69.3512 110.412 69.0272 112.804 70.4073C115.195 71.7879 116.512 74.7161 116.512 78.6524V87.9752C116.512 88.0879 116.604 88.1792 116.716 88.1792C116.829 88.1792 116.92 88.0879 116.92 87.9752V78.6524C116.92 74.5642 115.531 71.5105 113.008 70.0542C110.485 68.5975 107.146 68.9215 103.606 70.9654C96.376 75.1394 90.4947 85.3263 90.4947 93.6733V135.375C90.4947 143.532 84.7476 153.487 77.6833 157.565C74.2999 159.518 71.1294 159.84 68.756 158.469C66.3826 157.099 65.0759 154.193 65.0759 150.286V145.393C65.0759 141.16 63.6376 137.999 61.0265 136.491C58.4154 134.984 54.9582 135.318 51.2919 137.436L32.7875 148.21C32.6901 148.266 32.6564 148.391 32.7132 148.489C32.769 148.587 32.8955 148.619 32.9915 148.563L51.4959 137.789C55.0302 135.748 58.3429 135.412 60.8225 136.844C63.302 138.276 64.6678 141.312 64.6678 145.393V150.286C64.6678 154.345 66.0475 157.376 68.552 158.823C69.584 159.418 70.7537 159.715 72.0175 159.715Z" fill="#1C2D59"/>
<path d="M75.2755 64.1641L73.3217 63.0361C73.2017 62.9668 73.1998 62.8103 73.3175 62.6862L74.9211 60.9987C75.0388 60.875 75.2312 60.8307 75.3512 60.8999L77.3051 62.028C77.4251 62.0972 77.4269 62.2537 77.3092 62.3778L75.7057 64.0654C75.588 64.1891 75.3956 64.2334 75.2755 64.1641Z" fill="#5D3393"/>
<path d="M79.4787 66.5934L77.5248 65.4653C77.4048 65.396 77.403 65.2396 77.5207 65.1159L79.1242 63.4284C79.2419 63.3047 79.4343 63.2603 79.5544 63.3296L81.5082 64.4577C81.6282 64.5269 81.6301 64.6834 81.5124 64.8071L79.9088 66.4946C79.7911 66.6183 79.5982 66.6626 79.4787 66.5934Z" fill="url(#paint10_linear_2020_141252)"/>
<path d="M83.6818 69.0235L81.7279 67.8954C81.6079 67.8262 81.6061 67.6697 81.7238 67.5455L83.3273 65.858C83.445 65.7343 83.6375 65.69 83.7575 65.7593L85.7113 66.8873C85.8313 66.9566 85.8332 67.1131 85.7155 67.2368L84.112 68.9243C83.9943 69.0484 83.8018 69.0927 83.6818 69.0235Z" fill="white"/>
<path d="M87.883 71.4532L85.9291 70.3251C85.8091 70.2559 85.8073 70.0994 85.925 69.9752L87.5285 68.2877C87.6462 68.164 87.8387 68.1197 87.9587 68.189L89.9125 69.317C90.0325 69.3863 90.0343 69.5427 89.9166 69.6669L88.3131 71.3544C88.1955 71.4781 88.003 71.5224 87.883 71.4532Z" fill="#1C2D59"/>
<path d="M74.2834 103.158L71.5477 101.578C71.2938 101.431 71.0838 101.037 71.0782 100.696C71.0727 100.355 71.2739 100.197 71.5278 100.344L74.2636 101.923C74.5174 102.07 74.7274 102.465 74.733 102.806C74.7385 103.147 74.5373 103.304 74.2834 103.158Z" fill="url(#paint11_linear_2020_141252)"/>
<path d="M80.8001 106.923L76.7664 104.594C76.5125 104.447 76.3025 104.052 76.297 103.711C76.2915 103.371 76.4927 103.213 76.7466 103.36L80.7802 105.689C81.0341 105.835 81.2441 106.23 81.2497 106.571C81.2552 106.912 81.054 107.069 80.8001 106.923Z" fill="url(#paint12_linear_2020_141252)"/>
<path d="M72.9279 117.759L70.1922 116.18C69.9383 116.033 69.7283 115.638 69.7228 115.297C69.7172 114.957 69.9185 114.799 70.1723 114.946L72.9081 116.525C73.1619 116.672 73.372 117.066 73.3775 117.408C73.383 117.748 73.1818 117.906 72.9279 117.759Z" fill="url(#paint13_linear_2020_141252)"/>
<path d="M78.7376 121.103L74.7039 118.773C74.45 118.627 74.24 118.232 74.2345 117.891C74.2289 117.55 74.4302 117.392 74.6841 117.539L78.7177 119.868C78.9716 120.015 79.1816 120.41 79.1872 120.751C79.1927 121.092 78.9915 121.249 78.7376 121.103Z" fill="url(#paint14_linear_2020_141252)"/>
<path d="M66.7818 101.393L65.073 100.406C64.8192 100.26 64.6092 99.8649 64.6036 99.5238C64.5981 99.1831 64.7993 99.0253 65.0532 99.1721L66.7619 100.159C67.0158 100.306 67.2258 100.7 67.2314 101.041C67.2369 101.382 67.0357 101.54 66.7818 101.393Z" fill="url(#paint15_linear_2020_141252)"/>
<path d="M72.6186 107.319L67.3973 104.305C67.1434 104.158 66.9334 103.763 66.9278 103.422C66.9223 103.082 67.1236 102.924 67.3774 103.071L72.5987 106.085C72.8526 106.232 73.0626 106.626 73.0682 106.968C73.0737 107.308 72.8724 107.466 72.6186 107.319Z" fill="url(#paint16_linear_2020_141252)"/>
<path d="M69.188 110.471L67.4793 109.484C67.2254 109.338 67.0154 108.943 67.0099 108.602C67.0043 108.261 67.2056 108.103 67.4594 108.25L69.1682 109.237C69.4221 109.384 69.6321 109.778 69.6376 110.12C69.6432 110.46 69.4419 110.618 69.188 110.471Z" fill="url(#paint17_linear_2020_141252)"/>
<path d="M80.7528 127.401L76.1883 124.766C75.9344 124.619 75.7244 124.224 75.7189 123.883C75.7133 123.543 75.9146 123.385 76.1684 123.531L80.7329 126.167C80.9868 126.313 81.1968 126.708 81.2023 127.049C81.2074 127.39 81.0062 127.548 80.7528 127.401Z" fill="url(#paint18_linear_2020_141252)"/>
<path d="M68.66 115.282L67.5633 114.649C67.3094 114.502 67.0994 114.107 67.0939 113.766C67.0883 113.425 67.2896 113.267 67.5434 113.414L68.6401 114.048C68.894 114.194 69.104 114.589 69.1096 114.93C69.1151 115.271 68.9138 115.429 68.66 115.282Z" fill="url(#paint19_linear_2020_141252)"/>
<path d="M69.0113 120.615L67.6492 119.828C67.3954 119.681 67.1853 119.287 67.1798 118.946C67.1743 118.605 67.3755 118.447 67.6294 118.594L68.9915 119.38C69.2453 119.527 69.4553 119.922 69.4609 120.263C69.4664 120.604 69.2652 120.761 69.0113 120.615Z" fill="url(#paint20_linear_2020_141252)"/>
<path d="M74.3071 123.675L70.7156 121.602C70.4618 121.455 70.2517 121.06 70.2462 120.719C70.2407 120.378 70.4419 120.221 70.6958 120.367L74.2873 122.441C74.5411 122.587 74.7512 122.982 74.7567 123.323C74.7622 123.664 74.561 123.821 74.3071 123.675Z" fill="url(#paint21_linear_2020_141252)"/>
<path d="M70.2723 123.905L67.6902 122.414C67.4364 122.267 67.2264 121.873 67.2208 121.532C67.2153 121.191 67.4165 121.033 67.6704 121.18L70.2529 122.671C70.5068 122.817 70.7168 123.212 70.7223 123.553C70.7274 123.894 70.5261 124.051 70.2723 123.905Z" fill="url(#paint22_linear_2020_141252)"/>
<path d="M75.5438 114.143L70.9793 111.508C70.7254 111.361 70.5154 110.966 70.5099 110.625C70.5043 110.285 70.7056 110.127 70.9594 110.274L75.5239 112.909C75.7778 113.055 75.9878 113.45 75.9934 113.791C75.9989 114.132 75.7977 114.289 75.5438 114.143Z" fill="url(#paint23_linear_2020_141252)"/>
<path d="M75.3935 111.499L67.4383 106.906C67.1844 106.76 66.9744 106.365 66.9689 106.024C66.9633 105.683 67.1646 105.525 67.4184 105.672L75.3736 110.265C75.6275 110.412 75.8375 110.807 75.8431 111.148C75.8486 111.488 75.6474 111.646 75.3935 111.499Z" fill="url(#paint24_linear_2020_141252)"/>
<path d="M72.0868 114.698L67.5223 112.063C67.2684 111.916 67.0584 111.521 67.0528 111.18C67.0473 110.839 67.2486 110.682 67.5024 110.828L72.0669 113.463C72.3208 113.61 72.5308 114.005 72.5363 114.346C72.5419 114.687 72.3406 114.844 72.0868 114.698Z" fill="url(#paint25_linear_2020_141252)"/>
<path d="M79.0069 116.145L77.3484 115.188C77.0946 115.041 76.8846 114.646 76.879 114.305C76.8735 113.964 77.0747 113.807 77.3286 113.953L78.987 114.911C79.2409 115.057 79.4509 115.452 79.4564 115.793C79.462 116.134 79.2607 116.291 79.0069 116.145Z" fill="url(#paint26_linear_2020_141252)"/>
<path d="M73.093 120.402L67.6062 117.234C67.3524 117.088 67.1424 116.693 67.1368 116.352C67.1313 116.011 67.3325 115.853 67.5864 116L73.0731 119.168C73.327 119.314 73.537 119.709 73.5425 120.051C73.5481 120.391 73.3468 120.549 73.093 120.402Z" fill="url(#paint27_linear_2020_141252)"/>
<path d="M69.0638 100.149L65.0301 97.8204C64.7762 97.6741 64.5662 97.2789 64.5607 96.9378C64.5551 96.5972 64.7564 96.4393 65.0102 96.5861L69.0439 98.9152C69.2978 99.062 69.5078 99.4567 69.5133 99.7978C69.5189 100.138 69.3176 100.296 69.0638 100.149Z" fill="url(#paint28_linear_2020_141252)"/>
<path d="M70.1216 126.377L65.45 123.68C65.1961 123.533 64.9861 123.138 64.9806 122.797C64.975 122.457 65.1763 122.299 65.4302 122.446L70.1017 125.143C70.3556 125.29 70.5656 125.684 70.5711 126.025C70.5767 126.366 70.3754 126.524 70.1216 126.377Z" fill="url(#paint29_linear_2020_141252)"/>
<path d="M78.6341 93.8816C78.6341 93.8816 76.3775 92.7438 74.9919 94.4383C73.6062 96.1327 71.6252 100.133 71.5638 102.835C71.5024 105.538 73.7027 105.355 75.0103 104.716C76.3184 104.076 80.1389 98.5338 80.3701 97.4477C80.6014 96.3617 80.0973 94.8934 79.7299 94.6063C79.3625 94.3192 78.6341 93.8816 78.6341 93.8816Z" fill="url(#paint30_linear_2020_141252)"/>
<path d="M79.1236 93.3365L79.2279 95.6744C79.2501 96.1715 79.0004 96.645 78.5674 96.8906C78.1732 97.114 77.6009 97.2857 76.8268 97.1611C75.1268 96.8878 74.9754 96.4023 74.8541 94.0653C74.7322 91.7279 79.1236 93.3365 79.1236 93.3365Z" fill="#D3E9F8"/>
<path d="M70.3724 89.3816C70.3724 89.3816 68.1158 88.2438 66.7301 89.9383C65.3445 91.6327 63.3634 95.6327 63.302 98.3352C63.2407 101.038 65.441 100.855 66.7486 100.216C68.0567 99.5759 71.8771 94.0338 72.1084 92.9477C72.3396 91.8617 71.8356 90.3934 71.4682 90.1063C71.1008 89.8192 70.3724 89.3816 70.3724 89.3816Z" fill="url(#paint31_linear_2020_141252)"/>
<path d="M70.8658 88.8443L70.9701 91.1822C70.9922 91.6793 70.7425 92.1529 70.3096 92.3984C69.9154 92.6218 69.343 92.7935 68.569 92.6689C66.8695 92.3956 66.7176 91.9101 66.5962 89.5731C66.4748 87.2357 70.8658 88.8443 70.8658 88.8443Z" fill="#D3E9F8"/>
<path d="M90.9994 45.9237C90.3316 35.0574 79.2316 47.5226 79.2316 47.5226L71.6346 54.9692L64.7937 62.4845C63.4574 63.9523 62.8361 65.9338 63.0946 67.9015L65.8622 88.9742C65.9988 90.015 66.8892 90.7826 67.9388 90.7743C68.2351 90.772 68.5748 90.7452 68.964 90.6843C71.4325 90.2998 71.2506 87.9522 71.2506 87.9522L70.7447 68.2431L85.1116 59.5826C85.1107 59.5826 91.6669 56.7901 90.9994 45.9237Z" fill="url(#paint32_linear_2020_141252)"/>
<path d="M99.2592 50.0722C98.5913 39.2058 87.4914 51.6711 87.4914 51.6711L79.8944 59.1176L73.0534 66.6329C71.7176 68.1007 71.0959 70.0823 71.3543 72.05L74.1219 93.1226C74.2586 94.1634 75.1489 94.9306 76.1985 94.9223C76.4949 94.92 76.8346 94.8932 77.2237 94.8323C79.6922 94.4478 79.5103 92.1007 79.5103 92.1007L79.0044 72.3915L93.3714 63.731C93.3709 63.731 99.9271 60.9385 99.2592 50.0722Z" fill="url(#paint33_linear_2020_141252)"/>
<path d="M92.6922 15.1781C101.108 18.6671 100.939 23.6415 100.939 23.6415C100.939 23.6415 99.2908 41.8787 99.8535 54.0582C100.089 59.1498 72.8016 59.5385 76.8709 45.9548C81.6689 29.9383 79.8706 16.9722 82.1166 15.017C84.3626 13.0613 90.5154 14.2757 92.6922 15.1781Z" fill="#4D4D4D"/>
<path d="M92.6922 15.1781C101.108 18.6671 100.939 23.6415 100.939 23.6415C100.939 23.6415 99.2908 41.8787 99.8535 54.0582C100.089 59.1498 72.8016 59.5385 76.8709 45.9548C81.6689 29.9383 79.8706 16.9722 82.1166 15.017C84.3626 13.0613 90.5154 14.2757 92.6922 15.1781Z" fill="#4D4D4D"/>
<path d="M95.3982 19.5955C94.9583 21.3042 92.7193 22.2048 90.398 21.6066C88.0768 21.0084 86.5517 19.1385 86.9916 17.4302C87.4319 15.7215 89.6706 14.8214 91.9918 15.4192C94.3131 16.0169 95.8381 17.8867 95.3982 19.5955Z" fill="#FAC0AF"/>
<path d="M90.5532 15.6395C89.9781 15.6395 89.4275 15.7392 88.9354 15.9372C88.1125 16.2677 87.5604 16.835 87.3804 17.5343C87.2004 18.234 87.4095 18.9974 87.9698 19.6843C88.5597 20.4071 89.457 20.9527 90.4979 21.2208C91.5364 21.4881 92.5865 21.4456 93.4524 21.0967C94.2754 20.7662 94.8269 20.1989 95.0074 19.4996V19.4992C95.1874 18.7999 94.9783 18.0364 94.418 17.3492C93.8281 16.6263 92.9308 16.0812 91.8909 15.813C91.4418 15.6977 90.9904 15.6395 90.5532 15.6395ZM91.8332 22.1984C91.3287 22.1984 90.8113 22.1329 90.2966 22.0004C89.0919 21.6898 88.0441 21.0482 87.3467 20.1934C86.6202 19.3025 86.3552 18.2871 86.6013 17.3339C86.8468 16.3812 87.5692 15.6196 88.6354 15.1913C89.6592 14.7791 90.8856 14.7237 92.0912 15.0344C93.2959 15.3445 94.3441 15.9861 95.0411 16.8414C95.7676 17.7318 96.0326 18.7473 95.7866 19.7004C95.541 20.6536 94.8186 21.4152 93.7524 21.8435C93.1662 22.0794 92.5122 22.1984 91.8332 22.1984Z" fill="white"/>
<path d="M89.3176 14.7944C89.3176 14.7944 89.3901 15.1318 89.2447 17.7988C89.199 18.637 92.1341 19.4203 92.8929 18.6614C93.6518 17.9026 93.348 17.1133 93.5304 14.2603C93.7127 11.4069 89.3176 14.7944 89.3176 14.7944Z" fill="#FAC0AF"/>
<path d="M93.5308 14.2656C93.5308 14.2656 92.8079 16.9109 89.2441 17.9259L89.2981 15.5216L93.5308 14.2656Z" fill="#E99B91"/>
<path d="M85.0711 4.23393C87.8795 2.02177 91.9559 2.5059 94.168 5.31434C96.3802 8.12278 95.8961 12.1991 93.0876 14.4113C90.2792 16.6234 86.2028 16.1393 83.9907 13.3309C81.7785 10.5224 82.2627 6.44609 85.0711 4.23393Z" fill="#FAC0AF"/>
<path d="M91.0043 9.40802C91.0043 9.40802 87.4377 10.9358 84.9683 10.9534C82.4989 10.9709 83.0431 8.90306 83.0431 8.90306L90.3738 7.84375L91.0043 9.40802Z" fill="#E99B91"/>
<path d="M84.2316 9.80767C84.2316 9.80767 87.3384 8.48896 90.064 9.03869C90.7047 9.16793 91.2987 9.51088 91.7109 10.0177C91.8457 10.1834 92.016 10.3343 92.2094 10.3782C92.6927 10.4876 93.4838 8.4825 94.4231 8.4368C95.3624 8.3911 95.9892 9.05623 95.2193 10.2891C94.449 11.5224 94.7093 12.9025 95.0638 13.1001C95.4183 13.2981 99.1773 10.4188 95.8614 3.85015C92.5454 -2.71849 84.1227 0.819466 82.8127 2.15064C82.8127 2.15064 81.4326 3.35304 80.3105 2.28311C80.3101 2.28357 79.0523 11.7075 84.2316 9.80767Z" fill="#1D1B1C"/>
<path d="M96.2176 36.9778V41.9055C96.2176 42.47 95.9799 43.0087 95.5627 43.389L85.4395 52.6182L86.5897 54.3772L99.9587 44.6814C100.583 44.2291 100.985 43.5326 101.066 42.7659L101.969 34.1719L96.2176 36.9778Z" fill="#FAC0AF"/>
<path d="M100.226 21.1797C100.226 21.1797 103.297 25.7986 104.441 37.956C104.441 37.956 99.1946 39.6528 96.217 38.6894C93.2399 37.7261 100.226 21.1797 100.226 21.1797Z" fill="#4D4D4D"/>
<path d="M100.226 21.1797C100.226 21.1797 103.297 25.7986 104.441 37.956C104.441 37.956 99.1946 39.6528 96.217 38.6894C93.2399 37.7261 100.226 21.1797 100.226 21.1797Z" fill="#4D4D4D"/>
<path d="M95.6579 27.0234C95.6579 27.0234 94.4555 33.4582 94.3872 36.4824C94.3683 37.3137 94.876 38.0638 95.6579 38.3467V27.0234Z" fill="#333333"/>
<path d="M95.6579 27.0234C95.6579 27.0234 94.4555 33.4582 94.3872 36.4824C94.3683 37.3137 94.876 38.0638 95.6579 38.3467V27.0234Z" fill="#333333"/>
<path d="M93.0293 59.0178L90.7921 58.7224L76.349 50.3837C75.886 50.1164 75.0769 50.1496 74.5424 50.4584L64.3079 56.3652L62.9551 56.1865V57.5334H62.9565C62.9477 57.7107 63.0488 57.8814 63.2671 58.0074L79.6354 67.4577C80.0984 67.7249 80.907 67.6917 81.442 67.3829L92.5876 60.95C92.8885 60.7764 93.0385 60.5526 93.0293 60.3425V59.0178Z" fill="#5D3393"/>
<path d="M82.1773 53.7406L81.1512 53.1484H69.8694L64.3079 56.3573L62.9551 56.1787V57.5255H62.9565C62.9477 57.7028 63.0488 57.8736 63.2671 57.9996L79.6354 67.4498C79.88 67.591 80.2211 67.6474 80.5678 67.6247L82.1773 53.7406Z" fill="#9951F4"/>
<path d="M63.5556 56.2669L62.9551 56.1875V57.5344H62.9565C62.9477 57.7116 63.0488 57.8824 63.2671 58.0084L63.5556 58.175V56.2669Z" fill="#F0E4FF"/>
<path d="M79.8027 67.5274C80.2417 67.694 80.869 67.6576 81.3379 67.4323V65.1406H79.8027V67.5274Z" fill="white"/>
<path d="M79.6359 66.1113L63.2676 56.6611C62.8046 56.3938 62.8628 55.9267 63.3973 55.6179L74.5429 49.185C75.0774 48.8762 75.8865 48.843 76.3495 49.1102L92.7178 58.5605C93.1807 58.8277 93.1226 59.2948 92.5881 59.6036L81.4425 66.0365C80.908 66.3453 80.0993 66.3786 79.6359 66.1113Z" fill="white"/>
<path d="M79.3586 64.6788L65.7482 56.8209C65.3633 56.5985 65.4113 56.2103 65.8562 55.9536L71.829 52.5952C72.2735 52.3386 72.946 52.3104 73.331 52.5329L86.9413 60.3907C87.3263 60.6132 87.2783 61.0014 86.8333 61.258L80.8606 64.6164C80.4166 64.8731 79.744 64.9008 79.3586 64.6788Z" fill="#D3E9F8"/>
<path d="M75.1759 48.8804L75.0065 50.0099C74.8621 50.9722 74.887 51.9522 75.0804 52.9058L75.2821 53.9009C75.3956 54.4622 75.8401 54.8979 76.4033 55.0004C76.8431 55.0807 77.259 54.771 77.3089 54.3265L77.5789 51.912C77.5789 51.912 78.1965 52.7216 78.4946 52.7216C78.7928 52.7216 78.1609 50.3039 77.4866 48.9353C76.8122 47.5668 75.1759 48.8804 75.1759 48.8804Z" fill="#FAC0AF"/>
<path d="M80.7251 30.9243L78.9688 34.4004C78.5534 35.2225 78.3092 36.1198 78.2501 37.0388L77.4876 48.9289L75.177 48.874L74.1283 35.5211C74.096 35.109 74.1158 34.694 74.1883 34.2869L75.3861 27.5156L80.7251 30.9243Z" fill="#FAC0AF"/>
<path d="M79.082 67.013L77.7098 65.2212L63.2769 56.8649C62.8144 56.5972 62.4396 55.8794 62.4405 55.2618L62.4529 43.4451L61.623 42.3618L62.4026 41.9104L62.4036 41.9113C62.5531 41.8153 62.7511 41.8176 62.9695 41.9441L79.3262 51.4142C79.7887 51.6819 80.1635 52.3996 80.1626 53.0172L80.1487 65.8859C80.1483 66.233 80.0292 66.4748 79.8427 66.5718L79.082 67.013Z" fill="#5D3393"/>
<path d="M69.0995 60.2367L68.0739 59.6431L62.445 49.8661L62.451 43.4451L61.6211 42.3618L62.4007 41.9104L62.4016 41.9113C62.5512 41.8153 62.7492 41.8176 62.9675 41.9441L79.3243 51.4142C79.5689 51.5559 79.7881 51.8236 79.9409 52.1351L69.0995 60.2367Z" fill="#5D3393"/>
<path d="M61.9894 42.8428L61.6211 42.3618L62.4007 41.9104L62.4016 41.9113C62.5512 41.8153 62.7492 41.8176 62.9675 41.9441L63.2555 42.1107L61.9894 42.8428Z" fill="#5D3393"/>
<path d="M79.476 51.5312C79.8392 51.8285 80.1208 52.3902 80.1591 52.909L78.5607 53.8317L77.7949 52.5015L79.476 51.5312Z" fill="#5D3393"/>
<path d="M78.5476 51.8757L62.1909 42.4056C61.7284 42.1379 61.3527 42.4209 61.3517 43.0385L61.3379 55.9071C61.337 56.5247 61.7118 57.2424 62.1743 57.5102L78.531 66.9802C78.9935 67.248 79.3692 66.965 79.3702 66.3474L79.384 53.4788C79.3849 52.8617 79.0106 52.1439 78.5476 51.8757Z" fill="#5D3393"/>
<path d="M86.5887 54.3753L86.3265 54.9186C86.0247 55.544 85.5502 56.0697 84.9594 56.4339L83.3346 57.4355C82.8292 57.7471 82.189 57.7725 81.6762 57.4739C81.6577 57.4632 81.6393 57.4522 81.6208 57.4406C81.1043 57.1171 81.0577 56.3758 81.4828 55.9391L83.1805 54.1935C83.1805 54.1935 82.2264 54.9241 81.9591 54.6301C81.7634 54.4146 82.8841 53.3617 83.745 53.3275C84.6058 53.2929 85.4385 52.6172 85.4385 52.6172L86.5887 54.3753Z" fill="#FAC0AF"/>
<path d="M82.286 15C82.286 15 76.0617 21.7722 73.5508 27.985C73.5508 27.985 75.6791 31.8197 80.8889 33.3244C86.0991 34.8292 82.286 15 82.286 15Z" fill="#4D4D4D"/>
<path d="M82.286 15C82.286 15 76.0617 21.7722 73.5508 27.985C73.5508 27.985 75.6791 31.8197 80.8889 33.3244C86.0991 34.8292 82.286 15 82.286 15Z" fill="#4D4D4D"/>
<path d="M79.7158 32.9171L80.7248 23.1719L78.3477 32.3022C78.7714 32.5229 79.2297 32.7283 79.7158 32.9171Z" fill="#333333"/>
<path d="M79.7158 32.9171L80.7248 23.1719L78.3477 32.3022C78.7714 32.5229 79.2297 32.7283 79.7158 32.9171Z" fill="#333333"/>
<path d="M86.9477 13.6316L85.2754 13.1719C85.2754 13.1719 86.0739 14.4278 87.2394 14.7481C88.4049 15.0685 88.5862 14.0816 88.5862 14.0816L86.9477 13.6316Z" fill="white"/>
<path d="M95.8824 10.9549C95.8824 11.4695 95.4652 11.8863 94.951 11.8863C94.4363 11.8863 94.0195 11.4691 94.0195 10.9549C94.0195 10.4402 94.4368 10.0234 94.951 10.0234C95.4652 10.0234 95.8824 10.4407 95.8824 10.9549Z" fill="white"/>
<path d="M86.9138 27.3991C86.8178 27.3963 86.7282 27.4014 86.641 27.4614C86.467 27.5805 86.4185 27.7504 86.4139 27.9451C86.4098 28.1178 86.4868 28.2572 86.6225 28.349C86.7536 28.4376 86.899 28.4469 87.0476 28.3564C87.2337 28.2429 87.3163 28.0831 87.3172 27.8704C87.3177 27.6696 87.1247 27.3954 86.9138 27.3991ZM86.4564 29.5371C86.4744 29.3797 86.4924 29.2223 86.5113 29.0561C86.6041 29.0668 86.6927 29.0806 86.7813 29.0861C86.9738 29.0986 87.11 29.0123 87.1787 28.8129C86.9692 28.9135 86.7578 28.8969 86.5487 28.8272C86.2468 28.7266 86.0613 28.5138 85.9925 28.2069C85.9103 27.8404 85.9754 27.5034 86.2307 27.2163C86.4342 26.9874 86.6932 26.8983 86.9936 26.9394C87.2309 26.9721 87.4095 27.1078 87.5609 27.2892C87.6057 27.2459 87.6597 27.2029 87.7017 27.1503C87.7455 27.0958 87.7935 27.0894 87.8568 27.1111C87.8572 27.1222 87.8605 27.136 87.8586 27.1489C87.7968 27.6894 87.7386 28.2304 87.6685 28.77C87.6532 28.8849 87.6061 29.0017 87.5484 29.1037C87.4298 29.3137 87.2507 29.4568 87.013 29.5182C86.9336 29.5385 86.8529 29.5551 86.773 29.5736C86.6673 29.5611 86.5616 29.5491 86.4564 29.5371Z" fill="white"/>
<path d="M82.5749 25.8594C82.5971 25.8635 82.6188 25.8695 82.6409 25.8723C82.9677 25.9125 83.2959 25.9471 83.6218 25.9951C83.8064 26.0223 83.967 26.1155 84.0898 26.2549C84.388 26.5951 84.4401 27.0461 84.2347 27.4338C84.0478 27.7864 83.6767 27.99 83.2954 27.9351C83.145 27.9134 82.9936 27.9 82.8302 27.8811C82.8108 28.05 82.7919 28.2166 82.7725 28.3865C82.61 28.368 82.4591 28.3509 82.3086 28.3334C82.3446 28.0085 82.3806 27.683 82.4166 27.3581C82.4484 27.3599 82.4808 27.3599 82.5126 27.3632C82.7803 27.3932 83.0494 27.4149 83.3157 27.4569C83.5765 27.498 83.8045 27.3115 83.8655 27.1029C83.955 26.7973 83.7584 26.5139 83.4971 26.4631C83.487 26.4608 83.4773 26.4585 83.4671 26.4557C83.198 26.4257 82.9289 26.3957 82.6603 26.3648C82.6174 26.3597 82.5749 26.3509 82.5325 26.3436C82.5472 26.2176 82.5625 26.092 82.5758 25.9655C82.5786 25.9397 82.5735 25.9125 82.5722 25.8861C82.5726 25.8778 82.5735 25.8686 82.5749 25.8594Z" fill="white"/>
<path d="M82.4008 27.3672C82.4049 27.3672 82.4091 27.3672 82.4132 27.3672C82.3772 27.6921 82.3412 28.0175 82.3052 28.3425C82.2997 28.343 82.2946 28.3434 82.2891 28.3439C82.3264 28.0185 82.3638 27.6931 82.4008 27.3672Z" fill="white"/>
<path d="M82.5272 26.3554C82.5235 26.3545 82.5193 26.3531 82.5156 26.3522C82.5327 26.2008 82.5502 26.0494 82.5673 25.8984C82.5687 25.9247 82.5738 25.952 82.571 25.9778C82.5576 26.1034 82.5419 26.2294 82.5272 26.3554Z" fill="#7C93AC"/>
<path d="M88.4885 28.3349C88.6943 28.1073 88.8933 27.8881 89.0936 27.6675C88.9717 27.5881 88.7982 27.6144 88.6537 27.7224C88.4811 27.8503 88.4303 28.1175 88.4885 28.3349ZM89.7167 27.6365C89.3917 27.9638 89.0742 28.2837 88.7534 28.6063C88.9099 28.6802 89.1065 28.652 89.2985 28.4175C89.3913 28.5417 89.4827 28.664 89.5759 28.7886C89.4375 28.9613 89.2607 29.0647 89.046 29.0951C88.7529 29.1371 88.4889 29.0623 88.2798 28.8514C88.0984 28.6686 88.0116 28.4369 88.0098 28.1789C88.0084 27.9878 88.0453 27.805 88.1381 27.6342C88.2964 27.3434 88.5337 27.1764 88.8679 27.1579C89.1485 27.1422 89.3876 27.2391 89.5801 27.4427C89.6327 27.4981 89.6696 27.5687 89.7167 27.6365Z" fill="white"/>
<path d="M94.4845 28.2829C94.334 28.222 94.1688 28.2187 94.0054 28.3701C93.866 28.4998 93.8162 28.7855 93.8803 28.9503C94.0816 28.7283 94.28 28.5091 94.4845 28.2829ZM94.1383 29.2296C94.3442 29.3048 94.5007 29.2476 94.6867 29.0376C94.779 29.1613 94.8699 29.2836 94.9641 29.4101C94.8431 29.555 94.6968 29.6588 94.5113 29.6999C94.1836 29.7719 93.8886 29.7018 93.6555 29.4585C93.4824 29.2776 93.3984 29.05 93.3984 28.7948C93.3984 28.5686 93.4497 28.3567 93.5752 28.167C93.9136 27.6575 94.593 27.6672 94.9618 28.0553C95.0176 28.114 95.0573 28.1878 95.1053 28.2557C94.7818 28.5815 94.4642 28.9019 94.1383 29.2296Z" fill="white"/>
<path d="M89.9879 27.3616C90.1375 27.3399 90.1403 27.4853 90.2206 27.548C90.3378 27.4719 90.4675 27.4169 90.6129 27.4068C90.876 27.3883 91.104 27.47 91.2716 27.6727C91.4197 27.8518 91.489 28.0655 91.4631 28.3018C91.4267 28.6364 91.3874 28.9711 91.3496 29.3057C91.3473 29.326 91.345 29.3463 91.3422 29.3708C91.1936 29.3537 91.05 29.3376 90.8949 29.3196C90.8977 29.2942 90.9009 29.2679 90.9037 29.2415C90.9411 28.9184 90.9739 28.5949 91.0172 28.2722C91.0412 28.0922 90.8908 27.8998 90.7444 27.8707C90.5557 27.8333 90.3544 28.0091 90.336 28.1822C90.3018 28.5058 90.263 28.8289 90.2266 29.152C90.2233 29.1811 90.2201 29.2106 90.2164 29.2429C90.0678 29.2259 89.9265 29.2097 89.7793 29.1931C89.8481 28.5838 89.9178 27.9741 89.9879 27.3616Z" fill="white"/>
<path d="M93.3672 28.1004C93.2453 28.2038 93.1286 28.303 93.0178 28.3976C92.9656 28.3215 92.9121 28.2536 92.8701 28.1793C92.7962 28.0487 92.4828 28.0201 92.36 28.1184C92.1823 28.261 92.1057 28.435 92.1205 28.6529C92.1251 28.7212 92.1491 28.7955 92.187 28.8523C92.3079 29.0332 92.4339 29.1098 92.6661 29.0568C92.7505 29.0374 92.8225 28.9607 92.8982 28.9077C92.9181 28.8938 92.931 28.8707 92.9522 28.8458C93.0469 28.9727 93.1387 29.096 93.2306 29.2192C93.0755 29.4071 92.8798 29.5128 92.6425 29.5322C92.372 29.5539 92.1274 29.4782 91.9363 29.2829C91.7572 29.1001 91.6598 28.8749 91.6621 28.6132C91.6649 28.2929 91.7831 28.0261 92.018 27.8054C92.3582 27.4865 92.9222 27.5146 93.2412 27.8931C93.292 27.9536 93.3243 28.0288 93.3672 28.1004Z" fill="white"/>
<path d="M84.669 25.9922C84.8172 26.0093 84.9612 26.0254 85.1107 26.0425C85.0129 26.9001 84.915 27.7582 84.8167 28.6204C84.6723 28.6038 84.5264 28.5872 84.375 28.5701C84.4728 27.7143 84.5707 26.8567 84.669 25.9922Z" fill="white"/>
<path d="M85.608 28.7058C85.4593 28.6888 85.3176 28.6726 85.1699 28.656C85.2396 28.0439 85.3093 27.4337 85.3795 26.8203C85.5244 26.8369 85.668 26.8531 85.8175 26.8702C85.7478 27.4804 85.6781 28.0906 85.608 28.7058Z" fill="white"/>
<path d="M85.6861 26.0319C85.8509 26.0504 85.9741 26.2087 85.9538 26.3813C85.9307 26.5779 85.789 26.6693 85.6381 26.6606C85.4507 26.6499 85.3353 26.5009 85.3584 26.3153C85.381 26.1316 85.5264 26.0217 85.6861 26.0319Z" fill="#FACE0F"/>
<path d="M83.4929 26.4605C83.4827 26.4582 83.473 26.4559 83.4629 26.4531C83.473 26.4559 83.4832 26.4582 83.4929 26.4605Z" fill="#7C93AC"/>
<g opacity="0.0710148">
<path d="M153.897 76.767C153.897 77.6927 153.248 78.0679 152.446 77.6048C151.644 77.1418 150.994 76.0165 150.994 75.0909C150.994 74.1653 151.644 73.79 152.446 74.2531C153.247 74.7156 153.897 75.8414 153.897 76.767Z" fill="white"/>
<path d="M158.292 79.3061C158.292 80.2317 157.642 80.607 156.84 80.1439C156.038 79.6808 155.389 78.5556 155.389 77.63C155.389 76.7043 156.038 76.3291 156.84 76.7921C157.642 77.2547 158.292 78.3799 158.292 79.3061Z" fill="white"/>
<path d="M162.69 81.8451C162.69 82.7708 162.041 83.146 161.239 82.683C160.437 82.2199 159.787 81.0947 159.787 80.169C159.787 79.2434 160.437 78.8681 161.239 79.3312C162.04 79.7943 162.69 80.9195 162.69 81.8451Z" fill="white"/>
<path d="M141.653 56.642C141.653 57.5677 141.003 57.9429 140.202 57.4798C139.4 57.0168 138.75 55.8915 138.75 54.9659C138.75 54.0403 139.4 53.665 140.202 54.1281C141.003 54.5906 141.653 55.7164 141.653 56.642Z" fill="white"/>
<path d="M146.052 59.1811C146.052 60.1067 145.402 60.482 144.6 60.0189C143.798 59.5558 143.148 58.4306 143.148 57.505C143.148 56.5793 143.798 56.2041 144.6 56.6671C145.401 57.1297 146.052 58.2554 146.052 59.1811Z" fill="white"/>
<path d="M150.446 61.7202C150.446 62.6458 149.796 63.021 148.995 62.558C148.193 62.0949 147.543 60.9697 147.543 60.044C147.543 59.1184 148.193 58.7431 148.995 59.2062C149.796 59.6688 150.446 60.7945 150.446 61.7202Z" fill="white"/>
</g>
<g filter="url(#filter1_f_2020_141252)">
<path d="M120.922 160.63L128.494 156.258L136.066 160.63L128.494 165.002L120.922 160.63Z" fill="#4D4D4D"/>
<path d="M120.922 160.63L128.494 156.258L136.066 160.63L128.494 165.002L120.922 160.63Z" fill="#4D4D4D"/>
</g>
<g filter="url(#filter2_f_2020_141252)">
<path d="M136.996 151.231L144.568 146.859L152.141 151.231L144.568 155.603L136.996 151.231Z" fill="#4D4D4D"/>
<path d="M136.996 151.231L144.568 146.859L152.141 151.231L144.568 155.603L136.996 151.231Z" fill="#4D4D4D"/>
</g>
<g filter="url(#filter3_f_2020_141252)">
<path d="M153.02 142.044L160.592 137.672L168.164 142.044L160.592 146.416L153.02 142.044Z" fill="#4D4D4D"/>
<path d="M153.02 142.044L160.592 137.672L168.164 142.044L160.592 146.416L153.02 142.044Z" fill="#4D4D4D"/>
</g>
<path d="M144.568 151.22V127.903L136.996 123.531V146.848L144.568 151.22Z" fill="#4D4D4D"/>
<path d="M144.566 127.903L152.139 123.531V146.848L144.566 151.22V127.903Z" fill="#4D4D4D"/>
<path d="M144.568 151.22V127.903L136.996 123.531V146.848L144.568 151.22Z" fill="#4D4D4D"/>
<path d="M128.494 160.636V147.521L120.922 143.148V156.264L128.494 160.636Z" fill="#4D4D4D"/>
<path d="M128.492 147.521L136.064 143.148V156.264L128.492 160.636V147.521Z" fill="#4D4D4D"/>
<path d="M120.922 143.145L128.494 138.773L136.066 143.145L128.494 147.517L120.922 143.145Z" fill="#666666"/>
<path d="M160.592 142.049V109.989L153.02 105.617V137.677L160.592 142.049Z" fill="#4D4D4D"/>
<path d="M160.594 109.989L168.166 105.617V137.677L160.594 142.049V109.989Z" fill="#4D4D4D"/>
<path d="M153.02 105.614L160.592 101.242L168.164 105.614L160.592 109.986L153.02 105.614Z" fill="#666666"/>
<path d="M136.996 123.536L144.568 119.164L152.141 123.536L144.568 127.907L136.996 123.536Z" fill="#666666"/>
<path d="M38.848 90.996C36.2882 92.4741 32.137 92.4741 29.5771 90.996C27.0168 89.518 27.0168 87.1213 29.5771 85.6433C32.1375 84.1652 36.2882 84.1652 38.848 85.6433C41.4079 87.1218 41.4084 89.518 38.848 90.996ZM44.2966 82.4976C38.7273 79.2821 29.6974 79.2821 24.1281 82.4976C18.5588 85.7131 18.5588 90.9267 24.1286 94.1422C29.6979 97.3577 38.7278 97.3577 44.2971 94.1422C49.8664 90.9267 49.8664 85.7131 44.2966 82.4976Z" fill="#5D3393"/>
<path d="M22.025 80.5922L27.1122 80.6715C27.489 80.1815 28.0234 79.7224 28.719 79.3207C31.5164 77.7055 35.9156 77.5807 38.9634 78.944L41.9864 76.1012L46.641 76.1736C46.411 76.0229 46.1749 75.8747 45.9254 75.7309C39.4569 71.9959 28.969 71.9959 22.5005 75.7309C21.3109 76.4176 20.3418 77.1835 19.5898 77.9984L22.025 80.5922Z" fill="#333333"/>
<path d="M46.639 68.7838V76.1715L41.9844 76.0986V68.7109L46.639 68.7838Z" fill="#333333"/>
<path d="M38.9629 71.5542V78.9419L41.9858 76.0986V68.7109L38.9629 71.5542Z" fill="#333333"/>
<path d="M27.1116 73.2819V80.6696L33.8036 75.216L38.9623 78.942V71.5544L34.2123 69.25C34.2123 69.25 27.6729 71.252 27.3331 71.3368C26.9938 71.4216 27.1116 73.2819 27.1116 73.2819Z" fill="#333333"/>
<path d="M22.0234 73.2031V80.5908L27.1107 80.6701V73.2825L22.0234 73.2031Z" fill="#333333"/>
<path d="M19.5898 70.6172V78.0048L22.025 80.5991V73.2115L19.5898 70.6172Z" fill="#333333"/>
<path d="M22.025 73.2092L27.1122 73.2885C27.489 72.7985 28.0234 72.3394 28.719 71.9377C31.5164 70.3225 35.9156 70.1977 38.9634 71.561L41.9864 68.7182L46.641 68.7905C46.411 68.6398 46.1749 68.4916 45.9254 68.3479C39.4569 64.6134 28.969 64.6129 22.5005 68.3479C21.3109 69.0346 20.3418 69.8005 19.5898 70.6154L22.025 73.2092Z" fill="#666666"/>
<path d="M40.4941 72.4688V79.2601L44.8978 78.2052C44.8978 78.2052 44.6393 74.2312 44.5455 74.1249C44.4517 74.0186 40.4941 72.4688 40.4941 72.4688Z" fill="#1C2D59"/>
<path d="M37.1621 79.2578V86.6455L37.6376 87.1525L40.7419 85.3626C40.7419 85.3626 40.2604 79.7234 40.204 79.6096C40.1476 79.4968 37.1621 79.2578 37.1621 79.2578Z" fill="#192C56"/>
<path d="M43.1566 77.3516L40.4944 79.855C42.712 81.6095 42.45 84.083 39.7065 85.6674C38.955 86.101 38.0877 86.4273 37.1621 86.6464L39.9136 89.578L37.4755 91.8709C40.5713 91.5136 43.5248 90.6434 45.9245 89.2576C51.4853 86.0471 52.2608 81.123 48.2608 77.4309L43.1566 77.3516Z" fill="#1C2D59"/>
<path d="M37.4746 84.4806V91.8683L43.512 89.537L50.7724 82.6099L50.7454 74.7656L43.0639 80.8544L37.4746 84.4806Z" fill="#1C2D59"/>
<path d="M43.1566 69.9688L40.4944 72.4722C42.712 74.2267 42.45 76.7007 39.7065 78.2845C38.955 78.7187 38.0877 79.0445 37.1621 79.2636L39.9136 82.1952L37.4755 84.4881C40.5713 84.1308 43.5248 83.2606 45.9245 81.8748C51.4853 78.6643 52.2608 73.7402 48.2608 70.0481L43.1566 69.9688Z" fill="url(#paint34_linear_2020_141252)"/>
<path d="M37.4547 89.5387L35.0296 86.9549C32.7781 87.0916 30.4428 86.663 28.7173 85.6665C26.9349 84.6376 26.2008 83.2329 26.5122 81.8936L20.7368 81.8033L18.5163 79.4375C16.5737 82.7713 17.899 86.6001 22.4993 89.2563C25.8795 91.2079 30.357 92.1375 34.7851 92.0497L37.4547 89.5387Z" fill="#9951F4"/>
<path d="M34.7854 84.6625V92.0501L17.6523 82.5552V75.1641L20.1538 76.1755L34.7854 84.6625Z" fill="#9951F4"/>
<path d="M37.4553 82.1484V89.5356L34.7852 92.047V84.6594L37.4553 82.1484Z" fill="#203E79"/>
<path d="M37.4547 82.1481L35.0296 79.5643C32.7781 79.701 30.4428 79.2724 28.7173 78.2759C26.9349 77.2469 26.2008 75.8422 26.5122 74.5029L20.7368 74.4131L18.5163 72.0469C16.5737 75.3807 17.899 79.21 22.4993 81.8656C25.8795 83.8172 30.357 84.7469 34.7851 84.659L37.4547 82.1481Z" fill="#F0E4FF"/>
<defs>
<filter id="filter0_f_2020_141252" x="70.502" y="118.383" width="59.5566" height="36.0781" filterUnits="userSpaceOnUse" color-interpolation-filters="sRGB">
<feFlood flood-opacity="0" result="BackgroundImageFix"/>
<feBlend mode="normal" in="SourceGraphic" in2="BackgroundImageFix" result="shape"/>
<feGaussianBlur stdDeviation="1" result="effect1_foregroundBlur_2020_141252"/>
</filter>
<filter id="filter1_f_2020_141252" x="118.922" y="154.258" width="19.1445" height="12.7422" filterUnits="userSpaceOnUse" color-interpolation-filters="sRGB">
<feFlood flood-opacity="0" result="BackgroundImageFix"/>
<feBlend mode="normal" in="SourceGraphic" in2="BackgroundImageFix" result="shape"/>
<feGaussianBlur stdDeviation="1" result="effect1_foregroundBlur_2020_141252"/>
</filter>
<filter id="filter2_f_2020_141252" x="134.996" y="144.859" width="19.1445" height="12.7422" filterUnits="userSpaceOnUse" color-interpolation-filters="sRGB">
<feFlood flood-opacity="0" result="BackgroundImageFix"/>
<feBlend mode="normal" in="SourceGraphic" in2="BackgroundImageFix" result="shape"/>
<feGaussianBlur stdDeviation="1" result="effect1_foregroundBlur_2020_141252"/>
</filter>
<filter id="filter3_f_2020_141252" x="151.02" y="135.672" width="19.1445" height="12.7422" filterUnits="userSpaceOnUse" color-interpolation-filters="sRGB">
<feFlood flood-opacity="0" result="BackgroundImageFix"/>
<feBlend mode="normal" in="SourceGraphic" in2="BackgroundImageFix" result="shape"/>
<feGaussianBlur stdDeviation="1" result="effect1_foregroundBlur_2020_141252"/>
</filter>
<linearGradient id="paint0_linear_2020_141252" x1="155.915" y1="73.8001" x2="128.993" y2="71.5911" gradientUnits="userSpaceOnUse">
<stop stop-color="#7830D2"/>
<stop offset="1" stop-color="#BB86FF"/>
</linearGradient>
<linearGradient id="paint1_linear_2020_141252" x1="68.1498" y1="127.285" x2="65.2756" y2="127.223" gradientUnits="userSpaceOnUse">
<stop stop-color="#7830D2"/>
<stop offset="1" stop-color="#BB86FF"/>
</linearGradient>
<linearGradient id="paint2_linear_2020_141252" x1="103.169" y1="144.608" x2="96.916" y2="144.296" gradientUnits="userSpaceOnUse">
<stop stop-color="#7830D2"/>
<stop offset="1" stop-color="#BB86FF"/>
</linearGradient>
<linearGradient id="paint3_linear_2020_141252" x1="100.28" y1="127.976" x2="62.9541" y2="124.029" gradientUnits="userSpaceOnUse">
<stop stop-color="#7830D2"/>
<stop offset="1" stop-color="#BB86FF"/>
</linearGradient>
<linearGradient id="paint4_linear_2020_141252" x1="68.1498" y1="110.636" x2="65.2756" y2="110.574" gradientUnits="userSpaceOnUse">
<stop stop-color="#7830D2"/>
<stop offset="1" stop-color="#BB86FF"/>
</linearGradient>
<linearGradient id="paint5_linear_2020_141252" x1="103.169" y1="127.975" x2="96.916" y2="127.663" gradientUnits="userSpaceOnUse">
<stop stop-color="#7830D2"/>
<stop offset="1" stop-color="#BB86FF"/>
</linearGradient>
<linearGradient id="paint6_linear_2020_141252" x1="68.1498" y1="94.0036" x2="65.2756" y2="93.9414" gradientUnits="userSpaceOnUse">
<stop stop-color="#7830D2"/>
<stop offset="1" stop-color="#BB86FF"/>
</linearGradient>
<linearGradient id="paint7_linear_2020_141252" x1="103.169" y1="111.335" x2="96.916" y2="111.023" gradientUnits="userSpaceOnUse">
<stop stop-color="#7830D2"/>
<stop offset="1" stop-color="#BB86FF"/>
</linearGradient>
<linearGradient id="paint8_linear_2020_141252" x1="116.62" y1="98.9949" x2="87.2212" y2="95.2581" gradientUnits="userSpaceOnUse">
<stop stop-color="#7830D2"/>
<stop offset="1" stop-color="#BB86FF"/>
</linearGradient>
<linearGradient id="paint9_linear_2020_141252" x1="68.8303" y1="158.972" x2="29.4534" y2="154.077" gradientUnits="userSpaceOnUse">
<stop stop-color="#7830D2"/>
<stop offset="1" stop-color="#BB86FF"/>
</linearGradient>
<linearGradient id="paint10_linear_2020_141252" x1="81.5994" y1="66.6261" x2="77.1625" y2="66.016" gradientUnits="userSpaceOnUse">
<stop stop-color="#7830D2"/>
<stop offset="1" stop-color="#BB86FF"/>
</linearGradient>
<linearGradient id="paint11_linear_2020_141252" x1="74.7331" y1="103.212" x2="70.8402" y2="102.678" gradientUnits="userSpaceOnUse">
<stop stop-color="#7830D2"/>
<stop offset="1" stop-color="#BB86FF"/>
</linearGradient>
<linearGradient id="paint12_linear_2020_141252" x1="81.2498" y1="106.978" x2="75.9904" y2="106.198" gradientUnits="userSpaceOnUse">
<stop stop-color="#7830D2"/>
<stop offset="1" stop-color="#BB86FF"/>
</linearGradient>
<linearGradient id="paint13_linear_2020_141252" x1="73.3776" y1="117.814" x2="69.4847" y2="117.279" gradientUnits="userSpaceOnUse">
<stop stop-color="#7830D2"/>
<stop offset="1" stop-color="#BB86FF"/>
</linearGradient>
<linearGradient id="paint14_linear_2020_141252" x1="79.1873" y1="121.158" x2="73.9278" y2="120.378" gradientUnits="userSpaceOnUse">
<stop stop-color="#7830D2"/>
<stop offset="1" stop-color="#BB86FF"/>
</linearGradient>
<linearGradient id="paint15_linear_2020_141252" x1="67.2315" y1="101.448" x2="64.4227" y2="101.1" gradientUnits="userSpaceOnUse">
<stop stop-color="#7830D2"/>
<stop offset="1" stop-color="#BB86FF"/>
</linearGradient>
<linearGradient id="paint16_linear_2020_141252" x1="73.0683" y1="107.374" x2="66.5605" y2="106.366" gradientUnits="userSpaceOnUse">
<stop stop-color="#7830D2"/>
<stop offset="1" stop-color="#BB86FF"/>
</linearGradient>
<linearGradient id="paint17_linear_2020_141252" x1="69.6377" y1="110.526" x2="66.829" y2="110.178" gradientUnits="userSpaceOnUse">
<stop stop-color="#7830D2"/>
<stop offset="1" stop-color="#BB86FF"/>
</linearGradient>
<linearGradient id="paint18_linear_2020_141252" x1="81.2024" y1="127.456" x2="75.3849" y2="126.575" gradientUnits="userSpaceOnUse">
<stop stop-color="#7830D2"/>
<stop offset="1" stop-color="#BB86FF"/>
</linearGradient>
<linearGradient id="paint19_linear_2020_141252" x1="69.1097" y1="115.337" x2="66.9491" y2="115.095" gradientUnits="userSpaceOnUse">
<stop stop-color="#7830D2"/>
<stop offset="1" stop-color="#BB86FF"/>
</linearGradient>
<linearGradient id="paint20_linear_2020_141252" x1="69.461" y1="120.67" x2="67.0191" y2="120.382" gradientUnits="userSpaceOnUse">
<stop stop-color="#7830D2"/>
<stop offset="1" stop-color="#BB86FF"/>
</linearGradient>
<linearGradient id="paint21_linear_2020_141252" x1="74.7568" y1="123.73" x2="69.9626" y2="123.034" gradientUnits="userSpaceOnUse">
<stop stop-color="#7830D2"/>
<stop offset="1" stop-color="#BB86FF"/>
</linearGradient>
<linearGradient id="paint22_linear_2020_141252" x1="70.7224" y1="123.96" x2="66.9911" y2="123.453" gradientUnits="userSpaceOnUse">
<stop stop-color="#7830D2"/>
<stop offset="1" stop-color="#BB86FF"/>
</linearGradient>
<linearGradient id="paint23_linear_2020_141252" x1="75.9935" y1="114.198" x2="70.176" y2="113.317" gradientUnits="userSpaceOnUse">
<stop stop-color="#7830D2"/>
<stop offset="1" stop-color="#BB86FF"/>
</linearGradient>
<linearGradient id="paint24_linear_2020_141252" x1="75.8432" y1="111.554" x2="66.4656" y2="110.014" gradientUnits="userSpaceOnUse">
<stop stop-color="#7830D2"/>
<stop offset="1" stop-color="#BB86FF"/>
</linearGradient>
<linearGradient id="paint25_linear_2020_141252" x1="72.5364" y1="114.753" x2="66.7189" y2="113.872" gradientUnits="userSpaceOnUse">
<stop stop-color="#7830D2"/>
<stop offset="1" stop-color="#BB86FF"/>
</linearGradient>
<linearGradient id="paint26_linear_2020_141252" x1="79.4566" y1="116.2" x2="76.701" y2="115.86" gradientUnits="userSpaceOnUse">
<stop stop-color="#7830D2"/>
<stop offset="1" stop-color="#BB86FF"/>
</linearGradient>
<linearGradient id="paint27_linear_2020_141252" x1="73.5426" y1="120.457" x2="66.7561" y2="119.398" gradientUnits="userSpaceOnUse">
<stop stop-color="#7830D2"/>
<stop offset="1" stop-color="#BB86FF"/>
</linearGradient>
<linearGradient id="paint28_linear_2020_141252" x1="69.5134" y1="100.204" x2="64.254" y2="99.4248" gradientUnits="userSpaceOnUse">
<stop stop-color="#7830D2"/>
<stop offset="1" stop-color="#BB86FF"/>
</linearGradient>
<linearGradient id="paint29_linear_2020_141252" x1="70.5713" y1="126.432" x2="64.6412" y2="125.531" gradientUnits="userSpaceOnUse">
<stop stop-color="#7830D2"/>
<stop offset="1" stop-color="#BB86FF"/>
</linearGradient>
<linearGradient id="paint30_linear_2020_141252" x1="80.4286" y1="105.115" x2="70.8744" y2="104.314" gradientUnits="userSpaceOnUse">
<stop stop-color="#7830D2"/>
<stop offset="1" stop-color="#BB86FF"/>
</linearGradient>
<linearGradient id="paint31_linear_2020_141252" x1="72.1669" y1="100.616" x2="62.6127" y2="99.8137" gradientUnits="userSpaceOnUse">
<stop stop-color="#7830D2"/>
<stop offset="1" stop-color="#BB86FF"/>
</linearGradient>
<linearGradient id="paint32_linear_2020_141252" x1="91.0471" y1="90.7743" x2="60.7686" y2="88.8838" gradientUnits="userSpaceOnUse">
<stop stop-color="#7830D2"/>
<stop offset="1" stop-color="#BB86FF"/>
</linearGradient>
<linearGradient id="paint33_linear_2020_141252" x1="99.307" y1="94.9223" x2="69.0284" y2="93.0318" gradientUnits="userSpaceOnUse">
<stop stop-color="#7830D2"/>
<stop offset="1" stop-color="#BB86FF"/>
</linearGradient>
<linearGradient id="paint34_linear_2020_141252" x1="50.7729" y1="84.4881" x2="36.1575" y2="82.9825" gradientUnits="userSpaceOnUse">
<stop stop-color="#7830D2"/>
<stop offset="1" stop-color="#BB86FF"/>
</linearGradient>
</defs>
</svg>
