<svg width="60" height="60" viewBox="0 0 60 60" fill="none" xmlns="http://www.w3.org/2000/svg">
<path d="M30 35.25L30.4411 34.6434L29.9228 34.2665L29.4697 34.7197L30 35.25ZM26.5 38.75L25.7832 38.9706L26.1495 40.1612L27.0303 39.2803L26.5 38.75ZM27.5 33.75L26.9697 33.2197L26.8091 33.3802L26.7646 33.6029L27.5 33.75ZM34.5 26.75L35.0303 27.2803C35.2944 27.0163 35.324 26.5982 35.0997 26.2996C34.8755 26.001 34.4658 25.9129 34.1386 26.0928L34.5 26.75ZM36.0684 37.1469L35.3444 36.9512L36.0684 37.1469ZM24.8859 31.6069L22.4657 30.1548L21.6939 31.441L24.1141 32.8931L24.8859 31.6069ZM22.5701 28.8164L37.4231 22.8045L36.8604 21.4141L22.0074 27.426L22.5701 28.8164ZM38.8307 24.0518L35.3444 36.9512L36.7924 37.3426L40.2788 24.4431L38.8307 24.0518ZM34.1792 37.3621L30.4411 34.6434L29.5589 35.8566L33.297 38.5752L34.1792 37.3621ZM29.4697 34.7197L25.9697 38.2197L27.0303 39.2803L30.5303 35.7803L29.4697 34.7197ZM27.2354 38.8971L28.2354 33.8971L26.7646 33.6029L25.7646 38.6029L27.2354 38.8971ZM28.0303 34.2803L35.0303 27.2803L33.9697 26.2197L26.9697 33.2197L28.0303 34.2803ZM34.1386 26.0928L24.1386 31.5928L24.8614 32.9072L34.8614 27.4072L34.1386 26.0928ZM27.2168 38.5294L25.2168 32.0294L23.7832 32.4706L25.7832 38.9706L27.2168 38.5294ZM35.3444 36.9512C35.2073 37.4586 34.6043 37.6712 34.1792 37.3621L33.297 38.5752C34.5722 39.5026 36.381 38.8647 36.7924 37.3426L35.3444 36.9512ZM37.4231 22.8045C38.2275 22.4789 39.0571 23.2141 38.8307 24.0518L40.2788 24.4431C40.8286 22.4088 38.8137 20.6234 36.8604 21.4141L37.4231 22.8045ZM22.4657 30.1548C21.935 29.8364 21.9965 29.0486 22.5701 28.8164L22.0074 27.426C20.2865 28.1225 20.102 30.4859 21.6939 31.441L22.4657 30.1548Z" fill="#E6E6E6"/>
<rect x="0.5" y="0.5" width="59" height="59" rx="29.5" stroke="#E6E6E6"/>
</svg>
