<svg width="60" height="60" viewBox="0 0 60 60" fill="none" xmlns="http://www.w3.org/2000/svg">
<path d="M24.9 38.6C26.4 39.5 28.2 40 30 40C35.5 40 40 35.5 40 30C40 24.5 35.5 20 30 20C24.5 20 20 24.5 20 30C20 31.8 20.5 33.5 21.3 35L20.4404 38.306C20.2457 39.0549 20.9389 39.7317 21.683 39.5191L24.9 38.6Z" stroke="#E6E6E6" stroke-width="1.5" stroke-miterlimit="10" stroke-linecap="round" stroke-linejoin="round"/>
<path d="M34.5 32.8485C34.5 33.0105 34.4639 33.177 34.3873 33.339C34.3107 33.501 34.2116 33.654 34.0809 33.798C33.86 34.041 33.6167 34.2165 33.3418 34.329C33.0714 34.4415 32.7784 34.5 32.4629 34.5C32.0033 34.5 31.512 34.392 30.9937 34.1715C30.4755 33.951 29.9572 33.654 29.4434 33.2805C28.9251 32.9025 28.4339 32.484 27.9652 32.0205C27.501 31.5525 27.0819 31.062 26.7078 30.549C26.3383 30.036 26.0408 29.523 25.8245 29.0145C25.6082 28.5015 25.5 28.011 25.5 27.543C25.5 27.237 25.5541 26.9445 25.6622 26.6745C25.7704 26.4 25.9417 26.148 26.1805 25.923C26.469 25.6395 26.7844 25.5 27.1179 25.5C27.2441 25.5 27.3703 25.527 27.483 25.581C27.6002 25.635 27.7038 25.716 27.7849 25.833L28.8305 27.3045C28.9116 27.417 28.9702 27.5205 29.0108 27.6195C29.0513 27.714 29.0739 27.8085 29.0739 27.894C29.0739 28.002 29.0423 28.11 28.9792 28.2135C28.9206 28.317 28.835 28.425 28.7268 28.533L28.3843 28.8885C28.3348 28.938 28.3122 28.9965 28.3122 29.0685C28.3122 29.1045 28.3167 29.136 28.3257 29.172C28.3393 29.208 28.3528 29.235 28.3618 29.262C28.4429 29.4105 28.5826 29.604 28.7809 29.838C28.9837 30.072 29.2 30.3105 29.4344 30.549C29.6778 30.7875 29.9121 31.008 30.151 31.2105C30.3853 31.4085 30.5791 31.5435 30.7323 31.6245C30.7549 31.6335 30.7819 31.647 30.8135 31.6605C30.8495 31.674 30.8856 31.6785 30.9261 31.6785C31.0028 31.6785 31.0613 31.6515 31.1109 31.602L31.4534 31.2645C31.5661 31.152 31.6743 31.0665 31.7779 31.0125C31.8816 30.9495 31.9852 30.918 32.0979 30.918C32.1835 30.918 32.2737 30.936 32.3728 30.9765C32.472 31.017 32.5756 31.0755 32.6883 31.152L34.18 32.2095C34.2972 32.2905 34.3783 32.385 34.4279 32.4975C34.473 32.61 34.5 32.7225 34.5 32.8485Z" stroke="#E6E6E6" stroke-width="1.5" stroke-miterlimit="10"/>
<rect x="0.5" y="0.5" width="59" height="59" rx="29.5" stroke="#E6E6E6"/>
</svg>
